# Created by DisUnity v0.3.4
v 0.019203315 0.009701878 0.07711809
v -5.1820057E-6 0.0015819027 -1.4674694E-4
v 0.067129746 0.039287847 0.06110415
v 0.060544886 0.023931418 0.10631133
v 0.12008095 0.023656832 0.11110219
v -0.027785549 0.044227753 0.075972825
v -5.1820057E-6 0.0015819027 -1.4674694E-4
v -0.008970993 0.027388992 0.11702712
v -0.06353089 0.033777855 0.14047939
v 0.067129746 0.039287847 0.06110415
v 0.111809306 0.02370091 0.051948346
v 0.12008095 0.023656832 0.11110219
v 0.07972561 0.0076201526 0.010337277
v -5.1820057E-6 0.0015819027 -1.4674694E-4
v -5.1820057E-6 0.0015819027 -1.4674694E-4
v 0.07551781 0.040147208 -0.038771722
v 0.11753452 0.023201272 -0.022325324
v 0.13776864 0.029248072 -0.07819788
v -0.058421843 0.0148940515 0.03532634
v -5.1820057E-6 0.0015819027 -1.4674694E-4
v -0.027785549 0.044227753 0.075972825
v -0.06353089 0.033777855 0.14047939
v -0.074523516 0.033978395 0.08176751
v -0.058421843 0.0148940515 0.03532634
v -0.06972798 0.04761335 -0.0091534
v -0.103242874 0.034878664 0.023061868
v -0.14330816 0.044284914 -0.020226784
v -5.1820057E-6 0.0015819027 -1.4674694E-4
v -0.058421843 0.0148940515 0.03532634
v 0.07551781 0.040147208 -0.038771722
v 0.078517735 0.029671475 -0.0857273
v 0.13776864 0.029248072 -0.07819788
v 0.031881936 0.01186296 -0.06898478
v -5.1820057E-6 0.0015819027 -1.4674694E-4
v -5.1820057E-6 0.0015819027 -1.4674694E-4
v -0.015055451 0.04552698 -0.075610995
v 0.011965741 0.03287075 -0.11345761
v -0.03668697 0.04226385 -0.14681044
v -0.015055451 0.04552698 -0.075610995
v -0.059494864 0.036452726 -0.09190951
v -0.03668697 0.04226385 -0.14681044
v -0.049228232 0.015824419 -0.048317727
v -5.1820057E-6 0.0015819027 -1.4674694E-4
v -5.1820057E-6 0.0015819027 -1.4674694E-4
v -0.06972798 0.04761335 -0.0091534
v -0.09229687 0.0385661 -0.050765626
v -0.14330816 0.044284914 -0.020226784
v 1.2921054E-4 -0.0010910542 3.770315E-4
v 0.019337632 0.007029267 0.077642426
v 0.067264065 0.03661527 0.061628442
v 0.060679205 0.021258807 0.10683567
v 0.12021426 0.020984108 0.11162645
v 1.2921054E-4 -0.0010910542 3.770315E-4
v -0.027652284 0.04155548 0.076497465
v -0.008836625 0.024715994 0.117550835
v -0.063397475 0.031104805 0.14100312
v 0.111942634 0.021028198 0.052472644
v 0.067264065 0.03661527 0.061628442
v 0.12021426 0.020984108 0.11162645
v 0.07986002 0.0049471837 0.010861065
v 1.2921054E-4 -0.0010910542 3.770315E-4
v 1.2921054E-4 -0.0010910542 3.770315E-4
v 0.07565203 0.03747506 -0.03824701
v 0.117667876 0.020528624 -0.021801097
v 0.13790287 0.026576558 -0.0776739
v 1.2921054E-4 -0.0010910542 3.770315E-4
v -0.05828747 0.012221094 0.035850123
v -0.027652284 0.04155548 0.076497465
v -0.063397475 0.031104805 0.14100312
v -0.07438927 0.031306207 0.0822922
v -0.05828747 0.012221094 0.035850123
v -0.06959359 0.044940393 -0.008629624
v -0.10310954 0.032205928 0.02358608
v -0.14317383 0.04161232 -0.019702466
v 1.2921054E-4 -0.0010910542 3.770315E-4
v -0.05828747 0.012221094 0.035850123
v 0.07865213 0.02699852 -0.08520352
v 0.07565203 0.03747506 -0.03824701
v 0.13790287 0.026576558 -0.0776739
v 0.032015108 0.009191359 -0.06846082
v 1.2921054E-4 -0.0010910542 3.770315E-4
v 1.2921054E-4 -0.0010910542 3.770315E-4
v -0.014921134 0.042854358 -0.07508671
v 0.012099081 0.03019804 -0.11293337
v -0.036553618 0.039591268 -0.14628631
v -0.05936159 0.033780012 -0.09138526
v -0.014921134 0.042854358 -0.07508671
v -0.036553618 0.039591268 -0.14628631
v -0.049093913 0.013151792 -0.047793437
v 1.2921054E-4 -0.0010910542 3.770315E-4
v 1.2921054E-4 -0.0010910542 3.770315E-4
v -0.06959359 0.044940393 -0.008629624
v -0.09216255 0.035893507 -0.050241318
v -0.14317383 0.04161232 -0.019702466
vn 0.036824934 0.99932027 -0.0016824668
vn 0.0793744 0.99651563 0.025617398
vn -0.08966126 0.9915975 -0.09324931
vn -0.22267011 0.93250966 0.2843302
vn 0.15474787 0.97772753 0.14178127
vn 0.16789868 0.9742492 -0.15049413
vn 0.0793744 0.99651563 0.025617398
vn 0.4014574 0.8972018 0.18401295
vn 0.010174467 0.9861748 0.16539583
vn -0.08966126 0.9915975 -0.09324931
vn 0.27267945 0.9288749 -0.25067353
vn 0.15474787 0.97772753 0.14178127
vn 0.023694046 0.9995819 0.016573817
vn 0.0793744 0.99651563 0.025617398
vn 0.0793744 0.99651563 0.025617398
vn -0.11339732 0.9821004 0.15039833
vn 0.22157422 0.9040707 0.36546013
vn 0.1699745 0.9854402 -0.0040428774
vn 0.11001685 0.99384624 -0.012876719
vn 0.0793744 0.99651563 0.025617398
vn 0.16789868 0.9742492 -0.15049413
vn 0.010174467 0.9861748 0.16539583
vn -0.23198274 0.9558333 -0.18046236
vn 0.11001685 0.99384624 -0.012876719
vn 0.29850572 0.9523675 0.06237289
vn 0.048229363 0.9107262 0.4101848
vn -0.051486317 0.9977816 0.042202394
vn 0.0793744 0.99651563 0.025617398
vn 0.11001685 0.99384624 -0.012876719
vn -0.11339732 0.9821004 0.15039833
vn -0.17675899 0.9581773 -0.2250611
vn 0.1699745 0.9854402 -0.0040428774
vn 0.03418593 0.99690586 0.07078063
vn 0.0793744 0.99651563 0.025617398
vn 0.0793744 0.99651563 0.025617398
vn 0.1083924 0.95969474 0.25930122
vn 0.41117412 0.91148746 -0.011244836
vn 0.033193678 0.997889 -0.05581894
vn 0.1083924 0.95969474 0.25930122
vn -0.27135807 0.9374795 0.21793804
vn 0.033193678 0.997889 -0.05581894
vn 0.113201015 0.9885252 0.100017235
vn 0.0793744 0.99651563 0.025617398
vn 0.0793744 0.99651563 0.025617398
vn 0.29850572 0.9523675 0.06237289
vn 0.1951078 0.93108165 -0.30825296
vn -0.051486317 0.9977816 0.042202394
vn -0.0793709 -0.99651575 -0.025622616
vn -0.03682093 -0.9993205 0.0016839444
vn 0.08965831 -0.99159765 0.09324981
vn 0.22266921 -0.9325098 -0.28433084
vn -0.15475136 -0.97772676 -0.1417835
vn -0.0793709 -0.99651575 -0.025622616
vn -0.16789249 -0.974251 0.15048964
vn -0.4014606 -0.8971991 -0.18401957
vn -0.010176466 -0.98617226 -0.16541068
vn -0.27268675 -0.92887205 0.25067645
vn 0.08965831 -0.99159765 0.09324981
vn -0.15475136 -0.97772676 -0.1417835
vn -0.023696098 -0.99958163 -0.016585277
vn -0.0793709 -0.99651575 -0.025622616
vn -0.0793709 -0.99651575 -0.025622616
vn 0.113392405 -0.9820992 -0.15041043
vn -0.2215813 -0.90406024 -0.3654814
vn -0.16996516 -0.9854417 0.0040420317
vn -0.0793709 -0.99651575 -0.025622616
vn -0.11001788 -0.9938461 0.0128776785
vn -0.16789249 -0.974251 0.15048964
vn -0.010176466 -0.98617226 -0.16541068
vn 0.23198551 -0.9558335 0.18045762
vn -0.11001788 -0.9938461 0.0128776785
vn -0.29850927 -0.9523664 -0.06237232
vn -0.048234034 -0.9107281 -0.4101802
vn 0.05148174 -0.9977817 -0.04220667
vn -0.0793709 -0.99651575 -0.025622616
vn -0.11001788 -0.9938461 0.0128776785
vn 0.17675707 -0.9581748 0.22507311
vn 0.113392405 -0.9820992 -0.15041043
vn -0.16996516 -0.9854417 0.0040420317
vn -0.034195744 -0.996905 -0.07078744
vn -0.0793709 -0.99651575 -0.025622616
vn -0.0793709 -0.99651575 -0.025622616
vn -0.10839637 -0.9596944 -0.2593008
vn -0.41117495 -0.91148686 0.011256832
vn -0.033193223 -0.997889 0.05581849
vn 0.27135488 -0.93747985 -0.21794078
vn -0.10839637 -0.9596944 -0.2593008
vn -0.033193223 -0.997889 0.05581849
vn -0.11320335 -0.9885245 -0.10002204
vn -0.0793709 -0.99651575 -0.025622616
vn -0.0793709 -0.99651575 -0.025622616
vn -0.29850927 -0.9523664 -0.06237232
vn -0.1951082 -0.93108267 0.3082496
vn 0.05148174 -0.9977817 -0.04220667
vt 0.7907 0.21700001
vt 0.9845 0.3424
vt 0.9845 0.16030002
vt 0.8289 0.10900003
vt 0.9845 0.012899995
vt 0.9845 0.16030002
vt 0.9845 0.3424
vt 0.8289 0.10900003
vt 0.9845 0.012899995
vt 0.9845 0.16030002
vt 0.8289 0.10900003
vt 0.9845 0.012899995
vt 0.7907 0.21700001
vt 0.9845 0.3424
vt 0.9845 0.3424
vt 0.9845 0.16030002
vt 0.8289 0.10900003
vt 0.9845 0.012899995
vt 0.7907 0.21700001
vt 0.9845 0.3424
vt 0.9845 0.16030002
vt 0.9845 0.012899995
vt 0.8289 0.10900003
vt 0.7907 0.21700001
vt 0.9845 0.16030002
vt 0.8289 0.10900003
vt 0.9845 0.012899995
vt 0.9845 0.3424
vt 0.7907 0.21700001
vt 0.9845 0.16030002
vt 0.8289 0.10900003
vt 0.9845 0.012899995
vt 0.7907 0.21700001
vt 0.9845 0.3424
vt 0.9845 0.3424
vt 0.9845 0.16030002
vt 0.8289 0.10900003
vt 0.9845 0.012899995
vt 0.9845 0.16030002
vt 0.8289 0.10900003
vt 0.9845 0.012899995
vt 0.7907 0.21700001
vt 0.9845 0.3424
vt 0.9845 0.3424
vt 0.9845 0.16030002
vt 0.8289 0.10900003
vt 0.9845 0.012899995
vt 0.9845 0.3424
vt 0.7907 0.21700001
vt 0.9845 0.16030002
vt 0.8289 0.10900003
vt 0.9845 0.012899995
vt 0.9845 0.3424
vt 0.9845 0.16030002
vt 0.8289 0.10900003
vt 0.9845 0.012899995
vt 0.8289 0.10900003
vt 0.9845 0.16030002
vt 0.9845 0.012899995
vt 0.7907 0.21700001
vt 0.9845 0.3424
vt 0.9845 0.3424
vt 0.9845 0.16030002
vt 0.8289 0.10900003
vt 0.9845 0.012899995
vt 0.9845 0.3424
vt 0.7907 0.21700001
vt 0.9845 0.16030002
vt 0.9845 0.012899995
vt 0.8289 0.10900003
vt 0.7907 0.21700001
vt 0.9845 0.16030002
vt 0.8289 0.10900003
vt 0.9845 0.012899995
vt 0.9845 0.3424
vt 0.7907 0.21700001
vt 0.8289 0.10900003
vt 0.9845 0.16030002
vt 0.9845 0.012899995
vt 0.7907 0.21700001
vt 0.9845 0.3424
vt 0.9845 0.3424
vt 0.9845 0.16030002
vt 0.8289 0.10900003
vt 0.9845 0.012899995
vt 0.8289 0.10900003
vt 0.9845 0.16030002
vt 0.9845 0.012899995
vt 0.7907 0.21700001
vt 0.9845 0.3424
vt 0.9845 0.3424
vt 0.9845 0.16030002
vt 0.8289 0.10900003
vt 0.9845 0.012899995

g ______001
s 1
usemtl ______001
f 3/3/3 2/2/2 1/1/1 
f 3/3/3 1/1/1 4/4/4 
f 4/4/4 5/5/5 3/3/3 
f 1/1/1 7/7/7 6/6/6 
f 8/8/8 1/1/1 6/6/6 
f 9/9/9 8/8/8 6/6/6 
f 12/12/12 11/11/11 10/10/10 
f 11/11/11 13/13/13 10/10/10 
f 13/13/13 14/14/14 10/10/10 
f 16/16/16 15/15/15 13/13/13 
f 16/16/16 13/13/13 17/17/17 
f 17/17/17 18/18/18 16/16/16 
f 21/21/21 20/20/20 19/19/19 
f 23/23/23 22/22/22 21/21/21 
f 21/21/21 24/24/24 23/23/23 
f 26/26/26 24/24/24 25/25/25 
f 27/27/27 26/26/26 25/25/25 
f 29/29/29 28/28/28 25/25/25 
f 32/32/32 31/31/31 30/30/30 
f 31/31/31 33/33/33 30/30/30 
f 33/33/33 34/34/34 30/30/30 
f 36/36/36 35/35/35 33/33/33 
f 36/36/36 33/33/33 37/37/37 
f 37/37/37 38/38/38 36/36/36 
f 41/41/41 40/40/40 39/39/39 
f 40/40/40 42/42/42 39/39/39 
f 42/42/42 43/43/43 39/39/39 
f 45/45/45 44/44/44 42/42/42 
f 45/45/45 42/42/42 46/46/46 
f 46/46/46 47/47/47 45/45/45 
f 50/50/50 49/49/49 48/48/48 
f 51/51/51 49/49/49 50/50/50 
f 51/51/51 50/50/50 52/52/52 
f 49/49/49 54/54/54 53/53/53 
f 55/55/55 54/54/54 49/49/49 
f 56/56/56 54/54/54 55/55/55 
f 59/59/59 58/58/58 57/57/57 
f 57/57/57 58/58/58 60/60/60 
f 60/60/60 58/58/58 61/61/61 
f 63/63/63 60/60/60 62/62/62 
f 64/64/64 60/60/60 63/63/63 
f 64/64/64 63/63/63 65/65/65 
f 68/68/68 67/67/67 66/66/66 
f 70/70/70 68/68/68 69/69/69 
f 70/70/70 71/71/71 68/68/68 
f 73/73/73 72/72/72 71/71/71 
f 74/74/74 72/72/72 73/73/73 
f 76/76/76 72/72/72 75/75/75 
f 79/79/79 78/78/78 77/77/77 
f 77/77/77 78/78/78 80/80/80 
f 80/80/80 78/78/78 81/81/81 
f 83/83/83 80/80/80 82/82/82 
f 84/84/84 80/80/80 83/83/83 
f 84/84/84 83/83/83 85/85/85 
f 88/88/88 87/87/87 86/86/86 
f 86/86/86 87/87/87 89/89/89 
f 89/89/89 87/87/87 90/90/90 
f 92/92/92 89/89/89 91/91/91 
f 93/93/93 89/89/89 92/92/92 
f 93/93/93 92/92/92 94/94/94 

