# Created by DisUnity v0.3.4
v 0.16180341 0.0 0.11755707
v 0.4755282 0.5 0.15450852
v 0.1902113 0.0 0.061803438
v 0.40450856 0.5 0.2938926
v 0.11755704 0.0 0.16180344
v 0.2938926 0.5 0.4045085
v 0.06180336 0.0 0.19021134
v 0.1545084 0.5 0.4755283
v 2.7814187E-8 0.0 0.20000003
v 6.953546E-8 0.5 0.5
v -0.061803397 0.0 0.19021134
v -0.1545085 0.5 0.47552824
v -0.11755707 0.0 0.16180341
v -0.29389268 0.5 0.40450844
v -0.16180338 0.0 0.11755711
v -0.40450844 0.5 0.2938927
v -0.1902113 0.0 0.06180344
v 0.5 0.5 -5.3642207E-8
v 0.2 0.0 9.141087E-9
v 0.47552824 0.5 -0.15450862
v 0.19021128 0.0 -0.06180341
v 0.4045085 0.5 -0.2938927
v 0.16180341 0.0 -0.11755704
v 0.29389265 0.5 -0.4045085
v 0.11755706 0.0 -0.16180336
v 0.15450846 0.5 -0.47552824
v 0.06180338 0.0 -0.19021128
v -5.3642204E-8 0.5 -0.5
v -2.145688E-8 0.0 -0.19999997
v -0.15450856 0.5 -0.4755283
v -0.061803427 0.0 -0.19021128
v -0.2938927 0.5 -0.40450844
v -0.11755707 0.0 -0.16180336
v -0.40450856 0.5 -0.2938926
v -0.16180341 0.0 -0.117557004
v -0.4755283 0.5 -0.15450846
v -0.19021133 0.0 -0.06180335
v -0.5 0.5 5.3642204E-8
v -0.2 0.0 5.205485E-8
v -0.2 0.0 5.205485E-8
v -0.4755283 0.5 0.15450852
v -0.5 0.5 5.3642204E-8
vn 0.7195991 -0.5139693 0.46691823
vn 0.8007147 -0.5139692 0.30772015
vn 0.8286651 -0.51396924 0.22169745
vn 0.6664341 -0.5139693 0.5400936
vn 0.5400936 -0.5139693 0.6664341
vn 0.46691823 -0.5139693 0.7195991
vn 0.3077201 -0.51396936 0.8007146
vn 0.22169738 -0.5139693 0.8286651
vn 0.045224927 -0.5139693 0.8566156
vn -0.045224834 -0.5139693 0.8566156
vn -0.22169738 -0.5139693 0.8286651
vn -0.30772024 -0.5139693 0.8007145
vn -0.46691838 -0.5139693 0.71959907
vn -0.5400937 -0.5139693 0.6664341
vn -0.666434 -0.5139693 0.54009366
vn -0.719599 -0.51396936 0.46691844
vn -0.8007145 -0.5139693 0.30772033
vn 0.8566156 -0.5139693 0.04522497
vn 0.85661554 -0.5139694 -0.04522492
vn 0.828665 -0.51396936 -0.2216975
vn 0.8007145 -0.5139694 -0.30772024
vn 0.719599 -0.5139694 -0.46691835
vn 0.666434 -0.5139694 -0.54009366
vn 0.54009354 -0.5139694 -0.6664341
vn 0.46691823 -0.51396936 -0.7195991
vn 0.30772012 -0.5139693 -0.8007145
vn 0.22169736 -0.5139693 -0.8286651
vn 0.04522493 -0.5139694 -0.85661554
vn -0.04522484 -0.5139694 -0.85661554
vn -0.2216975 -0.5139694 -0.828665
vn -0.30772033 -0.51396936 -0.80071443
vn -0.4669184 -0.51396936 -0.71959895
vn -0.5400938 -0.51396936 -0.6664339
vn -0.66643405 -0.5139694 -0.5400936
vn -0.7195991 -0.5139694 -0.46691823
vn -0.8007145 -0.51396936 -0.30772007
vn -0.8286651 -0.51396936 -0.22169723
vn -0.85661554 -0.5139694 -0.04522478
vn -0.85661554 -0.5139694 0.04522491
vn -0.85661554 -0.5139694 0.04522491
vn -0.828665 -0.51396936 0.22169743
vn -0.85661554 -0.5139694 -0.04522478
vt 0.39971143 0.99812055
vt 0.4487259 -0.0019282103
vt 0.44971138 0.9980712
vt 0.39872596 -0.0018789768
vt 0.34971148 0.99816966
vt 0.348726 -0.0018297434
vt 0.29971153 0.998219
vt 0.29872605 -0.0017803907
vt 0.24971151 0.99826837
vt 0.24872604 -0.0017311573
vt 0.1997115 0.9983175
vt 0.19872603 -0.0016819239
vt 0.14971155 0.99836683
vt 0.14872608 -0.0016325712
vt 0.0997116 0.9984162
vt 0.09872612 -0.0015833378
vt 0.049711645 0.9984653
vt 0.49872595 -0.0019774437
vt 0.4997114 0.99802196
vt 0.5487259 -0.0020267963
vt 0.54971135 0.9979727
vt 0.59872586 -0.002076149
vt 0.5997113 0.9979234
vt 0.6487259 -0.0021252632
vt 0.6497114 0.99787414
vt 0.6987259 -0.0021746159
vt 0.6997113 0.9978249
vt 0.74872583 -0.0022239685
vt 0.7497113 0.99777555
vt 0.7987258 -0.0022730827
vt 0.7997112 0.9977263
vt 0.8487258 -0.0023224354
vt 0.84971124 0.9976771
vt 0.89872575 -0.002371788
vt 0.8997112 0.99762774
vt 0.94872576 -0.0024209023
vt 0.9497112 0.9975785
vt 0.99872565 -0.002470255
vt 0.99971116 0.99752927
vt -2.8836727E-4 0.99851465
vt 0.04872617 -0.0015341043
vt -0.0012738369 -0.0014847517

g Cone
s 1
usemtl Cone
f 3/3/3 2/2/2 1/1/1 
f 1/1/1 2/2/2 4/4/4 
f 1/1/1 4/4/4 5/5/5 
f 5/5/5 4/4/4 6/6/6 
f 5/5/5 6/6/6 7/7/7 
f 7/7/7 6/6/6 8/8/8 
f 7/7/7 8/8/8 9/9/9 
f 9/9/9 8/8/8 10/10/10 
f 9/9/9 10/10/10 11/11/11 
f 11/11/11 10/10/10 12/12/12 
f 11/11/11 12/12/12 13/13/13 
f 13/13/13 12/12/12 14/14/14 
f 13/13/13 14/14/14 15/15/15 
f 15/15/15 14/14/14 16/16/16 
f 15/15/15 16/16/16 17/17/17 
f 3/3/3 18/18/18 2/2/2 
f 19/19/19 18/18/18 3/3/3 
f 19/19/19 20/20/20 18/18/18 
f 21/21/21 20/20/20 19/19/19 
f 21/21/21 22/22/22 20/20/20 
f 23/23/23 22/22/22 21/21/21 
f 23/23/23 24/24/24 22/22/22 
f 25/25/25 24/24/24 23/23/23 
f 25/25/25 26/26/26 24/24/24 
f 27/27/27 26/26/26 25/25/25 
f 27/27/27 28/28/28 26/26/26 
f 29/29/29 28/28/28 27/27/27 
f 29/29/29 30/30/30 28/28/28 
f 31/31/31 30/30/30 29/29/29 
f 31/31/31 32/32/32 30/30/30 
f 33/33/33 32/32/32 31/31/31 
f 33/33/33 34/34/34 32/32/32 
f 35/35/35 34/34/34 33/33/33 
f 35/35/35 36/36/36 34/34/34 
f 37/37/37 36/36/36 35/35/35 
f 37/37/37 38/38/38 36/36/36 
f 39/39/39 38/38/38 37/37/37 
f 17/17/17 41/41/41 40/40/40 
f 40/40/40 41/41/41 42/42/42 
f 17/17/17 16/16/16 41/41/41 

