# Created by DisUnity v0.3.4
v 0.087940186 0.0 0.063892305
v 0.4755282 0.5 0.15450852
v 0.10337987 0.0 0.033590194
v 0.40450856 0.5 0.2938926
v 0.06389227 0.0 0.08794021
v 0.2938926 0.5 0.4045085
v 0.033590134 0.0 0.10337992
v 0.1545084 0.5 0.4755283
v 1.5117019E-8 0.0 0.10870006
v 6.953546E-8 0.5 0.5
v -0.03359016 0.0 0.103379905
v -0.1545085 0.5 0.47552824
v -0.0638923 0.0 0.0879402
v -0.29389268 0.5 0.40450844
v -0.087940164 0.0 0.06389233
v -0.40450844 0.5 0.2938927
v -0.10337988 0.0 0.033590194
v 0.5 0.5 -5.3642207E-8
v 0.10870004 0.0 1.5851986E-8
v 0.47552824 0.5 -0.15450862
v 0.10337987 0.0 -0.033590153
v 0.4045085 0.5 -0.2938927
v 0.08794018 0.0 -0.06389226
v 0.29389265 0.5 -0.4045085
v 0.06389229 0.0 -0.08794015
v 0.15450846 0.5 -0.47552824
v 0.03359015 0.0 -0.103379846
v -5.3642204E-8 0.5 -0.5
v -1.1661817E-8 0.0 -0.108700015
v -0.15450856 0.5 -0.4755283
v -0.03359017 0.0 -0.10337986
v -0.2938927 0.5 -0.40450844
v -0.06389229 0.0 -0.08794014
v -0.40450856 0.5 -0.2938926
v -0.08794019 0.0 -0.06389224
v -0.4755283 0.5 -0.15450846
v -0.10337988 0.0 -0.03359012
v -0.5 0.5 5.3642204E-8
v -0.10870004 0.0 3.9175628E-8
v -0.10870004 0.0 3.9175628E-8
v -0.4755283 0.5 0.15450852
v -0.5 0.5 5.3642204E-8
vn 0.66097474 -0.615772 0.42887923
vn 0.73548186 -0.61577195 0.28265062
vn 0.76115525 -0.61577195 0.20363612
vn 0.61214083 -0.61577195 0.49609318
vn 0.49609318 -0.61577195 0.6121409
vn 0.42887935 -0.61577195 0.66097456
vn 0.2826507 -0.61577195 0.73548186
vn 0.203636 -0.61577195 0.7611551
vn 0.041540444 -0.615772 0.78682864
vn -0.04154045 -0.615772 0.78682864
vn -0.20363608 -0.61577195 0.76115525
vn -0.28265077 -0.61577195 0.73548186
vn -0.42887938 -0.61577195 0.6609746
vn -0.4960932 -0.61577195 0.61214083
vn -0.61214083 -0.61577195 0.49609333
vn -0.6609745 -0.61577195 0.42887947
vn -0.73548174 -0.61577207 0.28265092
vn 0.78682864 -0.615772 0.0415406
vn 0.78682864 -0.61577207 -0.041540492
vn 0.7611551 -0.615772 -0.20363614
vn 0.7354816 -0.615772 -0.2826508
vn 0.6609745 -0.61577207 -0.42887935
vn 0.6121408 -0.61577207 -0.4960932
vn 0.4960931 -0.61577207 -0.6121409
vn 0.4288792 -0.61577207 -0.6609746
vn 0.2826506 -0.615772 -0.7354818
vn 0.20363605 -0.61577195 -0.7611551
vn 0.041540623 -0.615772 -0.7868285
vn -0.04154032 -0.61577207 -0.78682864
vn -0.2036361 -0.61577207 -0.7611551
vn -0.28265092 -0.615772 -0.7354816
vn -0.42887947 -0.615772 -0.6609744
vn -0.49609327 -0.615772 -0.6121407
vn -0.61214083 -0.615772 -0.49609312
vn -0.66097456 -0.61577207 -0.42887923
vn -0.7354818 -0.615772 -0.2826506
vn -0.7611551 -0.61577195 -0.20363593
vn -0.78682864 -0.61577207 -0.041540444
vn -0.78682864 -0.61577207 0.041540433
vn -0.78682864 -0.61577207 0.041540433
vn -0.7611551 -0.615772 0.2036361
vn -0.78682864 -0.61577207 -0.041540444
vt 0.39971143 0.99812055
vt 0.4487259 -0.0019282103
vt 0.44971138 0.9980712
vt 0.39872596 -0.0018789768
vt 0.34971148 0.99816966
vt 0.348726 -0.0018297434
vt 0.29971153 0.998219
vt 0.29872605 -0.0017803907
vt 0.24971151 0.99826837
vt 0.24872604 -0.0017311573
vt 0.1997115 0.9983175
vt 0.19872603 -0.0016819239
vt 0.14971155 0.99836683
vt 0.14872608 -0.0016325712
vt 0.0997116 0.9984162
vt 0.09872612 -0.0015833378
vt 0.049711645 0.9984653
vt 0.49872595 -0.0019774437
vt 0.4997114 0.99802196
vt 0.5487259 -0.0020267963
vt 0.54971135 0.9979727
vt 0.59872586 -0.002076149
vt 0.5997113 0.9979234
vt 0.6487259 -0.0021252632
vt 0.6497114 0.99787414
vt 0.6987259 -0.0021746159
vt 0.6997113 0.9978249
vt 0.74872583 -0.0022239685
vt 0.7497113 0.99777555
vt 0.7987258 -0.0022730827
vt 0.7997112 0.9977263
vt 0.8487258 -0.0023224354
vt 0.84971124 0.9976771
vt 0.89872575 -0.002371788
vt 0.8997112 0.99762774
vt 0.94872576 -0.0024209023
vt 0.9497112 0.9975785
vt 0.99872565 -0.002470255
vt 0.99971116 0.99752927
vt -2.8836727E-4 0.99851465
vt 0.04872617 -0.0015341043
vt -0.0012738369 -0.0014847517

g Cone
s 1
usemtl Cone
f 3/3/3 2/2/2 1/1/1 
f 1/1/1 2/2/2 4/4/4 
f 1/1/1 4/4/4 5/5/5 
f 5/5/5 4/4/4 6/6/6 
f 5/5/5 6/6/6 7/7/7 
f 7/7/7 6/6/6 8/8/8 
f 7/7/7 8/8/8 9/9/9 
f 9/9/9 8/8/8 10/10/10 
f 9/9/9 10/10/10 11/11/11 
f 11/11/11 10/10/10 12/12/12 
f 11/11/11 12/12/12 13/13/13 
f 13/13/13 12/12/12 14/14/14 
f 13/13/13 14/14/14 15/15/15 
f 15/15/15 14/14/14 16/16/16 
f 15/15/15 16/16/16 17/17/17 
f 3/3/3 18/18/18 2/2/2 
f 19/19/19 18/18/18 3/3/3 
f 19/19/19 20/20/20 18/18/18 
f 21/21/21 20/20/20 19/19/19 
f 21/21/21 22/22/22 20/20/20 
f 23/23/23 22/22/22 21/21/21 
f 23/23/23 24/24/24 22/22/22 
f 25/25/25 24/24/24 23/23/23 
f 25/25/25 26/26/26 24/24/24 
f 27/27/27 26/26/26 25/25/25 
f 27/27/27 28/28/28 26/26/26 
f 29/29/29 28/28/28 27/27/27 
f 29/29/29 30/30/30 28/28/28 
f 31/31/31 30/30/30 29/29/29 
f 31/31/31 32/32/32 30/30/30 
f 33/33/33 32/32/32 31/31/31 
f 33/33/33 34/34/34 32/32/32 
f 35/35/35 34/34/34 33/33/33 
f 35/35/35 36/36/36 34/34/34 
f 37/37/37 36/36/36 35/35/35 
f 37/37/37 38/38/38 36/36/36 
f 39/39/39 38/38/38 37/37/37 
f 17/17/17 41/41/41 40/40/40 
f 40/40/40 41/41/41 42/42/42 
f 17/17/17 16/16/16 41/41/41 

