# Created by DisUnity v0.3.4
v 1.0419581 7.4035575E-15 1.8218175E-7
v 0.9791204 12.6708 -0.3563705
v 0.9791204 6.97889E-15 -0.3563705
v 1.0419581 12.6708 1.8218175E-7
v 0.7981863 12.6708 -0.6697576
v 0.7981863 5.7124656E-15 -0.6697576
v 0.52097917 12.6708 -0.9023621
v 0.52097917 3.7570333E-15 -0.9023621
v 0.18093422 12.6708 -1.0261284
v 0.18093422 1.3484473E-15 -1.0261284
v -0.18093406 12.6708 -1.0261284
v -0.18093406 -1.2227816E-15 -1.0261284
v 0.97912 6.935245E-15 0.3563715
v 0.97912 12.6708 0.3563715
v 0.7981856 5.630439E-15 0.66975844
v 0.7981856 12.6708 0.66975844
v 0.52097833 3.64652E-15 0.9023625
v 0.52097833 12.6708 0.9023625
v 0.18093343 1.2227772E-15 1.0261284
v 0.18093343 12.6708 1.0261284
v -0.18093473 -1.3484509E-15 1.0261283
v -0.18093473 12.6708 1.0261283
v -0.52097946 -3.757036E-15 0.90236187
v -0.52097946 12.6708 0.90236187
v -0.79818654 -5.712467E-15 0.66975737
v -0.79818654 12.6708 0.66975737
v -0.97912043 -6.9788904E-15 0.35637027
v -0.97912043 12.6708 0.35637027
v -1.0419581 -7.4035575E-15 -3.3951306E-7
v -1.0419581 12.6708 -3.3951306E-7
v -0.97912025 -6.9352466E-15 -0.35637087
v -0.97912025 12.6708 -0.35637087
v -0.798186 -5.6304423E-15 -0.6697579
v -0.798186 12.6708 -0.6697579
v -0.5209789 -3.6465243E-15 -0.90236217
v -0.5209789 12.6708 -0.90236217
v -0.18093406 -1.2227816E-15 -1.0261284
v -0.18093406 12.6708 -1.0261284
vn 1.0 0.0 3.1933632E-7
vn 0.9396926 0.0 -0.34201995
vn 0.9396926 0.0 -0.34201995
vn 1.0 0.0 3.1933632E-7
vn 0.7660445 0.0 -0.64278746
vn 0.7660445 0.0 -0.64278746
vn 0.5000002 0.0 -0.8660253
vn 0.5000002 0.0 -0.8660253
vn 0.17364824 0.0 -0.9848077
vn 0.17364824 0.0 -0.9848077
vn -0.1736481 0.0 -0.9848077
vn -0.1736481 0.0 -0.9848077
vn 0.93969244 0.0 0.34202084
vn 0.93969244 0.0 0.34202084
vn 0.76604384 0.0 0.6427883
vn 0.76604384 0.0 0.6427883
vn 0.49999934 0.0 0.8660258
vn 0.49999934 0.0 0.8660258
vn 0.17364754 0.0 0.98480785
vn 0.17364754 0.0 0.98480785
vn -0.17364874 0.0 0.9848076
vn -0.17364874 0.0 0.9848076
vn -0.5000004 0.0 0.86602527
vn -0.5000004 0.0 0.86602527
vn -0.7660448 0.0 0.6427873
vn -0.7660448 0.0 0.6427873
vn -0.93969274 0.0 0.34201974
vn -0.93969274 0.0 0.34201974
vn -1.0 0.0 -2.8080544E-7
vn -1.0 0.0 -2.8080544E-7
vn -0.93969256 0.0 -0.3420204
vn -0.93969256 0.0 -0.3420204
vn -0.7660443 0.0 -0.6427878
vn -0.7660443 0.0 -0.6427878
vn -0.49999994 0.0 -0.8660255
vn -0.49999994 0.0 -0.8660255
vn -0.1736481 0.0 -0.9848077
vn -0.1736481 0.0 -0.9848077
vt 0.75 1.0
vt 0.8055555 0.0
vt 0.8055555 1.0
vt 0.75 0.0
vt 0.86111104 0.0
vt 0.86111104 1.0
vt 0.9166667 0.0
vt 0.9166667 1.0
vt 0.9722222 0.0
vt 0.9722222 1.0
vt 1.0277778 0.0
vt 1.0277778 1.0
vt 0.69444436 1.0
vt 0.69444436 0.0
vt 0.6388887 1.0
vt 0.6388887 0.0
vt 0.58333325 1.0
vt 0.58333325 0.0
vt 0.5277777 1.0
vt 0.5277777 0.0
vt 0.47222215 1.0
vt 0.47222215 0.0
vt 0.41666666 1.0
vt 0.41666666 0.0
vt 0.3611111 1.0
vt 0.3611111 0.0
vt 0.30555552 1.0
vt 0.30555552 0.0
vt 0.24999999 1.0
vt 0.24999999 0.0
vt 0.19444443 1.0
vt 0.19444443 0.0
vt 0.1388889 1.0
vt 0.1388889 0.0
vt 0.08333339 1.0
vt 0.08333339 0.0
vt 0.02777781 1.0
vt 0.02777781 0.0

g Cylinder001
s 1
usemtl Cylinder001
f 3/3/3 2/2/2 1/1/1 
f 2/2/2 4/4/4 1/1/1 
f 5/5/5 2/2/2 3/3/3 
f 6/6/6 5/5/5 3/3/3 
f 7/7/7 5/5/5 6/6/6 
f 8/8/8 7/7/7 6/6/6 
f 9/9/9 7/7/7 8/8/8 
f 10/10/10 9/9/9 8/8/8 
f 11/11/11 9/9/9 10/10/10 
f 12/12/12 11/11/11 10/10/10 
f 1/1/1 4/4/4 13/13/13 
f 4/4/4 14/14/14 13/13/13 
f 13/13/13 14/14/14 15/15/15 
f 14/14/14 16/16/16 15/15/15 
f 15/15/15 16/16/16 17/17/17 
f 16/16/16 18/18/18 17/17/17 
f 17/17/17 18/18/18 19/19/19 
f 18/18/18 20/20/20 19/19/19 
f 19/19/19 20/20/20 21/21/21 
f 20/20/20 22/22/22 21/21/21 
f 21/21/21 22/22/22 23/23/23 
f 22/22/22 24/24/24 23/23/23 
f 23/23/23 24/24/24 25/25/25 
f 24/24/24 26/26/26 25/25/25 
f 25/25/25 26/26/26 27/27/27 
f 26/26/26 28/28/28 27/27/27 
f 27/27/27 28/28/28 29/29/29 
f 28/28/28 30/30/30 29/29/29 
f 29/29/29 30/30/30 31/31/31 
f 30/30/30 32/32/32 31/31/31 
f 31/31/31 32/32/32 33/33/33 
f 32/32/32 34/34/34 33/33/33 
f 33/33/33 34/34/34 35/35/35 
f 34/34/34 36/36/36 35/35/35 
f 35/35/35 36/36/36 37/37/37 
f 36/36/36 38/38/38 37/37/37 

