# Created by DisUnity v0.3.4
v 3.4220788 -3.0517577E-7 -0.46086302
v 4.9334307 1.7956213 -0.30986997
v 3.2157025 1.1704199 -0.46086287
v 5.2500467 -6.1035155E-7 -0.31602263
v 4.0217695 3.3746643 -0.29429168
v 2.6214643 2.1996691 -0.46086302
v 2.6250231 4.5466733 -0.27657652
v 1.7110394 2.9636066 -0.46086302
v 0.91166013 5.1702857 -0.26501372
v 0.594237 3.370089 -0.46086302
v -0.9116613 5.1702867 -0.26501372
v -0.5942373 3.3700902 -0.46086302
v 3.2157 -1.1704227 -0.46086302
v 4.933427 -1.7956252 -0.30987015
v 2.6214635 -2.1996717 -0.46086287
v 4.021766 -3.3746676 -0.29429138
v 1.7110375 -2.9636083 -0.46086287
v 2.6250207 -4.546675 -0.27657652
v 0.59423584 -3.37009 -0.46086287
v 0.9116583 -5.1702867 -0.26501387
v -0.5942386 -3.3700895 -0.46086287
v -0.9116632 -5.1702867 -0.26501372
v -1.7110397 -2.9636068 -0.46086287
v -2.6250246 -4.546673 -0.27657685
v -2.6214643 -2.1996694 -0.46086287
v -4.0217695 -3.3746645 -0.29429153
v -3.215701 -1.1704193 -0.46086258
v -4.9334297 -1.7956213 -0.30986983
v -3.4220781 -3.0517577E-7 -0.46086302
v -5.250046 3.0517577E-7 -0.3160225
v -3.215701 1.1704211 -0.46086287
v -4.9334292 1.7956207 -0.30986997
v -2.6214643 2.1996691 -0.46086302
v -4.0217686 3.3746643 -0.29429153
v -1.7110394 2.9636059 -0.46086317
v -2.6250231 4.5466723 -0.276577
v -0.5942373 3.3700902 -0.46086302
v -0.9116613 5.1702867 -0.26501372
v -3.169132 5.489095 -0.10455643
v -1.1006286 6.2419715 -0.0860556
v -4.855391 4.0741553 -0.1329007
v -5.956019 2.1678143 -0.15782577
v -6.338263 3.0517577E-7 -0.16767013
v -5.95602 -2.1678128 -0.15782608
v -4.8553925 -4.0741568 -0.13290039
v -3.169134 -5.4890966 -0.10455612
v -1.1006311 -6.2419715 -0.086055756
v 1.1006243 -6.2419715 -0.0860556
v 3.1691277 -5.489099 -0.104555964
v 4.855389 -4.074161 -0.13290054
v 5.9560175 -2.1678188 -0.15782623
v 6.338262 -9.155273E-7 -0.16767013
v 5.95602 2.167813 -0.15782608
v 4.8553905 4.0741563 -0.1329007
v 3.1691315 5.4890966 -0.10455643
v 1.1006274 6.24197 -0.086055756
v -1.1006286 6.2419715 -0.0860556
v 6.283472 2.2869964 -0.0047306824
v 6.6867304 -3.0517577E-7 -0.015805053
v 5.122332 4.2981477 0.023310546
v 3.3433654 5.790879 0.055197753
v 1.1611389 6.585144 0.07601089
v -1.1611392 6.585145 0.076011196
v 5.9157853 2.1531694 0.14941604
v 6.2954473 -6.1035155E-7 0.139572
v 4.8225923 4.046635 0.17434143
v 3.1477227 5.4520164 0.20268585
v 1.0931927 6.1998057 0.22118622
v -1.0931937 6.1998057 0.22118652
v 6.2834673 -2.2870018 -0.0047306824
v 5.12233 -4.2981515 0.023310851
v 3.343363 -5.790881 0.055198364
v 1.1611358 -6.585145 0.076011196
v -1.1611413 -6.585144 0.07601089
v -3.3433669 -5.7908773 0.0551976
v -5.122333 -4.2981467 0.023310851
v -6.2834716 -2.2869956 -0.004730072
v -6.6867304 3.0517577E-7 -0.015804749
v -6.283471 2.286997 -0.004730072
v -5.122332 4.2981462 0.023310851
v -3.3433654 5.7908773 0.0551976
v -1.1611392 6.585145 0.076011196
v -3.1477237 5.4520154 0.20268553
v -1.0931937 6.1998057 0.22118652
v -4.8225913 4.046634 0.17434081
v -5.915785 2.1531713 0.14941604
v -6.295446 3.0517577E-7 0.139572
v -5.9157853 -2.153169 0.14941634
v -4.8225927 -4.0466347 0.17434113
v -3.147725 -5.4520164 0.20268585
v -1.0931958 -6.1998057 0.22118652
v 1.0931897 -6.1998057 0.22118652
v 3.1477208 -5.45202 0.20268585
v 4.822591 -4.0466394 0.17434204
v 5.9157815 -2.1531744 0.14941573
v -2.582208 -4.472513 0.3379071
v -3.9561708 -3.3196216 0.32019255
v -0.8967932 -5.0859556 0.34947053
v 0.8967883 -5.085956 0.34947053
v 2.582205 -4.4725156 0.3379074
v 3.9561682 -3.319625 0.32019255
v 4.852958 -1.7663379 0.30461365
v 5.1644135 -6.1035155E-7 0.2984613
v 4.852962 1.7663336 0.30461395
v 3.9561694 3.3196204 0.32019225
v 2.5822062 4.472514 0.3379077
v 0.89679074 5.0859547 0.34947053
v -0.8967917 5.085956 0.34947082
v 3.0949993 1.1264874 0.46086302
v 3.2936292 -6.1035155E-7 0.46086273
v 2.5230663 2.1171045 0.46086302
v 1.6468152 2.8523662 0.46086332
v 0.5719324 3.2435925 0.46086332
v -0.5719327 3.2435925 0.46086332
v 3.0949974 -1.1264911 0.46086243
v 2.523065 -2.117107 0.46086332
v 1.6468133 -2.852369 0.46086273
v 0.5719311 -3.2435935 0.46086332
v -0.57193357 -3.2435927 0.46086302
v -1.6468152 -2.8523674 0.46086273
v -2.5230665 -2.117105 0.46086302
v -4.852961 -1.766333 0.30461454
v -5.1644135 3.0517577E-7 0.2984613
v -4.8529606 1.7663324 0.30461425
v -3.9561698 3.3196197 0.32019225
v -2.582207 4.472514 0.3379074
v -0.8967917 5.085956 0.34947082
v -1.6468146 2.8523657 0.46086302
v -0.5719327 3.2435925 0.46086332
v -2.523066 2.1171038 0.46086273
v -3.0949984 1.1264874 0.46086302
v -3.2936287 -3.0517577E-7 0.46086273
v -3.0949986 -1.1264877 0.46086273
vn 0.08030369 0.0 -0.9967705
vn 0.10543018 0.044637516 -0.9934243
vn 0.076913506 0.032313123 -0.996514
vn 0.11129187 0.0 -0.99378777
vn 0.087699205 0.08534939 -0.9924839
vn 0.065695144 0.06323533 -0.995834
vn 0.0585383 0.117219105 -0.9913794
vn 0.045097467 0.08902845 -0.99500763
vn 0.020623362 0.13494617 -0.99063826
vn 0.01616404 0.10407756 -0.9944378
vn -0.02062332 0.13494624 -0.99063826
vn -0.01616391 0.10407754 -0.9944378
vn 0.076913506 -0.032313243 -0.996514
vn 0.10543003 -0.044637583 -0.9934244
vn 0.06569516 -0.06323543 -0.995834
vn 0.08769906 -0.085349455 -0.9924839
vn 0.045097474 -0.08902838 -0.99500763
vn 0.058538333 -0.117219165 -0.9913794
vn 0.01616394 -0.10407742 -0.9944378
vn 0.020623349 -0.13494618 -0.99063826
vn -0.016163995 -0.1040774 -0.9944378
vn -0.020623388 -0.13494612 -0.99063826
vn -0.045097455 -0.08902826 -0.99500763
vn -0.058538403 -0.11721904 -0.9913794
vn -0.06569517 -0.06323514 -0.995834
vn -0.08769924 -0.0853493 -0.9924839
vn -0.076913506 -0.032313105 -0.996514
vn -0.10543007 -0.044637486 -0.9934244
vn -0.08030372 0.0 -0.9967705
vn -0.11129177 0.0 -0.99378777
vn -0.076913565 0.032313146 -0.996514
vn -0.105430156 0.04463751 -0.9934243
vn -0.06569525 0.063235275 -0.995834
vn -0.08769929 0.08534936 -0.9924839
vn -0.04509751 0.089028336 -0.99500763
vn -0.0585384 0.117219105 -0.9913794
vn -0.01616391 0.10407754 -0.9944378
vn -0.02062332 0.13494624 -0.99063826
vn -0.14242378 0.2670473 -0.9531008
vn -0.049475696 0.30370906 -0.9514793
vn -0.2181245 0.19817851 -0.9555872
vn -0.26748535 0.10543557 -0.95777607
vn -0.28461766 0.0 -0.9586412
vn -0.2674854 -0.10543544 -0.95777607
vn -0.21812463 -0.1981786 -0.9555872
vn -0.14242391 -0.26704755 -0.9531007
vn -0.049475837 -0.3037095 -0.9514792
vn 0.049475607 -0.30370942 -0.9514792
vn 0.14242344 -0.26704767 -0.9531008
vn 0.21812439 -0.19817881 -0.9555872
vn 0.26748535 -0.10543562 -0.95777595
vn 0.28461725 -2.6017605E-7 -0.9586412
vn 0.26748466 0.105435215 -0.9577763
vn 0.218124 0.19817828 -0.95558745
vn 0.14242344 0.26704714 -0.9531009
vn 0.049475595 0.30370894 -0.95147943
vn -0.049475696 0.30370906 -0.9514793
vn 0.9395956 0.34189764 0.016312057
vn 0.9999112 -6.51051E-7 0.0133250905
vn 0.7659677 0.6424357 0.023871258
vn 0.4999866 0.8654246 0.032460008
vn 0.17365898 0.98406994 0.03806289
vn -0.17365877 0.98407006 0.03806304
vn 0.2514951 0.083348975 0.964263
vn 0.2675119 -2.929065E-7 0.9635546
vn 0.20526354 0.1568225 0.9660609
vn 0.13416001 0.21156433 0.9681124
vn 0.04663579 0.24079256 0.9694556
vn -0.0466358 0.2407924 0.9694556
vn 0.9395954 -0.34189817 0.016312659
vn 0.7659677 -0.6424356 0.023871606
vn 0.49998623 -0.8654249 0.032460306
vn 0.17365839 -0.98407006 0.038063407
vn -0.17365892 -0.98406994 0.038063206
vn -0.4999868 -0.8654245 0.032460272
vn -0.76596797 -0.64243525 0.023872009
vn -0.9395957 -0.34189737 0.016313303
vn -0.9999112 1.0678614E-7 0.013325807
vn -0.9395956 0.3418977 0.016313318
vn -0.7659677 0.6424356 0.023872197
vn -0.4999868 0.8654244 0.032460555
vn -0.17365877 0.98407006 0.03806304
vn -0.13416015 0.21156402 0.9681124
vn -0.0466358 0.2407924 0.9694556
vn -0.2052631 0.15682234 0.966061
vn -0.25149453 0.083348945 0.96426326
vn -0.2675113 0.0 0.9635547
vn -0.25149477 -0.08334877 0.96426314
vn -0.20526338 -0.15682244 0.9660609
vn -0.13416024 -0.21156448 0.9681123
vn -0.046635937 -0.24079268 0.9694556
vn 0.046635468 -0.24079245 0.9694556
vn 0.13415983 -0.21156445 0.9681124
vn 0.20526378 -0.1568225 0.96606076
vn 0.25149533 -0.08334904 0.964263
vn -0.054788373 -0.07880982 0.99538296
vn -0.08569976 -0.059981808 0.99451387
vn -0.01876719 -0.08812989 0.99593216
vn 0.01876705 -0.088129975 0.99593216
vn 0.05478819 -0.07880989 0.99538296
vn 0.08569969 -0.059981514 0.99451387
vn 0.10702 -0.032609742 0.9937219
vn 0.114682935 -1.9966602E-7 0.9934022
vn 0.107019976 0.032609817 0.9937219
vn 0.08569983 0.059981685 0.99451387
vn 0.05478841 0.07880994 0.99538296
vn 0.018767146 0.088130146 0.99593216
vn -0.018767156 0.08813012 0.99593216
vn 0.07871298 0.024245976 0.9966024
vn 0.0852175 -2.1941442E-7 0.9963624
vn 0.061345823 0.0431947 0.99718153
vn 0.03794262 0.054554496 0.9977896
vn 0.01270106 0.059330568 0.99815756
vn -0.012701075 0.05933044 0.99815756
vn 0.078713015 -0.024245922 0.9966024
vn 0.06134569 -0.04319457 0.99718153
vn 0.037942473 -0.05455457 0.9977896
vn 0.012701035 -0.059330504 0.99815756
vn -0.0127011975 -0.059330486 0.99815756
vn -0.037942525 -0.05455454 0.9977896
vn -0.061345465 -0.043194696 0.99718153
vn -0.10702 -0.03260976 0.9937219
vn -0.11468302 0.0 0.9934022
vn -0.10702003 0.032609887 0.9937219
vn -0.08569989 0.059981853 0.99451387
vn -0.054788623 0.07880994 0.99538296
vn -0.018767156 0.08813012 0.99593216
vn -0.0379427 0.054554354 0.9977896
vn -0.012701075 0.05933044 0.99815756
vn -0.061345648 0.043194715 0.99718153
vn -0.078712836 0.024245977 0.9966024
vn -0.085217424 0.0 0.9963624
vn -0.07871274 -0.024245791 0.9966024
vt 0.75 1.0
vt 0.8055555 0.8333333
vt 0.8055555 1.0
vt 0.75 0.8333333
vt 0.86111104 0.8333333
vt 0.86111104 1.0
vt 0.9166666 0.8333333
vt 0.9166666 1.0
vt 0.9722222 0.8333333
vt 0.9722222 1.0
vt 1.0277778 0.8333333
vt 1.0277778 1.0
vt 0.69444436 1.0
vt 0.69444436 0.8333333
vt 0.63888884 1.0
vt 0.63888884 0.8333333
vt 0.58333325 1.0
vt 0.58333325 0.8333333
vt 0.5277777 1.0
vt 0.5277777 0.8333333
vt 0.47222215 1.0
vt 0.47222215 0.8333333
vt 0.4166666 1.0
vt 0.4166666 0.8333333
vt 0.36111107 1.0
vt 0.36111107 0.8333333
vt 0.30555552 1.0
vt 0.30555552 0.8333333
vt 0.24999999 1.0
vt 0.24999999 0.8333333
vt 0.19444443 1.0
vt 0.19444443 0.8333333
vt 0.1388889 1.0
vt 0.1388889 0.8333333
vt 0.08333335 1.0
vt 0.08333335 0.8333333
vt 0.02777781 1.0
vt 0.02777781 0.8333333
vt 0.08333335 0.6666666
vt 0.02777781 0.6666666
vt 0.1388889 0.6666666
vt 0.19444443 0.6666666
vt 0.24999999 0.6666666
vt 0.30555552 0.6666666
vt 0.36111107 0.6666666
vt 0.4166666 0.6666666
vt 0.47222215 0.6666666
vt 0.5277777 0.6666666
vt 0.58333325 0.6666666
vt 0.63888884 0.6666666
vt 0.69444436 0.6666666
vt 0.75 0.6666666
vt 0.8055555 0.6666666
vt 0.86111104 0.6666666
vt 0.9166666 0.6666666
vt 0.9722222 0.6666666
vt 1.0277778 0.6666666
vt 0.8055555 0.5
vt 0.75 0.5
vt 0.86111104 0.5
vt 0.9166666 0.5
vt 0.9722222 0.5
vt 1.0277778 0.5
vt 0.8055555 0.3333333
vt 0.75 0.3333333
vt 0.86111104 0.3333333
vt 0.9166666 0.3333333
vt 0.9722222 0.3333333
vt 1.0277778 0.3333333
vt 0.69444436 0.5
vt 0.63888884 0.5
vt 0.58333325 0.5
vt 0.5277777 0.5
vt 0.47222215 0.5
vt 0.4166666 0.5
vt 0.36111107 0.5
vt 0.30555552 0.5
vt 0.24999999 0.5
vt 0.19444443 0.5
vt 0.1388889 0.5
vt 0.08333335 0.5
vt 0.02777781 0.5
vt 0.08333335 0.3333333
vt 0.02777781 0.3333333
vt 0.1388889 0.3333333
vt 0.19444443 0.3333333
vt 0.24999999 0.3333333
vt 0.30555552 0.3333333
vt 0.36111107 0.3333333
vt 0.4166666 0.3333333
vt 0.47222215 0.3333333
vt 0.5277777 0.3333333
vt 0.58333325 0.3333333
vt 0.63888884 0.3333333
vt 0.69444436 0.3333333
vt 0.4166666 0.16666669
vt 0.36111107 0.16666669
vt 0.47222215 0.16666669
vt 0.5277777 0.16666669
vt 0.58333325 0.16666669
vt 0.63888884 0.16666669
vt 0.69444436 0.16666669
vt 0.75 0.16666669
vt 0.8055555 0.16666669
vt 0.86111104 0.16666669
vt 0.9166666 0.16666669
vt 0.9722222 0.16666669
vt 1.0277778 0.16666669
vt 0.8055555 0.0
vt 0.75 0.0
vt 0.86111104 0.0
vt 0.9166666 0.0
vt 0.9722222 0.0
vt 1.0277778 0.0
vt 0.69444436 0.0
vt 0.63888884 0.0
vt 0.58333325 0.0
vt 0.5277777 0.0
vt 0.47222215 0.0
vt 0.4166666 0.0
vt 0.36111107 0.0
vt 0.30555552 0.16666669
vt 0.24999999 0.16666669
vt 0.19444443 0.16666669
vt 0.1388889 0.16666669
vt 0.08333335 0.16666669
vt 0.02777781 0.16666669
vt 0.08333335 0.0
vt 0.02777781 0.0
vt 0.1388889 0.0
vt 0.19444443 0.0
vt 0.24999999 0.0
vt 0.30555552 0.0

g Cylinder005
s 1
usemtl Cylinder005
f 3/3/3 2/2/2 1/1/1 
f 2/2/2 4/4/4 1/1/1 
f 5/5/5 2/2/2 3/3/3 
f 6/6/6 5/5/5 3/3/3 
f 7/7/7 5/5/5 6/6/6 
f 8/8/8 7/7/7 6/6/6 
f 9/9/9 7/7/7 8/8/8 
f 10/10/10 9/9/9 8/8/8 
f 11/11/11 9/9/9 10/10/10 
f 12/12/12 11/11/11 10/10/10 
f 1/1/1 4/4/4 13/13/13 
f 4/4/4 14/14/14 13/13/13 
f 13/13/13 14/14/14 15/15/15 
f 14/14/14 16/16/16 15/15/15 
f 15/15/15 16/16/16 17/17/17 
f 16/16/16 18/18/18 17/17/17 
f 17/17/17 18/18/18 19/19/19 
f 18/18/18 20/20/20 19/19/19 
f 19/19/19 20/20/20 21/21/21 
f 20/20/20 22/22/22 21/21/21 
f 21/21/21 22/22/22 23/23/23 
f 22/22/22 24/24/24 23/23/23 
f 23/23/23 24/24/24 25/25/25 
f 24/24/24 26/26/26 25/25/25 
f 25/25/25 26/26/26 27/27/27 
f 26/26/26 28/28/28 27/27/27 
f 27/27/27 28/28/28 29/29/29 
f 28/28/28 30/30/30 29/29/29 
f 29/29/29 30/30/30 31/31/31 
f 30/30/30 32/32/32 31/31/31 
f 31/31/31 32/32/32 33/33/33 
f 32/32/32 34/34/34 33/33/33 
f 33/33/33 34/34/34 35/35/35 
f 34/34/34 36/36/36 35/35/35 
f 35/35/35 36/36/36 37/37/37 
f 36/36/36 38/38/38 37/37/37 
f 36/36/36 39/39/39 38/38/38 
f 39/39/39 40/40/40 38/38/38 
f 34/34/34 41/41/41 36/36/36 
f 41/41/41 39/39/39 36/36/36 
f 32/32/32 42/42/42 34/34/34 
f 42/42/42 41/41/41 34/34/34 
f 30/30/30 43/43/43 32/32/32 
f 43/43/43 42/42/42 32/32/32 
f 28/28/28 44/44/44 30/30/30 
f 44/44/44 43/43/43 30/30/30 
f 45/45/45 44/44/44 28/28/28 
f 26/26/26 45/45/45 28/28/28 
f 46/46/46 45/45/45 26/26/26 
f 24/24/24 46/46/46 26/26/26 
f 47/47/47 46/46/46 24/24/24 
f 22/22/22 47/47/47 24/24/24 
f 48/48/48 47/47/47 22/22/22 
f 20/20/20 48/48/48 22/22/22 
f 49/49/49 48/48/48 20/20/20 
f 18/18/18 49/49/49 20/20/20 
f 50/50/50 49/49/49 18/18/18 
f 16/16/16 50/50/50 18/18/18 
f 51/51/51 50/50/50 16/16/16 
f 14/14/14 51/51/51 16/16/16 
f 52/52/52 51/51/51 14/14/14 
f 4/4/4 52/52/52 14/14/14 
f 53/53/53 52/52/52 4/4/4 
f 2/2/2 53/53/53 4/4/4 
f 54/54/54 53/53/53 2/2/2 
f 5/5/5 54/54/54 2/2/2 
f 55/55/55 54/54/54 5/5/5 
f 7/7/7 55/55/55 5/5/5 
f 56/56/56 55/55/55 7/7/7 
f 9/9/9 56/56/56 7/7/7 
f 57/57/57 56/56/56 9/9/9 
f 11/11/11 57/57/57 9/9/9 
f 53/53/53 58/58/58 52/52/52 
f 58/58/58 59/59/59 52/52/52 
f 52/52/52 59/59/59 51/51/51 
f 54/54/54 60/60/60 53/53/53 
f 60/60/60 58/58/58 53/53/53 
f 55/55/55 61/61/61 54/54/54 
f 61/61/61 60/60/60 54/54/54 
f 56/56/56 62/62/62 55/55/55 
f 62/62/62 61/61/61 55/55/55 
f 57/57/57 63/63/63 56/56/56 
f 63/63/63 62/62/62 56/56/56 
f 58/58/58 64/64/64 59/59/59 
f 64/64/64 65/65/65 59/59/59 
f 60/60/60 66/66/66 58/58/58 
f 66/66/66 64/64/64 58/58/58 
f 61/61/61 67/67/67 60/60/60 
f 67/67/67 66/66/66 60/60/60 
f 62/62/62 68/68/68 61/61/61 
f 68/68/68 67/67/67 61/61/61 
f 63/63/63 69/69/69 62/62/62 
f 69/69/69 68/68/68 62/62/62 
f 59/59/59 65/65/65 70/70/70 
f 59/59/59 70/70/70 51/51/51 
f 51/51/51 70/70/70 50/50/50 
f 70/70/70 71/71/71 50/50/50 
f 50/50/50 71/71/71 49/49/49 
f 71/71/71 72/72/72 49/49/49 
f 49/49/49 72/72/72 48/48/48 
f 72/72/72 73/73/73 48/48/48 
f 48/48/48 73/73/73 47/47/47 
f 73/73/73 74/74/74 47/47/47 
f 47/47/47 74/74/74 46/46/46 
f 74/74/74 75/75/75 46/46/46 
f 46/46/46 75/75/75 45/45/45 
f 75/75/75 76/76/76 45/45/45 
f 45/45/45 76/76/76 44/44/44 
f 76/76/76 77/77/77 44/44/44 
f 44/44/44 77/77/77 43/43/43 
f 77/77/77 78/78/78 43/43/43 
f 43/43/43 78/78/78 42/42/42 
f 78/78/78 79/79/79 42/42/42 
f 42/42/42 79/79/79 41/41/41 
f 79/79/79 80/80/80 41/41/41 
f 41/41/41 80/80/80 39/39/39 
f 80/80/80 81/81/81 39/39/39 
f 39/39/39 81/81/81 40/40/40 
f 81/81/81 82/82/82 40/40/40 
f 81/81/81 83/83/83 82/82/82 
f 83/83/83 84/84/84 82/82/82 
f 80/80/80 85/85/85 81/81/81 
f 85/85/85 83/83/83 81/81/81 
f 79/79/79 86/86/86 80/80/80 
f 86/86/86 85/85/85 80/80/80 
f 78/78/78 87/87/87 79/79/79 
f 87/87/87 86/86/86 79/79/79 
f 77/77/77 88/88/88 78/78/78 
f 88/88/88 87/87/87 78/78/78 
f 89/89/89 88/88/88 77/77/77 
f 76/76/76 89/89/89 77/77/77 
f 90/90/90 89/89/89 76/76/76 
f 75/75/75 90/90/90 76/76/76 
f 91/91/91 90/90/90 75/75/75 
f 74/74/74 91/91/91 75/75/75 
f 92/92/92 91/91/91 74/74/74 
f 73/73/73 92/92/92 74/74/74 
f 93/93/93 92/92/92 73/73/73 
f 72/72/72 93/93/93 73/73/73 
f 94/94/94 93/93/93 72/72/72 
f 71/71/71 94/94/94 72/72/72 
f 95/95/95 94/94/94 71/71/71 
f 70/70/70 95/95/95 71/71/71 
f 65/65/65 95/95/95 70/70/70 
f 90/90/90 96/96/96 89/89/89 
f 96/96/96 97/97/97 89/89/89 
f 91/91/91 98/98/98 90/90/90 
f 98/98/98 96/96/96 90/90/90 
f 92/92/92 99/99/99 91/91/91 
f 99/99/99 98/98/98 91/91/91 
f 93/93/93 100/100/100 92/92/92 
f 100/100/100 99/99/99 92/92/92 
f 94/94/94 101/101/101 93/93/93 
f 101/101/101 100/100/100 93/93/93 
f 95/95/95 102/102/102 94/94/94 
f 102/102/102 101/101/101 94/94/94 
f 65/65/65 103/103/103 95/95/95 
f 103/103/103 102/102/102 95/95/95 
f 104/104/104 103/103/103 65/65/65 
f 64/64/64 104/104/104 65/65/65 
f 105/105/105 104/104/104 64/64/64 
f 66/66/66 105/105/105 64/64/64 
f 106/106/106 105/105/105 66/66/66 
f 67/67/67 106/106/106 66/66/66 
f 107/107/107 106/106/106 67/67/67 
f 68/68/68 107/107/107 67/67/67 
f 108/108/108 107/107/107 68/68/68 
f 69/69/69 108/108/108 68/68/68 
f 104/104/104 109/109/109 103/103/103 
f 109/109/109 110/110/110 103/103/103 
f 103/103/103 110/110/110 102/102/102 
f 105/105/105 111/111/111 104/104/104 
f 111/111/111 109/109/109 104/104/104 
f 106/106/106 112/112/112 105/105/105 
f 112/112/112 111/111/111 105/105/105 
f 107/107/107 113/113/113 106/106/106 
f 113/113/113 112/112/112 106/106/106 
f 108/108/108 114/114/114 107/107/107 
f 114/114/114 113/113/113 107/107/107 
f 110/110/110 115/115/115 102/102/102 
f 102/102/102 115/115/115 101/101/101 
f 115/115/115 116/116/116 101/101/101 
f 101/101/101 116/116/116 100/100/100 
f 116/116/116 117/117/117 100/100/100 
f 100/100/100 117/117/117 99/99/99 
f 117/117/117 118/118/118 99/99/99 
f 99/99/99 118/118/118 98/98/98 
f 118/118/118 119/119/119 98/98/98 
f 98/98/98 119/119/119 96/96/96 
f 119/119/119 120/120/120 96/96/96 
f 96/96/96 120/120/120 97/97/97 
f 120/120/120 121/121/121 97/97/97 
f 97/97/97 121/121/121 122/122/122 
f 97/97/97 122/122/122 88/88/88 
f 88/88/88 122/122/122 87/87/87 
f 122/122/122 123/123/123 87/87/87 
f 87/87/87 123/123/123 86/86/86 
f 123/123/123 124/124/124 86/86/86 
f 86/86/86 124/124/124 85/85/85 
f 124/124/124 125/125/125 85/85/85 
f 85/85/85 125/125/125 83/83/83 
f 125/125/125 126/126/126 83/83/83 
f 83/83/83 126/126/126 84/84/84 
f 126/126/126 127/127/127 84/84/84 
f 89/89/89 97/97/97 88/88/88 
f 126/126/126 128/128/128 127/127/127 
f 128/128/128 129/129/129 127/127/127 
f 125/125/125 130/130/130 126/126/126 
f 130/130/130 128/128/128 126/126/126 
f 124/124/124 131/131/131 125/125/125 
f 131/131/131 130/130/130 125/125/125 
f 123/123/123 132/132/132 124/124/124 
f 132/132/132 131/131/131 124/124/124 
f 133/133/133 132/132/132 123/123/123 
f 122/122/122 133/133/133 123/123/123 
f 121/121/121 133/133/133 122/122/122 

