# Created by DisUnity v0.3.4
v 1.2953355 3.211975E-5 -0.39872545
v 0.94097316 0.07048073 -0.12628578
v 1.170503 0.67587423 -0.44045606
v 0.75817 -0.36474833 -0.03774067
v 1.0379016 -0.5990824 -0.3264238
v 0.43194184 -0.63231903 0.032818604
v 0.5357805 -0.9272291 -0.22904363
v 0.053573456 -0.7030065 0.09389484
v 5.717468E-4 -0.9795309 -0.15642291
v -0.29288527 -0.6100865 0.123870924
v -0.44668028 -0.7748561 -0.08539051
v -0.558564 -0.38145068 0.123871155
v -0.69967985 -0.4044128 -0.008596801
v -0.67433137 -0.05060707 0.12387089
v 0.5975096 -0.23414253 0.16505943
v 0.37539473 -0.46952417 0.21436271
v -0.55326194 -0.08355163 0.26804146
v -0.520776 0.20476799 0.26804167
v -0.4372361 -0.34948647 0.26804206
v -0.203787 -0.5217796 0.2680419
v 0.08660171 -0.56804436 0.2487152
v 0.3245813 -0.34872213 0.40778998
v 0.10620056 -0.4607933 0.41388825
v -0.45059812 0.13929245 0.41388777
v -0.32043678 0.34644356 0.41388762
v -0.45974585 -0.105186306 0.41388717
v -0.3454292 -0.32148445 0.41388723
v -0.13827842 -0.45164564 0.41388762
v 0.12307479 -0.3955888 0.56318456
v -0.09105553 -0.4036009 0.56318474
v -0.30239576 0.28154364 0.563184
v -0.12095855 0.39554787 0.56318486
v -0.40252227 0.09209534 0.56318504
v -0.39451048 -0.122036666 0.5631843
v -0.28050658 -0.30347428 0.56318396
v -0.05636154 -0.38127005 0.71770746
v -0.2392874 -0.3014611 0.71770775
v -0.13975601 0.35888067 0.7177086
v 0.058566436 0.38122597 0.7177088
v -0.30033547 0.24036682 0.7177088
v -0.38014564 0.05744156 0.71770793
v -0.35780007 -0.14088096 0.717709
v -0.21875983 -0.3226351 0.8792349
v -0.3505993 -0.16943604 0.8792346
v 0.03615097 0.4059188 0.9620155
v 0.26766783 0.3411953 0.98333144
v -0.17276756 0.3613114 0.93715376
v -0.32847816 0.22477287 0.9279797
v -0.3881748 0.029157868 0.87923443
v -0.36718422 -0.20428123 1.0100249
v -0.45206907 0.007897796 1.0913179
v 0.2999611 0.4963308 1.2907878
v 0.8782568 0.3179711 1.378853
v 0.010974426 0.5355276 1.2329295
v -0.23734778 0.43090934 1.1661803
v -0.39392227 0.23753463 1.1075207
v -1.2951181 -0.020079345 -0.39872545
v -0.93851864 -0.085051194 -0.12628561
v -1.1600362 -0.69389725 -0.44045606
v -0.76223624 0.35295507 -0.037740324
v -1.0466475 0.58295095 -0.3264238
v -0.44003814 0.6255492 0.03281841
v -0.54924476 0.91884315 -0.22904365
v -0.0627002 0.70209783 0.09389484
v -0.014636993 0.97943854 -0.15642309
v 0.2852072 0.6145652 0.12387127
v 0.4359712 0.7817252 -0.08539047
v 0.55440336 0.39008215 0.123871416
v 0.6948956 0.41524696 -0.008596801
v 0.67529446 0.06107597 0.12387127
v -0.59918827 0.22483757 0.16505946
v -0.38070107 0.46363533 0.21436271
v 0.5538818 0.0921244 0.26804167
v 0.52587646 -0.19666435 0.26804167
v 0.43374023 0.3562249 0.26804176
v 0.19764556 0.52487355 0.2680416
v -0.093442455 0.56662345 0.2487152
v -0.32789695 0.34362343 0.40779006
v -0.11128036 0.45907035 0.41388732
v 0.4547688 -0.13229713 0.41388723
v 0.32783782 -0.34144354 0.41388777
v 0.46011838 0.11229355 0.41388762
v 0.34245756 0.326791 0.41388756
v 0.133311 0.45372015 0.41388732
v -0.12708595 0.39360586 0.56318426
v 0.086895294 0.40494177 0.5631845
v 0.30884597 -0.27683905 0.5631845
v 0.12920135 -0.39364636 0.56318456
v 0.40602064 -0.085857846 0.56318486
v 0.39468473 0.12812331 0.56318474
v 0.2778763 0.30776757 0.56318533
v 0.05263992 0.3820725 0.7177084
v 0.23678268 0.30511236 0.71770805
v 0.14751755 -0.35669434 0.71771
v -0.05043541 -0.38211653 0.71770763
v 0.30623734 -0.2357019 0.7177084
v 0.38319716 -0.051560134 0.71770847
v 0.35777465 0.1463919 0.7177084
v 0.21611099 0.3259673 0.87923443
v 0.35031235 0.17483406 0.8792349
v -0.027315902 -0.40645307 0.9620152
v -0.25976792 -0.3453318 0.98333174
v 0.18083756 -0.35860732 0.9371533
v 0.3343933 -0.21966758 0.92797923
v 0.39096633 -0.02315216 0.87923414
v 0.36659285 0.20993805 1.0100235
v 0.45496032 -8.913421E-4 1.0913194
v -0.2887609 -0.5009236 1.2907885
v -0.8694236 -0.33155113 1.3788517
v 5.947876E-4 -0.5356348 1.232929
v 0.24704574 -0.42718104 1.1661797
v 0.40042937 -0.2314038 1.1075205
vn 0.99720496 -0.07471413 0.0
vn 0.9992993 -0.03741526 9.7435573E-4
vn 0.9992155 0.039603055 0.0
vn 0.9084901 -0.41790545 -7.899914E-4
vn 0.826504 -0.5629308 0.0
vn 0.5742371 -0.81868666 0.001993879
vn 0.43358362 -0.90111333 1.9287529E-4
vn 0.095189765 -0.9954591 -4.0334646E-4
vn -0.05435187 -0.9985215 -7.764553E-4
vn -0.4155097 -0.90958554 -0.0024298814
vn -0.5323155 -0.84654576 -7.816673E-4
vn -0.82017314 -0.57210106 0.004040262
vn -0.8450868 -0.53461444 -0.003960107
vn -0.98422617 -0.17688483 0.0032455933
vn 0.88205737 -0.4711358 -0.0024411182
vn 0.62810665 -0.77812684 8.242869E-4
vn -0.9887311 -0.14968175 0.002494696
vn -0.9635535 0.26746917 -0.0049838973
vn -0.77932125 -0.62661076 -0.0041497406
vn -0.36059576 -0.93271893 -0.002498354
vn 0.15947966 -0.9871956 0.0033224926
vn 0.5991803 -0.8006141 0.0
vn 0.22361062 -0.97466916 -0.004267378
vn -0.9569737 0.2901736 8.5596927E-4
vn -0.7573225 0.6530411 0.0
vn -0.9750821 -0.22180346 0.004265451
vn -0.7314217 -0.6819206 0.0025604027
vn -0.29173988 -0.9564961 -0.0017110843
vn 0.19072914 -0.98164266 0.0
vn -0.23779695 -0.9712956 0.006119774
vn -0.7303798 0.6830323 0.003507226
vn -0.3889483 0.9212393 -0.006118288
vn -0.97777224 0.20952265 -0.007857099
vn -0.9546574 -0.297453 0.012284193
vn -0.6793117 -0.7337972 0.0087879915
vn -0.23974827 -0.9705794 0.022281438
vn -0.6201548 -0.78439265 0.011667169
vn -0.3505318 0.93654907 -0.001797599
vn 0.037471853 0.9992494 -0.009814056
vn -0.77495646 0.63187385 -0.013330672
vn -0.98722154 0.15934415 -0.0017803815
vn -0.93171704 -0.36307603 -0.00889892
vn -0.6425957 -0.766103 -0.012529722
vn -0.9048969 -0.42557034 -0.0071675004
vn 0.064611234 0.9978847 0.0071790265
vn 0.32131264 0.9426354 0.0905356
vn -0.42405936 0.90561837 0.005390586
vn -0.8196535 0.5728568 0.0018014364
vn -0.9971334 0.07532303 -0.0071736216
vn -0.8890062 -0.45789176 0.0017851532
vn -0.9999511 -0.009734036 0.001769825
vn 0.3124392 0.9473423 0.07017351
vn 0.4336871 0.8980064 0.0741621
vn -0.037838407 0.999278 0.0034398555
vn -0.51769865 0.85555595 0.003492065
vn -0.87609875 0.48211876 0.0035255486
vn -0.99818075 0.060287677 -7.6313515E-4
vn -0.99960536 0.02807004 -0.001169585
vn -0.99861145 -0.052679047 0.0
vn -0.9110657 0.4122612 -3.9337896E-4
vn -0.83346033 0.55257887 7.6534465E-4
vn -0.5835005 0.81210476 0.003596921
vn -0.46011463 0.88785946 -3.8535564E-4
vn -0.105105564 0.99446034 -0.0012127565
vn 0.037299063 0.9993042 0.0
vn 0.40463606 0.91447747 -8.092721E-4
vn 0.5114837 0.8592926 7.86898E-4
vn 0.8112285 0.5847271 -0.0016063931
vn 0.83884346 0.5443728 0.0
vn 0.98223776 0.18763678 0.0012237182
vn -0.89147174 0.45306975 0.0024446207
vn -0.6461532 0.763186 -0.0057692244
vn 0.9862126 0.16548315 0.0
vn 0.96663153 -0.25616565 -0.0016580301
vn 0.768217 0.6401809 -0.003325615
vn 0.3456269 0.9383687 0.0025045427
vn -0.16116442 0.9869244 -0.0024922334
vn -0.6135674 0.78960484 -0.007690956
vn -0.24454325 0.9695925 0.00943851
vn 0.95998037 -0.28006607 8.617417E-4
vn 0.7673819 -0.64119023 0.0
vn 0.9699402 0.2433419 8.568376E-4
vn 0.7181533 0.6958718 -0.004284924
vn 0.26931134 0.96304375 0.0042612557
vn -0.20436506 0.9788472 0.009648136
vn 0.20952839 0.9777991 0.002619105
vn 0.7526708 -0.65836865 0.006112176
vn 0.404837 -0.91438836 -8.762705E-4
vn 0.9776199 -0.21036285 0.002618625
vn 0.9504962 0.31070548 -0.0043761334
vn 0.670301 0.74205637 -0.0070005325
vn 0.23625858 0.97168005 -0.0044409507
vn 0.6128036 0.7901941 0.008063205
vn 0.356568 -0.93420815 -0.01069704
vn -0.019577717 -0.9997985 0.0044494816
vn 0.7820855 -0.6231686 -0.0017855834
vn 0.9904212 -0.13805331 0.0026719996
vn 0.92532045 0.379186 0.0
vn 0.62176895 0.7830347 -0.016126573
vn 0.89549917 0.44506308 0.0
vn -0.05556492 -0.99837625 0.012546918
vn -0.3117794 -0.9460892 0.087799944
vn 0.4593741 -0.88824296 0.0
vn 0.82771045 -0.5610835 -0.008977336
vn 0.99815375 -0.060710605 -0.0017856059
vn 0.8823057 0.4706226 0.007144176
vn 0.9996487 0.026445732 0.0017630488
vn -0.30330843 -0.9509809 0.06032654
vn -0.41599262 -0.9052064 0.08689981
vn 0.05506497 -0.99848276 0.0
vn 0.5339726 -0.8454567 0.008725043
vn 0.8901396 -0.45568776 0.0
vt 0.83491945 0.99714285
vt 1.0018648 0.85510206
vt 1.0018648 0.99714285
vt 0.83491945 0.85510206
vt 0.667974 0.99714285
vt 0.667974 0.85510206
vt 0.5010287 0.99714285
vt 0.5010287 0.85510206
vt 0.3340834 0.99714285
vt 0.3340834 0.85510206
vt 0.1671381 0.99714285
vt 0.1671381 0.85510206
vt 1.927847E-4 0.99714285
vt 1.927847E-4 0.85510206
vt 1.0018648 0.7130612
vt 0.83491945 0.7130612
vt 0.1671381 0.7130612
vt 1.927847E-4 0.7130612
vt 0.3340834 0.7130612
vt 0.5010287 0.7130612
vt 0.667974 0.7130612
vt 1.0018648 0.5710204
vt 0.83491945 0.5710204
vt 0.1671381 0.5710204
vt 1.927847E-4 0.5710204
vt 0.3340834 0.5710204
vt 0.5010287 0.5710204
vt 0.667974 0.5710204
vt 1.0018648 0.42897958
vt 0.83491945 0.42897958
vt 0.1671381 0.42897958
vt 1.927847E-4 0.42897958
vt 0.3340834 0.42897958
vt 0.5010287 0.42897958
vt 0.667974 0.42897958
vt 1.0018648 0.2869388
vt 0.83491945 0.2869388
vt 0.1671381 0.2869388
vt 1.927847E-4 0.2869388
vt 0.3340834 0.2869388
vt 0.5010287 0.2869388
vt 0.667974 0.2869388
vt 1.0018648 0.144898
vt 0.83491945 0.144898
vt 0.1671381 0.144898
vt 1.927847E-4 0.144898
vt 0.3340834 0.144898
vt 0.5010287 0.144898
vt 0.667974 0.144898
vt 1.0018648 0.0028572083
vt 0.83491945 0.0028572083
vt 0.1671381 0.0028572083
vt 1.927847E-4 0.0028572083
vt 0.3340834 0.0028572083
vt 0.5010287 0.0028572083
vt 0.667974 0.0028572083
vt 0.83491945 0.99714285
vt 1.0018648 0.85510206
vt 1.0018648 0.99714285
vt 0.83491945 0.85510206
vt 0.667974 0.99714285
vt 0.667974 0.85510206
vt 0.5010287 0.99714285
vt 0.5010287 0.85510206
vt 0.3340834 0.99714285
vt 0.3340834 0.85510206
vt 0.1671381 0.99714285
vt 0.1671381 0.85510206
vt 1.927847E-4 0.99714285
vt 1.927847E-4 0.85510206
vt 1.0018648 0.7130612
vt 0.83491945 0.7130612
vt 0.1671381 0.7130612
vt 1.927847E-4 0.7130612
vt 0.3340834 0.7130612
vt 0.5010287 0.7130612
vt 0.667974 0.7130612
vt 1.0018648 0.5710204
vt 0.83491945 0.5710204
vt 0.1671381 0.5710204
vt 1.927847E-4 0.5710204
vt 0.3340834 0.5710204
vt 0.5010287 0.5710204
vt 0.667974 0.5710204
vt 1.0018648 0.42897958
vt 0.83491945 0.42897958
vt 0.1671381 0.42897958
vt 1.927847E-4 0.42897958
vt 0.3340834 0.42897958
vt 0.5010287 0.42897958
vt 0.667974 0.42897958
vt 1.0018648 0.2869388
vt 0.83491945 0.2869388
vt 0.1671381 0.2869388
vt 1.927847E-4 0.2869388
vt 0.3340834 0.2869388
vt 0.5010287 0.2869388
vt 0.667974 0.2869388
vt 1.0018648 0.144898
vt 0.83491945 0.144898
vt 0.1671381 0.144898
vt 1.927847E-4 0.144898
vt 0.3340834 0.144898
vt 0.5010287 0.144898
vt 0.667974 0.144898
vt 1.0018648 0.0028572083
vt 0.83491945 0.0028572083
vt 0.1671381 0.0028572083
vt 1.927847E-4 0.0028572083
vt 0.3340834 0.0028572083
vt 0.5010287 0.0028572083
vt 0.667974 0.0028572083

g Cylinder002
s 1
usemtl Cylinder002
f 3/3/3 2/2/2 1/1/1 
f 2/2/2 4/4/4 1/1/1 
f 1/1/1 4/4/4 5/5/5 
f 4/4/4 6/6/6 5/5/5 
f 5/5/5 6/6/6 7/7/7 
f 6/6/6 8/8/8 7/7/7 
f 7/7/7 8/8/8 9/9/9 
f 8/8/8 10/10/10 9/9/9 
f 9/9/9 10/10/10 11/11/11 
f 10/10/10 12/12/12 11/11/11 
f 11/11/11 12/12/12 13/13/13 
f 12/12/12 14/14/14 13/13/13 
f 2/2/2 15/15/15 4/4/4 
f 15/15/15 16/16/16 4/4/4 
f 4/4/4 16/16/16 6/6/6 
f 12/12/12 17/17/17 14/14/14 
f 17/17/17 18/18/18 14/14/14 
f 10/10/10 19/19/19 12/12/12 
f 19/19/19 17/17/17 12/12/12 
f 8/8/8 20/20/20 10/10/10 
f 20/20/20 19/19/19 10/10/10 
f 6/6/6 21/21/21 8/8/8 
f 21/21/21 20/20/20 8/8/8 
f 16/16/16 21/21/21 6/6/6 
f 15/15/15 22/22/22 16/16/16 
f 22/22/22 23/23/23 16/16/16 
f 16/16/16 23/23/23 21/21/21 
f 17/17/17 24/24/24 18/18/18 
f 24/24/24 25/25/25 18/18/18 
f 19/19/19 26/26/26 17/17/17 
f 26/26/26 24/24/24 17/17/17 
f 20/20/20 27/27/27 19/19/19 
f 27/27/27 26/26/26 19/19/19 
f 21/21/21 28/28/28 20/20/20 
f 28/28/28 27/27/27 20/20/20 
f 23/23/23 28/28/28 21/21/21 
f 22/22/22 29/29/29 23/23/23 
f 29/29/29 30/30/30 23/23/23 
f 23/23/23 30/30/30 28/28/28 
f 24/24/24 31/31/31 25/25/25 
f 31/31/31 32/32/32 25/25/25 
f 26/26/26 33/33/33 24/24/24 
f 33/33/33 31/31/31 24/24/24 
f 27/27/27 34/34/34 26/26/26 
f 34/34/34 33/33/33 26/26/26 
f 28/28/28 35/35/35 27/27/27 
f 35/35/35 34/34/34 27/27/27 
f 30/30/30 35/35/35 28/28/28 
f 29/29/29 36/36/36 30/30/30 
f 36/36/36 37/37/37 30/30/30 
f 30/30/30 37/37/37 35/35/35 
f 31/31/31 38/38/38 32/32/32 
f 38/38/38 39/39/39 32/32/32 
f 33/33/33 40/40/40 31/31/31 
f 40/40/40 38/38/38 31/31/31 
f 34/34/34 41/41/41 33/33/33 
f 41/41/41 40/40/40 33/33/33 
f 35/35/35 42/42/42 34/34/34 
f 42/42/42 41/41/41 34/34/34 
f 37/37/37 42/42/42 35/35/35 
f 36/36/36 43/43/43 37/37/37 
f 43/43/43 44/44/44 37/37/37 
f 37/37/37 44/44/44 42/42/42 
f 38/38/38 45/45/45 39/39/39 
f 45/45/45 46/46/46 39/39/39 
f 40/40/40 47/47/47 38/38/38 
f 47/47/47 45/45/45 38/38/38 
f 41/41/41 48/48/48 40/40/40 
f 48/48/48 47/47/47 40/40/40 
f 42/42/42 49/49/49 41/41/41 
f 49/49/49 48/48/48 41/41/41 
f 44/44/44 49/49/49 42/42/42 
f 43/43/43 50/50/50 44/44/44 
f 50/50/50 51/51/51 44/44/44 
f 44/44/44 51/51/51 49/49/49 
f 45/45/45 52/52/52 46/46/46 
f 52/52/52 53/53/53 46/46/46 
f 47/47/47 54/54/54 45/45/45 
f 54/54/54 52/52/52 45/45/45 
f 48/48/48 55/55/55 47/47/47 
f 55/55/55 54/54/54 47/47/47 
f 49/49/49 56/56/56 48/48/48 
f 56/56/56 55/55/55 48/48/48 
f 51/51/51 56/56/56 49/49/49 
f 59/59/59 58/58/58 57/57/57 
f 58/58/58 60/60/60 57/57/57 
f 57/57/57 60/60/60 61/61/61 
f 60/60/60 62/62/62 61/61/61 
f 61/61/61 62/62/62 63/63/63 
f 62/62/62 64/64/64 63/63/63 
f 63/63/63 64/64/64 65/65/65 
f 64/64/64 66/66/66 65/65/65 
f 65/65/65 66/66/66 67/67/67 
f 66/66/66 68/68/68 67/67/67 
f 67/67/67 68/68/68 69/69/69 
f 68/68/68 70/70/70 69/69/69 
f 58/58/58 71/71/71 60/60/60 
f 71/71/71 72/72/72 60/60/60 
f 60/60/60 72/72/72 62/62/62 
f 68/68/68 73/73/73 70/70/70 
f 73/73/73 74/74/74 70/70/70 
f 66/66/66 75/75/75 68/68/68 
f 75/75/75 73/73/73 68/68/68 
f 64/64/64 76/76/76 66/66/66 
f 76/76/76 75/75/75 66/66/66 
f 62/62/62 77/77/77 64/64/64 
f 77/77/77 76/76/76 64/64/64 
f 72/72/72 77/77/77 62/62/62 
f 71/71/71 78/78/78 72/72/72 
f 78/78/78 79/79/79 72/72/72 
f 72/72/72 79/79/79 77/77/77 
f 73/73/73 80/80/80 74/74/74 
f 80/80/80 81/81/81 74/74/74 
f 75/75/75 82/82/82 73/73/73 
f 82/82/82 80/80/80 73/73/73 
f 76/76/76 83/83/83 75/75/75 
f 83/83/83 82/82/82 75/75/75 
f 77/77/77 84/84/84 76/76/76 
f 84/84/84 83/83/83 76/76/76 
f 79/79/79 84/84/84 77/77/77 
f 78/78/78 85/85/85 79/79/79 
f 85/85/85 86/86/86 79/79/79 
f 79/79/79 86/86/86 84/84/84 
f 80/80/80 87/87/87 81/81/81 
f 87/87/87 88/88/88 81/81/81 
f 82/82/82 89/89/89 80/80/80 
f 89/89/89 87/87/87 80/80/80 
f 83/83/83 90/90/90 82/82/82 
f 90/90/90 89/89/89 82/82/82 
f 84/84/84 91/91/91 83/83/83 
f 91/91/91 90/90/90 83/83/83 
f 86/86/86 91/91/91 84/84/84 
f 85/85/85 92/92/92 86/86/86 
f 92/92/92 93/93/93 86/86/86 
f 86/86/86 93/93/93 91/91/91 
f 87/87/87 94/94/94 88/88/88 
f 94/94/94 95/95/95 88/88/88 
f 89/89/89 96/96/96 87/87/87 
f 96/96/96 94/94/94 87/87/87 
f 90/90/90 97/97/97 89/89/89 
f 97/97/97 96/96/96 89/89/89 
f 91/91/91 98/98/98 90/90/90 
f 98/98/98 97/97/97 90/90/90 
f 93/93/93 98/98/98 91/91/91 
f 92/92/92 99/99/99 93/93/93 
f 99/99/99 100/100/100 93/93/93 
f 93/93/93 100/100/100 98/98/98 
f 94/94/94 101/101/101 95/95/95 
f 101/101/101 102/102/102 95/95/95 
f 96/96/96 103/103/103 94/94/94 
f 103/103/103 101/101/101 94/94/94 
f 97/97/97 104/104/104 96/96/96 
f 104/104/104 103/103/103 96/96/96 
f 98/98/98 105/105/105 97/97/97 
f 105/105/105 104/104/104 97/97/97 
f 100/100/100 105/105/105 98/98/98 
f 99/99/99 106/106/106 100/100/100 
f 106/106/106 107/107/107 100/100/100 
f 100/100/100 107/107/107 105/105/105 
f 101/101/101 108/108/108 102/102/102 
f 108/108/108 109/109/109 102/102/102 
f 103/103/103 110/110/110 101/101/101 
f 110/110/110 108/108/108 101/101/101 
f 104/104/104 111/111/111 103/103/103 
f 111/111/111 110/110/110 103/103/103 
f 105/105/105 112/112/112 104/104/104 
f 112/112/112 111/111/111 104/104/104 
f 107/107/107 112/112/112 105/105/105 

