# Created by DisUnity v0.3.4
v 0.40079376 1.8453602E-9 0.0
v 0.35 0.0 0.099999994
v 0.30310887 0.175 0.099999994
v 0.34709758 0.20039688 0.0
v 0.17499998 0.3031089 0.099999994
v 0.20039688 0.34709758 0.0
v 0.34709746 -0.20039712 0.0
v 0.30310878 -0.1750002 0.099999994
v 0.2003967 -0.3470977 0.0
v 0.17499982 -0.303109 0.099999994
v -1.7964452E-7 -0.40079376 0.0
v -1.6271929E-7 -0.35 0.099999994
v -0.20039697 -0.34709752 0.0
v -0.17500009 -0.3031088 0.099999994
v -0.3470976 -0.20039678 0.0
v -0.3031089 -0.17499992 0.099999994
v -0.40079376 6.236353E-8 0.0
v -0.35 5.284853E-8 0.099999994
v -0.34709758 0.2003969 0.0
v -0.30310887 0.17500001 0.099999994
v -0.20039688 0.34709758 0.0
v -0.17500001 0.30310887 0.099999994
v -1.08298215E-8 0.40079376 0.0
v -1.5298985E-8 0.35 0.099999994
v 0.20039688 0.34709758 0.0
v 0.17499998 0.3031089 0.099999994
vn 0.8915785 0.0 0.45286626
vn 0.8915785 0.0 0.45286626
vn 0.7721296 0.44578928 0.4528663
vn 0.7721296 0.44578913 0.45286638
vn 0.44578913 0.77212965 0.45286632
vn 0.44578922 0.7721296 0.45286623
vn 0.77212936 -0.44578955 0.45286635
vn 0.77212936 -0.4457895 0.45286635
vn 0.4457887 -0.77212983 0.4528663
vn 0.44578868 -0.7721298 0.45286635
vn -4.4011782E-7 -0.8915785 0.45286626
vn -4.4465673E-7 -0.8915785 0.45286626
vn -0.44578955 -0.7721294 0.4528662
vn -0.44578955 -0.7721294 0.45286623
vn -0.7721298 -0.445789 0.4528662
vn -0.7721297 -0.44578907 0.45286626
vn -0.8915785 0.0 0.45286626
vn -0.8915785 0.0 0.45286626
vn -0.7721296 0.4457893 0.4528663
vn -0.77212954 0.44578934 0.45286638
vn -0.44578916 0.77212965 0.4528663
vn -0.44578928 0.7721296 0.4528663
vn -0.0 0.8915785 0.45286626
vn -0.0 0.8915785 0.4528662
vn 0.44578922 0.7721296 0.45286623
vn 0.44578913 0.77212965 0.45286632
vt 0.8302469 0.24971962
vt 0.8302469 0.0013091564
vt 0.91358024 0.0013091564
vt 0.91358024 0.24971962
vt 0.9969136 0.0013091564
vt 0.9969136 0.24971962
vt 0.7469135 0.24971962
vt 0.7469135 0.0013091564
vt 0.6635802 0.24971962
vt 0.6635802 0.0013091564
vt 0.58024687 0.24971962
vt 0.58024687 0.0013091564
vt 0.4969135 0.24971962
vt 0.4969135 0.0013091564
vt 0.41358024 0.24971962
vt 0.41358024 0.0013091564
vt 0.3302469 0.24971962
vt 0.3302469 0.0013091564
vt 0.2469136 0.24971962
vt 0.2469136 0.0013091564
vt 0.16358027 0.24971962
vt 0.16358027 0.0013091564
vt 0.08024695 0.24971962
vt 0.08024695 0.0013091564
vt -0.0030864 0.24971962
vt -0.0030864 0.0013091564

g Cylinder001
s 1
usemtl Cylinder001
f 3/3/3 2/2/2 1/1/1 
f 4/4/4 3/3/3 1/1/1 
f 5/5/5 3/3/3 4/4/4 
f 6/6/6 5/5/5 4/4/4 
f 1/1/1 2/2/2 7/7/7 
f 2/2/2 8/8/8 7/7/7 
f 7/7/7 8/8/8 9/9/9 
f 8/8/8 10/10/10 9/9/9 
f 9/9/9 10/10/10 11/11/11 
f 10/10/10 12/12/12 11/11/11 
f 11/11/11 12/12/12 13/13/13 
f 12/12/12 14/14/14 13/13/13 
f 13/13/13 14/14/14 15/15/15 
f 14/14/14 16/16/16 15/15/15 
f 15/15/15 16/16/16 17/17/17 
f 16/16/16 18/18/18 17/17/17 
f 17/17/17 18/18/18 19/19/19 
f 18/18/18 20/20/20 19/19/19 
f 19/19/19 20/20/20 21/21/21 
f 20/20/20 22/22/22 21/21/21 
f 21/21/21 22/22/22 23/23/23 
f 22/22/22 24/24/24 23/23/23 
f 23/23/23 24/24/24 25/25/25 
f 24/24/24 26/26/26 25/25/25 

