# Created by DisUnity v0.3.4
v -1.34851685E-8 -0.40000007 0.055963133
v 0.2200248 -0.1362717 0.13347301
v 0.1576825 -0.4000001 0.021382445
v 7.110816E-8 -0.13627169 0.17447846
v 0.1576825 -0.4000001 0.021382445
v 0.4135112 -0.1362717 0.0153478235
v 0.2963461 -0.4000001 -0.078188665
v 0.2200248 -0.1362717 0.13347301
v 0.2963461 -0.4000001 -0.078188665
v 0.55712205 -0.13627167 -0.16578667
v 0.39926597 -0.40000007 -0.23074043
v 0.4135112 -0.1362717 0.0153478235
v -0.39926624 -0.39999992 -0.23074073
v -0.41351143 -0.13627154 0.015347633
v -0.29634637 -0.39999998 -0.078188896
v -0.55712223 -0.13627146 -0.16578701
v -0.29634637 -0.39999998 -0.078188896
v -0.220025 -0.13627163 0.13347286
v -0.15768278 -0.40000004 0.021382332
v -0.41351143 -0.13627154 0.015347633
v -0.15768278 -0.40000004 0.021382332
v 7.110816E-8 -0.13627169 0.17447846
v -1.34851685E-8 -0.40000007 0.055963133
v -0.220025 -0.13627163 0.13347286
v 7.110816E-8 -0.13627169 0.17447846
v 0.24618429 0.14331295 0.17885666
v 0.2200248 -0.1362717 0.13347301
v 1.259704E-7 0.14331295 0.22107178
v 0.46267503 0.14331292 0.057302855
v 0.4135112 -0.1362717 0.0153478235
v 0.62336016 0.14331295 -0.12892821
v 0.55712205 -0.13627167 -0.16578667
v -0.220025 -0.13627163 0.13347286
v -0.24618444 0.14331302 0.1788565
v -0.41351143 -0.13627154 0.015347633
v -0.4626749 0.14331314 0.057302628
v -0.55712223 -0.13627146 -0.16578701
v -0.62336016 0.14331317 -0.12892853
v 1.259704E-7 0.14331295 0.22107178
v 0.25564218 0.39999977 0.18852554
v 0.24618429 0.14331295 0.17885666
v 1.7855801E-7 0.39999983 0.23074073
v 0.24618429 0.14331295 0.17885666
v 0.4804499 0.39999983 0.06697185
v 0.46267503 0.14331292 0.057302855
v 0.25564218 0.39999977 0.18852554
v 0.46267503 0.14331292 0.057302855
v 0.64730835 0.39999992 -0.11925922
v 0.62336016 0.14331295 -0.12892821
v 0.4804499 0.39999983 0.06697185
v -0.62336016 0.14331317 -0.12892853
v -0.48044994 0.39999998 0.066971585
v -0.4626749 0.14331314 0.057302628
v -0.64730835 0.40000007 -0.11925953
v -0.4626749 0.14331314 0.057302628
v -0.25564224 0.39999992 0.1885254
v -0.24618444 0.14331302 0.1788565
v -0.48044994 0.39999998 0.066971585
v -0.24618444 0.14331302 0.1788565
v 1.7855801E-7 0.39999983 0.23074073
v 1.259704E-7 0.14331295 0.22107178
v -0.25564224 0.39999992 0.1885254
vn 0.17881702 -0.41180125 0.893557
vn 0.17881703 -0.41180128 0.893557
vn 0.17881702 -0.41180125 0.893557
vn 0.17881703 -0.41180128 0.893557
vn 0.48781145 -0.456169 0.7442781
vn 0.48781142 -0.45616898 0.7442781
vn 0.48781145 -0.456169 0.7442781
vn 0.48781145 -0.45616898 0.7442781
vn 0.69031304 -0.5131839 0.51001
vn 0.69031304 -0.51318395 0.51001006
vn 0.69031304 -0.51318395 0.51001006
vn 0.69031304 -0.5131839 0.51001
vn -0.6903134 -0.5131837 0.5100098
vn -0.6903134 -0.51318365 0.51000977
vn -0.6903134 -0.51318365 0.51000977
vn -0.6903134 -0.5131836 0.5100097
vn -0.48781186 -0.45616886 0.7442779
vn -0.48781186 -0.45616886 0.74427783
vn -0.48781186 -0.45616886 0.7442779
vn -0.48781186 -0.45616886 0.7442779
vn -0.17881754 -0.4118012 0.89355695
vn -0.17881757 -0.41180122 0.89355695
vn -0.17881753 -0.41180116 0.893557
vn -0.17881756 -0.41180122 0.89355695
vn -2.0836936E-7 -0.25812572 0.96611136
vn 0.34015575 -0.14766158 0.9287035
vn 0.34259173 -0.27086872 0.89958936
vn -1.7594046E-7 -0.12966524 0.99155784
vn 0.6332485 -0.19111897 0.7499799
vn 0.62904245 -0.3026957 0.7160174
vn 0.7510845 -0.21323325 0.624823
vn 0.74197596 -0.3149106 0.5918641
vn -0.34259173 -0.27086872 0.89958936
vn -0.34015575 -0.14766158 0.9287035
vn -0.62904245 -0.3026957 0.7160174
vn -0.6332485 -0.19111897 0.7499799
vn -0.74197596 -0.3149106 0.5918641
vn -0.7510845 -0.21323325 0.624823
vn 0.16578037 -0.040170293 0.98534423
vn 0.16578038 -0.040170297 0.98534423
vn 0.16578037 -0.040170297 0.98534423
vn 0.16578038 -0.040170297 0.98534423
vn 0.48169196 -0.058488723 0.8743866
vn 0.48169196 -0.058488723 0.8743866
vn 0.48169196 -0.058488723 0.8743866
vn 0.48169196 -0.058488723 0.8743866
vn 0.7481809 -0.085590295 0.65795106
vn 0.7481809 -0.085590295 0.65795106
vn 0.74818105 -0.0855903 0.657951
vn 0.74818105 -0.0855903 0.657951
vn -0.748181 -0.08559055 0.65795094
vn -0.748181 -0.08559055 0.65795106
vn -0.748181 -0.08559056 0.65795106
vn -0.7481809 -0.085590556 0.65795106
vn -0.48169258 -0.058488797 0.8743863
vn -0.48169258 -0.058488782 0.8743863
vn -0.48169258 -0.05848879 0.8743863
vn -0.48169258 -0.05848879 0.8743863
vn -0.1657807 -0.04017023 0.9853441
vn -0.16578071 -0.040170226 0.9853441
vn -0.16578071 -0.040170234 0.9853441
vn -0.16578072 -0.04017023 0.9853441
vt 0.4987668 1.0
vt 0.6652197 0.6
vt 0.6652197 1.0
vt 0.4987668 0.6
vt 0.6652197 1.0
vt 0.8316726 0.6
vt 0.8316726 1.0
vt 0.6652197 0.6
vt 0.8316726 1.0
vt 0.9981255 0.6
vt 0.9981255 1.0
vt 0.8316726 0.6
vt -5.922015E-4 1.0
vt 0.1658606 0.6
vt 0.1658606 1.0
vt -5.922015E-4 0.6
vt 0.1658606 1.0
vt 0.3323134 0.6
vt 0.3323134 1.0
vt 0.1658606 0.6
vt 0.3323134 1.0
vt 0.4987668 0.6
vt 0.4987668 1.0
vt 0.3323134 0.6
vt 0.4987668 0.6
vt 0.6652197 0.39999998
vt 0.6652197 0.6
vt 0.4987668 0.39999998
vt 0.8316726 0.39999998
vt 0.8316726 0.6
vt 0.9981255 0.39999998
vt 0.9981255 0.6
vt 0.3323134 0.6
vt 0.3323134 0.39999998
vt 0.1658606 0.6
vt 0.1658606 0.39999998
vt -5.922015E-4 0.6
vt -5.922015E-4 0.39999998
vt 0.4987668 0.39999998
vt 0.6652197 0.0
vt 0.6652197 0.39999998
vt 0.4987668 0.0
vt 0.6652197 0.39999998
vt 0.8316726 0.0
vt 0.8316726 0.39999998
vt 0.6652197 0.0
vt 0.8316726 0.39999998
vt 0.9981255 0.0
vt 0.9981255 0.39999998
vt 0.8316726 0.0
vt -5.922015E-4 0.39999998
vt 0.1658606 0.0
vt 0.1658606 0.39999998
vt -5.922015E-4 0.0
vt 0.1658606 0.39999998
vt 0.3323134 0.0
vt 0.3323134 0.39999998
vt 0.1658606 0.0
vt 0.3323134 0.39999998
vt 0.4987668 0.0
vt 0.4987668 0.39999998
vt 0.3323134 0.0

g Cylinder001
s 1
usemtl Cylinder001
f 3/3/3 2/2/2 1/1/1 
f 2/2/2 4/4/4 1/1/1 
f 7/7/7 6/6/6 5/5/5 
f 6/6/6 8/8/8 5/5/5 
f 11/11/11 10/10/10 9/9/9 
f 10/10/10 12/12/12 9/9/9 
f 15/15/15 14/14/14 13/13/13 
f 14/14/14 16/16/16 13/13/13 
f 19/19/19 18/18/18 17/17/17 
f 18/18/18 20/20/20 17/17/17 
f 23/23/23 22/22/22 21/21/21 
f 22/22/22 24/24/24 21/21/21 
f 27/27/27 26/26/26 25/25/25 
f 26/26/26 28/28/28 25/25/25 
f 29/29/29 26/26/26 27/27/27 
f 30/30/30 29/29/29 27/27/27 
f 31/31/31 29/29/29 30/30/30 
f 32/32/32 31/31/31 30/30/30 
f 25/25/25 28/28/28 33/33/33 
f 28/28/28 34/34/34 33/33/33 
f 33/33/33 34/34/34 35/35/35 
f 34/34/34 36/36/36 35/35/35 
f 35/35/35 36/36/36 37/37/37 
f 36/36/36 38/38/38 37/37/37 
f 41/41/41 40/40/40 39/39/39 
f 40/40/40 42/42/42 39/39/39 
f 45/45/45 44/44/44 43/43/43 
f 44/44/44 46/46/46 43/43/43 
f 49/49/49 48/48/48 47/47/47 
f 48/48/48 50/50/50 47/47/47 
f 53/53/53 52/52/52 51/51/51 
f 52/52/52 54/54/54 51/51/51 
f 57/57/57 56/56/56 55/55/55 
f 56/56/56 58/58/58 55/55/55 
f 61/61/61 60/60/60 59/59/59 
f 60/60/60 62/62/62 59/59/59 

