# Created by DisUnity v0.3.4
v 0.95 0.0 0.0
v 0.95 0.0 0.058333334
v 0.8678682 0.3863998 0.058333334
v 0.8678682 0.3863998 0.0
v 0.635674 0.70598763 0.058333334
v 0.635674 0.70598763 0.0
v 0.29356614 0.9035037 0.058333334
v 0.29356614 0.9035037 0.0
v 0.86786824 -0.38639966 0.0
v 0.86786824 -0.38639966 0.058333334
v 0.6356742 -0.7059875 0.0
v 0.6356742 -0.7059875 0.058333334
v 0.29356626 -0.90350366 0.0
v 0.29356626 -0.90350366 0.058333334
v -0.09930192 -0.9447958 0.0
v -0.09930192 -0.9447958 0.058333334
v -0.4749999 -0.8227241 0.0
v -0.4749999 -0.8227241 0.058333334
v -0.76856613 -0.5583961 0.0
v -0.76856613 -0.5583961 0.058333334
v -0.92924017 -0.19751619 0.0
v -0.92924017 -0.19751619 0.058333334
v -0.9292402 0.19751602 0.0
v -0.9292402 0.19751602 0.058333334
v -0.7685662 0.5583959 0.0
v -0.7685662 0.5583959 0.058333334
v -0.47500002 0.8227241 0.0
v -0.47500002 0.8227241 0.058333334
v -0.09930208 0.9447958 0.0
v -0.09930208 0.9447958 0.058333334
v 0.29356614 0.9035037 0.0
v 0.29356614 0.9035037 0.058333334
v -0.09930208 0.9447958 0.11666667
v 0.29356614 0.9035037 0.11666667
v -0.47500002 0.8227241 0.11666667
v -0.7685662 0.5583959 0.11666667
v -0.9292402 0.19751602 0.11666667
v -0.92924017 -0.19751619 0.11666667
v -0.76856613 -0.5583961 0.11666667
v -0.4749999 -0.8227241 0.11666667
v -0.09930192 -0.9447958 0.11666667
v 0.29356626 -0.90350366 0.11666667
v 0.6356742 -0.7059875 0.11666667
v 0.86786824 -0.38639966 0.11666667
v 0.95 0.0 0.11666667
v 0.8678682 0.3863998 0.11666667
v 0.635674 0.70598763 0.11666667
v 0.29356614 0.9035037 0.11666667
v 0.8678682 0.3863998 0.175
v 0.95 0.0 0.175
v 0.635674 0.70598763 0.175
v 0.29356614 0.9035037 0.175
v 0.86786824 -0.38639966 0.175
v 0.8678682 0.3863998 0.23333333
v 0.95 0.0 0.23333333
v 0.635674 0.70598763 0.23333333
v 0.29356614 0.9035037 0.23333333
v 0.86786824 -0.38639966 0.23333333
v 0.6356742 -0.7059875 0.175
v 0.29356626 -0.90350366 0.175
v -0.09930192 -0.9447958 0.175
v -0.4749999 -0.8227241 0.175
v -0.76856613 -0.5583961 0.175
v -0.92924017 -0.19751619 0.175
v -0.9292402 0.19751602 0.175
v -0.7685662 0.5583959 0.175
v -0.47500002 0.8227241 0.175
v -0.09930208 0.9447958 0.175
v 0.29356614 0.9035037 0.175
v -0.09930208 0.9447958 0.23333333
v 0.29356614 0.9035037 0.23333333
v -0.47500002 0.8227241 0.23333333
v -0.7685662 0.5583959 0.23333333
v -0.9292402 0.19751602 0.23333333
v -0.92924017 -0.19751619 0.23333333
v -0.76856613 -0.5583961 0.23333333
v -0.4749999 -0.8227241 0.23333333
v -0.09930192 -0.9447958 0.23333333
v 0.29356626 -0.90350366 0.23333333
v 0.6356742 -0.7059875 0.23333333
v -0.7685662 0.5583959 0.29166666
v -0.9292402 0.19751602 0.29166666
v -0.92924017 -0.19751619 0.29166666
v -0.76856613 -0.5583961 0.29166666
v -0.4749999 -0.8227241 0.29166666
v -0.09930192 -0.9447958 0.29166666
v 0.29356626 -0.90350366 0.29166666
v 0.6356742 -0.7059875 0.29166666
v 0.86786824 -0.38639966 0.29166666
v 0.95 0.0 0.29166666
v 0.8678682 0.3863998 0.29166666
v 0.635674 0.70598763 0.29166666
v 0.29356614 0.9035037 0.29166666
v 0.8678682 0.3863998 0.35
v 0.95 0.0 0.35
v 0.635674 0.70598763 0.35
v 0.29356614 0.9035037 0.35
v 0.86786824 -0.38639966 0.35
v 0.6356742 -0.7059875 0.35
v 0.29356626 -0.90350366 0.35
v -0.09930192 -0.9447958 0.35
v -0.4749999 -0.8227241 0.35
v -0.76856613 -0.5583961 0.35
v -0.92924017 -0.19751619 0.35
v -0.9292402 0.19751602 0.35
v -0.7685662 0.5583959 0.35
v -0.47500002 0.8227241 0.29166666
v -0.09930208 0.9447958 0.29166666
v 0.29356614 0.9035037 0.29166666
v -0.09930208 0.9447958 0.35
v 0.29356614 0.9035037 0.35
v -0.47500002 0.8227241 0.35
vn 1.0 0.0 0.0
vn 1.0 0.0 0.0
vn 0.9135454 0.40673664 0.0
vn 0.9135454 0.40673667 0.0
vn 0.6691306 0.74314487 0.0
vn 0.6691307 0.7431448 0.0
vn 0.309017 0.95105654 0.0
vn 0.309017 0.95105654 0.0
vn 0.91354555 -0.40673652 0.0
vn 0.91354555 -0.40673643 0.0
vn 0.6691307 -0.74314475 0.0
vn 0.66913074 -0.74314463 0.0
vn 0.30901706 -0.95105654 0.0
vn 0.30901703 -0.95105654 0.0
vn -0.104528345 -0.99452186 0.0
vn -0.104528375 -0.99452186 0.0
vn -0.49999985 -0.8660255 0.0
vn -0.49999985 -0.8660255 0.0
vn -0.8090169 -0.5877853 0.0
vn -0.8090169 -0.5877853 0.0
vn -0.97814757 -0.20791174 0.0
vn -0.97814757 -0.20791173 0.0
vn -0.9781477 0.20791158 0.0
vn -0.9781477 0.20791158 0.0
vn -0.80901706 0.5877852 0.0
vn -0.80901706 0.5877852 0.0
vn -0.5000001 0.8660253 0.0
vn -0.5000002 0.8660253 0.0
vn -0.10452853 0.99452186 0.0
vn -0.1045285 0.99452186 0.0
vn 0.309017 0.95105654 0.0
vn 0.309017 0.95105654 0.0
vn -0.10452852 0.99452186 0.0
vn 0.30901697 0.95105654 0.0
vn -0.5000002 0.8660253 0.0
vn -0.80901706 0.5877852 0.0
vn -0.9781477 0.20791157 0.0
vn -0.97814757 -0.20791173 0.0
vn -0.809017 -0.58778536 0.0
vn -0.4999999 -0.8660255 0.0
vn -0.104528375 -0.99452186 0.0
vn 0.30901703 -0.95105654 0.0
vn 0.66913074 -0.74314463 0.0
vn 0.91354555 -0.40673643 0.0
vn 1.0 0.0 0.0
vn 0.9135454 0.40673664 0.0
vn 0.66913056 0.7431448 0.0
vn 0.30901697 0.95105654 0.0
vn 0.9135454 0.40673667 0.0
vn 1.0 0.0 0.0
vn 0.66913056 0.7431448 0.0
vn 0.309017 0.95105654 0.0
vn 0.91354555 -0.40673643 0.0
vn 0.9135454 0.40673664 0.0
vn 1.0 0.0 0.0
vn 0.66913056 0.7431448 0.0
vn 0.309017 0.95105654 0.0
vn 0.91354555 -0.4067364 0.0
vn 0.66913074 -0.74314463 0.0
vn 0.30901703 -0.95105654 0.0
vn -0.104528375 -0.99452186 0.0
vn -0.4999999 -0.8660255 0.0
vn -0.8090169 -0.5877853 0.0
vn -0.97814757 -0.20791173 0.0
vn -0.9781477 0.20791158 0.0
vn -0.80901706 0.5877852 0.0
vn -0.5000002 0.8660253 0.0
vn -0.10452852 0.99452186 0.0
vn 0.309017 0.95105654 0.0
vn -0.10452849 0.99452186 0.0
vn 0.309017 0.95105654 0.0
vn -0.5000001 0.8660253 0.0
vn -0.80901706 0.5877852 0.0
vn -0.9781477 0.20791158 0.0
vn -0.97814757 -0.20791173 0.0
vn -0.8090169 -0.5877853 0.0
vn -0.4999999 -0.8660255 0.0
vn -0.10452838 -0.99452186 0.0
vn 0.30901703 -0.95105654 0.0
vn 0.6691307 -0.74314475 0.0
vn -0.80901706 0.5877852 0.0
vn -0.9781477 0.20791158 0.0
vn -0.97814757 -0.20791171 0.0
vn -0.8090169 -0.5877853 0.0
vn -0.49999985 -0.8660255 0.0
vn -0.104528375 -0.99452186 0.0
vn 0.30901703 -0.95105654 0.0
vn 0.6691307 -0.74314475 0.0
vn 0.91354555 -0.4067364 0.0
vn 1.0 0.0 0.0
vn 0.9135454 0.40673667 0.0
vn 0.66913056 0.7431448 0.0
vn 0.30901697 0.95105654 0.0
vn 0.9135454 0.40673667 0.0
vn 1.0 1.2607799E-7 0.0
vn 0.66913056 0.7431448 0.0
vn 0.30901697 0.95105654 0.0
vn 0.91354555 -0.4067364 0.0
vn 0.6691307 -0.74314475 0.0
vn 0.30901706 -0.95105654 0.0
vn -0.10452838 -0.99452186 0.0
vn -0.4999999 -0.8660255 0.0
vn -0.8090169 -0.58778536 0.0
vn -0.97814757 -0.20791179 0.0
vn -0.9781477 0.20791161 0.0
vn -0.80901706 0.5877852 0.0
vn -0.5000001 0.8660253 0.0
vn -0.10452852 0.99452186 0.0
vn 0.30901697 0.95105654 0.0
vn -0.1045285 0.99452186 0.0
vn 0.30901697 0.95105654 0.0
vn -0.50000006 0.8660253 0.0
vt 0.7986831 1.0
vt 0.83508706 0.87132
vt 0.90175366 0.87132
vt 0.86534977 1.0
vt 0.9557581 0.8523267
vt 0.93201643 1.0
vt 0.9986831 0.8333333
vt 0.9986831 1.0
vt 0.7320165 1.0
vt 0.7541754 0.8618233
vt 0.6653498 1.0
vt 0.69874644 0.81434
vt 0.5986831 1.0
vt 0.6195758 0.7953466
vt 0.53201646 1.0
vt 0.5430959 0.80009496
vt 0.46534982 1.0
vt 0.47009817 0.8190883
vt 0.3986832 1.0
vt 0.4050143 0.8412472
vt 0.3320165 1.0
vt 0.34626153 0.8507439
vt 0.26534984 1.0
vt 0.27801207 0.8634061
vt 0.19868317 1.0
vt 0.19868317 0.8618233
vt 0.13201648 1.0
vt 0.13359927 0.84757835
vt 0.06534981 1.0
vt 0.076916285 0.82663697
vt -0.0013168864 1.0
vt -0.0013168864 0.8333333
vt 0.0965184 0.6691017
vt -0.0013168864 0.6666666
vt 0.1541754 0.62867993
vt 0.22559042 0.60810375
vt 0.2843432 0.61126935
vt 0.3383476 0.6397594
vt 0.41292822 0.65716994
vt 0.47265497 0.68005943
vt 0.54053915 0.6946697
vt 0.62685657 0.69223464
vt 0.6830282 0.7068449
vt 0.7417567 0.7129325
vt 0.82425106 0.70927995
vt 0.90187544 0.6958872
vt 0.96001947 0.69223464
vt 0.9986831 0.6666666
vt 0.9003292 0.5390947
vt 0.8336625 0.55349797
vt 0.960823 0.50823045
vt 0.9986831 0.5
vt 0.74230456 0.54526746
vt 0.8859259 0.3823995
vt 0.8371446 0.38239944
vt 0.96193093 0.35818297
vt 0.9986831 0.3333333
vt 0.72726816 0.3744856
vt 0.6900411 0.5390947
vt 0.62337446 0.5185185
vt 0.5361317 0.49382716
vt 0.48386833 0.48559672
vt 0.4192593 0.47736627
vt 0.32584366 0.48559672
vt 0.27358028 0.51028806
vt 0.22100036 0.52263373
vt 0.13125038 0.5176878
vt 0.0658636 0.5188619
vt -0.0013168864 0.5
vt 0.033952326 0.34161615
vt -0.0013168864 0.3333333
vt 0.106692 0.37765115
vt 0.20897122 0.38983852
vt 0.28006968 0.38667297
vt 0.34626153 0.35549223
vt 0.40976265 0.33420432
vt 0.47326374 0.32083035
vt 0.56016374 0.31953788
vt 0.6352454 0.34947765
vt 0.68323517 0.3754353
vt 0.21244119 0.115774214
vt 0.2814586 0.12077546
vt 0.36073786 0.14887214
vt 0.3986832 0.1776244
vt 0.45536613 0.20014852
vt 0.54662675 0.20411766
vt 0.64789534 0.18858212
vt 0.6823951 0.18005943
vt 0.71605474 0.1659118
vt 0.8181635 0.14109868
vt 0.8596762 0.13173598
vt 0.9588019 0.14353377
vt 0.9986831 0.16666669
vt 0.86534977 0.0
vt 0.7986831 0.0
vt 0.93201643 0.0
vt 0.9986831 0.0
vt 0.7320165 0.0
vt 0.6653498 0.0
vt 0.5986831 0.0
vt 0.53201646 0.0
vt 0.46534982 0.0
vt 0.3986832 0.0
vt 0.3320165 0.0
vt 0.26534984 0.0
vt 0.19868317 0.0
vt 0.15284099 0.122399926
vt 0.049300425 0.14526749
vt -0.0013168864 0.16666669
vt 0.06534981 0.0
vt -0.0013168864 0.0
vt 0.13201648 0.0

g Cylinder001
s 1
usemtl Cylinder001
f 3/3/3 2/2/2 1/1/1 
f 4/4/4 3/3/3 1/1/1 
f 5/5/5 3/3/3 4/4/4 
f 6/6/6 5/5/5 4/4/4 
f 7/7/7 5/5/5 6/6/6 
f 8/8/8 7/7/7 6/6/6 
f 1/1/1 2/2/2 9/9/9 
f 2/2/2 10/10/10 9/9/9 
f 9/9/9 10/10/10 11/11/11 
f 10/10/10 12/12/12 11/11/11 
f 11/11/11 12/12/12 13/13/13 
f 12/12/12 14/14/14 13/13/13 
f 13/13/13 14/14/14 15/15/15 
f 14/14/14 16/16/16 15/15/15 
f 15/15/15 16/16/16 17/17/17 
f 16/16/16 18/18/18 17/17/17 
f 17/17/17 18/18/18 19/19/19 
f 18/18/18 20/20/20 19/19/19 
f 19/19/19 20/20/20 21/21/21 
f 20/20/20 22/22/22 21/21/21 
f 21/21/21 22/22/22 23/23/23 
f 22/22/22 24/24/24 23/23/23 
f 23/23/23 24/24/24 25/25/25 
f 24/24/24 26/26/26 25/25/25 
f 25/25/25 26/26/26 27/27/27 
f 26/26/26 28/28/28 27/27/27 
f 27/27/27 28/28/28 29/29/29 
f 28/28/28 30/30/30 29/29/29 
f 29/29/29 30/30/30 31/31/31 
f 30/30/30 32/32/32 31/31/31 
f 30/30/30 33/33/33 32/32/32 
f 33/33/33 34/34/34 32/32/32 
f 35/35/35 33/33/33 30/30/30 
f 28/28/28 35/35/35 30/30/30 
f 36/36/36 35/35/35 28/28/28 
f 26/26/26 36/36/36 28/28/28 
f 37/37/37 36/36/36 26/26/26 
f 24/24/24 37/37/37 26/26/26 
f 38/38/38 37/37/37 24/24/24 
f 22/22/22 38/38/38 24/24/24 
f 39/39/39 38/38/38 22/22/22 
f 20/20/20 39/39/39 22/22/22 
f 40/40/40 39/39/39 20/20/20 
f 18/18/18 40/40/40 20/20/20 
f 41/41/41 40/40/40 18/18/18 
f 16/16/16 41/41/41 18/18/18 
f 42/42/42 41/41/41 16/16/16 
f 14/14/14 42/42/42 16/16/16 
f 43/43/43 42/42/42 14/14/14 
f 12/12/12 43/43/43 14/14/14 
f 44/44/44 43/43/43 12/12/12 
f 10/10/10 44/44/44 12/12/12 
f 45/45/45 44/44/44 10/10/10 
f 2/2/2 45/45/45 10/10/10 
f 46/46/46 45/45/45 2/2/2 
f 3/3/3 46/46/46 2/2/2 
f 47/47/47 46/46/46 3/3/3 
f 5/5/5 47/47/47 3/3/3 
f 48/48/48 47/47/47 5/5/5 
f 7/7/7 48/48/48 5/5/5 
f 46/46/46 49/49/49 45/45/45 
f 49/49/49 50/50/50 45/45/45 
f 45/45/45 50/50/50 44/44/44 
f 51/51/51 49/49/49 46/46/46 
f 47/47/47 51/51/51 46/46/46 
f 52/52/52 51/51/51 47/47/47 
f 48/48/48 52/52/52 47/47/47 
f 44/44/44 53/53/53 43/43/43 
f 50/50/50 53/53/53 44/44/44 
f 49/49/49 54/54/54 50/50/50 
f 54/54/54 55/55/55 50/50/50 
f 50/50/50 55/55/55 53/53/53 
f 56/56/56 54/54/54 49/49/49 
f 51/51/51 56/56/56 49/49/49 
f 57/57/57 56/56/56 51/51/51 
f 52/52/52 57/57/57 51/51/51 
f 55/55/55 58/58/58 53/53/53 
f 53/53/53 58/58/58 59/59/59 
f 53/53/53 59/59/59 43/43/43 
f 43/43/43 59/59/59 42/42/42 
f 59/59/59 60/60/60 42/42/42 
f 42/42/42 60/60/60 41/41/41 
f 60/60/60 61/61/61 41/41/41 
f 41/41/41 61/61/61 40/40/40 
f 61/61/61 62/62/62 40/40/40 
f 40/40/40 62/62/62 39/39/39 
f 62/62/62 63/63/63 39/39/39 
f 39/39/39 63/63/63 38/38/38 
f 63/63/63 64/64/64 38/38/38 
f 38/38/38 64/64/64 37/37/37 
f 64/64/64 65/65/65 37/37/37 
f 37/37/37 65/65/65 36/36/36 
f 65/65/65 66/66/66 36/36/36 
f 36/36/36 66/66/66 35/35/35 
f 66/66/66 67/67/67 35/35/35 
f 35/35/35 67/67/67 33/33/33 
f 67/67/67 68/68/68 33/33/33 
f 33/33/33 68/68/68 34/34/34 
f 68/68/68 69/69/69 34/34/34 
f 68/68/68 70/70/70 69/69/69 
f 70/70/70 71/71/71 69/69/69 
f 72/72/72 70/70/70 68/68/68 
f 67/67/67 72/72/72 68/68/68 
f 73/73/73 72/72/72 67/67/67 
f 66/66/66 73/73/73 67/67/67 
f 74/74/74 73/73/73 66/66/66 
f 65/65/65 74/74/74 66/66/66 
f 75/75/75 74/74/74 65/65/65 
f 64/64/64 75/75/75 65/65/65 
f 76/76/76 75/75/75 64/64/64 
f 63/63/63 76/76/76 64/64/64 
f 77/77/77 76/76/76 63/63/63 
f 62/62/62 77/77/77 63/63/63 
f 78/78/78 77/77/77 62/62/62 
f 61/61/61 78/78/78 62/62/62 
f 79/79/79 78/78/78 61/61/61 
f 60/60/60 79/79/79 61/61/61 
f 80/80/80 79/79/79 60/60/60 
f 59/59/59 80/80/80 60/60/60 
f 58/58/58 80/80/80 59/59/59 
f 73/73/73 81/81/81 72/72/72 
f 82/82/82 81/81/81 73/73/73 
f 74/74/74 82/82/82 73/73/73 
f 83/83/83 82/82/82 74/74/74 
f 75/75/75 83/83/83 74/74/74 
f 84/84/84 83/83/83 75/75/75 
f 76/76/76 84/84/84 75/75/75 
f 85/85/85 84/84/84 76/76/76 
f 77/77/77 85/85/85 76/76/76 
f 86/86/86 85/85/85 77/77/77 
f 78/78/78 86/86/86 77/77/77 
f 87/87/87 86/86/86 78/78/78 
f 79/79/79 87/87/87 78/78/78 
f 88/88/88 87/87/87 79/79/79 
f 80/80/80 88/88/88 79/79/79 
f 89/89/89 88/88/88 80/80/80 
f 58/58/58 89/89/89 80/80/80 
f 90/90/90 89/89/89 58/58/58 
f 55/55/55 90/90/90 58/58/58 
f 91/91/91 90/90/90 55/55/55 
f 54/54/54 91/91/91 55/55/55 
f 92/92/92 91/91/91 54/54/54 
f 56/56/56 92/92/92 54/54/54 
f 93/93/93 92/92/92 56/56/56 
f 57/57/57 93/93/93 56/56/56 
f 91/91/91 94/94/94 90/90/90 
f 94/94/94 95/95/95 90/90/90 
f 90/90/90 95/95/95 89/89/89 
f 96/96/96 94/94/94 91/91/91 
f 92/92/92 96/96/96 91/91/91 
f 97/97/97 96/96/96 92/92/92 
f 93/93/93 97/97/97 92/92/92 
f 89/89/89 98/98/98 88/88/88 
f 95/95/95 98/98/98 89/89/89 
f 98/98/98 99/99/99 88/88/88 
f 88/88/88 99/99/99 87/87/87 
f 99/99/99 100/100/100 87/87/87 
f 87/87/87 100/100/100 86/86/86 
f 100/100/100 101/101/101 86/86/86 
f 86/86/86 101/101/101 85/85/85 
f 101/101/101 102/102/102 85/85/85 
f 85/85/85 102/102/102 84/84/84 
f 102/102/102 103/103/103 84/84/84 
f 84/84/84 103/103/103 83/83/83 
f 103/103/103 104/104/104 83/83/83 
f 83/83/83 104/104/104 82/82/82 
f 104/104/104 105/105/105 82/82/82 
f 82/82/82 105/105/105 81/81/81 
f 105/105/105 106/106/106 81/81/81 
f 81/81/81 106/106/106 107/107/107 
f 81/81/81 107/107/107 72/72/72 
f 72/72/72 107/107/107 70/70/70 
f 107/107/107 108/108/108 70/70/70 
f 70/70/70 108/108/108 71/71/71 
f 108/108/108 109/109/109 71/71/71 
f 108/108/108 110/110/110 109/109/109 
f 110/110/110 111/111/111 109/109/109 
f 112/112/112 110/110/110 108/108/108 
f 107/107/107 112/112/112 108/108/108 
f 106/106/106 112/112/112 107/107/107 

