# Created by DisUnity v0.3.4
v -4.7632127 0.92912185 0.025671996
v -4.5854516 0.48764098 0.20241638
v -4.8282785 1.0529649 0.40041077
v -4.6503906 0.61116743 0.5772815
v -4.309763 -0.09917961 0.43700865
v -4.371538 0.0176997 0.8145312
v -4.01636 -0.5521827 0.61741394
v -4.0720725 -0.44449133 0.99859434
v -3.7036865 -0.87151104 0.74367553
v -3.7473438 -0.775827 1.1296014
v -3.3696313 -1.0557092 0.8151892
v -3.3910034 -0.97194016 1.2057348
v -3.0162914 -1.0988075 0.8295477
v -3.0013084 -1.0181977 1.2210547
v -2.6604297 -0.91643476 0.7522003
v -2.6086352 -0.8198892 1.136903
v -2.2956347 -0.55548584 0.60224056
v -2.2356274 -0.45101058 0.9836645
v -1.9262402 -0.12289543 0.42357725
v -1.865559 -0.017362671 0.8046026
v -1.5662427 0.27426478 0.26025695
v -1.5107201 0.37483725 0.64340514
v -1.2360523 0.52690625 0.15717529
v -1.2026196 0.61333776 0.5462921
v -0.8380273 0.56929606 0.15002075
v -0.87305176 0.6487498 0.54048216
v -0.41540527 0.3934484 0.24706054
v -0.47524413 0.48598465 0.6315814
v 0.009272461 0.10725689 0.3738977
v -0.02791748 0.19924045 0.76139706
v 0.45301268 -0.16726036 0.43986633
v 0.4858423 -0.09617233 0.8321277
v 0.8896191 -0.5532465 0.4320868
v 0.9570386 -0.51051766 0.8240417
v 1.2931104 -0.92521346 0.3996118
v 1.3610742 -0.8778099 0.79093564
v 1.610664 -1.0476177 0.38212645
v 1.5917944 -0.9586708 0.77165467
v 1.8078735 -0.84444916 0.3984973
v 1.689961 -0.81312513 0.77943724
v 1.9952954 -0.35279313 0.43721738
v 1.8682128 -0.3431822 0.81637144
v 2.1660986 0.23853503 0.48381224
v 2.0377076 0.24536163 0.8625854
v 2.338076 0.7426228 0.5262903
v 2.2136497 0.7640061 0.9058435
v 2.6076927 1.0353976 0.56185424
v 2.5367432 1.1139587 0.94759274
v 3.0178516 0.96834844 0.5877606
v 3.0555909 1.033559 0.98060054
v 3.3946385 0.46169043 0.5877264
v 3.462788 0.49065584 0.9808124
v 3.6240747 0.005138626 0.57977843
v 3.6928856 0.03280426 0.972843
v 2.1223755 -0.36240402 0.058063354
v 2.2944872 0.2317084 0.10503845
v 2.4625025 0.7212396 0.14673644
v 2.6786425 0.95683676 0.17611572
v 2.9801123 0.90313786 0.19492064
v 3.3264892 0.43272507 0.19463989
v 3.5552611 -0.022527007 0.18671447
v 2.4228783 0.22488181 -0.27373475
v 2.249458 -0.3720149 -0.3210913
v 1.9257885 -0.87577313 0.017557373
v 1.6295336 -1.1365647 -0.007401733
v 1.2251489 -0.97261703 0.008288574
v 0.82220215 -0.5959754 0.040131226
v 0.42018554 -0.23834838 0.047604978
v 0.0464624 0.015273322 -0.013601684
v -0.35556397 0.30091217 -0.13746032
v -0.8030029 0.48984227 -0.24044067
v -1.2694873 0.4404747 -0.23194091
v -1.6217675 0.17369229 -0.12289062
v -1.9869213 -0.22842811 0.042551268
v -2.355642 -0.6599611 0.22081664
v -2.7122216 -1.0129805 0.36749694
v -3.0312743 -1.1794174 0.43804076
v -3.3482592 -1.1394781 0.42464355
v -3.6600292 -0.967195 0.35775024
v -3.9606445 -0.6598741 0.2362329
v -4.247988 -0.21605895 0.059486084
v -4.5205126 0.36411443 -0.17244934
v -4.6981444 0.8052788 -0.34906676
v -4.4555736 0.240588 -0.54731447
v -4.633076 0.68143576 -0.72380555
v -4.186216 -0.33293822 -0.3180365
v -3.9049315 -0.7675654 -0.14494751
v -3.616372 -1.0628788 -0.02817566
v -3.3268871 -1.2232472 0.0340979
v -3.0462573 -1.2600273 0.046534423
v -2.7640135 -1.109526 -0.01720581
v -2.4156494 -0.7644363 -0.16060668
v -2.047605 -0.33396086 -0.33847412
v -1.67729 0.07311981 -0.5060388
v -1.3029224 0.3540432 -0.62105775
v -0.76797605 0.41038853 -0.6309027
v -0.29572508 0.20837593 -0.5219812
v 0.08365234 -0.0767102 -0.40110168
v 0.38735595 -0.3094364 -0.34465575
v 0.7547827 -0.6387043 -0.35182434
v 1.1571851 -1.0200204 -0.38303465
v 1.6484033 -1.2255116 -0.39693055
v 2.0437012 -0.9070973 -0.36338255
v 2.5869286 0.69985634 -0.23281677
v 2.7495947 0.87827575 -0.2096228
v 2.942373 0.8379273 -0.19791992
v 3.25834 0.40375963 -0.19844604
v 3.4864502 -0.05019264 -0.20634948
vn 0.92246693 0.3846588 0.033048563
vn 0.9129163 0.407448 0.023875345
vn 0.92246705 0.38465896 0.033047117
vn 0.91293615 0.40740278 0.023885814
vn 0.87517834 0.48375577 -0.006576909
vn 0.8751715 0.48376766 -0.006613578
vn 0.79004496 0.61039174 -0.057016224
vn 0.7899965 0.61044437 -0.05712326
vn 0.62213045 0.77343833 -0.12143636
vn 0.6219813 0.7735269 -0.121635675
vn 0.32116464 0.92934334 -0.18213764
vn 0.31993473 0.9296481 -0.18274638
vn -0.18550251 0.96409786 -0.19001046
vn -0.18331558 0.96452945 -0.18994315
vn -0.6035244 0.78864294 -0.117475696
vn -0.60248846 0.78951347 -0.11694516
vn -0.7441577 0.66482353 -0.06510777
vn -0.7442327 0.6647423 -0.06507868
vn -0.7611414 0.64600617 -0.057790462
vn -0.7614046 0.64569175 -0.05783737
vn -0.6913825 0.71703833 -0.08857843
vn -0.6928942 0.7155363 -0.088912256
vn -0.38277954 0.9083903 -0.16824651
vn -0.38120928 0.90884507 -0.16935177
vn 0.15682001 0.97033083 -0.18402627
vn 0.15187347 0.9708345 -0.18551207
vn 0.49829334 0.8570058 -0.13131952
vn 0.48902574 0.8613594 -0.13752697
vn 0.56027985 0.81601053 -0.14217365
vn 0.5443307 0.8248654 -0.15264712
vn 0.590072 0.7853527 -0.18717997
vn 0.5811892 0.79063445 -0.19265589
vn 0.6527817 0.7326111 -0.19276164
vn 0.650149 0.7346388 -0.19393818
vn 0.51042163 0.8382321 -0.1919285
vn 0.49531594 0.84603226 -0.19720909
vn -0.1975085 0.95144707 -0.23609099
vn -0.27072644 0.92360914 -0.2713915
vn -0.80511105 0.5237381 -0.27837873
vn -0.83884203 0.45583466 -0.2975883
vn -0.89475125 0.3233631 -0.30798775
vn -0.8948633 0.322698 -0.30835962
vn -0.899118 0.3085196 -0.31048754
vn -0.8993145 0.3075106 -0.31091896
vn -0.8085096 0.5101411 -0.2933739
vn -0.8107104 0.50622326 -0.29408643
vn -0.2934707 0.924309 -0.24398299
vn -0.30244282 0.92099285 -0.2455616
vn 0.5147375 0.83654827 -0.18770307
vn 0.51758885 0.83438224 -0.18949397
vn 0.83575904 0.5178923 -0.1824674
vn 0.83558774 0.5179675 -0.18303756
vn 0.876841 0.44386926 -0.1847429
vn 0.8768364 0.44387808 -0.18474367
vn -0.8943832 0.32445464 -0.30790877
vn -0.8986912 0.30986625 -0.31038222
vn -0.8083446 0.51046395 -0.29326713
vn -0.28669816 0.9263604 -0.2442548
vn 0.5221365 0.83210933 -0.18699609
vn 0.83693075 0.51600486 -0.18244419
vn 0.876849 0.44385386 -0.18474203
vn -0.898478 0.31094867 -0.30991644
vn -0.89429414 0.32500148 -0.3075906
vn -0.7804029 0.5593497 -0.27946237
vn -0.15301219 0.96063274 -0.23188789
vn 0.5211311 0.8315752 -0.19210696
vn 0.65642023 0.72929966 -0.19296262
vn 0.6074208 0.7725346 -0.185014
vn 0.588491 0.79693455 -0.13628513
vn 0.5110068 0.8499994 -0.12795736
vn 0.15956122 0.9699541 -0.18365557
vn -0.38021275 0.9093771 -0.1687354
vn -0.6893609 0.71889347 -0.08929594
vn -0.76077646 0.6464209 -0.057958867
vn -0.7441522 0.6648294 -0.06511202
vn -0.6064658 0.7864993 -0.116696686
vn -0.18726161 0.9638333 -0.18962732
vn 0.32364887 0.9285269 -0.1819043
vn 0.62269074 0.7730126 -0.12127612
vn 0.7902428 0.61014456 -0.056921
vn 0.8752293 0.48366404 -0.0065436433
vn 0.9129272 0.40742293 0.023885444
vn 0.9224678 0.3846566 0.033052474
vn 0.9129087 0.40746477 0.02387802
vn 0.92246854 0.38465476 0.033054266
vn 0.8752403 0.4836445 -0.0065041305
vn 0.7903181 0.610059 -0.05679248
vn 0.62297595 0.77282697 -0.12099329
vn 0.32588708 0.9279345 -0.18092869
vn -0.19021492 0.9632307 -0.1897495
vn -0.60874057 0.78464556 -0.11733022
vn -0.74408823 0.6648981 -0.06514116
vn -0.7605243 0.6467216 -0.057912797
vn -0.68825257 0.71999043 -0.08900625
vn -0.3826597 0.9085441 -0.16768734
vn 0.16452613 0.96936697 -0.18237025
vn 0.52100694 0.84493226 -0.12100099
vn 0.61286134 0.7811129 -0.11943096
vn 0.623954 0.7616933 -0.17465651
vn 0.6592252 0.7271037 -0.1916827
vn 0.5306129 0.8260049 -0.19017282
vn -0.13221778 0.9657954 -0.22306435
vn -0.7743922 0.5696927 -0.27525806
vn -0.8068005 0.5131699 -0.2927963
vn -0.26942712 0.93263364 -0.24000737
vn 0.52897465 0.8290702 -0.18118617
vn 0.8374978 0.51537424 -0.18162313
vn 0.87685513 0.44384396 -0.18473697
vt 0.0 0.6666666
vt 0.03846154 0.6666666
vt 0.0 1.0
vt 0.03846154 1.0
vt 0.07692308 0.6666666
vt 0.07692308 1.0
vt 0.11538462 0.6666666
vt 0.11538462 1.0
vt 0.15384616 0.6666666
vt 0.15384616 1.0
vt 0.1923077 0.6666666
vt 0.1923077 1.0
vt 0.23076923 0.6666666
vt 0.23076923 1.0
vt 0.26923078 0.6666666
vt 0.26923078 1.0
vt 0.30769232 0.6666666
vt 0.30769232 1.0
vt 0.34615386 0.6666666
vt 0.34615386 1.0
vt 0.3846154 0.6666666
vt 0.3846154 1.0
vt 0.42307693 0.6666666
vt 0.42307693 1.0
vt 0.46153846 0.6666666
vt 0.46153846 1.0
vt 0.5 0.6666666
vt 0.5 1.0
vt 0.53846157 0.6666666
vt 0.53846157 1.0
vt 0.57692313 0.6666666
vt 0.57692313 1.0
vt 0.6153847 0.6666666
vt 0.6153847 1.0
vt 0.65384626 0.6666666
vt 0.65384626 1.0
vt 0.69230783 0.6666666
vt 0.69230783 1.0
vt 0.7307694 0.6666666
vt 0.7307694 1.0
vt 0.76923096 0.6666666
vt 0.76923096 1.0
vt 0.8076925 0.6666666
vt 0.8076925 1.0
vt 0.8461541 0.6666666
vt 0.8461541 1.0
vt 0.88461566 0.6666666
vt 0.88461566 1.0
vt 0.9230772 0.6666666
vt 0.9230772 1.0
vt 0.9615388 0.6666666
vt 0.9615388 1.0
vt 1.0000004 0.6666666
vt 1.0000004 1.0
vt 0.76923096 0.3333333
vt 0.8076925 0.3333333
vt 0.8461541 0.3333333
vt 0.88461566 0.3333333
vt 0.9230772 0.3333333
vt 0.9615388 0.3333333
vt 1.0000004 0.3333333
vt 0.8076925 0.0
vt 0.76923096 0.0
vt 0.7307694 0.3333333
vt 0.69230783 0.3333333
vt 0.65384626 0.3333333
vt 0.6153847 0.3333333
vt 0.57692313 0.3333333
vt 0.53846157 0.3333333
vt 0.5 0.3333333
vt 0.46153846 0.3333333
vt 0.42307693 0.3333333
vt 0.3846154 0.3333333
vt 0.34615386 0.3333333
vt 0.30769232 0.3333333
vt 0.26923078 0.3333333
vt 0.23076923 0.3333333
vt 0.1923077 0.3333333
vt 0.15384616 0.3333333
vt 0.11538462 0.3333333
vt 0.07692308 0.3333333
vt 0.03846154 0.3333333
vt 0.0 0.3333333
vt 0.03846154 0.0
vt 0.0 0.0
vt 0.07692308 0.0
vt 0.11538462 0.0
vt 0.15384616 0.0
vt 0.1923077 0.0
vt 0.23076923 0.0
vt 0.26923078 0.0
vt 0.30769232 0.0
vt 0.34615386 0.0
vt 0.3846154 0.0
vt 0.42307693 0.0
vt 0.46153846 0.0
vt 0.5 0.0
vt 0.53846157 0.0
vt 0.57692313 0.0
vt 0.6153847 0.0
vt 0.65384626 0.0
vt 0.69230783 0.0
vt 0.7307694 0.0
vt 0.8461541 0.0
vt 0.88461566 0.0
vt 0.9230772 0.0
vt 0.9615388 0.0
vt 1.0000004 0.0

g dian_1
s 1
usemtl dian_1
f 3/3/3 2/2/2 1/1/1 
f 2/2/2 3/3/3 4/4/4 
f 4/4/4 5/5/5 2/2/2 
f 5/5/5 4/4/4 6/6/6 
f 6/6/6 7/7/7 5/5/5 
f 7/7/7 6/6/6 8/8/8 
f 8/8/8 9/9/9 7/7/7 
f 9/9/9 8/8/8 10/10/10 
f 10/10/10 11/11/11 9/9/9 
f 11/11/11 10/10/10 12/12/12 
f 12/12/12 13/13/13 11/11/11 
f 13/13/13 12/12/12 14/14/14 
f 14/14/14 15/15/15 13/13/13 
f 15/15/15 14/14/14 16/16/16 
f 16/16/16 17/17/17 15/15/15 
f 17/17/17 16/16/16 18/18/18 
f 18/18/18 19/19/19 17/17/17 
f 19/19/19 18/18/18 20/20/20 
f 20/20/20 21/21/21 19/19/19 
f 21/21/21 20/20/20 22/22/22 
f 22/22/22 23/23/23 21/21/21 
f 23/23/23 22/22/22 24/24/24 
f 24/24/24 25/25/25 23/23/23 
f 25/25/25 24/24/24 26/26/26 
f 26/26/26 27/27/27 25/25/25 
f 27/27/27 26/26/26 28/28/28 
f 28/28/28 29/29/29 27/27/27 
f 29/29/29 28/28/28 30/30/30 
f 30/30/30 31/31/31 29/29/29 
f 31/31/31 30/30/30 32/32/32 
f 32/32/32 33/33/33 31/31/31 
f 33/33/33 32/32/32 34/34/34 
f 34/34/34 35/35/35 33/33/33 
f 35/35/35 34/34/34 36/36/36 
f 36/36/36 37/37/37 35/35/35 
f 37/37/37 36/36/36 38/38/38 
f 38/38/38 39/39/39 37/37/37 
f 39/39/39 38/38/38 40/40/40 
f 40/40/40 41/41/41 39/39/39 
f 41/41/41 40/40/40 42/42/42 
f 42/42/42 43/43/43 41/41/41 
f 43/43/43 42/42/42 44/44/44 
f 44/44/44 45/45/45 43/43/43 
f 45/45/45 44/44/44 46/46/46 
f 46/46/46 47/47/47 45/45/45 
f 47/47/47 46/46/46 48/48/48 
f 48/48/48 49/49/49 47/47/47 
f 49/49/49 48/48/48 50/50/50 
f 50/50/50 51/51/51 49/49/49 
f 51/51/51 50/50/50 52/52/52 
f 52/52/52 53/53/53 51/51/51 
f 53/53/53 52/52/52 54/54/54 
f 55/55/55 39/39/39 41/41/41 
f 41/41/41 56/56/56 55/55/55 
f 56/56/56 41/41/41 43/43/43 
f 43/43/43 57/57/57 56/56/56 
f 57/57/57 43/43/43 45/45/45 
f 45/45/45 58/58/58 57/57/57 
f 58/58/58 45/45/45 47/47/47 
f 47/47/47 59/59/59 58/58/58 
f 59/59/59 47/47/47 49/49/49 
f 49/49/49 60/60/60 59/59/59 
f 60/60/60 49/49/49 51/51/51 
f 51/51/51 61/61/61 60/60/60 
f 61/61/61 51/51/51 53/53/53 
f 62/62/62 55/55/55 56/56/56 
f 55/55/55 62/62/62 63/63/63 
f 63/63/63 64/64/64 55/55/55 
f 39/39/39 55/55/55 64/64/64 
f 64/64/64 37/37/37 39/39/39 
f 37/37/37 64/64/64 65/65/65 
f 65/65/65 35/35/35 37/37/37 
f 35/35/35 65/65/65 66/66/66 
f 66/66/66 33/33/33 35/35/35 
f 33/33/33 66/66/66 67/67/67 
f 67/67/67 31/31/31 33/33/33 
f 31/31/31 67/67/67 68/68/68 
f 68/68/68 29/29/29 31/31/31 
f 29/29/29 68/68/68 69/69/69 
f 69/69/69 27/27/27 29/29/29 
f 27/27/27 69/69/69 70/70/70 
f 70/70/70 25/25/25 27/27/27 
f 25/25/25 70/70/70 71/71/71 
f 71/71/71 23/23/23 25/25/25 
f 23/23/23 71/71/71 72/72/72 
f 72/72/72 21/21/21 23/23/23 
f 21/21/21 72/72/72 73/73/73 
f 73/73/73 19/19/19 21/21/21 
f 19/19/19 73/73/73 74/74/74 
f 74/74/74 17/17/17 19/19/19 
f 17/17/17 74/74/74 75/75/75 
f 75/75/75 15/15/15 17/17/17 
f 15/15/15 75/75/75 76/76/76 
f 76/76/76 13/13/13 15/15/15 
f 13/13/13 76/76/76 77/77/77 
f 77/77/77 11/11/11 13/13/13 
f 11/11/11 77/77/77 78/78/78 
f 78/78/78 9/9/9 11/11/11 
f 9/9/9 78/78/78 79/79/79 
f 79/79/79 7/7/7 9/9/9 
f 7/7/7 79/79/79 80/80/80 
f 80/80/80 5/5/5 7/7/7 
f 5/5/5 80/80/80 81/81/81 
f 81/81/81 2/2/2 5/5/5 
f 2/2/2 81/81/81 82/82/82 
f 82/82/82 1/1/1 2/2/2 
f 1/1/1 82/82/82 83/83/83 
f 84/84/84 83/83/83 82/82/82 
f 83/83/83 84/84/84 85/85/85 
f 82/82/82 86/86/86 84/84/84 
f 86/86/86 82/82/82 81/81/81 
f 81/81/81 87/87/87 86/86/86 
f 87/87/87 81/81/81 80/80/80 
f 80/80/80 88/88/88 87/87/87 
f 88/88/88 80/80/80 79/79/79 
f 79/79/79 89/89/89 88/88/88 
f 89/89/89 79/79/79 78/78/78 
f 78/78/78 90/90/90 89/89/89 
f 90/90/90 78/78/78 77/77/77 
f 77/77/77 91/91/91 90/90/90 
f 91/91/91 77/77/77 76/76/76 
f 76/76/76 92/92/92 91/91/91 
f 92/92/92 76/76/76 75/75/75 
f 75/75/75 93/93/93 92/92/92 
f 93/93/93 75/75/75 74/74/74 
f 74/74/74 94/94/94 93/93/93 
f 94/94/94 74/74/74 73/73/73 
f 73/73/73 95/95/95 94/94/94 
f 95/95/95 73/73/73 72/72/72 
f 72/72/72 96/96/96 95/95/95 
f 96/96/96 72/72/72 71/71/71 
f 71/71/71 97/97/97 96/96/96 
f 97/97/97 71/71/71 70/70/70 
f 70/70/70 98/98/98 97/97/97 
f 98/98/98 70/70/70 69/69/69 
f 69/69/69 99/99/99 98/98/98 
f 99/99/99 69/69/69 68/68/68 
f 68/68/68 100/100/100 99/99/99 
f 100/100/100 68/68/68 67/67/67 
f 67/67/67 101/101/101 100/100/100 
f 101/101/101 67/67/67 66/66/66 
f 66/66/66 102/102/102 101/101/101 
f 102/102/102 66/66/66 65/65/65 
f 65/65/65 103/103/103 102/102/102 
f 103/103/103 65/65/65 64/64/64 
f 64/64/64 63/63/63 103/103/103 
f 56/56/56 104/104/104 62/62/62 
f 104/104/104 56/56/56 57/57/57 
f 57/57/57 105/105/105 104/104/104 
f 105/105/105 57/57/57 58/58/58 
f 58/58/58 106/106/106 105/105/105 
f 106/106/106 58/58/58 59/59/59 
f 59/59/59 107/107/107 106/106/106 
f 107/107/107 59/59/59 60/60/60 
f 60/60/60 108/108/108 107/107/107 
f 108/108/108 60/60/60 61/61/61 

