# Created by DisUnity v0.3.4
v -3.278354E-8 0.75 -4.5776366E-7
v 0.25651512 0.70476943 -4.5776366E-7
v 0.2154727 0.5920063 -4.5776366E-7
v -2.7538173E-8 0.63 -4.5776366E-7
v 0.17443027 0.4792432 -4.5776366E-7
v -2.2292806E-8 0.50999993 -4.5776366E-7
v 0.13338786 0.36648008 -4.5776366E-7
v -1.704744E-8 0.39 -4.5776366E-7
v 0.09234544 0.25371698 -4.5776366E-7
v -1.1802074E-8 0.26999998 -4.5776366E-7
v 0.05130303 0.14095391 -4.5776366E-7
v -6.556709E-9 0.15000002 -4.5776366E-7
v 0.010260604 0.028190779 -4.5776366E-7
v -1.3113416E-9 0.03 -4.5776366E-7
v 0.4049562 0.48260793 -4.5776366E-7
v 0.4820907 0.5745333 -4.5776366E-7
v 0.32782164 0.3906826 -4.5776366E-7
v 0.25068718 0.29875728 -4.5776366E-7
v 0.17355265 0.20683196 -4.5776366E-7
v 0.09641816 0.11490667 -4.5776366E-7
v 0.019283628 0.02298133 -4.5776366E-7
v 0.54559606 0.31499994 -4.5776366E-7
v 0.6495191 0.3749999 -4.5776366E-7
v 0.44167292 0.25499994 -4.5776366E-7
v 0.33774993 0.19499996 -4.5776366E-7
v 0.23382685 0.13499996 -4.5776366E-7
v 0.12990382 0.074999996 -4.5776366E-7
v 0.025980763 0.014999997 -4.5776366E-7
v 0.6204289 0.109398276 -4.5776366E-7
v 0.7386058 0.13023604 -4.5776366E-7
v 0.5022519 0.0885605 -4.5776366E-7
v 0.38407505 0.067722745 -4.5776366E-7
v 0.26589808 0.04688497 -4.5776366E-7
v 0.14772119 0.026047213 -4.5776366E-7
v 0.029544234 0.0052094418 -4.5776366E-7
v 0.62042886 -0.10939844 -4.5776366E-7
v 0.7386058 -0.13023624 -4.5776366E-7
v 0.50225186 -0.088560626 -4.5776366E-7
v 0.38407502 -0.06772284 -4.5776366E-7
v 0.26589808 -0.04688504 -4.5776366E-7
v 0.14772117 -0.02604725 -4.5776366E-7
v 0.02954423 -0.005209449 -4.5776366E-7
v 0.54559594 -0.31500006 -4.5776366E-7
v 0.64951897 -0.37500006 -4.5776366E-7
v 0.4416729 -0.25500003 -4.5776366E-7
v 0.33774987 -0.19500004 -4.5776366E-7
v 0.23382682 -0.13500002 -4.5776366E-7
v 0.12990381 -0.075000025 -4.5776366E-7
v 0.025980758 -0.015000003 -4.5776366E-7
v 0.40495607 -0.48260805 -4.5776366E-7
v 0.4820906 -0.5745334 -4.5776366E-7
v 0.32782158 -0.39068267 -4.5776366E-7
v 0.2506871 -0.29875737 -4.5776366E-7
v 0.1735526 -0.206832 -4.5776366E-7
v 0.09641813 -0.1149067 -4.5776366E-7
v 0.019283623 -0.022981336 -4.5776366E-7
v 0.21547253 -0.5920064 -4.5776366E-7
v 0.25651494 -0.7047695 -4.5776366E-7
v 0.17443013 -0.47924322 -4.5776366E-7
v 0.13338776 -0.36648014 -4.5776366E-7
v 0.09234537 -0.253717 -4.5776366E-7
v 0.051302996 -0.14095391 -4.5776366E-7
v 0.010260597 -0.028190779 -4.5776366E-7
v -1.7774187E-7 -0.63 -4.5776366E-7
v -2.1159748E-7 -0.75 -4.5776366E-7
v -1.4388627E-7 -0.50999993 -4.5776366E-7
v -1.1003068E-7 -0.39 -4.5776366E-7
v -7.6175084E-8 -0.26999998 -4.5776366E-7
v -4.2319503E-8 -0.15000002 -4.5776366E-7
v -8.463899E-9 -0.03 -4.5776366E-7
v -0.21547288 -0.59200627 -4.5776366E-7
v -0.25651532 -0.7047694 -4.5776366E-7
v -0.1744304 -0.47924313 -4.5776366E-7
v -0.13338797 -0.36648005 -4.5776366E-7
v -0.09234551 -0.25371695 -4.5776366E-7
v -0.05130307 -0.14095388 -4.5776366E-7
v -0.010260613 -0.028190775 -4.5776366E-7
v -0.4049563 -0.48260787 -4.5776366E-7
v -0.48209086 -0.57453316 -4.5776366E-7
v -0.32782176 -0.39068252 -4.5776366E-7
v -0.25068724 -0.29875726 -4.5776366E-7
v -0.1735527 -0.20683193 -4.5776366E-7
v -0.09641818 -0.114906654 -4.5776366E-7
v -0.019283634 -0.022981329 -4.5776366E-7
v -0.54559606 -0.31499988 -4.5776366E-7
v -0.6495191 -0.37499985 -4.5776366E-7
v -0.44167295 -0.25499988 -4.5776366E-7
v -0.33774993 -0.19499992 -4.5776366E-7
v -0.23382686 -0.13499995 -4.5776366E-7
v -0.12990384 -0.07499998 -4.5776366E-7
v -0.025980765 -0.014999995 -4.5776366E-7
v -0.6204289 -0.109398276 -4.5776366E-7
v -0.7386058 -0.13023604 -4.5776366E-7
v -0.5022519 -0.0885605 -4.5776366E-7
v -0.38407505 -0.067722745 -4.5776366E-7
v -0.26589808 -0.04688497 -4.5776366E-7
v -0.14772119 -0.026047213 -4.5776366E-7
v -0.029544234 -0.0052094418 -4.5776366E-7
v -0.62042886 0.10939838 -4.5776366E-7
v -0.7386058 0.13023616 -4.5776366E-7
v -0.50225186 0.08856059 -4.5776366E-7
v -0.38407502 0.067722805 -4.5776366E-7
v -0.26589808 0.046885017 -4.5776366E-7
v -0.14772117 0.026047237 -4.5776366E-7
v -0.02954423 0.0052094464 -4.5776366E-7
v -0.545596 0.315 -4.5776366E-7
v -0.649519 0.375 -4.5776366E-7
v -0.4416729 0.25499997 -4.5776366E-7
v -0.3377499 0.195 -4.5776366E-7
v -0.23382685 0.13499999 -4.5776366E-7
v -0.12990382 0.07500001 -4.5776366E-7
v -0.025980761 0.015 -4.5776366E-7
v -0.40495613 0.48260805 -4.5776366E-7
v -0.48209062 0.5745334 -4.5776366E-7
v -0.3278216 0.39068267 -4.5776366E-7
v -0.25068712 0.29875737 -4.5776366E-7
v -0.1735526 0.206832 -4.5776366E-7
v -0.09641814 0.1149067 -4.5776366E-7
v -0.019283626 0.022981336 -4.5776366E-7
v -0.21547264 0.5920064 -4.5776366E-7
v -0.25651503 0.7047695 -4.5776366E-7
v -0.1744302 0.47924322 -4.5776366E-7
v -0.13338782 0.36648014 -4.5776366E-7
v -0.09234541 0.253717 -4.5776366E-7
v -0.051303014 0.14095391 -4.5776366E-7
v -0.010260602 0.028190779 -4.5776366E-7
v -2.7538173E-8 0.63 -4.5776366E-7
v -3.278354E-8 0.75 -4.5776366E-7
v -2.2292806E-8 0.50999993 -4.5776366E-7
v -1.704744E-8 0.39 -4.5776366E-7
v -1.1802074E-8 0.26999998 -4.5776366E-7
v -6.556709E-9 0.15000002 -4.5776366E-7
v -1.3113416E-9 0.03 -4.5776366E-7
vn -0.0 0.0 1.0
vn -0.0 0.0 1.0
vn -0.0 0.0 1.0
vn -0.0 0.0 1.0
vn -0.0 0.0 1.0
vn -0.0 0.0 1.0
vn -0.0 0.0 1.0
vn -0.0 0.0 1.0
vn -0.0 0.0 1.0
vn -0.0 0.0 1.0
vn -0.0 0.0 1.0
vn -0.0 0.0 1.0
vn -0.0 0.0 1.0
vn -0.0 0.0 1.0
vn -0.0 0.0 1.0
vn -0.0 0.0 1.0
vn -0.0 0.0 1.0
vn -0.0 0.0 1.0
vn -0.0 0.0 1.0
vn -0.0 0.0 1.0
vn -0.0 0.0 1.0
vn -0.0 0.0 1.0
vn -0.0 0.0 1.0
vn -0.0 0.0 1.0
vn -0.0 0.0 1.0
vn -0.0 0.0 1.0
vn -0.0 0.0 1.0
vn -0.0 0.0 1.0
vn -0.0 0.0 1.0
vn -0.0 0.0 1.0
vn -0.0 0.0 1.0
vn -0.0 0.0 1.0
vn -0.0 0.0 1.0
vn -0.0 0.0 1.0
vn -0.0 0.0 1.0
vn -0.0 0.0 1.0
vn -0.0 0.0 1.0
vn -0.0 0.0 1.0
vn -0.0 0.0 1.0
vn -0.0 0.0 1.0
vn -0.0 0.0 1.0
vn -0.0 0.0 1.0
vn -0.0 0.0 1.0
vn -0.0 0.0 1.0
vn -0.0 0.0 1.0
vn -0.0 0.0 1.0
vn -0.0 0.0 1.0
vn -0.0 0.0 1.0
vn -0.0 0.0 1.0
vn -0.0 0.0 1.0
vn -0.0 0.0 1.0
vn -0.0 0.0 1.0
vn -0.0 0.0 1.0
vn -0.0 0.0 1.0
vn -0.0 0.0 1.0
vn -0.0 0.0 1.0
vn -0.0 0.0 1.0
vn -0.0 0.0 1.0
vn -0.0 0.0 1.0
vn -0.0 0.0 1.0
vn -0.0 0.0 1.0
vn -0.0 0.0 1.0
vn -0.0 0.0 1.0
vn -0.0 0.0 1.0
vn -0.0 0.0 1.0
vn -0.0 0.0 1.0
vn -0.0 0.0 1.0
vn -0.0 0.0 1.0
vn -0.0 0.0 1.0
vn -0.0 0.0 1.0
vn -0.0 0.0 1.0
vn -0.0 0.0 1.0
vn -0.0 0.0 1.0
vn -0.0 0.0 1.0
vn -0.0 0.0 1.0
vn -0.0 0.0 1.0
vn -0.0 0.0 1.0
vn -0.0 0.0 1.0
vn -0.0 0.0 1.0
vn -0.0 0.0 1.0
vn -0.0 0.0 1.0
vn -0.0 0.0 1.0
vn -0.0 0.0 1.0
vn -0.0 0.0 1.0
vn -0.0 0.0 1.0
vn -0.0 0.0 1.0
vn -0.0 0.0 1.0
vn -0.0 0.0 1.0
vn -0.0 0.0 1.0
vn -0.0 0.0 1.0
vn -0.0 0.0 1.0
vn -0.0 0.0 1.0
vn -0.0 0.0 1.0
vn -0.0 0.0 1.0
vn -0.0 0.0 1.0
vn -0.0 0.0 1.0
vn -0.0 0.0 1.0
vn -0.0 0.0 1.0
vn -0.0 0.0 1.0
vn -0.0 0.0 1.0
vn -0.0 0.0 1.0
vn -0.0 0.0 1.0
vn -0.0 0.0 1.0
vn -0.0 0.0 1.0
vn -0.0 0.0 1.0
vn -0.0 0.0 1.0
vn -0.0 0.0 1.0
vn -0.0 0.0 1.0
vn -0.0 0.0 1.0
vn -0.0 0.0 1.0
vn -0.0 0.0 1.0
vn -0.0 0.0 1.0
vn -0.0 0.0 1.0
vn -0.0 0.0 1.0
vn -0.0 0.0 1.0
vn -0.0 0.0 1.0
vn -0.0 0.0 1.0
vn -0.0 0.0 1.0
vn -0.0 0.0 1.0
vn -0.0 0.0 1.0
vn -0.0 0.0 1.0
vn -0.0 0.0 1.0
vn -0.0 0.0 1.0
vn -0.0 0.0 1.0
vn -0.0 0.0 1.0
vn -0.0 0.0 1.0
vn -0.0 0.0 1.0
vn -0.0 0.0 1.0
vn -0.0 0.0 1.0
vn -0.0 0.0 1.0
vn -0.0 0.0 1.0
vn -0.0 0.0 1.0
vn -0.0 0.0 1.0
vt 0.071428575 1.0
vt 0.071428575 0.9444444
vt 0.14285715 0.9444444
vt 0.14285715 1.0
vt 0.21428572 0.9444444
vt 0.21428572 1.0
vt 0.2857143 0.9444444
vt 0.2857143 1.0
vt 0.35714287 0.9444444
vt 0.35714287 1.0
vt 0.42857143 0.9444444
vt 0.42857143 1.0
vt 0.5 0.9444444
vt 0.5 1.0
vt 0.14285715 0.8888889
vt 0.071428575 0.8888889
vt 0.21428572 0.8888889
vt 0.2857143 0.8888889
vt 0.35714287 0.8888889
vt 0.42857143 0.8888889
vt 0.5 0.8888889
vt 0.14285715 0.8333333
vt 0.071428575 0.8333333
vt 0.21428572 0.8333333
vt 0.2857143 0.8333333
vt 0.35714287 0.8333333
vt 0.42857143 0.8333333
vt 0.5 0.8333333
vt 0.14285715 0.7777778
vt 0.071428575 0.7777778
vt 0.21428572 0.7777778
vt 0.2857143 0.7777778
vt 0.35714287 0.7777778
vt 0.42857143 0.7777778
vt 0.5 0.7777778
vt 0.14285715 0.7222222
vt 0.071428575 0.7222222
vt 0.21428572 0.7222222
vt 0.2857143 0.7222222
vt 0.35714287 0.7222222
vt 0.42857143 0.7222222
vt 0.5 0.7222222
vt 0.14285715 0.6666666
vt 0.071428575 0.6666666
vt 0.21428572 0.6666666
vt 0.2857143 0.6666666
vt 0.35714287 0.6666666
vt 0.42857143 0.6666666
vt 0.5 0.6666666
vt 0.14285715 0.6111111
vt 0.071428575 0.6111111
vt 0.21428572 0.6111111
vt 0.2857143 0.6111111
vt 0.35714287 0.6111111
vt 0.42857143 0.6111111
vt 0.5 0.6111111
vt 0.14285715 0.5555556
vt 0.071428575 0.5555556
vt 0.21428572 0.5555556
vt 0.2857143 0.5555556
vt 0.35714287 0.5555556
vt 0.42857143 0.5555556
vt 0.5 0.5555556
vt 0.14285715 0.5
vt 0.071428575 0.5
vt 0.21428572 0.5
vt 0.2857143 0.5
vt 0.35714287 0.5
vt 0.42857143 0.5
vt 0.5 0.5
vt 0.14285715 0.44444442
vt 0.071428575 0.44444442
vt 0.21428572 0.44444442
vt 0.2857143 0.44444442
vt 0.35714287 0.44444442
vt 0.42857143 0.44444442
vt 0.5 0.44444442
vt 0.14285715 0.3888889
vt 0.071428575 0.3888889
vt 0.21428572 0.3888889
vt 0.2857143 0.3888889
vt 0.35714287 0.3888889
vt 0.42857143 0.3888889
vt 0.5 0.3888889
vt 0.14285715 0.3333333
vt 0.071428575 0.3333333
vt 0.21428572 0.3333333
vt 0.2857143 0.3333333
vt 0.35714287 0.3333333
vt 0.42857143 0.3333333
vt 0.5 0.3333333
vt 0.14285715 0.2777778
vt 0.071428575 0.2777778
vt 0.21428572 0.2777778
vt 0.2857143 0.2777778
vt 0.35714287 0.2777778
vt 0.42857143 0.2777778
vt 0.5 0.2777778
vt 0.14285715 0.22222221
vt 0.071428575 0.22222221
vt 0.21428572 0.22222221
vt 0.2857143 0.22222221
vt 0.35714287 0.22222221
vt 0.42857143 0.22222221
vt 0.5 0.22222221
vt 0.14285715 0.16666669
vt 0.071428575 0.16666669
vt 0.21428572 0.16666669
vt 0.2857143 0.16666669
vt 0.35714287 0.16666669
vt 0.42857143 0.16666669
vt 0.5 0.16666669
vt 0.14285715 0.111111104
vt 0.071428575 0.111111104
vt 0.21428572 0.111111104
vt 0.2857143 0.111111104
vt 0.35714287 0.111111104
vt 0.42857143 0.111111104
vt 0.5 0.111111104
vt 0.14285715 0.055555582
vt 0.071428575 0.055555582
vt 0.21428572 0.055555582
vt 0.2857143 0.055555582
vt 0.35714287 0.055555582
vt 0.42857143 0.055555582
vt 0.5 0.055555582
vt 0.14285715 0.0
vt 0.071428575 0.0
vt 0.21428572 0.0
vt 0.2857143 0.0
vt 0.35714287 0.0
vt 0.42857143 0.0
vt 0.5 0.0

g dimian_UV
s 1
usemtl dimian_UV
f 3/3/3 2/2/2 1/1/1 
f 4/4/4 3/3/3 1/1/1 
f 5/5/5 3/3/3 4/4/4 
f 6/6/6 5/5/5 4/4/4 
f 7/7/7 5/5/5 6/6/6 
f 8/8/8 7/7/7 6/6/6 
f 9/9/9 7/7/7 8/8/8 
f 10/10/10 9/9/9 8/8/8 
f 11/11/11 9/9/9 10/10/10 
f 12/12/12 11/11/11 10/10/10 
f 13/13/13 11/11/11 12/12/12 
f 14/14/14 13/13/13 12/12/12 
f 3/3/3 15/15/15 2/2/2 
f 15/15/15 16/16/16 2/2/2 
f 17/17/17 15/15/15 3/3/3 
f 5/5/5 17/17/17 3/3/3 
f 18/18/18 17/17/17 5/5/5 
f 7/7/7 18/18/18 5/5/5 
f 19/19/19 18/18/18 7/7/7 
f 9/9/9 19/19/19 7/7/7 
f 20/20/20 19/19/19 9/9/9 
f 11/11/11 20/20/20 9/9/9 
f 21/21/21 20/20/20 11/11/11 
f 13/13/13 21/21/21 11/11/11 
f 15/15/15 22/22/22 16/16/16 
f 22/22/22 23/23/23 16/16/16 
f 24/24/24 22/22/22 15/15/15 
f 17/17/17 24/24/24 15/15/15 
f 25/25/25 24/24/24 17/17/17 
f 18/18/18 25/25/25 17/17/17 
f 26/26/26 25/25/25 18/18/18 
f 19/19/19 26/26/26 18/18/18 
f 27/27/27 26/26/26 19/19/19 
f 20/20/20 27/27/27 19/19/19 
f 28/28/28 27/27/27 20/20/20 
f 21/21/21 28/28/28 20/20/20 
f 22/22/22 29/29/29 23/23/23 
f 29/29/29 30/30/30 23/23/23 
f 31/31/31 29/29/29 22/22/22 
f 24/24/24 31/31/31 22/22/22 
f 32/32/32 31/31/31 24/24/24 
f 25/25/25 32/32/32 24/24/24 
f 33/33/33 32/32/32 25/25/25 
f 26/26/26 33/33/33 25/25/25 
f 34/34/34 33/33/33 26/26/26 
f 27/27/27 34/34/34 26/26/26 
f 35/35/35 34/34/34 27/27/27 
f 28/28/28 35/35/35 27/27/27 
f 29/29/29 36/36/36 30/30/30 
f 36/36/36 37/37/37 30/30/30 
f 38/38/38 36/36/36 29/29/29 
f 31/31/31 38/38/38 29/29/29 
f 39/39/39 38/38/38 31/31/31 
f 32/32/32 39/39/39 31/31/31 
f 40/40/40 39/39/39 32/32/32 
f 33/33/33 40/40/40 32/32/32 
f 41/41/41 40/40/40 33/33/33 
f 34/34/34 41/41/41 33/33/33 
f 42/42/42 41/41/41 34/34/34 
f 35/35/35 42/42/42 34/34/34 
f 36/36/36 43/43/43 37/37/37 
f 43/43/43 44/44/44 37/37/37 
f 45/45/45 43/43/43 36/36/36 
f 38/38/38 45/45/45 36/36/36 
f 46/46/46 45/45/45 38/38/38 
f 39/39/39 46/46/46 38/38/38 
f 47/47/47 46/46/46 39/39/39 
f 40/40/40 47/47/47 39/39/39 
f 48/48/48 47/47/47 40/40/40 
f 41/41/41 48/48/48 40/40/40 
f 49/49/49 48/48/48 41/41/41 
f 42/42/42 49/49/49 41/41/41 
f 43/43/43 50/50/50 44/44/44 
f 50/50/50 51/51/51 44/44/44 
f 52/52/52 50/50/50 43/43/43 
f 45/45/45 52/52/52 43/43/43 
f 53/53/53 52/52/52 45/45/45 
f 46/46/46 53/53/53 45/45/45 
f 54/54/54 53/53/53 46/46/46 
f 47/47/47 54/54/54 46/46/46 
f 55/55/55 54/54/54 47/47/47 
f 48/48/48 55/55/55 47/47/47 
f 56/56/56 55/55/55 48/48/48 
f 49/49/49 56/56/56 48/48/48 
f 50/50/50 57/57/57 51/51/51 
f 57/57/57 58/58/58 51/51/51 
f 59/59/59 57/57/57 50/50/50 
f 52/52/52 59/59/59 50/50/50 
f 60/60/60 59/59/59 52/52/52 
f 53/53/53 60/60/60 52/52/52 
f 61/61/61 60/60/60 53/53/53 
f 54/54/54 61/61/61 53/53/53 
f 62/62/62 61/61/61 54/54/54 
f 55/55/55 62/62/62 54/54/54 
f 63/63/63 62/62/62 55/55/55 
f 56/56/56 63/63/63 55/55/55 
f 57/57/57 64/64/64 58/58/58 
f 64/64/64 65/65/65 58/58/58 
f 66/66/66 64/64/64 57/57/57 
f 59/59/59 66/66/66 57/57/57 
f 67/67/67 66/66/66 59/59/59 
f 60/60/60 67/67/67 59/59/59 
f 68/68/68 67/67/67 60/60/60 
f 61/61/61 68/68/68 60/60/60 
f 69/69/69 68/68/68 61/61/61 
f 62/62/62 69/69/69 61/61/61 
f 70/70/70 69/69/69 62/62/62 
f 63/63/63 70/70/70 62/62/62 
f 64/64/64 71/71/71 65/65/65 
f 71/71/71 72/72/72 65/65/65 
f 73/73/73 71/71/71 64/64/64 
f 66/66/66 73/73/73 64/64/64 
f 74/74/74 73/73/73 66/66/66 
f 67/67/67 74/74/74 66/66/66 
f 75/75/75 74/74/74 67/67/67 
f 68/68/68 75/75/75 67/67/67 
f 76/76/76 75/75/75 68/68/68 
f 69/69/69 76/76/76 68/68/68 
f 77/77/77 76/76/76 69/69/69 
f 70/70/70 77/77/77 69/69/69 
f 71/71/71 78/78/78 72/72/72 
f 78/78/78 79/79/79 72/72/72 
f 80/80/80 78/78/78 71/71/71 
f 73/73/73 80/80/80 71/71/71 
f 81/81/81 80/80/80 73/73/73 
f 74/74/74 81/81/81 73/73/73 
f 82/82/82 81/81/81 74/74/74 
f 75/75/75 82/82/82 74/74/74 
f 83/83/83 82/82/82 75/75/75 
f 76/76/76 83/83/83 75/75/75 
f 84/84/84 83/83/83 76/76/76 
f 77/77/77 84/84/84 76/76/76 
f 78/78/78 85/85/85 79/79/79 
f 85/85/85 86/86/86 79/79/79 
f 87/87/87 85/85/85 78/78/78 
f 80/80/80 87/87/87 78/78/78 
f 88/88/88 87/87/87 80/80/80 
f 81/81/81 88/88/88 80/80/80 
f 89/89/89 88/88/88 81/81/81 
f 82/82/82 89/89/89 81/81/81 
f 90/90/90 89/89/89 82/82/82 
f 83/83/83 90/90/90 82/82/82 
f 91/91/91 90/90/90 83/83/83 
f 84/84/84 91/91/91 83/83/83 
f 85/85/85 92/92/92 86/86/86 
f 92/92/92 93/93/93 86/86/86 
f 94/94/94 92/92/92 85/85/85 
f 87/87/87 94/94/94 85/85/85 
f 95/95/95 94/94/94 87/87/87 
f 88/88/88 95/95/95 87/87/87 
f 96/96/96 95/95/95 88/88/88 
f 89/89/89 96/96/96 88/88/88 
f 97/97/97 96/96/96 89/89/89 
f 90/90/90 97/97/97 89/89/89 
f 98/98/98 97/97/97 90/90/90 
f 91/91/91 98/98/98 90/90/90 
f 92/92/92 99/99/99 93/93/93 
f 99/99/99 100/100/100 93/93/93 
f 101/101/101 99/99/99 92/92/92 
f 94/94/94 101/101/101 92/92/92 
f 102/102/102 101/101/101 94/94/94 
f 95/95/95 102/102/102 94/94/94 
f 103/103/103 102/102/102 95/95/95 
f 96/96/96 103/103/103 95/95/95 
f 104/104/104 103/103/103 96/96/96 
f 97/97/97 104/104/104 96/96/96 
f 105/105/105 104/104/104 97/97/97 
f 98/98/98 105/105/105 97/97/97 
f 99/99/99 106/106/106 100/100/100 
f 106/106/106 107/107/107 100/100/100 
f 108/108/108 106/106/106 99/99/99 
f 101/101/101 108/108/108 99/99/99 
f 109/109/109 108/108/108 101/101/101 
f 102/102/102 109/109/109 101/101/101 
f 110/110/110 109/109/109 102/102/102 
f 103/103/103 110/110/110 102/102/102 
f 111/111/111 110/110/110 103/103/103 
f 104/104/104 111/111/111 103/103/103 
f 112/112/112 111/111/111 104/104/104 
f 105/105/105 112/112/112 104/104/104 
f 106/106/106 113/113/113 107/107/107 
f 113/113/113 114/114/114 107/107/107 
f 115/115/115 113/113/113 106/106/106 
f 108/108/108 115/115/115 106/106/106 
f 116/116/116 115/115/115 108/108/108 
f 109/109/109 116/116/116 108/108/108 
f 117/117/117 116/116/116 109/109/109 
f 110/110/110 117/117/117 109/109/109 
f 118/118/118 117/117/117 110/110/110 
f 111/111/111 118/118/118 110/110/110 
f 119/119/119 118/118/118 111/111/111 
f 112/112/112 119/119/119 111/111/111 
f 113/113/113 120/120/120 114/114/114 
f 120/120/120 121/121/121 114/114/114 
f 122/122/122 120/120/120 113/113/113 
f 115/115/115 122/122/122 113/113/113 
f 123/123/123 122/122/122 115/115/115 
f 116/116/116 123/123/123 115/115/115 
f 124/124/124 123/123/123 116/116/116 
f 117/117/117 124/124/124 116/116/116 
f 125/125/125 124/124/124 117/117/117 
f 118/118/118 125/125/125 117/117/117 
f 126/126/126 125/125/125 118/118/118 
f 119/119/119 126/126/126 118/118/118 
f 120/120/120 127/127/127 121/121/121 
f 127/127/127 128/128/128 121/121/121 
f 129/129/129 127/127/127 120/120/120 
f 122/122/122 129/129/129 120/120/120 
f 130/130/130 129/129/129 122/122/122 
f 123/123/123 130/130/130 122/122/122 
f 131/131/131 130/130/130 123/123/123 
f 124/124/124 131/131/131 123/123/123 
f 132/132/132 131/131/131 124/124/124 
f 125/125/125 132/132/132 124/124/124 
f 133/133/133 132/132/132 125/125/125 
f 126/126/126 133/133/133 125/125/125 

