# Created by DisUnity v0.3.4
v 0.10613272 -0.15501323 5.9052296E-10
v 0.10615527 -0.20501323 -5.9052296E-10
v 0.13003245 -0.15499984 3.9833464E-10
v 0.13032402 -0.204999 -3.9833464E-10
v 0.08116204 -0.20502217 -5.9052296E-10
v 0.0811484 -0.15502217 5.9052296E-10
v 0.055310797 -0.20502725 -5.9052296E-10
v 0.055304445 -0.15502726 5.9052296E-10
v 0.028713841 -0.20502898 -5.9052296E-10
v 0.028713416 -0.15502898 5.9052296E-10
v 0.0014835112 -0.20502788 -5.9052296E-10
v 0.0014878256 -0.15502788 5.9052296E-10
v -0.026268074 -0.20502442 -5.9052296E-10
v -0.026260091 -0.15502442 5.9052296E-10
v -0.054428533 -0.2050191 -5.9052296E-10
v -0.05441784 -0.1550191 5.9052296E-10
v -0.082885556 -0.20501249 -5.9052296E-10
v -0.08287307 -0.15501249 5.9052296E-10
v -0.11152674 -0.205005 -5.9052296E-10
v -0.111513294 -0.15500501 5.9052296E-10
v -0.1448591 -0.20315848 -1.2395481E-9
v -0.13293673 -0.15460071 1.2395481E-9
v -0.17930095 -0.18417054 -1.239548E-9
v -0.14546165 -0.14736158 1.239548E-9
v -0.20137054 -0.15114821 -1.2395481E-9
v -0.15409872 -0.1348579 1.2395481E-9
v -0.20498721 -0.11790454 -1.4319523E-9
v -0.15498725 -0.117950924 1.4319523E-9
v -0.20496969 -0.09287488 -1.4319523E-9
v -0.15496969 -0.092899844 1.4319523E-9
v -0.20496112 -0.06684734 -1.4319523E-9
v -0.15496112 -0.06685614 1.4319523E-9
v -0.20495975 -0.040024303 -1.4319523E-9
v -0.15495975 -0.040021326 1.4319523E-9
v -0.20496376 -0.012608328 -1.4319523E-9
v -0.15496376 -0.012597372 1.4319523E-9
v -0.20497127 0.015198499 -1.4319523E-9
v -0.15497127 0.0152140055 1.4319523E-9
v -0.20498046 0.04319385 -1.4319523E-9
v -0.15498047 0.0432107 1.4319523E-9
v -0.20498954 0.07117563 -1.4319523E-9
v -0.15498954 0.07119066 1.4319523E-9
v -0.20499665 0.098941684 -1.4319523E-9
v -0.15499663 0.09895166 1.4319523E-9
v -0.20499994 0.12629022 -1.4319523E-9
v -0.15499994 0.12629168 1.4319523E-9
v -0.19590259 0.16339105 -2.0809772E-9
v -0.15215723 0.13917652 2.0809772E-9
v -0.16954614 0.19224556 -2.0809772E-9
v -0.14145388 0.15088344 2.0809772E-9
v -0.13001907 0.205 1.0927848E-9
v -0.12998092 0.155 -1.0927848E-9
v -0.105019756 0.20501634 1.0927848E-9
v -0.104993895 0.15501635 -1.0927848E-9
v -0.07936905 0.20502734 1.0927848E-9
v -0.07935357 0.15502734 -1.0927848E-9
v -0.05314235 0.20503359 1.0927848E-9
v -0.05313557 0.15503359 -1.0927848E-9
v -0.02641509 0.2050357 1.0927848E-9
v -0.026415529 0.1550357 -1.0927848E-9
v 7.372638E-4 0.20503429 1.0927848E-9
v 7.3097734E-4 0.15503429 -1.0927848E-9
v 0.028239213 0.20503002 1.0927848E-9
v 0.028228333 0.15503001 -1.0927848E-9
v 0.056015257 0.20502347 1.0927848E-9
v 0.05600097 0.15502347 -1.0927848E-9
v 0.083989926 0.20501529 1.0927848E-9
v 0.08397335 0.15501529 -1.0927848E-9
v 0.11208767 0.2050061 1.0927848E-9
v 0.11206989 0.1550061 -1.0927848E-9
v 0.1448213 0.20322208 4.4375964E-10
v 0.13325344 0.15457864 -4.4375964E-10
v 0.17916948 0.18475185 4.4375964E-10
v 0.14565781 0.14764434 -4.4375964E-10
v 0.20138891 0.15153344 4.4375964E-10
v 0.15403238 0.13549101 -4.4375964E-10
v 0.2050028 0.11746121 2.5069033E-10
v 0.1550028 0.117448986 -2.5069033E-10
v 0.20500715 0.09179056 2.5069033E-10
v 0.15500715 0.09178379 -2.5069033E-10
v 0.20500988 0.06563323 2.5069033E-10
v 0.15500988 0.06562946 -2.5069033E-10
v 0.20501119 0.039048187 2.5069033E-10
v 0.15501119 0.039046936 -2.5069033E-10
v 0.2050113 0.012095336 2.5069033E-10
v 0.15501128 0.01209616 -2.5069033E-10
v 0.20501037 -0.015165453 2.5069033E-10
v 0.15501037 -0.015162951 -2.5069033E-10
v 0.20500861 -0.042674176 2.5069033E-10
v 0.15500861 -0.042670384 -2.5069033E-10
v 0.20500627 -0.07037095 2.5069033E-10
v 0.15500627 -0.070366226 -2.5069033E-10
v 0.20500344 -0.098195806 2.5069033E-10
v 0.15500344 -0.09819052 -2.5069033E-10
v 0.20500043 -0.1260889 2.5069033E-10
v 0.15500043 -0.12608339 -2.5069033E-10
v 0.19551641 -0.16367191 -3.9833464E-10
v 0.15209253 -0.13888551 3.9833464E-10
v 0.16890202 -0.19232382 -3.9833464E-10
v 0.14089987 -0.15090066 3.9833464E-10
v 0.12987252 -0.20500009 -5.9052296E-10
v 0.12983924 -0.15500009 5.9052296E-10
vn -0.0 0.0 -1.0
vn -0.0 0.0 -1.0
vn -0.0 0.0 -1.0
vn -0.0 0.0 -1.0
vn -0.0 0.0 -1.0
vn -0.0 0.0 -1.0
vn -0.0 0.0 -1.0
vn -0.0 0.0 -1.0
vn -0.0 0.0 -1.0
vn -0.0 0.0 -1.0
vn -0.0 0.0 -1.0
vn -0.0 0.0 -1.0
vn -0.0 0.0 -1.0
vn -0.0 0.0 -1.0
vn -0.0 0.0 -1.0
vn -0.0 0.0 -1.0
vn -0.0 0.0 -1.0
vn -0.0 0.0 -1.0
vn -0.0 0.0 -1.0
vn -0.0 0.0 -1.0
vn -0.0 0.0 -1.0
vn -0.0 0.0 -1.0
vn -0.0 0.0 -1.0
vn -0.0 0.0 -1.0
vn -0.0 0.0 -1.0
vn -0.0 0.0 -1.0
vn -0.0 0.0 -1.0
vn -0.0 0.0 -1.0
vn -0.0 0.0 -1.0
vn -0.0 0.0 -1.0
vn -0.0 0.0 -1.0
vn -0.0 0.0 -1.0
vn -0.0 0.0 -1.0
vn -0.0 0.0 -1.0
vn -0.0 0.0 -1.0
vn -0.0 0.0 -1.0
vn -0.0 0.0 -1.0
vn -0.0 0.0 -1.0
vn -0.0 0.0 -1.0
vn -0.0 0.0 -1.0
vn -0.0 0.0 -1.0
vn -0.0 0.0 -1.0
vn -0.0 0.0 -1.0
vn -0.0 0.0 -1.0
vn -0.0 0.0 -1.0
vn -0.0 0.0 -1.0
vn -0.0 0.0 -1.0
vn -0.0 0.0 -1.0
vn -0.0 0.0 -1.0
vn -0.0 0.0 -1.0
vn -0.0 0.0 -1.0
vn -1.6053541E-7 0.0 -1.0
vn -0.0 0.0 -1.0
vn -0.0 0.0 -1.0
vn -0.0 0.0 -1.0
vn -0.0 0.0 -1.0
vn -0.0 0.0 -1.0
vn -0.0 0.0 -1.0
vn -0.0 0.0 -1.0
vn -0.0 0.0 -1.0
vn -0.0 0.0 -1.0
vn -0.0 0.0 -1.0
vn -0.0 0.0 -1.0
vn -0.0 0.0 -1.0
vn -0.0 0.0 -1.0
vn -0.0 0.0 -1.0
vn -0.0 0.0 -1.0
vn -0.0 0.0 -1.0
vn -0.0 0.0 -1.0
vn -0.0 0.0 -1.0
vn -0.0 0.0 -1.0
vn -0.0 0.0 -1.0
vn -0.0 0.0 -1.0
vn -0.0 0.0 -1.0
vn -0.0 0.0 -1.0
vn -0.0 0.0 -1.0
vn -0.0 0.0 -1.0
vn -0.0 0.0 -1.0
vn -0.0 0.0 -1.0
vn -0.0 0.0 -1.0
vn -0.0 0.0 -1.0
vn -0.0 0.0 -1.0
vn -0.0 0.0 -1.0
vn -0.0 0.0 -1.0
vn -0.0 0.0 -1.0
vn -0.0 0.0 -1.0
vn -0.0 0.0 -1.0
vn -0.0 0.0 -1.0
vn -0.0 0.0 -1.0
vn -0.0 0.0 -1.0
vn -0.0 0.0 -1.0
vn -0.0 0.0 -1.0
vn -0.0 0.0 -1.0
vn -0.0 0.0 -1.0
vn -0.0 0.0 -1.0
vn -0.0 0.0 -1.0
vn -0.0 0.0 -1.0
vn -0.0 0.0 -1.0
vn -0.0 0.0 -1.0
vn -0.0 0.0 -1.0
vn -0.0 0.0 -1.0
vn -0.0 0.0 -1.0
vt 0.0 0.98
vt 1.0 0.98
vt 0.0 1.0
vt 1.0 1.0
vt 1.0 0.96
vt 0.0 0.96
vt 1.0 0.94
vt 0.0 0.94
vt 1.0 0.92
vt 0.0 0.92
vt 1.0 0.9
vt 0.0 0.9
vt 1.0 0.88
vt 0.0 0.88
vt 1.0 0.86
vt 0.0 0.86
vt 1.0 0.84000003
vt 0.0 0.84000003
vt 1.0 0.82000005
vt 0.0 0.82000005
vt 1.0 0.8
vt 0.0 0.8
vt 1.0 0.78000003
vt 0.0 0.78000003
vt 1.0 0.76000005
vt 0.0 0.76000005
vt 1.0 0.74
vt 0.0 0.74
vt 1.0 0.72
vt 0.0 0.72
vt 1.0 0.70000005
vt 0.0 0.70000005
vt 1.0 0.68
vt 0.0 0.68
vt 1.0 0.65999997
vt 0.0 0.65999997
vt 1.0 0.64
vt 0.0 0.64
vt 1.0 0.62
vt 0.0 0.62
vt 1.0 0.59999996
vt 0.0 0.59999996
vt 1.0 0.5799999
vt 0.0 0.5799999
vt 1.0 0.55999994
vt 0.0 0.55999994
vt 1.0 0.53999996
vt 0.0 0.53999996
vt 1.0 0.5199999
vt 0.0 0.5199999
vt 1.0 0.49999994
vt 0.0 0.49999994
vt 1.0 0.47999996
vt 0.0 0.47999996
vt 1.0 0.45999998
vt 0.0 0.45999998
vt 1.0 0.44
vt 0.0 0.44
vt 1.0 0.42000002
vt 0.0 0.42000002
vt 1.0 0.40000004
vt 0.0 0.40000004
vt 1.0 0.38000005
vt 0.0 0.38000005
vt 1.0 0.36000007
vt 0.0 0.36000007
vt 1.0 0.3400001
vt 0.0 0.3400001
vt 1.0 0.3200001
vt 0.0 0.3200001
vt 1.0 0.30000013
vt 0.0 0.30000013
vt 1.0 0.28000015
vt 0.0 0.28000015
vt 1.0 0.26000017
vt 0.0 0.26000017
vt 1.0 0.24000019
vt 0.0 0.24000019
vt 1.0 0.2200002
vt 0.0 0.2200002
vt 1.0 0.20000023
vt 0.0 0.20000023
vt 1.0 0.18000025
vt 0.0 0.18000025
vt 1.0 0.16000026
vt 0.0 0.16000026
vt 1.0 0.14000028
vt 0.0 0.14000028
vt 1.0 0.1200003
vt 0.0 0.1200003
vt 1.0 0.10000032
vt 0.0 0.10000032
vt 1.0 0.08000034
vt 0.0 0.08000034
vt 1.0 0.06000036
vt 0.0 0.06000036
vt 1.0 0.04000038
vt 0.0 0.04000038
vt 1.0 0.020000398
vt 0.0 0.020000398
vt 1.0 4.172325E-7
vt 0.0 4.172325E-7

g fangkuai_1
s 1
usemtl fangkuai_1
f 3/3/3 2/2/2 1/1/1 
f 2/2/2 3/3/3 4/4/4 
f 5/5/5 1/1/1 2/2/2 
f 1/1/1 5/5/5 6/6/6 
f 7/7/7 6/6/6 5/5/5 
f 6/6/6 7/7/7 8/8/8 
f 9/9/9 8/8/8 7/7/7 
f 8/8/8 9/9/9 10/10/10 
f 11/11/11 10/10/10 9/9/9 
f 10/10/10 11/11/11 12/12/12 
f 13/13/13 12/12/12 11/11/11 
f 12/12/12 13/13/13 14/14/14 
f 15/15/15 14/14/14 13/13/13 
f 14/14/14 15/15/15 16/16/16 
f 17/17/17 16/16/16 15/15/15 
f 16/16/16 17/17/17 18/18/18 
f 19/19/19 18/18/18 17/17/17 
f 18/18/18 19/19/19 20/20/20 
f 21/21/21 20/20/20 19/19/19 
f 20/20/20 21/21/21 22/22/22 
f 23/23/23 22/22/22 21/21/21 
f 22/22/22 23/23/23 24/24/24 
f 25/25/25 24/24/24 23/23/23 
f 24/24/24 25/25/25 26/26/26 
f 27/27/27 26/26/26 25/25/25 
f 26/26/26 27/27/27 28/28/28 
f 29/29/29 28/28/28 27/27/27 
f 28/28/28 29/29/29 30/30/30 
f 31/31/31 30/30/30 29/29/29 
f 30/30/30 31/31/31 32/32/32 
f 33/33/33 32/32/32 31/31/31 
f 32/32/32 33/33/33 34/34/34 
f 35/35/35 34/34/34 33/33/33 
f 34/34/34 35/35/35 36/36/36 
f 37/37/37 36/36/36 35/35/35 
f 36/36/36 37/37/37 38/38/38 
f 39/39/39 38/38/38 37/37/37 
f 38/38/38 39/39/39 40/40/40 
f 41/41/41 40/40/40 39/39/39 
f 40/40/40 41/41/41 42/42/42 
f 43/43/43 42/42/42 41/41/41 
f 42/42/42 43/43/43 44/44/44 
f 45/45/45 44/44/44 43/43/43 
f 44/44/44 45/45/45 46/46/46 
f 47/47/47 46/46/46 45/45/45 
f 46/46/46 47/47/47 48/48/48 
f 49/49/49 48/48/48 47/47/47 
f 48/48/48 49/49/49 50/50/50 
f 51/51/51 50/50/50 49/49/49 
f 50/50/50 51/51/51 52/52/52 
f 53/53/53 52/52/52 51/51/51 
f 52/52/52 53/53/53 54/54/54 
f 55/55/55 54/54/54 53/53/53 
f 54/54/54 55/55/55 56/56/56 
f 57/57/57 56/56/56 55/55/55 
f 56/56/56 57/57/57 58/58/58 
f 59/59/59 58/58/58 57/57/57 
f 58/58/58 59/59/59 60/60/60 
f 61/61/61 60/60/60 59/59/59 
f 60/60/60 61/61/61 62/62/62 
f 63/63/63 62/62/62 61/61/61 
f 62/62/62 63/63/63 64/64/64 
f 65/65/65 64/64/64 63/63/63 
f 64/64/64 65/65/65 66/66/66 
f 67/67/67 66/66/66 65/65/65 
f 66/66/66 67/67/67 68/68/68 
f 69/69/69 68/68/68 67/67/67 
f 68/68/68 69/69/69 70/70/70 
f 71/71/71 70/70/70 69/69/69 
f 70/70/70 71/71/71 72/72/72 
f 73/73/73 72/72/72 71/71/71 
f 72/72/72 73/73/73 74/74/74 
f 75/75/75 74/74/74 73/73/73 
f 74/74/74 75/75/75 76/76/76 
f 77/77/77 76/76/76 75/75/75 
f 76/76/76 77/77/77 78/78/78 
f 79/79/79 78/78/78 77/77/77 
f 78/78/78 79/79/79 80/80/80 
f 81/81/81 80/80/80 79/79/79 
f 80/80/80 81/81/81 82/82/82 
f 83/83/83 82/82/82 81/81/81 
f 82/82/82 83/83/83 84/84/84 
f 85/85/85 84/84/84 83/83/83 
f 84/84/84 85/85/85 86/86/86 
f 87/87/87 86/86/86 85/85/85 
f 86/86/86 87/87/87 88/88/88 
f 89/89/89 88/88/88 87/87/87 
f 88/88/88 89/89/89 90/90/90 
f 91/91/91 90/90/90 89/89/89 
f 90/90/90 91/91/91 92/92/92 
f 93/93/93 92/92/92 91/91/91 
f 92/92/92 93/93/93 94/94/94 
f 95/95/95 94/94/94 93/93/93 
f 94/94/94 95/95/95 96/96/96 
f 97/97/97 96/96/96 95/95/95 
f 96/96/96 97/97/97 98/98/98 
f 99/99/99 98/98/98 97/97/97 
f 98/98/98 99/99/99 100/100/100 
f 101/101/101 100/100/100 99/99/99 
f 100/100/100 101/101/101 102/102/102 

