# Created by DisUnity v0.3.4
v -0.2660753 0.155 -1.0927848E-9
v -0.2660753 0.205 1.0927848E-9
v -0.29997164 0.155 -1.0927848E-9
v -0.29997164 0.205 1.0927848E-9
v -0.23217897 0.205 1.0927848E-9
v -0.23217897 0.155 -1.0927848E-9
v -0.19828266 0.20500001 1.0927848E-9
v -0.19828266 0.15500002 -1.0927848E-9
v -0.16438629 0.205 1.0927848E-9
v -0.16438629 0.155 -1.0927848E-9
v -0.13048998 0.205 1.0927848E-9
v -0.13048998 0.155 -1.0927848E-9
v -0.0965936 0.20499998 1.0927848E-9
v -0.0965936 0.15499997 -1.0927848E-9
v -0.06269736 0.20499998 1.0927848E-9
v -0.06269736 0.15499997 -1.0927848E-9
v -0.028801024 0.205 1.0927848E-9
v -0.028801024 0.155 -1.0927848E-9
v 0.005095339 0.205 1.0927848E-9
v 0.005095339 0.155 -1.0927848E-9
v 0.03899167 0.205 1.0927848E-9
v 0.03899167 0.155 -1.0927848E-9
v 0.072887994 0.205 1.0927848E-9
v 0.072887994 0.155 -1.0927848E-9
v 0.10678432 0.205 1.0927848E-9
v 0.10678432 0.155 -1.0927848E-9
v 0.14068069 0.205 1.0927848E-9
v 0.14068069 0.155 -1.0927848E-9
v 0.17457703 0.205 1.0927848E-9
v 0.17457703 0.155 -1.0927848E-9
v 0.20847335 0.205 1.0927848E-9
v 0.20847335 0.155 -1.0927848E-9
v 0.24236973 0.205 1.0927848E-9
v 0.24236973 0.155 -1.0927848E-9
v 0.27626598 0.205 1.0927848E-9
v 0.27626598 0.155 -1.0927848E-9
v 0.31561896 0.20336348 1.0927848E-9
v 0.30522582 0.15445559 -1.0927848E-9
v 0.35778448 0.1777936 1.0927848E-9
v 0.319271 0.1459077 -1.0927848E-9
v 0.37499586 0.13079204 1.0927848E-9
v 0.32499862 0.13027032 -1.0927848E-9
v 0.37499994 0.09660786 1.0927848E-9
v 0.32499996 0.09660786 -1.0927848E-9
v 0.375 0.06271147 1.0927848E-9
v 0.325 0.06271147 -1.0927848E-9
v 0.37499994 0.028815188 1.0927848E-9
v 0.32499996 0.028815188 -1.0927848E-9
v 0.375 -0.005081147 1.0927848E-9
v 0.325 -0.005081147 -1.0927848E-9
v 0.375 -0.038977478 1.0927848E-9
v 0.325 -0.038977478 -1.0927848E-9
v 0.375 -0.072873816 1.0927848E-9
v 0.325 -0.072873816 -1.0927848E-9
v 0.375 -0.10677015 1.0927848E-9
v 0.325 -0.10677015 -1.0927848E-9
v 0.37319985 -0.14637 1.0927848E-9
v 0.32440156 -0.13547367 -1.0927848E-9
v 0.3472218 -0.18825321 1.0927848E-9
v 0.31571543 -0.14942864 -1.0927848E-9
v 0.29999593 -0.205 1.0927848E-9
v 0.3000041 -0.155 -1.0927848E-9
v 0.2661037 -0.20500001 1.0927848E-9
v 0.2661037 -0.15500002 -1.0927848E-9
v 0.2322074 -0.205 1.0927848E-9
v 0.2322074 -0.155 -1.0927848E-9
v 0.19831102 -0.205 1.0927848E-9
v 0.19831102 -0.155 -1.0927848E-9
v 0.16441475 -0.20499998 1.0927848E-9
v 0.16441475 -0.15499997 -1.0927848E-9
v 0.13051833 -0.205 1.0927848E-9
v 0.13051833 -0.155 -1.0927848E-9
v 0.09662207 -0.205 1.0927848E-9
v 0.09662207 -0.155 -1.0927848E-9
v 0.06272568 -0.20499995 1.0927848E-9
v 0.06272568 -0.15499996 -1.0927848E-9
v 0.028829422 -0.205 1.0927848E-9
v 0.028829422 -0.155 -1.0927848E-9
v -0.0050669694 -0.205 1.0927848E-9
v -0.0050669694 -0.155 -1.0927848E-9
v -0.03896327 -0.205 1.0927848E-9
v -0.03896327 -0.155 -1.0927848E-9
v -0.07285966 -0.205 1.0927848E-9
v -0.07285966 -0.155 -1.0927848E-9
v -0.106755935 -0.205 1.0927848E-9
v -0.106755935 -0.155 -1.0927848E-9
v -0.14065234 -0.20500001 1.0927848E-9
v -0.14065234 -0.15500002 -1.0927848E-9
v -0.17454858 -0.205 1.0927848E-9
v -0.17454858 -0.155 -1.0927848E-9
v -0.208445 -0.205 1.0927848E-9
v -0.208445 -0.155 -1.0927848E-9
v -0.24234128 -0.205 1.0927848E-9
v -0.24234128 -0.155 -1.0927848E-9
v -0.2762377 -0.205 1.0927848E-9
v -0.2762377 -0.155 -1.0927848E-9
v -0.31557652 -0.20337248 1.0927848E-9
v -0.3052118 -0.15445855 -1.0927848E-9
v -0.35775805 -0.17782559 1.0927848E-9
v -0.31926212 -0.14591847 -1.0927848E-9
v -0.37499538 -0.13083644 1.0927848E-9
v -0.32499844 -0.13028546 -1.0927848E-9
v -0.37499994 -0.096636154 1.0927848E-9
v -0.32499996 -0.096636154 -1.0927848E-9
v -0.37499994 -0.06273988 1.0927848E-9
v -0.32499996 -0.06273988 -1.0927848E-9
v -0.37499994 -0.02884361 1.0927848E-9
v -0.32499996 -0.02884361 -1.0927848E-9
v -0.375 0.0050527677 1.0927848E-9
v -0.325 0.0050527677 -1.0927848E-9
v -0.375 0.038949158 1.0927848E-9
v -0.325 0.038949158 -1.0927848E-9
v -0.375 0.07284543 1.0927848E-9
v -0.325 0.07284543 -1.0927848E-9
v -0.375 0.106741704 1.0927848E-9
v -0.325 0.106741704 -1.0927848E-9
v -0.3732092 0.14632773 1.0927848E-9
v -0.32440466 0.13545975 -1.0927848E-9
v -0.347254 0.18822706 1.0927848E-9
v -0.31572625 0.14941984 -1.0927848E-9
v -0.30004507 0.20499998 1.0927848E-9
v -0.30001464 0.15499997 -1.0927848E-9
vn -0.0 0.0 -1.0
vn -0.0 0.0 -1.0
vn -0.0 0.0 -1.0
vn -0.0 0.0 -1.0
vn -0.0 0.0 -1.0
vn -0.0 0.0 -1.0
vn -0.0 0.0 -1.0
vn -0.0 0.0 -1.0
vn -0.0 0.0 -1.0
vn -0.0 0.0 -1.0
vn -0.0 0.0 -1.0
vn -0.0 0.0 -1.0
vn -0.0 0.0 -1.0
vn -0.0 0.0 -1.0
vn -0.0 0.0 -1.0
vn -0.0 0.0 -1.0
vn -0.0 0.0 -1.0
vn -0.0 0.0 -1.0
vn -0.0 0.0 -1.0
vn -0.0 0.0 -1.0
vn -0.0 0.0 -1.0
vn -0.0 0.0 -1.0
vn -0.0 0.0 -1.0
vn -0.0 0.0 -1.0
vn -0.0 0.0 -1.0
vn -0.0 0.0 -1.0
vn -0.0 0.0 -1.0
vn -0.0 0.0 -1.0
vn -0.0 0.0 -1.0
vn -0.0 0.0 -1.0
vn -0.0 0.0 -1.0
vn -0.0 0.0 -1.0
vn -0.0 0.0 -1.0
vn -0.0 0.0 -1.0
vn -0.0 0.0 -1.0
vn -0.0 0.0 -1.0
vn -0.0 0.0 -1.0
vn -0.0 0.0 -1.0
vn -0.0 0.0 -1.0
vn -0.0 0.0 -1.0
vn -0.0 0.0 -1.0
vn -0.0 0.0 -1.0
vn -0.0 0.0 -1.0
vn -0.0 0.0 -1.0
vn -0.0 0.0 -1.0
vn -0.0 0.0 -1.0
vn -0.0 0.0 -1.0
vn -0.0 0.0 -1.0
vn -0.0 0.0 -1.0
vn -0.0 0.0 -1.0
vn -0.0 0.0 -1.0
vn -0.0 0.0 -1.0
vn -0.0 0.0 -1.0
vn -0.0 0.0 -1.0
vn -0.0 0.0 -1.0
vn -0.0 0.0 -1.0
vn -0.0 0.0 -1.0
vn -0.0 0.0 -1.0
vn -0.0 0.0 -1.0
vn -0.0 0.0 -1.0
vn -0.0 0.0 -1.0
vn -0.0 0.0 -1.0
vn -0.0 0.0 -1.0
vn -0.0 0.0 -1.0
vn -0.0 0.0 -1.0
vn -0.0 0.0 -1.0
vn -0.0 0.0 -1.0
vn -0.0 0.0 -1.0
vn -0.0 0.0 -1.0
vn -0.0 0.0 -1.0
vn -0.0 0.0 -1.0
vn -0.0 0.0 -1.0
vn -0.0 0.0 -1.0
vn -0.0 0.0 -1.0
vn -0.0 0.0 -1.0
vn -0.0 0.0 -1.0
vn -0.0 0.0 -1.0
vn -0.0 0.0 -1.0
vn -0.0 0.0 -1.0
vn -0.0 0.0 -1.0
vn -0.0 0.0 -1.0
vn -0.0 0.0 -1.0
vn -0.0 0.0 -1.0
vn -0.0 0.0 -1.0
vn -0.0 0.0 -1.0
vn -0.0 0.0 -1.0
vn -0.0 0.0 -1.0
vn -0.0 0.0 -1.0
vn -0.0 0.0 -1.0
vn -0.0 0.0 -1.0
vn -0.0 0.0 -1.0
vn -0.0 0.0 -1.0
vn -0.0 0.0 -1.0
vn -0.0 0.0 -1.0
vn -0.0 0.0 -1.0
vn -0.0 0.0 -1.0
vn -0.0 0.0 -1.0
vn -0.0 0.0 -1.0
vn -0.0 0.0 -1.0
vn -0.0 0.0 -1.0
vn -0.0 0.0 -1.0
vn -0.0 0.0 -1.0
vn -0.0 0.0 -1.0
vn -0.0 0.0 -1.0
vn -0.0 0.0 -1.0
vn -0.0 0.0 -1.0
vn -0.0 0.0 -1.0
vn -0.0 0.0 -1.0
vn -0.0 0.0 -1.0
vn -0.0 0.0 -1.0
vn -0.0 0.0 -1.0
vn -0.0 0.0 -1.0
vn -0.0 0.0 -1.0
vn -0.0 0.0 -1.0
vn -0.0 0.0 -1.0
vn -0.0 0.0 -1.0
vn -0.0 0.0 -1.0
vn -0.0 0.0 -1.0
vn -0.0 0.0 -1.0
vn -0.0 0.0 -1.0
vn -0.0 0.0 -1.0
vn -0.0 0.0 -1.0
vt 0.0 0.98333335
vt 1.0 0.98333335
vt 0.0 1.0
vt 1.0 1.0
vt 1.0 0.96666664
vt 0.0 0.96666664
vt 1.0 0.95
vt 0.0 0.95
vt 1.0 0.93333334
vt 0.0 0.93333334
vt 1.0 0.9166667
vt 0.0 0.9166667
vt 1.0 0.9
vt 0.0 0.9
vt 1.0 0.8833333
vt 0.0 0.8833333
vt 1.0 0.8666667
vt 0.0 0.8666667
vt 1.0 0.85
vt 0.0 0.85
vt 1.0 0.8333333
vt 0.0 0.8333333
vt 1.0 0.81666666
vt 0.0 0.81666666
vt 1.0 0.8
vt 0.0 0.8
vt 1.0 0.7833333
vt 0.0 0.7833333
vt 1.0 0.76666665
vt 0.0 0.76666665
vt 1.0 0.75
vt 0.0 0.75
vt 1.0 0.73333335
vt 0.0 0.73333335
vt 1.0 0.71666664
vt 0.0 0.71666664
vt 1.0 0.6999999
vt 0.0 0.6999999
vt 1.0 0.6833333
vt 0.0 0.6833333
vt 1.0 0.6666666
vt 0.0 0.6666666
vt 1.0 0.6499999
vt 0.0 0.6499999
vt 1.0 0.6333332
vt 0.0 0.6333332
vt 1.0 0.61666656
vt 0.0 0.61666656
vt 1.0 0.5999999
vt 0.0 0.5999999
vt 1.0 0.5833332
vt 0.0 0.5833332
vt 1.0 0.5666665
vt 0.0 0.5666665
vt 1.0 0.54999983
vt 0.0 0.54999983
vt 1.0 0.5333332
vt 0.0 0.5333332
vt 1.0 0.5166665
vt 0.0 0.5166665
vt 1.0 0.49999982
vt 0.0 0.49999982
vt 1.0 0.48333317
vt 0.0 0.48333317
vt 1.0 0.46666652
vt 0.0 0.46666652
vt 1.0 0.44999987
vt 0.0 0.44999987
vt 1.0 0.43333322
vt 0.0 0.43333322
vt 1.0 0.41666657
vt 0.0 0.41666657
vt 1.0 0.39999992
vt 0.0 0.39999992
vt 1.0 0.38333327
vt 0.0 0.38333327
vt 1.0 0.36666662
vt 0.0 0.36666662
vt 1.0 0.34999996
vt 0.0 0.34999996
vt 1.0 0.3333333
vt 0.0 0.3333333
vt 1.0 0.31666666
vt 0.0 0.31666666
vt 1.0 0.3
vt 0.0 0.3
vt 1.0 0.28333336
vt 0.0 0.28333336
vt 1.0 0.2666667
vt 0.0 0.2666667
vt 1.0 0.25000006
vt 0.0 0.25000006
vt 1.0 0.23333341
vt 0.0 0.23333341
vt 1.0 0.21666676
vt 0.0 0.21666676
vt 1.0 0.2000001
vt 0.0 0.2000001
vt 1.0 0.18333346
vt 0.0 0.18333346
vt 1.0 0.1666668
vt 0.0 0.1666668
vt 1.0 0.15000015
vt 0.0 0.15000015
vt 1.0 0.1333335
vt 0.0 0.1333335
vt 1.0 0.11666685
vt 0.0 0.11666685
vt 1.0 0.1000002
vt 0.0 0.1000002
vt 1.0 0.08333355
vt 0.0 0.08333355
vt 1.0 0.0666669
vt 0.0 0.0666669
vt 1.0 0.05000025
vt 0.0 0.05000025
vt 1.0 0.0333336
vt 0.0 0.0333336
vt 1.0 0.016666949
vt 0.0 0.016666949
vt 1.0 2.9802322E-7
vt 0.0 2.9802322E-7

g kuang_1
s 1
usemtl kuang_1
f 3/3/3 2/2/2 1/1/1 
f 2/2/2 3/3/3 4/4/4 
f 5/5/5 1/1/1 2/2/2 
f 1/1/1 5/5/5 6/6/6 
f 7/7/7 6/6/6 5/5/5 
f 6/6/6 7/7/7 8/8/8 
f 9/9/9 8/8/8 7/7/7 
f 8/8/8 9/9/9 10/10/10 
f 11/11/11 10/10/10 9/9/9 
f 10/10/10 11/11/11 12/12/12 
f 13/13/13 12/12/12 11/11/11 
f 12/12/12 13/13/13 14/14/14 
f 15/15/15 14/14/14 13/13/13 
f 14/14/14 15/15/15 16/16/16 
f 17/17/17 16/16/16 15/15/15 
f 16/16/16 17/17/17 18/18/18 
f 19/19/19 18/18/18 17/17/17 
f 18/18/18 19/19/19 20/20/20 
f 21/21/21 20/20/20 19/19/19 
f 20/20/20 21/21/21 22/22/22 
f 23/23/23 22/22/22 21/21/21 
f 22/22/22 23/23/23 24/24/24 
f 25/25/25 24/24/24 23/23/23 
f 24/24/24 25/25/25 26/26/26 
f 27/27/27 26/26/26 25/25/25 
f 26/26/26 27/27/27 28/28/28 
f 29/29/29 28/28/28 27/27/27 
f 28/28/28 29/29/29 30/30/30 
f 31/31/31 30/30/30 29/29/29 
f 30/30/30 31/31/31 32/32/32 
f 33/33/33 32/32/32 31/31/31 
f 32/32/32 33/33/33 34/34/34 
f 35/35/35 34/34/34 33/33/33 
f 34/34/34 35/35/35 36/36/36 
f 37/37/37 36/36/36 35/35/35 
f 36/36/36 37/37/37 38/38/38 
f 39/39/39 38/38/38 37/37/37 
f 38/38/38 39/39/39 40/40/40 
f 41/41/41 40/40/40 39/39/39 
f 40/40/40 41/41/41 42/42/42 
f 43/43/43 42/42/42 41/41/41 
f 42/42/42 43/43/43 44/44/44 
f 45/45/45 44/44/44 43/43/43 
f 44/44/44 45/45/45 46/46/46 
f 47/47/47 46/46/46 45/45/45 
f 46/46/46 47/47/47 48/48/48 
f 49/49/49 48/48/48 47/47/47 
f 48/48/48 49/49/49 50/50/50 
f 51/51/51 50/50/50 49/49/49 
f 50/50/50 51/51/51 52/52/52 
f 53/53/53 52/52/52 51/51/51 
f 52/52/52 53/53/53 54/54/54 
f 55/55/55 54/54/54 53/53/53 
f 54/54/54 55/55/55 56/56/56 
f 57/57/57 56/56/56 55/55/55 
f 56/56/56 57/57/57 58/58/58 
f 59/59/59 58/58/58 57/57/57 
f 58/58/58 59/59/59 60/60/60 
f 61/61/61 60/60/60 59/59/59 
f 60/60/60 61/61/61 62/62/62 
f 63/63/63 62/62/62 61/61/61 
f 62/62/62 63/63/63 64/64/64 
f 65/65/65 64/64/64 63/63/63 
f 64/64/64 65/65/65 66/66/66 
f 67/67/67 66/66/66 65/65/65 
f 66/66/66 67/67/67 68/68/68 
f 69/69/69 68/68/68 67/67/67 
f 68/68/68 69/69/69 70/70/70 
f 71/71/71 70/70/70 69/69/69 
f 70/70/70 71/71/71 72/72/72 
f 73/73/73 72/72/72 71/71/71 
f 72/72/72 73/73/73 74/74/74 
f 75/75/75 74/74/74 73/73/73 
f 74/74/74 75/75/75 76/76/76 
f 77/77/77 76/76/76 75/75/75 
f 76/76/76 77/77/77 78/78/78 
f 79/79/79 78/78/78 77/77/77 
f 78/78/78 79/79/79 80/80/80 
f 81/81/81 80/80/80 79/79/79 
f 80/80/80 81/81/81 82/82/82 
f 83/83/83 82/82/82 81/81/81 
f 82/82/82 83/83/83 84/84/84 
f 85/85/85 84/84/84 83/83/83 
f 84/84/84 85/85/85 86/86/86 
f 87/87/87 86/86/86 85/85/85 
f 86/86/86 87/87/87 88/88/88 
f 89/89/89 88/88/88 87/87/87 
f 88/88/88 89/89/89 90/90/90 
f 91/91/91 90/90/90 89/89/89 
f 90/90/90 91/91/91 92/92/92 
f 93/93/93 92/92/92 91/91/91 
f 92/92/92 93/93/93 94/94/94 
f 95/95/95 94/94/94 93/93/93 
f 94/94/94 95/95/95 96/96/96 
f 97/97/97 96/96/96 95/95/95 
f 96/96/96 97/97/97 98/98/98 
f 99/99/99 98/98/98 97/97/97 
f 98/98/98 99/99/99 100/100/100 
f 101/101/101 100/100/100 99/99/99 
f 100/100/100 101/101/101 102/102/102 
f 103/103/103 102/102/102 101/101/101 
f 102/102/102 103/103/103 104/104/104 
f 105/105/105 104/104/104 103/103/103 
f 104/104/104 105/105/105 106/106/106 
f 107/107/107 106/106/106 105/105/105 
f 106/106/106 107/107/107 108/108/108 
f 109/109/109 108/108/108 107/107/107 
f 108/108/108 109/109/109 110/110/110 
f 111/111/111 110/110/110 109/109/109 
f 110/110/110 111/111/111 112/112/112 
f 113/113/113 112/112/112 111/111/111 
f 112/112/112 113/113/113 114/114/114 
f 115/115/115 114/114/114 113/113/113 
f 114/114/114 115/115/115 116/116/116 
f 117/117/117 116/116/116 115/115/115 
f 116/116/116 117/117/117 118/118/118 
f 119/119/119 118/118/118 117/117/117 
f 118/118/118 119/119/119 120/120/120 
f 121/121/121 120/120/120 119/119/119 
f 120/120/120 121/121/121 122/122/122 

