# Created by DisUnity v0.3.4
v -0.11248549 -0.008144494 5.307576E-9
v 0.16172184 -0.04652065 0.06385769
v 0.16583934 -7.8055856E-4 5.307576E-9
v -0.11495507 -0.029745724 0.030181441
v 0.14534988 -0.089850664 0.1276136
v -0.12268576 -0.050290365 0.06046466
v 0.11860193 -0.12692621 0.18998617
v -0.1361904 -0.06910797 0.09213122
v 0.08399908 -0.15502998 0.2502756
v -0.15547197 -0.08487825 0.12588088
v 0.04474391 -0.17248705 0.30788052
v -0.18021858 -0.096006684 0.16231513
v 0.00428339 -0.17880055 0.3623223
v -0.20959455 -0.100731045 0.20191243
v -0.03413023 -0.17460386 0.4132654
v -0.24208827 -0.09734489 0.2450085
v -0.0678041 -0.16145101 0.46053076
v -0.2754718 -0.08450237 0.29178223
v -0.094839334 -0.14149609 0.5041046
v -0.3069082 -0.06154607 0.34224743
v -0.114201136 -0.1171367 0.5441306
v -0.33321548 -0.028780738 0.3962606
v -0.12564681 -0.09068443 0.58090997
v -0.35124207 0.01236587 0.4535204
v -0.12953264 -0.06413398 0.6148812
v -0.35831076 0.059356507 0.5135883
v -0.12657186 -0.039055694 0.6466008
v -0.3526406 0.10874044 0.5759078
v -0.11760474 -0.016615631 0.6767178
v -0.33367202 0.15651615 0.6398299
v -0.10343831 0.0023062245 0.7059462
v -0.302229 0.19860853 0.7046406
v -0.08479166 0.016949827 0.73503256
v -0.2604818 0.23138402 0.7695934
v -0.062352527 0.02652404 0.7647246
v -0.21170865 0.2521178 0.8339405
v -0.03691754 0.03012769 0.79574096
v -0.15989575 0.25933188 0.8969632
v -0.009571867 0.026775734 0.8287394
v -0.10923604 0.25295267 0.9580039
v 0.018160725 0.015542232 0.86429274
v -0.06361934 0.23426275 1.0164897
v 0.044250403 -0.0042062933 0.9028659
v -0.02618863 0.2056643 1.0719558
v 0.066221215 -0.032535803 0.9447974
v 9.643554E-4 0.17030242 1.1240635
v 0.0813529 -0.06869538 0.9902887
v 0.0169252 0.13162105 1.1726112
v 0.087004185 -0.11096097 1.0393974
v 0.02190134 0.09293002 1.2175417
v 0.081008986 -0.15662476 1.0920357
v 0.0170131 0.057057686 1.2589422
v 0.06207462 -0.2021631 1.1479802
v 0.0039893435 0.026138641 1.2970369
v 0.030104464 -0.24356362 1.2068765
v -0.015163726 0.0015493887 1.3321798
v -0.013625975 -0.27678618 1.2682598
v -0.03845023 -0.016010977 1.364836
v -0.06648219 -0.29827484 1.3315705
v -0.064079076 -0.026348092 1.3955641
v -0.12469263 -0.3054469 1.3961817
v -0.09053498 -0.029559666 1.4249918
v -0.1837461 -0.2970671 1.4614216
v -0.11653581 -0.025851646 1.4537913
v -0.23891273 -0.2734494 1.5265982
v -0.14090827 -0.015429847 1.4826535
v -0.28581074 -0.23644292 1.5910299
v -0.16243225 0.0015017622 1.512261
v -0.320921 -0.18920864 1.6540685
v -0.17971799 0.024637239 1.5432619
v -0.34197903 -0.13581878 1.7151216
v -0.19116744 0.053390883 1.5762477
v -0.3478762 -0.08103623 1.7733663
v -0.19535653 0.08698481 1.612042
vn 0.021463696 -0.8135594 -0.5810855
vn 0.019557958 -0.82146746 -0.5699198
vn 0.021463696 -0.8135594 -0.58108556
vn 0.019557443 -0.82146955 -0.56991684
vn 0.009326175 -0.8448883 -0.5348614
vn 0.0093489 -0.84484655 -0.53492707
vn -0.017075825 -0.87971044 -0.47520307
vn -0.017001355 -0.879632 -0.475351
vn -0.06418471 -0.9170747 -0.39351544
vn -0.064032294 -0.9169814 -0.39375767
vn -0.13202958 -0.9468442 -0.29335016
vn -0.13179296 -0.9467743 -0.29368156
vn -0.21597484 -0.9598287 -0.17911926
vn -0.2156734 -0.9598214 -0.17952082
vn -0.30763417 -0.949861 -0.055904005
vn -0.30730832 -0.9499404 -0.0563469
vn -0.3966552 -0.9152344 0.07078699
vn -0.39635384 -0.91539955 0.070337035
vn -0.4729851 -0.85915387 0.19529401
vn -0.47274977 -0.8593794 0.19487076
vn -0.5290974 -0.7890836 0.31209466
vn -0.52895105 -0.78932565 0.31173033
vn -0.5616718 -0.71512294 0.4160816
vn -0.5616106 -0.715335 0.41579965
vn -0.57233506 -0.64779 0.50279284
vn -0.5723324 -0.6479387 0.50260437
vn -0.5673034 -0.59571236 0.56858915
vn -0.56732243 -0.59578925 0.5684896
vn -0.55601865 -0.56373745 0.61077285
vn -0.55603105 -0.5637601 0.61074054
vn -0.54908794 -0.5518676 0.62765
vn -0.5490885 -0.5518681 0.62764907
vn -0.5559742 -0.5552329 0.6185541
vn -0.5559833 -0.5552381 0.6185411
vn -0.5829194 -0.5650971 0.58384097
vn -0.58297133 -0.5651111 0.5837755
vn -0.6315278 -0.5706894 0.52486783
vn -0.63164926 -0.57068986 0.5247211
vn -0.69830537 -0.5614931 0.44395408
vn -0.6984999 -0.56144166 0.4437129
vn -0.7752765 -0.5295239 0.3443119
vn -0.77551913 -0.52938485 0.3439794
vn -0.8515716 -0.47111896 0.22994064
vn -0.8518162 -0.47087544 0.22953333
vn -0.91567594 -0.38783118 0.10547314
vn -0.9158711 -0.38749403 0.1050168
vn -0.95786476 -0.28621298 -0.024021981
vn -0.95797044 -0.2858192 -0.02449602
vn -0.9722918 -0.1765105 -0.153273
vn -0.97229147 -0.17611301 -0.15373169
vn -0.95826143 -0.07053873 -0.2770546
vn -0.9581676 -0.07019086 -0.27746737
vn -0.9203962 0.020796286 -0.3904335
vn -0.9202459 0.02105503 -0.39077377
vn -0.8676614 0.0897829 -0.4889812
vn -0.8675037 0.089939594 -0.48923218
vn -0.8114686 0.13350408 -0.5689423
vn -0.8113467 0.13357385 -0.5690997
vn -0.7632707 0.15441748 -0.6273541
vn -0.7632054 0.15443477 -0.6274293
vn -0.7321631 0.15981038 -0.6621163
vn -0.7321458 0.15981038 -0.6621353
vn -0.7229796 0.16025566 -0.6720257
vn -0.72297966 0.16025567 -0.6720257
vn -0.73526627 0.16739877 -0.6567809
vn -0.73524934 0.16738844 -0.65680254
vn -0.7633287 0.19151814 -0.6169686
vn -0.7632778 0.19146532 -0.6170479
vn -0.7973409 0.23934546 -0.5540408
vn -0.7972681 0.2392139 -0.5542024
vn -0.82552624 0.31229335 -0.4700843
vn -0.82546437 0.31205064 -0.47035408
vn -0.8345897 0.35392806 -0.42213142
vn -0.8345897 0.35392806 -0.42213142
vt 0.9893919 0.010121644
vt 0.015501571 0.03934467
vt 0.015501571 0.010121644
vt 0.9893919 0.03934467
vt 0.015501571 0.06754571
vt 0.9893919 0.06754571
vt 0.015501571 0.09666115
vt 0.9893919 0.09666115
vt 0.015501571 0.11733776
vt 0.9893919 0.11733776
vt 0.015501571 0.14508557
vt 0.9893919 0.14508557
vt 0.015501571 0.17024648
vt 0.9893919 0.17024648
vt 0.015501571 0.1981411
vt 0.9893919 0.1981411
vt 0.015501571 0.22191954
vt 0.9893919 0.22191954
vt 0.015501571 0.24706745
vt 0.9893919 0.24706745
vt 0.015501571 0.27079117
vt 0.9893919 0.27079117
vt 0.015501571 0.2966717
vt 0.9893919 0.2966717
vt 0.015501571 0.3255549
vt 0.9893919 0.3255549
vt 0.015501571 0.3522278
vt 0.9893919 0.3522278
vt 0.015501571 0.38264984
vt 0.9893919 0.38264984
vt 0.015501571 0.4144255
vt 0.9893919 0.41431552
vt 0.015501571 0.44294775
vt 0.9893919 0.44333398
vt 0.015501571 0.46891522
vt 0.9893919 0.46891522
vt 0.015501571 0.5000861
vt 0.9893919 0.5000861
vt 0.015501571 0.52627546
vt 0.9893919 0.5251459
vt 0.015501571 0.55901074
vt 0.9893919 0.55901074
vt 0.015501571 0.586483
vt 0.9893919 0.586483
vt 0.015501571 0.61376023
vt 0.9893919 0.61376023
vt 0.015501571 0.6351739
vt 0.9893919 0.6351739
vt 0.015501571 0.6607344
vt 0.9893919 0.6607344
vt 0.015501571 0.689797
vt 0.9893919 0.689797
vt 0.015501571 0.71507597
vt 0.9893919 0.71507597
vt 0.015501571 0.7446995
vt 0.9893919 0.7446995
vt 0.015501571 0.7688916
vt 0.9893919 0.7680765
vt 0.015501571 0.7914851
vt 0.9893919 0.7914851
vt 0.015501571 0.81919366
vt 0.9893919 0.81919366
vt 0.015501571 0.8477173
vt 0.9893919 0.8477173
vt 0.015501571 0.8737181
vt 0.9893919 0.8737181
vt 0.015501571 0.9019521
vt 0.9893919 0.9019521
vt 0.015501571 0.93231297
vt 0.9893919 0.93231297
vt 0.015501571 0.9632783
vt 0.9893919 0.9632783
vt 0.015501571 0.9928267
vt 0.9893919 0.9928267

g Loft001
s 1
usemtl Loft001
f 3/3/3 2/2/2 1/1/1 
f 2/2/2 4/4/4 1/1/1 
f 2/2/2 5/5/5 4/4/4 
f 5/5/5 6/6/6 4/4/4 
f 5/5/5 7/7/7 6/6/6 
f 7/7/7 8/8/8 6/6/6 
f 7/7/7 9/9/9 8/8/8 
f 9/9/9 10/10/10 8/8/8 
f 9/9/9 11/11/11 10/10/10 
f 11/11/11 12/12/12 10/10/10 
f 11/11/11 13/13/13 12/12/12 
f 13/13/13 14/14/14 12/12/12 
f 13/13/13 15/15/15 14/14/14 
f 15/15/15 16/16/16 14/14/14 
f 15/15/15 17/17/17 16/16/16 
f 17/17/17 18/18/18 16/16/16 
f 17/17/17 19/19/19 18/18/18 
f 19/19/19 20/20/20 18/18/18 
f 19/19/19 21/21/21 20/20/20 
f 21/21/21 22/22/22 20/20/20 
f 21/21/21 23/23/23 22/22/22 
f 23/23/23 24/24/24 22/22/22 
f 23/23/23 25/25/25 24/24/24 
f 25/25/25 26/26/26 24/24/24 
f 25/25/25 27/27/27 26/26/26 
f 27/27/27 28/28/28 26/26/26 
f 27/27/27 29/29/29 28/28/28 
f 29/29/29 30/30/30 28/28/28 
f 29/29/29 31/31/31 30/30/30 
f 31/31/31 32/32/32 30/30/30 
f 31/31/31 33/33/33 32/32/32 
f 33/33/33 34/34/34 32/32/32 
f 33/33/33 35/35/35 34/34/34 
f 35/35/35 36/36/36 34/34/34 
f 35/35/35 37/37/37 36/36/36 
f 37/37/37 38/38/38 36/36/36 
f 37/37/37 39/39/39 38/38/38 
f 39/39/39 40/40/40 38/38/38 
f 39/39/39 41/41/41 40/40/40 
f 41/41/41 42/42/42 40/40/40 
f 41/41/41 43/43/43 42/42/42 
f 43/43/43 44/44/44 42/42/42 
f 43/43/43 45/45/45 44/44/44 
f 45/45/45 46/46/46 44/44/44 
f 45/45/45 47/47/47 46/46/46 
f 47/47/47 48/48/48 46/46/46 
f 47/47/47 49/49/49 48/48/48 
f 49/49/49 50/50/50 48/48/48 
f 49/49/49 51/51/51 50/50/50 
f 51/51/51 52/52/52 50/50/50 
f 51/51/51 53/53/53 52/52/52 
f 53/53/53 54/54/54 52/52/52 
f 53/53/53 55/55/55 54/54/54 
f 55/55/55 56/56/56 54/54/54 
f 55/55/55 57/57/57 56/56/56 
f 57/57/57 58/58/58 56/56/56 
f 57/57/57 59/59/59 58/58/58 
f 59/59/59 60/60/60 58/58/58 
f 59/59/59 61/61/61 60/60/60 
f 61/61/61 62/62/62 60/60/60 
f 61/61/61 63/63/63 62/62/62 
f 63/63/63 64/64/64 62/62/62 
f 63/63/63 65/65/65 64/64/64 
f 65/65/65 66/66/66 64/64/64 
f 65/65/65 67/67/67 66/66/66 
f 67/67/67 68/68/68 66/66/66 
f 67/67/67 69/69/69 68/68/68 
f 69/69/69 70/70/70 68/68/68 
f 69/69/69 71/71/71 70/70/70 
f 71/71/71 72/72/72 70/70/70 
f 71/71/71 73/73/73 72/72/72 
f 73/73/73 74/74/74 72/72/72 

