# Created by DisUnity v0.3.4
v 6.3781736E-5 -0.18749778 -3.497148E-8
v 0.40006378 -0.17343529 -3.366035E-8
v 6.3781736E-5 -0.37499553 -3.497148E-8
v 0.40006378 -0.34687054 -3.366035E-8
v 0.8000638 -0.15937278 -3.4971897E-8
v 0.8000638 -0.31874555 -3.4971897E-8
v 1.2000637 -0.14531028 -3.890613E-8
v 1.2000637 -0.29062054 -3.890613E-8
v 1.6000638 -0.13124777 -4.546305E-8
v 1.6000638 -0.26249552 -4.546305E-8
v 0.40006378 -3.2348588E-8 -3.366035E-8
v 6.3781736E-5 -3.497148E-8 -3.497148E-8
v 0.8000638 -2.9725694E-8 -3.4971897E-8
v 1.2000637 -2.7102804E-8 -3.890613E-8
v 1.6000638 -2.447991E-8 -4.546305E-8
v 0.40006378 0.17343521 -3.366035E-8
v 6.3781736E-5 0.1874977 -3.497148E-8
v 0.8000638 0.15937273 -3.4971897E-8
v 1.2000637 0.14531022 -3.890613E-8
v 1.6000638 0.13124771 -4.546305E-8
v 0.40006378 0.34687045 -3.366035E-8
v 6.3781736E-5 0.37499544 -3.497148E-8
v 0.8000638 0.31874546 -3.4971897E-8
v 1.2000637 0.2906205 -3.890613E-8
v 1.6000638 0.2624955 -4.546305E-8
v 6.3781736E-5 -9.219126E-8 0.18749776
v 0.40006378 -4.9991336E-8 0.17343523
v 6.3781736E-5 -7.3117995E-8 0.3749955
v 0.40006378 -6.763408E-8 0.34687054
v 0.8000638 -2.9725694E-8 0.15937272
v 0.8000638 -2.9725694E-8 0.31874546
v 1.2000637 -1.2321079E-8 0.1453102
v 1.2000637 2.4606446E-9 0.29062045
v 1.6000638 1.5573724E-8 0.13124767
v 1.6000638 2.222514E-9 0.26249543
v 0.40006378 -5.5659324E-8 -1.0349611E-8
v 6.3781736E-5 -8.537312E-8 1.5430158E-8
v 0.8000638 -2.9725694E-8 -3.4971897E-8
v 1.2000637 -7.572237E-9 -5.8436697E-8
v 1.6000638 1.0801054E-8 -8.0744016E-8
v 0.40006378 -4.9991336E-8 -0.17343527
v 6.3781736E-5 -9.219126E-8 -0.18749772
v 0.8000638 -2.9725694E-8 -0.15937279
v 1.2000637 -1.2321079E-8 -0.14531031
v 1.6000638 1.5573724E-8 -0.13124783
v 0.40006378 -6.763408E-8 -0.34687045
v 6.3781736E-5 -7.3117995E-8 -0.3749955
v 0.8000638 -2.9725694E-8 -0.31874555
v 1.2000637 2.4606446E-9 -0.2906206
v 1.6000638 2.222514E-9 -0.26249558
vn -0.0 0.0 1.0
vn -0.0 0.0 1.0
vn -0.0 0.0 1.0
vn -0.0 0.0 1.0
vn -0.0 0.0 1.0
vn -0.0 0.0 1.0
vn -0.0 0.0 1.0
vn -0.0 0.0 1.0
vn -0.0 0.0 1.0
vn -0.0 0.0 1.0
vn -0.0 0.0 1.0
vn -0.0 0.0 1.0
vn -0.0 0.0 1.0
vn -0.0 0.0 1.0
vn -0.0 0.0 1.0
vn -0.0 0.0 1.0
vn -0.0 0.0 1.0
vn -0.0 0.0 1.0
vn -0.0 0.0 1.0
vn -0.0 0.0 1.0
vn -0.0 0.0 1.0
vn -0.0 0.0 1.0
vn -0.0 0.0 1.0
vn -0.0 0.0 1.0
vn -0.0 0.0 1.0
vn -0.0 1.0 0.0
vn -0.0 1.0 0.0
vn -0.0 1.0 0.0
vn -0.0 1.0 0.0
vn -0.0 1.0 0.0
vn -0.0 1.0 0.0
vn -0.0 1.0 0.0
vn -0.0 1.0 0.0
vn -0.0 1.0 0.0
vn -0.0 1.0 1.0172525E-7
vn -0.0 1.0 0.0
vn -0.0 1.0 0.0
vn -0.0 1.0 0.0
vn -0.0 1.0 0.0
vn -0.0 1.0 0.0
vn -0.0 1.0 0.0
vn -0.0 1.0 0.0
vn -0.0 1.0 0.0
vn -0.0 1.0 0.0
vn -0.0 1.0 0.0
vn -0.0 1.0 0.0
vn -0.0 1.0 1.0172527E-7
vn -0.0 1.0 0.0
vn -0.0 1.0 0.0
vn -0.0 1.0 0.0
vt 0.0 0.75
vt 0.25 0.75
vt 0.0 1.0
vt 0.25 1.0
vt 0.5 0.75
vt 0.5 1.0
vt 0.75 0.75
vt 0.75 1.0
vt 1.0 0.75
vt 1.0 1.0
vt 0.25 0.5
vt 0.0 0.5
vt 0.5 0.5
vt 0.75 0.5
vt 1.0 0.5
vt 0.25 0.25
vt 0.0 0.25
vt 0.5 0.25
vt 0.75 0.25
vt 1.0 0.25
vt 0.25 0.0
vt 0.0 0.0
vt 0.5 0.0
vt 0.75 0.0
vt 1.0 0.0
vt 0.0 0.75
vt 0.25 0.75
vt 0.0 1.0
vt 0.25 1.0
vt 0.5 0.75
vt 0.5 1.0
vt 0.75 0.75
vt 0.75 1.0
vt 1.0 0.75
vt 1.0 1.0
vt 0.25 0.5
vt 0.0 0.5
vt 0.5 0.5
vt 0.75 0.5
vt 1.0 0.5
vt 0.25 0.25
vt 0.0 0.25
vt 0.5 0.25
vt 0.75 0.25
vt 1.0 0.25
vt 0.25 0.0
vt 0.0 0.0
vt 0.5 0.0
vt 0.75 0.0
vt 1.0 0.0

g mian1
s 1
usemtl mian1
f 3/3/3 2/2/2 1/1/1 
f 2/2/2 3/3/3 4/4/4 
f 4/4/4 5/5/5 2/2/2 
f 5/5/5 4/4/4 6/6/6 
f 6/6/6 7/7/7 5/5/5 
f 7/7/7 6/6/6 8/8/8 
f 8/8/8 9/9/9 7/7/7 
f 9/9/9 8/8/8 10/10/10 
f 11/11/11 1/1/1 2/2/2 
f 1/1/1 11/11/11 12/12/12 
f 2/2/2 13/13/13 11/11/11 
f 13/13/13 2/2/2 5/5/5 
f 5/5/5 14/14/14 13/13/13 
f 14/14/14 5/5/5 7/7/7 
f 7/7/7 15/15/15 14/14/14 
f 15/15/15 7/7/7 9/9/9 
f 16/16/16 12/12/12 11/11/11 
f 12/12/12 16/16/16 17/17/17 
f 11/11/11 18/18/18 16/16/16 
f 18/18/18 11/11/11 13/13/13 
f 13/13/13 19/19/19 18/18/18 
f 19/19/19 13/13/13 14/14/14 
f 14/14/14 20/20/20 19/19/19 
f 20/20/20 14/14/14 15/15/15 
f 21/21/21 17/17/17 16/16/16 
f 17/17/17 21/21/21 22/22/22 
f 16/16/16 23/23/23 21/21/21 
f 23/23/23 16/16/16 18/18/18 
f 18/18/18 24/24/24 23/23/23 
f 24/24/24 18/18/18 19/19/19 
f 19/19/19 25/25/25 24/24/24 
f 25/25/25 19/19/19 20/20/20 
f 28/28/28 27/27/27 26/26/26 
f 27/27/27 28/28/28 29/29/29 
f 29/29/29 30/30/30 27/27/27 
f 30/30/30 29/29/29 31/31/31 
f 31/31/31 32/32/32 30/30/30 
f 32/32/32 31/31/31 33/33/33 
f 33/33/33 34/34/34 32/32/32 
f 34/34/34 33/33/33 35/35/35 
f 36/36/36 26/26/26 27/27/27 
f 26/26/26 36/36/36 37/37/37 
f 27/27/27 38/38/38 36/36/36 
f 38/38/38 27/27/27 30/30/30 
f 30/30/30 39/39/39 38/38/38 
f 39/39/39 30/30/30 32/32/32 
f 32/32/32 40/40/40 39/39/39 
f 40/40/40 32/32/32 34/34/34 
f 41/41/41 37/37/37 36/36/36 
f 37/37/37 41/41/41 42/42/42 
f 36/36/36 43/43/43 41/41/41 
f 43/43/43 36/36/36 38/38/38 
f 38/38/38 44/44/44 43/43/43 
f 44/44/44 38/38/38 39/39/39 
f 39/39/39 45/45/45 44/44/44 
f 45/45/45 39/39/39 40/40/40 
f 46/46/46 42/42/42 41/41/41 
f 42/42/42 46/46/46 47/47/47 
f 41/41/41 48/48/48 46/46/46 
f 48/48/48 41/41/41 43/43/43 
f 43/43/43 49/49/49 48/48/48 
f 49/49/49 43/43/43 44/44/44 
f 44/44/44 50/50/50 49/49/49 
f 50/50/50 44/44/44 45/45/45 

