# Created by DisUnity v0.3.4
v 0.27497676 0.472194 0.0
v 0.47480384 0.22031945 0.19339864
v 0.46164203 0.36533767 0.19339864
v 0.64110863 0.18727298 0.3798076
v 0.5215875 -0.1569366 0.37126422
v 0.47310188 0.43091863 0.37980753
v 0.34528163 0.4518885 0.19339864
v 0.27497676 0.472194 0.0
v 0.7178369 -0.056462783 0.5685464
v 0.45365137 -0.4518268 0.55090374
v 0.6380758 0.3331283 0.5685464
v 0.71344984 -0.34681246 0.76893455
v 0.38548198 -0.5991275 0.7182019
v 0.7508812 0.0960171 0.76893467
v 0.5773987 -0.62687147 0.99029213
v 0.21702461 -0.7410906 0.990292
v 0.7244354 -0.2539647 0.9902923
v 0.31851572 -0.8203806 1.241938
v 0.093541525 -0.844879 1.2419381
v 0.4664334 -0.62633264 1.2419381
v -0.0031563186 -0.8582472 1.5331924
v -0.0031563186 -0.8582472 1.5331924
v -0.27321216 -0.47321716 0.0
v -0.47397807 -0.22209033 0.19339864
v -0.46027502 -0.3670584 0.19339864
v -0.64040506 -0.18966492 0.3798076
v -0.52216965 0.15498844 0.37126422
v -0.47149 -0.43268168 0.37980753
v -0.34359238 -0.45317423 0.19339864
v -0.27321216 -0.47321716 0.0
v -0.7180427 0.05378274 0.5685464
v -0.45533484 0.4501302 0.55090374
v -0.6368278 -0.33550787 0.5685464
v -0.7147395 0.3441468 0.76893455
v -0.38771582 0.59768426 0.7182019
v -0.7505175 -0.098819435 0.76893467
v -0.57973474 0.62471163 0.99029213
v -0.21978956 0.74027526 0.990292
v -0.7253784 0.25125864 0.9902923
v -0.32157597 0.8191859 1.241938
v -0.09669476 0.8445239 1.2419381
v -0.4687682 0.62458706 1.2419381
v -4.749566E-5 0.858253 1.5331924
v -4.749566E-5 0.858253 1.5331924
vn 0.73233014 0.5481996 -0.40394282
vn 0.73050845 -0.099055484 -0.6756816
vn 0.78435946 0.38512504 -0.48627052
vn 0.8708934 0.123475015 -0.47570848
vn 0.7457917 -0.32502568 -0.5815093
vn 0.790912 0.5508113 -0.2665802
vn 0.6453589 0.74227977 -0.18036817
vn 0.73233014 0.5481996 -0.40394282
vn 0.9048418 -0.15311942 -0.39726052
vn 0.6796055 -0.50735 -0.52984166
vn 0.92834336 0.2792286 -0.24537702
vn 0.8669679 -0.42454135 -0.2610196
vn 0.526134 -0.7245043 -0.4452824
vn 0.9881479 -0.0028556183 -0.15347837
vn 0.7195471 -0.692402 -0.05321138
vn 0.291057 -0.8765695 -0.38329056
vn 0.9596919 -0.26139307 0.103273086
vn 0.50859857 -0.8484793 0.14632314
vn 0.14992362 -0.9779369 -0.14547263
vn 0.79142785 -0.44257143 0.4216308
vn 0.36137465 -0.8882342 0.28363422
vn 0.36137465 -0.8882342 0.28363422
vn -0.73027855 -0.55092955 -0.4039429
vn -0.7308731 0.09632784 -0.6756815
vn -0.78291637 -0.3880503 -0.4862705
vn -0.8704265 -0.12672515 -0.47570848
vn -0.7469998 0.3222394 -0.58150935
vn -0.78885037 -0.55375993 -0.2665802
vn -0.64258355 -0.7446836 -0.18036816
vn -0.73027855 -0.55092955 -0.4039429
vn -0.905407 0.14974062 -0.39726055
vn -0.68149465 0.5048097 -0.5298418
vn -0.92729455 -0.2826921 -0.24537696
vn -0.8685466 0.42130214 -0.26101965
vn -0.5288349 0.7225353 -0.4452824
vn -0.9881516 -8.3315995E-4 -0.15347828
vn -0.7221268 0.68971115 -0.053211406
vn -0.29432708 0.8754769 -0.38329068
vn -0.9606609 0.25780874 0.103273116
vn -0.5117624 0.8465747 0.14632307
vn -0.15357302 0.97737044 -0.1454728
vn -0.7930745 0.4396139 0.42163077
vn -0.3646878 0.886879 0.2836343
vn -0.3646878 0.886879 0.2836343
vt 0.24566838 0.9965226
vt -0.0018315613 0.8536655
vt 0.49316856 0.8536655
vt 0.49316856 0.71080834
vt -0.0018315613 0.71080834
vt 0.9881685 0.71080834
vt 0.9881685 0.8536655
vt 0.9881685 0.9965226
vt 0.49316856 0.5679512
vt -0.0018315613 0.5679512
vt 0.9881685 0.5679512
vt 0.49316856 0.425094
vt -0.0018315613 0.425094
vt 0.9881685 0.425094
vt 0.49316856 0.28223687
vt -0.0018315613 0.28223687
vt 0.9881685 0.28223687
vt 0.49316856 0.13937974
vt -0.0018315613 0.13937974
vt 0.9881685 0.13937974
vt -0.0018315613 -0.003477335
vt 0.74066854 -0.003477335
vt 0.24566838 0.9965226
vt -0.0018315613 0.8536655
vt 0.49316856 0.8536655
vt 0.49316856 0.71080834
vt -0.0018315613 0.71080834
vt 0.9881685 0.71080834
vt 0.9881685 0.8536655
vt 0.9881685 0.9965226
vt 0.49316856 0.5679512
vt -0.0018315613 0.5679512
vt 0.9881685 0.5679512
vt 0.49316856 0.425094
vt -0.0018315613 0.425094
vt 0.9881685 0.425094
vt 0.49316856 0.28223687
vt -0.0018315613 0.28223687
vt 0.9881685 0.28223687
vt 0.49316856 0.13937974
vt -0.0018315613 0.13937974
vt 0.9881685 0.13937974
vt -0.0018315613 -0.003477335
vt 0.74066854 -0.003477335

g Object002
s 1
usemtl Object002
f 3/3/3 2/2/2 1/1/1 
f 3/3/3 4/4/4 2/2/2 
f 4/4/4 5/5/5 2/2/2 
f 6/6/6 4/4/4 3/3/3 
f 7/7/7 6/6/6 3/3/3 
f 7/7/7 3/3/3 8/8/8 
f 4/4/4 9/9/9 5/5/5 
f 9/9/9 10/10/10 5/5/5 
f 6/6/6 11/11/11 4/4/4 
f 11/11/11 9/9/9 4/4/4 
f 9/9/9 12/12/12 10/10/10 
f 12/12/12 13/13/13 10/10/10 
f 11/11/11 14/14/14 9/9/9 
f 14/14/14 12/12/12 9/9/9 
f 12/12/12 15/15/15 13/13/13 
f 15/15/15 16/16/16 13/13/13 
f 14/14/14 17/17/17 12/12/12 
f 17/17/17 15/15/15 12/12/12 
f 15/15/15 18/18/18 16/16/16 
f 18/18/18 19/19/19 16/16/16 
f 17/17/17 20/20/20 15/15/15 
f 20/20/20 18/18/18 15/15/15 
f 18/18/18 21/21/21 19/19/19 
f 20/20/20 22/22/22 18/18/18 
f 25/25/25 24/24/24 23/23/23 
f 25/25/25 26/26/26 24/24/24 
f 26/26/26 27/27/27 24/24/24 
f 28/28/28 26/26/26 25/25/25 
f 29/29/29 28/28/28 25/25/25 
f 29/29/29 25/25/25 30/30/30 
f 26/26/26 31/31/31 27/27/27 
f 31/31/31 32/32/32 27/27/27 
f 28/28/28 33/33/33 26/26/26 
f 33/33/33 31/31/31 26/26/26 
f 31/31/31 34/34/34 32/32/32 
f 34/34/34 35/35/35 32/32/32 
f 33/33/33 36/36/36 31/31/31 
f 36/36/36 34/34/34 31/31/31 
f 34/34/34 37/37/37 35/35/35 
f 37/37/37 38/38/38 35/35/35 
f 36/36/36 39/39/39 34/34/34 
f 39/39/39 37/37/37 34/34/34 
f 37/37/37 40/40/40 38/38/38 
f 40/40/40 41/41/41 38/38/38 
f 39/39/39 42/42/42 37/37/37 
f 42/42/42 40/40/40 37/37/37 
f 40/40/40 43/43/43 41/41/41 
f 42/42/42 44/44/44 40/40/40 

