# Created by DisUnity v0.3.4
v 0.39791456 0.15542404 0.15476397
v 0.42342234 -0.103655785 0.0033194874
v 0.4229519 0.13711452 0.011475053
v 0.398385 -0.08534625 0.14660838
v 0.32559764 0.17399618 0.28212452
v 0.32606807 -0.06677412 0.27396896
v 0.21368635 0.19283444 0.3782922
v 0.21415679 -0.047935866 0.37013668
v 0.07469516 0.21194212 0.4313035
v 0.07516561 -0.028828187 0.423148
v -0.07536176 0.23132236 0.43399256
v -0.074891314 -0.009447946 0.42583704
v -0.22214842 0.25152656 0.38240626
v -0.22167796 0.010756254 0.3742507
v -0.3390954 0.27155098 0.28332198
v -0.33862498 0.030780667 0.27516642
v -0.4154153 0.2918565 0.14912765
v -0.41494486 0.051086195 0.1409721
v -0.4410509 0.31244507 -0.0043895054
v -0.4405805 0.07167479 -0.012545067
v -0.40825945 0.33425325 -0.16486722
v -0.40778902 0.09348297 -0.17302278
v -0.32223567 0.35550484 -0.29816905
v -0.32176524 0.11473459 -0.3063246
v -0.19430958 0.3770439 -0.39384502
v -0.19383913 0.13627361 -0.40200055
v -0.030714199 0.4001001 -0.43955478
v -0.030243758 0.15932982 -0.44771034
v 0.1309345 0.42230618 -0.42177913
v 0.13140494 0.18153593 -0.42993465
v 0.27690044 0.4448001 -0.3478676
v 0.2773709 0.2040298 -0.35602313
v 0.3930117 0.4690966 -0.21639417
v 0.39348212 0.22832629 -0.22454974
v 0.4481541 0.49225143 -0.059642833
v 0.44862452 0.25148112 -0.06779839
v 0.4440734 0.5156902 0.10744122
v 0.44454384 0.2749199 0.099285655
v 0.37095752 0.54119635 0.2723259
v 0.37142795 0.300426 0.26417035
v 0.2495793 0.5652787 0.39030546
v 0.25004974 0.32450837 0.38214988
v 0.07926298 0.59159124 0.45824468
v 0.07973342 0.35082096 0.4500891
v -0.09188012 0.616297 0.45615783
v -0.09140968 0.37552673 0.44800222
v -0.2627412 0.6433771 0.3827971
v -0.26227078 0.40260682 0.37464145
v -0.3826421 0.6686799 0.25848028
v -0.38217166 0.42790958 0.25032473
v -0.45051914 0.69647866 0.083164826
v -0.4500487 0.45570835 0.07500926
v -0.44502002 0.7223456 -0.090655364
v -0.4445496 0.4815753 -0.098810926
v -0.36485285 0.7508044 -0.26234913
v -0.36438242 0.51003414 -0.27050468
v -0.23497224 0.77719635 -0.37921277
v -0.2345018 0.536426 -0.38736835
v -0.054044563 0.80624676 -0.4386646
v -0.053574122 0.56547654 -0.44682017
v 0.12054573 0.83311814 -0.4244405
v 0.121016175 0.5923479 -0.4325961
vn -0.9346475 0.010213219 -0.35542902
vn -0.9849823 0.003922297 -0.17261042
vn -0.9849823 0.003922297 -0.1726104
vn -0.9465126 0.009075959 -0.32253897
vn -0.759332 0.02054647 -0.65037894
vn -0.7810932 0.019614035 -0.62410635
vn -0.49431565 0.028463257 -0.8688164
vn -0.5223159 0.027849015 -0.85229725
vn -0.17079507 0.033022434 -0.9847531
vn -0.20063601 0.032773234 -0.9791175
vn 0.17766048 0.033661418 -0.9835159
vn 0.149387 0.033764906 -0.98820215
vn 0.5120149 0.030078458 -0.85844976
vn 0.48876512 0.030488027 -0.87188256
vn 0.77889234 0.02275143 -0.626745
vn 0.7637388 0.023343671 -0.6451031
vn 0.94653034 0.012768672 -0.32236215
vn 0.9389925 0.013475816 -0.34367347
vn 0.99955493 9.430168E-4 0.029816255
vn 0.99997663 0.0017294647 0.0066228774
vn 0.9218133 -0.011323553 0.38746864
vn 0.93089503 -0.010549287 0.3651344
vn 0.7244914 -0.021920549 0.68893516
vn 0.7412224 -0.021277715 0.6709223
vn 0.43232825 -0.029682273 0.90122753
vn 0.4574167 -0.029211374 0.8887726
vn 0.06986971 -0.03363417 0.99698895
vn 0.10186192 -0.033478387 0.9942351
vn -0.296543 -0.032909244 0.95445234
vn -0.26463747 -0.033162776 0.96377754
vn -0.6232967 -0.02768918 0.78149515
vn -0.59304017 -0.02841509 0.80467135
vn -0.8712257 -0.018318221 0.4905407
vn -0.8502104 -0.019481057 0.52608246
vn -0.9904959 -0.006588872 0.1373843
vn -0.98416185 -0.007921608 0.17709494
vn -0.97044265 0.006275717 -0.24125032
vn -0.9801189 0.0048037665 -0.19835317
vn -0.8067541 0.018428992 -0.59059995
vn -0.8307815 0.017221304 -0.55633223
vn -0.5233639 0.027825411 -0.8516549
vn -0.55777717 0.027009448 -0.82955116
vn -0.15912302 0.03311161 -0.9867034
vn -0.19663696 0.032808788 -0.9799273
vn 0.22913425 0.033400055 -0.97282165
vn 0.19474292 0.033585463 -0.9802792
vn 0.58492094 0.028599802 -0.8105859
vn 0.55810183 0.029179934 -0.8292592
vn 0.85224974 0.019373085 -0.52277625
vn 0.8359163 0.020211998 -0.5484847
vn 0.9882961 0.007092606 -0.15238293
vn 0.9833519 0.008070308 -0.18153208
vn 0.96929246 -0.0064329854 0.24582656
vn 0.9762562 -0.0054277545 0.21655159
vn 0.7957262 -0.018950516 0.60536
vn 0.8143318 -0.018059166 0.5801186
vn 0.48945302 -0.028565971 0.8715617
vn 0.51998585 -0.027901927 0.853719
vn 0.10419467 -0.033465892 0.9939937
vn 0.14138478 -0.03323751 0.98939663
vn -0.07597065 -0.033903956 0.9965335
vn -0.07597066 -0.03390396 0.9965335
vt 0.9671494 0.0019084811
vt 0.99620163 0.98976785
vt 0.99620163 0.0019084811
vt 0.9671494 0.98976785
vt 0.93791807 0.0019084811
vt 0.93791807 0.98976785
vt 0.9085107 0.0019084811
vt 0.9085107 0.98976785
vt 0.8789351 0.0019084811
vt 0.8789351 0.98976785
vt 0.8492048 0.0019084811
vt 0.8492048 0.98976785
vt 0.8185086 0.0019084811
vt 0.8185086 0.98976785
vt 0.78837323 0.0019084811
vt 0.78837323 0.98976785
vt 0.7581098 0.0019084811
vt 0.7581098 0.98976785
vt 0.7277353 0.0019084811
vt 0.7277353 0.98976785
vt 0.6959088 0.0019084811
vt 0.6959088 0.98976785
vt 0.66520464 0.0019084811
vt 0.66520464 0.98976785
vt 0.6343924 0.0019084811
vt 0.6343924 0.98976785
vt 0.5904517 0.0019084811
vt 0.5904517 0.98976785
vt 0.54800713 0.0019084811
vt 0.54800713 0.98976785
vt 0.5167339 0.0019084811
vt 0.5167339 0.98976785
vt 0.4832604 0.0019084811
vt 0.4832604 0.98976785
vt 0.4516027 0.0019084811
vt 0.4516027 0.98976785
vt 0.41978595 0.0019084811
vt 0.41978595 0.98976785
vt 0.3854184 0.0019084811
vt 0.3854184 0.98976785
vt 0.35316584 0.0019084811
vt 0.35316584 0.98976785
vt 0.31816694 0.0019084811
vt 0.31816694 0.98976785
vt 0.2854924 0.0019084811
vt 0.2854924 0.98976785
vt 0.24991569 0.0019084811
vt 0.24991569 0.98976785
vt 0.21686304 0.0019084811
vt 0.21686304 0.98976785
vt 0.18078707 0.0019084811
vt 0.18078707 0.98976785
vt 0.14739864 0.0019084811
vt 0.14739864 0.98976785
vt 0.11088393 0.0019084811
vt 0.11088393 0.98976785
vt 0.077170976 0.0019084811
vt 0.077170976 0.98976785
vt 0.03902382 0.0019084811
vt 0.03902382 0.98976785
vt 0.0037482115 0.0019084811
vt 0.0037482115 0.98976785

g Plane001
s 1
usemtl Plane001
f 3/3/3 2/2/2 1/1/1 
f 2/2/2 4/4/4 1/1/1 
f 1/1/1 4/4/4 5/5/5 
f 4/4/4 6/6/6 5/5/5 
f 5/5/5 6/6/6 7/7/7 
f 6/6/6 8/8/8 7/7/7 
f 7/7/7 8/8/8 9/9/9 
f 8/8/8 10/10/10 9/9/9 
f 9/9/9 10/10/10 11/11/11 
f 10/10/10 12/12/12 11/11/11 
f 11/11/11 12/12/12 13/13/13 
f 12/12/12 14/14/14 13/13/13 
f 13/13/13 14/14/14 15/15/15 
f 14/14/14 16/16/16 15/15/15 
f 15/15/15 16/16/16 17/17/17 
f 16/16/16 18/18/18 17/17/17 
f 17/17/17 18/18/18 19/19/19 
f 18/18/18 20/20/20 19/19/19 
f 19/19/19 20/20/20 21/21/21 
f 20/20/20 22/22/22 21/21/21 
f 21/21/21 22/22/22 23/23/23 
f 22/22/22 24/24/24 23/23/23 
f 23/23/23 24/24/24 25/25/25 
f 24/24/24 26/26/26 25/25/25 
f 25/25/25 26/26/26 27/27/27 
f 26/26/26 28/28/28 27/27/27 
f 27/27/27 28/28/28 29/29/29 
f 28/28/28 30/30/30 29/29/29 
f 29/29/29 30/30/30 31/31/31 
f 30/30/30 32/32/32 31/31/31 
f 31/31/31 32/32/32 33/33/33 
f 32/32/32 34/34/34 33/33/33 
f 33/33/33 34/34/34 35/35/35 
f 34/34/34 36/36/36 35/35/35 
f 35/35/35 36/36/36 37/37/37 
f 36/36/36 38/38/38 37/37/37 
f 37/37/37 38/38/38 39/39/39 
f 38/38/38 40/40/40 39/39/39 
f 39/39/39 40/40/40 41/41/41 
f 40/40/40 42/42/42 41/41/41 
f 41/41/41 42/42/42 43/43/43 
f 42/42/42 44/44/44 43/43/43 
f 43/43/43 44/44/44 45/45/45 
f 44/44/44 46/46/46 45/45/45 
f 45/45/45 46/46/46 47/47/47 
f 46/46/46 48/48/48 47/47/47 
f 47/47/47 48/48/48 49/49/49 
f 48/48/48 50/50/50 49/49/49 
f 49/49/49 50/50/50 51/51/51 
f 50/50/50 52/52/52 51/51/51 
f 51/51/51 52/52/52 53/53/53 
f 52/52/52 54/54/54 53/53/53 
f 53/53/53 54/54/54 55/55/55 
f 54/54/54 56/56/56 55/55/55 
f 55/55/55 56/56/56 57/57/57 
f 56/56/56 58/58/58 57/57/57 
f 57/57/57 58/58/58 59/59/59 
f 58/58/58 60/60/60 59/59/59 
f 59/59/59 60/60/60 61/61/61 
f 60/60/60 62/62/62 61/61/61 

