# Created by DisUnity v0.3.4
v -7.198733 -1.6139925 0.0
v -6.5320106 -1.2540733 0.0
v -6.8358445 -1.825262 0.0
v -6.8604918 -1.0624809 0.0
v -6.1862645 -1.4332869 0.0
v -6.4711337 -2.0141666 0.0
v -5.843711 -1.5912882 0.0
v -6.0869064 -2.1908112 0.0
v -5.481969 -1.7312379 0.0
v -5.7024035 -2.3394983 0.0
v -5.1247807 -1.8423988 0.0
v -5.295834 -2.4663482 0.0
v -4.761994 -1.9252064 0.0
v -4.8787794 -2.5615497 0.0
v -4.3949256 -1.9748671 0.0
v -4.4532566 -2.6192033 0.0
v -4.0283256 -1.9863627 0.0
v -4.020526 -2.6332872 0.0
v -3.6643407 -1.9565614 0.0
v -3.5873706 -2.598938 0.0
v -3.3236532 -1.8845766 0.0
v -3.145494 -2.5065339 0.0
v -2.9769583 -1.7646809 0.0
v -2.7364078 -2.36527 0.0
v -2.6600046 -1.60645 0.0
v -2.3374503 -2.1672804 0.0
v -2.3640835 -1.4116701 0.0
v -1.9659985 -1.9216703 0.0
v -2.0716236 -1.1700749 0.0
v -1.6419042 -1.6537209 0.0
v -1.8164096 -0.90863097 0.0
v -1.3375583 -1.3436867 0.0
v -1.5861498 -0.62032807 0.0
v -1.0678889 -1.0075974 0.0
v -1.3857651 -0.31736922 0.0
v -0.826903 -0.643322 0.0
v -1.1999711 0.014885253 0.0
v -0.6225706 -0.2769722 0.0
v -1.024689 0.36845428 0.0
v -0.44242498 0.08642456 0.0
v -0.8499647 0.72985554 0.0
v -0.26883468 0.44549674 0.0
v -0.6351224 1.117785 0.0
v -0.09742714 0.7579851 0.0
v -0.3454 1.4800326 0.0
v 0.10984131 1.0203291 0.0
v 0.05388298 1.7692623 0.0
v 0.3564884 1.1974216 0.0
v 0.5246324 1.9327139 0.0
v 0.6378322 1.2957226 0.0
v 1.0075277 1.953003 0.0
v 0.95143783 1.3084675 0.0
v 1.498867 1.8332821 0.0
v 1.235543 1.2423232 0.0
v 1.9122967 1.5853738 0.0
v 1.506261 1.0816805 0.0
v 2.2431784 1.2065817 0.0
v 1.6975051 0.8590004 0.0
v 2.4363086 0.73917586 0.0
v 1.8067267 0.59018356 0.0
v 2.461896 0.23043357 0.0
v 1.8192468 0.3050946 0.0
v 2.2592402 -0.28720444 0.0
v 1.729994 0.08491226 0.0
v 1.8954443 -0.63996994 0.0
v 1.5205822 -0.112664945 0.0
v 1.4028326 -0.8413629 0.0
v 1.275628 -0.20701995 0.0
v 0.8177504 -0.7693913 0.0
v 1.0823511 -0.17900284 0.0
v 0.41344568 -0.1895015 0.0
v 1.0569841 -0.122940674 0.0
v 0.5011223 0.35898116 0.0
v 1.0982835 0.11004257 0.0
v 0.7125935 0.7646525 0.0
v 1.2556517 0.41299933 0.0
v 0.9622293 1.1125458 0.0
v 1.4724958 0.714802 0.0
v 1.236457 1.4339558 0.0
v 1.7178788 1.0017462 0.0
v 1.5037637 1.7316985 0.0
v 1.9851855 1.2994889 0.0
vn -0.0 0.0 1.0
vn -0.0 0.0 1.0
vn -0.0 0.0 1.0
vn -0.0 0.0 1.0
vn -0.0 0.0 1.0
vn -0.0 0.0 1.0
vn -0.0 0.0 1.0
vn -0.0 0.0 1.0
vn -0.0 0.0 1.0
vn -0.0 0.0 1.0
vn -0.0 0.0 1.0
vn -0.0 0.0 1.0
vn -0.0 0.0 1.0
vn -0.0 0.0 1.0
vn -0.0 0.0 1.0
vn -0.0 0.0 1.0
vn -0.0 0.0 1.0
vn -0.0 0.0 1.0
vn -0.0 0.0 1.0
vn -0.0 0.0 1.0
vn -0.0 0.0 1.0
vn -0.0 0.0 1.0
vn -0.0 0.0 1.0
vn -0.0 0.0 1.0
vn -0.0 0.0 1.0
vn -0.0 0.0 1.0
vn -0.0 0.0 1.0
vn -0.0 0.0 1.0
vn -0.0 0.0 1.0
vn -0.0 0.0 1.0
vn -0.0 0.0 1.0
vn -0.0 0.0 1.0
vn -0.0 0.0 1.0
vn -0.0 0.0 1.0
vn -0.0 0.0 1.0
vn -0.0 0.0 1.0
vn -0.0 0.0 1.0
vn -0.0 0.0 1.0
vn -0.0 0.0 1.0
vn -0.0 0.0 1.0
vn -0.0 0.0 1.0
vn -0.0 0.0 1.0
vn -0.0 0.0 1.0
vn -0.0 0.0 1.0
vn -0.0 0.0 1.0
vn -0.0 0.0 1.0
vn -0.0 0.0 1.0
vn -0.0 0.0 1.0
vn -0.0 0.0 1.0
vn -0.0 0.0 1.0
vn -0.0 0.0 1.0
vn -0.0 0.0 1.0
vn -0.0 0.0 1.0
vn -0.0 0.0 1.0
vn -0.0 0.0 1.0
vn -0.0 0.0 1.0
vn -0.0 0.0 1.0
vn -0.0 0.0 1.0
vn -0.0 0.0 1.0
vn -0.0 0.0 1.0
vn -0.0 0.0 1.0
vn -0.0 0.0 1.0
vn -0.0 0.0 1.0
vn -0.0 0.0 1.0
vn -0.0 0.0 1.0
vn -0.0 0.0 1.0
vn -0.0 0.0 1.0
vn -0.0 0.0 1.0
vn -0.0 0.0 1.0
vn -0.0 0.0 1.0
vn -0.0 0.0 1.0
vn -0.0 0.0 1.0
vn -0.0 0.0 1.0
vn -0.0 0.0 1.0
vn -0.0 0.0 1.0
vn -0.0 0.0 1.0
vn -0.0 0.0 1.0
vn -0.0 0.0 1.0
vn -0.0 0.0 1.0
vn -0.0 0.0 1.0
vn -0.0 0.0 1.0
vn -0.0 0.0 1.0
vt 0.0 1.0
vt 0.025 0.0
vt 0.025 1.0
vt 0.0 0.0
vt 0.05 0.0
vt 0.05 1.0
vt 0.075 0.0
vt 0.075 1.0
vt 0.1 0.0
vt 0.1 1.0
vt 0.125 0.0
vt 0.125 1.0
vt 0.15 0.0
vt 0.15 1.0
vt 0.17500001 0.0
vt 0.17500001 1.0
vt 0.20000002 0.0
vt 0.20000002 1.0
vt 0.22500002 0.0
vt 0.22500002 1.0
vt 0.25000003 0.0
vt 0.25000003 1.0
vt 0.27500004 0.0
vt 0.27500004 1.0
vt 0.30000004 0.0
vt 0.30000004 1.0
vt 0.32500005 0.0
vt 0.32500005 1.0
vt 0.35000005 0.0
vt 0.35000005 1.0
vt 0.37500006 0.0
vt 0.37500006 1.0
vt 0.40000007 0.0
vt 0.40000007 1.0
vt 0.42500007 0.0
vt 0.42500007 1.0
vt 0.45000008 0.0
vt 0.45000008 1.0
vt 0.47500008 0.0
vt 0.47500008 1.0
vt 0.50000006 0.0
vt 0.50000006 1.0
vt 0.52500004 0.0
vt 0.52500004 1.0
vt 0.55 0.0
vt 0.55 1.0
vt 0.575 0.0
vt 0.575 1.0
vt 0.59999996 0.0
vt 0.59999996 1.0
vt 0.62499994 0.0
vt 0.62499994 1.0
vt 0.6499999 0.0
vt 0.6499999 1.0
vt 0.6749999 0.0
vt 0.6749999 1.0
vt 0.69999987 0.0
vt 0.69999987 1.0
vt 0.72499985 0.0
vt 0.72499985 1.0
vt 0.7499998 0.0
vt 0.7499998 1.0
vt 0.7749998 0.0
vt 0.7749998 1.0
vt 0.7999998 0.0
vt 0.7999998 1.0
vt 0.82499975 0.0
vt 0.82499975 1.0
vt 0.8499997 0.0
vt 0.8499997 1.0
vt 0.8749997 0.0
vt 0.8749997 1.0
vt 0.8999997 0.0
vt 0.8999997 1.0
vt 0.92499965 0.0
vt 0.92499965 1.0
vt 0.94999963 0.0
vt 0.94999963 1.0
vt 0.9749996 0.0
vt 0.9749996 1.0
vt 0.9999996 0.0
vt 0.9999996 1.0

g Plane009
s 1
usemtl Plane009
f 3/3/3 2/2/2 1/1/1 
f 4/4/4 1/1/1 2/2/2 
f 2/2/2 3/3/3 5/5/5 
f 6/6/6 5/5/5 3/3/3 
f 5/5/5 6/6/6 7/7/7 
f 8/8/8 7/7/7 6/6/6 
f 7/7/7 8/8/8 9/9/9 
f 10/10/10 9/9/9 8/8/8 
f 9/9/9 10/10/10 11/11/11 
f 12/12/12 11/11/11 10/10/10 
f 11/11/11 12/12/12 13/13/13 
f 14/14/14 13/13/13 12/12/12 
f 13/13/13 14/14/14 15/15/15 
f 16/16/16 15/15/15 14/14/14 
f 15/15/15 16/16/16 17/17/17 
f 18/18/18 17/17/17 16/16/16 
f 17/17/17 18/18/18 19/19/19 
f 20/20/20 19/19/19 18/18/18 
f 19/19/19 20/20/20 21/21/21 
f 22/22/22 21/21/21 20/20/20 
f 21/21/21 22/22/22 23/23/23 
f 24/24/24 23/23/23 22/22/22 
f 23/23/23 24/24/24 25/25/25 
f 26/26/26 25/25/25 24/24/24 
f 25/25/25 26/26/26 27/27/27 
f 28/28/28 27/27/27 26/26/26 
f 27/27/27 28/28/28 29/29/29 
f 30/30/30 29/29/29 28/28/28 
f 29/29/29 30/30/30 31/31/31 
f 32/32/32 31/31/31 30/30/30 
f 31/31/31 32/32/32 33/33/33 
f 34/34/34 33/33/33 32/32/32 
f 33/33/33 34/34/34 35/35/35 
f 36/36/36 35/35/35 34/34/34 
f 35/35/35 36/36/36 37/37/37 
f 38/38/38 37/37/37 36/36/36 
f 37/37/37 38/38/38 39/39/39 
f 40/40/40 39/39/39 38/38/38 
f 39/39/39 40/40/40 41/41/41 
f 42/42/42 41/41/41 40/40/40 
f 41/41/41 42/42/42 43/43/43 
f 44/44/44 43/43/43 42/42/42 
f 43/43/43 44/44/44 45/45/45 
f 46/46/46 45/45/45 44/44/44 
f 45/45/45 46/46/46 47/47/47 
f 48/48/48 47/47/47 46/46/46 
f 47/47/47 48/48/48 49/49/49 
f 50/50/50 49/49/49 48/48/48 
f 49/49/49 50/50/50 51/51/51 
f 52/52/52 51/51/51 50/50/50 
f 51/51/51 52/52/52 53/53/53 
f 54/54/54 53/53/53 52/52/52 
f 53/53/53 54/54/54 55/55/55 
f 56/56/56 55/55/55 54/54/54 
f 55/55/55 56/56/56 57/57/57 
f 58/58/58 57/57/57 56/56/56 
f 57/57/57 58/58/58 59/59/59 
f 60/60/60 59/59/59 58/58/58 
f 59/59/59 60/60/60 61/61/61 
f 62/62/62 61/61/61 60/60/60 
f 61/61/61 62/62/62 63/63/63 
f 64/64/64 63/63/63 62/62/62 
f 63/63/63 64/64/64 65/65/65 
f 66/66/66 65/65/65 64/64/64 
f 65/65/65 66/66/66 67/67/67 
f 68/68/68 67/67/67 66/66/66 
f 67/67/67 68/68/68 69/69/69 
f 70/70/70 69/69/69 68/68/68 
f 69/69/69 70/70/70 71/71/71 
f 72/72/72 71/71/71 70/70/70 
f 71/71/71 72/72/72 73/73/73 
f 74/74/74 73/73/73 72/72/72 
f 73/73/73 74/74/74 75/75/75 
f 76/76/76 75/75/75 74/74/74 
f 75/75/75 76/76/76 77/77/77 
f 78/78/78 77/77/77 76/76/76 
f 77/77/77 78/78/78 79/79/79 
f 80/80/80 79/79/79 78/78/78 
f 79/79/79 80/80/80 81/81/81 
f 82/82/82 81/81/81 80/80/80 

