# Created by DisUnity v0.3.4
v -0.26445207 -0.21425834 -0.020156732
v -0.15445207 -0.25175488 0.0033929881
v -0.27188578 -0.36425835 0.0061770347
v -0.16188577 -0.40175486 0.016020928
v -0.044452075 -0.20588773 0.027050013
v -0.05188578 -0.35588774 0.027071714
v 0.06554792 -0.19328782 0.0121152755
v 0.058114216 -0.3432878 0.025264569
v 0.17554791 -0.1949487 0.011570764
v 0.16811422 -0.34494868 -0.0017461604
v 0.2855479 -0.19020452 0.033201005
v 0.27811423 -0.3402045 -0.021033175
v -0.14785598 -0.101754874 -0.016066227
v -0.25785598 -0.064258344 -0.011565201
v -0.037855983 -0.055887744 -0.003972147
v 0.07214402 -0.04328782 0.027825326
v 0.182144 -0.044948712 0.027595377
v 0.292144 -0.040204525 0.024447242
v -0.12764964 0.04824513 0.014979606
v -0.23764962 0.085741654 0.0020223632
v -0.017649626 0.094112255 0.0076290737
v 0.092350364 0.10671218 0.038950417
v 0.20235036 0.10505129 0.03673269
v 0.31235036 0.10979547 0.03700011
v -0.15644842 0.19824512 0.012716093
v -0.26644844 0.23574165 0.016863108
v -0.046448436 0.24411225 0.016280722
v 0.06355156 0.25671217 0.014387571
v 0.17355156 0.25505129 0.051006105
v 0.28355154 0.25979546 0.026836481
v -0.13926937 0.3482451 0.011328535
v -0.24926937 0.38574165 0.042250138
v -0.029269367 0.39411223 0.03264961
v 0.080730624 0.40671217 0.026237343
v 0.19073063 0.4050513 0.03531387
v 0.30073062 0.4097955 0.026525619
vn -0.11309082 0.10598784 0.9879155
vn -0.18818472 0.13139312 0.97330487
vn -0.09597749 0.124621764 0.9875514
vn -0.11004505 0.066996574 0.991666
vn -0.096833825 0.07976851 0.9920989
vn -0.035708863 0.023193968 0.99909306
vn 0.060928084 -0.026645962 0.9977864
vn 0.07145011 0.035517115 0.99681157
vn -0.04933748 -0.046374783 0.99770504
vn 0.13914244 -0.17090072 0.97541386
vn -0.12446435 -0.05428265 0.9907382
vn 0.17657022 -0.3424037 0.92281234
vn -0.07161427 -0.01722626 0.9972837
vn -0.03396109 -0.11005649 0.9933449
vn -0.20619798 0.056862954 0.97685665
vn -0.10562541 -0.034148082 0.99381953
vn 0.013719098 -0.08762335 0.9960593
vn -0.010625927 -0.06448136 0.9978624
vn 0.012620322 -0.11475792 0.9933134
vn -0.099186815 -0.054148797 0.99359447
vn -0.089718975 -0.038593326 0.99521905
vn -0.1527814 -0.009619171 0.98821324
vn 0.02970717 -0.047543984 0.9984273
vn 0.0038657733 -0.0018347547 0.9999908
vn -0.030316826 -0.025687248 0.99921024
vn 0.07108103 -0.08394664 0.9939318
vn 0.02299094 -0.07245873 0.9971064
vn -0.13961843 0.011714881 0.9901361
vn -0.051318638 0.036968447 0.9979978
vn 0.17350104 -0.013975495 0.9847344
vn -0.04549679 -0.033700395 0.99839586
vn 0.20653701 -0.18622471 0.9605534
vn 0.004018898 -0.08457803 0.99640876
vn -0.022474756 -0.08403648 0.99620914
vn -0.04325825 0.059337135 0.9973003
vn 0.13347453 0.04691022 0.9899414
vt 0.0 0.8
vt 0.10718106 0.8858642
vt 0.0 1.0
vt 0.2 1.0
vt 0.3505144 0.852963
vt 0.4 1.0
vt 0.57057613 0.92144036
vt 0.6 1.0
vt 0.8815844 0.891214
vt 0.8 1.0
vt 1.0 0.8
vt 1.0 1.0
vt 0.17271605 0.665
vt 0.0 0.6
vt 0.46874487 0.65349793
vt 0.70111114 0.7096709
vt 0.9011111 0.704321
vt 1.0 0.6
vt 0.10290122 0.3547942
vt 0.0 0.39999998
vt 0.4085597 0.48693419
vt 0.7112757 0.4350412
vt 0.84039086 0.48399174
vt 1.0 0.39999998
vt 0.2315638 0.2102058
vt 0.0 0.19999999
vt 0.48907408 0.21658438
vt 0.6845268 0.29308635
vt 0.9265227 0.15051436
vt 1.0 0.19999999
vt 0.2 0.0
vt 0.0 0.0
vt 0.4 0.0
vt 0.6 0.0
vt 0.8 0.0
vt 1.0 0.0

g Plane002
s 1
usemtl Plane002
f 3/3/3 2/2/2 1/1/1 
f 2/2/2 3/3/3 4/4/4 
f 4/4/4 5/5/5 2/2/2 
f 5/5/5 4/4/4 6/6/6 
f 6/6/6 7/7/7 5/5/5 
f 7/7/7 6/6/6 8/8/8 
f 8/8/8 9/9/9 7/7/7 
f 9/9/9 8/8/8 10/10/10 
f 10/10/10 11/11/11 9/9/9 
f 11/11/11 10/10/10 12/12/12 
f 13/13/13 1/1/1 2/2/2 
f 1/1/1 13/13/13 14/14/14 
f 2/2/2 15/15/15 13/13/13 
f 15/15/15 2/2/2 5/5/5 
f 5/5/5 16/16/16 15/15/15 
f 16/16/16 5/5/5 7/7/7 
f 7/7/7 17/17/17 16/16/16 
f 17/17/17 7/7/7 9/9/9 
f 9/9/9 18/18/18 17/17/17 
f 18/18/18 9/9/9 11/11/11 
f 19/19/19 14/14/14 13/13/13 
f 14/14/14 19/19/19 20/20/20 
f 13/13/13 21/21/21 19/19/19 
f 21/21/21 13/13/13 15/15/15 
f 15/15/15 22/22/22 21/21/21 
f 22/22/22 15/15/15 16/16/16 
f 16/16/16 23/23/23 22/22/22 
f 23/23/23 16/16/16 17/17/17 
f 17/17/17 24/24/24 23/23/23 
f 24/24/24 17/17/17 18/18/18 
f 25/25/25 20/20/20 19/19/19 
f 20/20/20 25/25/25 26/26/26 
f 19/19/19 27/27/27 25/25/25 
f 27/27/27 19/19/19 21/21/21 
f 21/21/21 28/28/28 27/27/27 
f 28/28/28 21/21/21 22/22/22 
f 22/22/22 29/29/29 28/28/28 
f 29/29/29 22/22/22 23/23/23 
f 23/23/23 30/30/30 29/29/29 
f 30/30/30 23/23/23 24/24/24 
f 31/31/31 26/26/26 25/25/25 
f 26/26/26 31/31/31 32/32/32 
f 25/25/25 33/33/33 31/31/31 
f 33/33/33 25/25/25 27/27/27 
f 27/27/27 34/34/34 33/33/33 
f 34/34/34 27/27/27 28/28/28 
f 28/28/28 35/35/35 34/34/34 
f 35/35/35 28/28/28 29/29/29 
f 29/29/29 36/36/36 35/35/35 
f 36/36/36 29/29/29 30/30/30 

