# Created by DisUnity v0.3.4
v -0.16705337 -0.024361948 0.0
v -0.083526686 -0.024361948 0.0
v -0.16705337 -0.048723895 0.0
v -0.083526686 -0.048723895 0.0
v -0.0 -0.024361948 0.0
v -0.0 -0.048723895 0.0
v 0.083526686 -0.024361948 0.0
v 0.083526686 -0.048723895 0.0
v 0.16705337 -0.024361948 0.0
v 0.16705337 -0.048723895 0.0
v -0.083526686 0.0 0.0
v -0.16705337 0.0 0.0
v -0.0 0.0 0.0
v 0.083526686 0.0 0.0
v 0.16705337 0.0 0.0
v -0.083526686 0.024361948 0.0
v -0.16705337 0.024361948 0.0
v -0.0 0.024361948 0.0
v 0.083526686 0.024361948 0.0
v 0.16705337 0.024361948 0.0
v -0.083526686 0.048723895 0.0
v -0.16705337 0.048723895 0.0
v -0.0 0.048723895 0.0
v 0.083526686 0.048723895 0.0
v 0.16705337 0.048723895 0.0
vn -0.0 0.0 1.0
vn -0.0 0.0 1.0
vn -0.0 0.0 1.0
vn -0.0 0.0 1.0
vn -0.0 0.0 1.0
vn -0.0 0.0 1.0
vn -0.0 0.0 1.0
vn -0.0 0.0 1.0
vn -0.0 0.0 1.0
vn -0.0 0.0 1.0
vn -0.0 0.0 1.0
vn -0.0 0.0 1.0
vn -0.0 0.0 1.0
vn -0.0 0.0 1.0
vn -0.0 0.0 1.0
vn -0.0 0.0 1.0
vn -0.0 0.0 1.0
vn -0.0 0.0 1.0
vn -0.0 0.0 1.0
vn -0.0 0.0 1.0
vn -0.0 0.0 1.0
vn -0.0 0.0 1.0
vn -0.0 0.0 1.0
vn -0.0 0.0 1.0
vn -0.0 0.0 1.0
vt 0.0 0.75
vt 0.25 0.75
vt 0.0 1.0
vt 0.25 1.0
vt 0.5 0.75
vt 0.5 1.0
vt 0.75 0.75
vt 0.75 1.0
vt 1.0 0.75
vt 1.0 1.0
vt 0.25 0.5
vt 0.0 0.5
vt 0.5 0.5
vt 0.75 0.5
vt 1.0 0.5
vt 0.25 0.25
vt 0.0 0.25
vt 0.5 0.25
vt 0.75 0.25
vt 1.0 0.25
vt 0.25 0.0
vt 0.0 0.0
vt 0.5 0.0
vt 0.75 0.0
vt 1.0 0.0

g Plane001
s 1
usemtl Plane001
f 3/3/3 2/2/2 1/1/1 
f 2/2/2 3/3/3 4/4/4 
f 4/4/4 5/5/5 2/2/2 
f 5/5/5 4/4/4 6/6/6 
f 6/6/6 7/7/7 5/5/5 
f 7/7/7 6/6/6 8/8/8 
f 8/8/8 9/9/9 7/7/7 
f 9/9/9 8/8/8 10/10/10 
f 11/11/11 1/1/1 2/2/2 
f 1/1/1 11/11/11 12/12/12 
f 2/2/2 13/13/13 11/11/11 
f 13/13/13 2/2/2 5/5/5 
f 5/5/5 14/14/14 13/13/13 
f 14/14/14 5/5/5 7/7/7 
f 7/7/7 15/15/15 14/14/14 
f 15/15/15 7/7/7 9/9/9 
f 16/16/16 12/12/12 11/11/11 
f 12/12/12 16/16/16 17/17/17 
f 11/11/11 18/18/18 16/16/16 
f 18/18/18 11/11/11 13/13/13 
f 13/13/13 19/19/19 18/18/18 
f 19/19/19 13/13/13 14/14/14 
f 14/14/14 20/20/20 19/19/19 
f 20/20/20 14/14/14 15/15/15 
f 21/21/21 17/17/17 16/16/16 
f 17/17/17 21/21/21 22/22/22 
f 16/16/16 23/23/23 21/21/21 
f 23/23/23 16/16/16 18/18/18 
f 18/18/18 24/24/24 23/23/23 
f 24/24/24 18/18/18 19/19/19 
f 19/19/19 25/25/25 24/24/24 
f 25/25/25 19/19/19 20/20/20 

