# Created by DisUnity v0.3.4
v 0.078223035 0.8477761 0.06480709
v 0.071341015 0.79152614 0.038684845
v -0.047756195 0.8942393 -0.0020539665
v -0.054638214 0.8379894 -0.028176226
v 0.05415741 0.7269573 0.01295284
v -0.06942791 0.78742343 -0.046800878
v 0.025761718 0.6690568 0.004016576
v -0.095468976 0.73540074 -0.054306634
v 0.0028710174 0.6320365 0.016510148
v -0.13382912 0.6707569 -0.031591866
v -0.0071817394 0.60673845 0.037580013
v -0.15646236 0.6038558 0.02319292
v -0.005950966 0.5867051 0.060503934
v -0.14535011 0.5407683 0.091450386
v 0.013013496 0.5622311 0.08796661
v -0.106164165 0.49047226 0.14406784
v 0.044644088 0.53907984 0.106270805
v -0.048150443 0.44556072 0.17798789
v 0.0785025 0.5200259 0.111003675
v 0.024672775 0.4025577 0.18718494
v 0.122795865 0.49695906 0.10184007
v 0.08782112 0.36859107 0.17111072
v 0.16495453 0.47410876 0.076591305
v 0.14087272 0.33866826 0.13639033
v 0.2006578 0.45074126 0.035112903
v 0.17856605 0.31297255 0.090174034
v 0.22207825 0.42900157 -0.015715225
v 0.2010395 0.28903362 0.033947054
v 0.22943908 0.40740192 -0.07376986
v 0.20692894 0.26776516 -0.023821248
v 0.22134864 0.3859949 -0.13511547
v 0.19865142 0.2487389 -0.079029664
v 0.1967614 0.36600724 -0.19177328
v 0.17484932 0.23081815 -0.13058689
v 0.15728156 0.3456169 -0.24522607
v 0.14306198 0.21516937 -0.17255388
v 0.10728401 0.3270662 -0.2854743
v 0.099114686 0.19976677 -0.20655598
v 0.049437866 0.30915835 -0.31500715
v 0.049303282 0.18530399 -0.23038988
v -0.020165976 0.29044876 -0.33200964
v 0.0015164947 0.17331038 -0.24085887
v -0.08700851 0.27382225 -0.33340567
v -0.052588005 0.16073029 -0.24107239
v -0.15346824 0.25776947 -0.3217969
v -0.105359994 0.14888074 -0.23053443
v -0.22389075 0.24062212 -0.2937583
v -0.14786224 0.13938627 -0.21331604
v -0.28104502 0.22573093 -0.25510105
v -0.19159415 0.12895873 -0.18345131
v -0.33050364 0.21135972 -0.20639385
v -0.22873104 0.11910913 -0.14612637
v -0.3706663 0.19749406 -0.1492642
v -0.2581941 0.1098028 -0.102785856
v -0.4002768 0.18412082 -0.08556374
v -0.2792074 0.101008005 -0.054994974
v -0.4184486 0.17122768 -0.017296271
v -0.29130343 0.09269578 -0.004379537
v -0.4246743 0.15880348 0.053453546
v -0.29431677 0.08483955 0.047432646
v -0.41882312 0.14683786 0.124590605
v -0.28836757 0.07741509 0.09886461
v -0.40112484 0.1353215 0.19407505
v -0.2738361 0.070400484 0.148437
v -0.36687744 0.122769296 0.26912642
v -0.25638786 0.06526172 0.18555057
v -0.3259437 0.11217395 0.32885292
v -0.22817568 0.058965486 0.22830306
v -0.2759719 0.10200205 0.38155392
v -0.19372253 0.053014636 0.26607546
v -0.2273444 0.09359278 0.41975084
v -0.14464156 0.046068177 0.30398533
v -0.16415237 0.08421431 0.45602408
v -0.09948303 0.04083956 0.32781914
v -0.09603771 0.0752487 0.48230028
v -0.051394727 0.035927728 0.34460184
v -0.024632568 0.06669368 0.49808887
v -0.0014977646 0.03132295 0.35416636
v 0.048427045 0.058548324 0.5031676
v 0.049133148 0.027017059 0.35652083
v 0.121545024 0.050813302 0.49756682
v 0.099496074 0.023003403 0.35182577
v 0.19320212 0.043491077 0.48154658
v 0.1486805 0.019276887 0.34036762
v 0.2619869 0.036586303 0.45556888
v 0.19588004 0.015833972 0.32253048
v 0.32661825 0.030106343 0.42026687
v 0.2403968 0.012672682 0.29876816
v 0.38596085 0.024061885 0.3764119
v 0.28164092 0.009792384 0.26957685
v 0.43079484 0.019221034 0.33327433
v 0.3264502 0.00650006 0.22626796
v 0.47650513 0.014113568 0.27516884
v 0.3565596 0.0043908176 0.18562259
v 0.5141712 0.009536028 0.21158515
v 0.38156217 0.0026204442 0.1418211
v 0.5433266 0.00555919 0.14365529
v 0.4013346 0.0012245276 0.09549438
v 0.5636633 0.002347023 0.07249903
v 0.4158245 2.7587457E-4 0.047212813
v 0.5742031 2.4160072E-4 0.011026914
v 0.42635673 -3.13179E-4 -0.014293822
vn -0.5314781 -0.3024264 0.7912454
vn -0.52437204 -0.25084275 0.8137026
vn -0.53147817 -0.30242652 0.7912452
vn -0.516862 -0.23829174 0.8222352
vn -0.4654476 -0.066375345 0.88258296
vn -0.45251146 -0.04983203 0.89036524
vn -0.30734327 0.24965471 0.9182661
vn -0.3056511 0.24794012 0.9192949
vn -0.1387072 0.54335415 0.82796526
vn -0.13950413 0.5416274 0.82896227
vn -0.07946732 0.7006913 0.7090251
vn -0.085690156 0.6896876 0.7190189
vn -0.08127435 0.7290039 0.67966735
vn -0.08257757 0.7095076 0.6998429
vn -0.04152018 0.66490155 0.7457762
vn -0.03751276 0.6511652 0.75800836
vn 0.08233675 0.5566878 0.82663137
vn 0.08651673 0.5483358 0.8317709
vn 0.2676822 0.43904 0.85766554
vn 0.29065976 0.4178834 0.8607499
vn 0.48933432 0.31419176 0.81353277
vn 0.5140349 0.28953344 0.80742705
vn 0.69826746 0.18782815 0.6907555
vn 0.71482927 0.16837056 0.67872715
vn 0.8646977 0.06473615 0.4981034
vn 0.87059647 0.053046215 0.48912963
vn 0.9609506 -0.044531018 0.2731132
vn 0.96366805 -0.056096528 0.2611454
vn 0.989199 -0.13963638 0.04457696
vn 0.9880414 -0.1507978 0.03215879
vn 0.9547297 -0.23142251 -0.18690874
vn 0.9502107 -0.24160635 -0.1967893
vn 0.8669295 -0.31239903 -0.3883814
vn 0.85911345 -0.32193863 -0.39784363
vn 0.7386351 -0.38610208 -0.55257887
vn 0.73142314 -0.39386314 -0.5566794
vn 0.58572495 -0.45124924 -0.673276
vn 0.5702475 -0.46280563 -0.6786964
vn 0.42336315 -0.5079297 -0.7501807
vn 0.4018609 -0.5209484 -0.75307405
vn 0.24499567 -0.56378114 -0.7887509
vn 0.22984485 -0.5738545 -0.7860422
vn 0.08749595 -0.6112938 -0.78655225
vn 0.07065181 -0.6217863 -0.77999365
vn -0.057658263 -0.6527876 -0.75534344
vn -0.073483385 -0.66194826 -0.74593884
vn -0.19608997 -0.6943881 -0.6923684
vn -0.20041867 -0.6995204 -0.6859327
vn -0.30389705 -0.73036474 -0.6117303
vn -0.30940363 -0.73668957 -0.6012968
vn -0.383139 -0.7604669 -0.5243039
vn -0.38872206 -0.7682181 -0.5086612
vn -0.44129983 -0.78774536 -0.42978108
vn -0.44509995 -0.79646957 -0.40929493
vn -0.47881043 -0.8124569 -0.33264738
vn -0.47926593 -0.82175475 -0.30825865
vn -0.4969229 -0.8348329 -0.23690003
vn -0.49291408 -0.8443671 -0.20995219
vn -0.497537 -0.85507804 -0.14593965
vn -0.48845518 -0.8645751 -0.11798909
vn -0.4830248 -0.8733731 -0.062502384
vn -0.46877313 -0.88261956 -0.035136636
vn -0.45514876 -0.89029616 0.014575959
vn -0.43816298 -0.8981419 0.036800515
vn -0.41390246 -0.9066029 0.08219427
vn -0.40191555 -0.9111178 0.091259204
vn -0.36863822 -0.9202491 0.13132931
vn -0.36010212 -0.9231397 0.13468373
vn -0.32334897 -0.9313772 0.16727827
vn -0.3101584 -0.9351801 0.17099643
vn -0.27825966 -0.9409636 0.19276677
vn -0.25379702 -0.9465987 0.19884168
vn -0.23027581 -0.9499663 0.21103849
vn -0.20170848 -0.9557197 0.21427427
vn -0.18362583 -0.9582368 0.21923485
vn -0.15637358 -0.96335167 0.21794714
vn -0.1405798 -0.965474 0.21931095
vn -0.115423515 -0.9699809 0.2140431
vn -0.10214525 -0.971763 0.21270429
vn -0.07965167 -0.97570133 0.204114
vn -0.06896339 -0.9771861 0.20087689
vn -0.049484365 -0.9806012 0.18966392
vn -0.041344732 -0.9818232 0.1852403
vn -0.025037533 -0.98476404 0.17208418
vn -0.019316448 -0.98575133 0.1670964
vn -0.0061808596 -0.9882671 0.15260997
vn -0.0026773221 -0.9890442 0.14759552
vn 0.0073980754 -0.9911822 0.1322993
vn 0.007981097 -0.99166006 0.12863345
vn 0.016424596 -0.9936325 0.11146588
vn 0.0152481375 -0.99392587 0.1089907
vn 0.02292829 -0.9958221 0.08838991
vn 0.01920934 -0.99583274 0.08915268
vn 0.024661193 -0.997463 0.06677799
vn 0.01864902 -0.99727386 0.07139379
vn 0.02062338 -0.99854845 0.04975616
vn 0.015636954 -0.99839514 0.054429736
vn 0.014508027 -0.9993144 0.034061942
vn 0.010397047 -0.9991702 0.03937968
vn 0.006948002 -0.999783 0.019642847
vn 0.006443067 -0.99955434 0.029146785
vn 0.002051916 -0.9999486 0.009927946
vt 0.0 0.0
vt 0.02 0.0
vt 0.0 1.0
vt 0.02 1.0
vt 0.04 0.0
vt 0.04 1.0
vt 0.06 0.0
vt 0.06 1.0
vt 0.08 0.0
vt 0.08 1.0
vt 0.099999994 0.0
vt 0.099999994 1.0
vt 0.11999999 0.0
vt 0.11999999 1.0
vt 0.13999999 0.0
vt 0.13999999 1.0
vt 0.15999998 0.0
vt 0.15999998 1.0
vt 0.17999998 0.0
vt 0.17999998 1.0
vt 0.19999997 0.0
vt 0.19999997 1.0
vt 0.21999997 0.0
vt 0.21999997 1.0
vt 0.23999996 0.0
vt 0.23999996 1.0
vt 0.25999996 0.0
vt 0.25999996 1.0
vt 0.27999997 0.0
vt 0.27999997 1.0
vt 0.29999998 0.0
vt 0.29999998 1.0
vt 0.32 0.0
vt 0.32 1.0
vt 0.34 0.0
vt 0.34 1.0
vt 0.36 0.0
vt 0.36 1.0
vt 0.38000003 0.0
vt 0.38000003 1.0
vt 0.40000004 0.0
vt 0.40000004 1.0
vt 0.42000005 0.0
vt 0.42000005 1.0
vt 0.44000006 0.0
vt 0.44000006 1.0
vt 0.46000007 0.0
vt 0.46000007 1.0
vt 0.48000008 0.0
vt 0.48000008 1.0
vt 0.50000006 0.0
vt 0.50000006 1.0
vt 0.52000004 0.0
vt 0.52000004 1.0
vt 0.54 0.0
vt 0.54 1.0
vt 0.56 0.0
vt 0.56 1.0
vt 0.58 0.0
vt 0.58 1.0
vt 0.59999996 0.0
vt 0.59999996 1.0
vt 0.61999995 0.0
vt 0.61999995 1.0
vt 0.6399999 0.0
vt 0.6399999 1.0
vt 0.6599999 0.0
vt 0.6599999 1.0
vt 0.6799999 0.0
vt 0.6799999 1.0
vt 0.69999987 0.0
vt 0.69999987 1.0
vt 0.71999985 0.0
vt 0.71999985 1.0
vt 0.73999983 0.0
vt 0.73999983 1.0
vt 0.7599998 0.0
vt 0.7599998 1.0
vt 0.7799998 0.0
vt 0.7799998 1.0
vt 0.7999998 0.0
vt 0.7999998 1.0
vt 0.81999975 0.0
vt 0.81999975 1.0
vt 0.83999974 0.0
vt 0.83999974 1.0
vt 0.8599997 0.0
vt 0.8599997 1.0
vt 0.8799997 0.0
vt 0.8799997 1.0
vt 0.8999997 0.0
vt 0.8999997 1.0
vt 0.91999966 0.0
vt 0.91999966 1.0
vt 0.93999964 0.0
vt 0.93999964 1.0
vt 0.9599996 0.0
vt 0.9599996 1.0
vt 0.9799996 0.0
vt 0.9799996 1.0
vt 0.9999996 0.0
vt 0.9999996 1.0

g Plane001
s 1
usemtl Plane001
f 3/3/3 2/2/2 1/1/1 
f 2/2/2 3/3/3 4/4/4 
f 4/4/4 5/5/5 2/2/2 
f 5/5/5 4/4/4 6/6/6 
f 6/6/6 7/7/7 5/5/5 
f 7/7/7 6/6/6 8/8/8 
f 8/8/8 9/9/9 7/7/7 
f 9/9/9 8/8/8 10/10/10 
f 10/10/10 11/11/11 9/9/9 
f 11/11/11 10/10/10 12/12/12 
f 12/12/12 13/13/13 11/11/11 
f 13/13/13 12/12/12 14/14/14 
f 14/14/14 15/15/15 13/13/13 
f 15/15/15 14/14/14 16/16/16 
f 16/16/16 17/17/17 15/15/15 
f 17/17/17 16/16/16 18/18/18 
f 18/18/18 19/19/19 17/17/17 
f 19/19/19 18/18/18 20/20/20 
f 20/20/20 21/21/21 19/19/19 
f 21/21/21 20/20/20 22/22/22 
f 22/22/22 23/23/23 21/21/21 
f 23/23/23 22/22/22 24/24/24 
f 24/24/24 25/25/25 23/23/23 
f 25/25/25 24/24/24 26/26/26 
f 26/26/26 27/27/27 25/25/25 
f 27/27/27 26/26/26 28/28/28 
f 28/28/28 29/29/29 27/27/27 
f 29/29/29 28/28/28 30/30/30 
f 30/30/30 31/31/31 29/29/29 
f 31/31/31 30/30/30 32/32/32 
f 32/32/32 33/33/33 31/31/31 
f 33/33/33 32/32/32 34/34/34 
f 34/34/34 35/35/35 33/33/33 
f 35/35/35 34/34/34 36/36/36 
f 36/36/36 37/37/37 35/35/35 
f 37/37/37 36/36/36 38/38/38 
f 38/38/38 39/39/39 37/37/37 
f 39/39/39 38/38/38 40/40/40 
f 40/40/40 41/41/41 39/39/39 
f 41/41/41 40/40/40 42/42/42 
f 42/42/42 43/43/43 41/41/41 
f 43/43/43 42/42/42 44/44/44 
f 44/44/44 45/45/45 43/43/43 
f 45/45/45 44/44/44 46/46/46 
f 46/46/46 47/47/47 45/45/45 
f 47/47/47 46/46/46 48/48/48 
f 48/48/48 49/49/49 47/47/47 
f 49/49/49 48/48/48 50/50/50 
f 50/50/50 51/51/51 49/49/49 
f 51/51/51 50/50/50 52/52/52 
f 52/52/52 53/53/53 51/51/51 
f 53/53/53 52/52/52 54/54/54 
f 54/54/54 55/55/55 53/53/53 
f 55/55/55 54/54/54 56/56/56 
f 56/56/56 57/57/57 55/55/55 
f 57/57/57 56/56/56 58/58/58 
f 58/58/58 59/59/59 57/57/57 
f 59/59/59 58/58/58 60/60/60 
f 60/60/60 61/61/61 59/59/59 
f 61/61/61 60/60/60 62/62/62 
f 62/62/62 63/63/63 61/61/61 
f 63/63/63 62/62/62 64/64/64 
f 64/64/64 65/65/65 63/63/63 
f 65/65/65 64/64/64 66/66/66 
f 66/66/66 67/67/67 65/65/65 
f 67/67/67 66/66/66 68/68/68 
f 68/68/68 69/69/69 67/67/67 
f 69/69/69 68/68/68 70/70/70 
f 70/70/70 71/71/71 69/69/69 
f 71/71/71 70/70/70 72/72/72 
f 72/72/72 73/73/73 71/71/71 
f 73/73/73 72/72/72 74/74/74 
f 74/74/74 75/75/75 73/73/73 
f 75/75/75 74/74/74 76/76/76 
f 76/76/76 77/77/77 75/75/75 
f 77/77/77 76/76/76 78/78/78 
f 78/78/78 79/79/79 77/77/77 
f 79/79/79 78/78/78 80/80/80 
f 80/80/80 81/81/81 79/79/79 
f 81/81/81 80/80/80 82/82/82 
f 82/82/82 83/83/83 81/81/81 
f 83/83/83 82/82/82 84/84/84 
f 84/84/84 85/85/85 83/83/83 
f 85/85/85 84/84/84 86/86/86 
f 86/86/86 87/87/87 85/85/85 
f 87/87/87 86/86/86 88/88/88 
f 88/88/88 89/89/89 87/87/87 
f 89/89/89 88/88/88 90/90/90 
f 90/90/90 91/91/91 89/89/89 
f 91/91/91 90/90/90 92/92/92 
f 92/92/92 93/93/93 91/91/91 
f 93/93/93 92/92/92 94/94/94 
f 94/94/94 95/95/95 93/93/93 
f 95/95/95 94/94/94 96/96/96 
f 96/96/96 97/97/97 95/95/95 
f 97/97/97 96/96/96 98/98/98 
f 98/98/98 99/99/99 97/97/97 
f 99/99/99 98/98/98 100/100/100 
f 100/100/100 101/101/101 99/99/99 
f 101/101/101 100/100/100 102/102/102 

