# Created by DisUnity v0.3.4
v -0.11329225 -0.040275335 0.0
v -0.09176368 -0.040275335 0.0
v -0.10977941 -0.057465762 0.0
v -0.09176368 -0.02013767 0.0
v -0.11329225 -0.02013767 0.0
v -0.09176368 -4.7683715E-9 0.0
v -0.11329225 -4.7683715E-9 0.0
v -0.09176368 0.02013766 0.0
v -0.11329225 0.02013766 0.0
v -0.09176368 0.040275324 0.0
v -0.11329225 0.040275324 0.0
v -0.10977941 0.05673271 0.0
v -0.09176368 0.060412988 0.0
v -0.068822764 0.060412988 0.0
v -0.068822764 0.040275324 0.0
v -0.09176368 -0.060412996 0.0
v -0.068822764 -0.040275335 0.0
v -0.068822764 -0.060412996 0.0
v -0.04588184 -0.060412996 0.0
v -0.04588184 -0.040275335 0.0
v -0.02294092 -0.040275335 0.0
v -0.02294092 -0.060412996 0.0
v -0.0 -0.060412996 0.0
v -0.0 -0.040275335 0.0
v 0.02294092 -0.040275335 0.0
v 0.02294092 -0.060412996 0.0
v 0.04588184 -0.060412996 0.0
v 0.04588184 -0.040275335 0.0
v 0.068822764 -0.040275335 0.0
v 0.068822764 -0.060412996 0.0
v 0.09176368 -0.060412996 0.0
v 0.09176368 -0.040275335 0.0
v 0.109112725 -0.056736697 0.0
v 0.11262556 -0.040275335 0.0
v 0.11262556 -0.02013767 0.0
v 0.09176368 -0.02013767 0.0
v 0.11262556 -4.7683715E-9 0.0
v 0.09176368 -4.7683715E-9 0.0
v 0.11262556 0.02013766 0.0
v 0.09176368 0.02013766 0.0
v 0.11262556 0.040275324 0.0
v 0.09176368 0.040275324 0.0
v 0.109112725 0.05645662 0.0
v 0.09176368 0.060412988 0.0
v 0.068822764 0.060412988 0.0
v 0.068822764 0.040275324 0.0
v 0.04588184 0.040275324 0.0
v 0.04588184 0.060412988 0.0
v 0.02294092 0.060412988 0.0
v 0.02294092 0.040275324 0.0
v -0.0 0.040275324 0.0
v -0.0 0.060412988 0.0
v -0.02294092 0.060412988 0.0
v -0.02294092 0.040275324 0.0
v -0.04588184 0.040275324 0.0
v -0.04588184 0.060412988 0.0
vn -0.0 0.0 1.0
vn -0.0 0.0 1.0
vn -0.0 0.0 1.0
vn -0.0 0.0 1.0
vn -0.0 0.0 1.0
vn -0.0 0.0 1.0
vn -0.0 0.0 1.0
vn -0.0 0.0 1.0
vn -0.0 0.0 1.0
vn -0.0 0.0 1.0
vn -0.0 0.0 1.0
vn -0.0 0.0 1.0
vn -0.0 0.0 1.0
vn -0.0 0.0 1.0
vn -0.0 0.0 1.0
vn -0.0 0.0 1.0
vn -0.0 0.0 1.0
vn -0.0 0.0 1.0
vn -0.0 0.0 1.0
vn -0.0 0.0 1.0
vn -0.0 0.0 1.0
vn -0.0 0.0 1.0
vn -0.0 0.0 1.0
vn -0.0 0.0 1.0
vn -0.0 0.0 1.0
vn -0.0 0.0 1.0
vn -0.0 0.0 1.0
vn -0.0 0.0 1.0
vn -0.0 0.0 1.0
vn -0.0 0.0 1.0
vn -0.0 0.0 1.0
vn -0.0 0.0 1.0
vn -0.0 0.0 1.0
vn -0.0 0.0 1.0
vn -0.0 0.0 1.0
vn -0.0 0.0 1.0
vn -0.0 0.0 1.0
vn -0.0 0.0 1.0
vn -0.0 0.0 1.0
vn -0.0 0.0 1.0
vn -0.0 0.0 1.0
vn -0.0 0.0 1.0
vn -0.0 0.0 1.0
vn -0.0 0.0 1.0
vn -0.0 0.0 1.0
vn -0.0 0.0 1.0
vn -0.0 0.0 1.0
vn -0.0 0.0 1.0
vn -0.0 0.0 1.0
vn -0.0 0.0 1.0
vn -0.0 0.0 1.0
vn -0.0 0.0 1.0
vn -0.0 0.0 1.0
vn -0.0 0.0 1.0
vn -0.0 0.0 1.0
vn -0.0 0.0 1.0
vt 0.0 0.8333333
vt 0.16666667 0.8333333
vt 0.0 1.0
vt 0.16666667 0.6666666
vt 0.0 0.6666666
vt 0.16666667 0.5
vt 0.0 0.5
vt 0.16666667 0.3333333
vt 0.0 0.3333333
vt 0.16666667 0.16666663
vt 0.0 0.16666663
vt 0.0 0.0
vt 0.16666667 0.0
vt 0.25 0.0
vt 0.25 0.16666663
vt 0.16666667 1.0
vt 0.25 0.8333333
vt 0.25 1.0
vt 0.33333334 1.0
vt 0.33333334 0.8333333
vt 0.4166667 0.8333333
vt 0.4166667 1.0
vt 0.5 1.0
vt 0.5 0.8333333
vt 0.5833334 0.8333333
vt 0.5833334 1.0
vt 0.6666667 1.0
vt 0.6666667 0.8333333
vt 0.75 0.8333333
vt 0.75 1.0
vt 0.8333334 1.0
vt 0.8333334 0.8333333
vt 1.0 1.0
vt 1.0 0.8333333
vt 1.0 0.6666666
vt 0.8333334 0.6666666
vt 1.0 0.5
vt 0.8333334 0.5
vt 1.0 0.3333333
vt 0.8333334 0.3333333
vt 1.0 0.16666663
vt 0.8333334 0.16666663
vt 1.0 0.0
vt 0.8333334 0.0
vt 0.75 0.0
vt 0.75 0.16666663
vt 0.6666667 0.16666663
vt 0.6666667 0.0
vt 0.5833334 0.0
vt 0.5833334 0.16666663
vt 0.5 0.16666663
vt 0.5 0.0
vt 0.4166667 0.0
vt 0.4166667 0.16666663
vt 0.33333334 0.16666663
vt 0.33333334 0.0

g Plane001
s 1
usemtl Plane001
f 3/3/3 2/2/2 1/1/1 
f 2/2/2 4/4/4 1/1/1 
f 5/5/5 1/1/1 4/4/4 
f 4/4/4 6/6/6 5/5/5 
f 7/7/7 5/5/5 6/6/6 
f 6/6/6 8/8/8 7/7/7 
f 9/9/9 7/7/7 8/8/8 
f 8/8/8 10/10/10 9/9/9 
f 11/11/11 9/9/9 10/10/10 
f 11/11/11 10/10/10 12/12/12 
f 10/10/10 13/13/13 12/12/12 
f 13/13/13 10/10/10 14/14/14 
f 15/15/15 14/14/14 10/10/10 
f 16/16/16 2/2/2 3/3/3 
f 2/2/2 16/16/16 17/17/17 
f 18/18/18 17/17/17 16/16/16 
f 18/18/18 19/19/19 17/17/17 
f 20/20/20 17/17/17 19/19/19 
f 20/20/20 19/19/19 21/21/21 
f 22/22/22 21/21/21 19/19/19 
f 22/22/22 23/23/23 21/21/21 
f 24/24/24 21/21/21 23/23/23 
f 24/24/24 23/23/23 25/25/25 
f 26/26/26 25/25/25 23/23/23 
f 26/26/26 27/27/27 25/25/25 
f 28/28/28 25/25/25 27/27/27 
f 28/28/28 27/27/27 29/29/29 
f 30/30/30 29/29/29 27/27/27 
f 30/30/30 31/31/31 29/29/29 
f 32/32/32 29/29/29 31/31/31 
f 31/31/31 33/33/33 32/32/32 
f 33/33/33 34/34/34 32/32/32 
f 34/34/34 35/35/35 32/32/32 
f 36/36/36 32/32/32 35/35/35 
f 35/35/35 37/37/37 36/36/36 
f 38/38/38 36/36/36 37/37/37 
f 37/37/37 39/39/39 38/38/38 
f 40/40/40 38/38/38 39/39/39 
f 39/39/39 41/41/41 40/40/40 
f 42/42/42 40/40/40 41/41/41 
f 41/41/41 43/43/43 42/42/42 
f 42/42/42 43/43/43 44/44/44 
f 44/44/44 45/45/45 42/42/42 
f 46/46/46 42/42/42 45/45/45 
f 46/46/46 45/45/45 47/47/47 
f 48/48/48 47/47/47 45/45/45 
f 48/48/48 49/49/49 47/47/47 
f 50/50/50 47/47/47 49/49/49 
f 50/50/50 49/49/49 51/51/51 
f 52/52/52 51/51/51 49/49/49 
f 52/52/52 53/53/53 51/51/51 
f 54/54/54 51/51/51 53/53/53 
f 54/54/54 53/53/53 55/55/55 
f 56/56/56 55/55/55 53/53/53 
f 56/56/56 14/14/14 55/55/55 
f 15/15/15 55/55/55 14/14/14 

