# Created by DisUnity v0.3.4
v 0.26019832 0.07421601 0.051057823
v 0.2600206 0.07559662 -0.049715452
v 0.27510786 -0.004931216 0.050367445
v 0.27510786 -0.00442729 -0.050414197
v 0.22263338 0.14821628 -0.047766354
v 0.22356203 0.1452311 0.05296803
v 0.16524206 0.20639446 -0.044573028
v 0.16754954 0.20194288 0.05608506
v 0.092814475 0.24454445 -0.040130902
v 0.09726791 0.23891944 0.0603963
v 0.011969895 0.25868878 -0.03441564
v 0.019415526 0.2525034 0.06590133
v -0.06954319 0.24699397 -0.02739085
v -0.058331627 0.24130014 0.07260452
v -0.14355063 0.21012561 -0.019011196
v -0.12809497 0.20645387 0.08051184
v -0.20227593 0.151364 -0.009223933
v -0.18265176 0.15164968 0.08962949
v -0.23920111 0.07643765 0.0020301675
v -0.21627471 0.08281784 0.09996313
v -0.24986276 -0.0069353124 0.014816017
v -0.22544646 0.00755321 0.1115172
v -0.23076408 -0.09201332 0.029730953
v -0.20957573 -0.06287194 0.12385335
v -0.18492872 -0.1640001 0.0459803
v -0.17057684 -0.12498342 0.13778941
v -0.11718025 -0.21667148 0.06401215
v -0.113706596 -0.16937974 0.15294255
v -0.03508394 -0.24343318 0.08390649
v -0.046131838 -0.19108105 0.1693137
v 0.056216106 -0.23910908 0.1069791
v 0.019039176 -0.18837202 0.18572433
v 0.1362898 -0.20338483 0.13114643
v 0.0814134 -0.16124803 0.20442851
v 0.19914457 -0.14182606 0.15743169
v 0.12893277 -0.11448273 0.22436327
v 0.2374624 -0.055917013 0.1879375
v 0.15355487 -0.060302217 0.24359258
v 0.24052326 0.032569338 0.2190007
v 0.15623198 0.0034512638 0.26595074
v 0.21197926 0.11622934 0.25233132
v 0.13527574 0.062553555 0.28964987
v 0.1490625 0.18671133 0.2908559
v 0.09759712 0.10271365 0.3121374
v 0.07081669 0.22534582 0.32903755
v 0.042909715 0.12899105 0.33874068
v -0.021472067 0.23005012 0.37263474
v -0.010721999 0.1302066 0.36409628
v -0.105880074 0.1985078 0.41836032
v -0.061496258 0.11216365 0.39130566
v -0.16470541 0.14150374 0.4629355
v -0.10467075 0.0705721 0.42392612
v -0.19676355 0.06422603 0.51183283
v -0.1257067 0.019054696 0.4564463
v -0.19467027 -0.0146921 0.56126934
v -0.12496125 -0.038979787 0.49265483
v -0.16304787 -0.079152174 0.60949534
v -0.097573385 -0.09498898 0.5345321
v -0.11019639 -0.123277806 0.65912247
v -0.049677677 -0.13450083 0.57931817
v -0.048748307 -0.14064246 0.708271
v 0.012201948 -0.15192154 0.6288038
v -0.25790337 -0.07964215 0.0511374
v -0.25771734 -0.08102442 -0.049635842
v -0.27439708 -8.202587E-4 0.05039613
v -0.27439708 -0.0013248954 -0.050385494
v -0.2179988 -0.15250339 -0.047585685
v -0.21895614 -0.14951226 0.05314826
v -0.15863864 -0.20878644 -0.04427619
v -0.16100599 -0.20432514 0.05638008
v -0.08481984 -0.24434024 -0.03968927
v -0.08937915 -0.2387099 0.06083287
v -0.0034023684 -0.25530267 -0.033787318
v -0.0110153835 -0.24913503 0.06651818
v 0.0776196 -0.24004637 -0.026519837
v 0.06616815 -0.23442496 0.073452435
v 0.14986108 -0.19955428 -0.01782609
v 0.13409425 -0.19605374 0.08165428
v 0.20601451 -0.13589793 -0.0073928162
v 0.1842033 -0.13938187 0.0909399
v 0.23704876 -0.057955135 0.004500551
v 0.21275136 -0.06880802 0.10170674
v 0.24021499 0.026278159 0.018083744
v 0.21582678 0.006225821 0.113793254
v 0.21453203 0.10706079 0.03345129
v 0.193376 0.076766945 0.12721641
v 0.16241607 0.1746327 0.05070365
v 0.148466 0.13427368 0.14199294
v 0.08550988 0.22061414 0.07093515
v 0.09004189 0.1689025 0.15732124
v 9.4187395E-5 0.23520868 0.09258907
v 0.021164859 0.18082593 0.17478234
v -0.089934185 0.21642886 0.11792886
v -0.041362565 0.16870983 0.19223149
v -0.1623058 0.16675615 0.1445703
v -0.09669234 0.13145149 0.21243519
v -0.21412162 0.0886299 0.1757474
v -0.13074698 0.08267601 0.2320538
v -0.2295298 0.0018544343 0.20787236
v -0.14245114 0.020217413 0.25517246
v -0.20869057 -0.0899082 0.24537423
v -0.13091746 -0.034311462 0.2772731
v -0.15679109 -0.15993325 0.28323057
v -0.09470425 -0.08323565 0.3037219
v -0.076366834 -0.20519277 0.32704052
v -0.04774663 -0.108581044 0.32910243
v 0.013431924 -0.21193194 0.37375873
v 0.0051310146 -0.11297516 0.35655865
v 0.09432876 -0.18053015 0.42289686
v 0.055667758 -0.094753474 0.38677374
v 0.14817427 -0.12374599 0.4711151
v 0.09636613 -0.05173062 0.42329365
v 0.17195888 -0.049342588 0.5237034
v 0.11194306 0.0018353268 0.46096495
v 0.16066822 0.02169632 0.5767166
v 0.1019248 0.058927808 0.5037768
v 0.122152224 0.07435201 0.62939584
v 0.06588631 0.10730336 0.5525483
v 0.06969683 0.10022358 0.68120927
v 0.00988956 0.13478553 0.6078216
v 0.017526729 0.098644525 0.7320222
v -0.053695872 0.13326307 0.66968375
v -0.022985216 0.07513657 0.7822313
v -0.10918036 0.10230972 0.7376307
vn 0.94563055 0.32522917 0.0029824588
vn 0.9458636 0.3245523 0.0028134938
vn 0.9827046 0.1851785 8.565055E-4
vn 0.98268867 0.18526252 9.265219E-4
vn 0.80997694 0.5863812 0.009717517
vn 0.8094644 0.58708256 0.010076135
vn 0.5968082 0.8020917 0.021652063
vn 0.5961816 0.8025499 0.021937408
vn 0.32536015 0.9448124 0.03834306
vn 0.32461572 0.9450578 0.03860702
vn 0.020342652 0.99799585 0.05991971
vn 0.019410735 0.9979954 0.060237426
vn -0.28841898 0.95358956 0.08649564
vn -0.2896622 0.95316684 0.08699841
vn -0.5689943 0.81381017 0.11814599
vn -0.5706157 0.8125423 0.119049184
vn -0.7910576 0.5918098 0.1548839
vn -0.79283655 0.5889948 0.15651
vn -0.9298715 0.31092474 0.19663373
vn -0.930996 0.30573925 0.19942446
vn -0.96975154 -0.003751662 0.24406525
vn -0.9690906 -0.010541581 0.2464798
vn -0.9000542 -0.31586683 0.30021754
vn -0.9019512 -0.31227583 0.29827476
vn -0.7376776 -0.5714461 0.3595569
vn -0.74019086 -0.5696003 0.35731375
vn -0.50724137 -0.75234425 0.4203385
vn -0.5056464 -0.7529543 0.42116702
vn -0.23577167 -0.84224373 0.48480642
vn -0.23046777 -0.84317356 0.4857397
vn 0.045013085 -0.82942337 0.556804
vn 0.03725224 -0.8329086 0.5521553
vn 0.27361208 -0.729789 0.6265337
vn 0.27215546 -0.7316411 0.6250061
vn 0.4368779 -0.5742412 0.6923761
vn 0.43984437 -0.5708922 0.69326687
vn 0.52297324 -0.38752028 0.759162
vn 0.5228819 -0.3942857 0.7557336
vn 0.5320127 -0.22756237 0.81558436
vn 0.53167164 -0.22707821 0.8159416
vn 0.49726546 -0.11059243 0.86052096
vn 0.4918897 -0.105237916 0.864274
vn 0.44700986 -0.046055898 0.8933426
vn 0.44444707 -0.04588155 0.8946293
vn 0.4254418 -0.031967703 0.9044209
vn 0.42547104 -0.031843588 0.9044117
vn 0.45456517 -0.027411085 0.89029163
vn 0.45432773 -0.028410655 0.89038146
vn 0.5326493 0.009647874 0.84628105
vn 0.52817655 0.005170185 0.8491188
vn 0.627724 0.10758929 0.770965
vn 0.6287994 0.10979664 0.76977664
vn 0.69605404 0.2865356 0.6583359
vn 0.69653714 0.281156 0.6601419
vn 0.6831394 0.51989573 0.5128636
vn 0.6875125 0.5088834 0.51803887
vn 0.56844383 0.7499361 0.33833036
vn 0.5678284 0.7501156 0.3389654
vn 0.3616271 0.9212338 0.14336756
vn 0.36216158 0.92070705 0.14538719
vn 0.2381429 0.9702105 0.044491824
vn 0.2375885 0.970346 0.04450227
vn -0.9368038 -0.34983867 0.0033813745
vn -0.93718874 -0.34880912 0.0030609355
vn -0.9787992 -0.20481959 0.0010123193
vn -0.97879595 -0.20483533 0.0010254859
vn -0.79048574 -0.6123927 0.010362443
vn -0.78958774 -0.61353904 0.010996383
vn -0.5687385 -0.82220274 0.022786375
vn -0.56747746 -0.82305545 0.023432504
vn -0.2897972 -0.9562468 0.04012057
vn -0.28806666 -0.9567369 0.04089111
vn 0.020579332 -0.9978294 0.06255368
vn 0.022931168 -0.9977118 0.06360444
vn 0.33121508 -0.9392296 0.09024518
vn 0.33429733 -0.9379846 0.091815665
vn 0.6115919 -0.78144884 0.12366528
vn 0.61430126 -0.7791864 0.12450884
vn 0.8289411 -0.5343866 0.1651896
vn 0.827033 -0.5379672 0.16311878
vn 0.9486991 -0.23440713 0.21218722
vn 0.94834095 -0.23808682 0.20967595
vn 0.9611246 0.08354732 0.26317182
vn 0.96139723 0.08282826 0.26240212
vn 0.86715215 0.3823706 0.3191234
vn 0.86504537 0.38545707 0.321122
vn 0.6754642 0.6313506 0.38097858
vn 0.66812277 0.63692516 0.38462752
vn 0.40832636 0.79287153 0.45235407
vn 0.4099379 0.792141 0.45217642
vn 0.12736645 0.84168667 0.5247297
vn 0.12683745 0.8433046 0.5222543
vn -0.1434854 0.7859528 0.6014067
vn -0.13405636 0.7926437 0.59476453
vn -0.3462961 0.6510771 0.67540914
vn -0.34642315 0.6555653 0.6709882
vn -0.4675062 0.47288254 0.7468735
vn -0.46606037 0.48563468 0.7395585
vn -0.50261605 0.3051114 0.80887824
vn -0.5044333 0.3056954 0.8075254
vn -0.48028025 0.18098332 0.85824
vn -0.48312506 0.18463974 0.8558612
vn -0.44368502 0.12205145 0.88783276
vn -0.44254345 0.12121405 0.888517
vn -0.4398719 0.11107635 0.8911648
vn -0.43915638 0.11149353 0.89146554
vn -0.49949983 0.10720927 0.85965466
vn -0.4954145 0.110385045 0.86161447
vn -0.61245257 0.05412161 0.7886524
vn -0.6059142 0.060725547 0.79320896
vn -0.7336388 -0.0793811 0.6748872
vn -0.7356916 -0.089158915 0.6714228
vn -0.8026499 -0.30931017 0.50998074
vn -0.79955834 -0.32091063 0.507664
vn -0.75442725 -0.5794742 0.30830044
vn -0.7508281 -0.5838259 0.30887616
vn -0.5854503 -0.8066744 0.08077421
vn -0.58571994 -0.806191 0.08359516
vn -0.3491949 -0.9247396 -0.15139166
vn -0.3549036 -0.9233057 -0.1467992
vn -0.13210161 -0.9234193 -0.36034137
vn -0.14139113 -0.92433894 -0.3544093
vn -0.04465833 -0.89252985 -0.44877177
vn -0.04992026 -0.8928809 -0.44751722
vt 0.96666676 0.9999998
vt 0.9666669 -2.3841858E-7
vt 1.0000001 0.9999998
vt 1.0000002 -2.3841858E-7
vt 0.9333335 -2.3841858E-7
vt 0.93333346 0.9999998
vt 0.9000002 -2.3841858E-7
vt 0.9000001 0.9999998
vt 0.86666685 -2.3841858E-7
vt 0.8666668 0.9999998
vt 0.8333335 -2.3841858E-7
vt 0.83333343 0.9999998
vt 0.8000002 -2.3841858E-7
vt 0.80000013 0.9999998
vt 0.7666669 -2.3841858E-7
vt 0.76666677 0.9999998
vt 0.7333335 -2.3841858E-7
vt 0.73333347 0.9999998
vt 0.70000017 -2.3841858E-7
vt 0.7000001 0.9999998
vt 0.66666687 -2.3841858E-7
vt 0.66666675 0.9999998
vt 0.63333356 -2.3841858E-7
vt 0.63333344 0.9999998
vt 0.6000002 -2.3841858E-7
vt 0.60000014 0.99999976
vt 0.56666684 -2.3841858E-7
vt 0.5666668 0.99999976
vt 0.53333354 -2.3841858E-7
vt 0.5333334 0.99999976
vt 0.50000024 -2.3841858E-7
vt 0.5000001 0.99999976
vt 0.46666682 -2.3841858E-7
vt 0.46666676 0.99999976
vt 0.43333346 -2.3841858E-7
vt 0.4333334 0.99999976
vt 0.4000001 -2.3841858E-7
vt 0.40000004 0.99999976
vt 0.36666673 -2.3841858E-7
vt 0.36666667 0.99999976
vt 0.33333337 -2.3841858E-7
vt 0.3333333 0.99999976
vt 0.3 -2.3841858E-7
vt 0.29999995 0.99999976
vt 0.26666665 -2.3841858E-7
vt 0.2666666 0.99999976
vt 0.23333329 -2.3841858E-7
vt 0.23333323 0.99999976
vt 0.19999993 -2.3841858E-7
vt 0.19999987 0.99999976
vt 0.16666657 -2.3841858E-7
vt 0.16666651 0.99999976
vt 0.1333332 -2.3841858E-7
vt 0.13333315 0.99999976
vt 0.099999845 -2.3841858E-7
vt 0.099999785 0.99999976
vt 0.066666484 -2.3841858E-7
vt 0.066666424 0.99999976
vt 0.033333123 -2.3841858E-7
vt 0.033333063 0.99999976
vt -1.1920929E-7 -2.3841858E-7
vt -2.3841858E-7 0.99999976
vt 0.96666676 0.9999998
vt 0.9666669 -2.3841858E-7
vt 1.0000001 0.9999998
vt 1.0000002 -2.3841858E-7
vt 0.9333335 -2.3841858E-7
vt 0.93333346 0.9999998
vt 0.9000002 -2.3841858E-7
vt 0.9000001 0.9999998
vt 0.86666685 -2.3841858E-7
vt 0.8666668 0.9999998
vt 0.8333335 -2.3841858E-7
vt 0.83333343 0.9999998
vt 0.8000002 -2.3841858E-7
vt 0.80000013 0.9999998
vt 0.7666669 -2.3841858E-7
vt 0.76666677 0.9999998
vt 0.7333335 -2.3841858E-7
vt 0.73333347 0.9999998
vt 0.70000017 -2.3841858E-7
vt 0.7000001 0.9999998
vt 0.66666687 -2.3841858E-7
vt 0.66666675 0.9999998
vt 0.63333356 -2.3841858E-7
vt 0.63333344 0.9999998
vt 0.6000002 -2.3841858E-7
vt 0.60000014 0.99999976
vt 0.56666684 -2.3841858E-7
vt 0.5666668 0.99999976
vt 0.53333354 -2.3841858E-7
vt 0.5333334 0.99999976
vt 0.50000024 -2.3841858E-7
vt 0.5000001 0.99999976
vt 0.46666682 -2.3841858E-7
vt 0.46666676 0.99999976
vt 0.43333346 -2.3841858E-7
vt 0.4333334 0.99999976
vt 0.4000001 -2.3841858E-7
vt 0.40000004 0.99999976
vt 0.36666673 -2.3841858E-7
vt 0.36666667 0.99999976
vt 0.33333337 -2.3841858E-7
vt 0.3333333 0.99999976
vt 0.3 -2.3841858E-7
vt 0.29999995 0.99999976
vt 0.26666665 -2.3841858E-7
vt 0.2666666 0.99999976
vt 0.23333329 -2.3841858E-7
vt 0.23333323 0.99999976
vt 0.19999993 -2.3841858E-7
vt 0.19999987 0.99999976
vt 0.16666657 -2.3841858E-7
vt 0.16666651 0.99999976
vt 0.1333332 -2.3841858E-7
vt 0.13333315 0.99999976
vt 0.099999845 -2.3841858E-7
vt 0.099999785 0.99999976
vt 0.066666484 -2.3841858E-7
vt 0.066666424 0.99999976
vt 0.033333123 -2.3841858E-7
vt 0.033333063 0.99999976
vt -1.1920929E-7 -2.3841858E-7
vt -2.3841858E-7 0.99999976

g Plane002
s 1
usemtl Plane002
f 3/3/3 2/2/2 1/1/1 
f 2/2/2 3/3/3 4/4/4 
f 5/5/5 1/1/1 2/2/2 
f 1/1/1 5/5/5 6/6/6 
f 7/7/7 6/6/6 5/5/5 
f 6/6/6 7/7/7 8/8/8 
f 9/9/9 8/8/8 7/7/7 
f 8/8/8 9/9/9 10/10/10 
f 11/11/11 10/10/10 9/9/9 
f 10/10/10 11/11/11 12/12/12 
f 13/13/13 12/12/12 11/11/11 
f 12/12/12 13/13/13 14/14/14 
f 15/15/15 14/14/14 13/13/13 
f 14/14/14 15/15/15 16/16/16 
f 17/17/17 16/16/16 15/15/15 
f 16/16/16 17/17/17 18/18/18 
f 19/19/19 18/18/18 17/17/17 
f 18/18/18 19/19/19 20/20/20 
f 21/21/21 20/20/20 19/19/19 
f 20/20/20 21/21/21 22/22/22 
f 23/23/23 22/22/22 21/21/21 
f 22/22/22 23/23/23 24/24/24 
f 25/25/25 24/24/24 23/23/23 
f 24/24/24 25/25/25 26/26/26 
f 27/27/27 26/26/26 25/25/25 
f 26/26/26 27/27/27 28/28/28 
f 29/29/29 28/28/28 27/27/27 
f 28/28/28 29/29/29 30/30/30 
f 31/31/31 30/30/30 29/29/29 
f 30/30/30 31/31/31 32/32/32 
f 33/33/33 32/32/32 31/31/31 
f 32/32/32 33/33/33 34/34/34 
f 35/35/35 34/34/34 33/33/33 
f 34/34/34 35/35/35 36/36/36 
f 37/37/37 36/36/36 35/35/35 
f 36/36/36 37/37/37 38/38/38 
f 39/39/39 38/38/38 37/37/37 
f 38/38/38 39/39/39 40/40/40 
f 41/41/41 40/40/40 39/39/39 
f 40/40/40 41/41/41 42/42/42 
f 43/43/43 42/42/42 41/41/41 
f 42/42/42 43/43/43 44/44/44 
f 45/45/45 44/44/44 43/43/43 
f 44/44/44 45/45/45 46/46/46 
f 47/47/47 46/46/46 45/45/45 
f 46/46/46 47/47/47 48/48/48 
f 49/49/49 48/48/48 47/47/47 
f 48/48/48 49/49/49 50/50/50 
f 51/51/51 50/50/50 49/49/49 
f 50/50/50 51/51/51 52/52/52 
f 53/53/53 52/52/52 51/51/51 
f 52/52/52 53/53/53 54/54/54 
f 55/55/55 54/54/54 53/53/53 
f 54/54/54 55/55/55 56/56/56 
f 57/57/57 56/56/56 55/55/55 
f 56/56/56 57/57/57 58/58/58 
f 59/59/59 58/58/58 57/57/57 
f 58/58/58 59/59/59 60/60/60 
f 61/61/61 60/60/60 59/59/59 
f 60/60/60 61/61/61 62/62/62 
f 65/65/65 64/64/64 63/63/63 
f 64/64/64 65/65/65 66/66/66 
f 67/67/67 63/63/63 64/64/64 
f 63/63/63 67/67/67 68/68/68 
f 69/69/69 68/68/68 67/67/67 
f 68/68/68 69/69/69 70/70/70 
f 71/71/71 70/70/70 69/69/69 
f 70/70/70 71/71/71 72/72/72 
f 73/73/73 72/72/72 71/71/71 
f 72/72/72 73/73/73 74/74/74 
f 75/75/75 74/74/74 73/73/73 
f 74/74/74 75/75/75 76/76/76 
f 77/77/77 76/76/76 75/75/75 
f 76/76/76 77/77/77 78/78/78 
f 79/79/79 78/78/78 77/77/77 
f 78/78/78 79/79/79 80/80/80 
f 81/81/81 80/80/80 79/79/79 
f 80/80/80 81/81/81 82/82/82 
f 83/83/83 82/82/82 81/81/81 
f 82/82/82 83/83/83 84/84/84 
f 85/85/85 84/84/84 83/83/83 
f 84/84/84 85/85/85 86/86/86 
f 87/87/87 86/86/86 85/85/85 
f 86/86/86 87/87/87 88/88/88 
f 89/89/89 88/88/88 87/87/87 
f 88/88/88 89/89/89 90/90/90 
f 91/91/91 90/90/90 89/89/89 
f 90/90/90 91/91/91 92/92/92 
f 93/93/93 92/92/92 91/91/91 
f 92/92/92 93/93/93 94/94/94 
f 95/95/95 94/94/94 93/93/93 
f 94/94/94 95/95/95 96/96/96 
f 97/97/97 96/96/96 95/95/95 
f 96/96/96 97/97/97 98/98/98 
f 99/99/99 98/98/98 97/97/97 
f 98/98/98 99/99/99 100/100/100 
f 101/101/101 100/100/100 99/99/99 
f 100/100/100 101/101/101 102/102/102 
f 103/103/103 102/102/102 101/101/101 
f 102/102/102 103/103/103 104/104/104 
f 105/105/105 104/104/104 103/103/103 
f 104/104/104 105/105/105 106/106/106 
f 107/107/107 106/106/106 105/105/105 
f 106/106/106 107/107/107 108/108/108 
f 109/109/109 108/108/108 107/107/107 
f 108/108/108 109/109/109 110/110/110 
f 111/111/111 110/110/110 109/109/109 
f 110/110/110 111/111/111 112/112/112 
f 113/113/113 112/112/112 111/111/111 
f 112/112/112 113/113/113 114/114/114 
f 115/115/115 114/114/114 113/113/113 
f 114/114/114 115/115/115 116/116/116 
f 117/117/117 116/116/116 115/115/115 
f 116/116/116 117/117/117 118/118/118 
f 119/119/119 118/118/118 117/117/117 
f 118/118/118 119/119/119 120/120/120 
f 121/121/121 120/120/120 119/119/119 
f 120/120/120 121/121/121 122/122/122 
f 123/123/123 122/122/122 121/121/121 
f 122/122/122 123/123/123 124/124/124 

