# Created by DisUnity v0.3.4
v -0.46253222 -0.41776085 -0.09756373
v -2.042363E-9 0.5270737 0.19375095
v -2.042363E-9 -0.75115734 0.19375096
v -0.65028036 0.6287506 -0.09756373
v 0.65028036 0.6287506 -0.09756373
v 0.46253222 -0.41776085 -0.09756373
v -0.65028036 0.6336995 -0.2361524
v -0.46253222 -0.41776085 -0.09756373
v -0.46253222 -0.41281196 -0.23615238
v -0.65028036 0.6287506 -0.09756373
v -0.46253222 -0.41281196 -0.23615238
v -2.042363E-9 -0.75115734 0.19375096
v -2.042363E-9 -0.7462084 0.055162363
v -0.46253222 -0.41776085 -0.09756373
v -2.042363E-9 -0.7462084 0.055162363
v 0.46253222 -0.41776085 -0.09756373
v 0.46253222 -0.41281196 -0.23615238
v -2.042363E-9 -0.75115734 0.19375096
v 0.46253222 -0.41281196 -0.23615238
v 0.65028036 0.6287506 -0.09756373
v 0.65028036 0.6336995 -0.2361524
v 0.46253222 -0.41776085 -0.09756373
v 0.65028036 0.6336995 -0.2361524
v -2.042363E-9 0.5270737 0.19375095
v -2.042363E-9 0.5320226 0.055162326
v 0.65028036 0.6287506 -0.09756373
v -2.042363E-9 0.5320226 0.055162326
v -0.65028036 0.6287506 -0.09756373
v -0.65028036 0.6336995 -0.2361524
v -2.042363E-9 0.5270737 0.19375095
v -2.042363E-9 -0.7462084 0.055162363
v -0.65028036 0.6336995 -0.2361524
v -0.46253222 -0.41281196 -0.23615238
v -0.65028036 0.6336995 -0.2361524
v -2.042363E-9 -0.7462084 0.055162363
v -2.042363E-9 0.5320226 0.055162326
v -2.042363E-9 0.5320226 0.055162326
v 0.46253222 -0.41281196 -0.23615238
v 0.65028036 0.6336995 -0.2361524
v 0.46253222 -0.41281196 -0.23615238
v -2.042363E-9 0.5320226 0.055162326
v -2.042363E-9 -0.7462084 0.055162363
vn -0.4995436 -0.022461878 0.86599743
vn -0.02508071 -0.028923435 0.9992669
vn -0.015746279 -0.033131097 0.99932694
vn -0.417414 -0.074885674 0.9056256
vn 0.4551111 -0.026573244 0.8900381
vn 0.5828873 -0.10457222 0.80579585
vn -0.9842659 -0.17658107 -0.0063055605
vn -0.9842659 -0.17658108 -0.0063055595
vn -0.9842659 -0.17658108 -0.00630556
vn -0.9842659 -0.17658105 -0.006305559
vn -0.5722902 -0.8195289 -0.029265137
vn -0.5722902 -0.8195289 -0.029265137
vn -0.5722902 -0.8195289 -0.029265137
vn -0.5722905 -0.81952864 -0.029264672
vn 0.5722903 -0.8195287 -0.029264677
vn 0.5722903 -0.8195287 -0.029264677
vn 0.5722903 -0.8195287 -0.029264677
vn 0.57229024 -0.81952876 -0.029265137
vn 0.9842659 -0.17658105 -0.006305559
vn 0.9842659 -0.17658104 -0.0063055595
vn 0.9842659 -0.17658104 -0.006305559
vn 0.9842659 -0.17658107 -0.0063055595
vn -0.13891177 0.989674 0.03534096
vn -0.13891177 0.989674 0.035340965
vn -0.13891177 0.989674 0.03534096
vn -0.13891213 0.989674 0.03534041
vn 0.13891202 0.989674 0.03534041
vn 0.13891202 0.989674 0.035340413
vn 0.13891202 0.989674 0.03534041
vn 0.13891189 0.989674 0.03534096
vn 0.5828875 0.104572214 -0.8057958
vn 0.5828874 0.104572214 -0.8057958
vn 0.5828874 0.104572214 -0.8057958
vn 0.4088336 0.0 -0.9126089
vn 0.40883356 0.0 -0.912609
vn 0.40883356 0.0 -0.912609
vn -0.4174141 0.07488566 -0.9056255
vn -0.4174141 0.07488566 -0.9056255
vn -0.41741413 0.07488566 -0.9056255
vn -0.5329321 0.0 -0.84615797
vn -0.5329321 0.0 -0.84615797
vn -0.5329321 0.0 -0.84615797
vt 0.0 1.0
vt 0.5 0.0
vt 0.5 1.0
vt 0.0 0.0
vt 1.0 0.0
vt 1.0 1.0
vt 0.0 0.0
vt 0.0 1.0
vt 0.0 1.0
vt 0.0 0.0
vt 0.0 1.0
vt 0.5 1.0
vt 0.5 1.0
vt 0.0 1.0
vt 0.5 1.0
vt 1.0 1.0
vt 1.0 1.0
vt 0.5 1.0
vt 1.0 1.0
vt 1.0 0.0
vt 1.0 0.0
vt 1.0 1.0
vt 1.0 0.0
vt 0.5 0.0
vt 0.5 0.0
vt 1.0 0.0
vt 0.5 0.0
vt 0.0 0.0
vt 0.0 0.0
vt 0.5 0.0
vt 0.5 1.0
vt 0.0 0.0
vt 0.0 1.0
vt 0.0 0.0
vt 0.5 1.0
vt 0.5 0.0
vt 0.5 0.0
vt 1.0 1.0
vt 1.0 0.0
vt 1.0 1.0
vt 0.5 0.0
vt 0.5 1.0

g Plane004
s 1
usemtl Plane004
f 3/3/3 2/2/2 1/1/1 
f 4/4/4 1/1/1 2/2/2 
f 2/2/2 3/3/3 5/5/5 
f 6/6/6 5/5/5 3/3/3 
f 9/9/9 8/8/8 7/7/7 
f 10/10/10 7/7/7 8/8/8 
f 13/13/13 12/12/12 11/11/11 
f 14/14/14 11/11/11 12/12/12 
f 17/17/17 16/16/16 15/15/15 
f 18/18/18 15/15/15 16/16/16 
f 21/21/21 20/20/20 19/19/19 
f 22/22/22 19/19/19 20/20/20 
f 25/25/25 24/24/24 23/23/23 
f 26/26/26 23/23/23 24/24/24 
f 29/29/29 28/28/28 27/27/27 
f 30/30/30 27/27/27 28/28/28 
f 33/33/33 32/32/32 31/31/31 
f 36/36/36 35/35/35 34/34/34 
f 39/39/39 38/38/38 37/37/37 
f 42/42/42 41/41/41 40/40/40 

