# Created by DisUnity v0.3.4
v 0.26915884 -0.10492987 -0.46950987
v 0.42284316 -0.10974721 -0.37455943
v 0.29231796 -0.051631145 -0.5253797
v 0.4619522 -0.04687165 -0.43450743
v 0.3742627 -0.16236594 -0.3142683
v 0.23594199 -0.15166058 -0.4106512
v 0.31847543 -0.20320922 -0.253517
v 0.19423316 -0.1896144 -0.34876904
v 0.25802216 -0.23123577 -0.1921574
v 0.14615966 -0.2169336 -0.2838686
v 0.19565064 -0.24400558 -0.12973073
v 0.094343714 -0.23033854 -0.2157043
v 0.13568771 -0.24298336 -0.06702516
v 0.041925963 -0.23049453 -0.14373578
v 0.08011917 -0.22984184 -0.0029296682
v -0.0069185635 -0.21807861 -0.06915705
v 0.035037458 -0.20513146 0.060540065
v -0.048622206 -0.19142433 0.010949497
v -0.0018881988 -0.17185603 0.12845437
v -0.07821472 -0.15715061 0.0906666
v -0.024540253 -0.13486932 0.19584046
v -0.0938179 -0.11590121 0.17553331
v -0.03567978 -0.09518327 0.26937547
v -0.094542004 -0.076250695 0.2580697
v -0.032778397 -0.060730666 0.34359998
v -0.0798999 -0.04103945 0.3439397
v -0.019947052 -0.033242013 0.42192608
v -0.054661103 -0.016099786 0.42859256
v 6.5330503E-4 -0.017094212 0.5047119
v -0.023100737 -0.0048041437 0.5111111
v -0.045615233 0.2822585 -0.46950987
v -0.11828552 0.4177617 -0.37455943
v -0.103352815 0.2756655 -0.5253797
v -0.19229187 0.42019343 -0.43450743
v -0.048426054 0.4019992 -0.3142683
v 0.011463165 0.27685726 -0.4106512
v 0.014838943 0.37410763 -0.253517
v 0.06518654 0.2597133 -0.34876904
v 0.06933731 0.3357669 -0.19215737
v 0.11288238 0.23174 -0.2838686
v 0.111582026 0.28813636 -0.1297307
v 0.15039948 0.1935685 -0.2157043
v 0.14067826 0.23569587 -0.06702516
v 0.17674346 0.14825143 -0.14373578
v 0.1570816 0.18100135 -0.0029296682
v 0.1904132 0.09974284 -0.06915709
v 0.15822265 0.1296043 0.060540102
v 0.18818176 0.05029929 0.010949497
v 0.14786804 0.080988035 0.12845442
v 0.17329605 0.0075345896 0.0906666
v 0.12716262 0.042877376 0.19584039
v 0.1453746 -0.026602916 0.17553331
v 0.098363265 0.013387251 0.26937547
v 0.11139831 -0.047055263 0.2580697
v 0.067075804 -0.001326437 0.34359998
v 0.07358345 -0.051980417 0.34393978
v 0.03685425 -0.0039584446 0.42192608
v 0.03936569 -0.04259287 0.42859262
v 0.012569656 0.005808077 0.5047119
v 0.013803177 -0.020908576 0.5111111
v -0.2235431 -0.1839381 -0.46950987
v -0.30455717 -0.31462395 -0.37455943
v -0.1889646 -0.2306438 -0.5253797
v -0.26965988 -0.3799312 -0.43450743
v -0.3258361 -0.24624267 -0.3142683
v -0.24740462 -0.13180608 -0.4106512
v -0.33331382 -0.17750777 -0.253517
v -0.25941923 -0.07670828 -0.34876904
v -0.32735893 -0.11114045 -0.19215742
v -0.25904158 -0.021415833 -0.2838686
v -0.30723208 -0.050740194 -0.12973073
v -0.24474274 0.030160608 -0.21570432
v -0.27636534 6.78072E-4 -0.06702516
v -0.2186689 0.07563374 -0.14373578
v -0.23720023 0.04223114 -0.0029296682
v -0.1834941 0.1117264 -0.06915709
v -0.19325958 0.0689178 0.060540065
v -0.13955909 0.13451567 0.010949459
v -0.14597939 0.08425864 0.12845442
v -0.09508087 0.14300665 0.0906666
v -0.10262191 0.085382566 0.19584046
v -0.051556244 0.13589476 0.17553331
v -0.06268303 0.07518666 0.26937547
v -0.016855849 0.116696596 0.25806963
v -0.034296874 0.05544773 0.3435999
v 0.006316986 0.08641049 0.34393978
v -0.016906662 0.030591076 0.42192614
v 0.015295944 0.052083272 0.42859256
v -0.013222427 0.004676752 0.5047119
v 0.0092980955 0.019103345 0.5111111
vn 0.30827644 -0.78444284 -0.53815913
vn 0.30547136 -0.78707093 -0.53591657
vn 0.330847 -0.7484754 -0.5747389
vn 0.3281816 -0.7507439 -0.5733065
vn 0.24775039 -0.85726386 -0.4513517
vn 0.2486517 -0.85658735 -0.45213985
vn 0.17296973 -0.9181443 -0.35650045
vn 0.17225087 -0.9183689 -0.35627
vn 0.07788505 -0.96635157 -0.2451501
vn 0.076313384 -0.9666462 -0.24448182
vn -0.028520387 -0.99195147 -0.12336492
vn -0.029139807 -0.99192774 -0.123410545
vn -0.12604642 -0.99199694 -0.007362583
vn -0.1253809 -0.9920771 -0.007924969
vn -0.2185217 -0.96907413 0.11464581
vn -0.21550779 -0.97006536 0.111935645
vn -0.28738862 -0.9307628 0.22602722
vn -0.28624737 -0.9311687 0.22580394
vn -0.32863903 -0.8895847 0.31723085
vn -0.32710707 -0.89097273 0.31491026
vn -0.3468104 -0.8573302 0.3804043
vn -0.34625027 -0.8575505 0.3804181
vn -0.34957528 -0.84510726 0.40446377
vn -0.34956902 -0.8451445 0.40439126
vn -0.35352814 -0.85283035 0.38431528
vn -0.35344884 -0.85281336 0.384426
vn -0.3703373 -0.8729722 0.3174427
vn -0.37073922 -0.8734777 0.31557766
vn -0.3847463 -0.88324416 0.26804858
vn -0.3847618 -0.88323396 0.26805994
vn 0.52520895 0.65919656 -0.53815925
vn 0.52888757 0.65808135 -0.53591675
vn 0.4827751 0.66075957 -0.574739
vn 0.48607302 0.65958536 -0.57330626
vn 0.61853683 0.64319015 -0.45135203
vn 0.61750054 0.64363223 -0.45214
vn 0.7086513 0.60886824 -0.35650077
vn 0.70920545 0.6083577 -0.35627025
vn 0.79794276 0.5506256 -0.24515036
vn 0.7989837 0.549412 -0.24448213
vn 0.87331545 0.47127616 -0.12336527
vn 0.8736044 0.4707283 -0.12341104
vn 0.9221179 0.38683894 -0.0073627047
vn 0.92185444 0.38745525 -0.007925078
vn 0.94850373 0.2952915 0.114645705
vn 0.9478551 0.29839727 0.111935526
vn 0.9497586 0.21649517 0.22602731
vn 0.9495394 0.2176866 0.22580399
vn 0.93472236 0.16018222 0.31723133
vn 0.9351585 0.16220322 0.31491065
vn 0.9158749 0.12831892 0.38040438
vn 0.9157856 0.12891416 0.38041812
vn 0.90667206 0.119812936 0.40446344
vn 0.9067012 0.119837 0.40439093
vn 0.91533685 0.12025126 0.38431498
vn 0.9152825 0.12031162 0.38442564
vn 0.9411847 0.115765505 0.3174426
vn 0.94182336 0.11567017 0.3155775
vn 0.95728487 0.108422525 0.2680488
vn 0.9572838 0.10840388 0.26806027
vn -0.83348554 0.12524633 -0.538159
vn -0.8343591 0.1289895 -0.5359166
vn -0.81362224 0.087715946 -0.5747388
vn -0.8142542 0.09115824 -0.57330644
vn -0.86628747 0.21407367 -0.4513519
vn -0.8661522 0.21295486 -0.45214003
vn -0.8816211 0.30927575 -0.35650072
vn -0.88145614 0.31001073 -0.35627028
vn -0.8758274 0.4157256 -0.24515022
vn -0.8752968 0.41723377 -0.244482
vn -0.84479505 0.52067494 -0.12336481
vn -0.8444651 0.5211991 -0.123410664
vn -0.79607165 0.6051577 -0.0073624416
vn -0.7964735 0.6046214 -0.007924741
vn -0.72998196 0.6737824 0.11464578
vn -0.7323474 0.6716678 0.11193556
vn -0.66237015 0.7142671 0.22602743
vn -0.6632924 0.7134814 0.22580402
vn -0.6060836 0.7294019 0.3172311
vn -0.60805154 0.72876924 0.31491044
vn -0.56906503 0.7290114 0.38040426
vn -0.5695358 0.7286365 0.38041797
vn -0.5570968 0.72529453 0.40446386
vn -0.5571322 0.7253077 0.40439144
vn -0.5618089 0.7325793 0.38431534
vn -0.56183404 0.7325021 0.38442585
vn -0.5708481 0.75720716 0.31744254
vn -0.57108486 0.75780785 0.3155776
vn -0.57253945 0.77482164 0.2680487
vn -0.5725228 0.7748299 0.26806012
vt 0.0 0.9285714
vt 1.0 0.9285714
vt 0.0 1.0
vt 1.0 1.0
vt 1.0 0.85714287
vt 0.0 0.85714287
vt 1.0 0.78571427
vt 0.0 0.78571427
vt 1.0 0.71428573
vt 0.0 0.71428573
vt 1.0 0.64285713
vt 0.0 0.64285713
vt 1.0 0.57142854
vt 0.0 0.57142854
vt 1.0 0.5
vt 0.0 0.5
vt 1.0 0.4285714
vt 0.0 0.4285714
vt 1.0 0.3571428
vt 0.0 0.3571428
vt 1.0 0.2857142
vt 0.0 0.2857142
vt 1.0 0.21428561
vt 0.0 0.21428561
vt 1.0 0.14285702
vt 0.0 0.14285702
vt 1.0 0.07142842
vt 0.0 0.07142842
vt 1.0 -1.1920929E-7
vt 0.0 -1.1920929E-7
vt 0.0 0.9285714
vt 1.0 0.9285714
vt 0.0 1.0
vt 1.0 1.0
vt 1.0 0.85714287
vt 0.0 0.85714287
vt 1.0 0.78571427
vt 0.0 0.78571427
vt 1.0 0.71428573
vt 0.0 0.71428573
vt 1.0 0.64285713
vt 0.0 0.64285713
vt 1.0 0.57142854
vt 0.0 0.57142854
vt 1.0 0.5
vt 0.0 0.5
vt 1.0 0.4285714
vt 0.0 0.4285714
vt 1.0 0.3571428
vt 0.0 0.3571428
vt 1.0 0.2857142
vt 0.0 0.2857142
vt 1.0 0.21428561
vt 0.0 0.21428561
vt 1.0 0.14285702
vt 0.0 0.14285702
vt 1.0 0.07142842
vt 0.0 0.07142842
vt 1.0 -1.1920929E-7
vt 0.0 -1.1920929E-7
vt 0.0 0.9285714
vt 1.0 0.9285714
vt 0.0 1.0
vt 1.0 1.0
vt 1.0 0.85714287
vt 0.0 0.85714287
vt 1.0 0.78571427
vt 0.0 0.78571427
vt 1.0 0.71428573
vt 0.0 0.71428573
vt 1.0 0.64285713
vt 0.0 0.64285713
vt 1.0 0.57142854
vt 0.0 0.57142854
vt 1.0 0.5
vt 0.0 0.5
vt 1.0 0.4285714
vt 0.0 0.4285714
vt 1.0 0.3571428
vt 0.0 0.3571428
vt 1.0 0.2857142
vt 0.0 0.2857142
vt 1.0 0.21428561
vt 0.0 0.21428561
vt 1.0 0.14285702
vt 0.0 0.14285702
vt 1.0 0.07142842
vt 0.0 0.07142842
vt 1.0 -1.1920929E-7
vt 0.0 -1.1920929E-7

g Sphere001
s 1
usemtl Sphere001
f 3/3/3 2/2/2 1/1/1 
f 2/2/2 3/3/3 4/4/4 
f 5/5/5 1/1/1 2/2/2 
f 1/1/1 5/5/5 6/6/6 
f 7/7/7 6/6/6 5/5/5 
f 6/6/6 7/7/7 8/8/8 
f 9/9/9 8/8/8 7/7/7 
f 8/8/8 9/9/9 10/10/10 
f 11/11/11 10/10/10 9/9/9 
f 10/10/10 11/11/11 12/12/12 
f 13/13/13 12/12/12 11/11/11 
f 12/12/12 13/13/13 14/14/14 
f 15/15/15 14/14/14 13/13/13 
f 14/14/14 15/15/15 16/16/16 
f 17/17/17 16/16/16 15/15/15 
f 16/16/16 17/17/17 18/18/18 
f 19/19/19 18/18/18 17/17/17 
f 18/18/18 19/19/19 20/20/20 
f 21/21/21 20/20/20 19/19/19 
f 20/20/20 21/21/21 22/22/22 
f 23/23/23 22/22/22 21/21/21 
f 22/22/22 23/23/23 24/24/24 
f 25/25/25 24/24/24 23/23/23 
f 24/24/24 25/25/25 26/26/26 
f 27/27/27 26/26/26 25/25/25 
f 26/26/26 27/27/27 28/28/28 
f 29/29/29 28/28/28 27/27/27 
f 28/28/28 29/29/29 30/30/30 
f 33/33/33 32/32/32 31/31/31 
f 32/32/32 33/33/33 34/34/34 
f 35/35/35 31/31/31 32/32/32 
f 31/31/31 35/35/35 36/36/36 
f 37/37/37 36/36/36 35/35/35 
f 36/36/36 37/37/37 38/38/38 
f 39/39/39 38/38/38 37/37/37 
f 38/38/38 39/39/39 40/40/40 
f 41/41/41 40/40/40 39/39/39 
f 40/40/40 41/41/41 42/42/42 
f 43/43/43 42/42/42 41/41/41 
f 42/42/42 43/43/43 44/44/44 
f 45/45/45 44/44/44 43/43/43 
f 44/44/44 45/45/45 46/46/46 
f 47/47/47 46/46/46 45/45/45 
f 46/46/46 47/47/47 48/48/48 
f 49/49/49 48/48/48 47/47/47 
f 48/48/48 49/49/49 50/50/50 
f 51/51/51 50/50/50 49/49/49 
f 50/50/50 51/51/51 52/52/52 
f 53/53/53 52/52/52 51/51/51 
f 52/52/52 53/53/53 54/54/54 
f 55/55/55 54/54/54 53/53/53 
f 54/54/54 55/55/55 56/56/56 
f 57/57/57 56/56/56 55/55/55 
f 56/56/56 57/57/57 58/58/58 
f 59/59/59 58/58/58 57/57/57 
f 58/58/58 59/59/59 60/60/60 
f 63/63/63 62/62/62 61/61/61 
f 62/62/62 63/63/63 64/64/64 
f 65/65/65 61/61/61 62/62/62 
f 61/61/61 65/65/65 66/66/66 
f 67/67/67 66/66/66 65/65/65 
f 66/66/66 67/67/67 68/68/68 
f 69/69/69 68/68/68 67/67/67 
f 68/68/68 69/69/69 70/70/70 
f 71/71/71 70/70/70 69/69/69 
f 70/70/70 71/71/71 72/72/72 
f 73/73/73 72/72/72 71/71/71 
f 72/72/72 73/73/73 74/74/74 
f 75/75/75 74/74/74 73/73/73 
f 74/74/74 75/75/75 76/76/76 
f 77/77/77 76/76/76 75/75/75 
f 76/76/76 77/77/77 78/78/78 
f 79/79/79 78/78/78 77/77/77 
f 78/78/78 79/79/79 80/80/80 
f 81/81/81 80/80/80 79/79/79 
f 80/80/80 81/81/81 82/82/82 
f 83/83/83 82/82/82 81/81/81 
f 82/82/82 83/83/83 84/84/84 
f 85/85/85 84/84/84 83/83/83 
f 84/84/84 85/85/85 86/86/86 
f 87/87/87 86/86/86 85/85/85 
f 86/86/86 87/87/87 88/88/88 
f 89/89/89 88/88/88 87/87/87 
f 88/88/88 89/89/89 90/90/90 

