# Created by DisUnity v0.3.4
v -0.0457395 0.14326553 0.07136827
v -1.3307783E-9 0.12242938 0.051949687
v -0.03935262 0.11643725 0.051949687
v 1.7141601E-9 0.1500512 0.07136451
v -0.08781662 0.12301045 0.07137733
v -0.07485316 0.09904747 0.051949687
v -0.12208698 0.09027276 0.07138716
v -0.10302651 0.071962185 0.051949687
v -0.14454883 0.047798786 0.07139422
v -0.12111495 0.037832778 0.051949687
v -0.15237215 -1.5577553E-9 0.07139672
v -0.1273478 6.4464687E-9 0.051949687
v -0.14454879 -0.04779879 0.07139421
v -0.1211149 -0.037832744 0.051949687
v -0.122086905 -0.09027276 0.07138716
v -0.103026465 -0.07196217 0.051949687
v -0.08781653 -0.123010434 0.07137732
v -0.07485308 -0.09904741 0.051949687
v -0.045739368 -0.14326547 0.07136827
v -0.039352525 -0.116437204 0.051949687
v 1.4979592E-7 -0.15005113 0.07136453
v 1.2720268E-7 -0.12242932 0.051949687
v 0.045739666 -0.14326537 0.07136827
v 0.039352775 -0.116437145 0.051949687
v 0.08781678 -0.12301027 0.07137732
v 0.07485328 -0.09904729 0.051949687
v 0.12208712 -0.09027253 0.07138716
v 0.10302663 -0.071962 0.051949687
v 0.1445489 -0.04779852 0.07139421
v 0.12111501 -0.037832517 0.051949687
v 0.15237218 2.9791596E-7 0.07139672
v 0.1273478 2.4288178E-7 0.051949687
v 0.14454876 0.04779908 0.07139422
v 0.121114865 0.03783301 0.051949687
v 0.1220868 0.090273 0.07138716
v 0.10302639 0.07196239 0.051949687
v 0.08781637 0.12301062 0.07137733
v 0.07485296 0.09904758 0.051949687
v 0.045739207 0.14326559 0.07136827
v 0.03935238 0.11643731 0.051949687
v 1.7141601E-9 0.1500512 0.07136451
v -1.3307783E-9 0.12242938 0.051949687
v 0.20115574 -0.06412921 0.10324448
v 0.21124673 3.739832E-7 0.10324724
v 0.2921806 -0.09516087 0.13947904
v 0.24854377 -0.18100733 0.13947906
v 0.17169613 -0.12239682 0.10323683
v 0.18057773 -0.24913546 0.13947903
v 0.12531747 -0.16923854 0.10322651
v 0.09493549 -0.29287645 0.13947904
v 0.0661515 -0.19976155 0.10321733
v 2.9861903E-7 -0.3079486 0.13947906
v 2.1621184E-7 -0.2103877 0.103213616
v -0.09493494 -0.2928766 0.13947904
v -0.06615109 -0.19976167 0.10321733
v -0.1805773 -0.24913587 0.13947903
v -0.12531713 -0.1692388 0.10322651
v -0.24854347 -0.18100786 0.13947906
v -0.17169586 -0.12239715 0.10323683
v -0.2921804 -0.09516147 0.13947904
v -0.20115556 -0.06412958 0.10324448
v -0.30721673 -9.062294E-8 0.13947903
v -0.2112467 -2.6299544E-8 0.10324724
v -0.29218042 0.09516131 0.13947904
v -0.20115556 0.06412954 0.103244506
v -0.24854356 0.18100752 0.13947903
v -0.17169593 0.122397095 0.103236854
v -0.18057743 0.24913554 0.13947906
v -0.12531722 0.16923879 0.10322651
v -0.09493522 0.29287645 0.13947904
v -0.066151276 0.1997617 0.10321733
v -1.1458007E-8 0.3079486 0.13947903
v -2.0710005E-10 0.21038784 0.103213616
v -4.581893E-8 0.57350606 0.19410999
v -0.1857548 0.54543656 0.19410999
v -4.4331518E-8 0.66385037 0.1757976
v -0.2051412 0.6313592 0.1757976
v -0.35332644 0.46397606 0.19410999
v -0.3902015 0.537066 0.1757976
v -0.48631227 0.33709827 0.19410998
v -0.53706634 0.39020124 0.1757976
v -0.57169443 0.17722304 0.19410999
v -0.63135934 0.20514095 0.1757976
v -0.601115 -2.503904E-7 0.19410999
v -0.66385055 -2.9611945E-7 0.1757976
v -0.5716943 -0.17722344 0.19410999
v -0.63135934 -0.20514147 0.1757976
v -0.48631206 -0.33709893 0.19411002
v -0.53706616 -0.3902022 0.1757976
v -0.35332617 -0.46397665 0.19410999
v -0.39020103 -0.5370671 0.1757976
v -0.1857543 -0.5454371 0.19410999
v -0.20514059 -0.63135976 0.1757976
v 5.6155324E-7 -0.57350624 0.19410999
v 6.257E-7 -0.6638508 0.1757976
v 0.18575536 -0.54543674 0.19410999
v 0.20514178 -0.63135934 0.1757976
v 0.35332713 -0.46397606 0.19410999
v 0.39020228 -0.5370664 0.1757976
v 0.4863128 -0.33709797 0.19411002
v 0.5370669 -0.39020115 0.1757976
v 0.5716947 -0.17722234 0.19410999
v 0.6313597 -0.2051402 0.1757976
v 0.60111505 8.571637E-7 0.19410999
v 0.66385055 9.859076E-7 0.1757976
v 0.571694 0.17722404 0.19410999
v 0.63135916 0.20514219 0.1757976
v 0.48631158 0.3370992 0.19410998
v 0.5370657 0.39020228 0.1757976
v 0.35332558 0.46397674 0.19410999
v 0.39020047 0.5370667 0.1757976
v 0.18575351 0.5454369 0.19410999
v 0.20513973 0.63135976 0.1757976
v -4.581893E-8 0.57350606 0.19410999
v -4.4331518E-8 0.66385037 0.1757976
v 0.55739725 -0.40497187 0.13661776
v 0.40497303 -0.55739635 0.13661776
v 0.21290733 -0.65525883 0.13661776
v 6.5032134E-7 -0.6889801 0.13661776
v -0.21382628 -0.65479064 0.13661776
v -0.40405193 -0.557866 0.13661776
v -0.5573965 -0.40497297 0.13661776
v -0.65525895 -0.21290702 0.13661776
v -0.68898016 -3.504413E-7 0.13661776
v -0.65525925 0.21290633 0.13661776
v -0.5573968 0.40497223 0.13661776
v -0.40497252 0.5573967 0.13661776
v -0.21290666 0.6552591 0.13661776
v -4.5073797E-8 0.68898016 0.13661776
v 0.30721673 5.040868E-7 0.13947906
v 0.20115547 0.06412992 0.103244506
v 0.29218027 0.09516188 0.13947904
v 0.17169574 0.12239742 0.103236854
v 0.24854326 0.18100801 0.13947903
v 0.12531692 0.16923901 0.10322651
v 0.18057697 0.24913587 0.13947906
v 0.06615084 0.19976182 0.10321733
v 0.094934545 0.29287663 0.13947904
v -2.0710005E-10 0.21038784 0.103213616
v -1.1458007E-8 0.3079486 0.13947903
v 0.65525955 -0.21290581 0.13661776
v 0.68898016 9.80116E-7 0.13661776
v 0.65525883 0.21290761 0.13661776
v 0.55739594 0.4049733 0.13661776
v 0.40497127 0.5573974 0.13661776
v 0.21290524 0.65525967 0.13661776
v -4.5073797E-8 0.68898016 0.13661776
vn 0.15400524 -0.4963451 0.8543558
vn 1.6331236E-7 -0.57392544 0.81890756
vn 0.17372553 -0.5494367 0.81727517
vn 1.3425165E-7 -0.51814926 0.8552902
vn 0.29941934 -0.43032628 0.8515676
vn 0.33837506 -0.47590947 0.81179583
vn 0.4234124 -0.3203016 0.8474248
vn 0.479807 -0.35407215 0.8027566
vn 0.50896055 -0.17186773 0.84345746
vn 0.5778796 -0.18988514 0.7937247
vn 0.539822 1.18889766E-7 0.8417792
vn 0.6132503 2.9961566E-7 0.7898887
vn 0.5089603 0.17186797 0.84345764
vn 0.5778793 0.18988547 0.7937248
vn 0.42341197 0.32030174 0.847425
vn 0.4798067 0.3540723 0.8027567
vn 0.29941884 0.43032652 0.85156775
vn 0.3383746 0.47590956 0.81179595
vn 0.15400474 0.49634543 0.85435575
vn 0.17372517 0.5494369 0.8172751
vn -4.6215834E-7 0.51814944 0.85529006
vn -5.0759235E-7 0.57392603 0.81890714
vn -0.1540057 0.49634522 0.85435575
vn -0.1737262 0.54943675 0.817275
vn -0.2994197 0.4303261 0.85156757
vn -0.33837545 0.4759092 0.81179583
vn -0.42341253 0.320301 0.847425
vn -0.47980732 0.3540715 0.8027567
vn -0.5089606 0.1718669 0.84345764
vn -0.57787967 0.18988416 0.7937248
vn -0.5398218 -9.962964E-7 0.84177935
vn -0.61324996 -9.473143E-7 0.78988886
vn -0.5089601 -0.17186874 0.84345764
vn -0.5778788 -0.18988626 0.793725
vn -0.42341155 -0.32030252 0.847425
vn -0.47980613 -0.35407317 0.8027567
vn -0.29941827 -0.4303269 0.8515676
vn -0.33837393 -0.47591016 0.81179595
vn -0.15400454 -0.49634537 0.8543558
vn -0.17372482 -0.54943687 0.8172752
vn 1.3425165E-7 -0.51814926 0.8552902
vn 1.6331236E-7 -0.57392544 0.81890756
vn -0.3892918 0.12586555 0.9124745
vn -0.40942845 -8.159249E-7 0.9123423
vn -0.24844392 0.082057066 0.9651643
vn -0.21185727 0.15645684 0.9646957
vn -0.3307334 0.23916385 0.9129163
vn -0.15447862 0.21610242 0.96407264
vn -0.23957767 0.328325 0.91367674
vn -0.081488945 0.25488007 0.9635329
vn -0.12547782 0.38466159 0.9144893
vn -2.4054154E-7 0.26836133 0.96331835
vn -3.66968E-7 0.40379247 0.9148506
vn 0.081488416 0.25488022 0.9635329
vn 0.12547702 0.38466185 0.9144893
vn 0.15447812 0.21610267 0.96407264
vn 0.23957685 0.32832533 0.91367686
vn 0.21185693 0.15645711 0.9646957
vn 0.33073294 0.23916426 0.9129163
vn 0.24844371 0.08205758 0.9651643
vn 0.38929152 0.12586632 0.9124745
vn 0.2610134 0.0 0.96533513
vn 0.40942833 0.0 0.9123423
vn 0.24844374 -0.08205739 0.9651643
vn 0.3892918 -0.12586623 0.9124745
vn 0.21185696 -0.15645716 0.9646957
vn 0.33073315 -0.23916425 0.9129162
vn 0.1544785 -0.21610293 0.9640725
vn 0.23957743 -0.32832545 0.9136767
vn 0.08148912 -0.2548804 0.9635329
vn 0.12547782 -0.38466185 0.91448927
vn -0.0 -0.26836154 0.9633182
vn 1.2113506E-7 -0.40379256 0.9148506
vn -0.0 0.018649084 0.99982613
vn -0.00808037 0.021475669 0.9997367
vn -4.8653766E-7 0.5907786 0.8068338
vn -0.18199918 0.5640832 0.80541074
vn -0.02210031 0.027064973 0.9993894
vn -0.34994242 0.48540494 0.8012006
vn -0.043051332 0.02824664 0.99867344
vn -0.48951453 0.35884044 0.79473835
vn -0.06368639 0.018729975 0.99779415
vn -0.58489066 0.19198665 0.7880634
vn -0.07240467 0.0 0.99737537
vn -0.6194383 -2.3667933E-7 0.7850454
vn -0.06368622 -0.018729804 0.99779415
vn -0.58489174 -0.19198689 0.7880626
vn -0.043051217 -0.028246503 0.99867344
vn -0.48985785 -0.3594049 0.79427165
vn -0.022100119 -0.027064938 0.9993894
vn -0.3510372 -0.48538134 0.8007358
vn -0.00808035 -0.021475645 0.9997367
vn -0.18133025 -0.56495774 0.8049485
vn -0.0 -0.018649083 0.99982613
vn -2.553116E-4 -0.59139925 0.8063789
vn 0.00808035 -0.021475587 0.9997367
vn 0.18200026 -0.5640863 0.8054083
vn 0.022100214 -0.027064968 0.9993894
vn 0.34994474 -0.4854081 0.8011977
vn 0.04305149 -0.028246477 0.99867344
vn 0.4895164 -0.35884106 0.7947369
vn 0.06368644 -0.018729776 0.99779415
vn 0.5848914 -0.19198552 0.78806317
vn 0.07240475 0.0 0.99737537
vn 0.61943805 9.753268E-7 0.78504544
vn 0.06368591 0.018729962 0.99779415
vn 0.58489114 0.19198796 0.78806275
vn 0.043051016 0.028246606 0.99867344
vn 0.48951435 0.35884196 0.79473776
vn 0.022100277 0.02706503 0.9993894
vn 0.3499417 0.4854056 0.80120045
vn 0.008080298 0.021475514 0.9997367
vn 0.18199816 0.5640831 0.80541104
vn -0.0 0.018649084 0.99982613
vn -4.8653766E-7 0.5907786 0.8068338
vn 0.68098205 -0.49476093 0.5398844
vn 0.49476358 -0.6809823 0.5398817
vn 0.26011303 -0.8005435 0.5398808
vn -4.0298273E-4 -0.84251344 0.53867525
vn -0.26235914 -0.8006412 0.53864783
vn -0.4935204 -0.68285835 0.5386485
vn -0.68136877 -0.4955431 0.5386777
vn -0.8005416 -0.26011208 0.5398842
vn -0.84173876 -5.057397E-7 0.539885
vn -0.8005404 0.26011088 0.53988653
vn -0.6809793 0.49476025 0.53988844
vn -0.49476004 0.68097866 0.5398894
vn -0.2601109 0.8005393 0.53988796
vn -6.7263363E-7 0.84173733 0.5398872
vn -0.26101354 -4.9152516E-7 0.96533513
vn -0.3892915 -0.12586689 0.9124745
vn -0.24844362 -0.082057774 0.9651643
vn -0.33073267 -0.2391649 0.9129162
vn -0.21185668 -0.15645759 0.9646957
vn -0.23957667 -0.32832605 0.9136767
vn -0.15447803 -0.21610332 0.9640725
vn -0.12547725 -0.38466215 0.91448927
vn -0.08148875 -0.25488055 0.9635329
vn 1.2113506E-7 -0.40379256 0.9148506
vn -0.0 -0.26836154 0.9633182
vn 0.8005408 -0.2601102 0.5398862
vn 0.8417387 1.1935454E-6 0.53988516
vn 0.8005409 0.26011288 0.5398848
vn 0.68097895 0.49476272 0.5398865
vn 0.4947588 0.68098 0.53988886
vn 0.26010975 0.80053926 0.5398888
vn -6.7263363E-7 0.84173733 0.5398872
vt 0.05 0.51778555
vt 0.0 0.3994848
vt 0.05 0.3994848
vt 0.0 0.5164529
vt 0.1 0.5209886
vt 0.1 0.3994848
vt 0.14999999 0.52446616
vt 0.14999999 0.3994848
vt 0.2 0.52696085
vt 0.2 0.3994848
vt 0.25 0.5278492
vt 0.25 0.3994848
vt 0.29999998 0.52696085
vt 0.29999998 0.3994848
vt 0.34999996 0.52446616
vt 0.34999996 0.3994848
vt 0.4 0.52098864
vt 0.4 0.3994848
vt 0.45000002 0.51778555
vt 0.45000002 0.3994848
vt 0.50000006 0.5164529
vt 0.50000006 0.3994848
vt 0.5500001 0.51778555
vt 0.5500001 0.3994848
vt 0.6000001 0.52098864
vt 0.6000001 0.3994848
vt 0.6500001 0.52446616
vt 0.6500001 0.3994848
vt 0.7000001 0.52696085
vt 0.7000001 0.3994848
vt 0.7500001 0.5278492
vt 0.7500001 0.3994848
vt 0.80000013 0.52696085
vt 0.80000013 0.3994848
vt 0.85000014 0.52446616
vt 0.85000014 0.3994848
vt 0.90000015 0.5209886
vt 0.90000015 0.3994848
vt 0.9500002 0.51778555
vt 0.9500002 0.3994848
vt 1.0000002 0.5164529
vt 1.0000002 0.3994848
vt 0.7000001 0.64025295
vt 0.7500001 0.63985336
vt 0.7000001 0.6979437
vt 0.6500001 0.6979437
vt 0.6500001 0.6413566
vt 0.6000001 0.6979437
vt 0.6000001 0.6428498
vt 0.5500001 0.6979437
vt 0.5500001 0.644179
vt 0.50000006 0.6979437
vt 0.50000006 0.6447192
vt 0.45000002 0.6979437
vt 0.45000002 0.644179
vt 0.4 0.6979437
vt 0.4 0.6428498
vt 0.34999996 0.6979437
vt 0.34999996 0.6413566
vt 0.29999998 0.6979437
vt 0.29999998 0.64025295
vt 0.25 0.6979437
vt 0.25 0.63985336
vt 0.2 0.6979437
vt 0.2 0.64025295
vt 0.14999999 0.6979437
vt 0.14999999 0.6413566
vt 0.1 0.6979437
vt 0.1 0.6428498
vt 0.05 0.6979437
vt 0.05 0.64417905
vt 0.0 0.6979437
vt 0.0 0.64471924
vt 0.0 0.79743004
vt 0.05 0.79743004
vt 0.0 0.8969163
vt 0.05 0.8969163
vt 0.1 0.79743004
vt 0.1 0.8969163
vt 0.14999999 0.79743004
vt 0.14999999 0.8969163
vt 0.2 0.79743004
vt 0.2 0.8969163
vt 0.25 0.79743004
vt 0.25 0.8969163
vt 0.29999998 0.79743004
vt 0.29999998 0.8969163
vt 0.34999996 0.79743004
vt 0.34999996 0.8969163
vt 0.4 0.79743004
vt 0.4 0.8969163
vt 0.45000002 0.79743004
vt 0.45000002 0.8969163
vt 0.50000006 0.79743004
vt 0.50000006 0.8969163
vt 0.5500001 0.79743004
vt 0.5500001 0.8969163
vt 0.6000001 0.79743004
vt 0.6000001 0.8969163
vt 0.6500001 0.79743004
vt 0.6500001 0.8969163
vt 0.7000001 0.79743004
vt 0.7000001 0.8969163
vt 0.7500001 0.79743004
vt 0.7500001 0.8969163
vt 0.80000013 0.79743004
vt 0.80000013 0.8969163
vt 0.85000014 0.79743004
vt 0.85000014 0.8969163
vt 0.90000015 0.79743004
vt 0.90000015 0.8969163
vt 0.9500002 0.79743004
vt 0.9500002 0.8969163
vt 1.0000002 0.79743004
vt 1.0000002 0.8969163
vt 0.6500001 0.99640256
vt 0.6000001 0.99640256
vt 0.5500001 0.99640256
vt 0.50000006 0.99640256
vt 0.45000002 0.99640256
vt 0.4 0.99640256
vt 0.34999996 0.99640256
vt 0.29999998 0.99640256
vt 0.25 0.99640256
vt 0.2 0.99640256
vt 0.14999999 0.99640256
vt 0.1 0.99640256
vt 0.05 0.99640256
vt 0.0 0.99640256
vt 0.7500001 0.6979437
vt 0.80000013 0.64025295
vt 0.80000013 0.6979437
vt 0.85000014 0.6413566
vt 0.85000014 0.6979437
vt 0.90000015 0.6428498
vt 0.90000015 0.6979437
vt 0.9500002 0.64417905
vt 0.9500002 0.6979437
vt 1.0000002 0.64471924
vt 1.0000002 0.6979437
vt 0.7000001 0.99640256
vt 0.7500001 0.99640256
vt 0.80000013 0.99640256
vt 0.85000014 0.99640256
vt 0.90000015 0.99640256
vt 0.9500002 0.99640256
vt 1.0000002 0.99640256

g Sphere001
s 1
usemtl Sphere001
f 3/3/3 2/2/2 1/1/1 
f 2/2/2 4/4/4 1/1/1 
f 3/3/3 1/1/1 5/5/5 
f 6/6/6 3/3/3 5/5/5 
f 6/6/6 5/5/5 7/7/7 
f 8/8/8 6/6/6 7/7/7 
f 8/8/8 7/7/7 9/9/9 
f 10/10/10 8/8/8 9/9/9 
f 10/10/10 9/9/9 11/11/11 
f 12/12/12 10/10/10 11/11/11 
f 12/12/12 11/11/11 13/13/13 
f 14/14/14 12/12/12 13/13/13 
f 14/14/14 13/13/13 15/15/15 
f 16/16/16 14/14/14 15/15/15 
f 16/16/16 15/15/15 17/17/17 
f 18/18/18 16/16/16 17/17/17 
f 18/18/18 17/17/17 19/19/19 
f 20/20/20 18/18/18 19/19/19 
f 20/20/20 19/19/19 21/21/21 
f 22/22/22 20/20/20 21/21/21 
f 22/22/22 21/21/21 23/23/23 
f 24/24/24 22/22/22 23/23/23 
f 24/24/24 23/23/23 25/25/25 
f 26/26/26 24/24/24 25/25/25 
f 26/26/26 25/25/25 27/27/27 
f 28/28/28 26/26/26 27/27/27 
f 28/28/28 27/27/27 29/29/29 
f 30/30/30 28/28/28 29/29/29 
f 30/30/30 29/29/29 31/31/31 
f 32/32/32 30/30/30 31/31/31 
f 32/32/32 31/31/31 33/33/33 
f 34/34/34 32/32/32 33/33/33 
f 34/34/34 33/33/33 35/35/35 
f 36/36/36 34/34/34 35/35/35 
f 36/36/36 35/35/35 37/37/37 
f 38/38/38 36/36/36 37/37/37 
f 38/38/38 37/37/37 39/39/39 
f 40/40/40 38/38/38 39/39/39 
f 40/40/40 39/39/39 41/41/41 
f 42/42/42 40/40/40 41/41/41 
f 43/43/43 29/29/29 27/27/27 
f 43/43/43 44/44/44 29/29/29 
f 44/44/44 31/31/31 29/29/29 
f 44/44/44 43/43/43 45/45/45 
f 45/45/45 43/43/43 46/46/46 
f 43/43/43 47/47/47 46/46/46 
f 46/46/46 47/47/47 48/48/48 
f 47/47/47 49/49/49 48/48/48 
f 48/48/48 49/49/49 50/50/50 
f 49/49/49 51/51/51 50/50/50 
f 50/50/50 51/51/51 52/52/52 
f 51/51/51 53/53/53 52/52/52 
f 52/52/52 53/53/53 54/54/54 
f 53/53/53 55/55/55 54/54/54 
f 54/54/54 55/55/55 56/56/56 
f 55/55/55 57/57/57 56/56/56 
f 56/56/56 57/57/57 58/58/58 
f 57/57/57 59/59/59 58/58/58 
f 58/58/58 59/59/59 60/60/60 
f 59/59/59 61/61/61 60/60/60 
f 60/60/60 61/61/61 62/62/62 
f 61/61/61 63/63/63 62/62/62 
f 62/62/62 63/63/63 64/64/64 
f 63/63/63 65/65/65 64/64/64 
f 64/64/64 65/65/65 66/66/66 
f 65/65/65 67/67/67 66/66/66 
f 66/66/66 67/67/67 68/68/68 
f 67/67/67 69/69/69 68/68/68 
f 68/68/68 69/69/69 70/70/70 
f 69/69/69 71/71/71 70/70/70 
f 70/70/70 71/71/71 72/72/72 
f 71/71/71 73/73/73 72/72/72 
f 70/70/70 72/72/72 74/74/74 
f 75/75/75 70/70/70 74/74/74 
f 68/68/68 70/70/70 75/75/75 
f 75/75/75 74/74/74 76/76/76 
f 77/77/77 75/75/75 76/76/76 
f 78/78/78 75/75/75 77/77/77 
f 78/78/78 68/68/68 75/75/75 
f 66/66/66 68/68/68 78/78/78 
f 79/79/79 78/78/78 77/77/77 
f 80/80/80 78/78/78 79/79/79 
f 80/80/80 66/66/66 78/78/78 
f 81/81/81 80/80/80 79/79/79 
f 82/82/82 80/80/80 81/81/81 
f 83/83/83 82/82/82 81/81/81 
f 84/84/84 82/82/82 83/83/83 
f 85/85/85 84/84/84 83/83/83 
f 86/86/86 84/84/84 85/85/85 
f 87/87/87 86/86/86 85/85/85 
f 88/88/88 86/86/86 87/87/87 
f 89/89/89 88/88/88 87/87/87 
f 90/90/90 88/88/88 89/89/89 
f 91/91/91 90/90/90 89/89/89 
f 92/92/92 90/90/90 91/91/91 
f 93/93/93 92/92/92 91/91/91 
f 94/94/94 92/92/92 93/93/93 
f 95/95/95 94/94/94 93/93/93 
f 96/96/96 94/94/94 95/95/95 
f 97/97/97 96/96/96 95/95/95 
f 98/98/98 96/96/96 97/97/97 
f 99/99/99 98/98/98 97/97/97 
f 100/100/100 98/98/98 99/99/99 
f 101/101/101 100/100/100 99/99/99 
f 102/102/102 100/100/100 101/101/101 
f 103/103/103 102/102/102 101/101/101 
f 104/104/104 102/102/102 103/103/103 
f 105/105/105 104/104/104 103/103/103 
f 106/106/106 104/104/104 105/105/105 
f 107/107/107 106/106/106 105/105/105 
f 108/108/108 106/106/106 107/107/107 
f 109/109/109 108/108/108 107/107/107 
f 110/110/110 108/108/108 109/109/109 
f 111/111/111 110/110/110 109/109/109 
f 112/112/112 110/110/110 111/111/111 
f 113/113/113 112/112/112 111/111/111 
f 114/114/114 112/112/112 113/113/113 
f 115/115/115 114/114/114 113/113/113 
f 103/103/103 101/101/101 116/116/116 
f 116/116/116 101/101/101 117/117/117 
f 101/101/101 99/99/99 117/117/117 
f 117/117/117 99/99/99 118/118/118 
f 99/99/99 97/97/97 118/118/118 
f 118/118/118 97/97/97 119/119/119 
f 97/97/97 95/95/95 119/119/119 
f 119/119/119 95/95/95 120/120/120 
f 95/95/95 93/93/93 120/120/120 
f 120/120/120 93/93/93 121/121/121 
f 93/93/93 91/91/91 121/121/121 
f 121/121/121 91/91/91 122/122/122 
f 91/91/91 89/89/89 122/122/122 
f 122/122/122 89/89/89 123/123/123 
f 89/89/89 87/87/87 123/123/123 
f 123/123/123 87/87/87 124/124/124 
f 87/87/87 85/85/85 124/124/124 
f 124/124/124 85/85/85 125/125/125 
f 85/85/85 83/83/83 125/125/125 
f 125/125/125 83/83/83 126/126/126 
f 83/83/83 81/81/81 126/126/126 
f 126/126/126 81/81/81 127/127/127 
f 81/81/81 79/79/79 127/127/127 
f 127/127/127 79/79/79 128/128/128 
f 79/79/79 77/77/77 128/128/128 
f 128/128/128 77/77/77 129/129/129 
f 77/77/77 76/76/76 129/129/129 
f 130/130/130 44/44/44 45/45/45 
f 131/131/131 44/44/44 130/130/130 
f 132/132/132 131/131/131 130/130/130 
f 133/133/133 131/131/131 132/132/132 
f 134/134/134 133/133/133 132/132/132 
f 135/135/135 133/133/133 134/134/134 
f 136/136/136 135/135/135 134/134/134 
f 137/137/137 135/135/135 136/136/136 
f 138/138/138 137/137/137 136/136/136 
f 139/139/139 137/137/137 138/138/138 
f 140/140/140 139/139/139 138/138/138 
f 130/130/130 45/45/45 102/102/102 
f 102/102/102 45/45/45 100/100/100 
f 45/45/45 46/46/46 100/100/100 
f 100/100/100 46/46/46 98/98/98 
f 46/46/46 48/48/48 98/98/98 
f 98/98/98 48/48/48 96/96/96 
f 48/48/48 50/50/50 96/96/96 
f 96/96/96 50/50/50 94/94/94 
f 50/50/50 52/52/52 94/94/94 
f 94/94/94 52/52/52 92/92/92 
f 52/52/52 54/54/54 92/92/92 
f 92/92/92 54/54/54 90/90/90 
f 54/54/54 56/56/56 90/90/90 
f 90/90/90 56/56/56 88/88/88 
f 56/56/56 58/58/58 88/88/88 
f 88/88/88 58/58/58 86/86/86 
f 58/58/58 60/60/60 86/86/86 
f 86/86/86 60/60/60 84/84/84 
f 60/60/60 62/62/62 84/84/84 
f 84/84/84 62/62/62 82/82/82 
f 62/62/62 64/64/64 82/82/82 
f 82/82/82 64/64/64 80/80/80 
f 64/64/64 66/66/66 80/80/80 
f 141/141/141 103/103/103 116/116/116 
f 105/105/105 103/103/103 141/141/141 
f 142/142/142 105/105/105 141/141/141 
f 107/107/107 105/105/105 142/142/142 
f 143/143/143 107/107/107 142/142/142 
f 109/109/109 107/107/107 143/143/143 
f 144/144/144 109/109/109 143/143/143 
f 111/111/111 109/109/109 144/144/144 
f 145/145/145 111/111/111 144/144/144 
f 113/113/113 111/111/111 145/145/145 
f 146/146/146 113/113/113 145/145/145 
f 115/115/115 113/113/113 146/146/146 
f 147/147/147 115/115/115 146/146/146 
f 104/104/104 130/130/130 102/102/102 
f 132/132/132 130/130/130 104/104/104 
f 106/106/106 132/132/132 104/104/104 
f 134/134/134 132/132/132 106/106/106 
f 108/108/108 134/134/134 106/106/106 
f 136/136/136 134/134/134 108/108/108 
f 110/110/110 136/136/136 108/108/108 
f 138/138/138 136/136/136 110/110/110 
f 112/112/112 138/138/138 110/110/110 
f 140/140/140 138/138/138 112/112/112 
f 114/114/114 140/140/140 112/112/112 
f 73/73/73 71/71/71 4/4/4 
f 71/71/71 1/1/1 4/4/4 
f 71/71/71 69/69/69 1/1/1 
f 69/69/69 5/5/5 1/1/1 
f 69/69/69 67/67/67 5/5/5 
f 67/67/67 7/7/7 5/5/5 
f 67/67/67 65/65/65 7/7/7 
f 65/65/65 9/9/9 7/7/7 
f 65/65/65 63/63/63 9/9/9 
f 63/63/63 11/11/11 9/9/9 
f 63/63/63 61/61/61 11/11/11 
f 61/61/61 13/13/13 11/11/11 
f 61/61/61 59/59/59 13/13/13 
f 59/59/59 15/15/15 13/13/13 
f 59/59/59 57/57/57 15/15/15 
f 57/57/57 17/17/17 15/15/15 
f 57/57/57 55/55/55 17/17/17 
f 55/55/55 19/19/19 17/17/17 
f 55/55/55 53/53/53 19/19/19 
f 53/53/53 21/21/21 19/19/19 
f 53/53/53 51/51/51 21/21/21 
f 51/51/51 23/23/23 21/21/21 
f 51/51/51 49/49/49 23/23/23 
f 49/49/49 25/25/25 23/23/23 
f 49/49/49 47/47/47 25/25/25 
f 47/47/47 27/27/27 25/25/25 
f 47/47/47 43/43/43 27/27/27 
f 44/44/44 131/131/131 31/31/31 
f 131/131/131 33/33/33 31/31/31 
f 131/131/131 133/133/133 33/33/33 
f 133/133/133 35/35/35 33/33/33 
f 133/133/133 135/135/135 35/35/35 
f 135/135/135 37/37/37 35/35/35 
f 135/135/135 137/137/137 37/37/37 
f 137/137/137 39/39/39 37/37/37 
f 137/137/137 139/139/139 39/39/39 
f 139/139/139 41/41/41 39/39/39 

