# Created by DisUnity v0.3.4
v 0.004897447 0.6561918 0.2843572
v 0.20628183 0.5663654 0.36830077
v 0.008814258 0.6131756 0.39064208
v 0.21866639 0.60752857 0.262185
v 0.1718317 0.4729404 0.43405753
v -3.3690094E-4 0.4478135 0.4427529
v 0.11670797 0.33236834 0.3916205
v -0.003803357 0.2992648 0.4026121
v 0.38771337 0.45974153 0.3474146
v 0.41552103 0.4941264 0.23073226
v 0.3218696 0.3824696 0.42432043
v 0.22421253 0.26864603 0.37625778
v 0.5191231 0.30761984 0.33724716
v 0.55807364 0.32874432 0.22417384
v 0.3754429 0.21277533 0.41028404
v 0.2462223 0.13614306 0.356229
v 0.59433216 0.10567594 0.34325004
v 0.6373122 0.1098139 0.23715763
v 0.49585128 0.08696761 0.41673172
v 0.34904468 0.057711843 0.35610184
v 0.59271973 -0.10952822 0.3177499
v 0.6345707 -0.12059148 0.20044212
v 0.45773056 -0.090731315 0.39063156
v 0.3091801 -0.0680634 0.3517511
v 0.5311546 -0.3036235 0.33625022
v 0.5659058 -0.3262691 0.2220584
v 0.44549438 -0.25475165 0.39506054
v 0.3153361 -0.18187568 0.34921598
v 0.38289672 -0.46417773 0.3403822
v 0.4062142 -0.49685267 0.22624658
v 0.2976024 -0.36860868 0.40439886
v 0.2058271 -0.2533723 0.3562005
v 0.20601812 -0.5729741 0.33173305
v 0.21996324 -0.61407185 0.21773727
v 0.17539117 -0.4751907 0.40496147
v 0.12620127 -0.3347792 0.36544883
v -0.012434665 -0.5911124 0.34380352
v -0.014035887 -0.63563645 0.23135692
v 0.0031189763 -0.4408121 0.40191332
v 0.003935379 -0.2903444 0.36672762
v -0.20866755 -0.5615457 0.3360323
v -0.22466299 -0.60642123 0.23102199
v -0.16970034 -0.46608642 0.38732666
v -0.116620585 -0.32809868 0.35660163
v -0.3880717 -0.4625196 0.3216413
v -0.32009825 -0.38154212 0.4012304
v -0.21966945 -0.26175025 0.35709184
v -0.42830795 -0.24911083 0.40648636
v -0.29951036 -0.17148831 0.36766657
v -0.30122212 -0.060030412 0.37458542
v -0.44714537 -0.087112084 0.4150484
v -0.5188664 -0.30301687 0.3280444
v -0.6053115 -0.11785504 0.34163058
v -0.532997 0.0867633 0.4129196
v -0.38532987 0.061921317 0.39304802
v -0.30973682 0.18349338 0.40874815
v -0.43947214 0.25537905 0.43386912
v -0.63490444 0.100473516 0.33845738
v -0.64967084 -0.12749329 0.22850177
v -0.55992717 -0.3276339 0.20259142
v -0.6781348 0.106036454 0.22200279
v -0.6053115 -0.11785504 0.34163058
v -0.568931 0.31636414 0.35337177
v -0.6057924 0.33551723 0.23119596
v -0.40486494 0.472172 0.35533673
v -0.43332708 0.50400484 0.23518862
v -0.30331507 0.3604124 0.43785086
v -0.20876805 0.25114432 0.41259468
v -0.20840377 0.5777936 0.3978005
v -0.22595973 0.6151791 0.2902228
v -0.17325975 0.48204467 0.46165714
v -0.12611383 0.33904877 0.40330634
v 0.008814258 0.6131756 0.39064208
v 0.004897447 0.6561918 0.2843572
v -3.3690094E-4 0.4478135 0.4427529
v -0.003803357 0.2992648 0.4026121
v -0.00427359 0.33557865 0.06460256
v 0.18014713 0.5081959 0.06683068
v -0.0067405496 0.52828676 0.08009959
v 0.12994385 0.3674484 0.0567852
v 0.20563214 0.578318 0.13891296
v 0.0015794295 0.6219285 0.16030818
v 0.21866639 0.60752857 0.262185
v 0.004897447 0.6561918 0.2843572
v 0.345333 0.41182634 0.055814266
v 0.24800353 0.2962737 0.043553352
v 0.39114967 0.47021157 0.12705621
v 0.41552103 0.4941264 0.23073226
v 0.45574543 0.24378555 0.042904947
v 0.28007397 0.15515931 0.022128487
v 0.52994907 0.30830544 0.12174045
v 0.55807364 0.32874432 0.22417384
v 0.53178555 0.08802275 0.046370964
v 0.38512734 0.06409607 0.02045536
v 0.6057265 0.10085724 0.1278387
v 0.6057265 0.10085724 0.1278387
v 0.6373122 0.1098139 0.23715763
v 0.6057265 0.10085724 0.1278387
v 0.5281753 -0.1032372 0.024975013
v 0.34424898 -0.075207144 0.022722129
v 0.5871557 -0.1183629 0.098691024
v 0.6345707 -0.12059148 0.20044212
v 0.47045088 -0.27781466 0.030255621
v 0.3404916 -0.20181167 0.009671326
v 0.53495944 -0.31450137 0.11651544
v 0.5659058 -0.3262691 0.2220584
v 0.34170714 -0.45385036 0.03941799
v 0.22078454 -0.28542292 0.017022742
v 0.3881328 -0.47142416 0.12262874
v 0.4062142 -0.49685267 0.22624658
v 0.18445243 -0.5133205 0.04258709
v 0.13435799 -0.3729054 0.024761867
v 0.20983106 -0.58275384 0.11230654
v 0.21996324 -0.61407185 0.21773727
v -0.0109001435 -0.5328847 0.033832435
v -7.792967E-4 -0.33193505 0.023429222
v -0.012725656 -0.6054865 0.12626179
v -0.012725656 -0.6054865 0.12626179
v -0.014035887 -0.63563645 0.23135692
v -0.012725656 -0.6054865 0.12626179
v -0.18734914 -0.50991815 0.029216403
v -0.13510878 -0.37098497 0.016899185
v -0.21276456 -0.5795207 0.123097435
v -0.22466299 -0.60642123 0.23102199
v -0.34980345 -0.41656333 0.033783607
v -0.25478804 -0.30340204 0.024423236
v -0.3977014 -0.4725514 0.10246653
v -0.42102405 -0.49774656 0.20594469
v -0.47098368 -0.2734825 0.028866043
v -0.34182215 -0.1983429 0.031961534
v -0.53509015 -0.31057608 0.10629506
v -0.55992717 -0.3276339 0.20259142
v -0.5394568 -0.09891266 0.04510538
v -0.3428741 -0.0714471 0.039748438
v -0.6184324 -0.119974114 0.12560987
v -0.64967084 -0.12749329 0.22850177
v -0.5739712 0.08852376 0.041237105
v -0.4259681 0.0640326 0.046573274
v -0.6462858 0.10237041 0.11992357
v -0.6781348 0.106036454 0.22200279
v -0.48995823 0.29769224 0.060386207
v -0.34335244 0.195591 0.061224144
v -0.5781335 0.32036847 0.13217224
v -0.5781335 0.32036847 0.13217224
v -0.6057924 0.33551723 0.23119596
v -0.5781335 0.32036847 0.13217224
v -0.35012645 0.41340038 0.064401805
v -0.2350531 0.26917085 0.07333345
v -0.4162944 0.47985655 0.1362183
v -0.43332708 0.50400484 0.23518862
v -0.1916544 0.5115981 0.09418437
v -0.13952285 0.36936876 0.069817595
v -0.21696337 0.581551 0.1712113
v -0.22595973 0.6151791 0.2902228
v -0.0067405496 0.52828676 0.08009959
v -0.00427359 0.33557865 0.06460256
v 0.0015794295 0.6219285 0.16030818
v 0.004897447 0.6561918 0.2843572
v -0.42102405 -0.49774656 0.20594469
v -0.3880717 -0.4625196 0.3216413
v -0.5188664 -0.30301687 0.3280444
v -0.5188664 -0.30301687 0.3280444
v -0.6053115 -0.11785504 0.34163058
v -0.3880717 -0.4625196 0.3216413
v -0.5188664 -0.30301687 0.3280444
vn 0.026558641 0.99784994 0.05991752
vn 0.32681736 0.6975619 0.63765025
vn 0.06890016 0.7357938 0.67369145
vn 0.37088847 0.92712504 0.053674113
vn 0.14426748 0.15280746 0.97766906
vn 0.06834115 0.011846019 0.99759173
vn 0.031187769 -0.29474676 0.9550663
vn 0.05309089 -0.30959165 0.94938624
vn 0.5496371 0.5611967 0.61883557
vn 0.64255255 0.76597345 0.020271335
vn 0.19923508 0.10873026 0.9739009
vn -0.1948301 -0.22626558 0.95438206
vn 0.6711001 0.38779733 0.63185287
vn 0.862182 0.50630903 0.017124932
vn 0.032020595 -0.027400225 0.9991116
vn -0.27771768 -0.22626938 0.9336354
vn 0.74991536 0.110421225 0.6522531
vn 0.9861178 0.16046798 0.04268199
vn 0.20282802 -0.008541425 0.97917706
vn -0.29989046 -0.15071584 0.9419928
vn 0.7822601 -0.14228784 0.60648423
vn 0.9861479 -0.16280846 -0.031714566
vn 0.10036504 -0.056587208 0.9933402
vn -0.3031644 -3.1498427E-4 0.9529382
vn 0.68205327 -0.35949746 0.63683975
vn 0.8647196 -0.5019664 0.01701899
vn 0.19776878 -0.06460065 0.97811764
vn -0.22326489 0.15191983 0.96284646
vn 0.49417356 -0.59757864 0.63142085
vn 0.6339242 -0.7727214 0.032275166
vn 0.08047658 -0.059706975 0.99496657
vn -0.16118768 0.26445654 0.9508319
vn 0.24548793 -0.73927623 0.62706167
vn 0.3198659 -0.9472079 0.02197258
vn 0.07264775 -0.20979388 0.975043
vn -0.049119666 0.24826193 0.96744674
vn -0.026868876 -0.735264 0.6772481
vn -0.023657992 -0.99807215 0.057377394
vn -0.032835033 -0.05876185 0.99773186
vn -0.037227117 0.25232992 0.96692485
vn -0.25631922 -0.7047407 0.66154444
vn -0.32268476 -0.94382775 0.07115935
vn -0.08136721 -0.1844173 0.9794741
vn -7.2246214E-4 0.21981828 0.9755406
vn -0.5130751 -0.6055247 0.6083533
vn -0.119036525 -0.18638857 0.9752382
vn 0.20028497 0.15735112 0.9670194
vn -0.17232232 -0.15928748 0.97207636
vn 0.26520124 0.043053027 0.9632314
vn 0.2500488 0.009033001 0.9681911
vn -0.084067345 -0.06932012 0.994046
vn -0.6607134 -0.42902768 0.6159489
vn -0.73279184 -0.2301668 0.64034325
vn -0.289952 -0.028969642 0.95660263
vn 0.1546095 -0.048163287 0.986801
vn 0.091267616 -0.17121108 0.980998
vn -0.2041631 0.07977496 0.97568107
vn -0.7860234 0.048386216 0.6163002
vn -0.9614859 -0.2705538 0.048429716
vn -0.84901226 -0.528044 0.01864757
vn -0.995827 0.08952098 0.017735345
vn -0.73279184 -0.2301668 0.64034325
vn -0.67675024 0.40340358 0.6158529
vn -0.853693 0.5203694 0.020587478
vn -0.51500165 0.60172594 0.61049086
vn -0.588844 0.8082407 0.0031206645
vn -0.12813479 0.076048605 0.98883677
vn 0.12410425 -0.19723992 0.9724683
vn -0.27484038 0.68298507 0.6767526
vn -0.3344321 0.9400533 0.066745244
vn -0.08451691 0.14914402 0.98519695
vn 0.06780385 -0.27870697 0.9579796
vn 0.06890016 0.7357938 0.67369145
vn 0.026558641 0.99784994 0.05991752
vn 0.06834115 0.011846019 0.99759173
vn 0.05309089 -0.30959165 0.94938624
vn -0.061334845 0.09744168 -0.9933495
vn 0.08636163 0.4291923 -0.8990749
vn -0.057660475 0.42638612 -0.90270156
vn -0.048885893 0.092850074 -0.9944793
vn 0.26598346 0.81685233 -0.51186436
vn -0.019286795 0.8652003 -0.50105536
vn 0.37088847 0.92712504 0.053674113
vn 0.026558641 0.99784994 0.05991752
vn 0.24973181 0.36097437 -0.89851624
vn 0.004744974 0.1135507 -0.9935209
vn 0.5261394 0.6665965 -0.5280403
vn 0.64255255 0.76597345 0.020271335
vn 0.3540282 0.22923885 -0.9067048
vn 0.06988057 0.10185699 -0.99234164
vn 0.72802037 0.42862508 -0.53503925
vn 0.862182 0.50630903 0.017124932
vn 0.47589648 0.116810046 -0.87170976
vn 0.10168223 0.06300234 -0.99281996
vn 0.8503703 0.15670446 -0.5023087
vn 0.8503703 0.15670446 -0.5023087
vn 0.9861178 0.16046798 0.04268199
vn 0.8503703 0.15670446 -0.5023087
vn 0.4700265 -0.04682691 -0.88140935
vn 0.08064506 0.028079795 -0.99634725
vn 0.8451287 -0.1355457 -0.51709265
vn 0.9861479 -0.16280846 -0.031714566
vn 0.43204975 -0.26039714 -0.8634388
vn 0.06629781 -0.05249057 -0.99641824
vn 0.7587568 -0.45770913 -0.46345493
vn 0.8647196 -0.5019664 0.01701899
vn 0.3200026 -0.45540842 -0.83078367
vn 0.041504692 -0.11613058 -0.9923664
vn 0.57898545 -0.6902976 -0.43389532
vn 0.6339242 -0.7727214 0.032275166
vn 0.1382151 -0.4800428 -0.86628836
vn 0.025211878 -0.09667004 -0.99499714
vn 0.27371967 -0.841946 -0.46497774
vn 0.3198659 -0.9472079 0.02197258
vn 0.009729869 -0.4796281 -0.87741786
vn 0.032178633 -0.07675389 -0.9965307
vn -0.018696258 -0.88923395 -0.4570706
vn -0.018696258 -0.88923395 -0.4570706
vn -0.023657992 -0.99807215 0.057377394
vn -0.018696258 -0.88923395 -0.4570706
vn -0.13865252 -0.4626295 -0.87564236
vn -0.007889249 -0.061563615 -0.9980719
vn -0.26482564 -0.848758 -0.4576869
vn -0.32268476 -0.94382775 0.07115935
vn -0.28625748 -0.34639877 -0.8933445
vn -0.045240935 -0.026633399 -0.998621
vn -0.54061335 -0.6729126 -0.5049017
vn -0.6420355 -0.765957 0.03317051
vn -0.36975887 -0.1826152 -0.9110049
vn -0.026088918 0.036265958 -0.99900156
vn -0.7420792 -0.42841798 -0.5155352
vn -0.84901226 -0.528044 0.01864757
vn -0.4111982 -0.079884805 -0.90803885
vn -0.01658698 0.04433047 -0.99887925
vn -0.8427408 -0.21678577 -0.4927391
vn -0.9614859 -0.2705538 0.048429716
vn -0.4082488 0.061173256 -0.91081864
vn 0.024186565 0.038832225 -0.998953
vn -0.84885675 0.08992803 -0.5209175
vn -0.995827 0.08952098 0.017735345
vn -0.29065838 0.26607648 -0.9190871
vn 0.05245852 0.042172983 -0.99773216
vn -0.7155954 0.46005824 -0.5256136
vn -0.7155954 0.46005824 -0.5256136
vn -0.853693 0.5203694 0.020587478
vn -0.7155954 0.46005824 -0.5256136
vn -0.15238808 0.33723605 -0.9290046
vn 0.047366694 0.0466082 -0.9977896
vn -0.46015498 0.70659006 -0.53757596
vn -0.588844 0.8082407 0.0031206645
vn -0.11515215 0.4461921 -0.8874979
vn -0.0077163335 0.09441291 -0.99550325
vn -0.25364146 0.8301323 -0.49653444
vn -0.3344321 0.9400533 0.066745244
vn -0.057660475 0.42638612 -0.90270156
vn -0.061334845 0.09744168 -0.9933495
vn -0.019286795 0.8652003 -0.50105536
vn 0.026558641 0.99784994 0.05991752
vn -0.6420355 -0.765957 0.03317051
vn -0.5130751 -0.6055247 0.6083533
vn -0.6607134 -0.42902768 0.6159489
vn -0.6607134 -0.42902768 0.6159489
vn -0.73279184 -0.2301668 0.64034325
vn -0.5130751 -0.6055247 0.6083533
vn -0.6607134 -0.42902768 0.6159489
vt 0.008000497 1.0
vt 0.16696997 0.9549328
vt 0.16696997 1.0
vt 0.008000497 0.9444444
vt 0.32593942 0.9444444
vt 0.32593942 1.0
vt 0.48490894 0.9444444
vt 0.48490894 1.0
vt 0.16696997 0.87577844
vt 0.008000497 0.8888889
vt 0.3311836 0.8941331
vt 0.48490894 0.8888889
vt 0.14074907 0.8333333
vt 0.008000497 0.8333333
vt 0.32593942 0.8333333
vt 0.48490894 0.8333333
vt 0.16696997 0.7777778
vt 0.008000497 0.7777778
vt 0.33249465 0.79219925
vt 0.48490894 0.7777778
vt 0.15517056 0.70911175
vt 0.008000497 0.7222222
vt 0.32593942 0.7222222
vt 0.48490894 0.7222222
vt 0.16696997 0.6666666
vt 0.008000497 0.6666666
vt 0.35084927 0.6666666
vt 0.48490894 0.6666666
vt 0.16696997 0.6111111
vt 0.008000497 0.6111111
vt 0.32593942 0.6111111
vt 0.48490894 0.6111111
vt 0.14337115 0.567355
vt 0.008000497 0.5555556
vt 0.32593942 0.5555556
vt 0.48490894 0.5555556
vt 0.16696997 0.5
vt 0.008000497 0.5
vt 0.3403609 0.5117994
vt 0.48490894 0.5
vt 0.16696997 0.44444442
vt 0.008000497 0.44444442
vt 0.32593942 0.44444442
vt 0.48490894 0.44444442
vt 0.14992638 0.40331042
vt 0.32593942 0.3888889
vt 0.48490894 0.3888889
vt 0.32725045 0.32808912
vt 0.48490894 0.3333333
vt 0.48490894 0.2777778
vt 0.32593942 0.2777778
vt 0.1879467 0.36479843
vt 0.15123743 0.30268764
vt 0.3311836 0.22877741
vt 0.48490894 0.22222221
vt 0.48490894 0.16666669
vt 0.33642778 0.17715508
vt 0.18532461 0.24713206
vt 0.008000497 0.2777778
vt 0.008000497 0.3333333
vt 0.008000497 0.22222221
vt 0.15123743 0.30268764
vt 0.14730428 0.17584401
vt 0.008000497 0.16666669
vt 0.16828102 0.12422156
vt 0.008000497 0.111111104
vt 0.32593942 0.111111104
vt 0.48490894 0.111111104
vt 0.16959207 0.069977105
vt 0.008000497 0.055555582
vt 0.3456051 0.05817765
vt 0.48490894 0.055555582
vt 0.16696997 0.0
vt 0.008000497 0.0
vt 0.32593942 0.0
vt 0.48490894 0.0
vt 0.49137694 1.0
vt 0.66357696 0.9444444
vt 0.66357696 1.0
vt 0.49137694 0.9444444
vt 0.83577687 0.9444444
vt 0.83577687 1.0
vt 1.0079768 0.9444444
vt 1.0079768 1.0
vt 0.66357696 0.8888889
vt 0.49137694 0.8888889
vt 0.83577687 0.8888889
vt 1.0079768 0.8888889
vt 0.6675101 0.8503769
vt 0.49137694 0.8333333
vt 0.83577687 0.8333333
vt 1.0079768 0.8333333
vt 0.664888 0.8000655
vt 0.49137694 0.7777778
vt 0.8488873 0.80924284
vt 0.8488873 0.80924284
vt 1.0079768 0.7777778
vt 0.8488873 0.80924284
vt 0.6596438 0.7327106
vt 0.49137694 0.7222222
vt 0.83577687 0.7222222
vt 1.0079768 0.7222222
vt 0.6714432 0.67584395
vt 0.49137694 0.6666666
vt 0.8056228 0.6823992
vt 1.0079768 0.6666666
vt 0.66357696 0.6111111
vt 0.49137694 0.6111111
vt 0.83577687 0.6111111
vt 1.0079768 0.6111111
vt 0.66357696 0.5555556
vt 0.49137694 0.5555556
vt 0.83577687 0.5555556
vt 1.0079768 0.5555556
vt 0.66357696 0.5
vt 0.49137694 0.5
vt 0.8436431 0.52490985
vt 0.8436431 0.52490985
vt 1.0079768 0.5
vt 0.8436431 0.52490985
vt 0.66357696 0.44444442
vt 0.49137694 0.44444442
vt 0.83577687 0.44444442
vt 1.0079768 0.44444442
vt 0.66357696 0.3888889
vt 0.49137694 0.3888889
vt 0.80955595 0.40724355
vt 1.0079768 0.3888889
vt 0.64653337 0.32546705
vt 0.49137694 0.3333333
vt 0.83184373 0.3451327
vt 1.0079768 0.3333333
vt 0.66357696 0.2777778
vt 0.49137694 0.2777778
vt 0.810867 0.2921993
vt 1.0079768 0.2777778
vt 0.64915544 0.21697801
vt 0.49137694 0.22222221
vt 0.83577687 0.22222221
vt 1.0079768 0.22222221
vt 0.66357696 0.16666669
vt 0.49137694 0.16666669
vt 0.8449542 0.18895447
vt 0.8449542 0.18895447
vt 1.0079768 0.16666669
vt 0.8449542 0.18895447
vt 0.6779985 0.10848904
vt 0.49137694 0.111111104
vt 0.83577687 0.111111104
vt 1.0079768 0.111111104
vt 0.66357696 0.055555582
vt 0.49137694 0.055555582
vt 0.8252885 0.055555582
vt 1.0079768 0.055555582
vt 0.66357696 0.0
vt 0.49137694 0.0
vt 0.83577687 0.0
vt 1.0079768 0.0
vt 0.008000497 0.3888889
vt 0.14992638 0.40331042
vt 0.1879467 0.36479843
vt 0.1879467 0.36479843
vt 0.15123743 0.30268764
vt 0.14992638 0.40331042
vt 0.1879467 0.36479843

g Torus003
s 1
usemtl Torus003
f 3/3/3 2/2/2 1/1/1 
f 2/2/2 4/4/4 1/1/1 
f 5/5/5 2/2/2 3/3/3 
f 6/6/6 5/5/5 3/3/3 
f 7/7/7 5/5/5 6/6/6 
f 8/8/8 7/7/7 6/6/6 
f 2/2/2 9/9/9 4/4/4 
f 9/9/9 10/10/10 4/4/4 
f 5/5/5 11/11/11 2/2/2 
f 11/11/11 9/9/9 2/2/2 
f 7/7/7 12/12/12 5/5/5 
f 12/12/12 11/11/11 5/5/5 
f 9/9/9 13/13/13 10/10/10 
f 13/13/13 14/14/14 10/10/10 
f 11/11/11 15/15/15 9/9/9 
f 15/15/15 13/13/13 9/9/9 
f 12/12/12 16/16/16 11/11/11 
f 16/16/16 15/15/15 11/11/11 
f 13/13/13 17/17/17 14/14/14 
f 17/17/17 18/18/18 14/14/14 
f 15/15/15 19/19/19 13/13/13 
f 19/19/19 17/17/17 13/13/13 
f 16/16/16 20/20/20 15/15/15 
f 20/20/20 19/19/19 15/15/15 
f 17/17/17 21/21/21 18/18/18 
f 21/21/21 22/22/22 18/18/18 
f 19/19/19 23/23/23 17/17/17 
f 23/23/23 21/21/21 17/17/17 
f 20/20/20 24/24/24 19/19/19 
f 24/24/24 23/23/23 19/19/19 
f 21/21/21 25/25/25 22/22/22 
f 25/25/25 26/26/26 22/22/22 
f 23/23/23 27/27/27 21/21/21 
f 27/27/27 25/25/25 21/21/21 
f 24/24/24 28/28/28 23/23/23 
f 28/28/28 27/27/27 23/23/23 
f 25/25/25 29/29/29 26/26/26 
f 29/29/29 30/30/30 26/26/26 
f 27/27/27 31/31/31 25/25/25 
f 31/31/31 29/29/29 25/25/25 
f 28/28/28 32/32/32 27/27/27 
f 32/32/32 31/31/31 27/27/27 
f 29/29/29 33/33/33 30/30/30 
f 33/33/33 34/34/34 30/30/30 
f 31/31/31 35/35/35 29/29/29 
f 35/35/35 33/33/33 29/29/29 
f 32/32/32 36/36/36 31/31/31 
f 36/36/36 35/35/35 31/31/31 
f 33/33/33 37/37/37 34/34/34 
f 37/37/37 38/38/38 34/34/34 
f 35/35/35 39/39/39 33/33/33 
f 39/39/39 37/37/37 33/33/33 
f 36/36/36 40/40/40 35/35/35 
f 40/40/40 39/39/39 35/35/35 
f 37/37/37 41/41/41 38/38/38 
f 41/41/41 42/42/42 38/38/38 
f 39/39/39 43/43/43 37/37/37 
f 43/43/43 41/41/41 37/37/37 
f 40/40/40 44/44/44 39/39/39 
f 44/44/44 43/43/43 39/39/39 
f 41/41/41 45/45/45 42/42/42 
f 43/43/43 46/46/46 41/41/41 
f 46/46/46 45/45/45 41/41/41 
f 44/44/44 47/47/47 43/43/43 
f 47/47/47 46/46/46 43/43/43 
f 46/46/46 48/48/48 45/45/45 
f 47/47/47 49/49/49 46/46/46 
f 49/49/49 48/48/48 46/46/46 
f 49/49/49 50/50/50 48/48/48 
f 50/50/50 51/51/51 48/48/48 
f 48/48/48 51/51/51 52/52/52 
f 51/51/51 53/53/53 52/52/52 
f 51/51/51 54/54/54 53/53/53 
f 50/50/50 55/55/55 51/51/51 
f 55/55/55 54/54/54 51/51/51 
f 55/55/55 56/56/56 54/54/54 
f 56/56/56 57/57/57 54/54/54 
f 54/54/54 57/57/57 58/58/58 
f 53/53/53 58/58/58 59/59/59 
f 53/53/53 59/59/59 60/60/60 
f 58/58/58 61/61/61 59/59/59 
f 54/54/54 58/58/58 62/62/62 
f 58/58/58 63/63/63 61/61/61 
f 57/57/57 63/63/63 58/58/58 
f 63/63/63 64/64/64 61/61/61 
f 63/63/63 65/65/65 64/64/64 
f 65/65/65 66/66/66 64/64/64 
f 57/57/57 67/67/67 63/63/63 
f 67/67/67 65/65/65 63/63/63 
f 56/56/56 68/68/68 57/57/57 
f 68/68/68 67/67/67 57/57/57 
f 65/65/65 69/69/69 66/66/66 
f 69/69/69 70/70/70 66/66/66 
f 67/67/67 71/71/71 65/65/65 
f 71/71/71 69/69/69 65/65/65 
f 68/68/68 72/72/72 67/67/67 
f 72/72/72 71/71/71 67/67/67 
f 69/69/69 73/73/73 70/70/70 
f 73/73/73 74/74/74 70/70/70 
f 71/71/71 75/75/75 69/69/69 
f 75/75/75 73/73/73 69/69/69 
f 72/72/72 76/76/76 71/71/71 
f 76/76/76 75/75/75 71/71/71 
f 79/79/79 78/78/78 77/77/77 
f 78/78/78 80/80/80 77/77/77 
f 81/81/81 78/78/78 79/79/79 
f 82/82/82 81/81/81 79/79/79 
f 83/83/83 81/81/81 82/82/82 
f 84/84/84 83/83/83 82/82/82 
f 78/78/78 85/85/85 80/80/80 
f 85/85/85 86/86/86 80/80/80 
f 81/81/81 87/87/87 78/78/78 
f 87/87/87 85/85/85 78/78/78 
f 83/83/83 88/88/88 81/81/81 
f 88/88/88 87/87/87 81/81/81 
f 85/85/85 89/89/89 86/86/86 
f 89/89/89 90/90/90 86/86/86 
f 87/87/87 91/91/91 85/85/85 
f 91/91/91 89/89/89 85/85/85 
f 88/88/88 92/92/92 87/87/87 
f 92/92/92 91/91/91 87/87/87 
f 89/89/89 93/93/93 90/90/90 
f 93/93/93 94/94/94 90/90/90 
f 91/91/91 95/95/95 89/89/89 
f 96/96/96 93/93/93 89/89/89 
f 92/92/92 97/97/97 91/91/91 
f 97/97/97 98/98/98 91/91/91 
f 93/93/93 99/99/99 94/94/94 
f 99/99/99 100/100/100 94/94/94 
f 96/96/96 101/101/101 93/93/93 
f 101/101/101 99/99/99 93/93/93 
f 97/97/97 102/102/102 95/95/95 
f 102/102/102 101/101/101 95/95/95 
f 99/99/99 103/103/103 100/100/100 
f 103/103/103 104/104/104 100/100/100 
f 101/101/101 105/105/105 99/99/99 
f 105/105/105 103/103/103 99/99/99 
f 102/102/102 106/106/106 101/101/101 
f 106/106/106 105/105/105 101/101/101 
f 103/103/103 107/107/107 104/104/104 
f 107/107/107 108/108/108 104/104/104 
f 105/105/105 109/109/109 103/103/103 
f 109/109/109 107/107/107 103/103/103 
f 106/106/106 110/110/110 105/105/105 
f 110/110/110 109/109/109 105/105/105 
f 107/107/107 111/111/111 108/108/108 
f 111/111/111 112/112/112 108/108/108 
f 109/109/109 113/113/113 107/107/107 
f 113/113/113 111/111/111 107/107/107 
f 110/110/110 114/114/114 109/109/109 
f 114/114/114 113/113/113 109/109/109 
f 111/111/111 115/115/115 112/112/112 
f 115/115/115 116/116/116 112/112/112 
f 113/113/113 117/117/117 111/111/111 
f 118/118/118 115/115/115 111/111/111 
f 114/114/114 119/119/119 113/113/113 
f 119/119/119 120/120/120 113/113/113 
f 115/115/115 121/121/121 116/116/116 
f 121/121/121 122/122/122 116/116/116 
f 118/118/118 123/123/123 115/115/115 
f 123/123/123 121/121/121 115/115/115 
f 119/119/119 124/124/124 117/117/117 
f 124/124/124 123/123/123 117/117/117 
f 121/121/121 125/125/125 122/122/122 
f 125/125/125 126/126/126 122/122/122 
f 123/123/123 127/127/127 121/121/121 
f 127/127/127 125/125/125 121/121/121 
f 124/124/124 128/128/128 123/123/123 
f 128/128/128 127/127/127 123/123/123 
f 125/125/125 129/129/129 126/126/126 
f 129/129/129 130/130/130 126/126/126 
f 127/127/127 131/131/131 125/125/125 
f 131/131/131 129/129/129 125/125/125 
f 128/128/128 132/132/132 127/127/127 
f 132/132/132 131/131/131 127/127/127 
f 129/129/129 133/133/133 130/130/130 
f 133/133/133 134/134/134 130/130/130 
f 131/131/131 135/135/135 129/129/129 
f 135/135/135 133/133/133 129/129/129 
f 132/132/132 136/136/136 131/131/131 
f 136/136/136 135/135/135 131/131/131 
f 133/133/133 137/137/137 134/134/134 
f 137/137/137 138/138/138 134/134/134 
f 135/135/135 139/139/139 133/133/133 
f 139/139/139 137/137/137 133/133/133 
f 136/136/136 140/140/140 135/135/135 
f 140/140/140 139/139/139 135/135/135 
f 137/137/137 141/141/141 138/138/138 
f 141/141/141 142/142/142 138/138/138 
f 139/139/139 143/143/143 137/137/137 
f 144/144/144 141/141/141 137/137/137 
f 140/140/140 145/145/145 139/139/139 
f 145/145/145 146/146/146 139/139/139 
f 141/141/141 147/147/147 142/142/142 
f 147/147/147 148/148/148 142/142/142 
f 143/143/143 149/149/149 141/141/141 
f 149/149/149 147/147/147 141/141/141 
f 145/145/145 150/150/150 143/143/143 
f 150/150/150 149/149/149 143/143/143 
f 147/147/147 151/151/151 148/148/148 
f 151/151/151 152/152/152 148/148/148 
f 149/149/149 153/153/153 147/147/147 
f 153/153/153 151/151/151 147/147/147 
f 150/150/150 154/154/154 149/149/149 
f 154/154/154 153/153/153 149/149/149 
f 151/151/151 155/155/155 152/152/152 
f 155/155/155 156/156/156 152/152/152 
f 153/153/153 157/157/157 151/151/151 
f 157/157/157 155/155/155 151/151/151 
f 154/154/154 158/158/158 153/153/153 
f 158/158/158 157/157/157 153/153/153 
f 160/160/160 159/159/159 42/42/42 
f 160/160/160 161/161/161 159/159/159 
f 162/162/162 60/60/60 159/159/159 
f 161/161/161 163/163/163 60/60/60 
f 48/48/48 165/165/165 164/164/164 

