# Created by DisUnity v0.3.4
v -5.190739E-4 0.04816716 -0.036686145
v -0.0644037 0.0820977 -0.008338711
v -0.06439385 0.04817004 -0.008313133
v -5.289125E-4 0.08209483 -0.03671172
v 7.337546E-4 0.08209522 -0.036707368
v 7.435934E-4 0.048167545 -0.036681786
v 0.064411536 0.08213542 -0.00789498
v 0.06442138 0.04820774 -0.007869399
v -0.041589793 0.3618637 -0.0020271158
v 0.0014811778 0.058787994 -0.01546461
v 0.0012233162 0.39387122 -0.015717821
v -0.041361637 0.058785874 -0.0017981111
v 0.041110456 0.36188793 -0.0017422318
v 0.041338615 0.05881008 -0.001513232
v -0.04160115 0.40102804 -0.0020566415
v 0.0011055374 0.4226504 -0.0017373228
v 0.041099098 0.40105224 -0.0017717599
v 0.013452377 -0.050361518 -0.023052914
v 1.45983695E-5 -0.050348017 3.7872196E-5
v -0.013263772 -0.050369337 -0.023144946
v -0.026701553 -0.050355837 -5.4156033E-5
v -0.013423184 -0.050334506 0.023128657
v 0.013292968 -0.05032669 0.023220688
v 0.026730666 -0.050340198 1.2990236E-4
v -0.013259148 -0.06632304 -0.023132915
v 1.9222498E-5 -0.06630172 4.9901006E-5
v 0.013457005 -0.066315226 -0.023040885
v -0.02669693 -0.066309534 -4.2126812E-5
v -0.01341856 -0.06628821 0.023140686
v 0.013297592 -0.066280395 0.023232717
v 0.026735289 -0.0662939 1.4193296E-4
v -0.06444935 0.048182163 0.007796545
v -5.190739E-4 0.04816716 -0.036686145
v -0.06439385 0.04817004 -0.008313133
v -7.715654E-4 0.04822236 0.036608934
v 0.06436588 0.04821986 0.008240274
v 7.435934E-4 0.048167545 -0.036681786
v 4.911041E-4 0.048222736 0.03661329
v 0.06442138 0.04820774 -0.007869399
v 4.911041E-4 0.048222736 0.03661329
v -5.190739E-4 0.04816716 -0.036686145
v -7.715654E-4 0.04822236 0.036608934
v 7.435934E-4 0.048167545 -0.036681786
v -0.0644037 0.0820977 -0.008338711
v -7.8140735E-4 0.08215003 0.036583353
v -0.06445918 0.08210983 0.0077709625
v -5.289125E-4 0.08209483 -0.03671172
v 0.064411536 0.08213542 -0.00789498
v 4.8126458E-4 0.0821504 0.036587704
v 7.337546E-4 0.08209522 -0.036707368
v 0.06435605 0.08214754 0.008214696
v -7.8140735E-4 0.08215003 0.036583353
v 7.337546E-4 0.08209522 -0.036707368
v 4.8126458E-4 0.0821504 0.036587704
v -5.289125E-4 0.08209483 -0.03671172
v 0.0013749027 0.05881123 0.015385723
v -0.041600905 0.36186615 0.0011953926
v 0.0011170291 0.3938944 0.015132519
v -0.04137273 0.0587883 0.0014243865
v -0.041589793 0.3618637 -0.0020271158
v -0.041361637 0.058785874 -0.0017981111
v 0.04109935 0.36189032 0.0014802646
v 0.041327514 0.0588125 0.001709265
v 0.041338615 0.05881008 -0.001513232
v 0.041110456 0.36188793 -0.0017422318
v -0.041612234 0.40103054 0.0011658525
v 0.0010957432 0.42265254 0.0011082172
v -0.04160115 0.40102804 -0.0020566415
v 0.0011055374 0.4226504 -0.0017373228
v 0.041088004 0.40105468 0.0014507365
v 0.041099098 0.40105224 -0.0017717599
v -0.04160115 0.40102804 -0.0020566415
v 0.041099098 0.40105224 -0.0017717599
v -0.015232082 0.04794581 -8.866608E-5
v -0.007637976 -0.056947283 0.013196003
v -0.015201656 -0.056959413 -9.569078E-6
v -0.00766839 0.047957968 0.0131169055
v 0.0075801956 -0.05694281 0.013248428
v 0.007549771 0.047962416 0.013169329
v 0.01523468 -0.056950524 9.5274445E-5
v 0.015204264 0.047954727 1.6177446E-5
v -0.01341856 -0.06628821 0.023140686
v -0.026701553 -0.050355837 -5.4156033E-5
v -0.013423184 -0.050334506 0.023128657
v -0.02669693 -0.066309534 -4.2126812E-5
v 0.013297592 -0.066280395 0.023232717
v 0.013292968 -0.05032669 0.023220688
v 0.026735289 -0.0662939 1.4193296E-4
v 0.026730666 -0.050340198 1.2990236E-4
v -0.06445918 0.08210983 0.0077709625
v -7.715654E-4 0.04822236 0.036608934
v -0.06444935 0.048182163 0.007796545
v -7.8140735E-4 0.08215003 0.036583353
v -0.06439385 0.04817004 -0.008313133
v -0.0644037 0.0820977 -0.008338711
v 4.8126458E-4 0.0821504 0.036587704
v 4.911041E-4 0.048222736 0.03661329
v 0.06435605 0.08214754 0.008214696
v 0.06436588 0.04821986 0.008240274
v 0.06442138 0.04820774 -0.007869399
v 0.064411536 0.08213542 -0.00789498
v -0.0075471723 -0.056967128 -0.013162722
v -0.015232082 0.04794581 -8.866608E-5
v -0.015201656 -0.056959413 -9.569078E-6
v -0.0075775874 0.047938127 -0.013241816
v 0.0076709986 -0.05696265 -0.013110297
v 0.007640575 0.04794257 -0.013189393
v 0.01523468 -0.056950524 9.5274445E-5
v 0.015204264 0.047954727 1.6177446E-5
v -0.026701553 -0.050355837 -5.4156033E-5
v -0.013259148 -0.06632304 -0.023132915
v -0.013263772 -0.050369337 -0.023144946
v -0.02669693 -0.066309534 -4.2126812E-5
v 0.013457005 -0.066315226 -0.023040885
v 0.013452377 -0.050361518 -0.023052914
v 0.026735289 -0.0662939 1.4193296E-4
v 0.026730666 -0.050340198 1.2990236E-4
vn -0.20580459 -7.97492E-4 -0.9785928
vn -0.40594986 -8.0674916E-4 -0.91389495
vn -0.40594983 -8.0674916E-4 -0.91389495
vn -0.20580257 -7.9749164E-4 -0.97859323
vn 0.21254532 -6.750913E-4 -0.9771509
vn 0.21254328 -6.750922E-4 -0.9771514
vn 0.41223672 -5.6736555E-4 -0.91107666
vn 0.41223672 -5.6736555E-4 -0.91107666
vn -0.29447076 0.058148343 -0.9538898
vn 0.014034815 -7.448642E-4 -0.9999013
vn 0.012413587 0.13796028 -0.9903599
vn -0.3039213 -9.5135113E-4 -0.9526966
vn 0.3206271 0.05652237 -0.94551754
vn 0.3303581 -4.616018E-4 -0.94385546
vn -0.268727 0.19324696 -0.94363195
vn 0.009000685 0.20114389 -0.9795203
vn 0.29280654 0.19285424 -0.93652105
vn -2.901166E-4 0.99999976 -7.53451E-4
vn -2.9008582E-4 0.99999976 -7.537084E-4
vn -2.9011618E-4 0.99999976 -7.534509E-4
vn -2.9011513E-4 0.99999976 -7.537601E-4
vn -2.90025E-4 0.99999976 -7.5401744E-4
vn -2.9002575E-4 0.99999976 -7.5391406E-4
vn -2.9011635E-4 0.99999976 -7.53657E-4
vn 2.900261E-4 -0.99999976 7.5370824E-4
vn 2.9002642E-4 -0.99999976 7.537084E-4
vn 2.8993707E-4 -0.99999976 7.5375964E-4
vn 2.9011563E-4 -0.99999976 7.536572E-4
vn 2.9011557E-4 -0.99999976 7.5365725E-4
vn 2.9002645E-4 -0.99999976 7.5370807E-4
vn 2.8993754E-4 -0.99999976 7.5375946E-4
vn 2.899666E-4 -0.99999976 7.5397734E-4
vn 2.9547955E-4 -0.99999964 7.540299E-4
vn 2.8996659E-4 -0.99999976 7.539773E-4
vn 2.9547958E-4 -0.99999964 7.540301E-4
vn 2.8996708E-4 -0.99999976 7.5387076E-4
vn 2.9547975E-4 -0.99999964 7.5398496E-4
vn 2.9547975E-4 -0.99999964 7.539849E-4
vn 2.8996708E-4 -0.99999976 7.5387064E-4
vn 2.9547975E-4 -0.99999964 7.539849E-4
vn 2.9547955E-4 -0.99999964 7.540299E-4
vn 2.9547958E-4 -0.99999964 7.540301E-4
vn 2.9547975E-4 -0.99999964 7.5398496E-4
vn -2.90041E-4 0.99999976 -7.5408426E-4
vn -2.9551142E-4 0.99999964 -7.5403764E-4
vn -2.9004103E-4 0.99999976 -7.5408426E-4
vn -2.955114E-4 0.99999964 -7.540376E-4
vn -2.9011688E-4 0.99999976 -7.537644E-4
vn -2.9554346E-4 0.99999964 -7.539025E-4
vn -2.9554343E-4 0.99999964 -7.539024E-4
vn -2.9011688E-4 0.99999976 -7.5376447E-4
vn -2.9551142E-4 0.99999964 -7.5403764E-4
vn -2.9554343E-4 0.99999964 -7.539024E-4
vn -2.9554346E-4 0.99999964 -7.539025E-4
vn -2.955114E-4 0.99999964 -7.540376E-4
vn 0.0071453634 7.610291E-4 0.99997425
vn -0.8084987 0.03657935 0.5873601
vn 0.0055905143 0.13945155 0.9902131
vn -0.8104186 -1.6912284E-4 0.5858513
vn -0.9999939 -5.238339E-4 -0.0034439792
vn -0.9999938 -7.5542205E-4 -0.003444913
vn 0.81039447 0.035953313 0.5847804
vn 0.81264126 0.0010538581 0.58276325
vn 0.9999938 7.554063E-4 0.0034449236
vn 0.9999939 5.239466E-4 0.0034447287
vn -0.73479587 0.4643157 0.4944552
vn 0.0108359475 0.83399045 0.5516724
vn -0.8524432 0.5228092 -0.00333208
vn 0.013287476 0.9999114 -7.1118935E-4
vn 0.7406295 0.45360318 0.4956937
vn 0.85915524 0.51170844 0.0025729113
vn -0.8524432 0.5228092 -0.00333208
vn 0.85915524 0.51170844 0.0025729113
vn -0.8677433 1.2311885E-4 0.49701267
vn -0.502981 5.058244E-4 0.86429733
vn -0.8677433 1.2311887E-4 0.49701267
vn -0.50298095 5.058244E-4 0.86429733
vn 0.49701416 7.983993E-4 0.8677421
vn 0.4970141 7.983992E-4 0.8677421
vn 0.86429846 6.2987296E-4 0.5029789
vn 0.86429846 6.298729E-4 0.50297886
vn -0.50297993 5.05866E-4 0.8642979
vn -0.8677421 1.2324423E-4 0.4970147
vn -0.5029799 5.058661E-4 0.8642979
vn -0.8677421 1.2324423E-4 0.49701464
vn 0.49701416 7.9828687E-4 0.867742
vn 0.49701428 7.982869E-4 0.86774194
vn 0.8642986 6.2973105E-4 0.50297874
vn 0.8642986 6.29731E-4 0.5029787
vn -0.84124094 1.6367888E-4 0.5406604
vn -0.21254456 6.752098E-4 0.97715116
vn -0.8412408 1.6367894E-4 0.5406605
vn -0.21254407 6.752101E-4 0.9771513
vn -0.99999404 -2.9268066E-4 -0.0034445405
vn -0.99999404 -2.926807E-4 -0.0034445403
vn 0.20580384 7.9756364E-4 0.97859293
vn 0.20580329 7.975635E-4 0.978593
vn 0.83749616 6.5482693E-4 0.54644275
vn 0.8374961 6.5482705E-4 0.54644305
vn 0.99999404 2.9253965E-4 0.0034442449
vn 0.99999404 2.9253968E-4 0.0034442449
vn -0.49701425 -7.983768E-4 -0.867742
vn -0.86429846 -6.2986254E-4 -0.50297886
vn -0.86429846 -6.2986254E-4 -0.5029789
vn -0.49701408 -7.983768E-4 -0.8677421
vn 0.502981 -5.058061E-4 -0.86429733
vn 0.50298095 -5.058061E-4 -0.86429733
vn 0.8677433 -1.2311558E-4 -0.49701265
vn 0.8677433 -1.2311558E-4 -0.49701265
vn -0.8642972 -6.2973704E-4 -0.50298095
vn -0.4970132 -7.983327E-4 -0.8677426
vn -0.49701303 -7.9833285E-4 -0.8677428
vn -0.8642972 -6.297371E-4 -0.502981
vn 0.5029812 -5.058731E-4 -0.86429715
vn 0.50298107 -5.058732E-4 -0.86429733
vn 0.8677435 -1.2318145E-4 -0.49701232
vn 0.86774355 -1.2318145E-4 -0.49701226
vt 0.465884 0.907669
vt 0.789018 0.987476
vt 0.789018 0.907669
vt 0.465884 0.987587
vt 0.459914 0.987621
vt 0.459923 0.907669
vt 0.134077 0.987869
vt 0.134076 0.907669
vt 0.05504 0.17411
vt 0.300317 0.892729
vt 0.301902 0.14275002
vt 0.05504 0.892729
vt 0.533908 0.17411
vt 0.533908 0.892729
vt 0.05504 0.086905
vt 0.300317 0.054363012
vt 0.533908 0.08652103
vt 0.727042 0.493182
vt 0.674734 0.534727
vt 0.622425 0.493182
vt 0.570116 0.532893
vt 0.622425 0.572603
vt 0.727042 0.572603
vt 0.779351 0.532893
vt 0.682045 0.43414003
vt 0.768645 0.371435
vt 0.855244 0.43414003
vt 0.595446 0.368398
vt 0.682045 0.302656
vt 0.855244 0.302656
vt 0.941843 0.368398
vt 0.983419 0.555444
vt 0.89879 0.43873
vt 0.983419 0.501047
vt 0.89879 0.617761
vt 0.812078 0.555444
vt 0.89879 0.43873
vt 0.89879 0.617761
vt 0.812078 0.50104797
vt 0.89879 0.617761
vt 0.89879 0.43873
vt 0.89879 0.617761
vt 0.89879 0.43873
vt 0.743754 0.629117
vt 0.581937 0.746419
vt 0.668269 0.629117
vt 0.830085 0.746419
vt 0.74367 0.866607
vt 0.581944 0.746419
vt 0.830081 0.746419
vt 0.668352 0.866606
vt 0.581937 0.746419
vt 0.830081 0.746419
vt 0.581944 0.746419
vt 0.830085 0.746419
vt 0.300317 0.892729
vt 0.05504 0.17411
vt 0.301902 0.14275002
vt 0.05504 0.892729
vt 0.031034 0.17411
vt 0.030973 0.892728
vt 0.533908 0.17411
vt 0.533908 0.892729
vt 0.557975 0.892728
vt 0.557918 0.17411
vt 0.05504 0.086905
vt 0.300317 0.054363012
vt 0.05504 0.042038023
vt 0.300317 0.014958024
vt 0.533908 0.08652103
vt 0.533908 0.041530013
vt 0.031499 0.08687103
vt 0.557485 0.08648902
vt 0.9342 0.012187004
vt 0.825197 0.273966
vt 0.934199 0.273966
vt 0.825197 0.012188017
vt 0.716195 0.273966
vt 0.716193 0.012187004
vt 0.607192 0.273966
vt 0.607193 0.012187004
vt 0.861266 0.721895
vt 0.954558 0.64173996
vt 0.954579 0.721895
vt 0.861266 0.64172304
vt 0.861266 0.802068
vt 0.954557 0.802051
vt 0.861266 0.882241
vt 0.954731 0.882295
vt 0.789018 0.987476
vt 0.465884 0.907669
vt 0.789018 0.907669
vt 0.465884 0.987587
vt 0.893585 0.907669
vt 0.893585 0.98749
vt 0.459914 0.987621
vt 0.459923 0.907669
vt 0.134077 0.987869
vt 0.134076 0.907669
vt 0.028087 0.907669
vt 0.028087 0.987885
vt 0.825197 0.273966
vt 0.9342 0.012187004
vt 0.934199 0.273966
vt 0.825197 0.012188017
vt 0.716195 0.273966
vt 0.716193 0.012187004
vt 0.607192 0.273966
vt 0.607193 0.012187004
vt 0.954558 0.64173996
vt 0.861266 0.721895
vt 0.954579 0.721895
vt 0.861266 0.64172304
vt 0.861266 0.802068
vt 0.954557 0.802051
vt 0.861266 0.882241
vt 0.954731 0.882295

g w_0
s 1
usemtl w_0
f 3/3/3 2/2/2 1/1/1 
f 2/2/2 4/4/4 1/1/1 
f 1/1/1 4/4/4 5/5/5 
f 6/6/6 1/1/1 5/5/5 
f 5/5/5 7/7/7 6/6/6 
f 7/7/7 8/8/8 6/6/6 
f 11/11/11 10/10/10 9/9/9 
f 10/10/10 12/12/12 9/9/9 
f 10/10/10 11/11/11 13/13/13 
f 14/14/14 10/10/10 13/13/13 
f 11/11/11 9/9/9 15/15/15 
f 16/16/16 11/11/11 15/15/15 
f 13/13/13 11/11/11 17/17/17 
f 11/11/11 16/16/16 17/17/17 
f 20/20/20 19/19/19 18/18/18 
f 21/21/21 19/19/19 20/20/20 
f 22/22/22 19/19/19 21/21/21 
f 23/23/23 19/19/19 22/22/22 
f 24/24/24 19/19/19 23/23/23 
f 18/18/18 19/19/19 24/24/24 
f 27/27/27 26/26/26 25/25/25 
f 25/25/25 26/26/26 28/28/28 
f 28/28/28 26/26/26 29/29/29 
f 29/29/29 26/26/26 30/30/30 
f 30/30/30 26/26/26 31/31/31 
f 31/31/31 26/26/26 27/27/27 
f 34/34/34 33/33/33 32/32/32 
f 33/33/33 35/35/35 32/32/32 
f 38/38/38 37/37/37 36/36/36 
f 37/37/37 39/39/39 36/36/36 
f 42/42/42 41/41/41 40/40/40 
f 41/41/41 43/43/43 40/40/40 
f 46/46/46 45/45/45 44/44/44 
f 45/45/45 47/47/47 44/44/44 
f 50/50/50 49/49/49 48/48/48 
f 49/49/49 51/51/51 48/48/48 
f 54/54/54 53/53/53 52/52/52 
f 53/53/53 55/55/55 52/52/52 
f 58/58/58 57/57/57 56/56/56 
f 57/57/57 59/59/59 56/56/56 
f 57/57/57 60/60/60 59/59/59 
f 60/60/60 61/61/61 59/59/59 
f 58/58/58 56/56/56 62/62/62 
f 56/56/56 63/63/63 62/62/62 
f 62/62/62 63/63/63 64/64/64 
f 65/65/65 62/62/62 64/64/64 
f 66/66/66 57/57/57 58/58/58 
f 67/67/67 66/66/66 58/58/58 
f 68/68/68 66/66/66 67/67/67 
f 69/69/69 68/68/68 67/67/67 
f 69/69/69 67/67/67 70/70/70 
f 70/70/70 62/62/62 65/65/65 
f 62/62/62 70/70/70 58/58/58 
f 70/70/70 67/67/67 58/58/58 
f 71/71/71 69/69/69 70/70/70 
f 66/66/66 72/72/72 57/57/57 
f 72/72/72 60/60/60 57/57/57 
f 73/73/73 70/70/70 65/65/65 
f 76/76/76 75/75/75 74/74/74 
f 75/75/75 77/77/77 74/74/74 
f 75/75/75 78/78/78 77/77/77 
f 78/78/78 79/79/79 77/77/77 
f 78/78/78 80/80/80 79/79/79 
f 80/80/80 81/81/81 79/79/79 
f 84/84/84 83/83/83 82/82/82 
f 83/83/83 85/85/85 82/82/82 
f 84/84/84 82/82/82 86/86/86 
f 87/87/87 84/84/84 86/86/86 
f 87/87/87 86/86/86 88/88/88 
f 89/89/89 87/87/87 88/88/88 
f 92/92/92 91/91/91 90/90/90 
f 91/91/91 93/93/93 90/90/90 
f 94/94/94 92/92/92 90/90/90 
f 95/95/95 94/94/94 90/90/90 
f 96/96/96 93/93/93 91/91/91 
f 97/97/97 96/96/96 91/91/91 
f 96/96/96 97/97/97 98/98/98 
f 97/97/97 99/99/99 98/98/98 
f 98/98/98 99/99/99 100/100/100 
f 101/101/101 98/98/98 100/100/100 
f 104/104/104 103/103/103 102/102/102 
f 103/103/103 105/105/105 102/102/102 
f 102/102/102 105/105/105 106/106/106 
f 105/105/105 107/107/107 106/106/106 
f 106/106/106 107/107/107 108/108/108 
f 107/107/107 109/109/109 108/108/108 
f 112/112/112 111/111/111 110/110/110 
f 111/111/111 113/113/113 110/110/110 
f 114/114/114 111/111/111 112/112/112 
f 115/115/115 114/114/114 112/112/112 
f 116/116/116 114/114/114 115/115/115 
f 117/117/117 116/116/116 115/115/115 

