# Created by DisUnity v0.3.4
v 0.58204454 0.0 0.0
v 0.56749344 0.0 0.16339454
v 0.52429557 0.21717034 0.16339454
v 0.53773904 0.22273882 0.0
v 0.40127844 0.40127844 0.16339454
v 0.41156763 0.41156763 0.0
v 0.21717033 0.52429557 0.16339454
v 0.2227388 0.53773904 0.0
v 0.53773916 -0.22273855 0.0
v 0.52429575 -0.21717007 0.16339454
v 0.4115678 -0.41156748 0.0
v 0.40127861 -0.4012783 0.16339454
v 0.2227389 -0.537739 0.0
v 0.21717045 -0.5242955 0.16339454
v 6.940812E-9 -0.58204454 0.0
v 6.767292E-9 -0.56749344 0.16339454
v -0.22273889 -0.53773904 0.0
v -0.21717042 -0.52429557 0.16339454
v -0.4115678 -0.41156754 0.0
v -0.40127861 -0.40127835 0.16339454
v -0.5377391 -0.22273868 0.0
v -0.5242956 -0.21717021 0.16339454
v -0.58204454 8.788628E-8 0.0
v -0.56749344 8.568912E-8 0.16339454
v -0.53773904 0.22273883 0.0
v -0.52429557 0.21717037 0.16339454
v -0.41156763 0.41156763 0.0
v -0.40127844 0.40127844 0.16339454
v -0.22273885 0.53773904 0.0
v -0.21717039 0.52429557 0.16339454
v -2.5441974E-8 0.58204454 0.0
v -2.4805926E-8 0.56749344 0.16339454
v 0.2227388 0.53773904 0.0
v 0.21717033 0.52429557 0.16339454
v -2.4169875E-8 0.5529423 0.32678908
v 0.21160184 0.5108521 0.32678908
v -0.2116019 0.5108521 0.32678908
v -0.39098924 0.39098924 0.32678908
v -0.5108521 0.21160188 0.32678908
v -0.5529423 8.349197E-8 0.32678908
v -0.5108521 -0.21160175 0.32678908
v -0.39098942 -0.39098915 0.32678908
v -0.21160194 -0.5108521 0.32678908
v 6.5937718E-9 -0.5529423 0.32678908
v 0.21160196 -0.51085204 0.32678908
v 0.39098942 -0.3909891 0.32678908
v 0.5108522 -0.21160161 0.32678908
v 0.5529423 0.0 0.32678908
v 0.5108521 0.21160187 0.32678908
v 0.39098924 0.39098924 0.32678908
v 0.21160184 0.5108521 0.32678908
v 0.4974086 0.2060334 0.49018362
v 0.53839123 0.0 0.49018362
v 0.38070005 0.38070005 0.49018362
v 0.2060334 0.4974086 0.49018362
v 0.49740875 -0.20603317 0.49018362
v 0.4839651 0.20046493 0.65357816
v 0.52384007 0.0 0.65357816
v 0.37041086 0.37041086 0.65357816
v 0.2004649 0.4839651 0.65357816
v 0.48396525 -0.20046468 0.65357816
v 0.38070023 -0.38069996 0.49018362
v 0.2060335 -0.49740854 0.49018362
v 6.4202514E-9 -0.53839123 0.49018362
v -0.20603347 -0.4974086 0.49018362
v -0.38070023 -0.38069996 0.49018362
v -0.49740866 -0.20603329 0.49018362
v -0.53839123 8.129481E-8 0.49018362
v -0.4974086 0.20603341 0.49018362
v -0.38070005 0.38070005 0.49018362
v -0.20603344 0.4974086 0.49018362
v -2.3533827E-8 0.53839123 0.49018362
v 0.2060334 0.4974086 0.49018362
v -2.2897776E-8 0.52384007 0.65357816
v 0.2004649 0.4839651 0.65357816
v -0.20046496 0.4839651 0.65357816
v -0.37041086 0.37041086 0.65357816
v -0.4839651 0.20046495 0.65357816
v -0.52384007 7.909765E-8 0.65357816
v -0.4839652 -0.20046481 0.65357816
v -0.37041098 -0.37041077 0.65357816
v -0.200465 -0.4839651 0.65357816
v 6.2467307E-9 -0.52384007 0.65357816
v 0.20046501 -0.48396507 0.65357816
v 0.37041098 -0.3704107 0.65357816
v -0.50928897 7.548024E-8 0.8494645
v -0.4705217 -0.19489636 0.8494645
v -0.36012185 -0.3601216 0.8494645
v -0.19489652 -0.47052166 0.8494645
v 6.0732104E-9 -0.50928897 0.8494645
v 0.19489653 -0.4705216 0.8494645
v 0.36012185 -0.36012158 0.8494645
v 0.47052178 -0.19489624 0.8494645
v 0.50928897 -1.4202624E-9 0.8494645
v -0.45707825 -0.18932793 1.0672263
v -0.34983265 -0.34983242 1.0672263
v -0.18932806 -0.45707816 1.0672263
v 5.89969E-9 -0.4947379 1.0672263
v 0.18932807 -0.45707816 1.0672263
v 0.34983265 -0.3498324 1.0672263
v 0.4570783 -0.1893278 1.0672263
v 0.4947379 -1.3735507E-9 1.0672263
v 0.45707816 0.18932796 1.0672263
v 0.47052166 0.19489646 0.8494645
v 0.34983248 0.34983248 1.0672263
v 0.36012167 0.36012167 0.8494645
v 0.19489644 0.47052166 0.8494645
v 0.18932799 0.45707816 1.0672263
v 0.44363466 0.18375951 1.2992883
v 0.48018676 -1.6026479E-9 1.2992882
v 0.33954328 0.33954328 1.2992883
v 0.1837595 0.44363466 1.2992883
v 0.43019122 0.17819105 1.5027689
v 0.46563563 0.0 1.5027689
v 0.3292541 0.3292541 1.5027689
v 0.17819105 0.43019122 1.5027689
v 0.44363484 -0.1837593 1.2992882
v 0.3395434 -0.3395432 1.2992882
v 0.18375959 -0.44363463 1.2992882
v 5.72617E-9 -0.48018676 1.2992882
v -0.18375959 -0.44363466 1.2992882
v -0.3395434 -0.33954322 1.2992882
v -0.44363475 -0.18375942 1.2992882
v -0.4947379 7.3329794E-8 1.0672263
v -0.47052166 0.19489649 0.8494645
v -0.36012167 0.36012167 0.8494645
v -0.1948965 0.47052166 0.8494645
v -2.2261728E-8 0.50928897 0.8494645
v 0.19489644 0.47052166 0.8494645
v -2.1625677E-8 0.4947379 1.0672263
v 0.18932799 0.45707816 1.0672263
v -0.18932803 0.45707816 1.0672263
v -0.34983248 0.34983248 1.0672263
v -0.45707816 0.18932799 1.0672263
v -2.098963E-8 0.48018676 1.2992883
v 0.1837595 0.44363466 1.2992883
v -0.18375956 0.44363466 1.2992883
v -0.33954328 0.33954328 1.2992883
v -0.44363466 0.18375953 1.2992883
v -0.48018676 7.090353E-8 1.2992882
v -2.0353578E-8 0.46563563 1.5027689
v 0.17819105 0.43019122 1.5027689
v -0.17819108 0.43019122 1.5027689
v -0.3292541 0.3292541 1.5027689
v -0.43019122 0.17819107 1.5027689
v -0.46563563 7.030903E-8 1.5027689
v -0.4301913 -0.17819095 1.5027689
v -0.32925427 -0.32925403 1.5027689
v -0.17819113 -0.43019122 1.5027689
v 5.55265E-9 -0.46563563 1.5027689
v 0.17819113 -0.4301912 1.5027689
v 0.32925427 -0.329254 1.5027689
v 0.43019134 -0.17819084 1.5027689
vn 0.9960581 2.1512724E-7 0.08870388
vn 0.9960581 1.9341553E-7 0.08870407
vn 0.9202376 0.38117498 0.08870399
vn 0.9202376 0.38117498 0.08870391
vn 0.70431936 0.7043194 0.08870403
vn 0.70431936 0.70431936 0.08870399
vn 0.3811749 0.9202376 0.08870406
vn 0.38117492 0.9202376 0.088703886
vn 0.9202377 -0.3811746 0.08870386
vn 0.9202377 -0.3811746 0.08870408
vn 0.70431954 -0.7043192 0.08870401
vn 0.7043195 -0.7043192 0.08870405
vn 0.38117516 -0.9202375 0.08870389
vn 0.38117516 -0.9202375 0.088704
vn -0.0 -0.9960581 0.08870387
vn -0.0 -0.9960581 0.088704064
vn -0.38117498 -0.9202376 0.08870386
vn -0.381175 -0.9202376 0.088704035
vn -0.7043196 -0.7043191 0.088704
vn -0.70431954 -0.7043192 0.088704035
vn -0.9202377 -0.38117468 0.08870389
vn -0.9202377 -0.3811746 0.08870405
vn -0.9960581 1.686793E-7 0.08870385
vn -0.996058 1.6198545E-7 0.08870409
vn -0.9202376 0.381175 0.08870387
vn -0.9202376 0.38117498 0.08870404
vn -0.70431936 0.70431936 0.08870399
vn -0.70431936 0.70431936 0.08870402
vn -0.38117498 0.9202376 0.08870391
vn -0.381175 0.9202376 0.08870399
vn -0.0 0.9960581 0.08870388
vn -0.0 0.996058 0.08870407
vn 0.38117492 0.9202376 0.088703886
vn 0.3811749 0.9202376 0.08870406
vn -0.0 0.996058 0.088704094
vn 0.3811749 0.9202376 0.088704064
vn -0.38117492 0.9202376 0.08870413
vn -0.7043194 0.70431936 0.088704064
vn -0.9202376 0.38117498 0.08870408
vn -0.9960581 1.03960815E-7 0.088704064
vn -0.9202377 -0.38117462 0.088704094
vn -0.70431954 -0.7043192 0.088704064
vn -0.38117498 -0.9202376 0.08870408
vn -0.0 -0.996058 0.08870409
vn 0.38117504 -0.9202376 0.08870409
vn 0.70431966 -0.7043191 0.08870395
vn 0.9202378 -0.38117456 0.088704035
vn 0.996058 1.6440315E-7 0.0887041
vn 0.9202376 0.38117492 0.08870413
vn 0.70431936 0.70431936 0.08870404
vn 0.3811749 0.9202376 0.088704064
vn 0.9202376 0.38117492 0.088704064
vn 0.9960581 2.466048E-7 0.088703975
vn 0.70431936 0.70431936 0.08870406
vn 0.381175 0.9202376 0.08870409
vn 0.9202377 -0.3811746 0.088703975
vn 0.9208085 0.38141143 0.081467874
vn 0.99667597 2.2223695E-7 0.08146794
vn 0.70475626 0.70475644 0.0814679
vn 0.3814114 0.9208085 0.08146791
vn 0.9208086 -0.3814111 0.08146799
vn 0.7043195 -0.7043192 0.088704124
vn 0.3811751 -0.9202376 0.08870411
vn 1.0879622E-7 -0.9960581 0.088704005
vn -0.38117504 -0.9202376 0.08870409
vn -0.70431966 -0.7043191 0.08870408
vn -0.9202377 -0.3811747 0.08870399
vn -0.9960581 1.5473242E-7 0.088704005
vn -0.9202376 0.38117504 0.08870409
vn -0.7043194 0.70431936 0.08870404
vn -0.38117498 0.9202376 0.08870406
vn -0.0 0.9960581 0.088704
vn 0.381175 0.9202376 0.08870409
vn -0.0 0.99667597 0.08146795
vn 0.3814114 0.9208085 0.08146791
vn -0.38141143 0.9208085 0.08146788
vn -0.7047564 0.7047564 0.081467904
vn -0.9208085 0.38141152 0.08146789
vn -0.99667597 1.9566514E-7 0.081467964
vn -0.9208086 -0.3814112 0.08146793
vn -0.7047565 -0.7047562 0.08146787
vn -0.38141152 -0.9208085 0.08146793
vn -0.0 -0.99667597 0.08146794
vn 0.38141164 -0.92080843 0.081467874
vn 0.7047565 -0.70475614 0.08146795
vn -0.9975182 1.3775372E-7 0.07040878
vn -0.92158675 -0.38173342 0.0704088
vn -0.7053521 -0.70535177 0.07040874
vn -0.38173375 -0.92158663 0.07040875
vn -0.0 -0.9975182 0.07040878
vn 0.3817339 -0.92158663 0.070408754
vn 0.7053522 -0.7053517 0.0704087
vn 0.92158675 -0.38173336 0.07040872
vn 0.9975182 1.885051E-7 0.07040883
vn -0.92194724 -0.38188288 0.06464315
vn -0.705628 -0.7056277 0.06464321
vn -0.38188305 -0.9219471 0.06464322
vn -0.0 -0.9979085 0.06464319
vn 0.38188326 -0.9219471 0.06464323
vn 0.705628 -0.7056277 0.06464323
vn 0.92194724 -0.38188273 0.06464317
vn 0.9979085 2.94905E-7 0.06464313
vn 0.9219471 0.38188308 0.064643204
vn 0.92158663 0.38173372 0.07040883
vn 0.7056278 0.7056278 0.0646432
vn 0.70535195 0.7053519 0.07040882
vn 0.38173372 0.92158663 0.070408784
vn 0.38188305 0.9219471 0.06464322
vn 0.92180854 0.38182566 0.06691906
vn 0.9977584 2.515954E-7 0.06691911
vn 0.7055217 0.70552176 0.06691908
vn 0.38182566 0.92180854 0.06691907
vn 0.9215262 0.38170877 0.07132885
vn 0.9974528 1.8693397E-7 0.071328916
vn 0.7053057 0.7053057 0.07132893
vn 0.38170862 0.9215263 0.07132884
vn 0.92180866 -0.38182536 0.06691917
vn 0.7055218 -0.7055216 0.066919126
vn 0.38182583 -0.92180854 0.066919126
vn -0.0 -0.9977584 0.06691911
vn -0.38182575 -0.92180854 0.06691908
vn -0.7055219 -0.7055216 0.06691907
vn -0.92180866 -0.38182545 0.06691908
vn -0.9979085 2.006321E-7 0.06464317
vn -0.92158663 0.3817338 0.07040882
vn -0.7053519 0.7053519 0.070408836
vn -0.38173372 0.92158663 0.0704088
vn -0.0 0.9975182 0.0704088
vn 0.38173372 0.92158663 0.070408784
vn -0.0 0.9979085 0.06464316
vn 0.38188305 0.9219471 0.06464322
vn -0.38188314 0.9219471 0.06464319
vn -0.70562786 0.7056278 0.064643174
vn -0.9219471 0.38188314 0.06464322
vn -0.0 0.9977584 0.066919126
vn 0.38182566 0.92180854 0.06691907
vn -0.3818258 0.92180854 0.06691909
vn -0.70552176 0.7055217 0.066919096
vn -0.92180854 0.38182572 0.06691906
vn -0.9977584 2.1288837E-7 0.066919096
vn -0.0 0.9974528 0.071328945
vn 0.38170862 0.9215263 0.07132884
vn -0.38170877 0.9215262 0.07132885
vn -0.7053057 0.7053057 0.0713289
vn -0.9215262 0.38170874 0.07132884
vn -0.9974528 2.5883162E-7 0.07132889
vn -0.92152643 -0.38170838 0.071328826
vn -0.7053059 -0.7053056 0.07132877
vn -0.3817087 -0.9215263 0.071328774
vn -0.0 -0.9974528 0.07132888
vn 0.38170886 -0.9215262 0.07132879
vn 0.70530593 -0.7053056 0.071328744
vn 0.92152643 -0.38170835 0.07132887
vt 0.81259257 1.0
vt 0.8167078 0.9140947
vt 0.8812654 0.8544239
vt 0.87509257 1.0
vt 0.95199585 0.8420782
vt 0.93759257 1.0
vt 1.0000925 0.875
vt 1.0000925 1.0
vt 0.7500927 1.0
vt 0.76038074 0.92232513
vt 0.6875926 1.0
vt 0.6999383 0.90174896
vt 0.62509257 1.0
vt 0.6436111 0.8564815
vt 0.56259257 1.0
vt 0.5811111 0.8955761
vt 0.50009257 1.0
vt 0.51449585 0.9161523
vt 0.43759254 1.0
vt 0.44582298 0.92849797
vt 0.37509257 1.0
vt 0.37715018 0.89763373
vt 0.31259257 1.0
vt 0.3167078 0.95936215
vt 0.2500926 1.0
vt 0.23363169 0.9490741
vt 0.1875926 1.0
vt 0.16701646 0.9202675
vt 0.12509261 1.0
vt 0.1086317 0.8626543
vt 0.062592626 1.0
vt 0.04818933 0.84002054
vt 9.252876E-5 1.0
vt 9.252876E-5 0.875
vt 0.029670808 0.71502054
vt 9.252876E-5 0.75
vt 0.09628602 0.7932099
vt 0.18347736 0.8261317
vt 0.25832304 0.81584364
vt 0.32905346 0.79526746
vt 0.40184155 0.72530866
vt 0.46639913 0.7335391
vt 0.5391872 0.79115224
vt 0.59757197 0.72325104
vt 0.633323 0.7829218
vt 0.7040535 0.7952675
vt 0.76243836 0.77469134
vt 0.8311111 0.77880657
vt 0.8956687 0.73148143
vt 0.9643415 0.77674896
vt 1.0000925 0.75
vt 0.8771502 0.66615224
vt 0.8043621 0.65380657
vt 0.95199585 0.64969134
vt 1.0000925 0.625
vt 0.774784 0.59619343
vt 0.88949585 0.5041152
vt 0.8331687 0.53086424
vt 0.9602263 0.54526746
vt 1.0000925 0.5
vt 0.7686112 0.537037
vt 0.685535 0.6291152
vt 0.6271502 0.598251
vt 0.5811111 0.65380657
vt 0.4877469 0.65586424
vt 0.42936206 0.6661523
vt 0.38743824 0.63940334
vt 0.3167078 0.6682099
vt 0.24186215 0.6743827
vt 0.18141976 0.69084364
vt 0.09834363 0.6702675
vt 0.04201649 0.6126543
vt 9.252876E-5 0.625
vt 0.04818933 0.47530866
vt 9.252876E-5 0.5
vt 0.114804536 0.473251
vt 0.19170782 0.5123457
vt 0.2521502 0.5390947
vt 0.31465018 0.5596708
vt 0.383323 0.5617284
vt 0.4622839 0.537037
vt 0.5247839 0.55144036
vt 0.59345675 0.5534979
vt 0.65389913 0.51440334
vt 0.7205144 0.53497946
vt 0.29818928 0.42026752
vt 0.36686212 0.40586418
vt 0.41084355 0.44495887
vt 0.49391973 0.44907403
vt 0.55641973 0.40997946
vt 0.62509257 0.4140947
vt 0.6814198 0.43672842
vt 0.7727264 0.41820985
vt 0.82699585 0.401749
vt 0.36686212 0.23148149
vt 0.4293621 0.28497946
vt 0.51449585 0.29938275
vt 0.57493824 0.27880657
vt 0.633323 0.27263373
vt 0.7040535 0.20679009
vt 0.7727264 0.23559672
vt 0.8023045 0.27057612
vt 0.883323 0.26028806
vt 0.8792078 0.37911522
vt 0.9581687 0.3076132
vt 0.9396502 0.42232513
vt 1.0000925 0.375
vt 1.0000925 0.25
vt 0.90595675 0.12911522
vt 0.8558025 0.13940334
vt 0.9478806 0.09619343
vt 1.0000925 0.125
vt 0.87509257 0.0
vt 0.81259257 0.0
vt 0.93759257 0.0
vt 1.0000925 0.0
vt 0.8077059 0.11471194
vt 0.7266873 0.08179009
vt 0.60657406 0.108539104
vt 0.55641973 0.07150203
vt 0.53712964 0.120884776
vt 0.48697528 0.07973248
vt 0.42447528 0.10030866
vt 0.3023045 0.21707821
vt 0.22745885 0.42232507
vt 0.16084361 0.39969134
vt 0.085997954 0.39557612
vt 0.046131715 0.34825104
vt 9.252876E-5 0.375
vt 0.037901264 0.27057612
vt 9.252876E-5 0.25
vt 0.1086317 0.29115224
vt 0.18141976 0.29320985
vt 0.24803498 0.24588478
vt 0.058477394 0.0900206
vt 9.252876E-5 0.125
vt 0.13949591 0.07973248
vt 0.22257203 0.09619343
vt 0.2788992 0.120884776
vt 0.3640329 0.11471194
vt 0.062592626 0.0
vt 9.252876E-5 0.0
vt 0.12509261 0.0
vt 0.1875926 0.0
vt 0.2500926 0.0
vt 0.31259257 0.0
vt 0.37509257 0.0
vt 0.43759254 0.0
vt 0.50009257 0.0
vt 0.56259257 0.0
vt 0.62509257 0.0
vt 0.6875926 0.0
vt 0.7500927 0.0

g zhuzi
s 1
usemtl zhuzi
f 3/3/3 2/2/2 1/1/1 
f 4/4/4 3/3/3 1/1/1 
f 5/5/5 3/3/3 4/4/4 
f 6/6/6 5/5/5 4/4/4 
f 7/7/7 5/5/5 6/6/6 
f 8/8/8 7/7/7 6/6/6 
f 1/1/1 2/2/2 9/9/9 
f 2/2/2 10/10/10 9/9/9 
f 9/9/9 10/10/10 11/11/11 
f 10/10/10 12/12/12 11/11/11 
f 11/11/11 12/12/12 13/13/13 
f 12/12/12 14/14/14 13/13/13 
f 13/13/13 14/14/14 15/15/15 
f 14/14/14 16/16/16 15/15/15 
f 15/15/15 16/16/16 17/17/17 
f 16/16/16 18/18/18 17/17/17 
f 17/17/17 18/18/18 19/19/19 
f 18/18/18 20/20/20 19/19/19 
f 19/19/19 20/20/20 21/21/21 
f 20/20/20 22/22/22 21/21/21 
f 21/21/21 22/22/22 23/23/23 
f 22/22/22 24/24/24 23/23/23 
f 23/23/23 24/24/24 25/25/25 
f 24/24/24 26/26/26 25/25/25 
f 25/25/25 26/26/26 27/27/27 
f 26/26/26 28/28/28 27/27/27 
f 27/27/27 28/28/28 29/29/29 
f 28/28/28 30/30/30 29/29/29 
f 29/29/29 30/30/30 31/31/31 
f 30/30/30 32/32/32 31/31/31 
f 31/31/31 32/32/32 33/33/33 
f 32/32/32 34/34/34 33/33/33 
f 32/32/32 35/35/35 34/34/34 
f 35/35/35 36/36/36 34/34/34 
f 37/37/37 35/35/35 32/32/32 
f 30/30/30 37/37/37 32/32/32 
f 38/38/38 37/37/37 30/30/30 
f 28/28/28 38/38/38 30/30/30 
f 39/39/39 38/38/38 28/28/28 
f 26/26/26 39/39/39 28/28/28 
f 40/40/40 39/39/39 26/26/26 
f 24/24/24 40/40/40 26/26/26 
f 41/41/41 40/40/40 24/24/24 
f 22/22/22 41/41/41 24/24/24 
f 42/42/42 41/41/41 22/22/22 
f 20/20/20 42/42/42 22/22/22 
f 43/43/43 42/42/42 20/20/20 
f 18/18/18 43/43/43 20/20/20 
f 44/44/44 43/43/43 18/18/18 
f 16/16/16 44/44/44 18/18/18 
f 45/45/45 44/44/44 16/16/16 
f 14/14/14 45/45/45 16/16/16 
f 46/46/46 45/45/45 14/14/14 
f 12/12/12 46/46/46 14/14/14 
f 47/47/47 46/46/46 12/12/12 
f 10/10/10 47/47/47 12/12/12 
f 48/48/48 47/47/47 10/10/10 
f 2/2/2 48/48/48 10/10/10 
f 49/49/49 48/48/48 2/2/2 
f 3/3/3 49/49/49 2/2/2 
f 50/50/50 49/49/49 3/3/3 
f 5/5/5 50/50/50 3/3/3 
f 51/51/51 50/50/50 5/5/5 
f 7/7/7 51/51/51 5/5/5 
f 49/49/49 52/52/52 48/48/48 
f 52/52/52 53/53/53 48/48/48 
f 48/48/48 53/53/53 47/47/47 
f 54/54/54 52/52/52 49/49/49 
f 50/50/50 54/54/54 49/49/49 
f 55/55/55 54/54/54 50/50/50 
f 51/51/51 55/55/55 50/50/50 
f 47/47/47 56/56/56 46/46/46 
f 53/53/53 56/56/56 47/47/47 
f 52/52/52 57/57/57 53/53/53 
f 57/57/57 58/58/58 53/53/53 
f 53/53/53 58/58/58 56/56/56 
f 59/59/59 57/57/57 52/52/52 
f 54/54/54 59/59/59 52/52/52 
f 60/60/60 59/59/59 54/54/54 
f 55/55/55 60/60/60 54/54/54 
f 58/58/58 61/61/61 56/56/56 
f 56/56/56 61/61/61 62/62/62 
f 56/56/56 62/62/62 46/46/46 
f 46/46/46 62/62/62 45/45/45 
f 62/62/62 63/63/63 45/45/45 
f 45/45/45 63/63/63 44/44/44 
f 63/63/63 64/64/64 44/44/44 
f 44/44/44 64/64/64 43/43/43 
f 64/64/64 65/65/65 43/43/43 
f 43/43/43 65/65/65 42/42/42 
f 65/65/65 66/66/66 42/42/42 
f 42/42/42 66/66/66 41/41/41 
f 66/66/66 67/67/67 41/41/41 
f 41/41/41 67/67/67 40/40/40 
f 67/67/67 68/68/68 40/40/40 
f 40/40/40 68/68/68 39/39/39 
f 68/68/68 69/69/69 39/39/39 
f 39/39/39 69/69/69 38/38/38 
f 69/69/69 70/70/70 38/38/38 
f 38/38/38 70/70/70 37/37/37 
f 70/70/70 71/71/71 37/37/37 
f 37/37/37 71/71/71 35/35/35 
f 71/71/71 72/72/72 35/35/35 
f 35/35/35 72/72/72 36/36/36 
f 72/72/72 73/73/73 36/36/36 
f 72/72/72 74/74/74 73/73/73 
f 74/74/74 75/75/75 73/73/73 
f 76/76/76 74/74/74 72/72/72 
f 71/71/71 76/76/76 72/72/72 
f 77/77/77 76/76/76 71/71/71 
f 70/70/70 77/77/77 71/71/71 
f 78/78/78 77/77/77 70/70/70 
f 69/69/69 78/78/78 70/70/70 
f 79/79/79 78/78/78 69/69/69 
f 68/68/68 79/79/79 69/69/69 
f 80/80/80 79/79/79 68/68/68 
f 67/67/67 80/80/80 68/68/68 
f 81/81/81 80/80/80 67/67/67 
f 66/66/66 81/81/81 67/67/67 
f 82/82/82 81/81/81 66/66/66 
f 65/65/65 82/82/82 66/66/66 
f 83/83/83 82/82/82 65/65/65 
f 64/64/64 83/83/83 65/65/65 
f 84/84/84 83/83/83 64/64/64 
f 63/63/63 84/84/84 64/64/64 
f 85/85/85 84/84/84 63/63/63 
f 62/62/62 85/85/85 63/63/63 
f 61/61/61 85/85/85 62/62/62 
f 79/79/79 86/86/86 78/78/78 
f 87/87/87 86/86/86 79/79/79 
f 80/80/80 87/87/87 79/79/79 
f 88/88/88 87/87/87 80/80/80 
f 81/81/81 88/88/88 80/80/80 
f 89/89/89 88/88/88 81/81/81 
f 82/82/82 89/89/89 81/81/81 
f 90/90/90 89/89/89 82/82/82 
f 83/83/83 90/90/90 82/82/82 
f 91/91/91 90/90/90 83/83/83 
f 84/84/84 91/91/91 83/83/83 
f 92/92/92 91/91/91 84/84/84 
f 85/85/85 92/92/92 84/84/84 
f 93/93/93 92/92/92 85/85/85 
f 61/61/61 93/93/93 85/85/85 
f 94/94/94 93/93/93 61/61/61 
f 87/87/87 95/95/95 86/86/86 
f 96/96/96 95/95/95 87/87/87 
f 88/88/88 96/96/96 87/87/87 
f 97/97/97 96/96/96 88/88/88 
f 89/89/89 97/97/97 88/88/88 
f 98/98/98 97/97/97 89/89/89 
f 90/90/90 98/98/98 89/89/89 
f 99/99/99 98/98/98 90/90/90 
f 91/91/91 99/99/99 90/90/90 
f 100/100/100 99/99/99 91/91/91 
f 92/92/92 100/100/100 91/91/91 
f 101/101/101 100/100/100 92/92/92 
f 93/93/93 101/101/101 92/92/92 
f 102/102/102 101/101/101 93/93/93 
f 103/103/103 102/102/102 94/94/94 
f 104/104/104 103/103/103 94/94/94 
f 105/105/105 103/103/103 104/104/104 
f 106/106/106 105/105/105 104/104/104 
f 106/106/106 104/104/104 57/57/57 
f 57/57/57 104/104/104 58/58/58 
f 104/104/104 94/94/94 58/58/58 
f 59/59/59 106/106/106 57/57/57 
f 107/107/107 106/106/106 59/59/59 
f 60/60/60 107/107/107 59/59/59 
f 58/58/58 94/94/94 61/61/61 
f 108/108/108 105/105/105 106/106/106 
f 107/107/107 108/108/108 106/106/106 
f 94/94/94 102/102/102 93/93/93 
f 103/103/103 109/109/109 102/102/102 
f 109/109/109 110/110/110 102/102/102 
f 111/111/111 109/109/109 103/103/103 
f 105/105/105 111/111/111 103/103/103 
f 112/112/112 111/111/111 105/105/105 
f 108/108/108 112/112/112 105/105/105 
f 109/109/109 113/113/113 110/110/110 
f 113/113/113 114/114/114 110/110/110 
f 115/115/115 113/113/113 109/109/109 
f 111/111/111 115/115/115 109/109/109 
f 116/116/116 115/115/115 111/111/111 
f 112/112/112 116/116/116 111/111/111 
f 110/110/110 114/114/114 117/117/117 
f 110/110/110 117/117/117 101/101/101 
f 101/101/101 117/117/117 100/100/100 
f 117/117/117 118/118/118 100/100/100 
f 100/100/100 118/118/118 99/99/99 
f 118/118/118 119/119/119 99/99/99 
f 99/99/99 119/119/119 98/98/98 
f 119/119/119 120/120/120 98/98/98 
f 98/98/98 120/120/120 97/97/97 
f 120/120/120 121/121/121 97/97/97 
f 97/97/97 121/121/121 96/96/96 
f 121/121/121 122/122/122 96/96/96 
f 96/96/96 122/122/122 95/95/95 
f 122/122/122 123/123/123 95/95/95 
f 95/95/95 123/123/123 124/124/124 
f 95/95/95 124/124/124 86/86/86 
f 86/86/86 124/124/124 125/125/125 
f 86/86/86 125/125/125 78/78/78 
f 78/78/78 125/125/125 77/77/77 
f 125/125/125 126/126/126 77/77/77 
f 77/77/77 126/126/126 76/76/76 
f 126/126/126 127/127/127 76/76/76 
f 76/76/76 127/127/127 74/74/74 
f 127/127/127 128/128/128 74/74/74 
f 74/74/74 128/128/128 75/75/75 
f 128/128/128 129/129/129 75/75/75 
f 128/128/128 130/130/130 129/129/129 
f 130/130/130 131/131/131 129/129/129 
f 132/132/132 130/130/130 128/128/128 
f 127/127/127 132/132/132 128/128/128 
f 133/133/133 132/132/132 127/127/127 
f 126/126/126 133/133/133 127/127/127 
f 134/134/134 133/133/133 126/126/126 
f 125/125/125 134/134/134 126/126/126 
f 124/124/124 134/134/134 125/125/125 
f 130/130/130 135/135/135 131/131/131 
f 135/135/135 136/136/136 131/131/131 
f 137/137/137 135/135/135 130/130/130 
f 132/132/132 137/137/137 130/130/130 
f 138/138/138 137/137/137 132/132/132 
f 133/133/133 138/138/138 132/132/132 
f 139/139/139 138/138/138 133/133/133 
f 134/134/134 139/139/139 133/133/133 
f 140/140/140 139/139/139 134/134/134 
f 124/124/124 140/140/140 134/134/134 
f 123/123/123 140/140/140 124/124/124 
f 135/135/135 141/141/141 136/136/136 
f 141/141/141 142/142/142 136/136/136 
f 143/143/143 141/141/141 135/135/135 
f 137/137/137 143/143/143 135/135/135 
f 144/144/144 143/143/143 137/137/137 
f 138/138/138 144/144/144 137/137/137 
f 145/145/145 144/144/144 138/138/138 
f 139/139/139 145/145/145 138/138/138 
f 146/146/146 145/145/145 139/139/139 
f 140/140/140 146/146/146 139/139/139 
f 147/147/147 146/146/146 140/140/140 
f 123/123/123 147/147/147 140/140/140 
f 148/148/148 147/147/147 123/123/123 
f 122/122/122 148/148/148 123/123/123 
f 149/149/149 148/148/148 122/122/122 
f 121/121/121 149/149/149 122/122/122 
f 150/150/150 149/149/149 121/121/121 
f 120/120/120 150/150/150 121/121/121 
f 151/151/151 150/150/150 120/120/120 
f 119/119/119 151/151/151 120/120/120 
f 152/152/152 151/151/151 119/119/119 
f 118/118/118 152/152/152 119/119/119 
f 153/153/153 152/152/152 118/118/118 
f 117/117/117 153/153/153 118/118/118 
f 114/114/114 153/153/153 117/117/117 
f 102/102/102 110/110/110 101/101/101 

