# Created by DisUnity v0.3.4
v -0.0 0.18766555 0.06197087
v -0.06197087 0.18766555 1.1491201E-17
v -0.0 0.18766555 1.1491201E-17
v -0.06197087 0.18766555 0.06197087
v 0.06197087 0.18766555 0.06197087
v 0.06197087 0.18766555 1.1491201E-17
v 0.06197087 0.18766555 -0.06197087
v -0.0 0.18766555 -0.06197087
v -0.06197087 0.18766555 -0.06197087
v -0.03317472 0.029014649 0.03317472
v -0.0 0.10834011 0.0475728
v -0.0 0.029014649 0.03317472
v -0.0475728 0.1083401 0.0475728
v 0.03317472 0.029014649 0.03317472
v 0.0475728 0.10834011 0.0475728
v -0.0 0.18766555 0.06197087
v -0.06197087 0.18766555 0.06197087
v 0.06197087 0.18766555 0.06197087
v 0.03317472 0.029014649 0.03317472
v 0.0475728 0.10834011 6.6339186E-18
v 0.03317472 0.029014649 1.7766349E-18
v 0.0475728 0.10834011 0.0475728
v 0.03317472 0.029014649 -0.03317472
v 0.0475728 0.10834011 -0.0475728
v 0.06197087 0.18766555 1.1491201E-17
v 0.06197087 0.18766555 0.06197087
v 0.06197087 0.18766555 -0.06197087
v 0.03317472 0.029014649 -0.03317472
v -0.0 0.10834011 -0.0475728
v -0.0 0.029014649 -0.03317472
v 0.0475728 0.10834011 -0.0475728
v -0.03317472 0.029014649 -0.03317472
v -0.0475728 0.10834011 -0.0475728
v -0.0 0.18766555 -0.06197087
v 0.06197087 0.18766555 -0.06197087
v -0.06197087 0.18766555 -0.06197087
v -0.03317472 0.029014649 -0.03317472
v -0.0475728 0.10834011 6.6339186E-18
v -0.03317472 0.029014649 1.7766349E-18
v -0.0475728 0.10834011 -0.0475728
v -0.03317472 0.029014649 0.03317472
v -0.0475728 0.1083401 0.0475728
v -0.06197087 0.18766555 1.1491201E-17
v -0.06197087 0.18766555 -0.06197087
v -0.06197087 0.18766555 0.06197087
v -0.03317472 0.029014649 0.03317472
v -0.055488862 0.014145703 -2.3841857E-9
v -0.03317472 0.029014649 1.7766349E-18
v -0.03317472 0.029014649 -0.03317472
v -0.055488862 0.014145703 -0.055488862
v -0.077803 -7.2324247E-4 -4.4285825E-20
v -0.055488862 0.014145703 0.055488862
v -0.077803 -7.2324247E-4 -0.077803
v -0.055488862 0.014145703 -2.3841857E-9
v -0.055488862 0.014145703 0.055488862
v -0.077803 -7.2324247E-4 -4.4285825E-20
v -0.077803 -7.2324247E-4 0.077803
v -0.03317472 0.029014649 -0.03317472
v -0.0 0.014145703 -0.055488862
v -0.0 0.029014649 -0.03317472
v -0.055488862 0.014145703 -0.055488862
v -0.0 -7.2324247E-4 -0.077803
v -0.077803 -7.2324247E-4 -0.077803
v 0.03317472 0.029014649 -0.03317472
v 0.055488862 0.014145703 -0.055488862
v 0.077803 -7.2324247E-4 -0.077803
v 0.03317472 0.029014649 -0.03317472
v 0.055488862 0.014145703 -4.7683715E-9
v 0.03317472 0.029014649 1.7766349E-18
v 0.055488862 0.014145703 -0.055488862
v 0.077803 -7.2324247E-4 -4.4285825E-20
v 0.077803 -7.2324247E-4 -0.077803
v 0.03317472 0.029014649 0.03317472
v 0.055488862 0.014145703 0.055488862
v 0.03317472 0.029014649 0.03317472
v -2.3841857E-9 0.014145703 0.055488862
v -0.0 0.029014649 0.03317472
v 0.055488862 0.014145703 0.055488862
v -0.0 -7.2324247E-4 0.077803
v 0.077803 -7.2324247E-4 0.077803
v -0.03317472 0.029014649 0.03317472
v -0.055488862 0.014145703 0.055488862
v -0.077803 -7.2324247E-4 0.077803
v -0.077803 -7.2324247E-4 -4.4285825E-20
v -0.0389015 -0.06979287 0.0389015
v -0.0389015 -0.06979287 -4.2735807E-18
v -0.077803 -7.2324247E-4 0.077803
v -0.0 -0.13886249 -8.502876E-18
v -0.0389015 -0.06979287 -0.0389015
v -0.077803 -7.2324247E-4 -0.077803
v -0.0 -7.2324247E-4 -0.077803
v -0.0389015 -0.06979287 -0.0389015
v -0.0 -0.06979287 -0.0389015
v -0.077803 -7.2324247E-4 -0.077803
v -0.0 -0.13886249 -8.502876E-18
v 0.0389015 -0.06979287 -0.0389015
v 0.077803 -7.2324247E-4 -0.077803
v 0.077803 -7.2324247E-4 -4.4285825E-20
v 0.0389015 -0.06979287 -0.0389015
v 0.0389015 -0.06979287 -4.2735807E-18
v 0.077803 -7.2324247E-4 -0.077803
v -0.0 -0.13886249 -8.502876E-18
v 0.0389015 -0.06979287 0.0389015
v 0.077803 -7.2324247E-4 0.077803
v -0.0 -7.2324247E-4 0.077803
v 0.0389015 -0.06979287 0.0389015
v -0.0 -0.06979287 0.0389015
v 0.077803 -7.2324247E-4 0.077803
v -0.0 -0.13886249 -8.502876E-18
v -0.0389015 -0.06979287 0.0389015
v -0.077803 -7.2324247E-4 0.077803
v 0.03317472 0.029014649 0.03317472
v 0.055488862 0.014145703 -4.7683715E-9
v 0.055488862 0.014145703 0.055488862
v 0.077803 -7.2324247E-4 -4.4285825E-20
v 0.077803 -7.2324247E-4 0.077803
vn -0.0 1.0 0.0
vn -0.0 1.0 0.0
vn -0.0 1.0 0.0
vn -0.0 1.0 0.0
vn -0.0 1.0 0.0
vn -0.0 1.0 0.0
vn -0.0 1.0 0.0
vn -0.0 1.0 0.0
vn -0.0 1.0 0.0
vn 0.98392385 -0.17858844 0.0
vn -0.0 -0.17858842 0.98392385
vn -0.0 -0.17858844 0.98392385
vn -0.0 -0.17858845 0.98392385
vn -0.0 -0.17858844 0.98392385
vn -0.0 -0.17858844 0.98392385
vn -0.0 -0.17858844 0.98392385
vn -0.0 -0.17858844 0.98392385
vn -0.0 -0.17858844 0.98392385
vn -0.0 -0.17858844 -0.98392385
vn 0.98392385 -0.17858842 0.0
vn 0.98392385 -0.17858844 0.0
vn 0.98392385 -0.17858844 0.0
vn 0.98392385 -0.17858844 0.0
vn 0.98392385 -0.17858844 0.0
vn 0.98392385 -0.17858844 0.0
vn 0.98392385 -0.17858844 0.0
vn 0.98392385 -0.17858844 0.0
vn -0.98392385 -0.17858844 0.0
vn -0.0 -0.17858842 -0.98392385
vn -0.0 -0.17858844 -0.98392385
vn -0.0 -0.17858844 -0.98392385
vn -0.0 -0.17858844 -0.98392385
vn -0.0 -0.17858844 -0.98392385
vn -0.0 -0.17858844 -0.98392385
vn -0.0 -0.17858844 -0.98392385
vn -0.0 -0.17858844 -0.98392385
vn -0.98392385 -0.17858842 0.0
vn -0.98392385 -0.17858842 0.0
vn -0.98392385 -0.17858844 0.0
vn -0.98392385 -0.17858844 0.0
vn -0.98392385 -0.17858844 0.0
vn -0.98392385 -0.17858845 0.0
vn -0.98392385 -0.17858844 0.0
vn -0.98392385 -0.17858844 0.0
vn -0.98392385 -0.17858844 0.0
vn -0.55451566 0.8321733 0.0
vn -0.55451566 0.8321733 0.0
vn -0.55451566 0.8321733 0.0
vn -0.55451566 0.8321733 0.0
vn -0.55451566 0.8321733 0.0
vn -0.5545156 0.8321733 0.0
vn -0.5545156 0.8321733 0.0
vn -0.5545156 0.8321733 0.0
vn -0.55451566 0.8321733 0.0
vn -0.55451566 0.8321733 0.0
vn -0.5545156 0.8321733 0.0
vn -0.5545156 0.8321733 0.0
vn -0.0 0.8321733 -0.55451566
vn -0.0 0.8321733 -0.55451566
vn -0.0 0.8321733 -0.55451566
vn -0.0 0.8321733 -0.55451566
vn -0.0 0.8321733 -0.5545156
vn -0.0 0.8321733 -0.5545156
vn -0.0 0.8321733 -0.55451566
vn -0.0 0.8321733 -0.55451566
vn -0.0 0.8321733 -0.5545156
vn 0.55451566 0.8321733 0.0
vn 0.5545157 0.8321733 0.0
vn 0.55451566 0.8321733 0.0
vn 0.55451566 0.8321733 0.0
vn 0.5545156 0.8321733 0.0
vn 0.5545156 0.8321733 0.0
vn 0.55451566 0.8321733 0.0
vn 0.5545156 0.83217335 0.0
vn -0.0 0.8321733 0.55451566
vn -0.0 0.8321733 0.55451566
vn -0.0 0.8321733 0.55451566
vn -0.0 0.8321733 0.55451566
vn -0.0 0.8321733 0.5545156
vn -0.0 0.8321733 0.5545156
vn -0.0 0.8321733 0.55451566
vn -0.0 0.8321733 0.55451566
vn -0.0 0.8321733 0.5545156
vn -0.8713068 -0.49073878 0.0
vn -0.8713068 -0.49073878 0.0
vn -0.8713068 -0.49073878 0.0
vn -0.8713067 -0.49073878 0.0
vn -0.8713067 -0.49073878 0.0
vn -0.8713067 -0.49073878 0.0
vn -0.8713068 -0.49073878 0.0
vn -0.0 -0.49073878 -0.8713068
vn -0.0 -0.49073878 -0.8713068
vn -0.0 -0.49073878 -0.8713068
vn -0.0 -0.49073878 -0.8713068
vn -0.0 -0.49073878 -0.8713067
vn -0.0 -0.49073878 -0.8713067
vn -0.0 -0.49073878 -0.8713068
vn 0.8713068 -0.49073878 0.0
vn 0.8713068 -0.49073878 0.0
vn 0.8713068 -0.49073878 0.0
vn 0.8713068 -0.49073878 0.0
vn 0.8713067 -0.49073878 0.0
vn 0.8713067 -0.49073878 0.0
vn 0.8713068 -0.49073878 0.0
vn -0.0 -0.49073878 0.8713068
vn -0.0 -0.49073878 0.8713068
vn -0.0 -0.49073878 0.8713068
vn -0.0 -0.49073878 0.8713068
vn -0.0 -0.49073878 0.8713067
vn -0.0 -0.49073878 0.8713068
vn -0.0 -0.49073878 0.8713067
vn 0.5545156 0.8321733 0.0
vn 0.5545156 0.8321733 0.0
vn 0.5545156 0.8321733 0.0
vn 0.5545156 0.8321733 0.0
vn 0.5545156 0.8321733 0.0
vt 0.5 1.0
vt 0.0 0.5
vt 0.5 0.5
vt 0.0 1.0
vt 1.0 1.0
vt 1.0 0.5
vt 1.0 0.0
vt 0.5 0.0
vt 0.0 0.0
vt 0.0 1.0
vt 0.5 0.5
vt 0.5 1.0
vt 0.0 0.5
vt 1.0 1.0
vt 1.0 0.5
vt 0.5 0.0
vt 0.0 0.0
vt 1.0 0.0
vt 0.0 1.0
vt 0.5 0.5
vt 0.5 1.0
vt 0.0 0.5
vt 1.0 1.0
vt 1.0 0.5
vt 0.5 0.0
vt 0.0 0.0
vt 1.0 0.0
vt 0.0 1.0
vt 0.5 0.5
vt 0.5 1.0
vt 0.0 0.5
vt 1.0 1.0
vt 1.0 0.5
vt 0.5 0.0
vt 0.0 0.0
vt 1.0 0.0
vt 0.0 1.0
vt 0.5 0.5
vt 0.5 1.0
vt 0.0 0.5
vt 1.0 1.0
vt 1.0 0.5
vt 0.5 0.0
vt 0.0 0.0
vt 1.0 0.0
vt 1.0 1.0
vt 0.74999994 0.75
vt 0.5 1.0
vt 0.0 1.0
vt 0.49999997 0.5
vt 1.0 0.5
vt 1.0 1.0
vt 1.0 0.0
vt 0.74999994 0.75
vt 1.0 1.0
vt 1.0 0.5
vt 1.0 1.0
vt 1.0 1.0
vt 0.5 0.5
vt 0.5 1.0
vt 1.0 0.5
vt 0.5 0.0
vt 1.0 0.0
vt 0.0 1.0
vt 0.0 0.5
vt 0.0 0.0
vt 1.0 1.0
vt 0.25000003 0.75
vt 0.5 1.0
vt 0.5 0.5
vt 0.0 0.5
vt 0.0 0.0
vt 0.0 1.0
vt 0.0 1.0
vt 1.0 1.0
vt 0.5 1.0
vt 0.5 1.0
vt 0.5 1.0
vt 0.5 1.0
vt 0.0 1.0
vt 0.0 1.0
vt 0.5 1.0
vt 1.0 1.0
vt 1.0 0.5
vt 0.75 0.75
vt 0.75 0.5
vt 1.0 1.0
vt 0.5 0.5
vt 0.75 0.25
vt 1.0 0.0
vt 0.5 0.0
vt 0.75 0.25
vt 0.5 0.25
vt 1.0 0.0
vt 0.5 0.5
vt 0.24999999 0.25
vt 0.0 0.0
vt 0.0 0.5
vt 0.24999999 0.25
vt 0.24999999 0.5
vt 0.0 0.0
vt 0.5 0.5
vt 0.24999999 0.75
vt 0.0 1.0
vt 0.5 1.0
vt 0.24999999 0.75
vt 0.5 0.75
vt 0.0 1.0
vt 0.5 0.5
vt 0.75 0.75
vt 1.0 1.0
vt 0.0 1.0
vt 0.25000003 0.75
vt 0.0 1.0
vt 0.0 0.5
vt 0.0 1.0

g Box001
s 1
usemtl Box001
f 3/3/3 2/2/2 1/1/1 
f 4/4/4 1/1/1 2/2/2 
f 1/1/1 5/5/5 3/3/3 
f 6/6/6 3/3/3 5/5/5 
f 6/6/6 7/7/7 3/3/3 
f 8/8/8 3/3/3 7/7/7 
f 2/2/2 3/3/3 9/9/9 
f 8/8/8 9/9/9 3/3/3 
f 12/12/12 11/11/11 10/10/10 
f 13/13/13 10/10/10 11/11/11 
f 12/12/12 14/14/14 11/11/11 
f 15/15/15 11/11/11 14/14/14 
f 11/11/11 16/16/16 13/13/13 
f 11/11/11 15/15/15 16/16/16 
f 17/17/17 13/13/13 16/16/16 
f 18/18/18 16/16/16 15/15/15 
f 21/21/21 20/20/20 19/19/19 
f 22/22/22 19/19/19 20/20/20 
f 21/21/21 23/23/23 20/20/20 
f 24/24/24 20/20/20 23/23/23 
f 20/20/20 25/25/25 22/22/22 
f 20/20/20 24/24/24 25/25/25 
f 26/26/26 22/22/22 25/25/25 
f 27/27/27 25/25/25 24/24/24 
f 30/30/30 29/29/29 28/28/28 
f 31/31/31 28/28/28 29/29/29 
f 30/30/30 32/32/32 29/29/29 
f 33/33/33 29/29/29 32/32/32 
f 29/29/29 34/34/34 31/31/31 
f 29/29/29 33/33/33 34/34/34 
f 35/35/35 31/31/31 34/34/34 
f 36/36/36 34/34/34 33/33/33 
f 39/39/39 38/38/38 37/37/37 
f 40/40/40 37/37/37 38/38/38 
f 39/39/39 41/41/41 38/38/38 
f 42/42/42 38/38/38 41/41/41 
f 38/38/38 43/43/43 40/40/40 
f 38/38/38 42/42/42 43/43/43 
f 44/44/44 40/40/40 43/43/43 
f 45/45/45 43/43/43 42/42/42 
f 48/48/48 47/47/47 46/46/46 
f 48/48/48 49/49/49 47/47/47 
f 50/50/50 47/47/47 49/49/49 
f 47/47/47 50/50/50 51/51/51 
f 47/47/47 51/51/51 52/52/52 
f 53/53/53 51/51/51 50/50/50 
f 55/55/55 46/46/46 54/54/54 
f 57/57/57 55/55/55 56/56/56 
f 60/60/60 59/59/59 58/58/58 
f 61/61/61 58/58/58 59/59/59 
f 59/59/59 62/62/62 61/61/61 
f 63/63/63 61/61/61 62/62/62 
f 60/60/60 64/64/64 59/59/59 
f 65/65/65 59/59/59 64/64/64 
f 59/59/59 65/65/65 62/62/62 
f 66/66/66 62/62/62 65/65/65 
f 69/69/69 68/68/68 67/67/67 
f 70/70/70 67/67/67 68/68/68 
f 68/68/68 71/71/71 70/70/70 
f 72/72/72 70/70/70 71/71/71 
f 69/69/69 73/73/73 68/68/68 
f 68/68/68 74/74/74 71/71/71 
f 77/77/77 76/76/76 75/75/75 
f 78/78/78 75/75/75 76/76/76 
f 76/76/76 79/79/79 78/78/78 
f 80/80/80 78/78/78 79/79/79 
f 77/77/77 81/81/81 76/76/76 
f 82/82/82 76/76/76 81/81/81 
f 76/76/76 82/82/82 79/79/79 
f 83/83/83 79/79/79 82/82/82 
f 86/86/86 85/85/85 84/84/84 
f 87/87/87 84/84/84 85/85/85 
f 85/85/85 86/86/86 88/88/88 
f 89/89/89 88/88/88 86/86/86 
f 86/86/86 84/84/84 89/89/89 
f 90/90/90 89/89/89 84/84/84 
f 93/93/93 92/92/92 91/91/91 
f 94/94/94 91/91/91 92/92/92 
f 92/92/92 93/93/93 95/95/95 
f 96/96/96 95/95/95 93/93/93 
f 93/93/93 91/91/91 96/96/96 
f 97/97/97 96/96/96 91/91/91 
f 100/100/100 99/99/99 98/98/98 
f 101/101/101 98/98/98 99/99/99 
f 99/99/99 100/100/100 102/102/102 
f 103/103/103 102/102/102 100/100/100 
f 100/100/100 98/98/98 103/103/103 
f 104/104/104 103/103/103 98/98/98 
f 107/107/107 106/106/106 105/105/105 
f 108/108/108 105/105/105 106/106/106 
f 106/106/106 107/107/107 109/109/109 
f 110/110/110 109/109/109 107/107/107 
f 107/107/107 105/105/105 110/110/110 
f 111/111/111 110/110/110 105/105/105 
f 114/114/114 113/113/113 112/112/112 
f 116/116/116 115/115/115 114/114/114 

