# Created by DisUnity v0.3.4
v 0.015937269 -0.0046937256 0.0051783365
v 0.016717214 0.0012503809 0.012145768
v 0.01965226 0.0012503809 0.0063854097
v 0.013557052 -0.0046937256 0.009849777
v 0.023367254 0.007194488 0.0075924834
v 0.019877376 0.007194488 0.014441759
v 0.047552817 0.049999997 0.01545085
v 0.040450852 0.049999997 0.029389257
v -0.009849777 -0.0046937256 -0.01355705
v -0.0063854107 0.0012503809 -0.019652259
v -0.012145767 0.0012503809 -0.016717209
v -0.0051783356 -0.0046937256 -0.015937267
v -0.014441758 0.007194488 -0.01987737
v -0.0075924867 0.007194488 -0.023367252
v -0.029389268 0.049999997 -0.040450845
v -0.015450855 0.049999997 -0.047552828
v 0.00517833 -0.0046937256 0.015937274
v 2.5783815E-9 0.0012503809 0.020663613
v 0.006385402 0.0012503809 0.019652268
v 2.2386684E-9 -0.0046937256 0.01675744
v 0.007592474 0.007194488 0.023367262
v 2.9180947E-9 0.007194488 0.024569789
v 0.01545084 0.049999997 0.047552828
v 6.9535457E-9 0.049999997 0.049999997
v -0.016757436 -0.0046937256 4.7674007E-9
v -0.019652264 0.0012503809 -0.006385403
v -0.020663612 0.0012503809 4.6463837E-9
v -0.015937272 -0.0046937256 -0.0051783286
v -0.024569785 0.007194488 4.525367E-9
v -0.02336726 0.007194488 -0.007592478
v -0.049999997 0.049999997 5.36422E-9
v -0.047552828 0.049999997 -0.015450845
v -0.0051783356 -0.0046937256 -0.015937267
v -2.5122093E-9 0.0012503809 -0.02066361
v -0.0063854107 0.0012503809 -0.019652259
v -1.8896158E-9 -0.0046937256 -0.016757434
v -0.0075924867 0.007194488 -0.023367252
v -3.134803E-9 0.007194488 -0.024569785
v -0.015450855 0.049999997 -0.047552828
v -5.36422E-9 0.049999997 -0.049999997
v 2.2386684E-9 -0.0046937256 0.01675744
v -0.0063854083 0.0012503809 0.019652266
v 2.5783815E-9 0.0012503809 0.020663613
v -0.0051783333 -0.0046937256 0.015937274
v 2.9180947E-9 0.007194488 0.024569789
v -0.0075924834 0.007194488 0.023367256
v 6.9535457E-9 0.049999997 0.049999997
v -0.015450849 0.049999997 0.047552824
v -1.8896158E-9 -0.0046937256 -0.016757434
v 0.006385404 0.0012503809 -0.01965226
v -2.5122093E-9 0.0012503809 -0.02066361
v 0.0051783314 -0.0046937256 -0.015937267
v -3.134803E-9 0.007194488 -0.024569785
v 0.007592477 0.007194488 -0.023367252
v -5.36422E-9 0.049999997 -0.049999997
v 0.015450845 0.049999997 -0.047552824
v -0.0051783333 -0.0046937256 0.015937274
v -0.012145768 0.0012503809 0.016717214
v -0.0063854083 0.0012503809 0.019652266
v -0.009849777 -0.0046937256 0.013557052
v -0.0075924834 0.007194488 0.023367256
v -0.014441758 0.007194488 0.019877374
v -0.015450849 0.049999997 0.047552824
v -0.029389266 0.049999997 0.040450845
v 0.013557052 -0.0046937256 0.009849777
v 0.012145764 0.0012503809 0.016717216
v 0.016717214 0.0012503809 0.012145768
v 0.009849774 -0.0046937256 0.013557055
v 0.019877376 0.007194488 0.014441759
v 0.0144417565 0.007194488 0.019877378
v 0.040450852 0.049999997 0.029389257
v 0.029389258 0.049999997 0.04045085
v 0.015937269 -0.0046937256 -0.0051783347
v 0.020663612 0.0012503809 2.1261684E-10
v 0.019652262 0.0012503809 -0.0063854097
v 0.01675744 -0.0046937256 1.1717768E-9
v 0.023367256 0.007194488 -0.007592485
v 0.024569785 0.007194488 -7.465432E-10
v 0.047552824 0.049999997 -0.015450861
v 0.049999997 0.049999997 -5.3642206E-9
v -0.015937272 -0.0046937256 -0.0051783286
v -0.016717212 0.0012503803 -0.012145761
v -0.019652264 0.0012503809 -0.006385403
v -0.013557053 -0.0046937256 -0.00984977
v -0.02336726 0.007194488 -0.007592478
v -0.019877372 0.007194488 -0.014441752
v -0.047552828 0.049999997 -0.015450845
v -0.040450852 0.049999997 -0.029389257
v 0.0051783314 -0.0046937256 -0.015937267
v 0.012145768 0.0012503809 -0.01671721
v 0.006385404 0.0012503809 -0.01965226
v 0.009849776 -0.0046937256 -0.01355705
v 0.007592477 0.007194488 -0.023367252
v 0.01444176 0.007194488 -0.01987737
v 0.015450845 0.049999997 -0.047552824
v 0.029389264 0.049999997 -0.04045085
v -0.015937269 -0.0046937256 0.0051783365
v -0.020663612 0.0012503809 4.6463837E-9
v -0.019652262 0.0012503815 0.00638541
v -0.016757436 -0.0046937256 4.7674007E-9
v -0.023367256 0.007194488 0.0075924844
v -0.024569785 0.007194488 4.525367E-9
v -0.047552828 0.049999997 0.015450852
v -0.049999997 0.049999997 5.36422E-9
v 0.009849776 -0.0046937256 -0.01355705
v 0.016717214 0.0012503809 -0.012145766
v 0.012145768 0.0012503809 -0.01671721
v 0.013557052 -0.0046937256 -0.009849774
v 0.01444176 0.007194488 -0.01987737
v 0.019877376 0.007194488 -0.0144417565
v 0.029389264 0.049999997 -0.04045085
v 0.04045085 0.049999997 -0.029389268
v -0.009849777 -0.0046937256 0.013557052
v -0.01671721 0.0012503809 0.012145772
v -0.012145768 0.0012503809 0.016717214
v -0.01355705 -0.0046937256 0.009849779
v -0.014441758 0.007194488 0.019877374
v -0.01987737 0.007194488 0.014441765
v -0.029389266 0.049999997 0.040450845
v -0.040450845 0.049999997 0.029389268
v 0.013557052 -0.0046937256 -0.009849774
v 0.019652262 0.0012503809 -0.0063854097
v 0.016717214 0.0012503809 -0.012145766
v 0.015937269 -0.0046937256 -0.0051783347
v 0.019877376 0.007194488 -0.0144417565
v 0.023367256 0.007194488 -0.007592485
v 0.04045085 0.049999997 -0.029389268
v 0.047552824 0.049999997 -0.015450861
v 0.009849774 -0.0046937256 0.013557055
v 0.006385402 0.0012503809 0.019652268
v 0.012145764 0.0012503809 0.016717216
v 0.00517833 -0.0046937256 0.015937274
v 0.0144417565 0.007194488 0.019877378
v 0.007592474 0.007194488 0.023367262
v 0.029389258 0.049999997 0.04045085
v 0.01545084 0.049999997 0.047552828
v -0.013557053 -0.0046937256 -0.00984977
v -0.012145767 0.0012503809 -0.016717209
v -0.016717212 0.0012503803 -0.012145761
v -0.009849777 -0.0046937256 -0.01355705
v -0.019877372 0.007194488 -0.014441752
v -0.014441758 0.007194488 -0.01987737
v -0.040450852 0.049999997 -0.029389257
v -0.029389268 0.049999997 -0.040450845
v 0.01675744 -0.0046937256 1.1717768E-9
v 0.01965226 0.0012503809 0.0063854097
v 0.020663612 0.0012503809 2.1261684E-10
v 0.015937269 -0.0046937256 0.0051783365
v 0.024569785 0.007194488 -7.465432E-10
v 0.023367254 0.007194488 0.0075924834
v 0.049999997 0.049999997 -5.3642206E-9
v 0.047552817 0.049999997 0.01545085
v -0.01355705 -0.0046937256 0.009849779
v -0.019652262 0.0012503815 0.00638541
v -0.01671721 0.0012503809 0.012145772
v -0.015937269 -0.0046937256 0.0051783365
v -0.01987737 0.007194488 0.014441765
v -0.023367256 0.007194488 0.0075924844
v -0.040450845 0.049999997 0.029389268
v -0.047552828 0.049999997 0.015450852
vn 0.7473797 -0.54443395 0.3808087
vn 0.7473797 -0.54443395 0.3808087
vn 0.74737966 -0.54443395 0.3808087
vn 0.74737954 -0.54443413 0.38080877
vn 0.76847976 -0.50608295 0.39155978
vn 0.76847976 -0.50608295 0.3915596
vn 0.76847976 -0.50608295 0.3915596
vn 0.76847976 -0.50608295 0.39155966
vn -0.38080913 -0.54443383 -0.7473796
vn -0.38080907 -0.54443383 -0.7473796
vn -0.38080907 -0.54443383 -0.7473796
vn -0.38080877 -0.544434 -0.7473796
vn -0.39156023 -0.506083 -0.76847947
vn -0.3915602 -0.506083 -0.7684794
vn -0.39156026 -0.506083 -0.7684794
vn -0.39156026 -0.506083 -0.7684794
vn 0.13121748 -0.5444342 0.8284766
vn 0.13121746 -0.54443413 0.8284766
vn 0.13121746 -0.5444342 0.8284766
vn 0.13121752 -0.5444342 0.8284766
vn 0.13492227 -0.5060829 0.85186625
vn 0.13492236 -0.5060829 0.85186625
vn 0.13492234 -0.5060829 0.85186625
vn 0.13492234 -0.5060829 0.85186625
vn -0.8284766 -0.5444342 -0.13121746
vn -0.8284766 -0.54443413 -0.13121742
vn -0.8284766 -0.54443413 -0.13121745
vn -0.82847667 -0.544434 -0.13121738
vn -0.85186625 -0.506083 -0.13492179
vn -0.85186625 -0.506083 -0.1349222
vn -0.85186625 -0.506083 -0.1349222
vn -0.85186625 -0.506083 -0.1349222
vn -0.1312179 -0.54443395 -0.8284766
vn -0.1312179 -0.54443395 -0.8284766
vn -0.1312179 -0.54443395 -0.8284766
vn -0.13121773 -0.5444342 -0.8284766
vn -0.13492253 -0.506083 -0.85186607
vn -0.13492218 -0.506083 -0.8518661
vn -0.13492218 -0.506083 -0.8518661
vn -0.13492218 -0.506083 -0.8518661
vn -0.13121755 -0.5444342 0.8284766
vn -0.13121754 -0.5444341 0.8284766
vn -0.13121755 -0.5444342 0.8284766
vn -0.13121733 -0.54443395 0.8284767
vn -0.13492253 -0.5060829 0.85186625
vn -0.13492242 -0.5060829 0.85186625
vn -0.1349224 -0.5060829 0.85186625
vn -0.13492239 -0.5060829 0.85186625
vn 0.1312178 -0.54443413 -0.8284766
vn 0.1312178 -0.5444341 -0.8284765
vn 0.1312178 -0.5444341 -0.8284765
vn 0.13121773 -0.544434 -0.8284766
vn 0.13492264 -0.50608295 -0.8518661
vn 0.13492244 -0.506083 -0.8518661
vn 0.13492246 -0.506083 -0.8518661
vn 0.13492244 -0.506083 -0.8518661
vn -0.3808091 -0.54443395 0.7473795
vn -0.38080916 -0.544434 0.7473795
vn -0.3808091 -0.544434 0.7473795
vn -0.38080922 -0.5444341 0.7473794
vn -0.39156008 -0.50608283 0.7684795
vn -0.39155993 -0.50608283 0.7684796
vn -0.39155993 -0.50608283 0.7684796
vn -0.39156 -0.50608283 0.7684796
vn 0.5931236 -0.544434 0.5931239
vn 0.5931236 -0.544434 0.59312385
vn 0.5931236 -0.544434 0.59312385
vn 0.5931237 -0.5444341 0.5931238
vn 0.6098688 -0.50608295 0.6098688
vn 0.6098688 -0.5060829 0.60986894
vn 0.6098688 -0.5060829 0.60986894
vn 0.6098688 -0.5060829 0.60986894
vn 0.8284765 -0.54443425 -0.1312177
vn 0.8284765 -0.54443425 -0.1312177
vn 0.8284764 -0.54443425 -0.1312177
vn 0.8284766 -0.5444339 -0.13121825
vn 0.85186625 -0.5060829 -0.13492204
vn 0.8518661 -0.50608295 -0.13492237
vn 0.8518661 -0.50608295 -0.13492237
vn 0.8518661 -0.50608295 -0.13492237
vn -0.7473795 -0.5444341 -0.38080916
vn -0.7473794 -0.5444341 -0.38080913
vn -0.7473795 -0.5444341 -0.38080916
vn -0.74737966 -0.54443395 -0.38080892
vn -0.7684793 -0.5060829 -0.39156055
vn -0.7684796 -0.506083 -0.39155978
vn -0.7684796 -0.506083 -0.39155975
vn -0.7684796 -0.506083 -0.39155984
vn 0.3808086 -0.5444341 -0.74737966
vn 0.38080862 -0.544434 -0.74737966
vn 0.38080868 -0.54443413 -0.74737966
vn 0.38080862 -0.54443395 -0.7473797
vn 0.3915597 -0.506083 -0.76847965
vn 0.3915597 -0.50608295 -0.76847965
vn 0.3915597 -0.50608295 -0.76847965
vn 0.3915597 -0.50608295 -0.76847965
vn -0.8284765 -0.54443413 0.13121785
vn -0.8284765 -0.54443413 0.13121784
vn -0.8284765 -0.54443413 0.13121785
vn -0.8284766 -0.5444341 0.13121797
vn -0.85186625 -0.506083 0.13492212
vn -0.85186625 -0.506083 0.13492222
vn -0.85186625 -0.506083 0.13492222
vn -0.85186625 -0.506083 0.13492222
vn 0.5931236 -0.5444341 -0.5931238
vn 0.5931236 -0.544434 -0.5931239
vn 0.5931236 -0.544434 -0.59312385
vn 0.59312373 -0.5444341 -0.59312373
vn 0.60986865 -0.50608295 -0.60986894
vn 0.6098687 -0.506083 -0.60986894
vn 0.6098688 -0.506083 -0.60986894
vn 0.6098687 -0.506083 -0.60986894
vn -0.59312373 -0.5444341 0.59312373
vn -0.59312373 -0.544434 0.59312373
vn -0.59312373 -0.5444341 0.59312373
vn -0.59312373 -0.5444341 0.59312373
vn -0.60986876 -0.5060829 0.60986906
vn -0.6098688 -0.5060829 0.60986894
vn -0.6098688 -0.5060829 0.60986894
vn -0.6098688 -0.5060829 0.60986894
vn 0.7473795 -0.54443413 -0.38080892
vn 0.7473795 -0.54443413 -0.38080892
vn 0.7473795 -0.54443413 -0.38080892
vn 0.7473795 -0.5444343 -0.3808087
vn 0.76847947 -0.506083 -0.39156005
vn 0.7684796 -0.50608295 -0.39155993
vn 0.7684796 -0.50608295 -0.39155993
vn 0.7684796 -0.5060829 -0.39156
vn 0.38080892 -0.5444341 0.7473795
vn 0.38080895 -0.5444341 0.74737954
vn 0.38080895 -0.5444341 0.74737954
vn 0.38080892 -0.5444341 0.7473795
vn 0.3915598 -0.50608283 0.76847965
vn 0.3915599 -0.5060829 0.76847965
vn 0.3915599 -0.5060829 0.76847965
vn 0.39155987 -0.50608283 0.76847965
vn -0.593124 -0.5444339 -0.5931237
vn -0.5931239 -0.5444339 -0.5931237
vn -0.59312403 -0.5444339 -0.5931236
vn -0.59312415 -0.5444338 -0.5931237
vn -0.60986906 -0.5060831 -0.6098685
vn -0.6098689 -0.506083 -0.60986876
vn -0.6098689 -0.506083 -0.60986876
vn -0.6098689 -0.506083 -0.60986876
vn 0.82847667 -0.54443383 0.13121788
vn 0.82847667 -0.5444339 0.1312179
vn 0.82847667 -0.5444339 0.13121791
vn 0.8284766 -0.54443395 0.13121805
vn 0.8518661 -0.50608295 0.1349223
vn 0.8518661 -0.50608295 0.13492265
vn 0.8518661 -0.50608283 0.13492265
vn 0.8518661 -0.50608295 0.13492265
vn -0.74737954 -0.5444341 0.380809
vn -0.74737954 -0.544434 0.380809
vn -0.74737954 -0.5444341 0.380809
vn -0.74737954 -0.5444342 0.38080877
vn -0.76847947 -0.5060829 0.39156014
vn -0.76847947 -0.50608295 0.39156014
vn -0.76847947 -0.50608295 0.39156014
vn -0.7684795 -0.50608295 0.39156014
vt 0.44971138 0.9980712
vt 0.39946505 0.74812067
vt 0.449465 0.7480713
vt 0.39971143 0.99812055
vt 0.44921863 0.4980715
vt 0.39921868 0.49812078
vt 0.4487259 -0.0019282103
vt 0.39872596 -0.0018789768
vt 0.84971124 0.9976771
vt 0.7994649 0.74772644
vt 0.8494649 0.7476772
vt 0.7997112 0.9977263
vt 0.8492185 0.49767733
vt 0.79921854 0.49772662
vt 0.8487258 -0.0023224354
vt 0.7987258 -0.0022730827
vt 0.29971153 0.998219
vt 0.24946514 0.7482685
vt 0.29946515 0.74821913
vt 0.24971151 0.99826837
vt 0.29921877 0.4982193
vt 0.24921878 0.4982686
vt 0.29872605 -0.0017803907
vt 0.24872604 -0.0017311573
vt 0.99971116 0.99752927
vt 0.94946486 0.7475786
vt 0.99946475 0.7475294
vt 0.9497112 0.9975785
vt 0.9992184 0.4975295
vt 0.9492185 0.4975788
vt 0.99872565 -0.002470255
vt 0.94872576 -0.0024209023
vt 0.7997112 0.9977263
vt 0.7494649 0.7477757
vt 0.7994649 0.74772644
vt 0.7497113 0.99777555
vt 0.79921854 0.49772662
vt 0.7492186 0.4977758
vt 0.7987258 -0.0022730827
vt 0.74872583 -0.0022239685
vt 0.24971151 0.99826837
vt 0.19946513 0.7483176
vt 0.24946514 0.7482685
vt 0.1997115 0.9983175
vt 0.24921878 0.4982686
vt 0.19921876 0.49831778
vt 0.24872604 -0.0017311573
vt 0.19872603 -0.0016819239
vt 0.7497113 0.99777555
vt 0.699465 0.747825
vt 0.7494649 0.7477757
vt 0.6997113 0.9978249
vt 0.7492186 0.4977758
vt 0.69921863 0.49782515
vt 0.74872583 -0.0022239685
vt 0.6987259 -0.0021746159
vt 0.1997115 0.9983175
vt 0.14946517 0.74836695
vt 0.19946513 0.7483176
vt 0.14971155 0.99836683
vt 0.19921876 0.49831778
vt 0.14921881 0.49836713
vt 0.19872603 -0.0016819239
vt 0.14872608 -0.0016325712
vt 0.39971143 0.99812055
vt 0.3494651 0.7481698
vt 0.39946505 0.74812067
vt 0.34971148 0.99816966
vt 0.39921868 0.49812078
vt 0.34921873 0.49816996
vt 0.39872596 -0.0018789768
vt 0.348726 -0.0018297434
vt 0.54971135 0.9979727
vt 0.49946505 0.7480221
vt 0.549465 0.74797285
vt 0.4997114 0.99802196
vt 0.54921865 0.49797297
vt 0.49921867 0.49802226
vt 0.5487259 -0.0020267963
vt 0.49872595 -0.0019774437
vt 0.9497112 0.9975785
vt 0.89946485 0.74762785
vt 0.94946486 0.7475786
vt 0.8997112 0.99762774
vt 0.9492185 0.4975788
vt 0.89921844 0.49762797
vt 0.94872576 -0.0024209023
vt 0.89872575 -0.002371788
vt 0.6997113 0.9978249
vt 0.649465 0.74787426
vt 0.699465 0.747825
vt 0.6497114 0.99787414
vt 0.69921863 0.49782515
vt 0.6492187 0.49787444
vt 0.6987259 -0.0021746159
vt 0.6487259 -0.0021252632
vt 0.049711645 0.9984653
vt -5.347347E-4 0.7485148
vt 0.049465276 0.7484654
vt -2.8836727E-4 0.99851465
vt 0.049218908 0.4984656
vt -7.811021E-4 0.49851495
vt 0.04872617 -0.0015341043
vt -0.0012738369 -0.0014847517
vt 0.6497114 0.99787414
vt 0.59946495 0.7479235
vt 0.649465 0.74787426
vt 0.5997113 0.9979234
vt 0.6492187 0.49787444
vt 0.5992186 0.4979236
vt 0.6487259 -0.0021252632
vt 0.59872586 -0.002076149
vt 0.14971155 0.99836683
vt 0.09946523 0.7484163
vt 0.14946517 0.74836695
vt 0.0997116 0.9984162
vt 0.14921881 0.49836713
vt 0.09921886 0.49841642
vt 0.14872608 -0.0016325712
vt 0.09872612 -0.0015833378
vt 0.5997113 0.9979234
vt 0.549465 0.74797285
vt 0.59946495 0.7479235
vt 0.54971135 0.9979727
vt 0.5992186 0.4979236
vt 0.54921865 0.49797297
vt 0.59872586 -0.002076149
vt 0.5487259 -0.0020267963
vt 0.34971148 0.99816966
vt 0.29946515 0.74821913
vt 0.3494651 0.7481698
vt 0.29971153 0.998219
vt 0.34921873 0.49816996
vt 0.29921877 0.4982193
vt 0.348726 -0.0018297434
vt 0.29872605 -0.0017803907
vt 0.8997112 0.99762774
vt 0.8494649 0.7476772
vt 0.89946485 0.74762785
vt 0.84971124 0.9976771
vt 0.89921844 0.49762797
vt 0.8492185 0.49767733
vt 0.89872575 -0.002371788
vt 0.8487258 -0.0023224354
vt 0.4997114 0.99802196
vt 0.449465 0.7480713
vt 0.49946505 0.7480221
vt 0.44971138 0.9980712
vt 0.49921867 0.49802226
vt 0.44921863 0.4980715
vt 0.49872595 -0.0019774437
vt 0.4487259 -0.0019282103
vt 0.0997116 0.9984162
vt 0.049465276 0.7484654
vt 0.09946523 0.7484163
vt 0.049711645 0.9984653
vt 0.09921886 0.49841642
vt 0.049218908 0.4984656
vt 0.09872612 -0.0015833378
vt 0.04872617 -0.0015341043

g Cone
s 1
usemtl Cone
f 3/3/3 2/2/2 1/1/1 
f 4/4/4 1/1/1 2/2/2 
f 3/3/3 5/5/5 2/2/2 
f 6/6/6 2/2/2 5/5/5 
f 5/5/5 7/7/7 6/6/6 
f 8/8/8 6/6/6 7/7/7 
f 11/11/11 10/10/10 9/9/9 
f 12/12/12 9/9/9 10/10/10 
f 11/11/11 13/13/13 10/10/10 
f 14/14/14 10/10/10 13/13/13 
f 13/13/13 15/15/15 14/14/14 
f 16/16/16 14/14/14 15/15/15 
f 19/19/19 18/18/18 17/17/17 
f 20/20/20 17/17/17 18/18/18 
f 19/19/19 21/21/21 18/18/18 
f 22/22/22 18/18/18 21/21/21 
f 21/21/21 23/23/23 22/22/22 
f 24/24/24 22/22/22 23/23/23 
f 27/27/27 26/26/26 25/25/25 
f 28/28/28 25/25/25 26/26/26 
f 27/27/27 29/29/29 26/26/26 
f 30/30/30 26/26/26 29/29/29 
f 29/29/29 31/31/31 30/30/30 
f 32/32/32 30/30/30 31/31/31 
f 35/35/35 34/34/34 33/33/33 
f 36/36/36 33/33/33 34/34/34 
f 35/35/35 37/37/37 34/34/34 
f 38/38/38 34/34/34 37/37/37 
f 37/37/37 39/39/39 38/38/38 
f 40/40/40 38/38/38 39/39/39 
f 43/43/43 42/42/42 41/41/41 
f 44/44/44 41/41/41 42/42/42 
f 43/43/43 45/45/45 42/42/42 
f 46/46/46 42/42/42 45/45/45 
f 45/45/45 47/47/47 46/46/46 
f 48/48/48 46/46/46 47/47/47 
f 51/51/51 50/50/50 49/49/49 
f 52/52/52 49/49/49 50/50/50 
f 51/51/51 53/53/53 50/50/50 
f 54/54/54 50/50/50 53/53/53 
f 53/53/53 55/55/55 54/54/54 
f 56/56/56 54/54/54 55/55/55 
f 59/59/59 58/58/58 57/57/57 
f 60/60/60 57/57/57 58/58/58 
f 59/59/59 61/61/61 58/58/58 
f 62/62/62 58/58/58 61/61/61 
f 61/61/61 63/63/63 62/62/62 
f 64/64/64 62/62/62 63/63/63 
f 67/67/67 66/66/66 65/65/65 
f 68/68/68 65/65/65 66/66/66 
f 67/67/67 69/69/69 66/66/66 
f 70/70/70 66/66/66 69/69/69 
f 69/69/69 71/71/71 70/70/70 
f 72/72/72 70/70/70 71/71/71 
f 75/75/75 74/74/74 73/73/73 
f 76/76/76 73/73/73 74/74/74 
f 75/75/75 77/77/77 74/74/74 
f 78/78/78 74/74/74 77/77/77 
f 77/77/77 79/79/79 78/78/78 
f 80/80/80 78/78/78 79/79/79 
f 83/83/83 82/82/82 81/81/81 
f 84/84/84 81/81/81 82/82/82 
f 83/83/83 85/85/85 82/82/82 
f 86/86/86 82/82/82 85/85/85 
f 85/85/85 87/87/87 86/86/86 
f 88/88/88 86/86/86 87/87/87 
f 91/91/91 90/90/90 89/89/89 
f 92/92/92 89/89/89 90/90/90 
f 91/91/91 93/93/93 90/90/90 
f 94/94/94 90/90/90 93/93/93 
f 93/93/93 95/95/95 94/94/94 
f 96/96/96 94/94/94 95/95/95 
f 99/99/99 98/98/98 97/97/97 
f 100/100/100 97/97/97 98/98/98 
f 99/99/99 101/101/101 98/98/98 
f 102/102/102 98/98/98 101/101/101 
f 101/101/101 103/103/103 102/102/102 
f 104/104/104 102/102/102 103/103/103 
f 107/107/107 106/106/106 105/105/105 
f 108/108/108 105/105/105 106/106/106 
f 107/107/107 109/109/109 106/106/106 
f 110/110/110 106/106/106 109/109/109 
f 109/109/109 111/111/111 110/110/110 
f 112/112/112 110/110/110 111/111/111 
f 115/115/115 114/114/114 113/113/113 
f 116/116/116 113/113/113 114/114/114 
f 115/115/115 117/117/117 114/114/114 
f 118/118/118 114/114/114 117/117/117 
f 117/117/117 119/119/119 118/118/118 
f 120/120/120 118/118/118 119/119/119 
f 123/123/123 122/122/122 121/121/121 
f 124/124/124 121/121/121 122/122/122 
f 123/123/123 125/125/125 122/122/122 
f 126/126/126 122/122/122 125/125/125 
f 125/125/125 127/127/127 126/126/126 
f 128/128/128 126/126/126 127/127/127 
f 131/131/131 130/130/130 129/129/129 
f 132/132/132 129/129/129 130/130/130 
f 131/131/131 133/133/133 130/130/130 
f 134/134/134 130/130/130 133/133/133 
f 133/133/133 135/135/135 134/134/134 
f 136/136/136 134/134/134 135/135/135 
f 139/139/139 138/138/138 137/137/137 
f 140/140/140 137/137/137 138/138/138 
f 139/139/139 141/141/141 138/138/138 
f 142/142/142 138/138/138 141/141/141 
f 141/141/141 143/143/143 142/142/142 
f 144/144/144 142/142/142 143/143/143 
f 147/147/147 146/146/146 145/145/145 
f 148/148/148 145/145/145 146/146/146 
f 147/147/147 149/149/149 146/146/146 
f 150/150/150 146/146/146 149/149/149 
f 149/149/149 151/151/151 150/150/150 
f 152/152/152 150/150/150 151/151/151 
f 155/155/155 154/154/154 153/153/153 
f 156/156/156 153/153/153 154/154/154 
f 155/155/155 157/157/157 154/154/154 
f 158/158/158 154/154/154 157/157/157 
f 157/157/157 159/159/159 158/158/158 
f 160/160/160 158/158/158 159/159/159 

