# Created by DisUnity v0.3.4
v 75.006516 3.0339184 0.0
v 45.47246 78.76062 62.703884
v 75.006516 3.0339184 62.703884
v 45.47246 78.76062 0.0
v 44.467712 -54.289593 0.0
v 44.467712 -54.289593 62.703884
v -54.79181 -62.35015 0.0
v -54.79181 -62.35015 62.703884
v -69.49746 -0.031197526 0.0
v -69.49746 -0.031197509 62.703884
v -23.706064 74.28732 0.0
v -23.706064 74.28732 62.703884
v 27.006243 42.80218 89.24837
v 44.217724 -1.3288854 89.24837
v 45.47246 78.76062 62.703884
v 44.467712 -54.289593 62.703884
v 26.420708 -34.735165 89.24837
v -54.79181 -62.35015 62.703884
v -31.42452 -39.4326 89.24837
v -69.49746 -0.031197509 62.703884
v -39.9945 -3.1151352 89.24837
v -23.706064 74.28732 62.703884
v -13.30876 40.195286 89.24837
v -69.49746 -0.031197526 0.0
v 8.396669 74.642654 0.0
v -54.79181 -62.35015 0.0
v -23.706064 74.28732 0.0
v 44.467712 -54.289593 0.0
v 45.47246 78.76062 0.0
v 75.006516 3.0339184 0.0
vn -0.99827075 0.058783878 0.0
vn -0.8838696 -0.34471658 -0.31614086
vn -0.92442036 0.04419757 -0.37880552
vn -0.93165195 -0.3633521 0.0
vn -0.54899657 0.8358246 0.0
vn -0.5230458 0.77922237 -0.34530485
vn 0.5883496 0.8086066 0.0
vn 0.5551676 0.7441454 -0.37153283
vn 0.98718935 -0.15955298 0.0
vn 0.9156027 -0.14524595 -0.37493393
vn 0.8513671 -0.5245703 0.0
vn 0.8121727 -0.5004207 -0.29992422
vn -0.6142638 -0.23956801 -0.7518558
vn -0.6572581 0.07655223 -0.74976766
vn -0.8838696 -0.34471658 -0.31614086
vn -0.5230458 0.77922237 -0.34530485
vn -0.36076322 0.6167543 -0.69961715
vn 0.5551676 0.7441454 -0.37153283
vn 0.32364747 0.55640423 -0.76528865
vn 0.9156027 -0.14524595 -0.37493393
vn 0.6576495 -0.11568933 -0.74438775
vn 0.8121727 -0.5004207 -0.29992422
vn 0.5998443 -0.36959442 -0.70963854
vn -0.0 0.0 1.0
vn -0.0 0.0 1.0
vn -0.0 0.0 1.0
vn -0.0 0.0 1.0
vn -0.0 0.0 1.0
vn -0.0 0.0 1.0
vn -0.0 0.0 1.0
vt 2.0108552 0.8066752
vt 2.5526881 0.26797134
vt 2.0108552 0.26797134
vt 2.5526881 0.8066752
vt 1.4690224 0.8066752
vt 1.4690224 0.26797134
vt 0.92718947 0.8066752
vt 0.92718947 0.26797134
vt 0.38535678 0.8066752
vt 0.38535678 0.26797134
vt -0.15647595 0.8066752
vt -0.15647595 0.26797134
vt 2.5526881 0.26797134
vt 2.0108552 0.26797134
vt 2.5526881 0.26797134
vt 1.4690224 0.26797134
vt 1.4690224 0.26797134
vt 0.92718947 0.26797134
vt 0.92718947 0.26797134
vt 0.38535678 0.26797134
vt 0.38535678 0.26797134
vt -0.15647595 0.26797134
vt -0.15647595 0.26797134
vt 0.38535678 0.8066752
vt 1.1981059 0.8066752
vt 0.92718947 0.8066752
vt 0.38535678 0.8066752
vt 1.4690224 0.8066752
vt 2.0108552 0.8066752
vt 2.0108552 0.8066752

g Cylinder001
s 1
usemtl Cylinder001
f 3/3/3 2/2/2 1/1/1 
f 2/2/2 4/4/4 1/1/1 
f 3/3/3 1/1/1 5/5/5 
f 6/6/6 3/3/3 5/5/5 
f 6/6/6 5/5/5 7/7/7 
f 8/8/8 6/6/6 7/7/7 
f 8/8/8 7/7/7 9/9/9 
f 10/10/10 8/8/8 9/9/9 
f 10/10/10 9/9/9 11/11/11 
f 12/12/12 10/10/10 11/11/11 
f 14/14/14 13/13/13 3/3/3 
f 13/13/13 15/15/15 3/3/3 
f 14/14/14 3/3/3 16/16/16 
f 17/17/17 14/14/14 16/16/16 
f 17/17/17 16/16/16 18/18/18 
f 19/19/19 17/17/17 18/18/18 
f 19/19/19 18/18/18 20/20/20 
f 21/21/21 19/19/19 20/20/20 
f 21/21/21 20/20/20 22/22/22 
f 23/23/23 21/21/21 22/22/22 
f 26/26/26 25/25/25 24/24/24 
f 25/25/25 27/27/27 24/24/24 
f 28/28/28 25/25/25 26/26/26 
f 29/29/29 25/25/25 28/28/28 
f 30/30/30 29/29/29 28/28/28 

