# Created by DisUnity v0.3.4
v 0.97138524 0.3898704 -1.1907345
v 0.90929097 0.5038972 -0.8838693
v 0.56808394 0.86296016 -1.1845958
v 0.77559966 0.49369943 -1.4906921
v 0.4806742 0.6982098 -1.5630801
v 0.6741973 0.70789933 -0.76333463
v 0.5355174 0.80157864 -0.72471005
v 0.14597397 0.8277537 -1.4906921
v -0.049772568 0.931656 -1.1907345
v 0.07946022 0.9441723 -0.8838693
v 0.3801926 0.863887 -0.76333463
vn 0.091654584 0.99576306 -0.007432211
vn 0.18022566 0.8460955 -0.5016384
vn 0.4628136 0.87231106 -0.15772437
vn 0.27795258 0.87245786 0.40194488
vn 0.42781016 0.80633706 0.4084104
vn 0.3742346 0.7587802 -0.53310513
vn 0.38620687 0.7279217 -0.5665458
vn 0.56658214 0.71932256 0.40194488
vn 0.7731349 0.6341981 -0.007432413
vn 0.5995462 0.623621 -0.50163865
vn 0.41847074 0.7353102 -0.5331052
vt 0.9852081 0.6557058
vt 0.96886486 0.62268174
vt 0.8637176 0.6557058
vt 0.9438712 0.67897654
vt 0.8637176 0.6865785
vt 0.900861 0.60415184
vt 0.8637176 0.59980977
vt 0.7817496 0.6783849
vt 0.7404124 0.6557058
vt 0.7666621 0.6258048
vt 0.8247598 0.6035216

g home_zhao_jiang
s 1
usemtl home_zhao_jiang
f 3/3/3 2/2/2 1/1/1 
f 3/3/3 1/1/1 4/4/4 
f 4/4/4 5/5/5 3/3/3 
f 2/2/2 3/3/3 6/6/6 
f 6/6/6 3/3/3 7/7/7 
f 5/5/5 8/8/8 3/3/3 
f 9/9/9 3/3/3 8/8/8 
f 10/10/10 3/3/3 9/9/9 
f 3/3/3 11/11/11 7/7/7 
f 10/10/10 11/11/11 3/3/3 

