# Created by DisUnity v0.3.4
v -3.3549488 0.29266235 -1.1845871
v -6.6210275 -3.44584 -1.301444
v -6.6207886 -3.4460595 -1.1845851
v -3.355193 0.29287964 -1.3014461
v -2.7457252 0.8955664 -1.1844761
v -2.7459912 0.8958044 -1.3014902
v -1.9446509 1.4366125 -1.1842401
v -1.9443554 1.4374548 -1.3016951
v -1.1388086 1.6987878 -1.184303
v -1.1399219 1.69906 -1.3015711
v -0.28603026 1.5972486 -1.184473
v -0.2886438 1.5978638 -1.301596
v 0.4698364 1.2162353 -1.3016021
v 0.47025388 1.2167053 -1.184643
v 0.94209105 0.51374876 -1.184473
v 0.9430273 0.5112341 -1.301596
v 1.149535 -0.32079345 -1.3015711
v 1.1491284 -0.3197229 -1.184303
v -3.355193 0.29287964 -1.3014461
v -6.7214475 -3.35864 -1.3014431
v -6.6210275 -3.44584 -1.301444
v -3.4555883 0.38020018 -1.301444
v -2.8597362 0.99513304 -1.3014882
v -2.7459912 0.8958044 -1.3014902
v -2.0119922 1.5719018 -1.3016881
v -1.9443554 1.4374548 -1.3016951
v -1.1399219 1.69906 -1.3015711
v -1.1505712 1.8499389 -1.301565
v -3.4555883 0.38020018 -1.301444
v -6.7212033 -3.3588574 -1.1845851
v -6.7214475 -3.35864 -1.3014431
v -3.4553392 0.37997925 -1.1845871
v -2.8597362 0.99513304 -1.3014882
v -2.8594677 0.9948974 -1.184473
v -2.0119922 1.5719018 -1.3016881
v -2.8594677 0.9948974 -1.184473
v -2.8597362 0.99513304 -1.3014882
v -2.0122876 1.5710596 -1.1842351
v -1.1505712 1.8499389 -1.301565
v -1.1494604 1.8496679 -1.1842961
v -0.2886438 1.5978638 -1.301596
v -1.1505712 1.8499389 -1.301565
v -1.1399219 1.69906 -1.3015711
v -0.24548583 1.741173 -1.3015982
v 0.4698364 1.2162353 -1.3016021
v 0.5715063 1.3314734 -1.3016101
v 1.0798389 0.5719165 -1.3015982
v 0.9430273 0.5112341 -1.301596
v 1.3005664 -0.3125586 -1.301565
v 1.149535 -0.32079345 -1.3015711
v 1.1320617 -1.2019128 -1.3016881
v 0.9902331 -1.1515601 -1.3016951
v -0.24548583 1.741173 -1.3015982
v -1.1494604 1.8496679 -1.1842961
v -1.1505712 1.8499389 -1.301565
v -0.24287476 1.7405603 -1.1844751
v 0.57192135 1.3319446 -1.1846521
v 0.5715063 1.3314734 -1.3016101
v -3.2720897 -6.4004087 -1.301444
v 0.030181885 -2.6938415 -1.1845871
v -3.2723413 -6.4001966 -1.1845851
v 0.030428465 -2.6940563 -1.3014461
v 0.5524524 -2.0142224 -1.1844761
v 0.55272096 -2.0144591 -1.3014902
v 0.98943603 -1.1519604 -1.1842401
v 0.9902331 -1.1515601 -1.3016951
v 1.1491284 -0.3197229 -1.184303
v 1.149535 -0.32079345 -1.3015711
v -3.1730566 -6.489178 -1.3014431
v 0.030428465 -2.6940563 -1.3014461
v -3.2720897 -6.4004087 -1.301444
v 0.12957764 -2.7827818 -1.301444
v 0.6654541 -2.1149352 -1.3014882
v 0.55272096 -2.0144591 -1.3014902
v 1.1320617 -1.2019128 -1.3016881
v 0.9902331 -1.1515601 -1.3016951
v 0.6651843 -2.1146984 -1.184473
v 1.1320617 -1.2019128 -1.3016881
v 0.6654541 -2.1149352 -1.3014882
v 1.1312622 -1.202312 -1.1842351
v 1.3005664 -0.3125586 -1.301565
v 1.3001599 -0.31148803 -1.1842961
v 1.3001599 -0.31148803 -1.1842961
v 1.0798389 0.5719165 -1.3015982
v 1.3005664 -0.3125586 -1.301565
v 1.078905 0.5744299 -1.1844751
v 0.57192135 1.3319446 -1.1846521
v 0.5715063 1.3314734 -1.3016101
vn 0.7287514 -0.6847723 -0.0028550492
vn 0.7531268 -0.65786946 -0.0027878515
vn 0.7531268 -0.6578694 -0.0027878515
vn 0.72875446 -0.68476915 -0.0028550418
vn 0.63431233 -0.7730696 -0.0033479047
vn 0.63435763 -0.77303255 -0.0033476437
vn 0.43925363 -0.8983508 -0.004713435
vn 0.43839556 -0.89876974 -0.0047197547
vn 0.09663755 -0.99531233 -0.003815715
vn 0.09913587 -0.9950665 -0.0038374092
vn -0.2905397 -0.9568613 0.0017696131
vn -0.28573748 -0.95830643 0.001666027
vn -0.66156226 -0.7498705 0.0054439316
vn -0.6615667 -0.74986655 0.005443931
vn -0.913188 -0.40753463 0.0017732764
vn -0.9152193 -0.40295273 0.001669861
vn -0.99966335 -0.025660781 -0.003823736
vn -0.99959594 -0.028169844 -0.0038021156
vn -2.6542411E-5 -1.1476411E-5 -1.0
vn -8.398445E-6 6.948377E-6 -1.0
vn -8.398445E-6 6.9483776E-6 -1.0
vn -2.5798132E-5 -1.0720611E-5 -1.0
vn -1.038728E-4 -6.0605482E-5 -1.0
vn -1.175656E-4 -6.780492E-5 -1.0
vn -2.8941919E-5 -1.0690003E-5 -1.0
vn -2.6720247E-5 -9.3650515E-6 -1.0
vn 4.6900288E-5 4.8729547E-5 -1.0
vn 4.4253455E-5 4.7648307E-5 -1.0
vn -0.73588735 0.6770979 0.002886177
vn -0.7531347 0.65786034 0.0028226732
vn -0.75313467 0.6578604 0.0028226732
vn -0.73588574 0.67709965 0.0028861824
vn -0.64364666 0.7653154 0.003359553
vn -0.6435981 0.76535636 0.0033597995
vn -0.43883726 0.8985542 0.004709663
vn -0.6435981 0.76535636 0.0033597995
vn -0.64364666 0.7653154 0.003359553
vn -0.43971196 0.89812654 0.0047033424
vn -0.09739909 0.99523807 0.003813559
vn -0.09491013 0.9954787 0.0037917786
vn -2.7590297E-5 -4.242845E-6 -1.0
vn 4.4253455E-5 4.7648307E-5 -1.0
vn 4.6900288E-5 4.8729547E-5 -1.0
vn -2.7589029E-5 -4.2507077E-6 -1.0
vn -2.318878E-5 -2.6283906E-5 -1.0
vn -2.3188766E-5 -2.6283917E-5 -1.0
vn -7.7921106E-7 -2.7903787E-5 -1.0
vn -7.713118E-7 -2.790406E-5 -1.0
vn 4.17621E-5 4.984866E-5 -1.0
vn 4.2504325E-5 5.2606858E-5 -1.0
vn -6.998065E-6 -3.0049345E-5 -1.0
vn -5.9598665E-6 -2.7678774E-5 -1.0
vn 0.28572556 0.95831 -0.0016774518
vn -0.09491013 0.9954787 0.0037917786
vn -0.09739909 0.99523807 0.003813559
vn 0.29048654 0.95687735 -0.0017802647
vn 0.6615646 0.7498686 -0.0054318854
vn 0.6615656 0.7498676 -0.005431886
vn -0.74660724 0.6652592 -0.0028072118
vn -0.7702626 0.6377204 -0.0028671427
vn -0.7466072 0.66525924 -0.0028072118
vn -0.77026 0.63772357 -0.0028671362
vn -0.8461019 0.5330107 -0.0033455351
vn -0.84606934 0.53306246 -0.0033452674
vn -0.9460932 0.32386038 -0.0046989103
vn -0.94640285 0.32295462 -0.004705214
vn -0.99959594 -0.028169844 -0.0038021156
vn -0.99966335 -0.025660781 -0.003823736
vn 7.941156E-6 -7.4670966E-6 -1.0
vn -8.078318E-6 -2.7766177E-5 -1.0
vn 7.941156E-6 -7.4670975E-6 -1.0
vn -7.4212608E-6 -2.693359E-5 -1.0
vn -4.7185822E-5 -1.10617984E-4 -1.0
vn -5.262175E-5 -1.2509956E-4 -1.0
vn -6.998065E-6 -3.0049345E-5 -1.0
vn -5.9598665E-6 -2.7678774E-5 -1.0
vn 0.8904879 -0.45499137 0.0037462094
vn 0.94624346 -0.32342082 0.0047145216
vn 0.8904879 -0.45499143 0.0037462101
vn 0.9459276 -0.32434383 0.004708222
vn 0.9996172 0.02740204 0.0038120127
vn 0.9995455 0.029906534 0.00379017
vn 0.9995455 0.029906534 0.00379017
vn 0.91522455 0.4029406 -0.0016767865
vn 0.9996172 0.02740204 0.0038120127
vn 0.9132103 0.40748465 -0.0017794596
vn 0.6615646 0.7498686 -0.0054318854
vn 0.6615656 0.7498676 -0.005431886
vt 0.6003 0.024500012
vt 0.6003 0.024500012
vt 0.6003 0.024500012
vt 0.6003 0.024500012
vt 0.6003 0.024500012
vt 0.6003 0.024500012
vt 0.6003 0.024500012
vt 0.6003 0.024500012
vt 0.6003 0.024500012
vt 0.6003 0.024500012
vt 0.6003 0.024500012
vt 0.6003 0.024500012
vt 0.6003 0.024500012
vt 0.6003 0.024500012
vt 0.6003 0.024500012
vt 0.6003 0.024500012
vt 0.6003 0.024500012
vt 0.6003 0.024500012
vt 0.5086459 -0.54006076
vt 0.50290394 -0.6471242
vt 0.5057744 -0.6471927
vt 0.5057744 -0.5399898
vt 0.507223 -0.5215614
vt 0.51048183 -0.5216483
vt 0.5133867 -0.50030124
vt 0.5163621 -0.5016068
vt 0.5261426 -0.48618495
vt 0.52388906 -0.48382187
vt 0.1184 0.15109998
vt 0.6446 0.07249999
vt 0.6446 0.15109998
vt 0.1184 0.07249999
vt 0.0278 0.15100002
vt 0.0278 0.072399974
vt 0.3971 0.15069997
vt 0.0087 0.07230002
vt 0.0089 0.15069997
vt 0.3968 0.07230002
vt 0.7742 0.15069997
vt 0.7744 0.07230002
vt 0.5000007 -0.5572947
vt 0.4880259 -0.54204774
vt 0.48631907 -0.5448315
vt 0.50255764 -0.5553192
vt 0.5085323 -0.5735184
vt 0.51176465 -0.5727705
vt 0.5111587 -0.5924922
vt 0.50799406 -0.59184086
vt 0.5039332 -0.610798
vt 0.5011771 -0.6090468
vt 0.48981 -0.62430346
vt 0.48795092 -0.6216389
vt 0.3702 0.15069997
vt 0.0077 0.07230002
vt 0.0075 0.15069997
vt 0.3709 0.07230002
vt 0.7422 0.07230002
vt 0.7424 0.15069997
vt 0.77846503 0.061619222
vt 0.2753143 0.0020684004
vt 0.7784658 0.0020673275
vt 0.27531388 0.061620176
vt 0.18867016 0.0019232035
vt 0.18866993 0.061554074
vt 0.0906933 0.0014224052
vt 0.09061125 0.061277986
vt 0.0048032226 4.7695637E-4
vt 0.004875046 0.06023872
vt 0.50579727 -0.6460241
vt 0.5068556 -0.53881204
vt 0.5029284 -0.6459104
vt 0.5097259 -0.5389234
vt 0.50944877 -0.52044
vt 0.5061908 -0.5203202
vt 0.50464535 -0.49883187
vt 0.5015933 -0.49994612
vt 0.0087 0.07230002
vt 0.3971 0.15069997
vt 0.0089 0.15069997
vt 0.3968 0.07230002
vt 0.7742 0.15069997
vt 0.7744 0.07230002
vt 0.0077 0.07230002
vt 0.3702 0.15069997
vt 0.0075 0.15069997
vt 0.3709 0.07230002
vt 0.7422 0.07230002
vt 0.7424 0.15069997

g Object82232250
s 1
usemtl Object82232250
f 3/3/3 2/2/2 1/1/1 
f 2/2/2 4/4/4 1/1/1 
f 1/1/1 4/4/4 5/5/5 
f 4/4/4 6/6/6 5/5/5 
f 5/5/5 6/6/6 7/7/7 
f 6/6/6 8/8/8 7/7/7 
f 7/7/7 8/8/8 9/9/9 
f 8/8/8 10/10/10 9/9/9 
f 9/9/9 10/10/10 11/11/11 
f 10/10/10 12/12/12 11/11/11 
f 11/11/11 12/12/12 13/13/13 
f 14/14/14 11/11/11 13/13/13 
f 14/14/14 13/13/13 15/15/15 
f 13/13/13 16/16/16 15/15/15 
f 15/15/15 16/16/16 17/17/17 
f 18/18/18 15/15/15 17/17/17 
f 21/21/21 20/20/20 19/19/19 
f 20/20/20 22/22/22 19/19/19 
f 19/19/19 22/22/22 23/23/23 
f 24/24/24 19/19/19 23/23/23 
f 24/24/24 23/23/23 25/25/25 
f 26/26/26 24/24/24 25/25/25 
f 26/26/26 25/25/25 27/27/27 
f 25/25/25 28/28/28 27/27/27 
f 31/31/31 30/30/30 29/29/29 
f 30/30/30 32/32/32 29/29/29 
f 29/29/29 32/32/32 33/33/33 
f 32/32/32 34/34/34 33/33/33 
f 37/37/37 36/36/36 35/35/35 
f 36/36/36 38/38/38 35/35/35 
f 35/35/35 38/38/38 39/39/39 
f 38/38/38 40/40/40 39/39/39 
f 43/43/43 42/42/42 41/41/41 
f 42/42/42 44/44/44 41/41/41 
f 45/45/45 41/41/41 44/44/44 
f 46/46/46 45/45/45 44/44/44 
f 45/45/45 46/46/46 47/47/47 
f 48/48/48 45/45/45 47/47/47 
f 48/48/48 47/47/47 49/49/49 
f 50/50/50 48/48/48 49/49/49 
f 50/50/50 49/49/49 51/51/51 
f 52/52/52 50/50/50 51/51/51 
f 55/55/55 54/54/54 53/53/53 
f 54/54/54 56/56/56 53/53/53 
f 53/53/53 56/56/56 57/57/57 
f 58/58/58 53/53/53 57/57/57 
f 61/61/61 60/60/60 59/59/59 
f 60/60/60 62/62/62 59/59/59 
f 60/60/60 63/63/63 62/62/62 
f 63/63/63 64/64/64 62/62/62 
f 63/63/63 65/65/65 64/64/64 
f 65/65/65 66/66/66 64/64/64 
f 65/65/65 67/67/67 66/66/66 
f 67/67/67 68/68/68 66/66/66 
f 71/71/71 70/70/70 69/69/69 
f 70/70/70 72/72/72 69/69/69 
f 72/72/72 70/70/70 73/73/73 
f 70/70/70 74/74/74 73/73/73 
f 73/73/73 74/74/74 75/75/75 
f 74/74/74 76/76/76 75/75/75 
f 79/79/79 78/78/78 77/77/77 
f 78/78/78 80/80/80 77/77/77 
f 78/78/78 81/81/81 80/80/80 
f 81/81/81 82/82/82 80/80/80 
f 85/85/85 84/84/84 83/83/83 
f 84/84/84 86/86/86 83/83/83 
f 87/87/87 86/86/86 84/84/84 
f 88/88/88 87/87/87 84/84/84 

