# Created by DisUnity v0.3.4
v -0.0 1.4842275 -5.967982E-8
v 1.335144E-7 1.3944104 -0.026834013
v 0.0749765 1.3944104 1.30727535E-8
v 1.14440915E-7 1.3078592 -0.034431964
v 0.0962059 1.3078592 1.5292535E-8
v 1.04904174E-7 1.178849 -0.02449615
v 0.068444364 1.178849 1.8601257E-8
v 7.6293944E-8 1.0041136 -0.03065967
v 0.057012938 1.0041136 4.9567547E-8
v 5.7220458E-8 0.8995989 -0.06666573
v 0.12396774 0.8995989 5.1299182E-8
v 5.2452087E-8 0.822846 -0.027146885
v 0.0504808 0.822846 5.2570854E-8
v 4.7683713E-8 0.7640566 -0.036807083
v 0.068444364 0.7640566 5.35449E-8
v 0.021157874 0.73832786 -0.036646385
v -0.0749765 1.3944104 -1.1276614E-7
v -0.0962059 1.3078592 -9.812451E-8
v -0.068444364 1.178849 -7.8446405E-8
v -0.057012938 1.0041136 -6.151884E-8
v -0.12396774 0.8995989 -3.5005613E-8
v -0.0504808 0.822846 -2.2193507E-8
v -0.068444364 0.7640566 -8.349179E-9
v -0.021157797 0.73832786 -0.03664643
v -1.2397766E-7 1.3078592 0.034431875
v -1.335144E-7 1.3944104 0.0268339
v -8.106232E-8 1.0041136 0.030659651
v -1.04904174E-7 1.178849 0.024496082
v -5.2452087E-8 0.822846 0.027146906
v -6.67572E-8 0.8995989 0.06666573
v -4.7683713E-8 0.7640566 0.03680712
v -0.02115787 0.73832786 0.036646467
v 0.021157794 0.73832786 0.03664651
v -0.042315673 0.7134322 3.6706296E-10
v 0.042315673 0.7134322 8.5830685E-8
v 0.042315673 0.7134322 8.5830685E-8
v 0.030139571 0.68403757 -0.05220315
v 0.060279083 0.68403757 8.5830685E-8
v 0.021157874 0.73832786 -0.036646385
v 0.020284133 0.55605674 -0.035133045
v 0.040568236 0.55605674 8.5830685E-8
v 0.030676726 0.4544402 -0.053133566
v 0.061353453 0.4544402 8.5830685E-8
v 0.021438822 0.42441702 -0.037133053
v 0.042877655 0.42441702 8.5830685E-8
v 0.020284109 0.39208457 -0.035133034
v 0.040568236 0.39208457 8.5830685E-8
v -0.030139502 0.68403757 -0.052203193
v -0.021157797 0.73832786 -0.03664643
v 4.7683713E-8 0.7640566 -0.036807083
v -0.0202841 0.55605674 -0.035133064
v -0.030676726 0.4544402 -0.053133566
v -0.021438828 0.42441702 -0.03713305
v -0.020284124 0.39208457 -0.035133027
v -0.060279083 0.68403757 1.1515476E-8
v -0.042315673 0.7134322 3.6706296E-10
v -0.040568236 0.55605674 5.1493743E-8
v -0.061353453 0.4544402 8.64217E-8
v -0.042877655 0.42441702 9.45893E-8
v -0.040568236 0.39208457 1.04922655E-7
v -0.03013957 0.68403757 0.052203245
v -0.02115787 0.73832786 0.036646467
v -0.020284133 0.55605674 0.03513318
v -0.030676726 0.4544402 0.053133734
v -0.021438822 0.42441702 0.037133228
v -0.020284109 0.39208457 0.035133224
v 0.0301395 0.68403757 0.052203283
v 0.021157794 0.73832786 0.03664651
v -4.7683713E-8 0.7640566 0.03680712
v 0.0202841 0.55605674 0.035133198
v 0.030676719 0.4544402 0.053133734
v 0.021438828 0.42441702 0.037133224
v 0.02028412 0.39208457 0.035133213
v 0.040568236 0.39208457 8.5830685E-8
v 0.020283971 -0.65203637 -0.035132952
v 0.040568236 -0.65203637 8.5830685E-8
v 0.020284109 0.39208457 -0.035133034
v -0.020284265 -0.65203637 -0.035132784
v -0.020284124 0.39208457 -0.035133027
v -0.040568236 -0.65203637 4.2856462E-7
v -0.040568236 0.39208457 1.04922655E-7
v -0.020283965 -0.65203637 0.035133462
v -0.020284109 0.39208457 0.035133224
v 0.020284262 -0.65203637 0.035133295
v 0.02028412 0.39208457 0.035133213
v 0.040568236 -0.65203637 8.5830685E-8
v 0.031296454 -0.6583427 -0.05420733
v 0.062593386 -0.6583427 -1.1681295E-8
v 0.020283971 -0.65203637 -0.035132952
v 0.025429402 -0.7080656 -0.044045106
v 0.05085912 -0.7080656 8.958754E-8
v -0.03129692 -0.6583427 -0.054207053
v -0.020284265 -0.65203637 -0.035132784
v -0.02542972 -0.7080656 -0.044044923
v -0.062593386 -0.6583427 5.4668453E-7
v -0.040568236 -0.65203637 4.2856462E-7
v -0.050859127 -0.7080656 4.5776218E-7
v -0.031296443 -0.6583427 0.05420786
v -0.020283965 -0.65203637 0.035133462
v -0.025429405 -0.7080656 0.044045657
v 0.03129693 -0.6583427 0.054207586
v 0.020284262 -0.65203637 0.035133295
v 0.025429718 -0.7080656 0.044045474
v 0.066680335 -0.7312356 9.299632E-8
v -0.03334033 -0.7312356 -0.057746496
v 0.033340003 -0.7312356 -0.057746686
v -0.0 -0.88858086 3.0261464E-7
v -0.066680335 -0.7312356 4.704568E-7
v -0.033340003 -0.7312356 0.057747234
v 0.033340324 -0.7312356 0.057747047
vn -0.0 1.0 -1.4786944E-7
vn 1.2800755E-6 0.183931 -0.9829391
vn 0.9150541 0.40333122 1.2685371E-6
vn 9.669907E-7 0.005256819 -0.9999862
vn 0.99991965 0.012681676 7.83822E-7
vn 1.1111707E-6 -0.037541285 -0.9992951
vn 0.9947642 -0.10219655 1.1835231E-6
vn 1.0100206E-6 0.1731086 -0.9849028
vn 0.9348129 0.35514054 1.1902611E-6
vn 5.48336E-7 -0.06455697 -0.997914
vn 0.99722254 -0.07448055 5.7242863E-7
vn 7.5652054E-7 -0.17254445 -0.9850017
vn 0.94050354 -0.33978385 1.1098468E-6
vn 7.798887E-7 0.19633707 -0.98053646
vn 0.9991898 0.040247034 4.5715166E-7
vn 0.43105936 0.19998339 -0.8798832
vn -0.9150541 0.40333125 -1.2081305E-6
vn -0.99991965 0.012681671 -8.491404E-7
vn -0.9947642 -0.10219658 -1.0848961E-6
vn -0.9348129 0.35514054 -1.1902611E-6
vn -0.99722254 -0.07448059 -4.3773952E-7
vn -0.94050354 -0.3397839 -8.9404324E-7
vn -0.9991898 0.04024702 -5.4422816E-7
vn -0.4310578 0.19998385 -0.8798839
vn -1.0184265E-6 0.0052570323 0.9999862
vn -1.2903986E-6 0.18393113 0.9829391
vn -1.0508295E-6 0.17310877 0.9849028
vn -1.1313738E-6 -0.037541058 0.9992951
vn -7.974136E-7 -0.1725442 0.98500174
vn -6.13614E-7 -0.0645568 0.997914
vn -8.217618E-7 0.19633803 0.9805362
vn -0.4310593 0.19998416 0.87988317
vn 0.43105772 0.1999846 0.8798837
vn -0.9933883 0.11480227 -9.976593E-7
vn 0.9933883 0.1148022 1.0600128E-6
vn 0.9933883 0.1148022 1.0600128E-6
vn 0.51238495 0.099926986 -0.85292226
vn 0.9943257 0.106378675 6.3095086E-7
vn 0.43105936 0.19998339 -0.8798832
vn 0.49983168 0.025969101 -0.86573315
vn 0.99966276 0.025969232 4.407624E-7
vn 0.49381226 -0.15683803 -0.8553077
vn 0.9876244 -0.1568379 1.8299761E-7
vn 0.47178242 -0.33118755 -0.8171513
vn 0.943565 -0.33118746 0.0
vn 0.49967387 -0.036056694 -0.8654629
vn 0.9993498 -0.03605657 -1.1159523E-6
vn -0.5123838 0.09992703 -0.85292286
vn -0.4310578 0.19998385 -0.8798839
vn 7.798887E-7 0.19633707 -0.98053646
vn -0.499831 0.025969109 -0.8657335
vn -0.4938121 -0.15683801 -0.8553079
vn -0.47178257 -0.33118758 -0.8171511
vn -0.49967587 -0.036056694 -0.8654617
vn -0.9943257 0.106378704 -5.8146463E-7
vn -0.9933883 0.11480227 -9.976593E-7
vn -0.99966276 0.025969232 -3.8829063E-7
vn -0.9876244 -0.15683793 0.0
vn -0.943565 -0.3311875 1.4420193E-7
vn -0.9993498 -0.03605656 1.2242972E-6
vn -0.5123849 0.09992717 0.85292214
vn -0.4310593 0.19998416 0.87988317
vn -0.49983168 0.025969358 0.86573315
vn -0.4938122 -0.15683775 0.85530776
vn -0.47178236 -0.3311873 0.81715137
vn -0.49967384 -0.03605642 0.8654629
vn 0.5123838 0.09992721 0.85292286
vn 0.43105772 0.1999846 0.8798837
vn -8.217618E-7 0.19633803 0.9805362
vn 0.499831 0.02596936 0.8657335
vn 0.49381208 -0.15683776 0.8553079
vn 0.47178257 -0.3311873 0.8171513
vn 0.49967584 -0.03605643 0.8654617
vn 0.9993498 -0.03605657 -1.1159523E-6
vn 0.34955052 0.7150196 -0.6054433
vn 0.69910437 0.71501964 -1.954941E-6
vn 0.49967387 -0.036056694 -0.8654629
vn -0.34955397 0.7150196 -0.6054413
vn -0.49967587 -0.036056694 -0.8654617
vn -0.6991044 0.71501964 1.9982635E-6
vn -0.9993498 -0.03605656 1.2242972E-6
vn -0.3495504 0.7150197 0.6054431
vn -0.49967384 -0.03605642 0.8654629
vn 0.3495538 0.71501964 0.6054412
vn 0.49967584 -0.03605643 0.8654617
vn 0.69910437 0.71501964 -1.954941E-6
vn 0.45174497 0.4285949 -0.7824531
vn 0.9034967 0.42859492 -3.9705155E-6
vn 0.34955052 0.7150196 -0.6054433
vn 0.4887422 0.21097833 -0.8465336
vn 0.9774908 0.21097837 -3.653779E-6
vn -0.4517517 0.4285949 -0.78244925
vn -0.34955397 0.7150196 -0.6054413
vn -0.48874864 0.21097834 -0.84652996
vn -0.9034967 0.42859507 3.935223E-6
vn -0.6991044 0.71501964 1.9982635E-6
vn -0.97749066 0.2109784 3.6330773E-6
vn -0.45174482 0.4285951 0.78245306
vn -0.3495504 0.7150197 0.6054431
vn -0.4887422 0.21097848 0.8465336
vn 0.45175183 0.428595 0.7824491
vn 0.3495538 0.71501964 0.6054412
vn 0.48874846 0.21097845 0.84653
vn 0.99623823 0.08665617 -2.575179E-6
vn -0.49812144 0.08665613 -0.8627663
vn 0.49811676 0.086656146 -0.862769
vn -0.0 -1.0 9.361183E-7
vn -0.99623823 0.08665614 2.7754709E-6
vn -0.49811688 0.08665617 0.862769
vn 0.49812138 0.0866562 0.8627663
vt 0.3015863 0.009902
vt 0.3015866 0.08254814
vt 0.4685307 0.08254814
vt 0.30158657 0.15255183
vt 0.5158006 0.15255183
vt 0.30158654 0.25689793
vt 0.4539861 0.25689793
vt 0.30158648 0.39822692
vt 0.42853263 0.39822692
vt 0.30158642 0.4827603
vt 0.57761574 0.4827603
vt 0.30158642 0.54483944
vt 0.41398805 0.54483944
vt 0.30158642 0.59238935
vt 0.4539861 0.59238935
vt 0.34869692 0.6333352
vt 0.13464186 0.08254814
vt 0.087371975 0.15255183
vt 0.14918643 0.25689793
vt 0.17463994 0.39822692
vt 0.025556806 0.4827603
vt 0.18918455 0.54483944
vt 0.14918643 0.59238935
vt 0.25447583 0.6333352
vt 0.30158603 0.15255183
vt 0.30158603 0.08254814
vt 0.30158612 0.39822692
vt 0.3015861 0.25689793
vt 0.30158618 0.54483944
vt 0.30158612 0.4827603
vt 0.30158618 0.59238935
vt 0.25447568 0.6333352
vt 0.34869677 0.6333352
vt 0.20736521 0.6333352
vt 0.3958074 0.6333352
vt 0.4860002 0.6631606
vt 0.43360323 0.74191844
vt 0.5633016 0.74191844
vt 0.3949526 0.6631606
vt 0.3911927 0.8295607
vt 0.4784806 0.8295607
vt 0.43591478 0.9255089
vt 0.567925 0.9255089
vt 0.39616162 0.95385736
vt 0.4884186 0.95385736
vt 0.39119253 0.9843862
vt 0.4784806 0.9843862
vt 0.17420626 0.74191844
vt 0.21285686 0.6631606
vt 0.30390486 0.62920725
vt 0.21661666 0.8295607
vt 0.17189433 0.9255089
vt 0.21164757 0.95385736
vt 0.21661653 0.9843862
vt 0.04450752 0.74191844
vt 0.121808864 0.6631606
vt 0.12932861 0.8295607
vt 0.039884225 0.9255089
vt 0.119390525 0.95385736
vt 0.12932861 0.9843862
vt 0.17420596 0.74191844
vt 0.2128566 0.6631606
vt 0.21661653 0.8295607
vt 0.17189433 0.9255089
vt 0.21164757 0.95385736
vt 0.21661666 0.9843862
vt 0.43360293 0.74191844
vt 0.39495227 0.6631606
vt 0.30390435 0.62920725
vt 0.39119253 0.8295607
vt 0.43591478 0.9255089
vt 0.39616162 0.95385736
vt 0.3911927 0.9843862
vt 0.958072 0.02185595
vt 0.87634385 0.6112304
vt 0.958072 0.6112304
vt 0.87634444 0.02185595
vt 0.7128887 0.6112304
vt 0.7128893 0.02185595
vt 0.63116187 0.6112304
vt 0.63116187 0.02185595
vt 0.71289 0.6112304
vt 0.71288943 0.02185595
vt 0.87634504 0.6112304
vt 0.87634456 0.02185595
vt 0.90350413 0.639341
vt 0.87617433 0.7208906
vt 0.9684264 0.7208906
vt 0.8437134 0.639341
vt 0.85888046 0.7793532
vt 0.933838 0.7793532
vt 0.6916716 0.7208906
vt 0.7241329 0.639341
vt 0.708966 0.7793532
vt 0.5994209 0.7208906
vt 0.66434306 0.639341
vt 0.63400924 0.7793532
vt 0.6916729 0.7208906
vt 0.7241338 0.639341
vt 0.7089669 0.7793532
vt 0.87617576 0.7208906
vt 0.8437144 0.639341
vt 0.8588814 0.7793532
vt 0.9804733 0.8065957
vt 0.6856484 0.8065957
vt 0.882198 0.8065957
vt 0.7839236 0.99159706
vt 0.5873741 0.8065957
vt 0.68564934 0.8065957
vt 0.8821989 0.8065957

g qiang001
s 1
usemtl qiang001
f 3/3/3 2/2/2 1/1/1 
f 4/4/4 2/2/2 3/3/3 
f 5/5/5 4/4/4 3/3/3 
f 6/6/6 4/4/4 5/5/5 
f 7/7/7 6/6/6 5/5/5 
f 8/8/8 6/6/6 7/7/7 
f 9/9/9 8/8/8 7/7/7 
f 10/10/10 8/8/8 9/9/9 
f 11/11/11 10/10/10 9/9/9 
f 12/12/12 10/10/10 11/11/11 
f 13/13/13 12/12/12 11/11/11 
f 14/14/14 12/12/12 13/13/13 
f 15/15/15 14/14/14 13/13/13 
f 16/16/16 14/14/14 15/15/15 
f 2/2/2 17/17/17 1/1/1 
f 4/4/4 18/18/18 2/2/2 
f 18/18/18 17/17/17 2/2/2 
f 6/6/6 19/19/19 4/4/4 
f 19/19/19 18/18/18 4/4/4 
f 8/8/8 20/20/20 6/6/6 
f 20/20/20 19/19/19 6/6/6 
f 10/10/10 21/21/21 8/8/8 
f 21/21/21 20/20/20 8/8/8 
f 12/12/12 22/22/22 10/10/10 
f 22/22/22 21/21/21 10/10/10 
f 14/14/14 23/23/23 12/12/12 
f 23/23/23 22/22/22 12/12/12 
f 24/24/24 23/23/23 14/14/14 
f 18/18/18 25/25/25 17/17/17 
f 25/25/25 26/26/26 17/17/17 
f 17/17/17 26/26/26 1/1/1 
f 20/20/20 27/27/27 19/19/19 
f 27/27/27 28/28/28 19/19/19 
f 28/28/28 25/25/25 18/18/18 
f 19/19/19 28/28/28 18/18/18 
f 22/22/22 29/29/29 21/21/21 
f 29/29/29 30/30/30 21/21/21 
f 30/30/30 27/27/27 20/20/20 
f 21/21/21 30/30/30 20/20/20 
f 26/26/26 3/3/3 1/1/1 
f 25/25/25 5/5/5 26/26/26 
f 5/5/5 3/3/3 26/26/26 
f 28/28/28 7/7/7 25/25/25 
f 7/7/7 5/5/5 25/25/25 
f 27/27/27 9/9/9 28/28/28 
f 9/9/9 7/7/7 28/28/28 
f 30/30/30 11/11/11 27/27/27 
f 11/11/11 9/9/9 27/27/27 
f 29/29/29 13/13/13 30/30/30 
f 13/13/13 11/11/11 30/30/30 
f 15/15/15 13/13/13 29/29/29 
f 31/31/31 15/15/15 29/29/29 
f 31/31/31 29/29/29 22/22/22 
f 23/23/23 31/31/31 22/22/22 
f 32/32/32 31/31/31 23/23/23 
f 33/33/33 15/15/15 31/31/31 
f 34/34/34 32/32/32 23/23/23 
f 34/34/34 23/23/23 24/24/24 
f 35/35/35 15/15/15 33/33/33 
f 35/35/35 16/16/16 15/15/15 
f 38/38/38 37/37/37 36/36/36 
f 37/37/37 39/39/39 36/36/36 
f 40/40/40 37/37/37 38/38/38 
f 41/41/41 40/40/40 38/38/38 
f 42/42/42 40/40/40 41/41/41 
f 43/43/43 42/42/42 41/41/41 
f 44/44/44 42/42/42 43/43/43 
f 45/45/45 44/44/44 43/43/43 
f 46/46/46 44/44/44 45/45/45 
f 47/47/47 46/46/46 45/45/45 
f 37/37/37 48/48/48 39/39/39 
f 48/48/48 49/49/49 39/39/39 
f 39/39/39 49/49/49 50/50/50 
f 40/40/40 51/51/51 37/37/37 
f 51/51/51 48/48/48 37/37/37 
f 42/42/42 52/52/52 40/40/40 
f 52/52/52 51/51/51 40/40/40 
f 44/44/44 53/53/53 42/42/42 
f 53/53/53 52/52/52 42/42/42 
f 46/46/46 54/54/54 44/44/44 
f 54/54/54 53/53/53 44/44/44 
f 48/48/48 55/55/55 49/49/49 
f 55/55/55 56/56/56 49/49/49 
f 51/51/51 57/57/57 48/48/48 
f 57/57/57 55/55/55 48/48/48 
f 52/52/52 58/58/58 51/51/51 
f 58/58/58 57/57/57 51/51/51 
f 53/53/53 59/59/59 52/52/52 
f 59/59/59 58/58/58 52/52/52 
f 54/54/54 60/60/60 53/53/53 
f 60/60/60 59/59/59 53/53/53 
f 55/55/55 61/61/61 56/56/56 
f 61/61/61 62/62/62 56/56/56 
f 57/57/57 63/63/63 55/55/55 
f 63/63/63 61/61/61 55/55/55 
f 58/58/58 64/64/64 57/57/57 
f 64/64/64 63/63/63 57/57/57 
f 59/59/59 65/65/65 58/58/58 
f 65/65/65 64/64/64 58/58/58 
f 60/60/60 66/66/66 59/59/59 
f 66/66/66 65/65/65 59/59/59 
f 61/61/61 67/67/67 62/62/62 
f 67/67/67 68/68/68 62/62/62 
f 62/62/62 68/68/68 69/69/69 
f 63/63/63 70/70/70 61/61/61 
f 70/70/70 67/67/67 61/61/61 
f 64/64/64 71/71/71 63/63/63 
f 71/71/71 70/70/70 63/63/63 
f 65/65/65 72/72/72 64/64/64 
f 72/72/72 71/71/71 64/64/64 
f 66/66/66 73/73/73 65/65/65 
f 73/73/73 72/72/72 65/65/65 
f 67/67/67 38/38/38 68/68/68 
f 38/38/38 36/36/36 68/68/68 
f 70/70/70 41/41/41 67/67/67 
f 41/41/41 38/38/38 67/67/67 
f 71/71/71 43/43/43 70/70/70 
f 43/43/43 41/41/41 70/70/70 
f 72/72/72 45/45/45 71/71/71 
f 45/45/45 43/43/43 71/71/71 
f 73/73/73 47/47/47 72/72/72 
f 47/47/47 45/45/45 72/72/72 
f 76/76/76 75/75/75 74/74/74 
f 75/75/75 77/77/77 74/74/74 
f 75/75/75 78/78/78 77/77/77 
f 78/78/78 79/79/79 77/77/77 
f 78/78/78 80/80/80 79/79/79 
f 80/80/80 81/81/81 79/79/79 
f 80/80/80 82/82/82 81/81/81 
f 82/82/82 83/83/83 81/81/81 
f 82/82/82 84/84/84 83/83/83 
f 84/84/84 85/85/85 83/83/83 
f 84/84/84 76/76/76 85/85/85 
f 76/76/76 74/74/74 85/85/85 
f 88/88/88 87/87/87 86/86/86 
f 87/87/87 89/89/89 86/86/86 
f 90/90/90 87/87/87 88/88/88 
f 91/91/91 90/90/90 88/88/88 
f 87/87/87 92/92/92 89/89/89 
f 92/92/92 93/93/93 89/89/89 
f 90/90/90 94/94/94 87/87/87 
f 94/94/94 92/92/92 87/87/87 
f 92/92/92 95/95/95 93/93/93 
f 95/95/95 96/96/96 93/93/93 
f 94/94/94 97/97/97 92/92/92 
f 97/97/97 95/95/95 92/92/92 
f 95/95/95 98/98/98 96/96/96 
f 98/98/98 99/99/99 96/96/96 
f 97/97/97 100/100/100 95/95/95 
f 100/100/100 98/98/98 95/95/95 
f 98/98/98 101/101/101 99/99/99 
f 91/91/91 88/88/88 101/101/101 
f 101/101/101 102/102/102 99/99/99 
f 101/101/101 88/88/88 102/102/102 
f 100/100/100 103/103/103 98/98/98 
f 103/103/103 101/101/101 98/98/98 
f 103/103/103 91/91/91 101/101/101 
f 88/88/88 86/86/86 102/102/102 
f 91/91/91 104/104/104 90/90/90 
f 94/94/94 105/105/105 97/97/97 
f 106/106/106 105/105/105 94/94/94 
f 107/107/107 106/106/106 104/104/104 
f 107/107/107 105/105/105 106/106/106 
f 107/107/107 108/108/108 105/105/105 
f 105/105/105 108/108/108 97/97/97 
f 97/97/97 108/108/108 100/100/100 
f 107/107/107 109/109/109 108/108/108 
f 108/108/108 109/109/109 100/100/100 
f 100/100/100 109/109/109 103/103/103 
f 107/107/107 110/110/110 109/109/109 
f 107/107/107 104/104/104 110/110/110 
f 109/109/109 110/110/110 103/103/103 
f 104/104/104 106/106/106 90/90/90 
f 90/90/90 106/106/106 94/94/94 
f 103/103/103 110/110/110 91/91/91 
f 110/110/110 104/104/104 91/91/91 

