# Created by DisUnity v0.3.4
v 0.016023336 -0.49275875 -0.009078946
v 0.1631926 -0.43380415 0.020796712
v 0.11067898 -0.44353846 -0.06466
v 0.05937902 -0.48778647 0.08175523
v 0.19415665 -0.31256315 -0.021025982
v 0.13891155 -0.33299282 -0.10279329
v 0.13413289 -0.19508488 -0.019213706
v 0.08418279 -0.22587791 -0.10114088
v 0.018282434 -0.15018648 0.025171928
v -0.021447904 -0.18494022 -0.060670737
v -0.05647147 -0.44288802 0.12614088
v -0.08960737 -0.451821 0.0313912
v -0.11649521 -0.32540974 0.12795313
v -0.14433612 -0.34470612 0.033043604
v -0.08553111 -0.2041688 0.086130425
v -0.11610353 -0.23416045 -0.0050896956
v 0.09910935 -0.4530327 0.1675979
v 0.19376498 -0.40381244 0.112016834
v 0.22199756 -0.29326677 0.07388354
v 0.16726883 -0.18615186 0.075535946
v 0.06163811 -0.14521417 0.1160061
v -0.006521358 -0.41209498 0.20806804
v -0.061250094 -0.30498007 0.20972043
v -0.033017512 -0.1944344 0.17158714
v -0.021447904 -0.18494022 -0.060670737
v -0.0027122807 -0.33884948 -0.034874838
v 0.08418279 -0.22587791 -0.10114088
v 0.13891155 -0.33299282 -0.10279329
v 0.11067898 -0.44353846 -0.06466
v 0.016023336 -0.49275875 -0.009078946
v -0.11610353 -0.23416045 -0.0050896956
v -0.14433612 -0.34470612 0.033043604
v -0.08960737 -0.451821 0.0313912
v 0.06163811 -0.14521417 0.1160061
v 0.16726883 -0.18615186 0.075535946
v 0.080373734 -0.29912347 0.141802
v 0.22199756 -0.29326677 0.07388354
v 0.19376498 -0.40381244 0.112016834
v 0.09910935 -0.4530327 0.1675979
v -0.033017512 -0.1944344 0.17158714
v -0.061250094 -0.30498007 0.20972043
v -0.006521358 -0.41209498 0.20806804
v 0.4553328 -0.36012027 -0.13315627
v 0.4156225 -0.3386908 -0.17618363
v 0.40363586 -0.32999882 -0.11561756
v 0.47708762 -0.3326396 -0.18472192
v 0.45769277 -0.31857565 -0.08672399
v 0.5030884 -0.32020777 -0.12943281
v 0.47708762 -0.3326396 -0.18472192
v 0.39344028 -0.28390208 -0.1563437
v 0.41944113 -0.27147025 -0.101054646
v 0.438836 -0.28553417 -0.19905257
v 0.48090628 -0.26541907 -0.10959297
v 0.49289295 -0.27411106 -0.17015897
v 0.438836 -0.28553417 -0.19905257
v 0.44119602 -0.24398963 -0.15262029
v 0.42152002 -0.30845883 -0.1347685
v 0.34447753 -0.29908818 -0.08849988
v 0.42472765 -0.29576933 -0.12698574
v 0.34116703 -0.3121846 -0.096532285
v 0.26081398 -0.3159104 -0.05829605
v 0.2642274 -0.302407 -0.05001401
v 0.19114986 -0.3054286 -0.014968962
v 0.18794224 -0.3181181 -0.022751741
v -0.36353454 -0.39398333 0.2595474
v -0.31965226 -0.35990933 0.23124927
v -0.3737092 -0.37133247 0.20235573
v -0.4191049 -0.36970034 0.24506456
v -0.33163893 -0.35121733 0.29181534
v -0.39310402 -0.3572685 0.30035365
v -0.4191049 -0.36970034 0.24506456
v -0.34810182 -0.31456748 0.1992772
v -0.32210097 -0.30213565 0.25456625
v -0.409567 -0.32061866 0.20781554
v -0.3674967 -0.30050355 0.29727516
v -0.4215536 -0.31192666 0.2683816
v -0.409567 -0.32061866 0.20781554
v -0.3776713 -0.2778527 0.24008343
v -0.34716746 -0.3402468 0.23387048
v -0.2637094 -0.32423884 0.20316795
v -0.26701993 -0.33733532 0.19513555
v -0.34395984 -0.3275573 0.24165325
v -0.18687241 -0.3344238 0.15640062
v -0.183459 -0.32092044 0.16468266
v -0.11038203 -0.317898 0.1296365
v -0.11358966 -0.33058754 0.12185371
v -0.0019359887 0.13743772 0.007814405
v -0.011369386 -0.057188615 0.018205607
v -0.046125088 0.12950389 -0.0074278614
v 0.015311186 -0.052398283 0.027408607
v -0.003122754 -0.17085268 0.039884992
v 0.031693812 -0.16460156 0.051894348
v 0.025109055 -0.055680104 7.1166456E-4
v 0.014291502 0.13200234 -0.036401805
v 0.04447945 -0.16888414 0.01705643
v -0.029897591 0.12406845 -0.05164407
v -0.0015715235 -0.060470436 -0.008491346
v 0.009662885 -0.17513524 0.005047066
v -0.027391732 0.22501738 -0.037713956
v 0.014472878 0.18986835 -0.049498357
v -0.005616622 0.19659738 0.005240924
v -0.06032233 0.1867753 -0.013628868
v 0.01696423 0.15306707 -0.042395152
v -0.0020624106 0.15944009 0.0094480775
v 0.009238609 0.13021775 -0.033624314
v -0.0041720117 0.1347096 0.0029166054
v -0.053873844 0.15013766 -0.008423379
v -0.040690508 0.12815298 -0.009679837
v -0.040232845 0.18004629 -0.068368144
v -0.03484721 0.14376464 -0.060266607
v -0.027279876 0.12366101 -0.04622072
v 0.42098373 -0.30405316 -0.13550691
v 0.3439412 -0.2946825 -0.08923828
v 0.3406307 -0.30777895 -0.0972707
v 0.42419136 -0.29136366 -0.12772414
v 0.2602777 -0.31150472 -0.059034456
v 0.26369107 -0.29800135 -0.05075242
v 0.19061354 -0.30102292 -0.015707364
v 0.1874059 -0.31371245 -0.023490142
v -0.34770378 -0.33584112 0.23313206
v -0.26424572 -0.3198332 0.20242956
v -0.34449616 -0.32315162 0.24091484
v -0.26755625 -0.33292964 0.19439714
v -0.18740869 -0.33001816 0.15566221
v -0.1839953 -0.31651476 0.16394424
v -0.11091833 -0.31349236 0.12889808
v -0.11412595 -0.32618186 0.1211153
v 0.014291502 0.13200234 -0.036401805
v -0.0019359887 0.13743772 0.007814405
v -0.029897591 0.12406845 -0.05164407
v -0.046125088 0.12950389 -0.0074278614
vn -0.19945844 -0.84909874 -0.4891296
vn 0.7214251 -0.6660594 -0.18950106
vn 0.238597 -0.62131304 -0.74635226
vn 0.11920092 -0.9792117 0.16412032
vn 0.90104824 0.037261657 -0.43211535
vn 0.3692542 -0.1097203 -0.92282873
vn 0.55284935 0.7187553 -0.42160234
vn 0.11597577 0.38599524 -0.9151815
vn -0.11920101 0.9792117 -0.16412042
vn -0.3728709 0.5754502 -0.72789043
vn -0.5528495 -0.7187551 0.42160228
vn -0.68830496 -0.6596437 -0.30183843
vn -0.90104824 -0.037261426 0.43211523
vn -0.9415833 -0.16392812 -0.29419118
vn -0.7214251 0.6660595 0.18950097
vn -0.8109262 0.34766462 -0.4706677
vn 0.37287092 -0.57545006 0.7278905
vn 0.81092626 -0.3476643 0.47066772
vn 0.9415833 0.16392824 0.29419115
vn 0.68830484 0.6596439 0.30183822
vn 0.19945826 0.8490988 0.48912942
vn -0.11597577 -0.385995 0.91518164
vn -0.3692542 0.109720476 0.92282873
vn -0.23859699 0.62131315 0.746352
vn -0.3728709 0.5754502 -0.72789043
vn -0.41701686 -0.19938894 -0.88675874
vn 0.11597577 0.38599524 -0.9151815
vn 0.3692542 -0.1097203 -0.92282873
vn 0.238597 -0.62131304 -0.74635226
vn -0.19945844 -0.84909874 -0.4891296
vn -0.8109262 0.34766462 -0.4706677
vn -0.9415833 -0.16392812 -0.29419118
vn -0.68830496 -0.6596437 -0.30183843
vn 0.19945826 0.8490988 0.48912942
vn 0.68830484 0.6596439 0.30183822
vn 0.41701683 0.19938894 0.88675874
vn 0.9415833 0.16392824 0.29419115
vn 0.81092626 -0.3476643 0.47066772
vn 0.37287092 -0.57545006 0.7278905
vn -0.23859699 0.62131315 0.746352
vn -0.3692542 0.109720476 0.92282873
vn -0.11597577 -0.385995 0.91518164
vn 0.119201384 -0.9792117 0.16412026
vn -0.5504712 -0.6178258 -0.56149155
vn -0.7526137 -0.47124448 0.4598926
vn 0.4860744 -0.51577914 -0.70548105
vn 0.15900029 -0.2786049 0.94715273
vn 0.92455155 -0.3061294 0.2269125
vn 0.4860744 -0.51577914 -0.70548105
vn -0.92455167 0.30612934 -0.22691193
vn -0.48607415 0.5157794 0.7054811
vn -0.15899993 0.27860552 -0.94715255
vn 0.55047137 0.61782587 0.5614912
vn 0.75261414 0.47124434 -0.45989206
vn -0.15899993 0.27860552 -0.94715255
vn -0.119201064 0.9792117 -0.16412017
vn 0.37913564 -0.5515415 0.7430061
vn 0.37913537 -0.5515429 0.7430054
vn 0.3791356 -0.55154145 0.74300617
vn 0.37913537 -0.5515429 0.7430054
vn 0.3791294 -0.5515439 0.74300754
vn 0.37912944 -0.55154383 0.7430076
vn 0.3791238 -0.55154353 0.7430107
vn 0.3791238 -0.55154353 0.7430107
vn 0.11920119 -0.9792117 0.16412029
vn 0.8592304 -0.40458888 -0.3130989
vn -0.052384034 -0.5972281 -0.80035895
vn -0.8179352 -0.56970435 -0.08011808
vn 0.6570875 -0.25800765 0.7082852
vn -0.37945735 -0.36005485 0.852275
vn -0.8179352 -0.56970435 -0.08011808
vn 0.37945732 0.36005464 -0.8522751
vn 0.81793505 0.56970453 0.080118224
vn -0.657088 0.25800794 -0.70828474
vn 0.052383557 0.59722805 0.80035895
vn -0.8592302 0.4045892 0.31309915
vn -0.657088 0.25800794 -0.70828474
vn -0.1192008 0.9792117 -0.16412038
vn 0.37912858 -0.5515415 0.74300975
vn 0.3791282 -0.5515428 0.743009
vn 0.37912825 -0.5515428 0.7430089
vn 0.37912858 -0.5515415 0.74300975
vn 0.37913367 -0.55154353 0.74300563
vn 0.37913367 -0.55154353 0.74300563
vn 0.37913942 -0.5515429 0.74300313
vn 0.37913948 -0.55154294 0.7430031
vn 0.42427695 0.13102905 0.89600253
vn -0.90002745 -0.04539059 0.43346298
vn -0.8906176 -0.105052136 0.44245252
vn 0.4179922 0.19125177 0.8880908
vn -0.9061144 0.014894791 0.4227704
vn 0.41008332 0.25121015 0.87676966
vn 0.902007 0.029129973 -0.43073764
vn 0.9071438 -0.030708283 -0.41969892
vn 0.8934292 0.0893124 -0.4402357
vn -0.4077505 -0.2667894 -0.8732485
vn -0.4160128 -0.20751242 -0.8853654
vn -0.42276892 -0.14700301 -0.89423525
vn -0.11920089 0.9792117 -0.16412024
vn 0.8137422 0.35269648 -0.4619836
vn 0.35585165 0.5060679 0.78566206
vn -0.89102894 0.28219795 0.3555725
vn 0.9033062 -0.19898418 -0.38005692
vn 0.43343925 -0.041601468 0.900222
vn 0.8576056 -0.4094383 -0.3112443
vn 0.42585862 -0.26482403 0.86516625
vn -0.84605443 -0.27132657 0.45888308
vn -0.74983054 -0.47591147 0.45963293
vn -0.43313867 0.12882687 -0.89207315
vn -0.3761876 -0.42870963 -0.8213958
vn -0.31808364 -0.6205264 -0.7167773
vn -0.3791356 0.55154216 -0.74300563
vn -0.3791352 0.5515435 -0.7430049
vn -0.37913513 0.55154335 -0.743005
vn -0.37913558 0.55154216 -0.74300563
vn -0.3791292 0.55154413 -0.7430074
vn -0.3791292 0.55154413 -0.74300754
vn -0.37912357 0.5515436 -0.7430107
vn -0.37912354 0.5515436 -0.7430107
vn -0.37912828 0.55154216 -0.7430094
vn -0.37912804 0.55154335 -0.7430087
vn -0.37912828 0.55154216 -0.7430094
vn -0.37912804 0.55154335 -0.7430087
vn -0.37913364 0.55154365 -0.7430056
vn -0.37913364 0.55154365 -0.7430056
vn -0.37913948 0.55154276 -0.74300325
vn -0.37913954 0.55154276 -0.74300325
vn -0.11920139 0.9792118 -0.16411938
vn -0.11920139 0.9792118 -0.16411938
vn -0.119201384 0.9792118 -0.1641194
vn -0.1192001 0.9792119 -0.16412003
vt 0.6167697 0.39276552
vt 0.9802507 0.53893435
vt 0.6167697 0.53893435
vt 0.98025084 0.39276552
vt 0.9802507 0.6851033
vt 0.6167697 0.6851033
vt 0.9802507 0.83127207
vt 0.6167696 0.83127207
vt 0.9802507 0.97744083
vt 0.6167696 0.97744083
vt 0.9802507 0.53893435
vt 0.6167697 0.53893435
vt 0.9802507 0.6851033
vt 0.6167697 0.6851033
vt 0.9802507 0.83127207
vt 0.6167696 0.83127207
vt 0.6167697 0.39276552
vt 0.6167697 0.53893435
vt 0.6167697 0.6851033
vt 0.6167696 0.83127207
vt 0.6167696 0.97744083
vt 0.6167697 0.53893435
vt 0.6167697 0.6851033
vt 0.6167696 0.83127207
vt 0.024482418 0.6047831
vt 0.024482504 0.3113215
vt 0.45644706 0.5188302
vt 0.6353725 0.31132138
vt 0.45644695 0.103812575
vt 0.024482558 0.017859638
vt 0.45644706 0.5188302
vt 0.6353725 0.31132138
vt 0.45644695 0.103812575
vt 0.024482418 0.6047831
vt 0.45644706 0.5188302
vt 0.024482504 0.3113215
vt 0.6353725 0.31132138
vt 0.45644695 0.103812575
vt 0.024482558 0.017859638
vt 0.45644706 0.5188302
vt 0.6353725 0.31132138
vt 0.45644695 0.103812575
vt 0.28886017 0.57850295
vt 0.47215086 0.61701953
vt 0.36534867 0.62645054
vt 0.565496 0.59402907
vt 0.24584822 0.6369386
vt 0.13565901 0.64473593
vt 0.049875997 0.6367321
vt 0.4782822 0.68216777
vt 0.3942209 0.6903169
vt 0.5764094 0.6833611
vt 0.27878246 0.7004567
vt 0.16559534 0.7073464
vt 0.079555675 0.7253461
vt 0.34945583 0.7495912
vt 0.016821789 0.98518115
vt 0.06949526 0.9089688
vt 0.06949526 0.98518115
vt 0.016821789 0.9089688
vt 0.016821789 0.8212102
vt 0.06949526 0.8212102
vt 0.06949526 0.7438364
vt 0.016821789 0.7438364
vt 0.28886017 0.57850295
vt 0.36534867 0.62645054
vt 0.47215086 0.61701953
vt 0.565496 0.59402907
vt 0.24584822 0.6369386
vt 0.13565901 0.64473593
vt 0.049875997 0.6367321
vt 0.4782822 0.68216777
vt 0.3942209 0.6903169
vt 0.5764094 0.6833611
vt 0.27878246 0.7004567
vt 0.16559534 0.7073464
vt 0.079555675 0.7253461
vt 0.34945583 0.7495912
vt 0.016821789 0.98518115
vt 0.06949526 0.9089688
vt 0.016821789 0.9089688
vt 0.06949526 0.98518115
vt 0.016821789 0.8212102
vt 0.06949526 0.8212102
vt 0.06949526 0.7438364
vt 0.016821789 0.7438364
vt 0.69609576 0.3629496
vt 0.9637793 0.14255953
vt 0.9637793 0.3629496
vt 0.69609576 0.14255953
vt 0.9637793 0.024785697
vt 0.69609576 0.024785697
vt 0.9637793 0.14255953
vt 0.9637793 0.3629496
vt 0.9637793 0.024785697
vt 0.69609576 0.3629496
vt 0.69609576 0.14255953
vt 0.69609576 0.024785697
vt 0.10389071 0.8742728
vt 0.27176195 0.77887625
vt 0.27176192 0.8742728
vt 0.27176192 0.9739654
vt 0.4396107 0.778047
vt 0.4396107 0.8742728
vt 0.54490495 0.80134624
vt 0.54490495 0.8742728
vt 0.43961066 0.97443324
vt 0.5449049 0.94532233
vt 0.27176192 0.8742728
vt 0.4396107 0.8742728
vt 0.54490495 0.8742728
vt 0.016821789 0.98518115
vt 0.06949526 0.9089688
vt 0.016821789 0.9089688
vt 0.06949526 0.98518115
vt 0.016821789 0.8212102
vt 0.06949526 0.8212102
vt 0.06949526 0.7438364
vt 0.016821789 0.7438364
vt 0.016821789 0.98518115
vt 0.06949526 0.9089688
vt 0.06949526 0.98518115
vt 0.016821789 0.9089688
vt 0.016821789 0.8212102
vt 0.06949526 0.8212102
vt 0.06949526 0.7438364
vt 0.016821789 0.7438364
vt 0.9637793 0.3629496
vt 0.69609576 0.3629496
vt 0.69609576 0.3629496
vt 0.9637793 0.3629496

g w_0
s 1
usemtl w_0
f 3/3/3 2/2/2 1/1/1 
f 2/2/2 4/4/4 1/1/1 
f 5/5/5 2/2/2 3/3/3 
f 6/6/6 5/5/5 3/3/3 
f 7/7/7 5/5/5 6/6/6 
f 8/8/8 7/7/7 6/6/6 
f 9/9/9 7/7/7 8/8/8 
f 10/10/10 9/9/9 8/8/8 
f 4/4/4 11/11/11 1/1/1 
f 11/11/11 12/12/12 1/1/1 
f 11/11/11 13/13/13 12/12/12 
f 13/13/13 14/14/14 12/12/12 
f 13/13/13 15/15/15 14/14/14 
f 15/15/15 16/16/16 14/14/14 
f 15/15/15 9/9/9 16/16/16 
f 9/9/9 10/10/10 16/16/16 
f 4/4/4 2/2/2 17/17/17 
f 11/11/11 4/4/4 17/17/17 
f 2/2/2 18/18/18 17/17/17 
f 2/2/2 5/5/5 18/18/18 
f 5/5/5 19/19/19 18/18/18 
f 5/5/5 7/7/7 19/19/19 
f 7/7/7 20/20/20 19/19/19 
f 7/7/7 9/9/9 20/20/20 
f 9/9/9 21/21/21 20/20/20 
f 22/22/22 11/11/11 17/17/17 
f 13/13/13 11/11/11 22/22/22 
f 23/23/23 13/13/13 22/22/22 
f 15/15/15 13/13/13 23/23/23 
f 24/24/24 15/15/15 23/23/23 
f 21/21/21 9/9/9 24/24/24 
f 9/9/9 15/15/15 24/24/24 
f 27/27/27 26/26/26 25/25/25 
f 28/28/28 26/26/26 27/27/27 
f 29/29/29 26/26/26 28/28/28 
f 30/30/30 26/26/26 29/29/29 
f 26/26/26 31/31/31 25/25/25 
f 26/26/26 32/32/32 31/31/31 
f 26/26/26 33/33/33 32/32/32 
f 26/26/26 30/30/30 33/33/33 
f 36/36/36 35/35/35 34/34/34 
f 36/36/36 37/37/37 35/35/35 
f 36/36/36 38/38/38 37/37/37 
f 36/36/36 39/39/39 38/38/38 
f 40/40/40 36/36/36 34/34/34 
f 41/41/41 36/36/36 40/40/40 
f 42/42/42 36/36/36 41/41/41 
f 39/39/39 36/36/36 42/42/42 
f 45/45/45 44/44/44 43/43/43 
f 44/44/44 46/46/46 43/43/43 
f 47/47/47 45/45/45 43/43/43 
f 48/48/48 47/47/47 43/43/43 
f 49/49/49 48/48/48 43/43/43 
f 44/44/44 45/45/45 50/50/50 
f 51/51/51 50/50/50 45/45/45 
f 45/45/45 47/47/47 51/51/51 
f 50/50/50 52/52/52 44/44/44 
f 46/46/46 44/44/44 52/52/52 
f 53/53/53 51/51/51 47/47/47 
f 47/47/47 48/48/48 53/53/53 
f 54/54/54 53/53/53 48/48/48 
f 48/48/48 49/49/49 54/54/54 
f 55/55/55 54/54/54 49/49/49 
f 52/52/52 50/50/50 56/56/56 
f 54/54/54 55/55/55 56/56/56 
f 53/53/53 54/54/54 56/56/56 
f 51/51/51 53/53/53 56/56/56 
f 50/50/50 51/51/51 56/56/56 
f 59/59/59 58/58/58 57/57/57 
f 58/58/58 60/60/60 57/57/57 
f 61/61/61 60/60/60 58/58/58 
f 62/62/62 61/61/61 58/58/58 
f 62/62/62 63/63/63 61/61/61 
f 63/63/63 64/64/64 61/61/61 
f 67/67/67 66/66/66 65/65/65 
f 68/68/68 67/67/67 65/65/65 
f 66/66/66 69/69/69 65/65/65 
f 69/69/69 70/70/70 65/65/65 
f 70/70/70 71/71/71 65/65/65 
f 66/66/66 67/67/67 72/72/72 
f 72/72/72 73/73/73 66/66/66 
f 69/69/69 66/66/66 73/73/73 
f 74/74/74 72/72/72 67/67/67 
f 67/67/67 68/68/68 74/74/74 
f 73/73/73 75/75/75 69/69/69 
f 70/70/70 69/69/69 75/75/75 
f 75/75/75 76/76/76 70/70/70 
f 71/71/71 70/70/70 76/76/76 
f 76/76/76 77/77/77 71/71/71 
f 72/72/72 74/74/74 78/78/78 
f 77/77/77 76/76/76 78/78/78 
f 76/76/76 75/75/75 78/78/78 
f 75/75/75 73/73/73 78/78/78 
f 73/73/73 72/72/72 78/78/78 
f 81/81/81 80/80/80 79/79/79 
f 80/80/80 82/82/82 79/79/79 
f 81/81/81 83/83/83 80/80/80 
f 83/83/83 84/84/84 80/80/80 
f 85/85/85 84/84/84 83/83/83 
f 86/86/86 85/85/85 83/83/83 
f 89/89/89 88/88/88 87/87/87 
f 88/88/88 90/90/90 87/87/87 
f 88/88/88 91/91/91 90/90/90 
f 91/91/91 92/92/92 90/90/90 
f 90/90/90 93/93/93 87/87/87 
f 93/93/93 94/94/94 87/87/87 
f 92/92/92 95/95/95 90/90/90 
f 95/95/95 93/93/93 90/90/90 
f 88/88/88 89/89/89 96/96/96 
f 94/94/94 93/93/93 96/96/96 
f 97/97/97 88/88/88 96/96/96 
f 91/91/91 88/88/88 97/97/97 
f 93/93/93 97/97/97 96/96/96 
f 93/93/93 95/95/95 97/97/97 
f 98/98/98 91/91/91 97/97/97 
f 95/95/95 98/98/98 97/97/97 
f 101/101/101 100/100/100 99/99/99 
f 102/102/102 101/101/101 99/99/99 
f 103/103/103 100/100/100 101/101/101 
f 104/104/104 103/103/103 101/101/101 
f 104/104/104 101/101/101 102/102/102 
f 105/105/105 103/103/103 104/104/104 
f 106/106/106 105/105/105 104/104/104 
f 106/106/106 104/104/104 107/107/107 
f 107/107/107 104/104/104 102/102/102 
f 108/108/108 106/106/106 107/107/107 
f 100/100/100 109/109/109 99/99/99 
f 109/109/109 102/102/102 99/99/99 
f 100/100/100 103/103/103 109/109/109 
f 103/103/103 105/105/105 110/110/110 
f 103/103/103 110/110/110 109/109/109 
f 109/109/109 110/110/110 102/102/102 
f 110/110/110 107/107/107 102/102/102 
f 105/105/105 111/111/111 110/110/110 
f 110/110/110 111/111/111 107/107/107 
f 111/111/111 108/108/108 107/107/107 
f 114/114/114 113/113/113 112/112/112 
f 113/113/113 115/115/115 112/112/112 
f 114/114/114 116/116/116 113/113/113 
f 116/116/116 117/117/117 113/113/113 
f 118/118/118 117/117/117 116/116/116 
f 119/119/119 118/118/118 116/116/116 
f 122/122/122 121/121/121 120/120/120 
f 121/121/121 123/123/123 120/120/120 
f 124/124/124 123/123/123 121/121/121 
f 125/125/125 124/124/124 121/121/121 
f 125/125/125 126/126/126 124/124/124 
f 126/126/126 127/127/127 124/124/124 
f 130/130/130 129/129/129 128/128/128 
f 131/131/131 129/129/129 130/130/130 

