# Created by DisUnity v0.3.4
v -2.1312294 -0.3891389 -0.026805649
v -1.1325225 -0.5345888 0.17399898
v -1.5093985 -0.65456295 -0.01627304
v -0.8479403 -0.8300952 -0.027156038
v -0.039468817 -0.53054476 0.18855347
v 0.025986098 -0.828551 -0.03504959
v 0.8766343 -0.40557048 0.06919472
v 0.70245343 -0.705625 -0.044100266
v 1.5618125 -0.30337593 -0.07638779
v 1.2134324 -0.5361164 -0.05668588
v -1.2922177 -0.076375395 0.2810989
v -2.5078728 -0.08608247 -0.16472593
v -0.10548699 -0.03730165 0.3188341
v 1.0467194 -0.0071826554 0.058635958
v 1.7894332 0.0 -0.093093954
v -1.0460043 0.4235319 0.0342935
v -1.9695159 0.31569022 -0.20351833
v -0.07002607 0.49959826 -0.0053685475
v 0.8921858 0.419066 -0.026263962
v 1.5451294 0.29867515 -0.12719814
v -0.7740927 0.72065747 -0.3016587
v -1.4331979 0.57143307 -0.25463557
v -0.0 0.7779053 -0.2982077
v 0.6144812 0.7142035 -0.24071799
v 1.0946265 0.56544 -0.17742234
vn -0.3200239 -0.1087432 0.94114804
vn -0.118358284 -0.45095384 0.88466483
vn -0.22279203 -0.56268436 0.79608417
vn -0.042301502 -0.5958277 0.8019975
vn 0.09522899 -0.4127942 0.9058324
vn 0.09205033 -0.5662594 0.8190708
vn 0.18807846 -0.26127076 0.946765
vn 0.11917336 -0.3948978 0.9109629
vn 0.21585482 -0.14568938 0.96549535
vn -0.0068247966 0.09448693 0.99550277
vn -0.1879037 0.14006497 0.97214913
vn -0.32291886 0.27131686 0.9067031
vn 0.06344419 0.13048325 0.98941857
vn 0.19610538 0.09519573 0.9759511
vn 0.20500162 0.08959006 0.9746527
vn -0.1413836 0.64561504 0.7504612
vn -0.25905973 0.48894462 0.8329593
vn 0.0068219276 0.61966836 0.7848341
vn 0.1528638 0.46895185 0.86989474
vn 0.19775814 0.30509356 0.93156296
vn -0.101162516 0.7702531 0.62966365
vn 0.049390677 0.09514849 0.99423707
vn -0.01162513 0.73173374 0.68149143
vn 0.06434364 0.65108865 0.75626945
vn 0.17856275 0.57647187 0.7973679
vt 0.08805832 0.7255478
vt 0.3202292 0.8159115
vt 0.23261628 0.8904476
vt 0.3863864 0.9995005
vt 0.57433295 0.8133992
vt 0.5895493 0.9985413
vt 0.7873007 0.73575664
vt 0.74680865 0.92217124
vt 0.9465851 0.6722664
vt 0.86559665 0.81686085
vt 0.28310463 0.5312376
vt 4.995167E-4 0.5372681
vt 0.55898565 0.5069624
vt 0.82684076 0.4882506
vt 0.99950045 0.4837883
vt 0.34034225 0.22066057
vt 0.12565216 0.28765917
vt 0.56722933 0.17340302
vt 0.7909161 0.2234354
vt 0.9427068 0.29823065
vt 0.40355396 0.036065698
vt 0.2503308 0.12877405
vt 0.5835084 4.994869E-4
vt 0.7263577 0.04007554
vt 0.83797777 0.13249779

g yezi
s 1
usemtl yezi
f 3/3/3 2/2/2 1/1/1 
f 2/2/2 3/3/3 4/4/4 
f 4/4/4 5/5/5 2/2/2 
f 5/5/5 4/4/4 6/6/6 
f 6/6/6 7/7/7 5/5/5 
f 7/7/7 6/6/6 8/8/8 
f 8/8/8 9/9/9 7/7/7 
f 9/9/9 8/8/8 10/10/10 
f 11/11/11 1/1/1 2/2/2 
f 1/1/1 11/11/11 12/12/12 
f 2/2/2 13/13/13 11/11/11 
f 13/13/13 2/2/2 5/5/5 
f 5/5/5 14/14/14 13/13/13 
f 14/14/14 5/5/5 7/7/7 
f 7/7/7 15/15/15 14/14/14 
f 15/15/15 7/7/7 9/9/9 
f 16/16/16 12/12/12 11/11/11 
f 12/12/12 16/16/16 17/17/17 
f 11/11/11 18/18/18 16/16/16 
f 18/18/18 11/11/11 13/13/13 
f 13/13/13 19/19/19 18/18/18 
f 19/19/19 13/13/13 14/14/14 
f 14/14/14 20/20/20 19/19/19 
f 20/20/20 14/14/14 15/15/15 
f 21/21/21 17/17/17 16/16/16 
f 17/17/17 21/21/21 22/22/22 
f 16/16/16 23/23/23 21/21/21 
f 23/23/23 16/16/16 18/18/18 
f 18/18/18 24/24/24 23/23/23 
f 24/24/24 18/18/18 19/19/19 
f 19/19/19 25/25/25 24/24/24 
f 25/25/25 19/19/19 20/20/20 

