# Created by DisUnity v0.3.4
v 0.11784378 9.944142E-10 0.26051506
v 0.052024 9.944142E-10 0.16353771
v 0.05864967 -0.025604628 0.26102018
v 0.06819023 9.944142E-10 0.17393032
v 0.06934501 -0.01828404 0.3145845
v -0.0 -0.04828202 0.31568518
v -0.0 -0.048278075 0.26151404
v 0.052024 9.944142E-10 0.16353771
v -0.0 -0.03978904 0.15416138
v -0.0 -0.03926731 -0.14793113
v 0.052048873 2.0994415E-8 -0.15978782
v 0.06934501 2.0994415E-8 -0.18981095
v -0.0 -0.03910282 -0.24895507
v 0.07280922 2.0994415E-8 -0.16671623
v 0.09243965 2.0994415E-8 -0.20366774
v 0.046048734 2.0994415E-8 -0.26323417
v -0.0 2.0994415E-8 -0.29641655
v -0.0 0.03910286 -0.24895507
v -0.0 0.03926735 -0.14793113
v 0.07280922 2.0994415E-8 -0.16671623
v -0.0 -0.03910282 -0.24895507
v -0.046048734 2.0994415E-8 -0.26323417
v -0.09243965 2.0994415E-8 -0.20366774
v -0.0 0.03910286 -0.24895507
v -0.06934501 2.0994415E-8 -0.18981095
v -0.0 -0.03926731 -0.14793113
v -0.07280922 2.0994415E-8 -0.16671623
v -0.0 0.03926735 -0.14793113
v -0.07280922 2.0994415E-8 -0.16671623
v -0.052048873 2.0994415E-8 -0.15978782
v -0.0 -0.03978904 0.15416138
v -0.052024 9.944142E-10 0.16353771
v -0.0 -0.048278075 0.26151404
v -0.058649633 -0.025604628 0.26102018
v -0.11784378 9.944142E-10 0.26051506
v -0.06934501 -0.01828404 0.3145845
v -0.0 -0.04828202 0.31568518
v -0.052024 9.944142E-10 0.16353771
v -0.06819023 9.944142E-10 0.17393032
v -0.058649633 0.025604632 0.26102018
v -0.06934501 0.01828403 0.3145845
v -0.0 0.04828202 0.31568518
v -0.0 0.048278082 0.26151404
v -0.052024 9.944142E-10 0.16353771
v -0.0 0.03978905 0.15416138
v -0.052048873 2.0994415E-8 -0.15978782
v -0.0 -0.03926731 -0.14793113
v 0.052048873 2.0994415E-8 -0.15978782
v 0.07280922 2.0994415E-8 -0.16671623
v -0.07280922 2.0994415E-8 -0.16671623
v -0.052048873 2.0994415E-8 -0.15978782
v 0.052024 9.944142E-10 0.16353771
v 0.11784378 9.944142E-10 0.26051506
v 0.05864967 0.025604632 0.26102018
v 0.052024 9.944142E-10 0.16353771
v 0.06819023 9.944142E-10 0.17393032
v 0.11784378 9.944142E-10 0.26051506
v 0.06934501 0.01828403 0.3145845
v 0.05864967 0.025604632 0.26102018
v -0.0 0.04828202 0.31568518
v -0.0 0.048278082 0.26151404
v 0.052024 9.944142E-10 0.16353771
v -0.0 0.03978905 0.15416138
v 0.052048873 2.0994415E-8 -0.15978782
v -0.0 0.03926735 -0.14793113
v 0.07280922 2.0994415E-8 -0.16671623
v 0.052048873 2.0994415E-8 -0.15978782
v -0.052048873 2.0994415E-8 -0.15978782
v -0.07280922 2.0994415E-8 -0.16671623
v -0.0 0.04828202 0.31568518
v 0.06934501 -0.01828404 0.3145845
v -0.0 -0.04828202 0.31568518
v 0.06934501 0.01828403 0.3145845
v -0.06934501 -0.01828404 0.3145845
v -0.06934501 0.01828403 0.3145845
v 0.11784378 9.944142E-10 0.26051506
v -0.11784378 9.944142E-10 0.26051506
v -0.0 -0.016308978 1.0254707
v -0.0 -3.9005585E-8 1.1183512
v 0.064470366 -2.9005585E-8 1.025336
v -0.0 0.01629395 1.025556
v -0.0 -0.03457186 0.289897
v 0.064470366 9.944142E-10 0.289897
v -0.0 0.03457186 0.289897
v -0.0644704 -2.9005585E-8 1.025336
v -0.0 -3.9005585E-8 1.1183512
v -0.0 -0.016308978 1.0254707
v -0.0 0.01629395 1.025556
v -0.0 -0.03457186 0.289897
v -0.0644704 -2.9005585E-8 1.025336
v -0.0644704 9.944142E-10 0.289897
v -0.0 0.03457186 0.289897
vn 0.8120044 -0.5784034 0.078091525
vn 0.9027083 -0.42433915 -0.07109298
vn 0.38048518 -0.9178466 -0.11308613
vn -0.0 -1.0 0.0
vn 0.4692751 -0.5181271 0.71507
vn -0.0 -0.7698567 0.63821673
vn -1.00027876E-7 -0.99463487 -0.10344807
vn 0.5315191 -0.8369806 -0.13019532
vn 2.7443044E-4 -0.999318 -0.036926165
vn 2.8569996E-4 -0.99884725 0.048000786
vn 0.5678931 0.0 0.82310224
vn 0.9344498 0.0 0.3560949
vn -0.0 -0.9470875 -0.3209755
vn 0.93686116 0.0 0.34970158
vn 0.9668775 0.0 0.25524086
vn 0.71625006 0.0 -0.6978437
vn -0.0 0.0 -1.0
vn -0.0 0.9470875 -0.3209755
vn 2.856985E-4 0.99884725 0.048000846
vn 0.93686116 0.0 0.34970158
vn -0.0 -0.9470875 -0.3209755
vn -0.71625006 0.0 -0.6978437
vn -0.9668775 0.0 0.25524086
vn -0.0 0.9470875 -0.3209755
vn -0.9344498 0.0 0.3560949
vn 2.8569996E-4 -0.99884725 0.048000786
vn -0.93686116 0.0 0.34970158
vn 2.856985E-4 0.99884725 0.048000846
vn -0.93686116 0.0 0.34970158
vn -0.56836724 0.0 0.82277507
vn 2.7443044E-4 -0.999318 -0.036926165
vn -0.54156214 -0.8346561 -0.100297675
vn -1.00027876E-7 -0.99463487 -0.10344807
vn -0.38048515 -0.9178466 -0.11308616
vn -0.99818724 -0.0035160973 -0.060082167
vn -0.4692751 -0.51812714 0.71507
vn -0.0 -0.7698567 0.63821673
vn -0.27376008 0.86238575 -0.4258477
vn -0.65671784 -0.15000832 -0.7390664
vn -0.3752166 0.9209791 -0.10492886
vn -0.4692751 0.5181271 0.71507
vn -0.0 0.76985663 0.63821685
vn -1.0002788E-7 0.99463487 -0.10344797
vn -0.56895655 0.81944895 -0.06922382
vn 2.7444225E-4 0.999318 -0.03692609
vn -0.56836724 0.0 0.82277507
vn 2.8569996E-4 -0.99884725 0.048000786
vn 0.5678931 0.0 0.82310224
vn 0.93686116 0.0 0.34970158
vn -0.93686116 0.0 0.34970158
vn -0.56836724 0.0 0.82277507
vn 0.38159606 0.88730294 -0.25899413
vn 0.38159606 0.88730294 -0.25899413
vn 0.38159603 0.88730294 -0.2589941
vn -0.0 1.0 0.0
vn -0.0 1.0 0.0
vn -0.0 1.0 0.0
vn 0.46927515 0.518127 0.71507007
vn 0.3783142 0.92337275 -0.065276824
vn -0.0 0.76985663 0.63821685
vn -1.0002788E-7 0.99463487 -0.10344797
vn 0.53151923 0.8369806 -0.13019529
vn 2.7444225E-4 0.999318 -0.03692609
vn 0.5678931 0.0 0.82310224
vn 2.856985E-4 0.99884725 0.048000846
vn 0.93686116 0.0 0.34970158
vn 0.5678931 0.0 0.82310224
vn -0.56836724 0.0 0.82277507
vn -0.93686116 0.0 0.34970158
vn -0.0 0.76985663 0.63821685
vn 0.4692751 -0.5181271 0.71507
vn -0.0 -0.7698567 0.63821673
vn 0.46927515 0.518127 0.71507007
vn -0.4692751 -0.51812714 0.71507
vn -0.4692751 0.5181271 0.71507
vn 0.8120044 -0.5784034 0.078091525
vn -0.99818724 -0.0035160973 -0.060082167
vn -0.0 -0.9951742 0.09812346
vn 2.476572E-7 -1.415184E-7 1.0
vn 0.96103036 0.0048348107 0.27640086
vn 0.0038806945 0.9957163 0.09238038
vn 1.5070492E-7 -0.9999988 0.0015661743
vn 0.99973124 0.0068313554 0.022155015
vn 0.0069079925 0.9998895 0.01316021
vn -0.82187915 -0.0021473602 0.5696578
vn 2.476572E-7 -1.415184E-7 1.0
vn -0.0 -0.9951742 0.09812346
vn 0.0038806945 0.9957163 0.09238038
vn 1.5070492E-7 -0.9999988 0.0015661743
vn -0.9962399 0.0016017688 0.08662314
vn -1.0 0.0 0.0
vn 0.0069079925 0.9998895 0.01316021
vt 0.479913 0.18089801
vt 0.226599 0.34920502
vt 0.252098 0.180183
vt 0.288816 0.334498
vt 0.293261 0.095927
vt 0.029391 0.020761013
vt 0.029391 0.17948401
vt 0.226599 0.34920502
vt 0.029391 0.362473
vt 0.029391 0.78996
vt 0.279928 0.806738
vt 0.293261 0.849223
vt 0.029391 0.932917
vt 0.306593 0.816542
vt 0.382143 0.868832
vt 0.203602 0.953124
vt 0.029391 1.000079
vt 0.029391 0.932917
vt 0.029391 0.78996
vt 0.306593 0.816542
vt 0.029391 0.932917
vt 0.203602 0.953124
vt 0.382143 0.868832
vt 0.029391 0.932917
vt 0.293261 0.849223
vt 0.029391 0.78996
vt 0.306593 0.816542
vt 0.029391 0.78996
vt 0.306593 0.816542
vt 0.279928 0.806738
vt 0.029391 0.362473
vt 0.226599 0.34920502
vt 0.029391 0.17948401
vt 0.252098 0.180183
vt 0.479913 0.18089801
vt 0.293261 0.095927
vt 0.029391 0.020761013
vt 0.226599 0.34920502
vt 0.288816 0.334498
vt 0.252098 0.180183
vt 0.293261 0.095927
vt 0.029391 0.020761013
vt 0.029391 0.17948401
vt 0.226599 0.34920502
vt 0.029391 0.362473
vt 0.279928 0.806738
vt 0.029391 0.78996
vt 0.279928 0.806738
vt 0.306593 0.816542
vt 0.306593 0.816542
vt 0.279928 0.806738
vt 0.226599 0.34920502
vt 0.479913 0.18089801
vt 0.252098 0.180183
vt 0.226599 0.34920502
vt 0.288816 0.334498
vt 0.479913 0.18089801
vt 0.293261 0.095927
vt 0.252098 0.180183
vt 0.029391 0.020761013
vt 0.029391 0.17948401
vt 0.226599 0.34920502
vt 0.029391 0.362473
vt 0.279928 0.806738
vt 0.029391 0.78996
vt 0.306593 0.816542
vt 0.279928 0.806738
vt 0.279928 0.806738
vt 0.306593 0.816542
vt 0.048307 0.021475017
vt 0.052706 0.022632003
vt 0.048307 0.021475017
vt 0.052706 0.022632003
vt 0.052706 0.022632003
vt 0.052706 0.022632003
vt 0.051224 0.024329007
vt 0.051224 0.024329007
vt 0.511322 0.342986
vt 0.511322 0.293267
vt 0.306626 0.342986
vt 0.511322 0.34279603
vt 0.511322 0.731426
vt 0.306626 0.731426
vt 0.511322 0.731426
vt 0.306626 0.342986
vt 0.511322 0.293267
vt 0.511322 0.342986
vt 0.511322 0.34279603
vt 0.511322 0.731426
vt 0.306626 0.342986
vt 0.306626 0.731426
vt 0.511322 0.731426

g boss_dao_w
s 1
usemtl boss_dao_w
f 3/3/3 2/2/2 1/1/1 
f 4/4/4 1/1/1 2/2/2 
f 5/5/5 3/3/3 1/1/1 
f 5/5/5 6/6/6 3/3/3 
f 7/7/7 3/3/3 6/6/6 
f 3/3/3 7/7/7 8/8/8 
f 9/9/9 8/8/8 7/7/7 
f 10/10/10 2/2/2 9/9/9 
f 2/2/2 10/10/10 11/11/11 
f 13/13/13 12/12/12 10/10/10 
f 14/14/14 10/10/10 12/12/12 
f 12/12/12 13/13/13 15/15/15 
f 15/15/15 13/13/13 16/16/16 
f 17/17/17 16/16/16 13/13/13 
f 18/18/18 15/15/15 16/16/16 
f 16/16/16 17/17/17 18/18/18 
f 12/12/12 15/15/15 18/18/18 
f 18/18/18 19/19/19 12/12/12 
f 20/20/20 12/12/12 19/19/19 
f 22/22/22 17/17/17 21/21/21 
f 21/21/21 23/23/23 22/22/22 
f 23/23/23 24/24/24 22/22/22 
f 17/17/17 22/22/22 24/24/24 
f 25/25/25 23/23/23 21/21/21 
f 25/25/25 24/24/24 23/23/23 
f 21/21/21 26/26/26 25/25/25 
f 27/27/27 25/25/25 26/26/26 
f 24/24/24 25/25/25 28/28/28 
f 29/29/29 28/28/28 25/25/25 
f 26/26/26 31/31/31 30/30/30 
f 32/32/32 30/30/30 31/31/31 
f 31/31/31 33/33/33 32/32/32 
f 34/34/34 32/32/32 33/33/33 
f 34/34/34 35/35/35 32/32/32 
f 34/34/34 36/36/36 35/35/35 
f 33/33/33 37/37/37 34/34/34 
f 36/36/36 34/34/34 37/37/37 
f 35/35/35 39/39/39 38/38/38 
f 38/38/38 39/39/39 40/40/40 
f 35/35/35 40/40/40 39/39/39 
f 41/41/41 40/40/40 35/35/35 
f 41/41/41 42/42/42 40/40/40 
f 43/43/43 40/40/40 42/42/42 
f 40/40/40 43/43/43 44/44/44 
f 45/45/45 44/44/44 43/43/43 
f 44/44/44 45/45/45 46/46/46 
f 28/28/28 46/46/46 45/45/45 
f 49/49/49 48/48/48 47/47/47 
f 51/51/51 50/50/50 47/47/47 
f 54/54/54 53/53/53 52/52/52 
f 57/57/57 56/56/56 55/55/55 
f 59/59/59 58/58/58 1/1/1 
f 58/58/58 59/59/59 60/60/60 
f 61/61/61 60/60/60 59/59/59 
f 59/59/59 62/62/62 61/61/61 
f 63/63/63 61/61/61 62/62/62 
f 19/19/19 63/63/63 2/2/2 
f 19/19/19 2/2/2 64/64/64 
f 67/67/67 66/66/66 65/65/65 
f 69/69/69 68/68/68 65/65/65 
f 72/72/72 71/71/71 70/70/70 
f 73/73/73 70/70/70 71/71/71 
f 72/72/72 70/70/70 74/74/74 
f 75/75/75 74/74/74 70/70/70 
f 76/76/76 73/73/73 71/71/71 
f 77/77/77 74/74/74 75/75/75 
f 80/80/80 79/79/79 78/78/78 
f 79/79/79 80/80/80 81/81/81 
f 78/78/78 82/82/82 80/80/80 
f 83/83/83 80/80/80 82/82/82 
f 80/80/80 83/83/83 81/81/81 
f 84/84/84 81/81/81 83/83/83 
f 87/87/87 86/86/86 85/85/85 
f 86/86/86 88/88/88 85/85/85 
f 87/87/87 90/90/90 89/89/89 
f 91/91/91 89/89/89 90/90/90 
f 88/88/88 92/92/92 90/90/90 
f 91/91/91 90/90/90 92/92/92 

