# Created by DisUnity v0.3.4
v -0.053304687 0.28080162 0.05807748
v 0.0034015703 0.5640841 0.07998518
v 0.0027246308 0.28063738 0.07958403
v -0.05262775 0.5642484 0.058478665
v 0.05822708 0.56398773 0.055572826
v 0.057550143 0.280541 0.055171654
v 0.07973297 0.56401575 -4.5569427E-4
v 0.07905603 0.28056893 -8.5685734E-4
v -0.077715136 0.2809375 0.0032525873
v -0.0770382 0.5643843 0.0036537456
v -0.077715136 0.2809375 0.0032525873
v -0.055533078 0.56441224 -0.052374724
v -0.056210015 0.28096545 -0.052775893
v -7.0740696E-4 0.5643158 -0.07678711
v -0.0013843488 0.28086904 -0.07718827
v 0.055321753 0.5641516 -0.05528056
v 0.054644804 0.28070483 -0.055681724
v 0.07973297 0.56401575 -4.5569427E-4
v 0.07905603 0.28056893 -8.5685734E-4
v 0.0027246308 0.28063738 0.07958403
v 6.701398E-4 0.28075323 0.0011978721
v -0.053304687 0.28080162 0.05807748
v 0.057550143 0.280541 0.055171654
v 0.07905603 0.28056893 -8.5685734E-4
v -0.077715136 0.2809375 0.0032525873
v -0.0013843488 0.28086904 -0.07718827
v -0.056210015 0.28096545 -0.052775893
v 0.054644804 0.28070483 -0.055681724
v 0.07905603 0.28056893 -8.5685734E-4
v -0.077715136 0.2809375 0.0032525873
v -0.055707198 -0.72524476 0.056653727
v 9.989738E-4 -0.44196212 0.07856132
v 3.220272E-4 -0.72540885 0.07816025
v -0.05503034 -0.44179788 0.057054825
v 0.055824477 -0.44205844 0.054148998
v 0.05514755 -0.7255053 0.053747863
v 0.07733038 -0.44203058 -0.0018795299
v 0.07665345 -0.72547746 -0.002280674
v -0.08011773 -0.7251088 0.0018287849
v -0.07944078 -0.441662 0.0022299099
v 0.05224223 -0.72534156 -0.057105567
v 0.052919157 -0.44189468 -0.056704435
v -0.0037869357 -0.7251773 -0.078612104
v -0.0031100034 -0.4417305 -0.07821094
v -0.05861261 -0.7250808 -0.054199714
v -0.057935674 -0.44163406 -0.05379859
v -0.05503034 -0.44179788 0.057054825
v -0.0010552072 -0.44184622 1.751899E-4
v 9.989738E-4 -0.44196212 0.07856132
v 0.055824477 -0.44205844 0.054148998
v 0.07733038 -0.44203058 -0.0018795299
v -0.07944078 -0.441662 0.0022299099
v 0.052919157 -0.44189468 -0.056704435
v -0.0031100034 -0.4417305 -0.07821094
v -0.057935674 -0.44163406 -0.05379859
v 0.14775494 -0.73949873 -0.0041649244
v 0.18589766 -0.8493427 0.17792371
v 0.1067327 -0.73955214 0.102710456
v 0.25695035 -0.84925056 -0.007189102
v 0.004760742 -0.8490244 0.2585774
v 0.0021533489 -0.73936826 0.14927526
v 0.2146125 -0.99902296 0.20529975
v 0.29665688 -0.9989164 -0.008450947
v 0.0054535386 -0.9986554 0.29842934
v 0.1851832 -1.1484859 0.17750038
v 0.25623605 -1.1483936 -0.007612476
v 0.004046259 -1.1481675 0.25815403
v 0.105495356 -1.2576833 0.101977095
v 0.1465176 -1.25763 -0.004898186
v 9.160042E-4 -1.2574995 0.14854196
v -0.0016697788 -0.69906914 -1.8884666E-4
v -0.003098545 -1.2973568 -0.0010355569
v -0.10472152 -0.7390549 0.10825327
v -0.18035209 -0.8484817 0.18752421
v -0.15128587 -0.73879576 0.0036738014
v -0.26100445 -0.84803283 0.0063880538
v -0.2082963 -0.9980287 0.21638547
v -0.30142495 -0.99751025 0.007226581
v -0.18106654 -1.147625 0.18710084
v -0.26171884 -1.1471759 0.0059646987
v -0.10595885 -1.2571862 0.10752001
v -0.15252322 -1.2569271 0.002940502
v 0.09995323 -1.2573708 -0.10947769
v 0.17558394 -1.1479446 -0.18874863
v 0.20352814 -0.998398 -0.21760988
v 0.17629842 -0.8488015 -0.18832527
v 0.10119066 -0.7392396 -0.10874439
v -0.008814697 -0.84825885 -0.2593785
v -0.005684366 -0.7389263 -0.14976637
v -0.010221929 -0.9977714 -0.29965377
v -0.009529085 -1.147402 -0.25980183
v -0.006921711 -1.2570577 -0.15049967
v -0.11026362 -0.7387424 -0.10320153
v -0.18995132 -0.84794056 -0.1787248
v -0.21938051 -0.9974037 -0.20652412
v -0.19066569 -1.1470836 -0.17914814
v -0.11150096 -1.2568737 -0.10393482
v 0.0547306 0.2969769 -1.9504077E-4
v 0.03813649 -0.44554293 0.0373685
v 0.039909717 0.29695764 0.038419347
v 0.05295737 -0.4455236 -0.0012458802
v 3.5185812E-4 -0.44547647 0.054191854
v 0.0021250916 0.29702404 0.055242702
v -0.036489006 0.29713723 0.040421978
v -0.03826215 -0.4453633 0.039371125
v -0.053312276 0.2972309 0.0026370953
v -0.05508551 -0.44526953 0.0015862464
v 0.0361341 -0.44542995 -0.03903078
v 0.037907336 0.2970705 -0.03797994
v -0.0024798394 -0.44531676 -0.053851508
v -7.0675847E-4 0.29718372 -0.05280067
v -0.040264547 -0.4452503 -0.037028134
v -0.038491383 0.29725012 -0.035977315
v -0.05262775 0.5642484 0.058478665
v 0.0013473844 0.5642 0.0015990352
v 0.0034015703 0.5640841 0.07998518
v 0.05822708 0.56398773 0.055572826
v 0.07973297 0.56401575 -4.5569427E-4
v -0.0770382 0.5643843 0.0036537456
v 0.055321753 0.5641516 -0.05528056
v -7.0740696E-4 0.5643158 -0.07678711
v -0.055533078 0.56441224 -0.052374724
v -0.03181393 0.6039347 0.03670162
v 0.0015152836 0.6342742 0.0016981887
v 0.002708659 0.60383356 0.049951714
v 0.036488097 0.6037741 0.034911204
v 0.04973903 0.60379136 3.8921347E-4
v -0.046853933 0.60401845 0.0029212188
v -0.04362005 0.5619001 0.04897803
v 0.0030537653 0.5617632 0.06689359
v -0.06395515 0.56201327 0.0033073425
v 0.04872477 0.56168294 0.046557397
v 0.06664038 0.56170624 -1.1595733E-4
v 0.03469795 0.60387504 -0.03339116
v 1.7690181E-4 0.60397625 -0.0466413
v -0.033604078 0.6040356 -0.03160075
v -0.046040304 0.5620365 -0.04336598
v -3.6899565E-4 0.5619562 -0.06370219
v 0.04630452 0.56181943 -0.045786627
vn -0.46789396 -0.73428786 0.4918298
vn 0.0218475 0.6291113 0.77700824
vn 0.015305659 -0.73562527 0.6772158
vn -0.5329118 0.630739 0.5640687
vn 0.70974106 0.22774276 0.66663396
vn 0.4955095 -0.7341093 0.46427786
vn 0.9733978 0.22774448 -0.025082411
vn 0.6769263 -0.7358123 -0.01873861
vn -0.68078625 -0.7322887 0.016833674
vn -0.7746067 0.6320865 0.021235732
vn -0.74830234 -0.59781146 -0.2875152
vn -0.5616786 0.63236135 -0.53351307
vn -0.46917272 -0.73389286 0.4912009
vn -0.018836398 0.6314052 -0.77522427
vn 0.016977709 -0.7353828 0.67743915
vn 0.5359184 0.6297816 -0.56228685
vn 0.49567524 -0.7340724 0.4641592
vn 0.50872433 0.8311559 -0.22445342
vn 0.72939354 -0.6012821 -0.32625884
vn 0.015305659 -0.73562527 0.6772158
vn -0.0028847842 -0.999995 -0.0012874244
vn -0.46789396 -0.73428786 0.4918298
vn 0.4955095 -0.7341093 0.46427786
vn 0.6769263 -0.7358123 -0.01873861
vn -0.68078625 -0.7322887 0.016833674
vn 0.016977709 -0.7353828 0.67743915
vn -0.46917272 -0.73389286 0.4912009
vn 0.49567524 -0.7340724 0.4641592
vn 0.72939354 -0.6012821 -0.32625884
vn -0.74830234 -0.59781146 -0.2875152
vn -0.6883426 6.173712E-4 0.72538555
vn 0.021847136 0.6291113 0.77700806
vn 0.026201125 -0.0014771787 0.9996556
vn -0.532912 0.6307388 0.5640686
vn 0.5646853 0.62816006 0.5352993
vn 0.72539157 -0.0027064711 0.6883312
vn 0.77761924 0.6284345 -0.019451972
vn 0.99965394 -0.0023502973 -0.026203414
vn -0.99965394 0.0023502803 0.026203852
vn -0.77460706 0.63208616 0.021235975
vn 0.6883386 -6.172945E-4 -0.7253893
vn 0.5359184 0.6297816 -0.56228685
vn -0.02620026 0.0014773324 -0.9996556
vn -0.01883654 0.6314048 -0.77522457
vn -0.7253951 0.0027065517 -0.6883274
vn -0.56167877 0.6323613 -0.53351325
vn -0.532912 0.6307388 0.5640686
vn 0.0023879344 0.9999962 0.0014149775
vn 0.021847136 0.6291113 0.77700806
vn 0.5646853 0.62816006 0.5352993
vn 0.77761924 0.6284345 -0.019451972
vn -0.77460706 0.63208616 0.021235975
vn 0.5359184 0.6297816 -0.56228685
vn -0.01883654 0.6314048 -0.77522457
vn -0.56167877 0.6323613 -0.53351325
vn 0.5469788 0.837044 -0.013098791
vn 0.639704 0.4720062 0.6066209
vn 0.3974591 0.83684933 0.37644318
vn 0.881143 0.47231916 -0.022396417
vn 0.024197416 0.4730877 0.88068295
vn 0.016285514 0.8375194 0.54616475
vn 0.7253884 -0.002706718 0.6883344
vn 0.99965394 -0.002350453 -0.026204048
vn 0.0262002 -0.0014776745 0.9996556
vn 0.63743764 -0.47677252 0.60527784
vn 0.8788764 -0.47645855 -0.02373924
vn 0.021931501 -0.47569025 0.87933934
vn 0.39345467 -0.83980095 0.37406933
vn 0.54297405 -0.83960694 -0.015471712
vn 0.012281559 -0.83913106 0.5437906
vn 0.0023879786 0.9999962 0.0014153756
vn -0.0023879914 -0.9999962 -0.0014150845
vn -0.37325516 0.8386612 0.39664584
vn -0.6048198 0.4749317 0.6392441
vn -0.54297495 0.83960634 0.015471823
vn -0.8788774 0.47645658 0.023738999
vn -0.6883353 6.17147E-4 0.7253924
vn -0.99965394 0.0023501134 0.026203886
vn -0.6070853 -0.4738463 0.6379006
vn -0.8811426 -0.47231996 0.022396147
vn -0.3772585 -0.83798885 0.3942723
vn -0.5469777 -0.8370448 0.0130988145
vn 0.37325457 -0.83866185 -0.39664492
vn 0.60481936 -0.47493306 -0.6392433
vn 0.6883353 -6.175875E-4 -0.7253924
vn 0.60708576 0.47384515 -0.6379008
vn 0.37725917 0.83798826 -0.3942728
vn -0.021932134 0.47568882 -0.8793402
vn -0.012281887 0.83913034 -0.54379183
vn -0.026200725 0.0014770989 -0.9996556
vn -0.024197785 -0.47308886 -0.8806823
vn -0.016285796 -0.8375202 -0.54616356
vn -0.39345545 0.8398002 -0.3740702
vn -0.6374383 0.4767706 -0.60527855
vn -0.7253884 0.0027062923 -0.6883344
vn -0.6397036 -0.4720069 -0.6066209
vn -0.39745867 -0.83684987 -0.37644255
vn 0.99965394 -0.0023502754 -0.026203724
vn 0.72538877 -0.00270655 0.6883341
vn 0.72538894 -0.00270655 0.68833387
vn 0.99965394 -0.0023502754 -0.02620361
vn 0.026200645 -0.0014773794 0.9996556
vn 0.026200695 -0.0014773794 0.9996556
vn -0.6883353 6.172008E-4 0.7253924
vn -0.68833506 6.1719975E-4 0.7253926
vn -0.99965394 0.0023502233 0.026204038
vn -0.99965394 0.0023502233 0.026204247
vn 0.6883359 -6.1722955E-4 -0.72539186
vn 0.68833596 -6.1722996E-4 -0.72539175
vn -0.02620021 0.0014773358 -0.9996556
vn -0.026200395 0.0014773359 -0.9996556
vn -0.7253884 0.002706482 -0.6883344
vn -0.72538847 0.0027064823 -0.6883344
vn -0.5329118 0.630739 0.5640687
vn 0.002388117 0.9999962 0.0014153883
vn 0.0218475 0.6291113 0.77700824
vn 0.002388076 0.9999962 0.0014157966
vn 0.50872433 0.8311559 -0.22445342
vn -0.7746067 0.6320865 0.021235732
vn 0.5359184 0.6297816 -0.56228685
vn -0.018836398 0.6314052 -0.77522427
vn -0.5616786 0.63236135 -0.53351307
vn -0.54556245 0.60751015 0.57731533
vn 0.0023929402 0.9999962 0.0014150989
vn 0.022275567 0.6058482 0.7952683
vn 0.5778995 0.6048723 0.5478701
vn 0.7958542 0.60515916 -0.019964306
vn -0.79296046 0.60888714 0.021682706
vn -0.6372199 0.37553856 0.67299455
vn 0.025187606 0.3736009 0.9272475
vn -0.92582357 0.37714005 0.024822319
vn 0.6733565 0.37246805 0.6386382
vn 0.927605 0.3728062 -0.023760702
vn 0.5484536 0.60653293 -0.57560086
vn -0.019368038 0.6081964 -0.7935504
vn -0.5750081 0.60917026 -0.54614764
vn -0.6715694 0.377475 -0.63757914
vn -0.023389768 0.3763402 -0.92618626
vn 0.63900703 0.3744056 -0.6719304
vt 0.3699305 0.68128306
vt 0.25718513 0.98178315
vt 0.25718513 0.68128306
vt 0.3699305 0.98178315
vt 0.14443977 0.98178315
vt 0.14443977 0.68128306
vt 0.031696197 0.98178315
vt 0.031696197 0.68128306
vt 0.48267353 0.68128306
vt 0.48267353 0.98178315
vt 0.48267353 0.68128306
vt 0.3699305 0.98178315
vt 0.3699305 0.68128306
vt 0.25718513 0.98178315
vt 0.25718513 0.68128306
vt 0.14443977 0.98178315
vt 0.14443977 0.68128306
vt 0.031696197 0.98178315
vt 0.031696197 0.68128306
vt 0.5610796 0.08977699
vt 0.6821632 0.08977699
vt 0.59654546 0.13165331
vt 0.59654546 0.047900915
vt 0.6821632 0.030555487
vt 0.6821632 0.14899814
vt 0.5610796 0.08977699
vt 0.59654546 0.13165331
vt 0.59654546 0.047900915
vt 0.6821632 0.030555487
vt 0.6821632 0.14899814
vt 0.85641617 0.68220353
vt 0.7437478 0.9823658
vt 0.7437478 0.68220353
vt 0.85641617 0.9823658
vt 0.63108027 0.9823658
vt 0.63108027 0.68220353
vt 0.5184134 0.9823658
vt 0.5184134 0.68220353
vt 0.96908206 0.68220353
vt 0.96908206 0.9823658
vt 0.63108027 0.68220353
vt 0.63108027 0.9823658
vt 0.7437478 0.68220353
vt 0.7437478 0.9823658
vt 0.85641617 0.68220353
vt 0.85641617 0.9823658
vt 0.14671391 0.12976968
vt 0.06203835 0.08835411
vt 0.18178898 0.08835429
vt 0.14671391 0.046939135
vt 0.06203835 0.0297845
vt 0.06203835 0.14692354
vt 0.14671391 0.046939135
vt 0.18178898 0.08835429
vt 0.14671391 0.12976968
vt 0.2097831 0.5601611
vt 0.3739218 0.45861316
vt 0.3739218 0.5601611
vt 0.0926856 0.45861316
vt 0.64864194 0.45861316
vt 0.5255006 0.5601611
vt 0.3739218 0.34688294
vt 0.049882986 0.34688294
vt 0.69830495 0.34688294
vt 0.3739218 0.23511946
vt 0.099162735 0.23511946
vt 0.6553424 0.23511946
vt 0.3739218 0.13354695
vt 0.22219795 0.13354695
vt 0.538 0.13354695
vt 0.3739218 0.65106565
vt 0.3739218 0.0426383
vt 0.3739218 0.5601611
vt 0.3739218 0.45861316
vt 0.2097831 0.5601611
vt 0.0926856 0.45861316
vt 0.3739218 0.34688294
vt 0.049882986 0.34688294
vt 0.3739218 0.23511946
vt 0.099162735 0.23511946
vt 0.3739218 0.13354695
vt 0.22219795 0.13354695
vt 0.3739218 0.13354695
vt 0.3739218 0.23511946
vt 0.3739218 0.34688294
vt 0.3739218 0.45861316
vt 0.3739218 0.5601611
vt 0.64864194 0.45861316
vt 0.5255006 0.5601611
vt 0.69830495 0.34688294
vt 0.6553424 0.23511946
vt 0.538 0.13354695
vt 0.3739218 0.5601611
vt 0.3739218 0.45861316
vt 0.3739218 0.34688294
vt 0.3739218 0.23511946
vt 0.3739218 0.13354695
vt 0.7802467 0.6624502
vt 0.869165 0.029440105
vt 0.869165 0.6624502
vt 0.7802467 0.029440105
vt 0.958082 0.029440105
vt 0.958082 0.6624502
vt 0.869165 0.6624502
vt 0.869165 0.029440105
vt 0.7802467 0.6624502
vt 0.7802467 0.029440105
vt 0.869165 0.029440105
vt 0.869165 0.6624502
vt 0.958082 0.029440105
vt 0.958082 0.6624502
vt 0.869165 0.029440105
vt 0.869165 0.6624502
vt 0.14671391 0.12976968
vt 0.06203835 0.08835411
vt 0.18178898 0.08835429
vt 0.14671391 0.046939135
vt 0.06203835 0.0297845
vt 0.06203835 0.14692354
vt 0.14671391 0.046939135
vt 0.18178898 0.08835429
vt 0.14671391 0.12976968
vt 0.63323283 0.6159732
vt 0.5634781 0.5851186
vt 0.63323283 0.5851198
vt 0.63323283 0.5542661
vt 0.63323283 0.5220033
vt 0.63323283 0.6482346
vt 0.71416867 0.62214625
vt 0.71416867 0.5851202
vt 0.71416867 0.66087925
vt 0.71416867 0.54809386
vt 0.71416867 0.50935936
vt 0.63323283 0.5542661
vt 0.63323283 0.5851198
vt 0.63323283 0.6159732
vt 0.71416867 0.62214625
vt 0.71416867 0.5851202
vt 0.71416867 0.54809386

g dian_wei5_w_0
s 1
usemtl dian_wei5_w_0
f 3/3/3 2/2/2 1/1/1 
f 2/2/2 4/4/4 1/1/1 
f 5/5/5 2/2/2 3/3/3 
f 6/6/6 5/5/5 3/3/3 
f 7/7/7 5/5/5 6/6/6 
f 8/8/8 7/7/7 6/6/6 
f 1/1/1 4/4/4 9/9/9 
f 4/4/4 10/10/10 9/9/9 
f 10/10/10 12/12/12 11/11/11 
f 12/12/12 13/13/13 11/11/11 
f 12/12/12 14/14/14 13/13/13 
f 14/14/14 15/15/15 13/13/13 
f 14/14/14 16/16/16 15/15/15 
f 16/16/16 17/17/17 15/15/15 
f 16/16/16 18/18/18 17/17/17 
f 18/18/18 19/19/19 17/17/17 
f 22/22/22 21/21/21 20/20/20 
f 20/20/20 21/21/21 23/23/23 
f 23/23/23 21/21/21 24/24/24 
f 25/25/25 21/21/21 22/22/22 
f 21/21/21 27/27/27 26/26/26 
f 21/21/21 26/26/26 28/28/28 
f 21/21/21 28/28/28 29/29/29 
f 21/21/21 30/30/30 27/27/27 
f 33/33/33 32/32/32 31/31/31 
f 32/32/32 34/34/34 31/31/31 
f 35/35/35 32/32/32 33/33/33 
f 36/36/36 35/35/35 33/33/33 
f 37/37/37 35/35/35 36/36/36 
f 38/38/38 37/37/37 36/36/36 
f 31/31/31 34/34/34 39/39/39 
f 34/34/34 40/40/40 39/39/39 
f 37/37/37 38/38/38 41/41/41 
f 42/42/42 37/37/37 41/41/41 
f 42/42/42 41/41/41 43/43/43 
f 44/44/44 42/42/42 43/43/43 
f 44/44/44 43/43/43 45/45/45 
f 46/46/46 44/44/44 45/45/45 
f 40/40/40 46/46/46 39/39/39 
f 46/46/46 45/45/45 39/39/39 
f 49/49/49 48/48/48 47/47/47 
f 50/50/50 48/48/48 49/49/49 
f 51/51/51 48/48/48 50/50/50 
f 47/47/47 48/48/48 52/52/52 
f 48/48/48 51/51/51 53/53/53 
f 48/48/48 53/53/53 54/54/54 
f 48/48/48 54/54/54 55/55/55 
f 48/48/48 55/55/55 52/52/52 
f 58/58/58 57/57/57 56/56/56 
f 57/57/57 59/59/59 56/56/56 
f 60/60/60 57/57/57 58/58/58 
f 61/61/61 60/60/60 58/58/58 
f 57/57/57 62/62/62 59/59/59 
f 62/62/62 63/63/63 59/59/59 
f 60/60/60 64/64/64 57/57/57 
f 64/64/64 62/62/62 57/57/57 
f 62/62/62 65/65/65 63/63/63 
f 65/65/65 66/66/66 63/63/63 
f 64/64/64 67/67/67 62/62/62 
f 67/67/67 65/65/65 62/62/62 
f 65/65/65 68/68/68 66/66/66 
f 68/68/68 69/69/69 66/66/66 
f 67/67/67 70/70/70 65/65/65 
f 70/70/70 68/68/68 65/65/65 
f 56/56/56 71/71/71 58/58/58 
f 58/58/58 71/71/71 61/61/61 
f 68/68/68 72/72/72 69/69/69 
f 70/70/70 72/72/72 68/68/68 
f 60/60/60 61/61/61 73/73/73 
f 71/71/71 73/73/73 61/61/61 
f 74/74/74 60/60/60 73/73/73 
f 64/64/64 60/60/60 74/74/74 
f 74/74/74 73/73/73 75/75/75 
f 71/71/71 75/75/75 73/73/73 
f 76/76/76 74/74/74 75/75/75 
f 77/77/77 74/74/74 76/76/76 
f 77/77/77 64/64/64 74/74/74 
f 67/67/67 64/64/64 77/77/77 
f 78/78/78 77/77/77 76/76/76 
f 79/79/79 77/77/77 78/78/78 
f 79/79/79 67/67/67 77/77/77 
f 70/70/70 67/67/67 79/79/79 
f 80/80/80 79/79/79 78/78/78 
f 81/81/81 79/79/79 80/80/80 
f 81/81/81 70/70/70 79/79/79 
f 72/72/72 70/70/70 81/81/81 
f 82/82/82 81/81/81 80/80/80 
f 72/72/72 81/81/81 82/82/82 
f 72/72/72 83/83/83 69/69/69 
f 69/69/69 83/83/83 66/66/66 
f 83/83/83 84/84/84 66/66/66 
f 66/66/66 84/84/84 63/63/63 
f 84/84/84 85/85/85 63/63/63 
f 63/63/63 85/85/85 59/59/59 
f 85/85/85 86/86/86 59/59/59 
f 59/59/59 86/86/86 56/56/56 
f 86/86/86 87/87/87 56/56/56 
f 86/86/86 88/88/88 87/87/87 
f 88/88/88 89/89/89 87/87/87 
f 85/85/85 90/90/90 86/86/86 
f 90/90/90 88/88/88 86/86/86 
f 84/84/84 91/91/91 85/85/85 
f 91/91/91 90/90/90 85/85/85 
f 83/83/83 92/92/92 84/84/84 
f 92/92/92 91/91/91 84/84/84 
f 71/71/71 56/56/56 87/87/87 
f 71/71/71 87/87/87 89/89/89 
f 72/72/72 92/92/92 83/83/83 
f 89/89/89 88/88/88 93/93/93 
f 93/93/93 71/71/71 89/89/89 
f 88/88/88 94/94/94 93/93/93 
f 88/88/88 90/90/90 94/94/94 
f 93/93/93 94/94/94 75/75/75 
f 75/75/75 71/71/71 93/93/93 
f 94/94/94 76/76/76 75/75/75 
f 94/94/94 95/95/95 76/76/76 
f 90/90/90 95/95/95 94/94/94 
f 90/90/90 91/91/91 95/95/95 
f 95/95/95 78/78/78 76/76/76 
f 95/95/95 96/96/96 78/78/78 
f 91/91/91 96/96/96 95/95/95 
f 91/91/91 92/92/92 96/96/96 
f 96/96/96 80/80/80 78/78/78 
f 96/96/96 97/97/97 80/80/80 
f 92/92/92 97/97/97 96/96/96 
f 92/92/92 72/72/72 97/97/97 
f 97/97/97 82/82/82 80/80/80 
f 97/97/97 72/72/72 82/82/82 
f 100/100/100 99/99/99 98/98/98 
f 99/99/99 101/101/101 98/98/98 
f 102/102/102 99/99/99 100/100/100 
f 103/103/103 102/102/102 100/100/100 
f 102/102/102 103/103/103 104/104/104 
f 105/105/105 102/102/102 104/104/104 
f 105/105/105 104/104/104 106/106/106 
f 107/107/107 105/105/105 106/106/106 
f 101/101/101 108/108/108 98/98/98 
f 108/108/108 109/109/109 98/98/98 
f 108/108/108 110/110/110 109/109/109 
f 110/110/110 111/111/111 109/109/109 
f 112/112/112 107/107/107 106/106/106 
f 113/113/113 112/112/112 106/106/106 
f 111/111/111 110/110/110 113/113/113 
f 110/110/110 112/112/112 113/113/113 
f 116/116/116 115/115/115 114/114/114 
f 117/117/117 115/115/115 116/116/116 
f 118/118/118 115/115/115 117/117/117 
f 114/114/114 115/115/115 119/119/119 
f 115/115/115 118/118/118 120/120/120 
f 115/115/115 120/120/120 121/121/121 
f 115/115/115 121/121/121 122/122/122 
f 115/115/115 122/122/122 119/119/119 
f 125/125/125 124/124/124 123/123/123 
f 126/126/126 124/124/124 125/125/125 
f 127/127/127 124/124/124 126/126/126 
f 123/123/123 124/124/124 128/128/128 
f 125/125/125 123/123/123 129/129/129 
f 130/130/130 125/125/125 129/129/129 
f 126/126/126 125/125/125 130/130/130 
f 129/129/129 123/123/123 131/131/131 
f 123/123/123 128/128/128 131/131/131 
f 127/127/127 126/126/126 132/132/132 
f 132/132/132 126/126/126 130/130/130 
f 133/133/133 127/127/127 132/132/132 
f 124/124/124 127/127/127 134/134/134 
f 124/124/124 134/134/134 135/135/135 
f 124/124/124 135/135/135 136/136/136 
f 124/124/124 136/136/136 128/128/128 
f 128/128/128 136/136/136 131/131/131 
f 136/136/136 135/135/135 137/137/137 
f 136/136/136 137/137/137 131/131/131 
f 135/135/135 138/138/138 137/137/137 
f 135/135/135 134/134/134 138/138/138 
f 134/134/134 127/127/127 139/139/139 
f 127/127/127 133/133/133 139/139/139 
f 134/134/134 139/139/139 138/138/138 

