# Created by DisUnity v0.3.4
v 0.8737203 0.09786406 -0.044545095
v 0.7818647 0.014653301 -0.027823891
v 0.9058498 0.01998279 -0.027205296
v 0.8295313 0.14825511 -0.045341916
v 0.98746353 0.09473276 -0.04388925
v 0.94721496 0.15362392 -0.04475814
v 0.7226489 0.14352876 -0.045873716
v 0.6013497 0.12036056 -0.029975042
v 0.6528335 -0.073014446 -0.027562628
v 0.8099156 -0.08067827 -0.02662001
v 0.7314176 -0.1273204 -0.026534796
v 0.857799 -0.101685695 -0.02612688
v 0.8822223 -0.14350568 -0.02553256
v 0.5818613 0.054324664 -0.029353771
v 0.49699447 0.12766483 0.0044460916
v 0.49107695 0.17327513 0.003911152
v 0.601293 -0.12469156 -0.027274685
v 0.9055198 0.020648504 0.033183154
v 0.8730156 -0.09930788 0.034327593
v 0.8977138 -0.15257074 0.035049554
v 0.73136264 -0.13809761 0.033981245
v 0.809586 -0.080012895 0.033768423
v 0.652779 -0.08379187 0.032953404
v 0.78153473 0.015318736 0.032564536
v 0.4968562 0.12794381 0.029768094
v 0.49093848 0.17355402 0.029233102
v 0.60101986 0.12102602 0.030413363
v 0.56707036 0.0422496 0.031096095
v 0.5347645 0.17980789 0.0040777656
v 0.65210676 0.15202516 -0.030046757
v 0.52867734 0.2382025 0.0034009574
v 0.53462625 0.1800872 0.02939977
v 0.5285391 0.23848154 0.02872292
v 0.65177697 0.15269084 0.030341731
v 0.6056964 0.20900239 0.004143553
v 0.6111652 0.25518975 0.0036643576
v 0.6055577 0.20928141 0.02946553
v 0.6110271 0.25546882 0.028986363
v 0.72176415 0.16374397 0.030602245
v 0.59350365 -0.15078646 0.03336793
v 0.8286466 0.16847058 0.031134062
v 0.87283605 0.11807941 0.031930838
v 0.9463307 0.17383909 0.0317178
v 0.98704433 0.095578134 0.032802742
v 0.87288237 0.09955446 0.108838834
v 0.8286933 0.1499457 0.10804205
v 0.7812046 0.015984416 0.092953
v 0.9051898 0.021313976 0.0935716
v 0.98662525 0.096423194 0.10949473
v 0.94637764 0.15531419 0.10862581
v 0.72181076 0.14521907 0.10751025
v 0.6006898 0.12169158 0.09080181
v 0.65217376 -0.07168349 0.09321421
v 0.809256 -0.0793474 0.0941569
v 0.73075753 -0.1259893 0.09424207
v 0.8571393 -0.10035469 0.09464996
v 0.88156193 -0.14217447 0.09524429
v 0.581201 0.055655785 0.09142313
v 0.4967178 0.12822297 0.05509006
v 0.49080023 0.17383318 0.05455506
v 0.6006332 -0.12336046 0.09350223
v 0.53448796 0.18036617 0.05472173
v 0.6514472 0.15335625 0.09073015
v 0.5284008 0.2387606 0.054044914
v 0.60541946 0.2095605 0.0547875
v 0.6108887 0.2557479 0.05430833
v 1.1736667 0.14776959 -0.008393821
v 1.5076098 -0.11532394 0.04028808
v 1.5317254 0.25474778 -0.007616701
v 1.1659104 -0.1235585 0.038512096
v 0.7675283 0.08593852 -0.012248253
v 0.78944504 -0.1144523 0.034037963
v 1.7150956 0.020808563 0.03992129
v 1.7392114 0.3908805 -0.007983494
v 1.8262643 0.26701942 0.037815202
v 1.7922153 0.5144138 0.034902606
v 1.1734264 0.14825405 0.03555752
v 1.5314859 0.2552321 0.036334656
v 0.7672883 0.08642295 0.031703077
v 1.7389718 0.39136478 0.035967927
v 1.1731863 0.14873841 0.0795089
v 1.531246 0.25571668 0.08028606
v 0.7670485 0.0869074 0.075654425
v 1.7387315 0.3918491 0.079919286
v 0.58469474 0.06479246 0.030943941
v 0.3011852 -0.01212738 -0.017562475
v 0.5867456 -0.00548799 -0.037813883
v 0.29977506 0.036184404 0.029702656
v 0.30207282 -0.05938566 0.0307685
v 0.5880368 -0.07423578 0.032494433
v 0.3006629 -0.011073837 0.07803363
v 0.58598596 -0.0039554024 0.10125221
v -0.9767628 0.057038922 -9.795749E-4
v -1.3760116 -6.1340333E-4 -0.0574662
v -0.9768771 0.002562108 -0.054411054
v -1.376528 0.057271346 -0.009266129
v -1.3765018 -0.057553463 -0.008153381
v -0.9767384 -0.050869144 6.608247E-5
v -1.4493294 -0.0010456657 -0.10035431
v -1.4500041 0.0912043 -0.009818649
v -1.4499626 -0.0915224 -0.008047943
v -1.5245636 -1.7757415E-4 -0.009160309
v -1.3763087 3.3143995E-4 0.040049057
v -0.9772057 0.0036077164 0.053495787
v -1.4498863 7.2587014E-4 0.08248993
v 0.3011852 -0.01212738 -0.017562475
v -0.98829067 0.050882038 -9.550011E-4
v -0.98813415 0.002619333 -0.04829083
v 0.29977506 0.036184404 0.029702656
v 0.30207282 -0.05938566 0.0307685
v -0.9882688 -0.044716936 -2.8619766E-5
v 0.3006629 -0.011073837 0.07803363
v -0.9884252 0.0035456324 0.047307193
vn 0.017504789 0.25337413 -0.96720994
vn 0.27880844 -0.29143617 -0.91505784
vn 0.28709406 -0.7693557 -0.5706738
vn 0.31002268 0.5940279 -0.7423051
vn 0.7829066 -0.1610942 -0.60092086
vn 0.17945966 0.7046587 -0.68647677
vn 0.07013327 0.45044562 -0.890045
vn -0.22529906 0.088032976 -0.9703043
vn 0.036339674 -0.41828018 -0.90759087
vn 0.41538328 0.37701353 -0.827839
vn -0.24381389 -0.6628658 -0.7079291
vn 0.45540968 0.5523607 -0.6982118
vn 0.60941064 -0.42588428 -0.668761
vn -0.49614757 -0.18839549 -0.8475522
vn -0.7733532 -0.29094818 -0.5632708
vn -0.515104 0.7147459 -0.4730815
vn -0.21620522 -0.67489785 -0.7055269
vn 0.38303077 -0.9236541 0.01227326
vn 0.68756783 0.7261077 -0.0042449967
vn 0.8317133 -0.55510294 0.010662786
vn -0.33316982 -0.9428278 0.008570493
vn 0.7287132 0.6848096 -0.0035658197
vn 0.11278756 -0.99355185 0.011565096
vn 0.81336087 -0.5816581 0.0108547015
vn -0.90914625 -0.41647676 -3.77876E-4
vn -0.58692455 0.80955076 -0.0121276295
vn -0.83304703 0.55309975 -0.010641061
vn -0.9160068 -0.40116227 -5.849973E-4
vn -0.7970468 -0.31148827 -0.5173891
vn -0.25159517 0.2730992 -0.92850244
vn -0.4142489 0.7771792 -0.4736986
vn -0.8898318 -0.45628878 1.6897284E-4
vn -0.5083119 0.86108565 -0.012265616
vn -0.7336598 0.6794197 -0.01150049
vn -0.8632742 -0.15209217 -0.4812749
vn -0.27643588 0.80285877 -0.5282055
vn -0.9600751 -0.2797341 -0.0021626083
vn -0.36851355 0.92954147 -0.012258399
vn 0.35163996 0.9360977 -0.008395392
vn -0.2926543 -0.95617646 0.008936778
vn 0.36878198 0.9294795 -0.008229227
vn 0.11637739 0.99315155 -0.010308516
vn 0.17234722 0.98498636 -0.009913
vn 0.98906505 -0.14731233 0.0070272535
vn 0.006968301 0.27463058 0.9615245
vn 0.30196625 0.610281 0.73237526
vn 0.26875916 -0.27116373 0.92425036
vn 0.28074923 -0.75655705 0.59059393
vn 0.77627474 -0.1477196 0.612843
vn 0.17204098 0.7196366 0.6726999
vn 0.06045973 0.46995905 0.8806152
vn -0.23587494 0.10936923 0.96560925
vn 0.026371986 -0.39817297 0.91693115
vn 0.40635914 0.39521766 0.8238175
vn -0.25161377 -0.6471324 0.7196598
vn 0.4478227 0.56766814 0.6908022
vn 0.602014 -0.41097048 0.6846038
vn -0.50540173 -0.16973181 0.8460261
vn -0.7794964 -0.27855697 0.5610627
vn -0.52015644 0.7249353 0.45155966
vn -0.22398166 -0.6592126 0.71782374
vn -0.8026886 -0.30010444 0.5153914
vn -0.26169088 0.293466 0.919454
vn -0.4193042 0.78738046 0.4519027
vn -0.8684991 -0.14155214 0.4750498
vn -0.28208977 0.8142725 0.5073317
vn -0.1442513 0.6034778 -0.78422326
vn 0.31264603 -0.9497917 0.012175232
vn -0.25348344 0.5461779 -0.7983958
vn 0.10744408 -0.9941181 0.013601962
vn -0.09737569 0.609189 -0.78702396
vn 0.067138284 -0.9977162 0.0073996764
vn 0.66776925 -0.744274 0.011850653
vn -0.18111885 0.45838884 -0.8701009
vn 0.9676223 -0.2522738 0.008066242
vn 0.2207136 0.97529197 -0.009542918
vn -0.21883634 0.9756884 -0.0119487895
vn -0.42182207 0.90659523 -0.012294
vn -0.1503883 0.9885576 -0.01171709
vn -0.7653043 0.64356995 -0.011269461
vn -0.15644662 0.6187726 0.7698344
vn -0.26212496 0.5636082 0.78334945
vn -0.11535452 0.6281664 0.7694806
vn -0.19055513 0.47742882 0.85775906
vn -0.09984876 0.994936 -0.011510147
vn -0.024111932 -0.01949166 -0.9995192
vn -0.070438124 -0.012815872 -0.99743384
vn -0.044800043 0.99897265 -0.0068190275
vn -0.032388333 -0.9993704 0.014484312
vn -0.051921774 -0.9985936 0.010722101
vn -0.053252604 0.0018335141 0.9985794
vn -0.08133201 0.009160583 0.9966449
vn -0.010774159 0.99994135 -0.0011732241
vn 0.26887202 -0.010806889 -0.9631153
vn 0.018196117 -0.0064690867 -0.9998135
vn 0.2727474 0.9620099 -0.0120727355
vn 0.28035527 -0.9598734 0.0066332873
vn 0.0049729096 -0.99981946 0.018338304
vn -0.162482 -0.009602511 -0.9866648
vn -0.15449816 0.98794204 -0.010042893
vn -0.15405671 -0.9880201 0.00910435
vn -0.99999535 -2.500239E-4 -0.0030435084
vn 0.2462116 0.007859562 0.96918416
vn -0.023265954 0.012822449 0.99964714
vn -0.16848949 0.009507684 0.98565763
vn -0.024111932 -0.01949166 -0.9995192
vn 0.011858709 0.99974114 -0.019415649
vn 0.023780556 -0.0049495082 -0.9997049
vn -0.044800043 0.99897265 -0.0068190275
vn -0.032388333 -0.9993704 0.014484312
vn -0.011398517 -0.9999347 8.1382185E-4
vn -0.053252604 0.0018335141 0.9985794
vn -0.023637509 0.015615615 0.9995987
vt 0.849086 0.50626767
vt 0.69026846 0.59570336
vt 0.75472534 0.4491694
vt 0.8732433 0.58127165
vt 0.84745723 0.376549
vt 0.8999827 0.41009665
vt 0.8451925 0.7066225
vt 0.77281773 0.85384774
vt 0.5559804 0.75613046
vt 0.55921394 0.5410563
vt 0.5102289 0.65041244
vt 0.50048006 0.4912843
vt 0.45557737 0.49387187
vt 0.69687873 0.87990576
vt 0.7296322 0.95621455
vt 0.7713314 0.9522353
vt 0.5012436 0.8277562
vt 0.7022844 0.40039307
vt 0.5052777 0.42984217
vt 0.40754777 0.4436555
vt 0.43597597 0.6608685
vt 0.5814812 0.48868668
vt 0.47213587 0.75926626
vt 0.66685843 0.54211694
vt 0.71525806 0.9818961
vt 0.78814834 0.9776611
vt 0.7857754 0.90888643
vt 0.6545028 0.9521733
vt 0.83296704 0.95959073
vt 0.8402726 0.797476
vt 0.87175715 0.9506283
vt 0.81647474 0.9820334
vt 0.9006213 0.97792
vt 0.8700512 0.8792584
vt 0.91614616 0.91215974
vt 0.9499796 0.8727666
vt 0.92053217 0.9471577
vt 0.9704542 0.88551337
vt 0.9433459 0.72701293
vt 0.4395068 0.866566
vt 0.96868974 0.59213674
vt 0.9571256 0.5065535
vt 0.9725361 0.3708349
vt 0.84124476 0.30284607
vt 0.849086 0.50626767
vt 0.8732433 0.58127165
vt 0.69026846 0.59570336
vt 0.75472534 0.4491694
vt 0.84745723 0.376549
vt 0.8999827 0.41009665
vt 0.8451925 0.7066225
vt 0.77281773 0.85384774
vt 0.5559804 0.75613046
vt 0.55921394 0.5410563
vt 0.5102289 0.65041244
vt 0.50048006 0.4912843
vt 0.45557737 0.49387187
vt 0.69687873 0.87990576
vt 0.7296322 0.95621455
vt 0.7713314 0.9522353
vt 0.5012436 0.8277562
vt 0.83296704 0.95959073
vt 0.8402726 0.797476
vt 0.87175715 0.9506283
vt 0.91614616 0.91215974
vt 0.9499796 0.8727666
vt 0.27488667 0.60505307
vt 0.016291462 0.3397954
vt 0.33826607 0.28930932
vt 0.036672268 0.6328281
vt 0.28440166 0.9690382
vt 0.10448956 0.9690382
vt 0.085391164 0.15089852
vt 0.40752807 0.09922457
vt 0.2607531 0.032563865
vt 0.47764307 0.023243606
vt 0.31273758 0.6087275
vt 0.37415394 0.30134976
vt 0.32242772 0.9690382
vt 0.4409373 0.11767715
vt 0.27488667 0.60505307
vt 0.33826607 0.28930932
vt 0.28440166 0.9690382
vt 0.40752807 0.09922457
vt 0.8300879 0.030870259
vt 0.76324254 0.2344091
vt 0.75936896 0.028401375
vt 0.81185466 0.23610628
vt 0.71472836 0.23793322
vt 0.68879306 0.03352791
vt 0.76324254 0.2344091
vt 0.75936896 0.028401375
vt 0.638054 0.05782038
vt 0.5776387 0.27999288
vt 0.57763696 0.057862937
vt 0.64306897 0.28088933
vt 0.5122016 0.2798056
vt 0.5172199 0.05745864
vt 0.5767983 0.33326006
vt 0.6641352 0.35220826
vt 0.4889801 0.34980565
vt 0.5756821 0.41482896
vt 0.5776387 0.27999288
vt 0.57763696 0.057862937
vt 0.5767983 0.33326006
vt 0.9308113 0.022290349
vt 0.98036027 0.25333506
vt 0.93081164 0.25333506
vt 0.98036027 0.022290349
vt 0.8812624 0.022290349
vt 0.8812624 0.25333506
vt 0.9308113 0.022290349
vt 0.93081164 0.25333506

g hua_xiong_3_w_0
s 1
usemtl hua_xiong_3_w_0
f 3/3/3 2/2/2 1/1/1 
f 2/2/2 4/4/4 1/1/1 
f 5/5/5 3/3/3 1/1/1 
f 6/6/6 5/5/5 1/1/1 
f 7/7/7 4/4/4 2/2/2 
f 8/8/8 7/7/7 2/2/2 
f 9/9/9 8/8/8 2/2/2 
f 9/9/9 2/2/2 10/10/10 
f 11/11/11 9/9/9 10/10/10 
f 11/11/11 10/10/10 12/12/12 
f 13/13/13 11/11/11 12/12/12 
f 14/14/14 8/8/8 9/9/9 
f 8/8/8 14/14/14 15/15/15 
f 16/16/16 8/8/8 15/15/15 
f 17/17/17 14/14/14 9/9/9 
f 3/3/3 18/18/18 2/2/2 
f 12/12/12 19/19/19 13/13/13 
f 19/19/19 20/20/20 13/13/13 
f 13/13/13 20/20/20 11/11/11 
f 20/20/20 21/21/21 11/11/11 
f 11/11/11 21/21/21 9/9/9 
f 10/10/10 22/22/22 12/12/12 
f 22/22/22 19/19/19 12/12/12 
f 21/21/21 23/23/23 9/9/9 
f 9/9/9 23/23/23 17/17/17 
f 24/24/24 22/22/22 10/10/10 
f 18/18/18 24/24/24 2/2/2 
f 2/2/2 24/24/24 10/10/10 
f 15/15/15 25/25/25 16/16/16 
f 25/25/25 26/26/26 16/16/16 
f 16/16/16 26/26/26 8/8/8 
f 26/26/26 27/27/27 8/8/8 
f 14/14/14 28/28/28 15/15/15 
f 28/28/28 25/25/25 15/15/15 
f 8/8/8 27/27/27 29/29/29 
f 30/30/30 8/8/8 29/29/29 
f 31/31/31 30/30/30 29/29/29 
f 29/29/29 32/32/32 31/31/31 
f 27/27/27 32/32/32 29/29/29 
f 32/32/32 33/33/33 31/31/31 
f 31/31/31 33/33/33 30/30/30 
f 33/33/33 34/34/34 30/30/30 
f 30/30/30 34/34/34 35/35/35 
f 7/7/7 30/30/30 35/35/35 
f 30/30/30 7/7/7 8/8/8 
f 36/36/36 7/7/7 35/35/35 
f 35/35/35 37/37/37 36/36/36 
f 34/34/34 37/37/37 35/35/35 
f 37/37/37 38/38/38 36/36/36 
f 36/36/36 38/38/38 7/7/7 
f 38/38/38 39/39/39 7/7/7 
f 40/40/40 28/28/28 14/14/14 
f 17/17/17 40/40/40 14/14/14 
f 23/23/23 40/40/40 17/17/17 
f 7/7/7 39/39/39 4/4/4 
f 39/39/39 41/41/41 4/4/4 
f 4/4/4 41/41/41 1/1/1 
f 41/41/41 42/42/42 1/1/1 
f 1/1/1 42/42/42 6/6/6 
f 42/42/42 43/43/43 6/6/6 
f 6/6/6 43/43/43 5/5/5 
f 43/43/43 44/44/44 5/5/5 
f 5/5/5 44/44/44 3/3/3 
f 44/44/44 18/18/18 3/3/3 
f 42/42/42 41/41/41 45/45/45 
f 41/41/41 46/46/46 45/45/45 
f 41/41/41 39/39/39 46/46/46 
f 46/46/46 47/47/47 45/45/45 
f 47/47/47 48/48/48 45/45/45 
f 18/18/18 48/48/48 47/47/47 
f 18/18/18 44/44/44 48/48/48 
f 48/48/48 49/49/49 45/45/45 
f 44/44/44 43/43/43 49/49/49 
f 44/44/44 49/49/49 48/48/48 
f 49/49/49 50/50/50 45/45/45 
f 43/43/43 42/42/42 50/50/50 
f 42/42/42 45/45/45 50/50/50 
f 43/43/43 50/50/50 49/49/49 
f 46/46/46 51/51/51 47/47/47 
f 51/51/51 52/52/52 47/47/47 
f 52/52/52 53/53/53 47/47/47 
f 47/47/47 53/53/53 54/54/54 
f 53/53/53 55/55/55 54/54/54 
f 54/54/54 55/55/55 56/56/56 
f 55/55/55 57/57/57 56/56/56 
f 52/52/52 58/58/58 53/53/53 
f 58/58/58 52/52/52 59/59/59 
f 52/52/52 60/60/60 59/59/59 
f 58/58/58 61/61/61 53/53/53 
f 19/19/19 56/56/56 57/57/57 
f 20/20/20 19/19/19 57/57/57 
f 20/20/20 57/57/57 55/55/55 
f 21/21/21 20/20/20 55/55/55 
f 21/21/21 55/55/55 53/53/53 
f 19/19/19 22/22/22 56/56/56 
f 22/22/22 54/54/54 56/56/56 
f 23/23/23 21/21/21 53/53/53 
f 23/23/23 53/53/53 61/61/61 
f 22/22/22 24/24/24 54/54/54 
f 24/24/24 47/47/47 54/54/54 
f 24/24/24 18/18/18 47/47/47 
f 25/25/25 59/59/59 60/60/60 
f 26/26/26 25/25/25 60/60/60 
f 26/26/26 60/60/60 52/52/52 
f 27/27/27 26/26/26 52/52/52 
f 25/25/25 28/28/28 59/59/59 
f 28/28/28 58/58/58 59/59/59 
f 27/27/27 52/52/52 62/62/62 
f 52/52/52 63/63/63 62/62/62 
f 63/63/63 64/64/64 62/62/62 
f 32/32/32 62/62/62 64/64/64 
f 32/32/32 27/27/27 62/62/62 
f 33/33/33 32/32/32 64/64/64 
f 33/33/33 64/64/64 63/63/63 
f 34/34/34 33/33/33 63/63/63 
f 34/34/34 63/63/63 65/65/65 
f 63/63/63 51/51/51 65/65/65 
f 51/51/51 63/63/63 52/52/52 
f 51/51/51 66/66/66 65/65/65 
f 37/37/37 65/65/65 66/66/66 
f 37/37/37 34/34/34 65/65/65 
f 38/38/38 37/37/37 66/66/66 
f 38/38/38 66/66/66 51/51/51 
f 39/39/39 38/38/38 51/51/51 
f 28/28/28 40/40/40 58/58/58 
f 40/40/40 61/61/61 58/58/58 
f 40/40/40 23/23/23 61/61/61 
f 39/39/39 51/51/51 46/46/46 
f 69/69/69 68/68/68 67/67/67 
f 68/68/68 70/70/70 67/67/67 
f 71/71/71 67/67/67 70/70/70 
f 72/72/72 71/71/71 70/70/70 
f 73/73/73 68/68/68 69/69/69 
f 74/74/74 73/73/73 69/69/69 
f 75/75/75 73/73/73 74/74/74 
f 76/76/76 75/75/75 74/74/74 
f 67/67/67 77/77/77 69/69/69 
f 77/77/77 78/78/78 69/69/69 
f 69/69/69 78/78/78 74/74/74 
f 71/71/71 79/79/79 67/67/67 
f 79/79/79 77/77/77 67/67/67 
f 78/78/78 80/80/80 74/74/74 
f 80/80/80 76/76/76 74/74/74 
f 70/70/70 68/68/68 81/81/81 
f 77/77/77 79/79/79 81/81/81 
f 68/68/68 82/82/82 81/81/81 
f 68/68/68 73/73/73 82/82/82 
f 78/78/78 77/77/77 82/82/82 
f 77/77/77 81/81/81 82/82/82 
f 81/81/81 83/83/83 70/70/70 
f 83/83/83 72/72/72 70/70/70 
f 79/79/79 83/83/83 81/81/81 
f 73/73/73 84/84/84 82/82/82 
f 75/75/75 76/76/76 84/84/84 
f 73/73/73 75/75/75 84/84/84 
f 80/80/80 78/78/78 84/84/84 
f 78/78/78 82/82/82 84/84/84 
f 76/76/76 80/80/80 84/84/84 
f 87/87/87 86/86/86 85/85/85 
f 86/86/86 88/88/88 85/85/85 
f 89/89/89 86/86/86 87/87/87 
f 90/90/90 89/89/89 87/87/87 
f 88/88/88 91/91/91 85/85/85 
f 91/91/91 92/92/92 85/85/85 
f 91/91/91 89/89/89 92/92/92 
f 89/89/89 90/90/90 92/92/92 
f 95/95/95 94/94/94 93/93/93 
f 94/94/94 96/96/96 93/93/93 
f 97/97/97 94/94/94 95/95/95 
f 98/98/98 97/97/97 95/95/95 
f 94/94/94 99/99/99 96/96/96 
f 99/99/99 100/100/100 96/96/96 
f 97/97/97 101/101/101 94/94/94 
f 101/101/101 99/99/99 94/94/94 
f 99/99/99 102/102/102 100/100/100 
f 101/101/101 102/102/102 99/99/99 
f 96/96/96 103/103/103 93/93/93 
f 101/101/101 97/97/97 103/103/103 
f 103/103/103 104/104/104 93/93/93 
f 103/103/103 97/97/97 104/104/104 
f 97/97/97 98/98/98 104/104/104 
f 100/100/100 105/105/105 96/96/96 
f 105/105/105 103/103/103 96/96/96 
f 105/105/105 101/101/101 103/103/103 
f 102/102/102 105/105/105 100/100/100 
f 102/102/102 101/101/101 105/105/105 
f 108/108/108 107/107/107 106/106/106 
f 107/107/107 109/109/109 106/106/106 
f 108/108/108 106/106/106 110/110/110 
f 111/111/111 108/108/108 110/110/110 
f 109/109/109 107/107/107 112/112/112 
f 107/107/107 113/113/113 112/112/112 
f 112/112/112 113/113/113 110/110/110 
f 113/113/113 111/111/111 110/110/110 

