# Created by DisUnity v0.3.4
v -0.0 -0.017902588 -0.52074766
v 0.040215295 0.0072023114 -0.3030557
v 0.02287823 2.5330036E-4 -0.4881793
v -0.0 -0.027128054 -0.3030557
v -0.0 0.045361385 -0.3030557
v -0.0 0.023741953 -0.43260837
v 0.042836793 0.0054437327 -0.21415828
v -0.0 -0.031292107 -0.19629309
v 0.051278822 0.005112821 -0.19743043
v 0.04382483 0.00478093 -0.18065311
v 0.047304664 0.0024465567 -0.06264877
v -0.0 -0.037420347 -0.03917032
v 0.05793537 0.0020488694 -0.04251526
v -0.0 0.046034873 -0.040705774
v 0.048640575 0.0015503847 -0.017346611
v -0.0 0.04564188 -0.19379127
v -0.0 -0.04325973 0.11054657
v 0.05187154 -6.170375E-4 0.092218205
v 0.05917674 -9.241736E-4 0.10774418
v -0.0 0.046422787 0.110398255
v 0.052858993 -0.0012794533 0.12570381
v 0.056680746 -0.003843192 0.25530273
v -0.0 -0.048893403 0.25498885
v -0.0 0.046794776 0.25530273
v -0.056680746 -0.003843192 0.25530273
v -0.052858993 -0.0012794533 0.12570381
v -0.05917674 -9.241736E-4 0.10774418
v -0.05187154 -6.170375E-4 0.092218205
v -0.047304664 0.0024465567 -0.06264877
v -0.05793537 0.0020488694 -0.04251526
v -0.048640575 0.0015503847 -0.017346611
v -0.04382483 0.00478093 -0.18065311
v -0.051278822 0.005112821 -0.19743043
v -0.042836793 0.0054437327 -0.21415828
v -0.040215295 0.0072023114 -0.3030557
v -0.02287823 2.5330036E-4 -0.4881793
v -0.0 -0.05100135 0.348427
v 0.05567948 -0.0142180035 0.34911785
v -0.0 -0.0551528 0.27797717
v 0.07004735 -0.0077980286 0.28160864
v 0.056680746 -0.003843192 0.25530273
v -0.0 0.04891607 0.28160864
v -0.0 0.046794776 0.25530273
v -0.0 0.005024876 0.339069
v 0.03020418 -0.0110787 0.42167172
v -0.0 -0.0302728 0.42421335
v -0.0 -0.011541287 0.4201852
v -0.0 -0.048893403 0.25498885
v -0.05567948 -0.0142180035 0.34911785
v -0.056680746 -0.003843192 0.25530273
v -0.07004735 -0.0077980286 0.28160864
v -0.03020418 -0.0110787 0.42167172
v -0.0 0.023741953 -0.43260837
v -0.0 -0.017902588 -0.52074766
v 0.02287823 2.5330036E-4 -0.4881793
v -0.02287823 2.5330036E-4 -0.4881793
v 0.29518023 -0.0050564096 0.17003883
v 0.33759037 -0.0050562313 0.18682072
v 0.32562134 -0.0050569605 0.14969051
v 0.30394357 -0.005056094 0.187602
v 0.29191735 -0.005055897 0.19880268
v 0.3340822 -0.005055672 0.2099332
v 0.29530838 -0.0050533265 0.29748416
v 0.2703531 -0.005055276 0.2280741
v 0.2823286 -0.005056334 0.18572079
v 0.2515221 -0.0050564897 0.17725182
v 0.27161425 -0.005054443 0.26845607
v 0.24984436 -0.0050535295 0.30565378
v 0.28480154 -0.005052942 0.30897632
v 0.25862923 -0.00505272 0.34273043
v 0.19821429 -0.005055205 0.23100315
v 0.1975869 -0.0050544958 0.2648347
v 0.1651263 -0.0050542234 0.27884123
v 0.13544746 -0.005055226 0.2323238
v 0.13383299 -0.0050546704 0.2592319
v 0.05070793 -0.0050553074 0.23232242
v 0.05066 -0.005054748 0.25923443
v 0.16642556 -0.005055571 0.21515651
v 0.2997355 -0.005052394 0.3558208
v 0.29600143 -0.0050529116 0.31916934
v 0.3347866 -0.005052846 0.3320702
v 0.30527624 -0.005053201 0.30631435
v 0.32942924 -0.0050540334 0.28599456
v 0.34951004 -0.005054426 0.26591033
v 0.34768403 -0.005055281 0.22713554
v 0.36123955 -0.0050545544 0.25849113
v 0.3627175 -0.0050551174 0.23301437
v 0.38249373 -0.0050552804 0.22377063
v 0.38039207 -0.0050542685 0.2720309
v 0.40183702 -0.0050544087 0.26362708
v 0.40428433 -0.0050550615 0.23367473
v 0.42336968 -0.00505521 0.22509135
v 0.42435804 -0.0050542355 0.2720309
v 0.4480191 -0.005054419 0.26129264
v 0.4491477 -0.0050550317 0.23301479
v 0.46581352 -0.0050543044 0.2642395
v 0.4682763 -0.0050550597 0.23037365
v 0.5008112 -0.005055256 0.21470363
v 0.50064504 -0.005054013 0.28245956
v 0.6740356 -0.00505382 0.29143375
v 0.67589635 -0.0050551803 0.20669387
v 0.2830696 -0.0050573014 0.138568
v 0.29518023 -0.0032583815 0.17003883
v 0.33759037 -0.0032582032 0.18682072
v 0.30394357 -0.0032580656 0.187602
v 0.32562134 -0.0032589321 0.14969051
v 0.29191735 -0.0032578688 0.19880268
v 0.3340822 -0.0032576434 0.2099332
v 0.29530838 -0.0032552981 0.29748416
v 0.2703531 -0.0032572476 0.2280741
v 0.2823286 -0.0032583056 0.18572079
v 0.2515221 -0.0032584614 0.17725182
v 0.27161425 -0.003256415 0.26845607
v 0.24984436 -0.0032555014 0.30565378
v 0.28480154 -0.0032549137 0.30897632
v 0.25862923 -0.0032546918 0.34273043
v 0.19821429 -0.0032571768 0.23100315
v 0.1975869 -0.0032564674 0.2648347
v 0.1651263 -0.0032561952 0.27884123
v 0.13544746 -0.0032571976 0.2323238
v 0.16642556 -0.0032575428 0.21515651
v 0.13383299 -0.0032566423 0.2592319
v 0.05070793 -0.0032572793 0.23232242
v 0.05066 -0.0032567196 0.25923443
v 0.2997355 -0.0032543652 0.3558208
v 0.29600143 -0.0032548832 0.31916934
v 0.3347866 -0.0032548176 0.3320702
v 0.30527624 -0.0032551729 0.30631435
v 0.32942924 -0.003256005 0.28599456
v 0.34951004 -0.0032563978 0.26591033
v 0.34768403 -0.0032572525 0.22713554
v 0.36123955 -0.0032565258 0.25849113
v 0.3627175 -0.0032570893 0.23301437
v 0.38249373 -0.0032572518 0.22377063
v 0.38039207 -0.0032562404 0.2720309
v 0.40183702 -0.0032563806 0.26362708
v 0.40428433 -0.0032570332 0.23367473
v 0.42336968 -0.0032571815 0.22509135
v 0.42435804 -0.003256207 0.2720309
v 0.4480191 -0.0032563906 0.26129264
v 0.4491477 -0.0032570034 0.23301479
v 0.46581352 -0.0032562762 0.2642395
v 0.4682763 -0.0032570313 0.23037365
v 0.5008112 -0.003257228 0.21470363
v 0.50064504 -0.0032559847 0.28245956
v 0.6740356 -0.0032557915 0.29143375
v 0.67589635 -0.0032571517 0.20669387
v 0.2830696 -0.003259273 0.138568
vn -0.0 -0.28823987 -0.95755816
vn 0.99808466 -0.012941865 -0.06049307
vn 0.8179374 0.25771657 -0.51435447
vn -0.0 -0.99909353 -0.042567804
vn -0.0 0.997799 -0.06630999
vn -0.0 0.9795746 -0.20108075
vn 0.9745993 -0.024622742 -0.22259815
vn -0.0 -0.99917173 -0.040693138
vn 0.99936527 -0.021263996 -0.028583374
vn 0.9836578 -0.03490171 0.1766332
vn 0.97325677 -0.029526738 -0.2278146
vn -0.0 -0.9992459 -0.03882782
vn 0.9978046 -0.021411007 -0.06267028
vn -0.0 0.9999943 -0.0034037374
vn 0.9905562 -0.030928928 0.1335734
vn -0.0 0.99999297 -0.0037729011
vn -0.0 -0.9991358 -0.041566927
vn 0.97481185 -0.028909443 -0.22114728
vn 0.9984773 -0.022673199 -0.05028986
vn -0.0 0.9999919 -0.0040192325
vn 0.989488 -0.03181792 0.14107114
vn 0.9698229 0.0122130895 -0.24350432
vn -0.0 -0.9873267 -0.15870093
vn -0.0 0.9990503 -0.043570247
vn -0.9698229 0.0122130895 -0.24350432
vn -0.989488 -0.031817883 0.14107117
vn -0.9984773 -0.022673178 -0.050289858
vn -0.97481185 -0.028909443 -0.22114727
vn -0.97325677 -0.029526738 -0.22781458
vn -0.9978046 -0.02141103 -0.062670246
vn -0.9905562 -0.030928917 0.13357337
vn -0.9836578 -0.03490171 0.1766332
vn -0.99936527 -0.021263996 -0.028583305
vn -0.9745993 -0.024622692 -0.22259809
vn -0.99808466 -0.012941865 -0.06049307
vn -0.8179374 0.25771657 -0.51435447
vn -0.0 -0.9877308 0.15616624
vn 0.960681 0.091421455 0.26217192
vn -0.0 -0.9919001 -0.12702073
vn 0.9991819 -0.002115494 -0.04038423
vn 0.9698229 0.0122130895 -0.24350432
vn -0.0 0.972243 0.23397325
vn -0.0 0.9990503 -0.043570247
vn -0.0 0.9584425 0.28528556
vn 0.66719824 0.23002464 0.7084739
vn -0.0 -0.64246213 0.7663174
vn -0.0 0.7167981 0.69728076
vn -0.0 -0.9873267 -0.15870093
vn -0.960681 0.091421455 0.26217192
vn -0.9698229 0.0122130895 -0.24350432
vn -0.9991819 -0.0021154513 -0.04038423
vn -0.6671983 0.23002464 0.7084738
vn -0.0 0.9795746 -0.20108075
vn -0.0 -0.28823987 -0.95755816
vn 0.8179374 0.25771657 -0.51435447
vn -0.8179374 0.25771657 -0.51435447
vn 6.8278155E-6 -1.0 2.2606302E-5
vn -2.6555242E-6 -1.0 2.1481703E-5
vn -2.2063398E-6 -1.0 2.3765278E-5
vn -3.7121476E-6 -1.0 1.636384E-5
vn 3.1813697E-6 -1.0 2.5035433E-5
vn -1.8895354E-6 -1.0 2.408088E-5
vn 8.928298E-7 -1.0 2.8514776E-5
vn 4.4518188E-6 -1.0 2.3786028E-5
vn 3.857624E-6 -1.0 2.3342674E-5
vn -1.082793E-6 -1.0 2.230793E-5
vn 1.3166488E-5 -1.0 2.2588843E-5
vn 1.29182245E-5 -1.0 2.5709991E-5
vn 8.835571E-6 -1.0 2.8809394E-5
vn 9.081098E-6 -1.0 1.3610268E-5
vn 2.9376739E-7 -1.0 2.1015061E-5
vn 2.2544751E-7 -1.0 2.0969674E-5
vn 8.526988E-7 -1.0 2.0968775E-5
vn 9.4478236E-7 -1.0 2.0914362E-5
vn 1.1488808E-6 -1.0 2.0722104E-5
vn 9.384358E-7 -1.0 2.0779518E-5
vn 9.3225464E-7 -1.0 2.0798614E-5
vn 7.8515177E-7 -1.0 2.151962E-5
vn -5.330342E-7 -1.0 1.2718167E-5
vn -7.5575854E-6 -1.0 1.6095997E-5
vn -6.4817023E-6 -1.0 1.9917075E-5
vn -9.375402E-6 -1.0 2.4604376E-5
vn -1.0186073E-5 -1.0 2.3046578E-5
vn 2.2915933E-6 -1.0 2.1766544E-5
vn 1.3885374E-6 -1.0 2.2041215E-5
vn 1.68415E-6 -1.0 2.1621325E-5
vn 2.1665783E-6 -1.0 2.2234617E-5
vn 9.862299E-7 -1.0 2.1559164E-5
vn 9.575625E-7 -1.0 2.1000778E-5
vn 8.9271157E-7 -1.0 2.1142592E-5
vn 1.1545644E-6 -1.0 2.1884636E-5
vn 1.0064297E-6 -1.0 2.132572E-5
vn 7.9129234E-7 -1.0 2.074485E-5
vn 1.9433123E-6 -1.0 2.13683E-5
vn 1.1017323E-6 -1.0 2.1945427E-5
vn 1.2654323E-6 -1.0 2.0594563E-5
vn 3.5903206E-6 -1.0 2.2560569E-5
vn 8.9254587E-7 -1.0 1.8762232E-5
vn -3.968729E-7 -1.0 1.8349494E-5
vn 9.3249446E-7 -1.0 1.6615915E-5
vn 1.1712375E-6 -1.0 1.6076932E-5
vn 3.8628596E-6 -1.0 2.4154768E-5
vn -6.8278146E-6 1.0 -2.2606306E-5
vn 2.6555242E-6 1.0 -2.1481703E-5
vn 3.7121476E-6 1.0 -1.636384E-5
vn 2.2063396E-6 1.0 -2.3765278E-5
vn -3.181369E-6 1.0 -2.5035433E-5
vn 1.8895356E-6 1.0 -2.408088E-5
vn -8.9283E-7 1.0 -2.8514776E-5
vn -4.451819E-6 1.0 -2.378603E-5
vn -3.857623E-6 1.0 -2.3342676E-5
vn 1.0827932E-6 1.0 -2.2307933E-5
vn -1.31664865E-5 1.0 -2.2588843E-5
vn -1.29182245E-5 1.0 -2.5709991E-5
vn -8.835571E-6 1.0 -2.8809394E-5
vn -9.081098E-6 1.0 -1.3610268E-5
vn -2.937672E-7 1.0 -2.1015061E-5
vn -2.2544674E-7 1.0 -2.096967E-5
vn -8.526984E-7 1.0 -2.0968775E-5
vn -9.4478236E-7 1.0 -2.0914362E-5
vn -7.8515177E-7 1.0 -2.151962E-5
vn -1.1488808E-6 1.0 -2.0722104E-5
vn -9.384358E-7 1.0 -2.0779518E-5
vn -9.3225464E-7 1.0 -2.0798614E-5
vn 5.330343E-7 1.0 -1.271817E-5
vn 7.5575854E-6 1.0 -1.6095997E-5
vn 6.4817023E-6 1.0 -1.9917075E-5
vn 9.375402E-6 1.0 -2.4604376E-5
vn 1.0186071E-5 1.0 -2.3046578E-5
vn -2.2915933E-6 1.0 -2.176654E-5
vn -1.3885374E-6 1.0 -2.2041215E-5
vn -1.68415E-6 1.0 -2.1621325E-5
vn -2.1665783E-6 1.0 -2.2234617E-5
vn -9.862299E-7 1.0 -2.1559164E-5
vn -9.575625E-7 1.0 -2.1000778E-5
vn -8.9271157E-7 1.0 -2.1142592E-5
vn -1.1545644E-6 1.0 -2.1884636E-5
vn -1.0064296E-6 1.0 -2.132572E-5
vn -7.9129234E-7 1.0 -2.074485E-5
vn -1.9433123E-6 1.0 -2.1368302E-5
vn -1.1017323E-6 1.0 -2.1945427E-5
vn -1.2654323E-6 1.0 -2.0594563E-5
vn -3.5903206E-6 1.0 -2.2560569E-5
vn -8.9254587E-7 1.0 -1.8762234E-5
vn 3.968729E-7 1.0 -1.8349494E-5
vn -9.3249446E-7 1.0 -1.6615915E-5
vn -1.1712375E-6 1.0 -1.6076932E-5
vn -3.8628586E-6 1.0 -2.4154771E-5
vt 0.02926489 0.98260814
vt 0.17160504 0.7121935
vt 0.13588892 0.94128805
vt 0.02926489 0.71323276
vt 0.31629884 0.7169063
vt 0.24302088 0.8772517
vt 0.17639087 0.60263896
vt 0.02926489 0.5813889
vt 0.17729142 0.58202404
vt 0.17819464 0.56134814
vt 0.18454745 0.41592312
vt 0.02926489 0.38735402
vt 0.18562973 0.39114833
vt 0.36464474 0.3913797
vt 0.18698633 0.36009413
vt 0.33643413 0.5813298
vt 0.02926489 0.20246476
vt 0.1928848 0.22506976
vt 0.19372064 0.20593601
vt 0.3924902 0.20388824
vt 0.1946875 0.18380308
vt 0.20166454 0.024089277
vt 0.02926489 0.024089277
vt 0.41919324 0.024089277
vt 0.20166454 0.024089277
vt 0.1946875 0.18380308
vt 0.19372064 0.20593601
vt 0.1928848 0.22506976
vt 0.18454745 0.41592312
vt 0.18562973 0.39114833
vt 0.18698633 0.36009413
vt 0.17819464 0.56134814
vt 0.17729142 0.58202404
vt 0.17639087 0.60263896
vt 0.17160504 0.7121935
vt 0.13588892 0.94128805
vt 0.6718159 0.0530805
vt 0.72303504 0.14519542
vt 0.88848335 0.0420295
vt 0.88848335 0.15780985
vt 0.9706945 0.15865368
vt 0.8884834 0.28524655
vt 0.97069454 0.2893656
vt 0.68082297 0.22711837
vt 0.54983497 0.14084679
vt 0.49534264 0.09290147
vt 0.47384074 0.1627186
vt 0.9706945 0.041469336
vt 0.72303504 0.14519542
vt 0.9706945 0.15865368
vt 0.88848335 0.15780985
vt 0.54983497 0.14084679
vt 0.3035391 0.9030945
vt 0.21049772 0.97446615
vt 0.2832716 0.9579517
vt 0.2832716 0.9579517
vt 0.5528388 0.598835
vt 0.5726667 0.63235915
vt 0.5007548 0.6220162
vt 0.5853692 0.60378814
vt 0.5934863 0.59354603
vt 0.62001956 0.62552917
vt 0.790507 0.5950803
vt 0.6375465 0.57064164
vt 0.5589742 0.58763975
vt 0.551603 0.5582303
vt 0.7441843 0.56891274
vt 0.81221676 0.55633795
vt 0.8303758 0.58783966
vt 0.89192665 0.5668018
vt 0.6603332 0.4944837
vt 0.74160624 0.4912722
vt 0.78739274 0.4587862
vt 0.6671302 0.42791992
vt 0.72604984 0.42623895
vt 0.6671165 0.34440356
vt 0.72604656 0.344352
vt 0.61823237 0.46014243
vt 0.91677946 0.6029769
vt 0.84089303 0.5974464
vt 0.8723185 0.63000727
vt 0.81373024 0.60570776
vt 0.7656611 0.628034
vt 0.72845745 0.63722837
vt 0.65334475 0.6358457
vt 0.7210199 0.6542072
vt 0.65334946 0.6557467
vt 0.62879765 0.67631745
vt 0.75699157 0.6741271
vt 0.7346738 0.6964333
vt 0.655113 0.6989814
vt 0.63231564 0.7174946
vt 0.7570043 0.7211961
vt 0.7284844 0.7444688
vt 0.65337044 0.74564517
vt 0.7433718 0.7609773
vt 0.64635885 0.7655416
vt 0.61661863 0.7996472
vt 0.7762285 0.80242515
vt 0.7938665 0.95897126
vt 0.5991583 0.9573938
vt 0.4691763 0.5821923
vt 0.5528388 0.598835
vt 0.5726667 0.63235915
vt 0.5853692 0.60378814
vt 0.5007548 0.6220162
vt 0.5934863 0.59354603
vt 0.62001956 0.62552917
vt 0.790507 0.5950803
vt 0.6375465 0.57064164
vt 0.5589742 0.58763975
vt 0.551603 0.5582303
vt 0.7441843 0.56891274
vt 0.81221676 0.55633795
vt 0.8303758 0.58783966
vt 0.89192665 0.5668018
vt 0.6603332 0.4944837
vt 0.74160624 0.4912722
vt 0.78739274 0.4587862
vt 0.6671302 0.42791992
vt 0.61823237 0.46014243
vt 0.72604984 0.42623895
vt 0.6671165 0.34440356
vt 0.72604656 0.344352
vt 0.91677946 0.6029769
vt 0.84089303 0.5974464
vt 0.8723185 0.63000727
vt 0.81373024 0.60570776
vt 0.7656611 0.628034
vt 0.72845745 0.63722837
vt 0.65334475 0.6358457
vt 0.7210199 0.6542072
vt 0.65334946 0.6557467
vt 0.62879765 0.67631745
vt 0.75699157 0.6741271
vt 0.7346738 0.6964333
vt 0.655113 0.6989814
vt 0.63231564 0.7174946
vt 0.7570043 0.7211961
vt 0.7284844 0.7444688
vt 0.65337044 0.74564517
vt 0.7433718 0.7609773
vt 0.64635885 0.7655416
vt 0.61661863 0.7996472
vt 0.7762285 0.80242515
vt 0.7938665 0.95897126
vt 0.5991583 0.9573938
vt 0.4691763 0.5821923

g huang_yue_ying_3_w_0
s 1
usemtl huang_yue_ying_3_w_0
f 3/3/3 2/2/2 1/1/1 
f 4/4/4 1/1/1 2/2/2 
f 2/2/2 3/3/3 5/5/5 
f 6/6/6 5/5/5 3/3/3 
f 2/2/2 7/7/7 4/4/4 
f 2/2/2 5/5/5 7/7/7 
f 8/8/8 4/4/4 7/7/7 
f 7/7/7 9/9/9 8/8/8 
f 9/9/9 10/10/10 8/8/8 
f 10/10/10 11/11/11 8/8/8 
f 12/12/12 8/8/8 11/11/11 
f 11/11/11 13/13/13 12/12/12 
f 11/11/11 14/14/14 13/13/13 
f 13/13/13 15/15/15 12/12/12 
f 13/13/13 14/14/14 15/15/15 
f 10/10/10 16/16/16 11/11/11 
f 14/14/14 11/11/11 16/16/16 
f 7/7/7 16/16/16 9/9/9 
f 9/9/9 16/16/16 10/10/10 
f 16/16/16 7/7/7 5/5/5 
f 12/12/12 15/15/15 17/17/17 
f 18/18/18 17/17/17 15/15/15 
f 18/18/18 19/19/19 17/17/17 
f 18/18/18 20/20/20 19/19/19 
f 14/14/14 20/20/20 15/15/15 
f 18/18/18 15/15/15 20/20/20 
f 21/21/21 19/19/19 20/20/20 
f 19/19/19 21/21/21 17/17/17 
f 21/21/21 22/22/22 17/17/17 
f 23/23/23 17/17/17 22/22/22 
f 22/22/22 21/21/21 24/24/24 
f 20/20/20 24/24/24 21/21/21 
f 23/23/23 25/25/25 17/17/17 
f 26/26/26 17/17/17 25/25/25 
f 20/20/20 26/26/26 24/24/24 
f 25/25/25 24/24/24 26/26/26 
f 27/27/27 26/26/26 20/20/20 
f 26/26/26 27/27/27 17/17/17 
f 27/27/27 28/28/28 17/17/17 
f 20/20/20 28/28/28 27/27/27 
f 14/14/14 16/16/16 29/29/29 
f 14/14/14 29/29/29 30/30/30 
f 30/30/30 29/29/29 12/12/12 
f 31/31/31 30/30/30 12/12/12 
f 14/14/14 30/30/30 31/31/31 
f 28/28/28 20/20/20 31/31/31 
f 14/14/14 31/31/31 20/20/20 
f 12/12/12 29/29/29 8/8/8 
f 32/32/32 8/8/8 29/29/29 
f 32/32/32 29/29/29 16/16/16 
f 28/28/28 31/31/31 17/17/17 
f 12/12/12 17/17/17 31/31/31 
f 32/32/32 33/33/33 8/8/8 
f 16/16/16 33/33/33 32/32/32 
f 33/33/33 34/34/34 8/8/8 
f 16/16/16 34/34/34 33/33/33 
f 8/8/8 34/34/34 4/4/4 
f 35/35/35 4/4/4 34/34/34 
f 4/4/4 35/35/35 1/1/1 
f 36/36/36 1/1/1 35/35/35 
f 35/35/35 5/5/5 36/36/36 
f 16/16/16 5/5/5 34/34/34 
f 35/35/35 34/34/34 5/5/5 
f 6/6/6 36/36/36 5/5/5 
f 39/39/39 38/38/38 37/37/37 
f 40/40/40 38/38/38 39/39/39 
f 41/41/41 40/40/40 39/39/39 
f 40/40/40 41/41/41 42/42/42 
f 43/43/43 42/42/42 41/41/41 
f 40/40/40 44/44/44 38/38/38 
f 42/42/42 44/44/44 40/40/40 
f 38/38/38 44/44/44 45/45/45 
f 38/38/38 45/45/45 37/37/37 
f 46/46/46 37/37/37 45/45/45 
f 45/45/45 47/47/47 46/46/46 
f 44/44/44 47/47/47 45/45/45 
f 39/39/39 48/48/48 41/41/41 
f 49/49/49 39/39/39 37/37/37 
f 43/43/43 50/50/50 42/42/42 
f 48/48/48 39/39/39 50/50/50 
f 51/51/51 42/42/42 50/50/50 
f 51/51/51 50/50/50 39/39/39 
f 49/49/49 51/51/51 39/39/39 
f 44/44/44 51/51/51 49/49/49 
f 44/44/44 42/42/42 51/51/51 
f 47/47/47 52/52/52 46/46/46 
f 44/44/44 49/49/49 52/52/52 
f 49/49/49 37/37/37 52/52/52 
f 46/46/46 52/52/52 37/37/37 
f 47/47/47 44/44/44 52/52/52 
f 55/55/55 54/54/54 53/53/53 
f 54/54/54 56/56/56 53/53/53 
f 59/59/59 58/58/58 57/57/57 
f 60/60/60 57/57/57 58/58/58 
f 60/60/60 58/58/58 61/61/61 
f 62/62/62 61/61/61 58/58/58 
f 63/63/63 61/61/61 62/62/62 
f 61/61/61 63/63/63 64/64/64 
f 61/61/61 64/64/64 65/65/65 
f 66/66/66 65/65/65 64/64/64 
f 67/67/67 64/64/64 63/63/63 
f 67/67/67 63/63/63 68/68/68 
f 69/69/69 68/68/68 63/63/63 
f 68/68/68 69/69/69 70/70/70 
f 64/64/64 67/67/67 71/71/71 
f 72/72/72 71/71/71 67/67/67 
f 73/73/73 71/71/71 72/72/72 
f 74/74/74 71/71/71 73/73/73 
f 75/75/75 74/74/74 73/73/73 
f 74/74/74 75/75/75 76/76/76 
f 77/77/77 76/76/76 75/75/75 
f 78/78/78 71/71/71 74/74/74 
f 70/70/70 69/69/69 79/79/79 
f 80/80/80 79/79/79 69/69/69 
f 79/79/79 80/80/80 81/81/81 
f 80/80/80 82/82/82 81/81/81 
f 83/83/83 81/81/81 82/82/82 
f 82/82/82 63/63/63 83/83/83 
f 83/83/83 63/63/63 62/62/62 
f 83/83/83 62/62/62 84/84/84 
f 85/85/85 84/84/84 62/62/62 
f 84/84/84 85/85/85 86/86/86 
f 87/87/87 86/86/86 85/85/85 
f 87/87/87 88/88/88 86/86/86 
f 89/89/89 86/86/86 88/88/88 
f 89/89/89 88/88/88 90/90/90 
f 91/91/91 90/90/90 88/88/88 
f 91/91/91 92/92/92 90/90/90 
f 93/93/93 90/90/90 92/92/92 
f 93/93/93 92/92/92 94/94/94 
f 95/95/95 94/94/94 92/92/92 
f 94/94/94 95/95/95 96/96/96 
f 97/97/97 96/96/96 95/95/95 
f 97/97/97 98/98/98 96/96/96 
f 99/99/99 96/96/96 98/98/98 
f 99/99/99 98/98/98 100/100/100 
f 101/101/101 100/100/100 98/98/98 
f 102/102/102 59/59/59 57/57/57 
f 65/65/65 102/102/102 57/57/57 
f 102/102/102 65/65/65 66/66/66 
f 105/105/105 104/104/104 103/103/103 
f 106/106/106 103/103/103 104/104/104 
f 105/105/105 107/107/107 104/104/104 
f 108/108/108 104/104/104 107/107/107 
f 107/107/107 109/109/109 108/108/108 
f 107/107/107 110/110/110 109/109/109 
f 107/107/107 111/111/111 110/110/110 
f 112/112/112 110/110/110 111/111/111 
f 113/113/113 109/109/109 110/110/110 
f 113/113/113 114/114/114 109/109/109 
f 115/115/115 109/109/109 114/114/114 
f 115/115/115 114/114/114 116/116/116 
f 110/110/110 117/117/117 113/113/113 
f 118/118/118 113/113/113 117/117/117 
f 117/117/117 119/119/119 118/118/118 
f 120/120/120 119/119/119 117/117/117 
f 121/121/121 120/120/120 117/117/117 
f 122/122/122 119/119/119 120/120/120 
f 120/120/120 123/123/123 122/122/122 
f 124/124/124 122/122/122 123/123/123 
f 116/116/116 125/125/125 115/115/115 
f 126/126/126 115/115/115 125/125/125 
f 126/126/126 125/125/125 127/127/127 
f 126/126/126 127/127/127 128/128/128 
f 129/129/129 128/128/128 127/127/127 
f 109/109/109 128/128/128 129/129/129 
f 109/109/109 129/129/129 108/108/108 
f 129/129/129 130/130/130 108/108/108 
f 131/131/131 108/108/108 130/130/130 
f 130/130/130 132/132/132 131/131/131 
f 133/133/133 131/131/131 132/132/132 
f 133/133/133 132/132/132 134/134/134 
f 135/135/135 134/134/134 132/132/132 
f 135/135/135 136/136/136 134/134/134 
f 137/137/137 134/134/134 136/136/136 
f 137/137/137 136/136/136 138/138/138 
f 139/139/139 138/138/138 136/136/136 
f 139/139/139 140/140/140 138/138/138 
f 141/141/141 138/138/138 140/140/140 
f 140/140/140 142/142/142 141/141/141 
f 143/143/143 141/141/141 142/142/142 
f 143/143/143 142/142/142 144/144/144 
f 145/145/145 144/144/144 142/142/142 
f 145/145/145 146/146/146 144/144/144 
f 147/147/147 144/144/144 146/146/146 
f 106/106/106 148/148/148 103/103/103 
f 148/148/148 111/111/111 103/103/103 
f 111/111/111 148/148/148 112/112/112 

