# Created by DisUnity v0.3.4
v -0.1770841 -0.015881719 -0.008498868
v -0.18062109 -0.07923182 0.079858094
v -0.17648296 0.028933953 0.09061669
v -0.14470164 0.024988277 0.08503911
v -0.14859128 -0.07668211 0.074926496
v -0.1448325 0.0152327595 0.06346337
v -0.14782134 -0.06289194 0.055692792
v -0.12776345 -0.05510445 0.043984864
v -0.12533374 0.008405526 0.050301857
v 0.20426151 -0.0045894547 0.054178603
v 0.20183179 -0.06809946 0.0478616
v 0.2216966 -0.0784141 0.06136615
v 0.22474755 0.0013343359 0.06929838
v 0.33488464 -0.0030080543 0.07059382
v 0.3318337 -0.08275649 0.062661596
v 0.3344414 -0.03604965 -0.0024822056
v -0.17294598 0.092284076 0.0022597203
v -0.14137706 0.084534205 0.0019879653
v -0.14227785 0.06098853 -3.5406137E-4
v -0.12325699 0.045601826 -0.0015773457
v 0.20633827 0.032606896 0.0022994387
v 0.2273553 0.048041176 0.004154554
v 0.33749238 0.043698803 0.005450012
v -0.14194211 0.04240976 -0.091175765
v -0.17354713 0.047468394 -0.09685585
v -0.14271204 0.02861958 -0.071942054
v -0.12360995 0.019288138 -0.05977352
v 0.20598531 0.006293223 -0.055896726
v 0.2269121 0.01499956 -0.068921484
v 0.3370492 0.010657206 -0.067626014
v -0.17768523 -0.06069739 -0.10761443
v -0.14583173 -0.05926063 -0.10128835
v -0.14570089 -0.04950512 -0.07971261
v -0.12603967 -0.044221878 -0.06609052
v 0.2035556 -0.057216797 -0.06221372
v 0.22386114 -0.064748876 -0.076853685
v 0.3339982 -0.069091246 -0.07555823
v -0.18122223 -0.1240475 -0.019257452
v -0.1491563 -0.11880655 -0.018237198
v -0.14825553 -0.095260896 -0.015895188
v -0.12811641 -0.08141818 -0.014211314
v 0.20147884 -0.094413154 -0.01033456
v 0.2212534 -0.111455716 -0.011709874
v 0.33139044 -0.1157981 -0.01041442
v -1.1484888 -0.020321295 -0.034538556
v -0.5984095 -0.033882193 -0.039384153
v -0.45077953 -0.039276324 -0.038241558
v -0.17192398 -0.05011227 -0.035182346
v -0.17322686 -0.06380712 0.0331355
v -1.1490573 -0.025106767 0.021342741
v -1.1461637 0.036664173 -0.06478768
v -1.5795567 0.05632042 -0.07346194
v -1.5258949 0.01781013 -0.02215749
v -0.16917783 0.010170266 -0.07004018
v -1.4260217 -0.0103373965 0.012725313
v -1.1470455 0.02626623 -0.0010784685
v -0.17048073 -0.003524677 -0.0017222102
v 0.2809921 -0.02659031 -0.09077894
v 0.30563632 -0.029778672 -0.072068535
v 0.2872482 -0.052747402 -0.075150594
v 0.25953838 -0.04239471 -0.07473091
v 0.26080096 -0.013027687 -0.071389444
v 0.28929096 -0.0052305246 -0.069744065
v 0.27718782 -0.10848386 -0.05290492
v 0.28619587 -0.080006234 -0.061591543
v 0.3027917 -0.09462962 -0.041946776
v 0.25778687 -0.084221855 -0.0544966
v 0.25682494 -0.101450644 -0.030466925
v 0.28463945 -0.107883014 -0.02271069
v 0.2760658 -0.11482433 0.032284524
v 0.28412485 -0.108689316 0.0028737986
v 0.301767 -0.099081464 0.0245908
v 0.2561037 -0.10391266 0.011070604
v 0.25642788 -0.091352664 0.037853483
v 0.28464928 -0.08836686 0.04620946
v 0.28325254 0.04637577 -0.03837325
v 0.2901107 0.039652623 -0.008787063
v 0.3074469 0.028665682 -0.03009264
v 0.26200074 0.037089046 -0.017644096
v 0.26196408 0.024517708 -0.044423595
v 0.29005125 0.019311842 -0.05211725
v 0.28168717 0.036752194 0.051406503
v 0.3063712 0.020915253 0.04103985
v 0.28977537 0.035538647 0.02139509
v 0.26136637 0.031322997 0.02849001
v 0.26040444 0.014094208 0.052519687
v 0.28821895 0.0076618623 0.06027594
v 0.27832624 -0.04185825 0.08469021
v 0.30357754 -0.040637106 0.0665667
v 0.28698733 -0.016289292 0.06923733
v 0.25856605 -0.024428906 0.06815742
v 0.25759104 -0.053807262 0.064819336
v 0.28540957 -0.06382449 0.06383628
vn 0.9991547 -0.039393786 0.011752189
vn 0.56024534 0.47168612 -0.6809092
vn 0.5280623 -0.36954755 -0.7645815
vn -0.6883198 -0.27322257 -0.67198604
vn -0.6606006 0.4513375 -0.5999179
vn -0.9504778 -0.091804236 -0.2969244
vn -0.93854696 0.22005403 -0.26590577
vn -0.3205834 0.55909425 -0.7646175
vn -0.35620004 -0.37188768 -0.8572171
vn 0.36404505 -0.39739123 -0.8423487
vn 0.3993942 0.5266109 -0.75044334
vn 0.33278212 0.5432812 -0.7707799
vn 0.29651734 -0.40464625 -0.8650658
vn -0.61385757 -0.3024332 -0.72918653
vn -0.58371305 0.485511 -0.65081334
vn -0.9991547 0.039393786 -0.011752189
vn 0.5005539 -0.8622378 -0.077405944
vn -0.7120131 -0.6975805 -0.0801169
vn -0.96067554 -0.27445135 -0.042177636
vn -0.3866435 -0.9171425 -0.096728645
vn 0.33382982 -0.93855757 -0.08756283
vn 0.26552013 -0.95982605 -0.0907363
vn -0.63962305 -0.7639142 -0.085541785
vn -0.70798624 -0.3973781 0.5838204
vn 0.5052292 -0.51369464 0.6934415
vn -0.95894223 -0.14524145 0.24358726
vn -0.38146904 -0.5314144 0.7563598
vn 0.33896524 -0.55572236 0.7591279
vn 0.2707883 -0.567078 0.77787924
vn -0.6352441 -0.43745112 0.6364758
vn 0.5374125 0.3275392 0.77711374
vn -0.68026644 0.3271819 0.6558883
vn -0.9470113 0.16661683 0.2746061
vn -0.3458518 0.39956772 0.84895945
vn 0.37431517 0.36827996 0.85103345
vn 0.30705345 0.38084927 0.87216514
vn -0.6050996 0.3504932 0.71484894
vn 0.5649201 0.8202295 0.08993821
vn -0.6565741 0.75153977 0.06401919
vn -0.9368139 0.349264 0.019859085
vn -0.31540978 0.94482243 0.08847095
vn 0.4045291 0.9094463 0.09624741
vn 0.33805 0.936029 0.09783555
vn -0.57933414 0.81197405 0.07120413
vn 0.0483061 0.83173996 0.5530599
vn 0.027738033 0.8101379 0.5855828
vn 0.027738035 0.81013787 0.58558285
vn 0.02773615 0.810082 0.5856603
vn 0.025327643 0.5907014 -0.8064926
vn 0.08332218 0.5841881 -0.80732995
vn 0.03030927 -0.58878523 0.8077211
vn 0.11921428 -0.58162576 0.8046735
vn 0.22061434 -0.5734785 0.7889561
vn -0.014581383 -0.5906169 0.80682033
vn 0.1580791 0.5727818 -0.80432075
vn -0.001789618 -0.785699 -0.6186064
vn -0.022266442 -0.8048759 -0.59302527
vn -0.026752617 -0.111876115 0.99336195
vn -0.6086815 -0.06381579 0.7908441
vn -0.179192 0.4726662 0.86283076
vn 0.4680251 0.23085651 0.8530286
vn 0.43853697 -0.45506972 0.77498174
vn -0.22690415 -0.6371879 0.73655015
vn 0.025155026 0.8119621 0.58316785
vn -0.17930834 0.33848673 0.92372894
vn -0.5669376 0.6800467 0.46488515
vn 0.48424333 0.43695074 0.7580121
vn 0.50671077 0.8393652 0.19674918
vn -0.14295486 0.98960644 0.015587266
vn 0.03001291 0.9048401 -0.42469233
vn -0.15113732 0.97514796 0.16199952
vn -0.5632032 0.75073785 -0.34524605
vn 0.5033515 0.8635796 -0.029455267
vn 0.49578094 0.5702152 -0.6550236
vn -0.16338587 0.5004754 -0.8501938
vn -0.051292 -0.9040011 0.4244422
vn -0.2235863 -0.9603738 -0.1664069
vn -0.6285062 -0.70375234 0.33122894
vn 0.43297672 -0.9004962 0.040468596
vn 0.4338344 -0.60686725 0.6659578
vn -0.22219792 -0.48527285 0.84565854
vn -0.02515295 -0.8119626 -0.5831672
vn -0.60763776 -0.6337368 -0.47870034
vn -0.22000828 -0.9752959 -0.019856006
vn 0.44354337 -0.8768308 -0.18557212
vn 0.46601075 -0.47441685 -0.74683505
vn -0.18365481 -0.3241769 -0.92799795
vn 0.0054735397 0.112715274 -0.99361223
vn -0.5830278 0.110801265 -0.8048612
vn -0.19553164 -0.4578918 -0.8672384
vn 0.4683031 -0.26777312 -0.8420153
vn 0.49107832 0.4184177 -0.7640476
vn -0.15867963 0.6523904 -0.7410854
vt 0.17460255 0.6659044
vt 0.3488238 0.62914836
vt 0.2700536 0.62914836
vt 0.2700536 0.57418114
vt 0.3488238 0.57418114
vt 0.2700536 0.52697337
vt 0.3488238 0.52697337
vt 0.3488238 0.47239012
vt 0.2700536 0.47239012
vt 0.2700536 0.25237238
vt 0.3488238 0.25237238
vt 0.3488238 0.22770005
vt 0.2700536 0.22770005
vt 0.2700536 0.041677833
vt 0.3488238 0.041677833
vt 0.19159724 0.012093663
vt 0.11251253 0.62914836
vt 0.11251253 0.57418114
vt 0.11251253 0.52697337
vt 0.11251253 0.47239012
vt 0.11251253 0.25237238
vt 0.11251253 0.22770005
vt 0.11251253 0.041677833
vt 0.031359322 0.57418114
vt 0.031359322 0.62914836
vt 0.031359322 0.52697337
vt 0.031359322 0.47239012
vt 0.031359322 0.25237238
vt 0.031359322 0.22770005
vt 0.031359322 0.041677833
vt 0.11251253 0.62914836
vt 0.11251253 0.57418114
vt 0.11251253 0.52697337
vt 0.11251253 0.47239012
vt 0.11251253 0.25237238
vt 0.11251253 0.22770005
vt 0.11251253 0.041677833
vt 0.2700536 0.62914836
vt 0.2700536 0.57418114
vt 0.2700536 0.52697337
vt 0.2700536 0.47239012
vt 0.2700536 0.25237238
vt 0.2700536 0.22770005
vt 0.2700536 0.041677833
vt 0.5082706 0.6659366
vt 0.5082706 0.41342193
vt 0.5082706 0.31476688
vt 0.5082706 0.012421668
vt 0.651962 0.012421668
vt 0.651962 0.66408914
vt 0.38015738 0.6675297
vt 0.38015738 0.98532236
vt 0.5082706 0.9458534
vt 0.38015738 0.012421668
vt 0.651962 0.89522827
vt 0.5082706 0.6659366
vt 0.5082706 0.012421668
vt 0.13973647 0.8067866
vt 0.13973646 0.76101893
vt 0.043977052 0.7926435
vt 0.080553904 0.84381324
vt 0.19891907 0.84381324
vt 0.23549588 0.7926435
vt 0.13973647 0.8067866
vt 0.043977052 0.7926435
vt 0.13973646 0.76101893
vt 0.080553904 0.84381324
vt 0.19891907 0.84381324
vt 0.23549588 0.7926435
vt 0.13973647 0.8067866
vt 0.043977052 0.7926435
vt 0.13973646 0.76101893
vt 0.080553904 0.84381324
vt 0.19891907 0.84381324
vt 0.23549588 0.7926435
vt 0.13973647 0.8067866
vt 0.043977052 0.7926435
vt 0.13973646 0.76101893
vt 0.080553904 0.84381324
vt 0.19891907 0.84381324
vt 0.23549588 0.7926435
vt 0.13973647 0.8067866
vt 0.13973646 0.76101893
vt 0.043977052 0.7926435
vt 0.080553904 0.84381324
vt 0.19891907 0.84381324
vt 0.23549588 0.7926435
vt 0.13973647 0.8067866
vt 0.13973646 0.76101893
vt 0.043977052 0.7926435
vt 0.080553904 0.84381324
vt 0.19891907 0.84381324
vt 0.23549588 0.7926435

g lin_tong_w_0
s 1
usemtl lin_tong_w_0
f 3/3/3 2/2/2 1/1/1 
f 2/2/2 3/3/3 4/4/4 
f 5/5/5 2/2/2 4/4/4 
f 4/4/4 6/6/6 5/5/5 
f 6/6/6 7/7/7 5/5/5 
f 8/8/8 7/7/7 6/6/6 
f 9/9/9 8/8/8 6/6/6 
f 8/8/8 9/9/9 10/10/10 
f 11/11/11 8/8/8 10/10/10 
f 12/12/12 11/11/11 10/10/10 
f 13/13/13 12/12/12 10/10/10 
f 13/13/13 14/14/14 12/12/12 
f 14/14/14 15/15/15 12/12/12 
f 14/14/14 16/16/16 15/15/15 
f 17/17/17 3/3/3 1/1/1 
f 4/4/4 3/3/3 17/17/17 
f 18/18/18 4/4/4 17/17/17 
f 6/6/6 4/4/4 18/18/18 
f 19/19/19 6/6/6 18/18/18 
f 9/9/9 6/6/6 19/19/19 
f 20/20/20 9/9/9 19/19/19 
f 10/10/10 9/9/9 21/21/21 
f 9/9/9 20/20/20 21/21/21 
f 13/13/13 10/10/10 22/22/22 
f 10/10/10 21/21/21 22/22/22 
f 14/14/14 13/13/13 23/23/23 
f 13/13/13 22/22/22 23/23/23 
f 23/23/23 16/16/16 14/14/14 
f 18/18/18 17/17/17 24/24/24 
f 17/17/17 25/25/25 24/24/24 
f 25/25/25 17/17/17 1/1/1 
f 19/19/19 18/18/18 26/26/26 
f 18/18/18 24/24/24 26/26/26 
f 20/20/20 19/19/19 26/26/26 
f 27/27/27 20/20/20 26/26/26 
f 21/21/21 20/20/20 28/28/28 
f 20/20/20 27/27/27 28/28/28 
f 22/22/22 21/21/21 29/29/29 
f 21/21/21 28/28/28 29/29/29 
f 23/23/23 22/22/22 30/30/30 
f 22/22/22 29/29/29 30/30/30 
f 30/30/30 16/16/16 23/23/23 
f 31/31/31 25/25/25 1/1/1 
f 24/24/24 25/25/25 32/32/32 
f 25/25/25 31/31/31 32/32/32 
f 26/26/26 24/24/24 33/33/33 
f 24/24/24 32/32/32 33/33/33 
f 27/27/27 26/26/26 33/33/33 
f 34/34/34 27/27/27 33/33/33 
f 28/28/28 27/27/27 35/35/35 
f 27/27/27 34/34/34 35/35/35 
f 29/29/29 28/28/28 36/36/36 
f 28/28/28 35/35/35 36/36/36 
f 30/30/30 29/29/29 37/37/37 
f 29/29/29 36/36/36 37/37/37 
f 37/37/37 16/16/16 30/30/30 
f 38/38/38 31/31/31 1/1/1 
f 32/32/32 31/31/31 38/38/38 
f 39/39/39 32/32/32 38/38/38 
f 39/39/39 40/40/40 32/32/32 
f 40/40/40 33/33/33 32/32/32 
f 34/34/34 33/33/33 41/41/41 
f 33/33/33 40/40/40 41/41/41 
f 35/35/35 34/34/34 42/42/42 
f 34/34/34 41/41/41 42/42/42 
f 36/36/36 35/35/35 42/42/42 
f 43/43/43 36/36/36 42/42/42 
f 37/37/37 36/36/36 43/43/43 
f 44/44/44 37/37/37 43/43/43 
f 44/44/44 16/16/16 37/37/37 
f 5/5/5 39/39/39 38/38/38 
f 40/40/40 39/39/39 5/5/5 
f 2/2/2 5/5/5 38/38/38 
f 2/2/2 38/38/38 1/1/1 
f 7/7/7 40/40/40 5/5/5 
f 7/7/7 8/8/8 40/40/40 
f 8/8/8 41/41/41 40/40/40 
f 8/8/8 11/11/11 41/41/41 
f 11/11/11 42/42/42 41/41/41 
f 11/11/11 12/12/12 42/42/42 
f 12/12/12 43/43/43 42/42/42 
f 12/12/12 15/15/15 43/43/43 
f 15/15/15 44/44/44 43/43/43 
f 15/15/15 16/16/16 44/44/44 
f 47/47/47 46/46/46 45/45/45 
f 45/45/45 48/48/48 47/47/47 
f 45/45/45 49/49/49 48/48/48 
f 45/45/45 50/50/50 49/49/49 
f 51/51/51 47/47/47 48/48/48 
f 51/51/51 46/46/46 47/47/47 
f 51/51/51 45/45/45 46/46/46 
f 45/45/45 51/51/51 52/52/52 
f 53/53/53 45/45/45 52/52/52 
f 48/48/48 54/54/54 51/51/51 
f 50/50/50 45/45/45 55/55/55 
f 45/45/45 53/53/53 55/55/55 
f 51/51/51 56/56/56 52/52/52 
f 56/56/56 53/53/53 52/52/52 
f 56/56/56 51/51/51 54/54/54 
f 53/53/53 56/56/56 55/55/55 
f 56/56/56 50/50/50 55/55/55 
f 49/49/49 50/50/50 56/56/56 
f 57/57/57 56/56/56 54/54/54 
f 57/57/57 49/49/49 56/56/56 
f 60/60/60 59/59/59 58/58/58 
f 61/61/61 60/60/60 58/58/58 
f 62/62/62 61/61/61 58/58/58 
f 63/63/63 62/62/62 58/58/58 
f 59/59/59 63/63/63 58/58/58 
f 66/66/66 65/65/65 64/64/64 
f 65/65/65 67/67/67 64/64/64 
f 67/67/67 68/68/68 64/64/64 
f 68/68/68 69/69/69 64/64/64 
f 69/69/69 66/66/66 64/64/64 
f 72/72/72 71/71/71 70/70/70 
f 71/71/71 73/73/73 70/70/70 
f 73/73/73 74/74/74 70/70/70 
f 74/74/74 75/75/75 70/70/70 
f 75/75/75 72/72/72 70/70/70 
f 78/78/78 77/77/77 76/76/76 
f 77/77/77 79/79/79 76/76/76 
f 79/79/79 80/80/80 76/76/76 
f 80/80/80 81/81/81 76/76/76 
f 81/81/81 78/78/78 76/76/76 
f 84/84/84 83/83/83 82/82/82 
f 85/85/85 84/84/84 82/82/82 
f 86/86/86 85/85/85 82/82/82 
f 87/87/87 86/86/86 82/82/82 
f 83/83/83 87/87/87 82/82/82 
f 90/90/90 89/89/89 88/88/88 
f 91/91/91 90/90/90 88/88/88 
f 92/92/92 91/91/91 88/88/88 
f 93/93/93 92/92/92 88/88/88 
f 89/89/89 93/93/93 88/88/88 

