# Created by DisUnity v0.3.4
v 0.5282123 0.026887175 0.011470187
v 0.6548283 -0.008535498 0.09094776
v 0.7461074 0.013587153 -0.0056908196
v 0.82479966 -0.027116554 0.046707172
v 0.9137376 -0.041608404 0.0056265434
v 0.746667 -0.05025401 -0.052063115
v 0.41388053 -0.034179445 -0.041788753
v 0.96043175 -0.06332004 -0.06896692
v -0.47601277 0.025306199 0.047727283
v -0.3856642 0.052200392 -0.031111322
v -0.4696192 -0.014238686 -0.0999909
v 0.74225765 -0.082436025 0.019848436
v 0.52436256 -0.069136 0.037009444
v -0.3895139 -0.043822784 -0.005572068
v -0.38562638 -0.021489315 -0.11970511
v -0.32250232 -0.015220887 -0.086621806
v -0.32166362 -0.023451319 -0.11744037
v -0.3864651 -0.013258884 -0.088886544
v -0.35330287 -0.025879879 -0.102542125
v -0.31762424 -0.008529684 -0.10013165
v -0.34607804 -0.024820277 -0.110438086
v -0.31803435 -0.0056877425 -0.08976725
v -0.28816456 8.0312067E-4 -0.115173146
v -0.2815189 0.0058802236 -0.108411185
v -0.27495602 -0.0022888866 -0.14675158
v -0.26514706 0.002047639 -0.1475527
v -0.285736 -0.015994497 -0.17636885
v -0.2785089 -0.014940382 -0.18426311
v -0.31418973 -0.032285072 -0.18667528
v -0.31377727 -0.03513249 -0.1970379
v -0.3436496 -0.041617855 -0.17163374
v -0.35029253 -0.04670047 -0.17839399
v -0.35685813 -0.038525812 -0.14005521
v -0.36666453 -0.042867914 -0.13925259
v -0.3856642 0.052200392 -0.031111322
v -0.3464224 0.0022913956 -0.01927034
v -0.47601277 0.025306199 0.047727283
v -0.4696192 -0.014238686 -0.0999909
v -0.3464224 0.0022913956 -0.01927034
v -0.3856642 0.052200392 -0.031111322
v -0.47601277 0.025306199 0.047727283
v -0.3464224 0.0022913956 -0.01927034
v -0.3895139 -0.043822784 -0.005572068
v -0.3895139 -0.043822784 -0.005572068
v -0.3464224 0.0022913956 -0.01927034
v -0.4696192 -0.014238686 -0.0999909
v -0.35330272 -0.025879888 -0.10254213
v -0.31762394 -0.0085297 -0.10013167
v -0.31803417 -0.0056877523 -0.08976726
v -0.34607804 -0.024820281 -0.11043809
v -0.2881644 8.031111E-4 -0.11517315
v -0.2815189 0.0058802185 -0.10841121
v -0.27495587 -0.0022888964 -0.1467516
v -0.26514676 0.0020476298 -0.1475527
v -0.285736 -0.015994497 -0.17636885
v -0.2785086 -0.014940401 -0.18426315
v -0.31418973 -0.032285072 -0.18667528
v -0.31377727 -0.035132498 -0.19703792
v -0.34364945 -0.04161787 -0.17163375
v -0.35029253 -0.04670047 -0.17839399
v -0.35685813 -0.038525827 -0.14005524
v -0.36666438 -0.042867925 -0.13925262
v -0.39094627 0.030714355 0.075769745
v -0.32614475 0.020521915 0.047215912
v -0.32698348 0.028752353 0.07803448
v -0.39010754 0.02248392 0.044951174
v -0.3598388 0.03825697 0.13761613
v -0.3241602 0.055607166 0.14002658
v -0.352614 0.039316576 0.12972017
v -0.3245703 0.05844911 0.150391
v -0.2947005 0.06493997 0.12498509
v -0.28805488 0.07001708 0.13174705
v -0.28149197 0.061847962 0.093406655
v -0.271683 0.06618449 0.09260553
v -0.29227194 0.048142355 0.06378941
v -0.28504485 0.049196467 0.055895112
v -0.3207257 0.031851783 0.053482976
v -0.32031322 0.029004358 0.043120336
v -0.35018554 0.022518992 0.0685245
v -0.35682854 0.017436383 0.061764263
v -0.36339408 0.025611037 0.10010304
v -0.37320054 0.021268938 0.10090566
v -0.35983866 0.03825696 0.13761611
v -0.3241599 0.055607148 0.14002657
v -0.32457015 0.0584491 0.15039097
v -0.352614 0.03931657 0.12972014
v -0.29470035 0.06493996 0.124985084
v -0.28805485 0.07001707 0.13174704
v -0.28149182 0.06184795 0.09340665
v -0.2716827 0.06618448 0.09260554
v -0.29227194 0.04814235 0.0637894
v -0.28504455 0.049196452 0.05589511
v -0.3207257 0.031851776 0.053482957
v -0.32031322 0.029004354 0.04312032
v -0.3501854 0.022518983 0.06852449
v -0.35682854 0.017436383 0.061764263
v -0.36339408 0.025611028 0.100103006
v -0.37320036 0.021268928 0.100905634
v -0.38562638 -0.021489315 -0.11970511
v -0.32250232 -0.015220887 -0.086621806
v -0.3864651 -0.013258884 -0.088886544
v -0.32166362 -0.023451319 -0.11744037
v -0.39094627 0.030714355 0.075769745
v -0.32614475 0.020521915 0.047215912
v -0.39010754 0.02248392 0.044951174
v -0.32698348 0.028752353 0.07803448
vn -0.020848993 -0.9706783 0.23947613
vn -0.1096392 -0.2513769 -0.96165943
vn -0.12270979 -0.9605525 0.24956189
vn -0.38696352 -0.22248918 -0.89485073
vn -0.75715476 -0.13938414 -0.63819176
vn 0.077909626 0.2533342 0.96423644
vn -0.024227675 0.25786513 0.9658771
vn -0.87800354 0.15559426 0.45265898
vn 0.03304904 -0.25813073 -0.9655446
vn -0.043285858 -0.96954525 0.24105689
vn -0.04759161 0.25852397 0.9648318
vn -0.045555186 0.96391374 -0.26228786
vn 0.05655681 0.96005374 -0.27404013
vn 0.034133915 0.9615354 -0.27255207
vn -0.038715355 -0.96567786 0.25684103
vn -0.038715355 -0.96567786 0.25684103
vn -0.038715355 -0.96567786 0.25684103
vn -0.038715355 -0.96567786 0.25684103
vn 0.4087198 -0.8758936 0.2564345
vn 0.40853694 -0.875999 0.25636575
vn 0.40871984 -0.8758936 0.2564345
vn 0.40853694 -0.875999 0.25636575
vn 0.40834504 -0.8760611 0.25645915
vn 0.40834504 -0.8760611 0.25645915
vn 0.40825972 -0.8760406 0.25666508
vn 0.40825972 -0.8760406 0.25666508
vn 0.4083323 -0.8759503 0.25685757
vn 0.40833223 -0.8759503 0.25685757
vn 0.40851688 -0.87584466 0.25692442
vn 0.40851688 -0.87584466 0.2569244
vn 0.40870765 -0.8757839 0.25682774
vn 0.40870765 -0.8757839 0.25682774
vn 0.40879127 -0.8758047 0.2566238
vn 0.4087913 -0.8758047 0.2566238
vn 0.46159345 0.53144985 0.7102764
vn 0.46159345 0.53144985 0.7102764
vn 0.46159345 0.53144985 0.7102764
vn 0.51621336 0.2088172 -0.83061373
vn 0.51621336 0.2088172 -0.83061373
vn 0.51621336 0.20881718 -0.83061373
vn 0.43459707 -0.141921 0.8893727
vn 0.43459705 -0.14192101 0.8893727
vn 0.4345971 -0.14192098 0.88937265
vn 0.48253316 -0.6312669 -0.6071769
vn 0.48253313 -0.6312669 -0.60717696
vn 0.48253313 -0.6312669 -0.60717684
vn -0.408722 0.87589306 -0.25643274
vn -0.40853804 0.8759978 -0.256368
vn -0.40853804 0.8759978 -0.25636804
vn -0.408722 0.87589306 -0.2564327
vn -0.4083466 0.8760594 -0.2564625
vn -0.4083466 0.87605935 -0.25646248
vn -0.40825495 0.87604207 -0.25666773
vn -0.40825492 0.87604207 -0.25666773
vn -0.40832573 0.875952 -0.25686228
vn -0.40832567 0.875952 -0.25686228
vn -0.40851468 0.8758453 -0.25692558
vn -0.40851468 0.8758453 -0.25692555
vn -0.40870756 0.8757845 -0.2568261
vn -0.40870753 0.8757846 -0.2568261
vn -0.40879422 0.87580377 -0.2566223
vn -0.40879422 0.87580377 -0.25662228
vn 0.038715363 0.96567786 -0.2568412
vn 0.038715363 0.96567786 -0.2568412
vn 0.038715363 0.96567786 -0.2568412
vn 0.038715363 0.96567786 -0.2568412
vn 0.4087198 -0.8758936 0.2564345
vn 0.40853694 -0.875999 0.25636575
vn 0.40871987 -0.8758936 0.2564345
vn 0.40853694 -0.875999 0.25636575
vn 0.40834504 -0.8760611 0.25645915
vn 0.40834504 -0.8760611 0.25645915
vn 0.40825972 -0.8760406 0.25666508
vn 0.40825972 -0.8760406 0.25666508
vn 0.4083323 -0.8759503 0.25685757
vn 0.4083323 -0.8759503 0.25685757
vn 0.4085169 -0.87584466 0.2569244
vn 0.40851682 -0.87584466 0.2569244
vn 0.4087077 -0.8757839 0.25682774
vn 0.4087077 -0.8757839 0.25682774
vn 0.4087913 -0.8758047 0.2566238
vn 0.4087913 -0.8758047 0.2566238
vn -0.408722 0.87589306 -0.25643274
vn -0.40853804 0.8759978 -0.256368
vn -0.40853804 0.8759978 -0.25636804
vn -0.408722 0.87589306 -0.2564327
vn -0.4083466 0.87605935 -0.25646248
vn -0.4083466 0.87605935 -0.25646248
vn -0.40825495 0.87604207 -0.25666773
vn -0.40825495 0.87604207 -0.25666773
vn -0.40832573 0.875952 -0.2568623
vn -0.4083257 0.875952 -0.25686228
vn -0.40851468 0.8758453 -0.25692558
vn -0.40851462 0.8758453 -0.25692558
vn -0.40870756 0.8757845 -0.2568261
vn -0.40870753 0.8757845 -0.2568261
vn -0.40879422 0.87580377 -0.2566223
vn -0.40879422 0.87580377 -0.25662228
vn 0.038715355 0.96567786 -0.25684103
vn 0.038715355 0.96567786 -0.25684103
vn 0.038715355 0.96567786 -0.25684103
vn 0.038715355 0.96567786 -0.25684103
vn -0.038715363 -0.96567786 0.2568412
vn -0.038715363 -0.96567786 0.2568412
vn -0.038715363 -0.96567786 0.2568412
vn -0.038715363 -0.96567786 0.2568412
vt 0.8361043 0.6855414
vt 0.97284216 0.7765949
vt 0.79495656 0.8374141
vt 0.8715176 0.8944782
vt 0.8043398 0.92543447
vt 0.6885332 0.8380252
vt 0.6895429 0.60577047
vt 0.6885332 0.97879946
vt 0.97284216 0.0066068172
vt 0.8361043 0.0066068172
vt 0.6895429 0.0066068172
vt 0.79495656 0.8374141
vt 0.8361043 0.6855414
vt 0.8361043 0.0066068172
vt 0.04241222 0.8734016
vt 0.24503528 0.98562354
vt 0.04241222 0.98562354
vt 0.24503528 0.8734016
vt 0.2525757 0.790159
vt 0.32967067 0.7612484
vt 0.32967067 0.790159
vt 0.2525757 0.7612484
vt 0.32967067 0.7323378
vt 0.2525757 0.7323378
vt 0.32967067 0.70342714
vt 0.2525757 0.70342714
vt 0.32967067 0.6745166
vt 0.2525757 0.6745166
vt 0.32967067 0.7038863
vt 0.2525757 0.7038863
vt 0.32967067 0.7327969
vt 0.2525757 0.7327969
vt 0.32967067 0.7617074
vt 0.2525757 0.7617074
vt 0.3138206 0.46939862
vt 0.31370455 0.46939862
vt 0.3186673 0.46939862
vt 0.30862576 0.46939862
vt 0.31370455 0.46939862
vt 0.3138206 0.46939862
vt 0.3186673 0.46939862
vt 0.31370455 0.46939862
vt 0.3138206 0.46939862
vt 0.3138206 0.46939862
vt 0.31370455 0.46939862
vt 0.30862576 0.46939862
vt 0.2525757 0.790159
vt 0.32967067 0.7612484
vt 0.2525757 0.7612484
vt 0.32967067 0.790159
vt 0.32967067 0.7323378
vt 0.2525757 0.7323378
vt 0.32967067 0.70342714
vt 0.2525757 0.70342714
vt 0.32967067 0.6745166
vt 0.2525757 0.6745166
vt 0.32967067 0.7038863
vt 0.2525757 0.7038863
vt 0.32967067 0.7327969
vt 0.2525757 0.7327969
vt 0.32967067 0.7617074
vt 0.2525757 0.7617074
vt 0.04241222 0.8734016
vt 0.24503528 0.98562354
vt 0.04241222 0.98562354
vt 0.24503528 0.8734016
vt 0.2525757 0.790159
vt 0.32967067 0.7612484
vt 0.32967067 0.790159
vt 0.2525757 0.7612484
vt 0.32967067 0.7323378
vt 0.2525757 0.7323378
vt 0.32967067 0.70342714
vt 0.2525757 0.70342714
vt 0.32967067 0.6745166
vt 0.2525757 0.6745166
vt 0.32967067 0.7038863
vt 0.2525757 0.7038863
vt 0.32967067 0.7327969
vt 0.2525757 0.7327969
vt 0.32967067 0.7617074
vt 0.2525757 0.7617074
vt 0.2525757 0.790159
vt 0.32967067 0.7612484
vt 0.2525757 0.7612484
vt 0.32967067 0.790159
vt 0.32967067 0.7323378
vt 0.2525757 0.7323378
vt 0.32967067 0.70342714
vt 0.2525757 0.70342714
vt 0.32967067 0.6745166
vt 0.2525757 0.6745166
vt 0.32967067 0.7038863
vt 0.2525757 0.7038863
vt 0.32967067 0.7327969
vt 0.2525757 0.7327969
vt 0.32967067 0.7617074
vt 0.2525757 0.7617074
vt 0.04241222 0.8734016
vt 0.24503528 0.98562354
vt 0.24503528 0.8734016
vt 0.04241222 0.98562354
vt 0.04241222 0.8734016
vt 0.24503528 0.98562354
vt 0.24503528 0.8734016
vt 0.04241222 0.98562354

g lin_tong_w_1
s 1
usemtl lin_tong_w_1
f 3/3/3 2/2/2 1/1/1 
f 2/2/2 3/3/3 4/4/4 
f 4/4/4 3/3/3 5/5/5 
f 3/3/3 1/1/1 6/6/6 
f 1/1/1 7/7/7 6/6/6 
f 6/6/6 8/8/8 3/3/3 
f 8/8/8 5/5/5 3/3/3 
f 2/2/2 9/9/9 1/1/1 
f 9/9/9 10/10/10 1/1/1 
f 7/7/7 1/1/1 10/10/10 
f 11/11/11 7/7/7 10/10/10 
f 5/5/5 8/8/8 12/12/12 
f 2/2/2 4/4/4 12/12/12 
f 6/6/6 12/12/12 8/8/8 
f 4/4/4 5/5/5 12/12/12 
f 12/12/12 13/13/13 2/2/2 
f 12/12/12 6/6/6 13/13/13 
f 6/6/6 7/7/7 13/13/13 
f 2/2/2 13/13/13 9/9/9 
f 13/13/13 14/14/14 9/9/9 
f 11/11/11 14/14/14 7/7/7 
f 14/14/14 13/13/13 7/7/7 
f 17/17/17 16/16/16 15/15/15 
f 16/16/16 18/18/18 15/15/15 
f 21/21/21 20/20/20 19/19/19 
f 20/20/20 22/22/22 19/19/19 
f 20/20/20 23/23/23 22/22/22 
f 23/23/23 24/24/24 22/22/22 
f 23/23/23 25/25/25 24/24/24 
f 25/25/25 26/26/26 24/24/24 
f 25/25/25 27/27/27 26/26/26 
f 27/27/27 28/28/28 26/26/26 
f 27/27/27 29/29/29 28/28/28 
f 29/29/29 30/30/30 28/28/28 
f 29/29/29 31/31/31 30/30/30 
f 31/31/31 32/32/32 30/30/30 
f 31/31/31 33/33/33 32/32/32 
f 33/33/33 34/34/34 32/32/32 
f 33/33/33 21/21/21 34/34/34 
f 21/21/21 19/19/19 34/34/34 
f 37/37/37 36/36/36 35/35/35 
f 40/40/40 39/39/39 38/38/38 
f 43/43/43 42/42/42 41/41/41 
f 46/46/46 45/45/45 44/44/44 
f 49/49/49 48/48/48 47/47/47 
f 48/48/48 50/50/50 47/47/47 
f 51/51/51 48/48/48 49/49/49 
f 52/52/52 51/51/51 49/49/49 
f 53/53/53 51/51/51 52/52/52 
f 54/54/54 53/53/53 52/52/52 
f 55/55/55 53/53/53 54/54/54 
f 56/56/56 55/55/55 54/54/54 
f 57/57/57 55/55/55 56/56/56 
f 58/58/58 57/57/57 56/56/56 
f 59/59/59 57/57/57 58/58/58 
f 60/60/60 59/59/59 58/58/58 
f 61/61/61 59/59/59 60/60/60 
f 62/62/62 61/61/61 60/60/60 
f 47/47/47 50/50/50 62/62/62 
f 50/50/50 61/61/61 62/62/62 
f 65/65/65 64/64/64 63/63/63 
f 64/64/64 66/66/66 63/63/63 
f 69/69/69 68/68/68 67/67/67 
f 68/68/68 70/70/70 67/67/67 
f 68/68/68 71/71/71 70/70/70 
f 71/71/71 72/72/72 70/70/70 
f 71/71/71 73/73/73 72/72/72 
f 73/73/73 74/74/74 72/72/72 
f 73/73/73 75/75/75 74/74/74 
f 75/75/75 76/76/76 74/74/74 
f 75/75/75 77/77/77 76/76/76 
f 77/77/77 78/78/78 76/76/76 
f 77/77/77 79/79/79 78/78/78 
f 79/79/79 80/80/80 78/78/78 
f 79/79/79 81/81/81 80/80/80 
f 81/81/81 82/82/82 80/80/80 
f 81/81/81 69/69/69 82/82/82 
f 69/69/69 67/67/67 82/82/82 
f 85/85/85 84/84/84 83/83/83 
f 84/84/84 86/86/86 83/83/83 
f 87/87/87 84/84/84 85/85/85 
f 88/88/88 87/87/87 85/85/85 
f 89/89/89 87/87/87 88/88/88 
f 90/90/90 89/89/89 88/88/88 
f 91/91/91 89/89/89 90/90/90 
f 92/92/92 91/91/91 90/90/90 
f 93/93/93 91/91/91 92/92/92 
f 94/94/94 93/93/93 92/92/92 
f 95/95/95 93/93/93 94/94/94 
f 96/96/96 95/95/95 94/94/94 
f 97/97/97 95/95/95 96/96/96 
f 98/98/98 97/97/97 96/96/96 
f 83/83/83 86/86/86 98/98/98 
f 86/86/86 97/97/97 98/98/98 
f 101/101/101 100/100/100 99/99/99 
f 100/100/100 102/102/102 99/99/99 
f 105/105/105 104/104/104 103/103/103 
f 104/104/104 106/106/106 103/103/103 

