# Created by DisUnity v0.3.4
v 6.6605E-4 -2.2014999E-4 -1.2761356
v -0.05688901 -2.2014999E-4 -1.0296274
v 6.6605E-4 -0.0548743 -1.0296274
v 0.05822111 -2.2014999E-4 -1.0296274
v 6.6605E-4 -0.057345416 -0.81108314
v 0.07387657 -2.2014999E-4 -0.81108314
v -0.072544485 -2.2014999E-4 -0.81108314
v 6.6605E-4 -0.0836755 -0.34347782
v 0.09033203 -2.2014999E-4 -0.34347782
v 6.6605E-4 -0.10558029 -0.10316563
v -0.08899992 -2.2014999E-4 -0.34347782
v -0.13089445 -2.2014999E-4 -0.02577763
v 0.13222657 -2.2014999E-4 -0.02577763
v 6.6605E-4 -0.05614331 -0.003226735
v -0.07132616 -2.2014999E-4 -0.0033580398
v 0.07265825 -2.2014999E-4 -0.0033580398
v -0.04293352 -0.02223072 0.04966602
v -0.07090069 -2.2014999E-4 0.0592236
v 0.04426561 -0.02223072 0.04966602
v 0.07223279 -2.2014999E-4 0.0592236
v 6.6605E-4 0.10558029 -0.10316563
v 6.6605E-4 0.0836755 -0.34347782
v 0.04426561 0.02223072 0.04966602
v -0.04293352 0.02223072 0.04966602
v 6.6605E-4 0.05614331 -0.003226735
v 6.6605E-4 0.057345416 -0.81108314
v 6.6605E-4 0.0548743 -1.0296274
v -0.03920448 -0.0727562 0.2888885
v -0.09166649 -2.2014999E-4 0.24962184
v -0.08258627 -2.2014999E-4 0.2888885
v -0.04374458 -0.08300319 0.24962184
v 0.05209926 -0.08300321 0.24962184
v 0.047559142 -0.07275621 0.2888885
v 0.10002119 -2.2014999E-4 0.24962184
v 0.09094096 -2.2014999E-4 0.2888885
v 0.03729299 -0.053132046 0.3208981
v 0.070408635 -2.2014999E-4 0.3208981
v -0.02893831 -0.05313204 0.3208981
v -0.06205396 -2.2014999E-4 0.3208981
v -0.03920448 0.0727562 0.2888885
v -0.04374458 0.08300319 0.24962184
v 0.05209926 0.08300321 0.24962184
v 0.047559142 0.07275621 0.2888885
v 0.03729299 0.053132046 0.3208981
v -0.02893831 0.05313204 0.3208981
v 0.03729299 -0.053132046 0.3208981
v 0.06064926 -2.2014999E-4 0.356432
v 0.070408635 -2.2014999E-4 0.3208981
v 0.03241327 -0.04890612 0.356432
v -0.02893831 -0.05313204 0.3208981
v -0.02405863 -0.04890611 0.356432
v -0.05229458 -2.2014999E-4 0.356432
v -0.06205396 -2.2014999E-4 0.3208981
v -0.05229458 -2.2014999E-4 0.5871911
v -0.02405862 -0.04890612 0.5871911
v 0.0324133 -0.04890612 0.5871911
v 0.06064926 -2.2014999E-4 0.5871911
v 0.03729299 0.053132046 0.3208981
v 0.03241327 0.04890612 0.356432
v -0.02893831 0.05313204 0.3208981
v -0.02405863 0.04890611 0.356432
v -0.02405862 0.04890612 0.5871911
v 0.0324133 0.04890612 0.5871911
v 0.0989945 -2.2014999E-4 0.77517056
v 0.0324133 -0.04890612 0.70420486
v 0.05158592 -0.08819474 0.77517056
v 0.06064926 -2.2014999E-4 0.70420486
v -0.04323123 -0.08819474 0.77517056
v -0.02405862 -0.04890612 0.70420486
v -0.09063981 -2.2014999E-4 0.77517056
v -0.05229458 -2.2014999E-4 0.70420486
v -0.089450955 -0.06013698 0.81652105
v 0.00417734 -0.11461486 0.81597835
v 0.09780565 -0.060137 0.81652105
v 0.06064926 -2.2014999E-4 0.5871911
v 0.0324133 -0.04890612 0.5871911
v -0.02405862 -0.04890612 0.5871911
v -0.05229458 -2.2014999E-4 0.5871911
v 0.0324133 0.04890612 0.70420486
v 0.05158592 0.08819474 0.77517056
v -0.04323123 0.08819474 0.77517056
v -0.02405862 0.04890612 0.70420486
v -0.089450955 0.06013698 0.81652105
v 0.00417734 0.11461486 0.81597835
v 0.0324133 0.04890612 0.5871911
v -0.02405862 0.04890612 0.5871911
v 0.09780565 0.060137 0.81652105
v -0.15130766 -2.2014999E-4 0.2586456
v -0.08157298 -0.14128852 0.20597774
v -0.16314591 -2.2014999E-4 0.20597774
v -0.07565384 -0.13103627 0.2586456
v 0.08157296 -0.14128852 0.20597774
v 0.07565382 -0.13103628 0.2586456
v 0.16314591 -2.2014999E-4 0.20597774
v 0.15130766 -2.2014999E-4 0.2586456
v -0.08157298 0.14128852 0.20597774
v -0.07565384 0.13103627 0.2586456
v 0.08157296 0.14128852 0.20597774
v 0.07565382 0.13103628 0.2586456
v -0.08157298 -0.14128852 0.20597774
v -0.0 -2.2014999E-4 0.20597774
v -0.16314591 -2.2014999E-4 0.20597774
v 0.08157296 -0.14128852 0.20597774
v 0.16314591 -2.2014999E-4 0.20597774
v -0.08157298 0.14128852 0.20597774
v 0.08157296 0.14128852 0.20597774
v -0.15130766 -2.2014999E-4 0.2586456
v -0.0 -2.2014999E-4 0.2586456
v -0.07565384 -0.13103627 0.2586456
v 0.07565382 -0.13103628 0.2586456
v 0.15130766 -2.2014999E-4 0.2586456
v -0.07565384 0.13103627 0.2586456
v 0.07565382 0.13103628 0.2586456
v -0.04293352 -0.02223072 0.04966602
v 6.6605E-4 -0.07707506 0.00986675
v 6.6605E-4 -0.05614331 -0.003226735
v -0.048861433 -0.03966782 0.06817913
v 6.6605E-4 -0.0548743 0.20377482
v -0.07090069 -2.2014999E-4 0.0592236
v -0.09201762 -2.2014999E-4 0.08197811
v -0.09830833 -2.2014999E-4 0.20377482
v 0.04426561 -0.02223072 0.04966602
v 0.05019352 -0.03966782 0.06817913
v 0.07223279 -2.2014999E-4 0.0592236
v 0.093349725 -2.2014999E-4 0.08197811
v 0.09964042 -2.2014999E-4 0.20377482
v 6.6605E-4 0.0548743 0.20377482
v -0.048861433 0.03966782 0.06817913
v 6.6605E-4 0.07707506 0.00986675
v -0.04293352 0.02223072 0.04966602
v 6.6605E-4 0.05614331 -0.003226735
v 0.04426561 0.02223072 0.04966602
v 0.05019352 0.03966782 0.06817913
v -0.04323123 0.08819474 0.77517056
v 0.05158592 0.08819474 0.77517056
v 0.00417734 0.0 0.7541147
v 0.0989945 0.0 0.77517056
v -0.09063981 0.0 0.77517056
v 0.05158592 -0.08819474 0.77517056
v -0.04323123 -0.08819474 0.77517056
vn -0.0 -5.756106E-4 -0.9999999
vn -0.99253887 -0.001903182 -0.1219136
vn -0.0 -0.99396944 -0.10965772
vn 0.99253887 -0.0019031315 -0.12191358
vn -0.0037024154 -0.99896646 -0.04530216
vn 0.9976653 -0.0018068326 -0.06827008
vn -0.99860126 -0.0018476336 -0.052840788
vn -0.0025452352 -0.9976077 -0.06908176
vn 0.99729484 -0.0012796416 -0.07349344
vn -0.0 -0.9957295 0.092318855
vn -0.9964359 -0.0013033093 -0.0843434
vn -0.8944798 -9.918237E-4 0.44710723
vn 0.89447975 -9.918606E-4 0.4471075
vn -0.0 -0.99846363 0.055411436
vn -0.6462472 -0.002520927 0.76312405
vn 0.6462472 -0.0025209822 0.76312405
vn -0.72498715 -0.5926623 -0.3509203
vn -0.8506461 -0.0035402144 -0.52572674
vn 0.72498727 -0.59266216 -0.3509203
vn 0.850646 -0.003540225 -0.525727
vn -0.0 0.99573994 0.0922061
vn -0.0025194848 0.99760497 -0.06912236
vn 0.7276597 0.5890086 -0.35153973
vn -0.7276597 0.5890086 -0.35153973
vn -0.0 0.99850994 0.054569937
vn -0.0036654766 0.9989574 -0.045503944
vn -0.0 0.99388605 -0.110410765
vn -0.45693755 -0.7916104 0.40566108
vn -0.9720657 -0.0011507221 0.23470624
vn -0.9274596 -0.0013205404 0.37392095
vn -0.4736491 -0.8372511 0.27325273
vn 0.47364908 -0.8372511 0.27325296
vn 0.45693734 -0.7916106 0.40566117
vn 0.97206557 -0.0011505807 0.23470666
vn 0.92745954 -0.0013205288 0.3739212
vn 0.45995 -0.78992486 0.40554258
vn 0.9040964 -0.0018465943 0.4273244
vn -0.45994994 -0.78992486 0.4055424
vn -0.9040964 -0.0018465943 0.4273244
vn -0.45793816 0.79103947 0.40564668
vn -0.47452757 0.836762 0.27322668
vn 0.47452757 0.836762 0.27322692
vn 0.45793784 0.7910396 0.40564668
vn 0.46135187 0.78894436 0.40585867
vn -0.4613519 0.78894436 0.40585867
vn 0.45995 -0.78992486 0.40554258
vn 0.99182045 -0.0019830987 0.12762569
vn 0.9040964 -0.0018465943 0.4273244
vn 0.4883286 -0.8683504 0.08661774
vn -0.45994994 -0.78992486 0.4055424
vn -0.4883292 -0.86835015 0.086617514
vn -0.99182045 -0.0019830347 0.12762552
vn -0.9040964 -0.0018465943 0.4273244
vn -0.9999981 -0.0019492576 0.0
vn -0.49915287 -0.86651397 0.0
vn 0.49915293 -0.86651397 0.0
vn 0.9999981 -0.0019492464 0.0
vn 0.46135187 0.78894436 0.40585867
vn 0.4900334 0.86738235 0.08668997
vn -0.4613519 0.78894436 0.40585867
vn -0.49003395 0.86738205 0.08668972
vn -0.5008409 0.8655393 0.0
vn 0.50084096 0.8655393 0.0
vn 0.8483815 -0.0014190974 -0.5293835
vn 0.48881447 -0.82197964 -0.29224986
vn 0.42208943 -0.7158711 -0.5562095
vn 0.96395683 -0.0020661387 -0.2660506
vn -0.42208946 -0.71587116 -0.5562095
vn -0.48881453 -0.82197964 -0.2922498
vn -0.8483815 -0.0014191048 -0.5293835
vn -0.96395683 -0.0020661592 -0.2660506
vn -0.73401415 -0.39555246 -0.5520521
vn -0.0 -0.8394288 -0.5434698
vn 0.7340141 -0.39555243 -0.55205214
vn 0.9999981 -0.0019492464 0.0
vn 0.49915293 -0.86651397 0.0
vn -0.49915287 -0.86651397 0.0
vn -0.9999981 -0.0019492576 0.0
vn 0.49029887 0.82097554 -0.29258525
vn 0.42266092 0.7152326 -0.5565969
vn -0.42266092 0.7152326 -0.5565969
vn -0.49029902 0.82097554 -0.29258528
vn -0.73404235 0.39359778 -0.55341
vn -0.0 0.8394288 -0.5434698
vn 0.50084096 0.8655393 0.0
vn -0.5008409 0.8655393 0.0
vn 0.73404235 0.39359778 -0.55341
vn -0.7221977 -5.327259E-4 0.69168645
vn -0.42498195 -0.7366604 -0.5260435
vn -0.85048944 -5.374488E-4 -0.52599186
vn -0.36082876 -0.6255405 0.6917382
vn 0.4249972 -0.736655 -0.52603877
vn 0.36084545 -0.62553585 0.6917336
vn 0.85048944 -5.696146E-4 -0.52599186
vn 0.7221977 -5.6627963E-4 0.69168645
vn -0.42550695 0.73643076 -0.5259406
vn -0.3613684 0.62534267 0.69163525
vn 0.42549175 0.7364364 -0.52594507
vn 0.36135167 0.6253474 0.6916398
vn -0.42498195 -0.7366604 -0.5260435
vn -0.0 0.0 -1.0
vn -0.85048944 -5.374488E-4 -0.52599186
vn 0.4249972 -0.736655 -0.52603877
vn 0.85048944 -5.696146E-4 -0.52599186
vn -0.42550695 0.73643076 -0.5259406
vn 0.42549175 0.7364364 -0.52594507
vn -0.7221977 -5.327259E-4 0.69168645
vn -0.0 0.0 1.0
vn -0.36082876 -0.6255405 0.6917382
vn 0.36084545 -0.62553585 0.6917336
vn 0.7221977 -5.6627963E-4 0.69168645
vn -0.3613684 0.62534267 0.69163525
vn 0.36135167 0.6253474 0.6916398
vn -0.72498715 -0.5926623 -0.3509203
vn -0.0 -0.8460758 -0.53306264
vn -0.0 -0.99846363 0.055411436
vn -0.6969353 -0.6906822 -0.19297525
vn 1.7323654E-7 -0.99850994 0.054569393
vn -0.8506461 -0.0035402144 -0.52572674
vn -0.9759286 -0.0021772513 -0.21807916
vn -0.9986675 -0.0016523531 -0.051580425
vn 0.72498727 -0.59266216 -0.3509203
vn 0.6969353 -0.6906822 -0.19297536
vn 0.850646 -0.003540225 -0.525727
vn 0.9759286 -0.0021774133 -0.21807931
vn 0.9986675 -0.0016524337 -0.05158037
vn -0.0 0.9984725 0.055250157
vn -0.6989623 0.6889054 -0.19199282
vn -0.0 0.8460758 -0.53306264
vn -0.7276597 0.5890086 -0.35153973
vn -0.0 0.99850994 0.054569937
vn 0.7276597 0.5890086 -0.35153973
vn 0.6989623 0.68890536 -0.19199286
vn 0.10388589 -0.17778403 0.97857064
vn -0.10388589 -0.177784 0.97857064
vn -0.0 0.0 1.0
vn -0.21678749 0.0 0.9762189
vn 0.21678749 0.0 0.97621876
vn -0.10388589 0.177784 0.97857064
vn 0.10388589 0.17778403 0.97857064
vt 0.62874 0.015986979
vt 0.970181 0.15192097
vt 0.62874 0.15192097
vt 0.970181 0.15192097
vt 0.62874 0.274319
vt 0.970181 0.274319
vt 0.970181 0.274319
vt 0.62874 0.54293
vt 0.970181 0.54293
vt 0.62874 0.75996
vt 0.970181 0.54293
vt 0.970181 0.82673
vt 0.970181 0.82673
vt 0.713982 0.882151
vt 0.970181 0.882151
vt 0.970181 0.882151
vt 0.83339 0.938346
vt 0.910585 0.974675
vt 0.846216 0.944382
vt 0.910585 0.974675
vt 0.62874 0.75996
vt 0.62874 0.54293
vt 0.846216 0.944382
vt 0.83339 0.938346
vt 0.713982 0.882151
vt 0.62874 0.274319
vt 0.62874 0.15192097
vt 0.215083 0.643211
vt 0.046621 0.68898
vt 0.046621 0.643211
vt 0.215084 0.68898
vt 0.383546 0.68898
vt 0.383546 0.643211
vt 0.552008 0.68898
vt 0.552008 0.643211
vt 0.383546 0.60701597
vt 0.552008 0.60701597
vt 0.215083 0.60701597
vt 0.046622 0.60701597
vt 0.215083 0.643211
vt 0.215084 0.68898
vt 0.383546 0.68898
vt 0.383546 0.643211
vt 0.383546 0.60701597
vt 0.215083 0.60701597
vt 0.605695 0.89196503
vt 0.538653 0.850246
vt 0.605695 0.850246
vt 0.538653 0.89196503
vt 0.605695 0.939757
vt 0.538653 0.939757
vt 0.538653 0.987548
vt 0.605695 0.987548
vt 0.024442 0.987548
vt 0.024442 0.939757
vt 0.024442 0.89196503
vt 0.024442 0.850246
vt 0.605695 0.89196503
vt 0.538653 0.89196503
vt 0.605695 0.939757
vt 0.538653 0.939757
vt 0.024442 0.939757
vt 0.024442 0.89196503
vt 0.556823 0.282629
vt 0.382152 0.39036798
vt 0.382152 0.28263003
vt 0.556823 0.39036798
vt 0.214762 0.282632
vt 0.214762 0.39036798
vt 0.044945 0.28263003
vt 0.044945 0.39036798
vt 0.126826 0.18865502
vt 0.297839 0.18865502
vt 0.468874 0.188654
vt 0.556823 0.577304
vt 0.382152 0.577304
vt 0.214762 0.577304
vt 0.044945 0.577304
vt 0.382152 0.39036798
vt 0.382152 0.28263003
vt 0.214762 0.282632
vt 0.214762 0.39036798
vt 0.126826 0.18865502
vt 0.297839 0.18865502
vt 0.382152 0.577304
vt 0.214762 0.577304
vt 0.468874 0.188654
vt 0.044051 0.719386
vt 0.222856 0.811877
vt 0.044051 0.811877
vt 0.222856 0.719386
vt 0.401659 0.811877
vt 0.401659 0.719386
vt 0.580464 0.811877
vt 0.580464 0.719386
vt 0.222856 0.811877
vt 0.222856 0.719386
vt 0.401659 0.811877
vt 0.401659 0.719386
vt 0.904917 0.060244977
vt 0.860124 0.01967901
vt 0.949709 0.01967901
vt 0.815332 0.060244977
vt 0.770541 0.01967901
vt 0.904917 0.060244977
vt 0.815332 0.060244977
vt 0.678833 0.910223
vt 0.678833 0.94708097
vt 0.745642 0.928652
vt 0.745642 0.965509
vt 0.678833 0.983938
vt 0.745642 0.928652
vt 0.745642 0.965509
vt 0.583325 0.11042303
vt 0.52721 0.013870001
vt 0.582373 0.013870001
vt 0.52721 0.10157001
vt 0.036869 0.013870001
vt 0.583935 0.17235702
vt 0.52721 0.17235702
vt 0.036869 0.17235702
vt 0.583325 0.11042303
vt 0.52721 0.10157001
vt 0.583935 0.17235702
vt 0.52721 0.17235702
vt 0.036869 0.17235702
vt 0.036869 0.013870001
vt 0.52721 0.10157001
vt 0.52721 0.013870001
vt 0.583325 0.11042303
vt 0.582373 0.013870001
vt 0.583325 0.11042303
vt 0.52721 0.10157001
vt 0.054853 0.19939202
vt 0.019936 0.23955297
vt 0.054518 0.23435903
vt 0.019601 0.274521
vt 0.089434 0.19419801
vt 0.019936 0.23955297
vt 0.054853 0.19939202

g lv_meng_w
s 1
usemtl lv_meng_w
f 3/3/3 2/2/2 1/1/1 
f 4/4/4 3/3/3 1/1/1 
f 3/3/3 4/4/4 5/5/5 
f 3/3/3 5/5/5 2/2/2 
f 6/6/6 5/5/5 4/4/4 
f 7/7/7 2/2/2 5/5/5 
f 5/5/5 6/6/6 8/8/8 
f 9/9/9 8/8/8 6/6/6 
f 8/8/8 9/9/9 10/10/10 
f 8/8/8 10/10/10 11/11/11 
f 7/7/7 5/5/5 11/11/11 
f 8/8/8 11/11/11 5/5/5 
f 12/12/12 11/11/11 10/10/10 
f 13/13/13 10/10/10 9/9/9 
f 14/14/14 10/10/10 13/13/13 
f 12/12/12 10/10/10 14/14/14 
f 14/14/14 15/15/15 12/12/12 
f 13/13/13 16/16/16 14/14/14 
f 14/14/14 17/17/17 15/15/15 
f 17/17/17 18/18/18 15/15/15 
f 16/16/16 19/19/19 14/14/14 
f 16/16/16 20/20/20 19/19/19 
f 12/12/12 21/21/21 11/11/11 
f 13/13/13 9/9/9 21/21/21 
f 22/22/22 11/11/11 21/21/21 
f 22/22/22 21/21/21 9/9/9 
f 20/20/20 16/16/16 23/23/23 
f 18/18/18 24/24/24 15/15/15 
f 21/21/21 25/25/25 13/13/13 
f 15/15/15 25/25/25 12/12/12 
f 21/21/21 12/12/12 25/25/25 
f 16/16/16 13/13/13 25/25/25 
f 24/24/24 25/25/25 15/15/15 
f 23/23/23 16/16/16 25/25/25 
f 22/22/22 26/26/26 11/11/11 
f 26/26/26 22/22/22 6/6/6 
f 6/6/6 4/4/4 26/26/26 
f 27/27/27 26/26/26 4/4/4 
f 27/27/27 4/4/4 1/1/1 
f 2/2/2 27/27/27 1/1/1 
f 27/27/27 2/2/2 26/26/26 
f 7/7/7 26/26/26 2/2/2 
f 9/9/9 6/6/6 22/22/22 
f 7/7/7 11/11/11 26/26/26 
f 30/30/30 29/29/29 28/28/28 
f 31/31/31 28/28/28 29/29/29 
f 31/31/31 32/32/32 28/28/28 
f 33/33/33 28/28/28 32/32/32 
f 32/32/32 34/34/34 33/33/33 
f 35/35/35 33/33/33 34/34/34 
f 33/33/33 35/35/35 36/36/36 
f 37/37/37 36/36/36 35/35/35 
f 28/28/28 33/33/33 38/38/38 
f 36/36/36 38/38/38 33/33/33 
f 28/28/28 38/38/38 30/30/30 
f 39/39/39 30/30/30 38/38/38 
f 30/30/30 40/40/40 29/29/29 
f 41/41/41 29/29/29 40/40/40 
f 41/41/41 40/40/40 42/42/42 
f 43/43/43 42/42/42 40/40/40 
f 42/42/42 43/43/43 34/34/34 
f 35/35/35 34/34/34 43/43/43 
f 43/43/43 44/44/44 35/35/35 
f 37/37/37 35/35/35 44/44/44 
f 40/40/40 45/45/45 43/43/43 
f 44/44/44 43/43/43 45/45/45 
f 40/40/40 30/30/30 45/45/45 
f 39/39/39 45/45/45 30/30/30 
f 48/48/48 47/47/47 46/46/46 
f 49/49/49 46/46/46 47/47/47 
f 46/46/46 49/49/49 50/50/50 
f 51/51/51 50/50/50 49/49/49 
f 51/51/51 52/52/52 50/50/50 
f 53/53/53 50/50/50 52/52/52 
f 52/52/52 51/51/51 54/54/54 
f 55/55/55 54/54/54 51/51/51 
f 49/49/49 56/56/56 51/51/51 
f 55/55/55 51/51/51 56/56/56 
f 47/47/47 57/57/57 49/49/49 
f 56/56/56 49/49/49 57/57/57 
f 48/48/48 58/58/58 47/47/47 
f 59/59/59 47/47/47 58/58/58 
f 47/47/47 59/59/59 57/57/57 
f 58/58/58 60/60/60 59/59/59 
f 53/53/53 52/52/52 60/60/60 
f 61/61/61 59/59/59 60/60/60 
f 61/61/61 60/60/60 52/52/52 
f 52/52/52 54/54/54 61/61/61 
f 62/62/62 61/61/61 54/54/54 
f 59/59/59 61/61/61 63/63/63 
f 62/62/62 63/63/63 61/61/61 
f 63/63/63 57/57/57 59/59/59 
f 66/66/66 65/65/65 64/64/64 
f 67/67/67 64/64/64 65/65/65 
f 66/66/66 68/68/68 65/65/65 
f 69/69/69 65/65/65 68/68/68 
f 68/68/68 70/70/70 69/69/69 
f 71/71/71 69/69/69 70/70/70 
f 68/68/68 72/72/72 70/70/70 
f 66/66/66 73/73/73 68/68/68 
f 64/64/64 74/74/74 66/66/66 
f 67/67/67 65/65/65 75/75/75 
f 76/76/76 75/75/75 65/65/65 
f 65/65/65 69/69/69 76/76/76 
f 77/77/77 76/76/76 69/69/69 
f 69/69/69 71/71/71 77/77/77 
f 78/78/78 77/77/77 71/71/71 
f 67/67/67 79/79/79 64/64/64 
f 67/67/67 75/75/75 79/79/79 
f 80/80/80 64/64/64 79/79/79 
f 80/80/80 79/79/79 81/81/81 
f 82/82/82 81/81/81 79/79/79 
f 71/71/71 70/70/70 82/82/82 
f 81/81/81 82/82/82 70/70/70 
f 83/83/83 81/81/81 70/70/70 
f 84/84/84 80/80/80 81/81/81 
f 85/85/85 79/79/79 75/75/75 
f 79/79/79 85/85/85 82/82/82 
f 86/86/86 82/82/82 85/85/85 
f 78/78/78 71/71/71 86/86/86 
f 82/82/82 86/86/86 71/71/71 
f 87/87/87 64/64/64 80/80/80 
f 90/90/90 89/89/89 88/88/88 
f 91/91/91 88/88/88 89/89/89 
f 89/89/89 92/92/92 91/91/91 
f 93/93/93 91/91/91 92/92/92 
f 92/92/92 94/94/94 93/93/93 
f 95/95/95 93/93/93 94/94/94 
f 90/90/90 88/88/88 96/96/96 
f 97/97/97 96/96/96 88/88/88 
f 96/96/96 97/97/97 98/98/98 
f 99/99/99 98/98/98 97/97/97 
f 98/98/98 99/99/99 94/94/94 
f 95/95/95 94/94/94 99/99/99 
f 102/102/102 101/101/101 100/100/100 
f 100/100/100 101/101/101 103/103/103 
f 103/103/103 101/101/101 104/104/104 
f 101/101/101 102/102/102 105/105/105 
f 101/101/101 105/105/105 106/106/106 
f 101/101/101 106/106/106 104/104/104 
f 109/109/109 108/108/108 107/107/107 
f 110/110/110 108/108/108 109/109/109 
f 111/111/111 108/108/108 110/110/110 
f 108/108/108 112/112/112 107/107/107 
f 108/108/108 113/113/113 112/112/112 
f 108/108/108 111/111/111 113/113/113 
f 116/116/116 115/115/115 114/114/114 
f 117/117/117 114/114/114 115/115/115 
f 117/117/117 115/115/115 118/118/118 
f 114/114/114 117/117/117 119/119/119 
f 120/120/120 119/119/119 117/117/117 
f 120/120/120 117/117/117 118/118/118 
f 118/118/118 121/121/121 120/120/120 
f 116/116/116 122/122/122 115/115/115 
f 123/123/123 115/115/115 122/122/122 
f 115/115/115 123/123/123 118/118/118 
f 122/122/122 124/124/124 123/123/123 
f 125/125/125 123/123/123 124/124/124 
f 123/123/123 125/125/125 118/118/118 
f 126/126/126 118/118/118 125/125/125 
f 121/121/121 127/127/127 120/120/120 
f 127/127/127 126/126/126 125/125/125 
f 120/120/120 128/128/128 119/119/119 
f 128/128/128 120/120/120 127/127/127 
f 129/129/129 128/128/128 127/127/127 
f 128/128/128 129/129/129 130/130/130 
f 130/130/130 119/119/119 128/128/128 
f 131/131/131 130/130/130 129/129/129 
f 131/131/131 129/129/129 132/132/132 
f 133/133/133 132/132/132 129/129/129 
f 133/133/133 129/129/129 127/127/127 
f 125/125/125 124/124/124 133/133/133 
f 132/132/132 133/133/133 124/124/124 
f 125/125/125 133/133/133 127/127/127 
f 136/136/136 135/135/135 134/134/134 
f 136/136/136 137/137/137 135/135/135 
f 136/136/136 134/134/134 138/138/138 
f 137/137/137 136/136/136 139/139/139 
f 139/139/139 136/136/136 140/140/140 
f 140/140/140 136/136/136 138/138/138 

