# Created by DisUnity v0.3.4
v -0.091340445 0.356882 -0.09879873
v -0.053356305 0.282293 -0.13861021
v -0.07588785 0.46049508 -0.19433422
v -0.11741122 0.48458335 -0.13233124
v -0.13959655 0.55373555 -0.15885113
v -0.088613585 0.4874481 -0.22931576
v -0.09846868 0.53005713 -0.25537127
v -0.15508837 0.60564977 -0.18496752
v -0.044597004 0.558628 -0.10049166
v -0.05078871 0.62098867 -0.115167156
v -0.109921604 0.64526844 -0.15560211
v -0.04510028 0.50622284 -0.10442098
v -0.036444057 0.435278 -0.08313102
v -0.1361021 0.7293332 -0.18505271
v -0.06268443 0.675939 -0.14645033
v -0.11171457 0.7722024 -0.16529319
v -0.084193535 0.7734767 -0.20310129
v -0.10131997 0.7454337 -0.25324208
v -0.08806482 0.8520975 -0.21039006
v -0.074024476 0.8097868 -0.17239349
v -0.06518474 0.77203596 -0.14900012
v -0.16871902 0.6596674 -0.2229301
v -0.097402915 0.57348317 -0.25026652
v -0.10186258 0.6139551 -0.26104838
v -0.18797202 0.6673432 -0.301651
v -0.11649706 0.61575025 -0.30266714
v -0.12419112 0.55667746 -0.32740563
v -0.14618182 0.6360401 -0.3862944
v -0.19855542 0.81191146 -0.35369316
v -0.16603385 0.73910886 -0.43795982
v -0.16252376 0.71395355 -0.26377952
v -0.18128075 0.85834664 -0.47573203
v -0.1996927 1.0180602 -0.3888748
v -0.11230975 0.84812236 -0.27967066
v -0.13829532 1.0095804 -0.34603488
v -0.18128374 1.1936294 -0.3637487
v -0.13358371 1.204982 -0.3233046
v -0.17660692 1.3277435 -0.37378326
v -0.14792806 1.3468401 -0.35742775
v -0.11322382 0.78475744 -0.28529245
v -0.16902415 1.1979188 -0.4246363
v -0.16791847 1.3191754 -0.415712
v -0.1841588 1.0195765 -0.47625718
v -0.18446916 1.5001194 -0.4542617
v -0.13520008 1.3284353 -0.3883134
v -0.121292904 1.1946317 -0.38480017
v -0.11740329 1.019435 -0.41775107
v -0.0901802 0.81372213 -0.39172328
v -0.06162628 0.6694541 -0.34598717
v -0.059210405 0.7156796 -0.30003336
v -0.02724214 0.66203105 -0.27257594
v -0.0125551475 0.60803115 -0.23498406
v -0.031101894 0.73108757 -0.2218985
v -0.030631164 0.64659315 -0.18342604
v -0.039061967 0.7734162 -0.19078782
v -0.006783503 0.5559545 -0.20545675
v -0.005469864 0.48645365 -0.17161274
v -0.0010655434 0.35839027 -0.13047722
v -0.012002543 -0.01257661 -0.03480294
v -0.09111156 0.42435557 -0.12193195
v -0.036704328 -6.1282795E-4 0.012879746
v -0.06640977 0.41239178 -0.16961464
v -0.0424047 0.43754584 -0.10000921
v 0.012002528 0.012577441 0.034802493
v -0.017702911 0.42558205 -0.14769189
v 0.036704317 6.1366125E-4 -0.012880185
v -0.036444057 0.435278 -0.08313102
v -0.053356305 0.282293 -0.13861021
v -0.091340445 0.356882 -0.09879873
v -0.0010655434 0.35839027 -0.13047722
v 0.0010656713 -0.35839027 0.13047718
v 0.053356435 -0.282293 0.13861015
v 0.075887986 -0.46049508 0.19433418
v 0.005470001 -0.48645362 0.17161268
v 0.0067836354 -0.5559545 0.20545673
v 0.088613726 -0.48744816 0.22931571
v 0.09846882 -0.53005713 0.25537124
v 0.012555284 -0.60803115 0.234984
v 0.044597138 -0.558628 0.1004916
v 0.050788846 -0.62098867 0.11516712
v 0.030631294 -0.64659315 0.18342598
v 0.04510041 -0.50622284 0.10442094
v 0.03644419 -0.435278 0.08313097
v 0.031102024 -0.73108757 0.22189844
v 0.062684566 -0.675939 0.14645028
v 0.03906211 -0.7734163 0.1907878
v 0.08419367 -0.7734767 0.20310125
v 0.1013201 -0.7454337 0.25324205
v 0.088064946 -0.8520975 0.21039002
v 0.07402461 -0.8097868 0.17239346
v 0.06518488 -0.77203596 0.1490001
v 0.027242271 -0.66203105 0.2725759
v 0.09740305 -0.57348317 0.2502665
v 0.10186272 -0.61395514 0.26104838
v 0.06162641 -0.66945416 0.34598708
v 0.116497196 -0.61575025 0.3026671
v 0.12419125 -0.55667746 0.32740557
v 0.14618194 -0.6360401 0.3862943
v 0.090180345 -0.81372213 0.39172325
v 0.16603398 -0.73910886 0.43795982
v 0.059210543 -0.7156797 0.3000333
v 0.18128088 -0.85834664 0.47573194
v 0.117403425 -1.019435 0.41775104
v 0.11230988 -0.84812236 0.27967063
v 0.13829544 -1.0095804 0.34603485
v 0.12129304 -1.1946317 0.38480014
v 0.13358384 -1.204982 0.32330456
v 0.13520022 -1.3284353 0.38831332
v 0.14792818 -1.3468401 0.35742772
v 0.11322395 -0.78475744 0.28529242
v 0.16902429 -1.1979188 0.42463624
v 0.16791856 -1.3191754 0.41571197
v 0.18415894 -1.0195765 0.4762571
v 0.18446925 -1.5001194 0.45426163
v 0.17660706 -1.3277435 0.37378323
v 0.18128388 -1.1936294 0.36374867
v 0.19969282 -1.0180602 0.38887474
v 0.19855556 -0.81191146 0.35369313
v 0.18797216 -0.6673432 0.3016509
v 0.16252388 -0.71395355 0.2637795
v 0.16871916 -0.6596674 0.22293004
v 0.1550885 -0.60564977 0.18496746
v 0.13610223 -0.7293332 0.18505268
v 0.10992174 -0.64526844 0.15560205
v 0.11171471 -0.77220243 0.16529316
v 0.13959669 -0.55373555 0.1588511
v 0.11741135 -0.48458335 0.13233119
v 0.09134057 -0.356882 0.098798685
v 0.012002681 0.012576603 0.034802895
v 0.017703043 -0.42558205 0.14769183
v -0.036704175 -6.1366777E-4 0.012880136
v 0.0664099 -0.41239178 0.1696146
v 0.04240483 -0.43754584 0.10000915
v -0.012002391 -0.012577446 -0.03480254
v 0.0911117 -0.42435557 0.1219319
v 0.036704466 6.1282143E-4 -0.0128797935
v 0.03644419 -0.435278 0.08313097
v 0.053356435 -0.282293 0.13861015
v 0.0010656713 -0.35839027 0.13047718
v 0.09134057 -0.356882 0.098798685
vn -0.98153734 -0.17615266 -0.07452871
vn -0.30903992 -0.3192162 -0.89587694
vn -0.27548817 -0.5181105 -0.80973315
vn -0.89917463 -0.1797724 0.3989572
vn -0.90561366 -0.18426968 0.38197982
vn -0.25288722 -0.6114653 -0.74977213
vn -0.3074163 -0.33181372 -0.8918491
vn -0.975093 -0.12902291 0.18040702
vn 0.32241964 0.18793069 0.92775404
vn 0.30725658 0.33302674 0.8914519
vn -0.5455472 0.19611196 0.81481177
vn 0.32239282 0.18827215 0.9276941
vn 0.31677675 0.25103232 0.9146777
vn -0.7805431 0.42820805 0.45540142
vn 0.31139383 0.3000387 0.90167105
vn -0.77493304 0.3797772 0.50522083
vn -0.29800895 0.47757906 -0.826504
vn 0.009470731 0.99717855 0.07446588
vn -0.1506887 0.91006947 -0.38609144
vn 0.2434977 0.64472306 0.72459704
vn 0.31429857 0.27461132 0.90873814
vn -0.95721585 -0.1655532 0.2373392
vn -0.32671458 -0.124021105 -0.9369505
vn -0.18973367 -0.7933374 -0.57846075
vn -0.94455415 -0.30678964 0.11703715
vn -0.038806938 -0.98674494 -0.1575699
vn -0.05931301 -0.9747156 -0.2154334
vn -0.22412391 -0.7055518 -0.6722835
vn -0.959552 0.018445797 0.28092647
vn -0.3056954 -0.34466362 -0.88755697
vn -0.7970412 0.43707284 0.4167646
vn -0.32621747 -0.13262752 -0.93594444
vn -0.95036215 0.054785017 0.30628487
vn 0.325047 0.1513905 0.9335016
vn 0.32538122 0.14622486 0.93420833
vn -0.9205454 0.046922803 0.38780713
vn 0.32918555 0.0720087 0.94151556
vn -0.91708386 0.09160278 0.3880286
vn 0.2940943 0.42086637 0.8581259
vn 0.27930972 0.4999802 0.81975967
vn -0.32829028 0.18204439 -0.92686856
vn -0.32941806 -0.06586136 -0.9418843
vn -0.33044183 0.12259304 -0.9358307
vn -0.1475249 0.91445756 -0.3768339
vn 0.95526826 0.12288569 -0.26900133
vn 0.95916 0.07832854 -0.27180302
vn 0.93126297 0.086222745 -0.35399863
vn 0.9236724 0.049910143 -0.3799186
vn 0.81925875 -0.27732047 -0.5019048
vn 0.8692774 0.46491307 -0.16796574
vn 0.9000928 -0.13452175 -0.41441154
vn 0.8773886 -0.09807224 -0.46964997
vn 0.8808051 0.4559655 -0.12758474
vn 0.9288772 0.22074622 0.2974194
vn 0.9089916 0.40791172 -0.08568762
vn 0.9507453 -0.1532541 -0.26943764
vn 0.9561934 -0.1487734 -0.2521125
vn 0.7245551 -0.1476478 -0.6732163
vn -0.3085218 -0.32328898 -0.8945941
vn -0.94347256 -0.01576325 0.33107552
vn -0.9434727 -0.015763303 0.33107537
vn -0.30852202 -0.32328892 -0.894594
vn 0.30852172 0.3232889 0.8945941
vn 0.30852187 0.3232889 0.894594
vn 0.9434728 0.015763367 -0.3310751
vn 0.9434727 0.015763316 -0.33107525
vn 0.31491926 -0.35414803 0.8805709
vn 0.3149193 -0.35414803 0.8805709
vn 0.31491923 -0.35414803 0.8805709
vn 0.3149193 -0.35414803 0.8805709
vn -0.7245551 0.14764783 0.67321616
vn 0.30903995 0.3192163 0.8958768
vn 0.2754881 0.51811045 0.80973315
vn -0.9561934 0.14877337 0.25211266
vn -0.95074517 0.15325414 0.26943788
vn 0.25288737 0.6114654 0.7497721
vn 0.30741626 0.33181372 0.8918491
vn -0.8773886 0.098072134 0.46964997
vn -0.3224196 -0.18793082 -0.92775404
vn -0.30725664 -0.3330267 -0.891452
vn -0.9288772 -0.22074622 -0.2974195
vn -0.32239282 -0.1882722 -0.9276941
vn -0.31677672 -0.25103238 -0.9146777
vn -0.8808052 -0.45596534 0.12758441
vn -0.31139374 -0.30003884 -0.90167105
vn -0.9089914 -0.40791196 0.08568804
vn 0.29800898 -0.47757912 0.826504
vn -0.009470376 -0.9971787 -0.07446591
vn 0.15068875 -0.9100693 0.38609168
vn -0.24349788 -0.6447229 -0.72459716
vn -0.31429875 -0.27461112 -0.90873814
vn -0.90009266 0.13452192 0.41441151
vn 0.32671452 0.12402112 0.9369505
vn 0.18973352 0.7933377 0.5784604
vn -0.81925887 0.2773202 0.50190467
vn 0.038806636 0.98674506 0.15756989
vn 0.05931277 0.9747156 0.2154335
vn 0.2241237 0.7055521 0.67228335
vn -0.9236724 -0.049910165 0.3799186
vn 0.3056952 0.34466368 0.88755697
vn -0.8692774 -0.4649134 0.16796541
vn 0.32621777 0.1326273 0.9359443
vn -0.93126297 -0.08622272 0.35399875
vn -0.32504708 -0.15139043 -0.9335016
vn -0.32538137 -0.14622481 -0.93420833
vn -0.95916 -0.0783285 0.271803
vn -0.32918555 -0.0720087 -0.94151556
vn -0.9552684 -0.12288564 0.26900095
vn -0.29409447 -0.42086622 -0.8581259
vn -0.27930954 -0.4999803 -0.81975967
vn 0.32829016 -0.18204439 0.92686856
vn 0.32941714 0.065861136 0.94188464
vn 0.33044195 -0.122593 0.9358307
vn 0.14752616 -0.91445845 0.37683138
vn 0.9170839 -0.09160284 -0.38802838
vn 0.9205454 -0.046922836 -0.38780713
vn 0.950362 -0.054785002 -0.30628514
vn 0.959552 -0.018445782 -0.2809264
vn 0.94455403 0.30678964 -0.11703732
vn 0.7970411 -0.43707296 -0.41676462
vn 0.95721585 0.16555306 -0.23733918
vn 0.975093 0.1290229 -0.18040709
vn 0.78054315 -0.42820802 -0.4554012
vn 0.5455471 -0.19611199 -0.8148119
vn 0.7749331 -0.37977746 -0.50522053
vn 0.90561366 0.18426982 -0.38197973
vn 0.89917463 0.17977242 -0.39895713
vn 0.98153734 0.17615268 0.07452861
vn 0.3085218 0.32328898 0.8945941
vn -0.9434728 -0.015763339 0.33107513
vn -0.9434727 -0.01576333 0.33107522
vn 0.308522 0.3232889 0.894594
vn -0.30852175 -0.3232889 -0.8945941
vn -0.30852193 -0.32328886 -0.894594
vn 0.94347256 0.015763264 -0.33107546
vn 0.9434727 0.015763303 -0.33107537
vn -0.31491926 0.35414803 -0.8805709
vn -0.3149193 0.35414803 -0.8805709
vn -0.31491923 0.35414803 -0.8805709
vn -0.31491923 0.35414803 -0.8805709
vt 0.19015 0.94375205
vt 0.0316944 0.97759324
vt 0.14909486 0.8412865
vt 0.27915835 0.8610158
vt 0.3170083 0.7947886
vt 0.1407806 0.8023009
vt 0.16118725 0.76118827
vt 0.3497892 0.74721926
vt 0.47892076 0.8594179
vt 0.53927016 0.8101362
vt 0.46666914 0.74956983
vt 0.40400618 0.8907993
vt 0.35412902 0.93512315
vt 0.46703345 0.67732567
vt 0.5701995 0.75165194
vt 0.5960292 0.6594142
vt 0.5624602 0.62890184
vt 0.46381178 0.61459625
vt 0.6756222 0.59225136
vt 0.66877913 0.64167786
vt 0.65762925 0.6798984
vt 0.30802 0.6959083
vt 0.21896116 0.7423749
vt 0.24759637 0.71963304
vt 0.22764193 0.65664876
vt 0.19004966 0.70119333
vt 0.085520305 0.7219373
vt 0.077256195 0.6336964
vt 0.30213335 0.5175861
vt 0.102335766 0.5318666
vt 0.35779274 0.63347405
vt 0.17034891 0.42767757
vt 0.46513933 0.35815978
vt 0.5069649 0.5371883
vt 0.5677889 0.39664048
vt 0.6929052 0.2518943
vt 0.7939878 0.27283764
vt 0.83572143 0.1608156
vt 0.9018074 0.16288793
vt 0.44617018 0.57738817
vt 0.6129791 0.21738529
vt 0.7699702 0.14323246
vt 0.34194216 0.31365317
vt 0.94424796 0.021021724
vt 0.83572143 0.1608156
vt 0.6929052 0.2518943
vt 0.46513933 0.35815978
vt 0.30213335 0.5175861
vt 0.22764193 0.65664876
vt 0.35779274 0.63347405
vt 0.30802 0.6959083
vt 0.3497892 0.74721926
vt 0.46703345 0.67732567
vt 0.46666914 0.74956983
vt 0.5960292 0.6594142
vt 0.3170083 0.7947886
vt 0.27915835 0.8610158
vt 0.19015 0.94375205
vt 0.70290256 0.9690825
vt 0.8374127 0.49265665
vt 0.8374127 0.9690825
vt 0.70290256 0.49265665
vt 0.97192293 0.49265665
vt 0.97192293 0.9690825
vt 0.8374127 0.49265665
vt 0.8374127 0.9690825
vt 0.35412902 0.93512315
vt 0.0316944 0.97759324
vt 0.19015 0.94375205
vt 0.19015 0.94375205
vt 0.19015 0.94375205
vt 0.0316944 0.97759324
vt 0.14909486 0.8412865
vt 0.27915835 0.8610158
vt 0.3170083 0.7947886
vt 0.1407806 0.8023009
vt 0.16118725 0.76118827
vt 0.3497892 0.74721926
vt 0.47892076 0.8594179
vt 0.53927016 0.8101362
vt 0.46666914 0.74956983
vt 0.40400618 0.8907993
vt 0.35412902 0.93512315
vt 0.46703345 0.67732567
vt 0.5701995 0.75165194
vt 0.5960292 0.6594142
vt 0.5624602 0.62890184
vt 0.46381178 0.61459625
vt 0.6756222 0.59225136
vt 0.66877913 0.64167786
vt 0.65762925 0.6798984
vt 0.30802 0.6959083
vt 0.21896116 0.7423749
vt 0.24759637 0.71963304
vt 0.22764193 0.65664876
vt 0.19004966 0.70119333
vt 0.085520305 0.7219373
vt 0.077256195 0.6336964
vt 0.30213335 0.5175861
vt 0.102335766 0.5318666
vt 0.35779274 0.63347405
vt 0.17034891 0.42767757
vt 0.46513933 0.35815978
vt 0.5069649 0.5371883
vt 0.5677889 0.39664048
vt 0.6929052 0.2518943
vt 0.7939878 0.27283764
vt 0.83572143 0.1608156
vt 0.9018074 0.16288793
vt 0.44617018 0.57738817
vt 0.6129791 0.21738529
vt 0.7699702 0.14323246
vt 0.34194216 0.31365317
vt 0.94424796 0.021021724
vt 0.83572143 0.1608156
vt 0.6929052 0.2518943
vt 0.46513933 0.35815978
vt 0.30213335 0.5175861
vt 0.22764193 0.65664876
vt 0.35779274 0.63347405
vt 0.30802 0.6959083
vt 0.3497892 0.74721926
vt 0.46703345 0.67732567
vt 0.46666914 0.74956983
vt 0.5960292 0.6594142
vt 0.3170083 0.7947886
vt 0.27915835 0.8610158
vt 0.19015 0.94375205
vt 0.70290256 0.9690825
vt 0.8374127 0.49265665
vt 0.8374127 0.9690825
vt 0.70290256 0.49265665
vt 0.97192293 0.49265665
vt 0.97192293 0.9690825
vt 0.8374127 0.49265665
vt 0.8374127 0.9690825
vt 0.35412902 0.93512315
vt 0.0316944 0.97759324
vt 0.19015 0.94375205
vt 0.19015 0.94375205

g nan_zhu_jue_03_w_0
s 1
usemtl nan_zhu_jue_03_w_0
f 3/3/3 2/2/2 1/1/1 
f 4/4/4 3/3/3 1/1/1 
f 3/3/3 4/4/4 5/5/5 
f 6/6/6 3/3/3 5/5/5 
f 7/7/7 6/6/6 5/5/5 
f 7/7/7 5/5/5 8/8/8 
f 9/9/9 5/5/5 4/4/4 
f 10/10/10 5/5/5 9/9/9 
f 11/11/11 5/5/5 10/10/10 
f 8/8/8 5/5/5 11/11/11 
f 12/12/12 9/9/9 4/4/4 
f 12/12/12 4/4/4 1/1/1 
f 13/13/13 12/12/12 1/1/1 
f 8/8/8 11/11/11 14/14/14 
f 11/11/11 15/15/15 14/14/14 
f 15/15/15 11/11/11 10/10/10 
f 16/16/16 14/14/14 15/15/15 
f 14/14/14 16/16/16 17/17/17 
f 18/18/18 14/14/14 17/17/17 
f 17/17/17 16/16/16 19/19/19 
f 20/20/20 19/19/19 16/16/16 
f 21/21/21 20/20/20 16/16/16 
f 21/21/21 16/16/16 15/15/15 
f 22/22/22 8/8/8 14/14/14 
f 23/23/23 8/8/8 22/22/22 
f 24/24/24 23/23/23 22/22/22 
f 24/24/24 22/22/22 25/25/25 
f 26/26/26 24/24/24 25/25/25 
f 27/27/27 26/26/26 25/25/25 
f 28/28/28 27/27/27 25/25/25 
f 25/25/25 29/29/29 28/28/28 
f 29/29/29 30/30/30 28/28/28 
f 31/31/31 29/29/29 25/25/25 
f 25/25/25 22/22/22 31/31/31 
f 32/32/32 30/30/30 29/29/29 
f 32/32/32 29/29/29 33/33/33 
f 33/33/33 29/29/29 34/34/34 
f 35/35/35 33/33/33 34/34/34 
f 36/36/36 33/33/33 35/35/35 
f 37/37/37 36/36/36 35/35/35 
f 38/38/38 36/36/36 37/37/37 
f 39/39/39 38/38/38 37/37/37 
f 34/34/34 29/29/29 40/40/40 
f 40/40/40 29/29/29 31/31/31 
f 41/41/41 36/36/36 38/38/38 
f 42/42/42 41/41/41 38/38/38 
f 41/41/41 43/43/43 36/36/36 
f 43/43/43 33/33/33 36/36/36 
f 43/43/43 32/32/32 33/33/33 
f 39/39/39 44/44/44 38/38/38 
f 38/38/38 44/44/44 42/42/42 
f 18/18/18 40/40/40 31/31/31 
f 18/18/18 31/31/31 14/14/14 
f 22/22/22 14/14/14 31/31/31 
f 45/45/45 39/39/39 37/37/37 
f 41/41/41 42/42/42 45/45/45 
f 44/44/44 39/39/39 45/45/45 
f 44/44/44 45/45/45 42/42/42 
f 46/46/46 45/45/45 37/37/37 
f 46/46/46 37/37/37 35/35/35 
f 46/46/46 41/41/41 45/45/45 
f 43/43/43 41/41/41 46/46/46 
f 47/47/47 46/46/46 35/35/35 
f 47/47/47 43/43/43 46/46/46 
f 47/47/47 35/35/35 34/34/34 
f 48/48/48 47/47/47 34/34/34 
f 48/48/48 34/34/34 40/40/40 
f 48/48/48 32/32/32 47/47/47 
f 32/32/32 43/43/43 47/47/47 
f 30/30/30 32/32/32 48/48/48 
f 30/30/30 48/48/48 28/28/28 
f 48/48/48 49/49/49 28/28/28 
f 48/48/48 50/50/50 49/49/49 
f 27/27/27 28/28/28 49/49/49 
f 26/26/26 27/27/27 49/49/49 
f 24/24/24 26/26/26 49/49/49 
f 51/51/51 24/24/24 49/49/49 
f 51/51/51 49/49/49 50/50/50 
f 23/23/23 24/24/24 51/51/51 
f 52/52/52 23/23/23 51/51/51 
f 53/53/53 51/51/51 50/50/50 
f 52/52/52 51/51/51 53/53/53 
f 54/54/54 52/52/52 53/53/53 
f 15/15/15 54/54/54 53/53/53 
f 53/53/53 55/55/55 15/15/15 
f 55/55/55 53/53/53 17/17/17 
f 53/53/53 18/18/18 17/17/17 
f 50/50/50 18/18/18 53/53/53 
f 55/55/55 17/17/17 19/19/19 
f 19/19/19 20/20/20 55/55/55 
f 20/20/20 21/21/21 55/55/55 
f 55/55/55 21/21/21 15/15/15 
f 54/54/54 15/15/15 10/10/10 
f 56/56/56 54/54/54 10/10/10 
f 56/56/56 52/52/52 54/54/54 
f 56/56/56 10/10/10 9/9/9 
f 56/56/56 7/7/7 52/52/52 
f 7/7/7 23/23/23 52/52/52 
f 23/23/23 7/7/7 8/8/8 
f 6/6/6 7/7/7 56/56/56 
f 3/3/3 6/6/6 56/56/56 
f 57/57/57 3/3/3 56/56/56 
f 56/56/56 9/9/9 57/57/57 
f 9/9/9 12/12/12 57/57/57 
f 57/57/57 12/12/12 58/58/58 
f 3/3/3 57/57/57 58/58/58 
f 2/2/2 3/3/3 58/58/58 
f 12/12/12 13/13/13 58/58/58 
f 40/40/40 18/18/18 50/50/50 
f 48/48/48 40/40/40 50/50/50 
f 61/61/61 60/60/60 59/59/59 
f 60/60/60 62/62/62 59/59/59 
f 63/63/63 60/60/60 61/61/61 
f 64/64/64 63/63/63 61/61/61 
f 62/62/62 65/65/65 59/59/59 
f 65/65/65 66/66/66 59/59/59 
f 65/65/65 63/63/63 66/66/66 
f 63/63/63 64/64/64 66/66/66 
f 69/69/69 68/68/68 67/67/67 
f 68/68/68 70/70/70 67/67/67 
f 73/73/73 72/72/72 71/71/71 
f 74/74/74 73/73/73 71/71/71 
f 73/73/73 74/74/74 75/75/75 
f 76/76/76 73/73/73 75/75/75 
f 77/77/77 76/76/76 75/75/75 
f 77/77/77 75/75/75 78/78/78 
f 79/79/79 75/75/75 74/74/74 
f 80/80/80 75/75/75 79/79/79 
f 81/81/81 75/75/75 80/80/80 
f 78/78/78 75/75/75 81/81/81 
f 82/82/82 79/79/79 74/74/74 
f 82/82/82 74/74/74 71/71/71 
f 83/83/83 82/82/82 71/71/71 
f 78/78/78 81/81/81 84/84/84 
f 81/81/81 85/85/85 84/84/84 
f 85/85/85 81/81/81 80/80/80 
f 86/86/86 84/84/84 85/85/85 
f 84/84/84 86/86/86 87/87/87 
f 88/88/88 84/84/84 87/87/87 
f 87/87/87 86/86/86 89/89/89 
f 90/90/90 89/89/89 86/86/86 
f 91/91/91 90/90/90 86/86/86 
f 91/91/91 86/86/86 85/85/85 
f 92/92/92 78/78/78 84/84/84 
f 93/93/93 78/78/78 92/92/92 
f 94/94/94 93/93/93 92/92/92 
f 94/94/94 92/92/92 95/95/95 
f 96/96/96 94/94/94 95/95/95 
f 97/97/97 96/96/96 95/95/95 
f 98/98/98 97/97/97 95/95/95 
f 95/95/95 99/99/99 98/98/98 
f 99/99/99 100/100/100 98/98/98 
f 101/101/101 99/99/99 95/95/95 
f 95/95/95 92/92/92 101/101/101 
f 102/102/102 100/100/100 99/99/99 
f 102/102/102 99/99/99 103/103/103 
f 103/103/103 99/99/99 104/104/104 
f 105/105/105 103/103/103 104/104/104 
f 106/106/106 103/103/103 105/105/105 
f 107/107/107 106/106/106 105/105/105 
f 108/108/108 106/106/106 107/107/107 
f 109/109/109 108/108/108 107/107/107 
f 104/104/104 99/99/99 110/110/110 
f 110/110/110 99/99/99 101/101/101 
f 111/111/111 106/106/106 108/108/108 
f 112/112/112 111/111/111 108/108/108 
f 111/111/111 113/113/113 106/106/106 
f 113/113/113 103/103/103 106/106/106 
f 113/113/113 102/102/102 103/103/103 
f 109/109/109 114/114/114 108/108/108 
f 108/108/108 114/114/114 112/112/112 
f 88/88/88 110/110/110 101/101/101 
f 88/88/88 101/101/101 84/84/84 
f 92/92/92 84/84/84 101/101/101 
f 115/115/115 109/109/109 107/107/107 
f 111/111/111 112/112/112 115/115/115 
f 114/114/114 109/109/109 115/115/115 
f 114/114/114 115/115/115 112/112/112 
f 116/116/116 115/115/115 107/107/107 
f 116/116/116 107/107/107 105/105/105 
f 116/116/116 111/111/111 115/115/115 
f 113/113/113 111/111/111 116/116/116 
f 117/117/117 116/116/116 105/105/105 
f 117/117/117 113/113/113 116/116/116 
f 117/117/117 105/105/105 104/104/104 
f 118/118/118 117/117/117 104/104/104 
f 118/118/118 104/104/104 110/110/110 
f 118/118/118 102/102/102 117/117/117 
f 102/102/102 113/113/113 117/117/117 
f 100/100/100 102/102/102 118/118/118 
f 100/100/100 118/118/118 98/98/98 
f 118/118/118 119/119/119 98/98/98 
f 118/118/118 120/120/120 119/119/119 
f 97/97/97 98/98/98 119/119/119 
f 96/96/96 97/97/97 119/119/119 
f 94/94/94 96/96/96 119/119/119 
f 121/121/121 94/94/94 119/119/119 
f 121/121/121 119/119/119 120/120/120 
f 93/93/93 94/94/94 121/121/121 
f 122/122/122 93/93/93 121/121/121 
f 123/123/123 121/121/121 120/120/120 
f 122/122/122 121/121/121 123/123/123 
f 124/124/124 122/122/122 123/123/123 
f 85/85/85 124/124/124 123/123/123 
f 123/123/123 125/125/125 85/85/85 
f 125/125/125 123/123/123 87/87/87 
f 123/123/123 88/88/88 87/87/87 
f 120/120/120 88/88/88 123/123/123 
f 125/125/125 87/87/87 89/89/89 
f 89/89/89 90/90/90 125/125/125 
f 90/90/90 91/91/91 125/125/125 
f 125/125/125 91/91/91 85/85/85 
f 124/124/124 85/85/85 80/80/80 
f 126/126/126 124/124/124 80/80/80 
f 126/126/126 122/122/122 124/124/124 
f 126/126/126 80/80/80 79/79/79 
f 126/126/126 77/77/77 122/122/122 
f 77/77/77 93/93/93 122/122/122 
f 93/93/93 77/77/77 78/78/78 
f 76/76/76 77/77/77 126/126/126 
f 73/73/73 76/76/76 126/126/126 
f 127/127/127 73/73/73 126/126/126 
f 126/126/126 79/79/79 127/127/127 
f 79/79/79 82/82/82 127/127/127 
f 127/127/127 82/82/82 128/128/128 
f 73/73/73 127/127/127 128/128/128 
f 72/72/72 73/73/73 128/128/128 
f 82/82/82 83/83/83 128/128/128 
f 110/110/110 88/88/88 120/120/120 
f 118/118/118 110/110/110 120/120/120 
f 131/131/131 130/130/130 129/129/129 
f 130/130/130 132/132/132 129/129/129 
f 133/133/133 130/130/130 131/131/131 
f 134/134/134 133/133/133 131/131/131 
f 132/132/132 135/135/135 129/129/129 
f 135/135/135 136/136/136 129/129/129 
f 135/135/135 133/133/133 136/136/136 
f 133/133/133 134/134/134 136/136/136 
f 139/139/139 138/138/138 137/137/137 
f 138/138/138 140/140/140 137/137/137 

