# Created by DisUnity v0.3.4
v 0.005312109 0.12106575 0.020902157
v 0.059777174 -0.11820187 0.04366393
v 0.034362495 -0.10584182 0.0928834
v 0.030726714 0.10870579 -0.02831726
v -0.019418221 0.09515167 -0.05080634
v 0.009632182 -0.13175583 0.021174936
v 0.040604454 0.10887079 -0.03178345
v 0.008542203 0.12445045 0.030268202
v -0.022648314 0.09176697 -0.06017239
v 0.03577176 0.14661835 -0.043758
v 0.0037094783 0.16219807 0.018293656
v -0.027481027 0.1295145 -0.0721469
v 0.02869824 0.14650017 -0.041275825
v 0.0013963938 0.15977427 0.01158658
v -0.025167938 0.13193831 -0.065439835
v 0.025530256 0.17124479 -0.04912549
v -0.0017715882 0.18451884 0.0037369442
v -0.028335921 0.1566829 -0.07328948
v -0.015086934 0.17056622 -0.034872472
v -0.015848849 -0.11946552 0.07020197
v -0.044899166 0.10744217 -0.0017792797
v -0.054776896 0.10727709 0.0016869354
v -0.059609633 0.14502464 -0.0102876
v -0.05253611 0.14514282 -0.012769775
v -0.055704117 0.16988747 -0.02061943
v -0.0026933097 -0.19384533 0.09154769
v 0.059061155 -0.164067 0.16049534
v 0.065059796 -0.1927132 0.067772366
v 0.06953275 -0.23728622 0.18685009
v 0.09165486 -0.42733642 0.14339079
v 0.013208113 -0.34934002 0.021004943
v 0.08458633 -0.40318435 0.22184932
v 0.09016225 -0.4798655 0.23408794
v -0.012347121 -0.28322503 -0.048672274
v 0.03610174 -0.4773783 0.080148816
v 0.14058286 -0.8185423 0.29552943
v 0.09128073 -0.8976403 0.21738273
v 0.15373981 -1.2450092 0.37883368
v 0.18578938 -1.104889 0.42001265
v 0.17979561 -1.0246848 0.46357635
v 0.13172837 -0.78846383 0.33784574
v 0.10477718 -0.60366255 0.2698418
v 0.16835055 -1.1051049 0.42713186
v 0.09927819 -0.81923246 0.31002373
v 0.15028943 -1.1054821 0.43247
v 0.030774655 -0.42835358 0.16475433
vn 0.24095722 -0.71850497 0.6524494
vn 0.9559763 0.114503935 -0.27018148
vn 0.2960537 0.40905565 0.8631487
vn 0.51169086 -0.849306 0.1298147
vn -0.022226078 -0.9936109 -0.11064955
vn -0.32973954 0.14600341 -0.93271375
vn 0.84001046 -0.5336821 -0.09780556
vn 0.32185534 -0.28217533 0.90376234
vn -0.18193111 -0.8103152 -0.55703706
vn 0.70013636 0.55886143 -0.44439062
vn 0.18200709 0.8101544 0.5572462
vn -0.32183364 0.28243813 -0.90368795
vn 0.29256314 0.8623909 -0.413145
vn 0.021755878 0.9937688 0.10931755
vn -0.24128081 0.71751493 -0.65341854
vn 0.70008963 0.5588123 -0.4445258
vn 0.1820138 0.8101405 0.55726415
vn -0.3218317 0.2824597 -0.9036819
vn -0.121135935 0.9461686 -0.30015168
vn -0.91812474 0.08318988 0.3874616
vn -0.2929015 -0.86274946 0.41215536
vn -0.700671 -0.5594244 0.44283685
vn -0.8405474 0.5331187 0.09625256
vn -0.51203394 0.84894747 -0.13080291
vn -0.8405942 0.53306925 0.09611749
vn -0.9045852 0.02422575 0.425604
vn 0.26639763 0.5582493 0.7857417
vn 0.97099406 0.055564564 -0.23255773
vn 0.3115762 0.29849946 0.9021188
vn 0.9575632 -0.008272842 -0.28810441
vn -0.2794537 -0.49927574 -0.8201399
vn 0.3214774 0.1996596 0.9256286
vn 0.3152095 0.2661627 0.9109338
vn -0.3024176 -0.36787924 -0.87932277
vn -0.29127637 -0.43722743 -0.8508761
vn 0.96929026 0.06746792 -0.23648362
vn -0.29748684 -0.40017745 -0.86680996
vn -0.0064663175 -0.9978023 -0.06594383
vn 0.92388815 -0.25861624 0.28204295
vn 0.32096124 0.20584926 0.92445123
vn 0.29374912 0.42290843 0.8572398
vn 0.3069095 0.3356459 0.89058876
vn 0.31131876 -0.38495958 0.8688422
vn -0.90606225 0.036133025 0.42159876
vn -0.53700167 -0.28302607 0.7946857
vn -0.92690754 -0.039760154 0.3731775
vt 0.7073737 0.9163352
vt 0.53162354 0.7587063
vt 0.7073737 0.7587984
vt 0.53162354 0.9163352
vt 0.37525395 0.9163352
vt 0.37525395 0.7608224
vt 0.53162354 0.92129564
vt 0.7073737 0.92129564
vt 0.37525395 0.92129564
vt 0.53162354 0.9471939
vt 0.7073737 0.9471939
vt 0.37525395 0.9471939
vt 0.53162354 0.95536697
vt 0.7073737 0.95536697
vt 0.37525395 0.95536697
vt 0.53162354 0.9720771
vt 0.7073737 0.9720771
vt 0.37525395 0.9720771
vt 0.53162354 0.9807862
vt 0.53162354 0.7587063
vt 0.53162354 0.9163352
vt 0.53162354 0.92129564
vt 0.53162354 0.9471939
vt 0.53162354 0.95536697
vt 0.53162354 0.9720771
vt 0.53162354 0.7066497
vt 0.7999675 0.7068052
vt 0.53162354 0.7066497
vt 0.7999675 0.6563948
vt 0.53162354 0.5362712
vt 0.17471386 0.6194485
vt 0.7999675 0.5362712
vt 0.7999675 0.49494535
vt 0.17471386 0.6745562
vt 0.17471386 0.5362712
vt 0.53162354 0.25986344
vt 0.17471386 0.25986344
vt 0.17471386 0.015742242
vt 0.53162354 0.08706713
vt 0.7999675 0.1248036
vt 0.7999675 0.25986344
vt 0.7999675 0.40947676
vt 0.53783363 0.04662782
vt 0.53162354 0.25986344
vt 0.53162354 0.08706713
vt 0.53162354 0.5362712

g nan_zhu_jue_01_w_0
s 1
usemtl nan_zhu_jue_01_w_0
f 3/3/3 2/2/2 1/1/1 
f 4/4/4 1/1/1 2/2/2 
f 4/4/4 2/2/2 5/5/5 
f 6/6/6 5/5/5 2/2/2 
f 4/4/4 7/7/7 1/1/1 
f 8/8/8 1/1/1 7/7/7 
f 7/7/7 4/4/4 9/9/9 
f 5/5/5 9/9/9 4/4/4 
f 7/7/7 10/10/10 8/8/8 
f 11/11/11 8/8/8 10/10/10 
f 10/10/10 7/7/7 12/12/12 
f 9/9/9 12/12/12 7/7/7 
f 10/10/10 13/13/13 11/11/11 
f 14/14/14 11/11/11 13/13/13 
f 13/13/13 10/10/10 15/15/15 
f 12/12/12 15/15/15 10/10/10 
f 13/13/13 16/16/16 14/14/14 
f 17/17/17 14/14/14 16/16/16 
f 16/16/16 13/13/13 18/18/18 
f 15/15/15 18/18/18 13/13/13 
f 16/16/16 19/19/19 17/17/17 
f 18/18/18 19/19/19 16/16/16 
f 6/6/6 20/20/20 5/5/5 
f 21/21/21 5/5/5 20/20/20 
f 21/21/21 20/20/20 1/1/1 
f 3/3/3 1/1/1 20/20/20 
f 21/21/21 1/1/1 22/22/22 
f 22/22/22 9/9/9 21/21/21 
f 9/9/9 22/22/22 12/12/12 
f 8/8/8 22/22/22 1/1/1 
f 22/22/22 8/8/8 23/23/23 
f 11/11/11 23/23/23 8/8/8 
f 23/23/23 12/12/12 22/22/22 
f 12/12/12 23/23/23 15/15/15 
f 23/23/23 11/11/11 24/24/24 
f 14/14/14 24/24/24 11/11/11 
f 24/24/24 15/15/15 23/23/23 
f 15/15/15 24/24/24 18/18/18 
f 24/24/24 14/14/14 25/25/25 
f 17/17/17 25/25/25 14/14/14 
f 25/25/25 18/18/18 24/24/24 
f 19/19/19 25/25/25 17/17/17 
f 19/19/19 18/18/18 25/25/25 
f 26/26/26 3/3/3 20/20/20 
f 26/26/26 27/27/27 3/3/3 
f 27/27/27 28/28/28 3/3/3 
f 3/3/3 28/28/28 2/2/2 
f 27/27/27 29/29/29 28/28/28 
f 29/29/29 27/27/27 26/26/26 
f 28/28/28 29/29/29 30/30/30 
f 28/28/28 30/30/30 31/31/31 
f 32/32/32 30/30/30 29/29/29 
f 32/32/32 33/33/33 30/30/30 
f 28/28/28 34/34/34 2/2/2 
f 34/34/34 28/28/28 31/31/31 
f 26/26/26 34/34/34 31/31/31 
f 2/2/2 34/34/34 6/6/6 
f 35/35/35 31/31/31 30/30/30 
f 30/30/30 36/36/36 35/35/35 
f 35/35/35 36/36/36 37/37/37 
f 38/38/38 37/37/37 36/36/36 
f 39/39/39 38/38/38 36/36/36 
f 39/39/39 36/36/36 40/40/40 
f 41/41/41 40/40/40 36/36/36 
f 42/42/42 41/41/41 36/36/36 
f 30/30/30 42/42/42 36/36/36 
f 33/33/33 42/42/42 30/30/30 
f 39/39/39 43/43/43 38/38/38 
f 40/40/40 43/43/43 39/39/39 
f 34/34/34 20/20/20 6/6/6 
f 41/41/41 44/44/44 40/40/40 
f 37/37/37 38/38/38 44/44/44 
f 44/44/44 35/35/35 37/37/37 
f 41/41/41 42/42/42 44/44/44 
f 45/45/45 40/40/40 44/44/44 
f 38/38/38 45/45/45 44/44/44 
f 43/43/43 45/45/45 38/38/38 
f 43/43/43 40/40/40 45/45/45 
f 33/33/33 32/32/32 46/46/46 
f 44/44/44 46/46/46 35/35/35 
f 42/42/42 46/46/46 44/44/44 
f 42/42/42 33/33/33 46/46/46 
f 46/46/46 32/32/32 29/29/29 
f 29/29/29 26/26/26 46/46/46 
f 46/46/46 26/26/26 31/31/31 
f 34/34/34 26/26/26 20/20/20 
f 31/31/31 35/35/35 46/46/46 
f 5/5/5 21/21/21 9/9/9 

