# Created by DisUnity v0.3.4
v -0.0 1.4842275 -5.967982E-8
v 1.335144E-7 1.3944104 -0.026834013
v 0.0749765 1.3944104 1.30727535E-8
v 1.14440915E-7 1.3078592 -0.034431964
v 0.0962059 1.3078592 1.5292535E-8
v 1.04904174E-7 1.178849 -0.02449615
v 0.068444364 1.178849 1.8601257E-8
v 7.6293944E-8 1.0041136 -0.03065967
v 0.057012938 1.0041136 4.9567547E-8
v 5.7220458E-8 0.8995989 -0.06666573
v 0.12396774 0.8995989 5.1299182E-8
v 5.2452087E-8 0.822846 -0.027146885
v 0.0504808 0.822846 5.2570854E-8
v 4.7683713E-8 0.7640566 -0.036807083
v 0.068444364 0.7640566 5.35449E-8
v 0.021157874 0.73832786 -0.036646385
v -0.0749765 1.3944104 -1.1276614E-7
v -0.0962059 1.3078592 -9.812451E-8
v -0.068444364 1.178849 -7.8446405E-8
v -0.057012938 1.0041136 -6.151884E-8
v -0.12396774 0.8995989 -3.5005613E-8
v -0.0504808 0.822846 -2.2193507E-8
v -0.068444364 0.7640566 -8.349179E-9
v -0.021157797 0.73832786 -0.03664643
v -1.2397766E-7 1.3078592 0.034431875
v -1.335144E-7 1.3944104 0.0268339
v -8.106232E-8 1.0041136 0.030659651
v -1.04904174E-7 1.178849 0.024496082
v -5.2452087E-8 0.822846 0.027146906
v -6.67572E-8 0.8995989 0.06666573
v -4.7683713E-8 0.7640566 0.03680712
v -0.02115787 0.73832786 0.036646467
v 0.021157794 0.73832786 0.03664651
v -0.042315673 0.7134322 3.6706296E-10
v 0.042315673 0.7134322 8.5830685E-8
v 0.021157874 0.73832786 -0.036646385
v 0.060279083 0.68403757 8.5830685E-8
v 0.042315673 0.7134322 8.5830685E-8
v 0.030139571 0.68403757 -0.05220315
v 0.020284133 0.55605674 -0.035133045
v 0.040568236 0.55605674 8.5830685E-8
v 0.030676726 0.4544402 -0.053133566
v 0.061353453 0.4544402 8.5830685E-8
v 0.021438822 0.42441702 -0.037133053
v 0.042877655 0.42441702 8.5830685E-8
v 0.020284109 0.39208457 -0.035133034
v 0.040568236 0.39208457 8.5830685E-8
v -0.030139502 0.68403757 -0.052203193
v -0.021157797 0.73832786 -0.03664643
v 4.7683713E-8 0.7640566 -0.036807083
v -0.0202841 0.55605674 -0.035133064
v -0.030676726 0.4544402 -0.053133566
v -0.021438828 0.42441702 -0.03713305
v -0.020284124 0.39208457 -0.035133027
v -0.042315673 0.7134322 3.6706296E-10
v -0.060279083 0.68403757 1.1515476E-8
v -0.040568236 0.55605674 5.1493743E-8
v -0.061353453 0.4544402 8.64217E-8
v -0.042877655 0.42441702 9.45893E-8
v -0.040568236 0.39208457 1.04922655E-7
v -0.02115787 0.73832786 0.036646467
v -0.03013957 0.68403757 0.052203245
v -0.020284133 0.55605674 0.03513318
v -0.030676726 0.4544402 0.053133734
v -0.021438822 0.42441702 0.037133228
v -0.020284109 0.39208457 0.035133224
v 0.0301395 0.68403757 0.052203283
v 0.021157794 0.73832786 0.03664651
v -4.7683713E-8 0.7640566 0.03680712
v 0.0202841 0.55605674 0.035133198
v 0.030676719 0.4544402 0.053133734
v 0.021438828 0.42441702 0.037133224
v 0.02028412 0.39208457 0.035133213
v 0.040568236 0.39208457 8.5830685E-8
v 0.020283971 -0.65203637 -0.035132952
v 0.040568236 -0.65203637 8.5830685E-8
v 0.020284109 0.39208457 -0.035133034
v -0.020284265 -0.65203637 -0.035132784
v -0.020284124 0.39208457 -0.035133027
v -0.040568236 -0.65203637 4.2856462E-7
v -0.040568236 0.39208457 1.04922655E-7
v -0.020283965 -0.65203637 0.035133462
v -0.020284109 0.39208457 0.035133224
v 0.020284262 -0.65203637 0.035133295
v 0.02028412 0.39208457 0.035133213
v 0.040568236 -0.65203637 8.5830685E-8
v 0.031296454 -0.6583427 -0.05420733
v 0.062593386 -0.6583427 -1.1681295E-8
v 0.020283971 -0.65203637 -0.035132952
v 0.05085912 -0.7080656 8.958754E-8
v 0.025429402 -0.7080656 -0.044045106
v -0.03129692 -0.6583427 -0.054207053
v -0.020284265 -0.65203637 -0.035132784
v -0.02542972 -0.7080656 -0.044044923
v -0.062593386 -0.6583427 5.4668453E-7
v -0.040568236 -0.65203637 4.2856462E-7
v -0.050859127 -0.7080656 4.5776218E-7
v -0.031296443 -0.6583427 0.05420786
v -0.020283965 -0.65203637 0.035133462
v -0.025429405 -0.7080656 0.044045657
v 0.03129693 -0.6583427 0.054207586
v 0.020284262 -0.65203637 0.035133295
v 0.025429718 -0.7080656 0.044045474
v 0.033340003 -0.7312356 -0.057746686
v 0.066680335 -0.7312356 9.299632E-8
v -0.0 -0.88858086 3.0261464E-7
v -0.03334033 -0.7312356 -0.057746496
v -0.066680335 -0.7312356 4.704568E-7
v -0.033340003 -0.7312356 0.057747234
v 0.033340324 -0.7312356 0.057747047
vn -0.0 1.0 2.957389E-7
vn 1.3549186E-6 0.18393095 -0.9829391
vn 0.91505414 0.40333107 1.3893504E-6
vn 9.4127284E-7 0.005256887 -0.9999862
vn 0.99991965 0.012681857 1.0450959E-6
vn -0.008422918 -0.032609142 -0.9994326
vn 0.99332446 -0.11509315 0.0077470327
vn -0.00891175 0.17817612 -0.98395824
vn 0.9436526 0.33084014 0.008033116
vn 4.5041887E-7 -0.06455687 -0.997914
vn 0.99722254 -0.074480325 7.0711775E-7
vn 9.303159E-7 -0.17254458 -0.9850017
vn 0.9405035 -0.33978426 1.3256503E-6
vn 7.5895207E-7 0.1963371 -0.98053646
vn 0.9991898 0.04024706 3.7007516E-7
vn 0.43150192 0.20052178 -0.8795437
vn -0.91505414 0.4033311 -1.3289437E-6
vn -0.99991965 0.012681798 -6.5318494E-7
vn -0.99332446 -0.115093164 -0.007746981
vn -0.9436526 0.33084014 -0.008033033
vn -0.99722254 -0.074480355 -5.219203E-7
vn -0.9405035 -0.3397842 -1.1560902E-6
vn -0.9991898 0.04024706 -4.7892075E-7
vn -0.44502264 0.18077442 -0.8770836
vn -9.5156E-7 0.0052570985 0.9999862
vn -1.3316914E-6 0.1839311 0.9829391
vn 0.008911744 0.17817637 0.98395824
vn 0.008422913 -0.032608908 0.9994326
vn -8.8942295E-7 -0.17254433 0.98500174
vn -5.287525E-7 -0.06455666 0.997914
vn -7.6942024E-7 0.19633813 0.9805362
vn -0.43150175 0.20052248 0.87954354
vn 0.43150026 0.2005229 0.8795442
vn -0.97583336 0.19076705 -0.106569536
vn 0.96952325 0.24499954 1.2533372E-6
vn 0.43150192 0.20052178 -0.8795437
vn 0.9926358 0.12113712 7.135102E-7
vn 0.96952325 0.24499954 1.2533372E-6
vn 0.4984894 0.07768805 -0.86340773
vn 0.49983168 0.025969077 -0.86573315
vn 0.99966276 0.025969196 4.6175106E-7
vn 0.49381214 -0.15683804 -0.85530776
vn 0.9876244 -0.1568379 0.0
vn 0.47178245 -0.3311876 -0.8171512
vn 0.943565 -0.33118746 0.0
vn 0.49967483 -0.036056727 -0.86546236
vn 0.9993498 -0.036056597 -1.191794E-7
vn -0.5139102 0.098186776 -0.85220635
vn -0.44502264 0.18077442 -0.8770836
vn 7.5895207E-7 0.1963371 -0.98053646
vn -0.499831 0.02596908 -0.8657335
vn -0.49381223 -0.15683798 -0.8553077
vn -0.47178257 -0.3311876 -0.8171511
vn -0.499675 -0.036056712 -0.86546224
vn -0.97583336 0.19076705 -0.106569536
vn -0.9885571 0.14913033 -0.022694098
vn -0.99966276 0.025969205 -4.3026805E-7
vn -0.9876244 -0.15683787 0.0
vn -0.943565 -0.33118746 1.802524E-7
vn -0.9993498 -0.036056586 2.383588E-7
vn -0.43150175 0.20052248 0.87954354
vn -0.4984894 0.07768827 0.86340773
vn -0.49983168 0.025969345 0.86573315
vn -0.49381214 -0.15683773 0.85530776
vn -0.47178236 -0.33118734 0.81715137
vn -0.49967465 -0.036056444 0.8654624
vn 0.49848822 0.0776883 0.8634084
vn 0.43150026 0.2005229 0.8795442
vn -7.6942024E-7 0.19633813 0.9805362
vn 0.49983096 0.025969338 0.8657336
vn 0.49381217 -0.15683773 0.8553079
vn 0.47178257 -0.33118734 0.8171513
vn 0.499675 -0.036056474 0.86546224
vn 0.9993498 -0.036056597 -1.191794E-7
vn 0.34954962 0.71501964 -0.60544366
vn 0.6991043 0.7150197 -2.9134578E-6
vn 0.49967483 -0.036056727 -0.86546236
vn -0.34955487 0.7150196 -0.60544074
vn -0.499675 -0.036056712 -0.86546224
vn -0.6991043 0.71501976 3.0007805E-6
vn -0.9993498 -0.036056586 2.383588E-7
vn -0.34954956 0.71501976 0.6054436
vn -0.49967465 -0.036056444 0.8654624
vn 0.34955463 0.7150198 0.60544056
vn 0.499675 -0.036056474 0.86546224
vn 0.6991043 0.7150197 -2.9134578E-6
vn 0.45174494 0.42859468 -0.7824533
vn 0.9034968 0.4285949 -4.0499276E-6
vn 0.34954962 0.71501964 -0.60544366
vn 0.97749066 0.21097867 -3.7055322E-6
vn 0.48874205 0.21097867 -0.8465336
vn -0.45175174 0.42859483 -0.78244925
vn -0.34955487 0.7150196 -0.60544074
vn -0.48874855 0.21097866 -0.84652984
vn -0.9034967 0.42859492 4.0763975E-6
vn -0.6991043 0.71501976 3.0007805E-6
vn -0.97749066 0.21097864 3.6537788E-6
vn -0.4517448 0.42859498 0.7824531
vn -0.34954956 0.71501976 0.6054436
vn -0.48874217 0.21097882 0.84653354
vn 0.45175183 0.428595 0.7824491
vn 0.34955463 0.7150198 0.60544056
vn 0.48874843 0.21097873 0.84652996
vn 0.49811676 0.08665609 -0.86276907
vn 0.99623823 0.086656064 -2.643135E-6
vn 1.4684225E-7 -1.0 4.7723734E-7
vn -0.4981215 0.08665607 -0.8627663
vn -0.99623823 0.086656034 2.7754704E-6
vn -0.49811676 0.08665617 0.862769
vn 0.49812156 0.08665619 0.8627663
vt 0.3015863 0.009902
vt 0.3015866 0.08254814
vt 0.4685307 0.08254814
vt 0.30158657 0.15255183
vt 0.5158006 0.15255183
vt 0.30158654 0.25689793
vt 0.4539861 0.25689793
vt 0.30158648 0.39822692
vt 0.42853263 0.39822692
vt 0.30158642 0.4827603
vt 0.57761574 0.4827603
vt 0.30158642 0.54483944
vt 0.41398805 0.54483944
vt 0.30158642 0.59238935
vt 0.4539861 0.59238935
vt 0.34869692 0.6333352
vt 0.13464186 0.08254814
vt 0.087371975 0.15255183
vt 0.14918643 0.25689793
vt 0.17463994 0.39822692
vt 0.025556806 0.4827603
vt 0.18918455 0.54483944
vt 0.14918643 0.59238935
vt 0.25447583 0.6333352
vt 0.30158603 0.15255183
vt 0.30158603 0.08254814
vt 0.30158612 0.39822692
vt 0.3015861 0.25689793
vt 0.30158618 0.54483944
vt 0.30158612 0.4827603
vt 0.30158618 0.59238935
vt 0.25447568 0.6333352
vt 0.34869677 0.6333352
vt 0.20736521 0.6333352
vt 0.3958074 0.6333352
vt 0.3949526 0.6631606
vt 0.5633016 0.74191844
vt 0.4860002 0.6631606
vt 0.43360323 0.74191844
vt 0.3911927 0.8295607
vt 0.4784806 0.8295607
vt 0.43591478 0.9255089
vt 0.567925 0.9255089
vt 0.39616162 0.95385736
vt 0.4884186 0.95385736
vt 0.39119253 0.9843862
vt 0.4784806 0.9843862
vt 0.17420626 0.74191844
vt 0.21285686 0.6631606
vt 0.30390486 0.62920725
vt 0.21661666 0.8295607
vt 0.17189433 0.9255089
vt 0.21164757 0.95385736
vt 0.21661653 0.9843862
vt 0.121808864 0.6631606
vt 0.04450752 0.74191844
vt 0.12932861 0.8295607
vt 0.039884225 0.9255089
vt 0.119390525 0.95385736
vt 0.12932861 0.9843862
vt 0.2128566 0.6631606
vt 0.17420596 0.74191844
vt 0.21661653 0.8295607
vt 0.17189433 0.9255089
vt 0.21164757 0.95385736
vt 0.21661666 0.9843862
vt 0.43360293 0.74191844
vt 0.39495227 0.6631606
vt 0.30390435 0.62920725
vt 0.39119253 0.8295607
vt 0.43591478 0.9255089
vt 0.39616162 0.95385736
vt 0.3911927 0.9843862
vt 0.958072 0.02185595
vt 0.87634385 0.6112304
vt 0.958072 0.6112304
vt 0.87634444 0.02185595
vt 0.7128887 0.6112304
vt 0.7128893 0.02185595
vt 0.63116187 0.6112304
vt 0.63116187 0.02185595
vt 0.71289 0.6112304
vt 0.71288943 0.02185595
vt 0.87634504 0.6112304
vt 0.87634456 0.02185595
vt 0.90350413 0.639341
vt 0.87617433 0.7208906
vt 0.9684264 0.7208906
vt 0.8437134 0.639341
vt 0.933838 0.7793532
vt 0.85888046 0.7793532
vt 0.6916716 0.7208906
vt 0.7241329 0.639341
vt 0.708966 0.7793532
vt 0.5994209 0.7208906
vt 0.66434306 0.639341
vt 0.63400924 0.7793532
vt 0.6916729 0.7208906
vt 0.7241338 0.639341
vt 0.7089669 0.7793532
vt 0.87617576 0.7208906
vt 0.8437144 0.639341
vt 0.8588814 0.7793532
vt 0.882198 0.8065957
vt 0.9804733 0.8065957
vt 0.7839236 0.99159706
vt 0.6856484 0.8065957
vt 0.5873741 0.8065957
vt 0.68564934 0.8065957
vt 0.8821989 0.8065957

g qiang001
s 1
usemtl qiang001
f 3/3/3 2/2/2 1/1/1 
f 2/2/2 3/3/3 4/4/4 
f 5/5/5 4/4/4 3/3/3 
f 4/4/4 5/5/5 6/6/6 
f 7/7/7 6/6/6 5/5/5 
f 6/6/6 7/7/7 8/8/8 
f 9/9/9 8/8/8 7/7/7 
f 8/8/8 9/9/9 10/10/10 
f 11/11/11 10/10/10 9/9/9 
f 10/10/10 11/11/11 12/12/12 
f 13/13/13 12/12/12 11/11/11 
f 12/12/12 13/13/13 14/14/14 
f 15/15/15 14/14/14 13/13/13 
f 16/16/16 14/14/14 15/15/15 
f 2/2/2 17/17/17 1/1/1 
f 4/4/4 18/18/18 2/2/2 
f 17/17/17 2/2/2 18/18/18 
f 6/6/6 19/19/19 4/4/4 
f 18/18/18 4/4/4 19/19/19 
f 8/8/8 20/20/20 6/6/6 
f 19/19/19 6/6/6 20/20/20 
f 10/10/10 21/21/21 8/8/8 
f 20/20/20 8/8/8 21/21/21 
f 12/12/12 22/22/22 10/10/10 
f 21/21/21 10/10/10 22/22/22 
f 14/14/14 23/23/23 12/12/12 
f 22/22/22 12/12/12 23/23/23 
f 24/24/24 23/23/23 14/14/14 
f 18/18/18 25/25/25 17/17/17 
f 26/26/26 17/17/17 25/25/25 
f 17/17/17 26/26/26 1/1/1 
f 20/20/20 27/27/27 19/19/19 
f 28/28/28 19/19/19 27/27/27 
f 25/25/25 18/18/18 28/28/28 
f 19/19/19 28/28/28 18/18/18 
f 22/22/22 29/29/29 21/21/21 
f 30/30/30 21/21/21 29/29/29 
f 27/27/27 20/20/20 30/30/30 
f 21/21/21 30/30/30 20/20/20 
f 26/26/26 3/3/3 1/1/1 
f 25/25/25 5/5/5 26/26/26 
f 3/3/3 26/26/26 5/5/5 
f 28/28/28 7/7/7 25/25/25 
f 5/5/5 25/25/25 7/7/7 
f 27/27/27 9/9/9 28/28/28 
f 7/7/7 28/28/28 9/9/9 
f 30/30/30 11/11/11 27/27/27 
f 9/9/9 27/27/27 11/11/11 
f 29/29/29 13/13/13 30/30/30 
f 11/11/11 30/30/30 13/13/13 
f 13/13/13 29/29/29 15/15/15 
f 31/31/31 15/15/15 29/29/29 
f 29/29/29 22/22/22 31/31/31 
f 23/23/23 31/31/31 22/22/22 
f 32/32/32 31/31/31 23/23/23 
f 33/33/33 15/15/15 31/31/31 
f 34/34/34 32/32/32 23/23/23 
f 34/34/34 23/23/23 24/24/24 
f 35/35/35 15/15/15 33/33/33 
f 35/35/35 16/16/16 15/15/15 
f 38/38/38 37/37/37 36/36/36 
f 39/39/39 36/36/36 37/37/37 
f 39/39/39 37/37/37 40/40/40 
f 41/41/41 40/40/40 37/37/37 
f 40/40/40 41/41/41 42/42/42 
f 43/43/43 42/42/42 41/41/41 
f 42/42/42 43/43/43 44/44/44 
f 45/45/45 44/44/44 43/43/43 
f 44/44/44 45/45/45 46/46/46 
f 47/47/47 46/46/46 45/45/45 
f 39/39/39 48/48/48 36/36/36 
f 49/49/49 36/36/36 48/48/48 
f 36/36/36 49/49/49 50/50/50 
f 40/40/40 51/51/51 39/39/39 
f 48/48/48 39/39/39 51/51/51 
f 42/42/42 52/52/52 40/40/40 
f 51/51/51 40/40/40 52/52/52 
f 44/44/44 53/53/53 42/42/42 
f 52/52/52 42/42/42 53/53/53 
f 46/46/46 54/54/54 44/44/44 
f 53/53/53 44/44/44 54/54/54 
f 49/49/49 48/48/48 55/55/55 
f 56/56/56 55/55/55 48/48/48 
f 51/51/51 57/57/57 48/48/48 
f 56/56/56 48/48/48 57/57/57 
f 52/52/52 58/58/58 51/51/51 
f 57/57/57 51/51/51 58/58/58 
f 53/53/53 59/59/59 52/52/52 
f 58/58/58 52/52/52 59/59/59 
f 54/54/54 60/60/60 53/53/53 
f 59/59/59 53/53/53 60/60/60 
f 55/55/55 56/56/56 61/61/61 
f 62/62/62 61/61/61 56/56/56 
f 57/57/57 63/63/63 56/56/56 
f 62/62/62 56/56/56 63/63/63 
f 58/58/58 64/64/64 57/57/57 
f 63/63/63 57/57/57 64/64/64 
f 59/59/59 65/65/65 58/58/58 
f 64/64/64 58/58/58 65/65/65 
f 60/60/60 66/66/66 59/59/59 
f 65/65/65 59/59/59 66/66/66 
f 62/62/62 67/67/67 61/61/61 
f 68/68/68 61/61/61 67/67/67 
f 61/61/61 68/68/68 69/69/69 
f 63/63/63 70/70/70 62/62/62 
f 67/67/67 62/62/62 70/70/70 
f 64/64/64 71/71/71 63/63/63 
f 70/70/70 63/63/63 71/71/71 
f 65/65/65 72/72/72 64/64/64 
f 71/71/71 64/64/64 72/72/72 
f 66/66/66 73/73/73 65/65/65 
f 72/72/72 65/65/65 73/73/73 
f 67/67/67 37/37/37 68/68/68 
f 38/38/38 68/68/68 37/37/37 
f 70/70/70 41/41/41 67/67/67 
f 37/37/37 67/67/67 41/41/41 
f 71/71/71 43/43/43 70/70/70 
f 41/41/41 70/70/70 43/43/43 
f 72/72/72 45/45/45 71/71/71 
f 43/43/43 71/71/71 45/45/45 
f 73/73/73 47/47/47 72/72/72 
f 45/45/45 72/72/72 47/47/47 
f 76/76/76 75/75/75 74/74/74 
f 77/77/77 74/74/74 75/75/75 
f 75/75/75 78/78/78 77/77/77 
f 79/79/79 77/77/77 78/78/78 
f 78/78/78 80/80/80 79/79/79 
f 81/81/81 79/79/79 80/80/80 
f 80/80/80 82/82/82 81/81/81 
f 83/83/83 81/81/81 82/82/82 
f 82/82/82 84/84/84 83/83/83 
f 85/85/85 83/83/83 84/84/84 
f 84/84/84 76/76/76 85/85/85 
f 74/74/74 85/85/85 76/76/76 
f 88/88/88 87/87/87 86/86/86 
f 89/89/89 86/86/86 87/87/87 
f 88/88/88 90/90/90 87/87/87 
f 91/91/91 87/87/87 90/90/90 
f 87/87/87 92/92/92 89/89/89 
f 87/87/87 91/91/91 92/92/92 
f 93/93/93 89/89/89 92/92/92 
f 94/94/94 92/92/92 91/91/91 
f 92/92/92 95/95/95 93/93/93 
f 92/92/92 94/94/94 95/95/95 
f 96/96/96 93/93/93 95/95/95 
f 97/97/97 95/95/95 94/94/94 
f 95/95/95 98/98/98 96/96/96 
f 95/95/95 97/97/97 98/98/98 
f 99/99/99 96/96/96 98/98/98 
f 100/100/100 98/98/98 97/97/97 
f 98/98/98 101/101/101 99/99/99 
f 98/98/98 100/100/100 101/101/101 
f 102/102/102 99/99/99 101/101/101 
f 101/101/101 88/88/88 102/102/102 
f 103/103/103 101/101/101 100/100/100 
f 101/101/101 103/103/103 88/88/88 
f 90/90/90 88/88/88 103/103/103 
f 86/86/86 102/102/102 88/88/88 
f 91/91/91 90/90/90 104/104/104 
f 105/105/105 104/104/104 90/90/90 
f 106/106/106 104/104/104 105/105/105 
f 106/106/106 107/107/107 104/104/104 
f 106/106/106 108/108/108 107/107/107 
f 97/97/97 94/94/94 108/108/108 
f 107/107/107 108/108/108 94/94/94 
f 106/106/106 109/109/109 108/108/108 
f 100/100/100 97/97/97 109/109/109 
f 108/108/108 109/109/109 97/97/97 
f 106/106/106 110/110/110 109/109/109 
f 106/106/106 105/105/105 110/110/110 
f 103/103/103 100/100/100 110/110/110 
f 109/109/109 110/110/110 100/100/100 
f 110/110/110 105/105/105 103/103/103 
f 104/104/104 107/107/107 91/91/91 
f 94/94/94 91/91/91 107/107/107 
f 90/90/90 103/103/103 105/105/105 

