# Created by DisUnity v0.3.4
v 0.3679364 -1.4043297 0.44549495
v 0.34877744 -1.3280225 0.39453056
v 0.28631806 -1.3205291 0.44335878
v 0.335949 -1.2485868 0.36175495
v 0.25580436 -1.2389717 0.4244088
v 0.32338676 -1.123309 0.33192065
v 0.266369 -1.1164685 0.37649485
v 0.30031872 -0.9599725 0.27395946
v 0.25598773 -0.9509592 0.32026294
v 0.2765498 -0.87272453 0.21037827
v 0.18015726 -0.8531263 0.31105953
v 0.2794447 -0.7873272 0.22269401
v 0.24019279 -0.7793466 0.26369235
v 0.2693429 -0.73482555 0.19640626
v 0.21612324 -0.72400516 0.25199383
v 0.24631397 -0.71076345 0.19583227
v 0.42779475 -1.3181654 0.3937132
v 0.4373398 -1.2359387 0.3607062
v 0.39551985 -1.1143109 0.33117455
v 0.36356807 -0.9491619 0.28251186
v 0.41407782 -0.84921795 0.22897457
v 0.33544737 -0.7777552 0.23026657
v 0.3452741 -0.72184736 0.20667352
v 0.28623772 -0.7100964 0.18182261
v 0.3571951 -1.2263237 0.42336005
v 0.36533535 -1.3106722 0.44254145
v 0.3192371 -0.94014853 0.3288153
v 0.33850208 -1.1074703 0.37574875
v 0.2961955 -0.76977456 0.2712649
v 0.31768534 -0.82961965 0.3296558
v 0.2920544 -0.71102685 0.2622611
v 0.30885008 -0.6864015 0.24739002
v 0.26892635 -0.6870685 0.26139966
v 0.31449002 -0.67436 0.20012899
v 0.23464258 -0.67569405 0.22814828
v 0.24631397 -0.71076345 0.19583227
v 0.21413384 -0.648165 0.2252726
v 0.23464258 -0.67569405 0.22814828
v 0.22646394 -0.6645666 0.16859348
v 0.22552583 -0.5378012 0.14218763
v 0.2172276 -0.5267628 0.18033306
v 0.19785787 -0.4476381 0.09902469
v 0.18530798 -0.43094406 0.15671402
v 0.20787323 -0.41391265 0.10126869
v 0.19910255 -0.40224582 0.14158562
v 0.2056631 -0.3826559 0.09297093
v 0.19736484 -0.37161747 0.13111636
v 0.28333566 -0.6636164 0.14863664
v 0.28623772 -0.7100964 0.18182261
v 0.2693429 -0.73482555 0.19640626
v 0.2638009 -0.53716177 0.12875652
v 0.25574324 -0.44667095 0.07871219
v 0.24832718 -0.41323677 0.087073036
v 0.2439382 -0.3820164 0.07953986
v 0.31449002 -0.67436 0.20012899
v 0.3278773 -0.6462645 0.1853589
v 0.29377767 -0.5254838 0.15347089
v 0.30107874 -0.42900977 0.116089
v 0.28001043 -0.40089402 0.11319431
v 0.27391496 -0.37033847 0.10425423
v 0.30885008 -0.6864015 0.24739002
v 0.3155472 -0.6298628 0.24203801
v 0.28547946 -0.5144453 0.19161633
v 0.28852883 -0.41231573 0.17377833
v 0.2712398 -0.38922718 0.15351123
v 0.26561674 -0.3593 0.14239964
v 0.2586755 -0.630813 0.26199484
v 0.26892635 -0.6870685 0.26139966
v 0.2920544 -0.71102685 0.2622611
v 0.2472044 -0.5150848 0.20504741
v 0.23064345 -0.41328287 0.19409081
v 0.23078585 -0.38990307 0.16770689
v 0.22734162 -0.3599395 0.15583073
v 0.19736484 -0.37161747 0.13111636
v 0.07918386 0.6052586 -0.22042483
v 0.070885435 0.616297 -0.18227942
v 0.2056631 -0.3826559 0.09297093
v 0.11745899 0.60589814 -0.23385577
v 0.2439382 -0.3820164 0.07953986
v 0.14743567 0.6175761 -0.20914131
v 0.27391496 -0.37033847 0.10425423
v 0.13913722 0.62861454 -0.17099586
v 0.26561674 -0.3593 0.14239964
v 0.100862116 0.6279749 -0.15756497
v 0.22734162 -0.3599395 0.15583073
v 0.070885435 0.616297 -0.18227942
v 0.062145147 0.6048853 -0.23573558
v 0.04934134 0.62191665 -0.1768805
v 0.07918386 0.6052586 -0.22042483
v 0.054389145 0.6691479 -0.19568974
v 0.0647926 0.65530944 -0.24351147
v 0.12120043 0.6058721 -0.2564584
v 0.11745899 0.60589814 -0.23385577
v 0.11277691 0.6561111 -0.2603494
v 0.16745192 0.6238902 -0.21832599
v 0.14743567 0.6175761 -0.20914131
v 0.15035778 0.67075145 -0.22936565
v 0.15464811 0.6409216 -0.15947089
v 0.13913722 0.62861454 -0.17099586
v 0.13995431 0.68459 -0.18154396
v 0.09559284 0.6399348 -0.1387481
v 0.100862116 0.6279749 -0.15756497
v 0.09197001 0.6837883 -0.16470599
v 0.05029524 0.6726779 -0.26010436
v 0.03665556 0.69082135 -0.19740626
v 0.0805068 0.84074754 -0.2667098
v 0.11320647 0.67372906 -0.28218025
v 0.16247797 0.69292355 -0.24155818
v 0.14883825 0.711067 -0.17886013
v 0.08592706 0.71001583 -0.15678422
vn 0.12113462 -0.9461684 0.30015293
vn -0.28097707 -0.49180424 -0.82412404
vn -0.8144714 -0.39604312 0.42401177
vn -0.30787963 -0.32825977 -0.8930038
vn -0.9418608 -0.02776078 0.33485442
vn -0.30434826 -0.29212067 -0.90666294
vn -0.9487268 0.095743835 0.30124858
vn -0.27357963 -0.48654863 -0.8297135
vn -0.8477562 -0.3253084 0.41890794
vn -0.31569684 -0.26153463 -0.9121047
vn -0.9498749 0.054751083 0.3077986
vn -0.3247946 -0.15518573 -0.93296623
vn -0.9284991 0.30666807 0.20938975
vn -0.27873242 -0.50276643 -0.8182507
vn -0.9378335 -0.053831626 0.3428857
vn -0.6541767 -0.48087788 -0.5837887
vn 0.912186 -0.3671952 -0.18189068
vn 0.94493353 0.0037630496 -0.32724068
vn 0.92084306 0.12205144 -0.37033963
vn 0.9279089 -0.30075228 -0.22030273
vn 0.93183047 0.08619037 -0.35250992
vn 0.8461793 0.33631885 -0.41336462
vn 0.9475839 -0.022330746 -0.31872562
vn 0.17116755 -0.44758087 -0.877709
vn 0.3091532 0.31831163 0.89615965
vn 0.3255379 0.14374493 0.93453866
vn 0.31674647 0.14937916 0.9366736
vn 0.296448 0.35382798 0.8870876
vn 0.28299242 0.48169795 0.8293867
vn 0.30005682 0.3836977 0.873351
vn 0.32629895 0.13122916 0.93611324
vn 0.70275724 0.10142166 0.70416325
vn -0.111462004 0.08781794 0.98988086
vn 0.9109023 -0.19956908 -0.36114982
vn -0.88504034 -0.24709477 0.39452225
vn -0.6541767 -0.48087788 -0.5837887
vn -0.9218512 -0.1302638 0.36499554
vn -0.88504034 -0.24709477 0.39452225
vn -0.727279 -0.36049524 -0.58404493
vn -0.73552793 -0.31233358 -0.60120404
vn -0.9400093 -0.040329292 0.33875683
vn -0.74877656 -0.13590191 -0.64874065
vn -0.9507957 0.13282678 0.2799009
vn -0.7373396 0.041744873 -0.6742312
vn -0.9303467 0.29848534 0.21298242
vn -0.74280965 -0.2535568 -0.6196312
vn -0.9472276 0.018362332 0.32003546
vn 0.23383155 -0.36031047 -0.9030498
vn 0.17116755 -0.44758087 -0.877709
vn -0.27873242 -0.50276643 -0.8182507
vn 0.20762695 -0.2965756 -0.9321663
vn 0.18302058 -0.12033352 -0.97571677
vn 0.15288883 0.05661906 -0.98662007
vn 0.20005032 -0.23780337 -0.9504891
vn 0.9109023 -0.19956908 -0.36114982
vn 0.9437405 -0.13285626 -0.30282527
vn 0.94630075 -0.008813259 -0.3231675
vn 0.91279876 0.16396348 -0.3740514
vn 0.85011 0.32823315 -0.41179624
vn 0.93849206 0.049868897 -0.3416809
vn 0.70275724 0.10142166 0.70416325
vn 0.7461004 0.2134833 0.6306814
vn 0.7418197 0.26319116 0.6167933
vn 0.7107795 0.43269196 0.5545902
vn 0.6571033 0.5849732 0.47541732
vn 0.7340747 0.3217878 0.5979857
vn -0.1945211 0.19776769 0.96075463
vn -0.111462004 0.08781794 0.98988086
vn 0.32629895 0.13122916 0.93611324
vn -0.20133547 0.24743298 0.94775575
vn -0.22101761 0.41712368 0.8815662
vn -0.23312499 0.5700993 0.78780675
vn -0.20878573 0.30603454 0.92884415
vn -0.9472276 0.018362332 0.32003546
vn -0.4299678 -0.87777376 -0.21128415
vn -0.5729731 -0.68755037 0.4460677
vn -0.74280965 -0.2535568 -0.6196312
vn 0.22961828 -0.8667519 -0.4427376
vn 0.20005032 -0.23780337 -0.9504891
vn 0.7462004 -0.6655084 -0.016836258
vn 0.93849206 0.049868897 -0.3416809
vn 0.60319597 -0.47528479 0.6405148
vn 0.7340747 0.3217878 0.5979857
vn -0.056391336 -0.48630545 0.8719674
vn -0.20878573 0.30603454 0.92884415
vn -0.5729731 -0.68755037 0.4460677
vn -0.6156933 -0.6656047 -0.42177272
vn -0.8005087 -0.4197666 0.42776382
vn -0.4299678 -0.87777376 -0.21128415
vn -0.89668083 -0.21503058 0.3869437
vn -0.6967304 -0.48100215 -0.5321689
vn 0.23673242 -0.65135986 -0.7208939
vn 0.22961828 -0.8667519 -0.4427376
vn 0.2255059 -0.4655905 -0.8557877
vn 0.9043439 -0.39128035 -0.17047562
vn 0.7462004 -0.6655084 -0.016836258
vn 0.94779444 -0.18421227 -0.26029155
vn 0.7195294 -0.14544198 0.6790612
vn 0.60319597 -0.47528479 0.6405148
vn 0.74784446 0.0817595 0.6588202
vn -0.13289666 -0.15968628 0.9781813
vn -0.056391336 -0.48630545 0.8719674
vn -0.17439233 0.0663487 0.9824384
vn -0.725644 -0.36876795 -0.5809053
vn -0.929428 -0.09769506 0.35583624
vn -0.12113381 0.9461687 -0.30015212
vn 0.2142807 -0.35306212 -0.91073096
vn 0.9504221 -0.06628658 -0.30381566
vn 0.74663806 0.20478599 0.63292515
vn -0.19328654 0.18908061 0.9627506
vt 0.3015863 0.009902
vt 0.3015866 0.08254814
vt 0.4685307 0.08254814
vt 0.30158657 0.15255183
vt 0.5158006 0.15255183
vt 0.30158654 0.25689793
vt 0.4539861 0.25689793
vt 0.30158648 0.39822692
vt 0.42853263 0.39822692
vt 0.30158642 0.4827603
vt 0.57761574 0.4827603
vt 0.30158642 0.54483944
vt 0.41398805 0.54483944
vt 0.30158642 0.59238935
vt 0.4539861 0.59238935
vt 0.34869692 0.6333352
vt 0.13464186 0.08254814
vt 0.087371975 0.15255183
vt 0.14918643 0.25689793
vt 0.17463994 0.39822692
vt 0.025556806 0.4827603
vt 0.18918455 0.54483944
vt 0.14918643 0.59238935
vt 0.25447583 0.6333352
vt 0.30158603 0.15255183
vt 0.30158603 0.08254814
vt 0.30158612 0.39822692
vt 0.3015861 0.25689793
vt 0.30158618 0.54483944
vt 0.30158612 0.4827603
vt 0.30158618 0.59238935
vt 0.25447568 0.6333352
vt 0.34869677 0.6333352
vt 0.20736521 0.6333352
vt 0.3958074 0.6333352
vt 0.3949526 0.6631606
vt 0.5633016 0.74191844
vt 0.4860002 0.6631606
vt 0.43360323 0.74191844
vt 0.3911927 0.8295607
vt 0.4784806 0.8295607
vt 0.43591478 0.9255089
vt 0.567925 0.9255089
vt 0.39616162 0.95385736
vt 0.4884186 0.95385736
vt 0.39119253 0.9843862
vt 0.4784806 0.9843862
vt 0.17420626 0.74191844
vt 0.21285686 0.6631606
vt 0.30390486 0.62920725
vt 0.21661666 0.8295607
vt 0.17189433 0.9255089
vt 0.21164757 0.95385736
vt 0.21661653 0.9843862
vt 0.121808864 0.6631606
vt 0.04450752 0.74191844
vt 0.12932861 0.8295607
vt 0.039884225 0.9255089
vt 0.119390525 0.95385736
vt 0.12932861 0.9843862
vt 0.2128566 0.6631606
vt 0.17420596 0.74191844
vt 0.21661653 0.8295607
vt 0.17189433 0.9255089
vt 0.21164757 0.95385736
vt 0.21661666 0.9843862
vt 0.43360293 0.74191844
vt 0.39495227 0.6631606
vt 0.30390435 0.62920725
vt 0.39119253 0.8295607
vt 0.43591478 0.9255089
vt 0.39616162 0.95385736
vt 0.3911927 0.9843862
vt 0.958072 0.02185595
vt 0.87634385 0.6112304
vt 0.958072 0.6112304
vt 0.87634444 0.02185595
vt 0.7128887 0.6112304
vt 0.7128893 0.02185595
vt 0.63116187 0.6112304
vt 0.63116187 0.02185595
vt 0.71289 0.6112304
vt 0.71288943 0.02185595
vt 0.87634504 0.6112304
vt 0.87634456 0.02185595
vt 0.90350413 0.639341
vt 0.87617433 0.7208906
vt 0.9684264 0.7208906
vt 0.8437134 0.639341
vt 0.933838 0.7793532
vt 0.85888046 0.7793532
vt 0.6916716 0.7208906
vt 0.7241329 0.639341
vt 0.708966 0.7793532
vt 0.5994209 0.7208906
vt 0.66434306 0.639341
vt 0.63400924 0.7793532
vt 0.6916729 0.7208906
vt 0.7241338 0.639341
vt 0.7089669 0.7793532
vt 0.87617576 0.7208906
vt 0.8437144 0.639341
vt 0.8588814 0.7793532
vt 0.882198 0.8065957
vt 0.9804733 0.8065957
vt 0.7839236 0.99159706
vt 0.6856484 0.8065957
vt 0.5873741 0.8065957
vt 0.68564934 0.8065957
vt 0.8821989 0.8065957

g qiang002
s 1
usemtl qiang002
f 3/3/3 2/2/2 1/1/1 
f 2/2/2 3/3/3 4/4/4 
f 5/5/5 4/4/4 3/3/3 
f 4/4/4 5/5/5 6/6/6 
f 7/7/7 6/6/6 5/5/5 
f 6/6/6 7/7/7 8/8/8 
f 9/9/9 8/8/8 7/7/7 
f 8/8/8 9/9/9 10/10/10 
f 11/11/11 10/10/10 9/9/9 
f 10/10/10 11/11/11 12/12/12 
f 13/13/13 12/12/12 11/11/11 
f 12/12/12 13/13/13 14/14/14 
f 15/15/15 14/14/14 13/13/13 
f 16/16/16 14/14/14 15/15/15 
f 2/2/2 17/17/17 1/1/1 
f 4/4/4 18/18/18 2/2/2 
f 17/17/17 2/2/2 18/18/18 
f 6/6/6 19/19/19 4/4/4 
f 18/18/18 4/4/4 19/19/19 
f 8/8/8 20/20/20 6/6/6 
f 19/19/19 6/6/6 20/20/20 
f 10/10/10 21/21/21 8/8/8 
f 20/20/20 8/8/8 21/21/21 
f 12/12/12 22/22/22 10/10/10 
f 21/21/21 10/10/10 22/22/22 
f 14/14/14 23/23/23 12/12/12 
f 22/22/22 12/12/12 23/23/23 
f 24/24/24 23/23/23 14/14/14 
f 18/18/18 25/25/25 17/17/17 
f 26/26/26 17/17/17 25/25/25 
f 17/17/17 26/26/26 1/1/1 
f 20/20/20 27/27/27 19/19/19 
f 28/28/28 19/19/19 27/27/27 
f 25/25/25 18/18/18 28/28/28 
f 19/19/19 28/28/28 18/18/18 
f 22/22/22 29/29/29 21/21/21 
f 30/30/30 21/21/21 29/29/29 
f 27/27/27 20/20/20 30/30/30 
f 21/21/21 30/30/30 20/20/20 
f 26/26/26 3/3/3 1/1/1 
f 25/25/25 5/5/5 26/26/26 
f 3/3/3 26/26/26 5/5/5 
f 28/28/28 7/7/7 25/25/25 
f 5/5/5 25/25/25 7/7/7 
f 27/27/27 9/9/9 28/28/28 
f 7/7/7 28/28/28 9/9/9 
f 30/30/30 11/11/11 27/27/27 
f 9/9/9 27/27/27 11/11/11 
f 29/29/29 13/13/13 30/30/30 
f 11/11/11 30/30/30 13/13/13 
f 13/13/13 29/29/29 15/15/15 
f 31/31/31 15/15/15 29/29/29 
f 29/29/29 22/22/22 31/31/31 
f 23/23/23 31/31/31 22/22/22 
f 32/32/32 31/31/31 23/23/23 
f 33/33/33 15/15/15 31/31/31 
f 34/34/34 32/32/32 23/23/23 
f 34/34/34 23/23/23 24/24/24 
f 35/35/35 15/15/15 33/33/33 
f 35/35/35 16/16/16 15/15/15 
f 38/38/38 37/37/37 36/36/36 
f 39/39/39 36/36/36 37/37/37 
f 39/39/39 37/37/37 40/40/40 
f 41/41/41 40/40/40 37/37/37 
f 40/40/40 41/41/41 42/42/42 
f 43/43/43 42/42/42 41/41/41 
f 42/42/42 43/43/43 44/44/44 
f 45/45/45 44/44/44 43/43/43 
f 44/44/44 45/45/45 46/46/46 
f 47/47/47 46/46/46 45/45/45 
f 39/39/39 48/48/48 36/36/36 
f 49/49/49 36/36/36 48/48/48 
f 36/36/36 49/49/49 50/50/50 
f 40/40/40 51/51/51 39/39/39 
f 48/48/48 39/39/39 51/51/51 
f 42/42/42 52/52/52 40/40/40 
f 51/51/51 40/40/40 52/52/52 
f 44/44/44 53/53/53 42/42/42 
f 52/52/52 42/42/42 53/53/53 
f 46/46/46 54/54/54 44/44/44 
f 53/53/53 44/44/44 54/54/54 
f 49/49/49 48/48/48 55/55/55 
f 56/56/56 55/55/55 48/48/48 
f 51/51/51 57/57/57 48/48/48 
f 56/56/56 48/48/48 57/57/57 
f 52/52/52 58/58/58 51/51/51 
f 57/57/57 51/51/51 58/58/58 
f 53/53/53 59/59/59 52/52/52 
f 58/58/58 52/52/52 59/59/59 
f 54/54/54 60/60/60 53/53/53 
f 59/59/59 53/53/53 60/60/60 
f 55/55/55 56/56/56 61/61/61 
f 62/62/62 61/61/61 56/56/56 
f 57/57/57 63/63/63 56/56/56 
f 62/62/62 56/56/56 63/63/63 
f 58/58/58 64/64/64 57/57/57 
f 63/63/63 57/57/57 64/64/64 
f 59/59/59 65/65/65 58/58/58 
f 64/64/64 58/58/58 65/65/65 
f 60/60/60 66/66/66 59/59/59 
f 65/65/65 59/59/59 66/66/66 
f 62/62/62 67/67/67 61/61/61 
f 68/68/68 61/61/61 67/67/67 
f 61/61/61 68/68/68 69/69/69 
f 63/63/63 70/70/70 62/62/62 
f 67/67/67 62/62/62 70/70/70 
f 64/64/64 71/71/71 63/63/63 
f 70/70/70 63/63/63 71/71/71 
f 65/65/65 72/72/72 64/64/64 
f 71/71/71 64/64/64 72/72/72 
f 66/66/66 73/73/73 65/65/65 
f 72/72/72 65/65/65 73/73/73 
f 67/67/67 37/37/37 68/68/68 
f 38/38/38 68/68/68 37/37/37 
f 70/70/70 41/41/41 67/67/67 
f 37/37/37 67/67/67 41/41/41 
f 71/71/71 43/43/43 70/70/70 
f 41/41/41 70/70/70 43/43/43 
f 72/72/72 45/45/45 71/71/71 
f 43/43/43 71/71/71 45/45/45 
f 73/73/73 47/47/47 72/72/72 
f 45/45/45 72/72/72 47/47/47 
f 76/76/76 75/75/75 74/74/74 
f 77/77/77 74/74/74 75/75/75 
f 75/75/75 78/78/78 77/77/77 
f 79/79/79 77/77/77 78/78/78 
f 78/78/78 80/80/80 79/79/79 
f 81/81/81 79/79/79 80/80/80 
f 80/80/80 82/82/82 81/81/81 
f 83/83/83 81/81/81 82/82/82 
f 82/82/82 84/84/84 83/83/83 
f 85/85/85 83/83/83 84/84/84 
f 84/84/84 76/76/76 85/85/85 
f 74/74/74 85/85/85 76/76/76 
f 88/88/88 87/87/87 86/86/86 
f 89/89/89 86/86/86 87/87/87 
f 88/88/88 90/90/90 87/87/87 
f 91/91/91 87/87/87 90/90/90 
f 87/87/87 92/92/92 89/89/89 
f 87/87/87 91/91/91 92/92/92 
f 93/93/93 89/89/89 92/92/92 
f 94/94/94 92/92/92 91/91/91 
f 92/92/92 95/95/95 93/93/93 
f 92/92/92 94/94/94 95/95/95 
f 96/96/96 93/93/93 95/95/95 
f 97/97/97 95/95/95 94/94/94 
f 95/95/95 98/98/98 96/96/96 
f 95/95/95 97/97/97 98/98/98 
f 99/99/99 96/96/96 98/98/98 
f 100/100/100 98/98/98 97/97/97 
f 98/98/98 101/101/101 99/99/99 
f 98/98/98 100/100/100 101/101/101 
f 102/102/102 99/99/99 101/101/101 
f 101/101/101 88/88/88 102/102/102 
f 103/103/103 101/101/101 100/100/100 
f 101/101/101 103/103/103 88/88/88 
f 90/90/90 88/88/88 103/103/103 
f 86/86/86 102/102/102 88/88/88 
f 91/91/91 90/90/90 104/104/104 
f 105/105/105 104/104/104 90/90/90 
f 106/106/106 104/104/104 105/105/105 
f 106/106/106 107/107/107 104/104/104 
f 106/106/106 108/108/108 107/107/107 
f 97/97/97 94/94/94 108/108/108 
f 107/107/107 108/108/108 94/94/94 
f 106/106/106 109/109/109 108/108/108 
f 100/100/100 97/97/97 109/109/109 
f 108/108/108 109/109/109 97/97/97 
f 106/106/106 110/110/110 109/109/109 
f 106/106/106 105/105/105 110/110/110 
f 103/103/103 100/100/100 110/110/110 
f 109/109/109 110/110/110 100/100/100 
f 110/110/110 105/105/105 103/103/103 
f 104/104/104 107/107/107 91/91/91 
f 94/94/94 91/91/91 107/107/107 
f 90/90/90 103/103/103 105/105/105 

