# Created by DisUnity v0.3.4
v 0.012331796 -0.9078887 0.17829688
v 0.013482691 -0.93973815 0.2238214
v 0.03010967 -0.88875175 0.19009604
v 0.0115303015 -0.863405 0.20672825
v 0.036461167 -0.8867994 0.1369928
v 0.012174961 -0.9151448 0.14081976
v 0.010541376 -0.84915036 0.13224001
v 0.04120268 -0.9709697 -0.0018215018
v 0.013070095 -1.0034083 0.0050408724
v 0.0111495685 -0.92790455 -0.010672532
v 0.012060481 -1.0136806 -0.13795318
v 0.044143174 -0.97721726 -0.13474351
v 0.010127382 -0.92873645 -0.1296277
v 0.04121013 -0.88712126 -0.2780161
v 0.008345563 -0.9175077 -0.30280414
v 0.0072058192 -0.84713316 -0.24317312
v -0.013483938 -0.88797873 0.13743025
v -0.0061201104 -0.8896073 0.1904133
v 0.013482691 -0.93973815 0.2238214
v -0.016676422 -0.9723365 -0.0013145522
v -0.021646542 -0.9787709 -0.13416734
v -0.025477793 -0.8886962 -0.27743208
v 0.03957663 -0.715651 -0.3707736
v 0.008345563 -0.9175077 -0.30280414
v 0.04121013 -0.88712126 -0.2780161
v 0.0032043867 -0.73785317 -0.40540886
v 0.002734166 -0.6871165 -0.32229775
v 0.0072058192 -0.84713316 -0.24317312
v 0.03320228 -0.4675844 -0.42970452
v -0.0035624804 -0.47491747 -0.46906456
v -0.0030992671 -0.4595345 -0.37471893
v 0.0265006 -0.18512198 -0.43328875
v -0.010509364 -0.18209893 -0.4727254
v -0.0094634015 -0.19134 -0.37819645
v -0.03356333 -0.7173781 -0.37013307
v -0.025477793 -0.8886962 -0.27743208
v -0.039937682 -0.4693115 -0.42906398
v -0.046639424 -0.18684907 -0.43264833
v -0.010561139 -0.17270371 -0.45329946
v 0.013830139 -0.17469625 -0.4273073
v -0.009871644 -0.17879422 -0.3909986
v -0.034372363 -0.17583452 -0.42688513
v -0.015512319 0.044870324 -0.4319747
v 0.013830139 -0.17469625 -0.4273073
v 0.008878903 0.042877834 -0.4059826
v -0.010561139 -0.17270371 -0.45329946
v -0.009871644 -0.17879422 -0.3909986
v -0.014823028 0.03877983 -0.36967388
v -0.039323542 0.041739516 -0.40556037
v -0.034372363 -0.17583452 -0.42688513
v 0.0039275256 0.26045287 -0.3846579
v -0.02046369 0.26244542 -0.4106499
v -0.019774193 0.25635487 -0.34834903
v -0.044274982 0.2593147 -0.3842357
v -0.027930379 0.86135894 0.35170287
v -0.009256483 0.84111685 0.35964236
v -0.02801473 0.8837876 0.4025472
v -0.026601223 0.8122136 0.37095752
v -0.0030579988 0.8497949 0.30719846
v -0.028579485 0.8757352 0.31634596
v -0.027275791 0.81265515 0.29511547
v -0.0027268413 0.95942944 0.18737902
v -0.03226176 0.9886187 0.20028162
v -0.030847833 0.9175914 0.17020665
v -0.03436631 1.0264559 0.062002987
v -6.576625E-4 0.99147797 0.05821041
v -0.03243175 0.94144475 0.05367085
v -1.6108125E-4 0.93085974 -0.09983383
v -0.034470677 0.9639668 -0.11839856
v -0.032174826 0.88337857 -0.0735637
v -0.05300304 0.84861547 0.30763584
v -0.045486163 0.84026134 0.35995975
v -0.02801473 0.8837876 0.4025472
v -0.060605925 0.95806247 0.18788595
v -0.066447645 0.9899242 0.058786698
v -0.06684902 0.92928493 -0.099249825
v 0.0055234567 0.7807533 -0.22410946
v -0.034470677 0.9639668 -0.11839856
v -0.031964872 0.8075928 -0.253938
v -1.6108125E-4 0.93085974 -0.09983383
v -0.029781537 0.7417239 -0.18225536
v -0.032174826 0.88337857 -0.0735637
v 0.010072521 0.5488082 -0.33008674
v -0.02715863 0.5619759 -0.36743754
v -0.0255864 0.52861345 -0.2778693
v 0.016088901 0.2724014 -0.38844648
v -0.020921087 0.2754243 -0.42788288
v -0.019874986 0.2661833 -0.333354
v -0.06761654 0.77902627 -0.22346888
v -0.06684902 0.92928493 -0.099249825
v -0.063067466 0.5470811 -0.32944617
v -0.057051 0.27067423 -0.38780585
v -0.02046369 0.26244542 -0.4106499
v 0.0039275256 0.26045287 -0.3846579
v -0.019774193 0.25635487 -0.34834903
v -0.044274982 0.2593147 -0.3842357
vn 0.021802103 -0.98564386 -0.16742413
vn 0.024494126 -0.8312446 0.555367
vn 0.97983164 0.006498264 0.19971919
vn -0.011807228 0.74658334 0.6651872
vn 0.99670154 0.061589867 0.052844636
vn 0.02512895 -0.9179812 0.39582694
vn -0.024632031 0.9892631 -0.14405444
vn 0.9882329 -0.13291271 0.0756959
vn 0.025142642 -0.9514113 0.30689448
vn -0.025087036 0.964869 -0.2615307
vn 0.021121074 -0.97554296 -0.21879186
vn 0.9840608 -0.16782185 -0.05882269
vn -0.019114321 0.93788797 0.3464111
vn 0.9861472 -0.09989354 -0.13242003
vn 0.010568408 -0.7089932 -0.7051361
vn -0.008541849 0.64504117 0.7641
vn -0.99742067 0.014495092 0.07029949
vn -0.9754017 -0.039676215 0.21683457
vn 0.024494126 -0.8312446 0.555367
vn -0.9793819 -0.17937437 0.09292877
vn -0.9759211 -0.21410961 -0.041653644
vn -0.9824995 -0.14638425 -0.115180455
vn 0.991487 -0.02250993 -0.12824464
vn 0.010568408 -0.7089932 -0.7051361
vn 0.9861472 -0.09989354 -0.13242003
vn 7.997157E-4 -0.37733236 -0.9260776
vn 5.543883E-4 0.32700405 0.94502276
vn -0.008541849 0.64504117 0.7641
vn 0.99172604 0.009488191 -0.12802139
vn -0.005696374 -0.1266744 -0.991928
vn 0.00586387 0.11996537 0.9927608
vn 0.9164243 0.38991526 -0.09018027
vn -0.018496374 0.45258552 -0.89152914
vn 7.344527E-4 0.32015148 0.9473662
vn -0.9914124 -0.06933601 -0.11087784
vn -0.9824995 -0.14638425 -0.115180455
vn -0.9931577 -0.037385505 -0.11063546
vn -0.93524206 0.34619483 -0.0739691
vn -0.022776311 0.6987823 -0.71497166
vn 0.8697544 0.4920785 0.037229728
vn -0.0035504168 0.47665852 0.8790814
vn -0.8912256 0.4504948 0.052644067
vn -0.011014521 0.09728971 -0.9951951
vn 0.8697544 0.4920785 0.037229728
vn 0.9958396 0.031058425 -0.085668094
vn -0.022776311 0.6987823 -0.71497166
vn -0.0035504168 0.47665852 0.8790814
vn 0.011010363 -0.09728983 0.9951952
vn -0.9975424 -0.01601522 -0.06821142
vn -0.8912256 0.4504948 0.052644067
vn 0.8911994 -0.450249 -0.055131417
vn 0.005575983 -0.54705685 -0.8370769
vn 0.021808652 -0.63785356 0.7698489
vn -0.8697844 -0.49183092 -0.039716978
vn -0.023366865 0.99935883 0.02712724
vn 0.98000175 -9.785693E-4 0.19898671
vn -0.010531895 0.7079139 0.7062202
vn 0.024781743 -0.86123455 0.5076031
vn 0.99868804 -0.02570193 0.044289034
vn -0.01450858 0.82390034 0.56654894
vn 0.019330587 -0.942588 -0.3333978
vn 0.98157173 0.16000266 0.10447987
vn -0.016390784 0.87381214 0.48598737
vn 0.01725844 -0.8959084 -0.44390342
vn -0.023822682 0.9993993 -0.025169047
vn 0.97534776 0.21969572 -0.020752812
vn 0.024693897 -0.9871722 0.15773842
vn 0.98005533 0.1679635 -0.10620739
vn -0.024502669 0.8320128 -0.55421513
vn 0.023906404 -0.78077656 0.62435275
vn -0.99543446 -0.07278571 0.061745327
vn -0.97523177 -0.047146916 0.21610248
vn -0.010531895 0.7079139 0.7062202
vn -0.9860509 0.1135329 0.121712245
vn -0.984844 0.17340556 -0.0035811437
vn -0.9885998 0.121472985 -0.08896568
vn 0.9888897 0.0916198 -0.11705955
vn -0.024502669 0.8320128 -0.55421513
vn -0.020292323 0.5495172 -0.83523595
vn 0.98005533 0.1679635 -0.10620739
vn 0.019460391 -0.5038135 0.8635932
vn 0.023906404 -0.78077656 0.62435275
vn 0.9905715 0.060229953 -0.12304656
vn -0.015776636 0.3163696 -0.9485048
vn 0.01564541 -0.30994898 0.95062447
vn 0.9326544 -0.32330757 -0.16008742
vn -0.0020244676 -0.27133963 -0.96248156
vn 0.019344598 -0.49754313 0.8672235
vn -0.9940095 0.044793546 -0.09969308
vn -0.9885998 0.121472985 -0.08896568
vn -0.99431217 0.01335705 -0.10566417
vn -0.9190134 -0.36703545 -0.14387257
vn 0.005575983 -0.54705685 -0.8370769
vn 0.8911994 -0.450249 -0.055131417
vn 0.021808652 -0.63785356 0.7698489
vn -0.8697844 -0.49183092 -0.039716978
vt 0.7003 0.0916
vt 0.83 0.013800025
vt 0.83 0.0916
vt 0.9697 0.0916
vt 0.83 0.16170001
vt 0.7003 0.16170001
vt 0.9697 0.16170001
vt 0.83 0.3509
vt 0.7003 0.3509
vt 0.9697 0.3509
vt 0.7003 0.524
vt 0.83 0.524
vt 0.9697 0.524
vt 0.83 0.7519
vt 0.7003 0.7519
vt 0.9697 0.7519
vt 0.83 0.16170001
vt 0.83 0.0916
vt 0.83 0.012099981
vt 0.83 0.3509
vt 0.83 0.524
vt 0.83 0.7519
vt 0.2738 0.26090002
vt 0.1514 0.01700002
vt 0.2738 0.01700002
vt 0.1514 0.26090002
vt 0.4303 0.26090002
vt 0.4303 0.01700002
vt 0.2738 0.594
vt 0.1514 0.594
vt 0.4303 0.594
vt 0.2738 0.963208
vt 0.1514 0.963208
vt 0.4303 0.963208
vt 0.2738 0.26090002
vt 0.2738 0.01700002
vt 0.2738 0.594
vt 0.2738 0.963208
vt 0.1514 0.980008
vt 0.2738 0.980008
vt 0.4303 0.980008
vt 0.2738 0.980008
vt 0.5112 0.5792
vt 0.5635 0.021899998
vt 0.5635 0.5792
vt 0.5112 0.021899998
vt 0.6302 0.021899998
vt 0.6302 0.5792
vt 0.5635 0.5792
vt 0.5635 0.021899998
vt 0.5635 0.021899998
vt 0.5112 0.021899998
vt 0.6302 0.021899998
vt 0.5635 0.021899998
vt 0.7003 0.0916
vt 0.83 0.0916
vt 0.83 0.013800025
vt 0.9697 0.0916
vt 0.83 0.16170001
vt 0.7003 0.16170001
vt 0.9697 0.16170001
vt 0.83 0.3509
vt 0.7003 0.3509
vt 0.9697 0.3509
vt 0.7003 0.524
vt 0.83 0.524
vt 0.9697 0.524
vt 0.83 0.7519
vt 0.7003 0.7519
vt 0.9697 0.7519
vt 0.83 0.16170001
vt 0.83 0.0916
vt 0.83 0.012099981
vt 0.83 0.3509
vt 0.83 0.524
vt 0.83 0.7519
vt 0.2738 0.26090002
vt 0.1514 0.01700002
vt 0.1514 0.26090002
vt 0.2738 0.01700002
vt 0.4303 0.26090002
vt 0.4303 0.01700002
vt 0.2738 0.594
vt 0.1514 0.594
vt 0.4303 0.594
vt 0.2738 0.963208
vt 0.1514 0.963208
vt 0.4303 0.963208
vt 0.2738 0.26090002
vt 0.2738 0.01700002
vt 0.2738 0.594
vt 0.2738 0.963208
vt 0.1514 0.980008
vt 0.2738 0.980008
vt 0.4303 0.980008
vt 0.2738 0.980008

g tai_shi_ci_4_w_0
s 1
usemtl tai_shi_ci_4_w_0
f 3/3/3 2/2/2 1/1/1 
f 4/4/4 2/2/2 3/3/3 
f 3/3/3 1/1/1 5/5/5 
f 6/6/6 5/5/5 1/1/1 
f 4/4/4 3/3/3 7/7/7 
f 5/5/5 7/7/7 3/3/3 
f 5/5/5 6/6/6 8/8/8 
f 9/9/9 8/8/8 6/6/6 
f 7/7/7 5/5/5 10/10/10 
f 8/8/8 10/10/10 5/5/5 
f 9/9/9 11/11/11 8/8/8 
f 12/12/12 8/8/8 11/11/11 
f 8/8/8 12/12/12 10/10/10 
f 13/13/13 10/10/10 12/12/12 
f 12/12/12 11/11/11 14/14/14 
f 15/15/15 14/14/14 11/11/11 
f 14/14/14 16/16/16 12/12/12 
f 13/13/13 12/12/12 16/16/16 
f 6/6/6 1/1/1 17/17/17 
f 7/7/7 10/10/10 17/17/17 
f 18/18/18 17/17/17 1/1/1 
f 17/17/17 18/18/18 7/7/7 
f 4/4/4 7/7/7 18/18/18 
f 18/18/18 1/1/1 19/19/19 
f 4/4/4 18/18/18 19/19/19 
f 9/9/9 6/6/6 20/20/20 
f 17/17/17 20/20/20 6/6/6 
f 20/20/20 17/17/17 10/10/10 
f 9/9/9 20/20/20 11/11/11 
f 21/21/21 11/11/11 20/20/20 
f 20/20/20 10/10/10 21/21/21 
f 13/13/13 21/21/21 10/10/10 
f 13/13/13 16/16/16 21/21/21 
f 21/21/21 22/22/22 11/11/11 
f 15/15/15 11/11/11 22/22/22 
f 22/22/22 21/21/21 16/16/16 
f 25/25/25 24/24/24 23/23/23 
f 26/26/26 23/23/23 24/24/24 
f 23/23/23 27/27/27 25/25/25 
f 28/28/28 25/25/25 27/27/27 
f 23/23/23 26/26/26 29/29/29 
f 30/30/30 29/29/29 26/26/26 
f 27/27/27 23/23/23 31/31/31 
f 29/29/29 31/31/31 23/23/23 
f 29/29/29 30/30/30 32/32/32 
f 33/33/33 32/32/32 30/30/30 
f 32/32/32 34/34/34 29/29/29 
f 31/31/31 29/29/29 34/34/34 
f 26/26/26 24/24/24 35/35/35 
f 27/27/27 31/31/31 35/35/35 
f 36/36/36 35/35/35 24/24/24 
f 35/35/35 36/36/36 27/27/27 
f 28/28/28 27/27/27 36/36/36 
f 30/30/30 26/26/26 37/37/37 
f 35/35/35 37/37/37 26/26/26 
f 37/37/37 35/35/35 31/31/31 
f 31/31/31 34/34/34 37/37/37 
f 37/37/37 38/38/38 30/30/30 
f 33/33/33 30/30/30 38/38/38 
f 38/38/38 37/37/37 34/34/34 
f 33/33/33 39/39/39 32/32/32 
f 40/40/40 32/32/32 39/39/39 
f 32/32/32 40/40/40 34/34/34 
f 41/41/41 34/34/34 40/40/40 
f 34/34/34 41/41/41 38/38/38 
f 39/39/39 33/33/33 42/42/42 
f 38/38/38 42/42/42 33/33/33 
f 42/42/42 38/38/38 41/41/41 
f 45/45/45 44/44/44 43/43/43 
f 46/46/46 43/43/43 44/44/44 
f 44/44/44 45/45/45 47/47/47 
f 48/48/48 47/47/47 45/45/45 
f 43/43/43 46/46/46 49/49/49 
f 50/50/50 49/49/49 46/46/46 
f 49/49/49 50/50/50 48/48/48 
f 47/47/47 48/48/48 50/50/50 
f 45/45/45 43/43/43 51/51/51 
f 52/52/52 51/51/51 43/43/43 
f 43/43/43 49/49/49 52/52/52 
f 51/51/51 53/53/53 45/45/45 
f 48/48/48 45/45/45 53/53/53 
f 54/54/54 52/52/52 49/49/49 
f 53/53/53 54/54/54 48/48/48 
f 49/49/49 48/48/48 54/54/54 
f 57/57/57 56/56/56 55/55/55 
f 57/57/57 58/58/58 56/56/56 
f 56/56/56 59/59/59 55/55/55 
f 60/60/60 55/55/55 59/59/59 
f 59/59/59 56/56/56 61/61/61 
f 58/58/58 61/61/61 56/56/56 
f 59/59/59 62/62/62 60/60/60 
f 63/63/63 60/60/60 62/62/62 
f 62/62/62 59/59/59 64/64/64 
f 61/61/61 64/64/64 59/59/59 
f 63/63/63 62/62/62 65/65/65 
f 66/66/66 65/65/65 62/62/62 
f 62/62/62 64/64/64 66/66/66 
f 67/67/67 66/66/66 64/64/64 
f 66/66/66 68/68/68 65/65/65 
f 69/69/69 65/65/65 68/68/68 
f 67/67/67 70/70/70 66/66/66 
f 68/68/68 66/66/66 70/70/70 
f 60/60/60 71/71/71 55/55/55 
f 61/61/61 71/71/71 64/64/64 
f 58/58/58 72/72/72 61/61/61 
f 71/71/71 61/61/61 72/72/72 
f 72/72/72 58/58/58 73/73/73 
f 55/55/55 72/72/72 73/73/73 
f 72/72/72 55/55/55 71/71/71 
f 71/71/71 60/60/60 74/74/74 
f 63/63/63 74/74/74 60/60/60 
f 74/74/74 64/64/64 71/71/71 
f 63/63/63 65/65/65 74/74/74 
f 75/75/75 74/74/74 65/65/65 
f 67/67/67 64/64/64 75/75/75 
f 74/74/74 75/75/75 64/64/64 
f 67/67/67 75/75/75 70/70/70 
f 69/69/69 76/76/76 65/65/65 
f 75/75/75 65/65/65 76/76/76 
f 76/76/76 70/70/70 75/75/75 
f 79/79/79 78/78/78 77/77/77 
f 80/80/80 77/77/77 78/78/78 
f 77/77/77 80/80/80 81/81/81 
f 82/82/82 81/81/81 80/80/80 
f 77/77/77 83/83/83 79/79/79 
f 84/84/84 79/79/79 83/83/83 
f 83/83/83 77/77/77 85/85/85 
f 81/81/81 85/85/85 77/77/77 
f 83/83/83 86/86/86 84/84/84 
f 87/87/87 84/84/84 86/86/86 
f 85/85/85 88/88/88 83/83/83 
f 86/86/86 83/83/83 88/88/88 
f 79/79/79 89/89/89 78/78/78 
f 81/81/81 89/89/89 85/85/85 
f 90/90/90 78/78/78 89/89/89 
f 82/82/82 90/90/90 81/81/81 
f 89/89/89 81/81/81 90/90/90 
f 89/89/89 79/79/79 91/91/91 
f 84/84/84 91/91/91 79/79/79 
f 91/91/91 85/85/85 89/89/89 
f 85/85/85 91/91/91 88/88/88 
f 87/87/87 92/92/92 84/84/84 
f 91/91/91 84/84/84 92/92/92 
f 92/92/92 88/88/88 91/91/91 
f 87/87/87 86/86/86 93/93/93 
f 94/94/94 93/93/93 86/86/86 
f 86/86/86 88/88/88 94/94/94 
f 95/95/95 94/94/94 88/88/88 
f 88/88/88 92/92/92 95/95/95 
f 92/92/92 87/87/87 96/96/96 
f 93/93/93 96/96/96 87/87/87 
f 96/96/96 95/95/95 92/92/92 

