# Created by DisUnity v0.3.4
v 0.065646216 -0.118659884 0.008693542
v 0.094369836 -0.08769782 0.12246933
v 0.03268801 -0.08769782 0.012849426
v 0.1122667 -0.11250426 0.11161701
v 0.114946075 -0.11435684 0.13058761
v 0.16156393 -0.1185749 0.08172401
v 0.17625205 -0.1228011 0.09279552
v 0.17008354 -0.08769782 0.07655788
v 0.18693843 -0.08769782 0.086207464
v 0.09315315 -0.08769782 0.14401993
v 0.12417547 -0.11935454 0.007402687
v 0.13676101 -0.08769782 0.007361183
v 0.13796401 -0.08769782 -0.078883015
v 0.12497583 -0.11935454 -0.08553333
v 0.1697486 -0.11935454 -0.14685985
v 0.050222263 -0.11586615 -0.10688633
v 0.07812778 -0.118198335 -0.22868785
v -8.4229466E-4 -0.08769782 -0.12780468
v 0.03008552 -0.08769782 -0.27927074
v 0.15618762 -0.11849451 -0.33956012
v 0.13606815 -0.08769782 -0.41401562
v 0.25647968 -0.111955866 -0.37800547
v 0.27804163 -0.08769782 -0.46223566
v 0.21278296 -0.11935454 -0.16771542
v 0.18205513 -0.08769782 -0.14007077
v 0.22693123 -0.08769782 -0.16385974
v 0.26592186 -0.08769782 -0.37350833
v 0.25647968 -0.06343977 -0.37800547
v 0.15618762 -0.05690113 -0.33956012
v 0.07812778 -0.057197303 -0.22868785
v 0.050222263 -0.05952949 -0.10688633
v 0.21278296 -0.056041095 -0.16771542
v 0.1697486 -0.056041095 -0.14685985
v 0.12497583 -0.056041095 -0.08553333
v 0.12417547 -0.056041095 0.007402687
v 0.16156393 -0.05682073 0.08172401
v 0.1122667 -0.06289138 0.11161701
v 0.114946075 -0.0610388 0.13058761
v 0.17625205 -0.052594535 0.09279552
v 0.065646216 -0.056735754 0.008693542
v 0.19749554 -0.055730026 0.17448482
v 0.15028268 -0.063782685 0.18474846
v 0.1322275 -0.08769782 0.18867347
v 0.15028268 -0.11161295 0.18474846
v 0.14446619 -0.08769782 0.25607902
v 0.16152167 -0.11161295 0.25613046
v 0.1428458 -0.11161295 0.3421241
v 0.12713599 -0.08769782 0.33763823
v 0.07179986 -0.08769782 0.39346993
v 0.08183172 -0.1356717 0.41140273
v 0.17593479 -0.11935454 0.35113776
v 0.1999591 -0.11935454 0.25620875
v 0.13667619 -0.11935454 0.44875655
v 0.1620055 -0.08769782 0.46223578
v 0.1960036 -0.08769782 0.35214102
v 0.21440047 -0.08769782 0.25621846
v 0.19749554 -0.11966561 0.17448482
v 0.2090312 -0.08769782 0.17197704
v 0.1428458 -0.063782685 0.3421241
v 0.08183172 -0.03972393 0.41140273
v 0.13667619 -0.056041095 0.44875655
v 0.17593479 -0.056041095 0.35113776
v 0.16152167 -0.063782685 0.25613046
v 0.1999591 -0.056041095 0.25620875
v 0.07179986 -0.08769782 0.39346993
v 0.08183172 -0.1356717 0.41140273
v 0.11180353 -0.08769782 0.42933738
v 0.13667619 -0.11935454 0.44875655
v 0.1620055 -0.08769782 0.46223578
v 0.08183172 -0.03972393 0.41140273
v 0.13667619 -0.056041095 0.44875655
vn 0.3713189 0.9175052 -0.14250118
vn 0.9780573 0.0 -0.20833622
vn 0.94549024 0.0 -0.32565036
vn 0.43706197 0.89559096 -0.08302813
vn 0.49349967 0.8586306 -0.13860561
vn -0.3243524 0.85929006 0.39549476
vn -0.44739312 0.8106422 0.37775487
vn -0.73038864 0.0 0.68303174
vn -0.80832964 0.0 0.58873016
vn 0.93386316 0.0 -0.35763046
vn -0.47202235 0.8772508 0.087326765
vn -0.9722678 0.0 0.23387001
vn -0.9537586 0.0 -0.30057365
vn -0.41805288 0.89645654 -0.14696047
vn -0.32542437 0.87235224 -0.3648295
vn 0.3218755 0.9467116 -0.011539427
vn 0.2440874 0.96548736 0.09085967
vn 0.99929607 0.0 0.037516005
vn 0.893269 -1.2668504E-7 0.44952255
vn 0.13604577 0.9746854 0.17742608
vn 0.5269104 -1.6139856E-7 0.8499208
vn -0.50753504 0.85943323 0.06150388
vn -0.51364017 -1.7297091E-7 0.85800576
vn -0.5069579 0.762675 -0.4016473
vn -0.63060176 0.0 -0.77610654
vn -0.82328004 0.0 -0.5676353
vn -0.98675495 0.0 -0.1622183
vn -0.507535 -0.8594333 0.06150386
vn 0.13604581 -0.9746854 0.17742608
vn 0.2440874 -0.96548736 0.09085967
vn 0.32187554 -0.9467116 -0.011539431
vn -0.5069579 -0.762675 -0.4016473
vn -0.32542437 -0.87235224 -0.3648295
vn -0.41805288 -0.89645654 -0.14696047
vn -0.47202235 -0.8772508 0.08732675
vn -0.3243524 -0.85929006 0.39549473
vn 0.43706197 -0.89559096 -0.08302813
vn 0.49349967 -0.8586306 -0.13860561
vn -0.44739312 -0.8106422 0.37775487
vn 0.3713189 -0.9175052 -0.14250118
vn -0.5348925 -0.8428911 0.058520474
vn 0.4283111 -0.8859903 -0.17768155
vn 0.90881425 0.0 -0.417201
vn 0.4283111 0.8859903 -0.17768155
vn 0.9996879 0.0 0.024982125
vn 0.50607693 0.8623005 0.017996259
vn 0.39726248 0.8801849 0.25972497
vn 0.8527908 0.0 0.5222526
vn 0.9922347 0.0 0.12438011
vn 0.6761969 0.71494365 -0.17780173
vn -0.4591312 0.88178736 -0.10793303
vn -0.48838347 0.8714902 -0.04457037
vn 2.9438792E-4 0.660341 -0.7509657
vn -0.5031755 0.0 -0.86418426
vn -0.9632605 0.0 -0.2685688
vn -0.99674726 0.0 -0.08059068
vn -0.53489244 0.84289116 0.058520477
vn -0.9889508 0.0 0.14824413
vn 0.39726242 -0.8801849 0.25972497
vn 0.6761969 -0.71494365 -0.17780179
vn 2.9438792E-4 -0.66034114 -0.7509657
vn -0.4591312 -0.88178736 -0.10793303
vn 0.50607693 -0.8623005 0.017996259
vn -0.48838347 -0.8714902 -0.04457038
vn 0.9922347 0.0 0.12438011
vn 0.6761969 0.71494365 -0.17780173
vn 0.59655225 0.0 -0.8025743
vn 2.9438792E-4 0.660341 -0.7509657
vn -0.5031755 0.0 -0.86418426
vn 0.6761969 -0.71494365 -0.17780179
vn 2.9438792E-4 -0.66034114 -0.7509657
vt 0.145542 0.552692
vt 0.024586 0.41727698
vt 0.024586 0.563793
vt 0.145542 0.41727698
vt 0.145542 0.398677
vt 0.384643 0.41727698
vt 0.384643 0.398677
vt 0.501568 0.41727698
vt 0.501568 0.398677
vt 0.024586 0.398677
vt 0.453567 0.54812896
vt 0.506267 0.54029703
vt 0.583366 0.612
vt 0.530713 0.632342
vt 0.71308 0.670128
vt 0.264412 0.718202
vt 0.453338 0.821289
vt 0.119959 0.750122
vt 0.318782 0.881286
vt 0.674868 0.875771
vt 0.611553 0.959502
vt 0.879097 0.863738
vt 0.890664 0.97832
vt 0.879097 0.671786
vt 0.738002 0.64366996
vt 0.929894 0.65123904
vt 0.929893 0.878506
vt 0.879097 0.863738
vt 0.674868 0.875771
vt 0.453338 0.821289
vt 0.264412 0.718202
vt 0.879097 0.671786
vt 0.71308 0.670128
vt 0.530713 0.632342
vt 0.453567 0.54812896
vt 0.384643 0.41727698
vt 0.145542 0.41727698
vt 0.145542 0.398677
vt 0.384643 0.398677
vt 0.145542 0.552692
vt 0.384643 0.30531597
vt 0.145542 0.30531597
vt 0.024586 0.30531597
vt 0.145542 0.30531597
vt 0.024586 0.21765298
vt 0.145542 0.21765298
vt 0.145542 0.12023097
vt 0.024586 0.12023097
vt 0.024586 0.014425993
vt 0.145541 0.014425993
vt 0.384643 0.12023097
vt 0.384643 0.21765298
vt 0.384643 0.014425993
vt 0.501568 0.014425993
vt 0.501568 0.12023097
vt 0.501568 0.21765298
vt 0.384643 0.30531597
vt 0.501568 0.30531597
vt 0.145542 0.12023097
vt 0.145541 0.014425993
vt 0.384643 0.014425993
vt 0.384643 0.12023097
vt 0.145542 0.21765298
vt 0.384643 0.21765298
vt 0.411757 0.015362978
vt 0.42765 0.054700017
vt 0.44955 0.015761018
vt 0.473576 0.041859984
vt 0.491865 0.016206026
vt 0.42716 0.05466199
vt 0.471034 0.042142987

g w_0
s 1
usemtl w_0
f 3/3/3 2/2/2 1/1/1 
f 2/2/2 4/4/4 1/1/1 
f 5/5/5 4/4/4 2/2/2 
f 6/6/6 4/4/4 5/5/5 
f 7/7/7 6/6/6 5/5/5 
f 6/6/6 7/7/7 8/8/8 
f 7/7/7 9/9/9 8/8/8 
f 10/10/10 5/5/5 2/2/2 
f 6/6/6 11/11/11 4/4/4 
f 11/11/11 1/1/1 4/4/4 
f 8/8/8 12/12/12 6/6/6 
f 12/12/12 11/11/11 6/6/6 
f 12/12/12 13/13/13 11/11/11 
f 13/13/13 14/14/14 11/11/11 
f 11/11/11 14/14/14 1/1/1 
f 14/14/14 13/13/13 15/15/15 
f 14/14/14 15/15/15 16/16/16 
f 3/3/3 1/1/1 16/16/16 
f 14/14/14 16/16/16 1/1/1 
f 15/15/15 17/17/17 16/16/16 
f 18/18/18 16/16/16 17/17/17 
f 18/18/18 3/3/3 16/16/16 
f 19/19/19 18/18/18 17/17/17 
f 17/17/17 20/20/20 19/19/19 
f 15/15/15 20/20/20 17/17/17 
f 20/20/20 21/21/21 19/19/19 
f 21/21/21 20/20/20 22/22/22 
f 23/23/23 21/21/21 22/22/22 
f 22/22/22 20/20/20 24/24/24 
f 20/20/20 15/15/15 24/24/24 
f 13/13/13 25/25/25 15/15/15 
f 15/15/15 25/25/25 24/24/24 
f 25/25/25 26/26/26 24/24/24 
f 27/27/27 23/23/23 22/22/22 
f 26/26/26 27/27/27 24/24/24 
f 27/27/27 22/22/22 24/24/24 
f 21/21/21 23/23/23 28/28/28 
f 23/23/23 27/27/27 28/28/28 
f 29/29/29 21/21/21 28/28/28 
f 21/21/21 29/29/29 19/19/19 
f 29/29/29 30/30/30 19/19/19 
f 19/19/19 30/30/30 18/18/18 
f 30/30/30 31/31/31 18/18/18 
f 29/29/29 28/28/28 32/32/32 
f 32/32/32 26/26/26 25/25/25 
f 28/28/28 27/27/27 32/32/32 
f 27/27/27 26/26/26 32/32/32 
f 33/33/33 29/29/29 32/32/32 
f 29/29/29 33/33/33 30/30/30 
f 30/30/30 33/33/33 31/31/31 
f 33/33/33 32/32/32 25/25/25 
f 33/33/33 34/34/34 31/31/31 
f 34/34/34 33/33/33 13/13/13 
f 33/33/33 25/25/25 13/13/13 
f 34/34/34 13/13/13 35/35/35 
f 13/13/13 12/12/12 35/35/35 
f 36/36/36 35/35/35 12/12/12 
f 36/36/36 37/37/37 35/35/35 
f 38/38/38 37/37/37 36/36/36 
f 39/39/39 38/38/38 36/36/36 
f 39/39/39 36/36/36 8/8/8 
f 8/8/8 36/36/36 12/12/12 
f 9/9/9 39/39/39 8/8/8 
f 2/2/2 37/37/37 38/38/38 
f 37/37/37 2/2/2 40/40/40 
f 37/37/37 40/40/40 35/35/35 
f 35/35/35 40/40/40 34/34/34 
f 40/40/40 31/31/31 34/34/34 
f 2/2/2 3/3/3 40/40/40 
f 40/40/40 3/3/3 31/31/31 
f 10/10/10 2/2/2 38/38/38 
f 38/38/38 39/39/39 41/41/41 
f 42/42/42 38/38/38 41/41/41 
f 10/10/10 38/38/38 43/43/43 
f 38/38/38 42/42/42 43/43/43 
f 5/5/5 10/10/10 43/43/43 
f 44/44/44 5/5/5 43/43/43 
f 44/44/44 43/43/43 45/45/45 
f 43/43/43 42/42/42 45/45/45 
f 46/46/46 44/44/44 45/45/45 
f 47/47/47 46/46/46 45/45/45 
f 48/48/48 47/47/47 45/45/45 
f 48/48/48 49/49/49 47/47/47 
f 49/49/49 50/50/50 47/47/47 
f 47/47/47 51/51/51 46/46/46 
f 51/51/51 52/52/52 46/46/46 
f 46/46/46 52/52/52 44/44/44 
f 50/50/50 53/53/53 47/47/47 
f 53/53/53 51/51/51 47/47/47 
f 53/53/53 54/54/54 51/51/51 
f 54/54/54 55/55/55 51/51/51 
f 51/51/51 55/55/55 52/52/52 
f 55/55/55 56/56/56 52/52/52 
f 57/57/57 52/52/52 56/56/56 
f 44/44/44 57/57/57 5/5/5 
f 52/52/52 57/57/57 44/44/44 
f 58/58/58 57/57/57 56/56/56 
f 57/57/57 7/7/7 5/5/5 
f 7/7/7 57/57/57 58/58/58 
f 9/9/9 7/7/7 58/58/58 
f 59/59/59 48/48/48 45/45/45 
f 48/48/48 59/59/59 49/49/49 
f 59/59/59 60/60/60 49/49/49 
f 60/60/60 59/59/59 61/61/61 
f 59/59/59 62/62/62 61/61/61 
f 61/61/61 62/62/62 54/54/54 
f 62/62/62 55/55/55 54/54/54 
f 59/59/59 63/63/63 62/62/62 
f 63/63/63 59/59/59 45/45/45 
f 42/42/42 63/63/63 45/45/45 
f 63/63/63 64/64/64 62/62/62 
f 62/62/62 64/64/64 55/55/55 
f 64/64/64 56/56/56 55/55/55 
f 64/64/64 63/63/63 42/42/42 
f 58/58/58 56/56/56 41/41/41 
f 56/56/56 64/64/64 41/41/41 
f 41/41/41 64/64/64 42/42/42 
f 41/41/41 39/39/39 58/58/58 
f 39/39/39 9/9/9 58/58/58 
f 3/3/3 18/18/18 31/31/31 
f 67/67/67 66/66/66 65/65/65 
f 67/67/67 68/68/68 66/66/66 
f 67/67/67 69/69/69 68/68/68 
f 67/67/67 65/65/65 70/70/70 
f 67/67/67 70/70/70 71/71/71 
f 67/67/67 71/71/71 69/69/69 

