# Created by DisUnity v0.3.4
v 0.016023336 -0.49275875 -0.009078946
v 0.1631926 -0.43380415 0.020796712
v 0.11067898 -0.44353846 -0.06466
v 0.05937902 -0.48778647 0.08175523
v 0.19415665 -0.31256315 -0.021025982
v 0.13891155 -0.33299282 -0.10279329
v 0.13413289 -0.19508488 -0.019213706
v 0.08418279 -0.22587791 -0.10114088
v 0.018282434 -0.15018648 0.025171928
v -0.021447904 -0.18494022 -0.060670737
v -0.05647147 -0.44288802 0.12614088
v -0.08960737 -0.451821 0.0313912
v -0.11649521 -0.32540974 0.12795313
v -0.14433612 -0.34470612 0.033043604
v -0.08553111 -0.2041688 0.086130425
v -0.11610353 -0.23416045 -0.0050896956
v 0.09910935 -0.4530327 0.1675979
v 0.19376498 -0.40381244 0.112016834
v 0.22199756 -0.29326677 0.07388354
v 0.16726883 -0.18615186 0.075535946
v 0.06163811 -0.14521417 0.1160061
v -0.006521358 -0.41209498 0.20806804
v -0.061250094 -0.30498007 0.20972043
v -0.033017512 -0.1944344 0.17158714
v -0.021447904 -0.18494022 -0.060670737
v -0.0027122807 -0.33884948 -0.034874838
v 0.08418279 -0.22587791 -0.10114088
v 0.13891155 -0.33299282 -0.10279329
v 0.11067898 -0.44353846 -0.06466
v 0.016023336 -0.49275875 -0.009078946
v -0.11610353 -0.23416045 -0.0050896956
v -0.14433612 -0.34470612 0.033043604
v -0.08960737 -0.451821 0.0313912
v 0.06163811 -0.14521417 0.1160061
v 0.16726883 -0.18615186 0.075535946
v 0.080373734 -0.29912347 0.141802
v 0.22199756 -0.29326677 0.07388354
v 0.19376498 -0.40381244 0.112016834
v 0.09910935 -0.4530327 0.1675979
v -0.033017512 -0.1944344 0.17158714
v -0.061250094 -0.30498007 0.20972043
v -0.006521358 -0.41209498 0.20806804
v 0.4553328 -0.36012027 -0.13315627
v 0.4156225 -0.3386908 -0.17618363
v 0.40363586 -0.32999882 -0.11561756
v 0.47708762 -0.3326396 -0.18472192
v 0.45769277 -0.31857565 -0.08672399
v 0.5030884 -0.32020777 -0.12943281
v 0.47708762 -0.3326396 -0.18472192
v 0.39344028 -0.28390208 -0.1563437
v 0.41944113 -0.27147025 -0.101054646
v 0.438836 -0.28553417 -0.19905257
v 0.48090628 -0.26541907 -0.10959297
v 0.49289295 -0.27411106 -0.17015897
v 0.438836 -0.28553417 -0.19905257
v 0.44119602 -0.24398963 -0.15262029
v 0.42472765 -0.29576933 -0.12698574
v 0.34116703 -0.3121846 -0.096532285
v 0.34447753 -0.29908818 -0.08849988
v 0.42152002 -0.30845883 -0.1347685
v 0.2642274 -0.302407 -0.05001401
v 0.26081398 -0.3159104 -0.05829605
v 0.19114986 -0.3054286 -0.014968962
v 0.18794224 -0.3181181 -0.022751741
v -0.36353454 -0.39398333 0.2595474
v -0.31965226 -0.35990933 0.23124927
v -0.3737092 -0.37133247 0.20235573
v -0.4191049 -0.36970034 0.24506456
v -0.33163893 -0.35121733 0.29181534
v -0.39310402 -0.3572685 0.30035365
v -0.4191049 -0.36970034 0.24506456
v -0.34810182 -0.31456748 0.1992772
v -0.32210097 -0.30213565 0.25456625
v -0.409567 -0.32061866 0.20781554
v -0.3674967 -0.30050355 0.29727516
v -0.4215536 -0.31192666 0.2683816
v -0.409567 -0.32061866 0.20781554
v -0.3776713 -0.2778527 0.24008343
v -0.34395984 -0.3275573 0.24165325
v -0.26701993 -0.33733532 0.19513555
v -0.34716746 -0.3402468 0.23387048
v -0.2637094 -0.32423884 0.20316795
v -0.183459 -0.32092044 0.16468266
v -0.18687241 -0.3344238 0.15640062
v -0.11038203 -0.317898 0.1296365
v -0.11358966 -0.33058754 0.12185371
v -0.0019359887 0.13743772 0.007814405
v -0.011369386 -0.057188615 0.018205607
v -0.046125088 0.12950389 -0.0074278614
v 0.015311186 -0.052398283 0.027408607
v -0.003122754 -0.17085268 0.039884992
v 0.031693812 -0.16460156 0.051894348
v 0.025109055 -0.055680104 7.1166456E-4
v 0.014291502 0.13200234 -0.036401805
v 0.04447945 -0.16888414 0.01705643
v -0.029897591 0.12406845 -0.05164407
v -0.0015715235 -0.060470436 -0.008491346
v 0.009662885 -0.17513524 0.005047066
v -0.027391732 0.22501738 -0.037713956
v 0.014472878 0.18986835 -0.049498357
v -0.005616622 0.19659738 0.005240924
v -0.06032233 0.1867753 -0.013628868
v -0.0020624106 0.15944009 0.0094480775
v 0.01696423 0.15306707 -0.042395152
v -0.0041720117 0.1347096 0.0029166054
v 0.009238609 0.13021775 -0.033624314
v -0.040690508 0.12815298 -0.009679837
v -0.053873844 0.15013766 -0.008423379
v -0.040232845 0.18004629 -0.068368144
v -0.027279876 0.12366101 -0.04622072
v -0.03484721 0.14376464 -0.060266607
v 0.42419136 -0.29136366 -0.12772414
v 0.3406307 -0.30777895 -0.0972707
v 0.42098373 -0.30405316 -0.13550691
v 0.3439412 -0.2946825 -0.08923828
v 0.26369107 -0.29800135 -0.05075242
v 0.2602777 -0.31150472 -0.059034456
v 0.19061354 -0.30102292 -0.015707364
v 0.1874059 -0.31371245 -0.023490142
v -0.34449616 -0.32315162 0.24091484
v -0.26755625 -0.33292964 0.19439714
v -0.26424572 -0.3198332 0.20242956
v -0.34770378 -0.33584112 0.23313206
v -0.1839953 -0.31651476 0.16394424
v -0.18740869 -0.33001816 0.15566221
v -0.11091833 -0.31349236 0.12889808
v -0.11412595 -0.32618186 0.1211153
v 0.014291502 0.13200234 -0.036401805
v -0.0019359887 0.13743772 0.007814405
v -0.029897591 0.12406845 -0.05164407
v -0.046125088 0.12950389 -0.0074278614
vn -0.1994584 -0.8490986 -0.48912963
vn 0.7214251 -0.6660594 -0.18950106
vn 0.23859702 -0.6213129 -0.7463523
vn 0.11920089 -0.9792117 0.16412032
vn 0.90104824 0.037261672 -0.4321153
vn 0.3692542 -0.10972034 -0.92282873
vn 0.55284935 0.7187553 -0.42160234
vn 0.11597574 0.38599524 -0.9151815
vn -0.119201005 0.9792117 -0.16412039
vn -0.3728709 0.5754501 -0.7278905
vn -0.5528496 -0.718755 0.42160225
vn -0.6883051 -0.6596436 -0.30183852
vn -0.90104824 -0.03726142 0.4321153
vn -0.9415833 -0.16392815 -0.29419118
vn -0.7214251 0.6660594 0.18950097
vn -0.8109262 0.34766462 -0.4706677
vn 0.37287086 -0.57545 0.72789055
vn 0.81092626 -0.3476643 0.47066772
vn 0.9415833 0.16392815 0.29419106
vn 0.68830496 0.65964377 0.3018382
vn 0.19945827 0.8490988 0.4891295
vn -0.11597576 -0.38599497 0.91518176
vn -0.3692542 0.109720446 0.92282873
vn -0.23859707 0.6213131 0.7463521
vn -0.3728709 0.5754501 -0.7278905
vn -0.41701692 -0.19938894 -0.88675874
vn 0.11597574 0.38599524 -0.9151815
vn 0.3692542 -0.10972034 -0.92282873
vn 0.23859702 -0.6213129 -0.7463523
vn -0.1994584 -0.8490986 -0.48912963
vn -0.8109262 0.34766462 -0.4706677
vn -0.9415833 -0.16392815 -0.29419118
vn -0.6883051 -0.6596436 -0.30183852
vn 0.19945827 0.8490988 0.4891295
vn 0.68830496 0.65964377 0.3018382
vn 0.41701692 0.1993889 0.88675874
vn 0.9415833 0.16392815 0.29419106
vn 0.81092626 -0.3476643 0.47066772
vn 0.37287086 -0.57545 0.72789055
vn -0.23859707 0.6213131 0.7463521
vn -0.3692542 0.109720446 0.92282873
vn -0.11597576 -0.38599497 0.91518176
vn 0.119201384 -0.9792117 0.16412026
vn -0.5504712 -0.6178258 -0.5614915
vn -0.7526137 -0.47124448 0.4598925
vn 0.48607436 -0.51577914 -0.70548105
vn 0.15900025 -0.27860492 0.9471527
vn 0.9245515 -0.30612943 0.22691253
vn 0.48607436 -0.51577914 -0.70548105
vn -0.92455167 0.30612934 -0.22691195
vn -0.48607415 0.5157794 0.705481
vn -0.15899992 0.2786055 -0.94715255
vn 0.55047137 0.61782587 0.5614912
vn 0.75261414 0.47124436 -0.45989206
vn -0.15899992 0.2786055 -0.94715255
vn -0.119201064 0.9792117 -0.16412017
vn 0.3791357 -0.55154026 0.74300694
vn 0.37913546 -0.5515429 0.74300516
vn 0.37913555 -0.55154294 0.74300516
vn 0.37913576 -0.5515401 0.74300724
vn 0.37912866 -0.5515455 0.74300677
vn 0.37912866 -0.5515454 0.7430069
vn 0.37912464 -0.5515417 0.74301165
vn 0.3791249 -0.5515411 0.7430119
vn 0.119201176 -0.9792117 0.1641203
vn 0.8592305 -0.40458888 -0.31309888
vn -0.052384023 -0.59722805 -0.80035895
vn -0.8179352 -0.5697043 -0.08011809
vn 0.6570875 -0.25800762 0.7082852
vn -0.37945735 -0.36005476 0.852275
vn -0.8179352 -0.5697043 -0.08011809
vn 0.37945732 0.36005467 -0.8522751
vn 0.81793505 0.5697045 0.08011824
vn -0.6570879 0.2580079 -0.7082848
vn 0.05238353 0.59722805 0.8003591
vn -0.8592302 0.40458918 0.31309915
vn -0.6570879 0.2580079 -0.7082848
vn -0.11920082 0.9792117 -0.16412038
vn 0.3791289 -0.55154055 0.7430102
vn 0.379128 -0.5515427 0.74300915
vn 0.3791291 -0.5515404 0.7430104
vn 0.37912804 -0.55154264 0.7430092
vn 0.37913358 -0.5515451 0.7430045
vn 0.37913358 -0.551545 0.7430045
vn 0.37913954 -0.5515412 0.7430044
vn 0.3791395 -0.5515406 0.7430048
vn 0.42427656 0.13102905 0.89600265
vn -0.90002745 -0.045390554 0.43346304
vn -0.8906177 -0.10505217 0.4424525
vn 0.4179922 0.19125177 0.8880908
vn -0.9061144 0.014894756 0.4227704
vn 0.4100834 0.25121012 0.87676966
vn 0.902007 0.02913002 -0.4307376
vn 0.9071438 -0.03070831 -0.41969895
vn 0.8934292 0.0893123 -0.44023588
vn -0.40775052 -0.26678944 -0.87324846
vn -0.41601288 -0.2075124 -0.8853654
vn -0.42276886 -0.14700311 -0.89423525
vn -0.11920086 0.9792117 -0.16412032
vn 0.8137422 0.3526965 -0.46198365
vn 0.35585165 0.5060679 0.78566206
vn -0.89102894 0.28219798 0.35557237
vn 0.4334392 -0.0416012 0.9002221
vn 0.9033062 -0.19898428 -0.38005686
vn 0.42585823 -0.26482338 0.8651666
vn 0.8576053 -0.40943897 -0.31124407
vn -0.74983037 -0.47591165 0.4596329
vn -0.8460544 -0.27132687 0.45888305
vn -0.43313864 0.12882686 -0.89207315
vn -0.31808403 -0.620526 -0.7167775
vn -0.37618777 -0.42870948 -0.8213958
vn -0.37913564 0.55154085 -0.7430067
vn -0.37913534 0.5515438 -0.7430047
vn -0.3791356 0.55154043 -0.74300694
vn -0.37913528 0.5515437 -0.74300456
vn -0.37912852 0.55154574 -0.74300665
vn -0.37912866 0.5515455 -0.74300677
vn -0.37912446 0.55154175 -0.7430117
vn -0.37912473 0.5515411 -0.743012
vn -0.37912887 0.55154073 -0.74301016
vn -0.3791277 0.5515439 -0.7430085
vn -0.37912768 0.5515441 -0.74300843
vn -0.3791291 0.5515404 -0.7430104
vn -0.3791336 0.55154485 -0.74300474
vn -0.3791336 0.55154467 -0.74300486
vn -0.37913954 0.55154115 -0.7430044
vn -0.37913957 0.55154073 -0.7430048
vn -0.11920139 0.9792118 -0.16411938
vn -0.11920139 0.9792118 -0.16411938
vn -0.11920139 0.9792118 -0.16411936
vn -0.11920011 0.9792119 -0.16412002
vt 0.6167697 0.39276552
vt 0.9802507 0.53893435
vt 0.6167697 0.53893435
vt 0.98025084 0.39276552
vt 0.9802507 0.6851033
vt 0.6167697 0.6851033
vt 0.9802507 0.83127207
vt 0.6167696 0.83127207
vt 0.9802507 0.97744083
vt 0.6167696 0.97744083
vt 0.9802507 0.53893435
vt 0.6167697 0.53893435
vt 0.9802507 0.6851033
vt 0.6167697 0.6851033
vt 0.9802507 0.83127207
vt 0.6167696 0.83127207
vt 0.6167697 0.39276552
vt 0.6167697 0.53893435
vt 0.6167697 0.6851033
vt 0.6167696 0.83127207
vt 0.6167696 0.97744083
vt 0.6167697 0.53893435
vt 0.6167697 0.6851033
vt 0.6167696 0.83127207
vt 0.024482418 0.6047831
vt 0.024482504 0.3113215
vt 0.45644706 0.5188302
vt 0.6353725 0.31132138
vt 0.45644695 0.103812575
vt 0.024482558 0.017859638
vt 0.45644706 0.5188302
vt 0.6353725 0.31132138
vt 0.45644695 0.103812575
vt 0.024482418 0.6047831
vt 0.45644706 0.5188302
vt 0.024482504 0.3113215
vt 0.6353725 0.31132138
vt 0.45644695 0.103812575
vt 0.024482558 0.017859638
vt 0.45644706 0.5188302
vt 0.6353725 0.31132138
vt 0.45644695 0.103812575
vt 0.28886017 0.57850295
vt 0.47215086 0.61701953
vt 0.36534867 0.62645054
vt 0.565496 0.59402907
vt 0.24584822 0.6369386
vt 0.13565901 0.64473593
vt 0.049875997 0.6367321
vt 0.4782822 0.68216777
vt 0.3942209 0.6903169
vt 0.5764094 0.6833611
vt 0.27878246 0.7004567
vt 0.16559534 0.7073464
vt 0.079555675 0.7253461
vt 0.34945583 0.7495912
vt 0.06949526 0.98518115
vt 0.016821789 0.9089688
vt 0.06949526 0.9089688
vt 0.016821789 0.98518115
vt 0.06949526 0.8212102
vt 0.016821789 0.8212102
vt 0.06949526 0.7438364
vt 0.016821789 0.7438364
vt 0.28886017 0.57850295
vt 0.36534867 0.62645054
vt 0.47215086 0.61701953
vt 0.565496 0.59402907
vt 0.24584822 0.6369386
vt 0.13565901 0.64473593
vt 0.049875997 0.6367321
vt 0.4782822 0.68216777
vt 0.3942209 0.6903169
vt 0.5764094 0.6833611
vt 0.27878246 0.7004567
vt 0.16559534 0.7073464
vt 0.079555675 0.7253461
vt 0.34945583 0.7495912
vt 0.06949526 0.98518115
vt 0.016821789 0.9089688
vt 0.016821789 0.98518115
vt 0.06949526 0.9089688
vt 0.06949526 0.8212102
vt 0.016821789 0.8212102
vt 0.06949526 0.7438364
vt 0.016821789 0.7438364
vt 0.69609576 0.3629496
vt 0.9637793 0.14255953
vt 0.9637793 0.3629496
vt 0.69609576 0.14255953
vt 0.9637793 0.024785697
vt 0.69609576 0.024785697
vt 0.9637793 0.14255953
vt 0.9637793 0.3629496
vt 0.9637793 0.024785697
vt 0.69609576 0.3629496
vt 0.69609576 0.14255953
vt 0.69609576 0.024785697
vt 0.10389071 0.8742728
vt 0.27176195 0.77887625
vt 0.27176192 0.8742728
vt 0.27176192 0.9739654
vt 0.4396107 0.8742728
vt 0.4396107 0.778047
vt 0.54490495 0.8742728
vt 0.54490495 0.80134624
vt 0.5449049 0.94532233
vt 0.43961066 0.97443324
vt 0.27176192 0.8742728
vt 0.54490495 0.8742728
vt 0.4396107 0.8742728
vt 0.06949526 0.98518115
vt 0.016821789 0.9089688
vt 0.016821789 0.98518115
vt 0.06949526 0.9089688
vt 0.06949526 0.8212102
vt 0.016821789 0.8212102
vt 0.06949526 0.7438364
vt 0.016821789 0.7438364
vt 0.06949526 0.98518115
vt 0.016821789 0.9089688
vt 0.06949526 0.9089688
vt 0.016821789 0.98518115
vt 0.06949526 0.8212102
vt 0.016821789 0.8212102
vt 0.06949526 0.7438364
vt 0.016821789 0.7438364
vt 0.9637793 0.3629496
vt 0.69609576 0.3629496
vt 0.69609576 0.3629496
vt 0.9637793 0.3629496

g w_0
s 1
usemtl w_0
f 3/3/3 2/2/2 1/1/1 
f 4/4/4 1/1/1 2/2/2 
f 2/2/2 3/3/3 5/5/5 
f 6/6/6 5/5/5 3/3/3 
f 5/5/5 6/6/6 7/7/7 
f 8/8/8 7/7/7 6/6/6 
f 7/7/7 8/8/8 9/9/9 
f 10/10/10 9/9/9 8/8/8 
f 4/4/4 11/11/11 1/1/1 
f 12/12/12 1/1/1 11/11/11 
f 11/11/11 13/13/13 12/12/12 
f 14/14/14 12/12/12 13/13/13 
f 13/13/13 15/15/15 14/14/14 
f 16/16/16 14/14/14 15/15/15 
f 15/15/15 9/9/9 16/16/16 
f 10/10/10 16/16/16 9/9/9 
f 4/4/4 2/2/2 17/17/17 
f 4/4/4 17/17/17 11/11/11 
f 18/18/18 17/17/17 2/2/2 
f 2/2/2 5/5/5 18/18/18 
f 19/19/19 18/18/18 5/5/5 
f 5/5/5 7/7/7 19/19/19 
f 20/20/20 19/19/19 7/7/7 
f 7/7/7 9/9/9 20/20/20 
f 21/21/21 20/20/20 9/9/9 
f 22/22/22 11/11/11 17/17/17 
f 11/11/11 22/22/22 13/13/13 
f 23/23/23 13/13/13 22/22/22 
f 13/13/13 23/23/23 15/15/15 
f 24/24/24 15/15/15 23/23/23 
f 21/21/21 9/9/9 24/24/24 
f 15/15/15 24/24/24 9/9/9 
f 27/27/27 26/26/26 25/25/25 
f 28/28/28 26/26/26 27/27/27 
f 29/29/29 26/26/26 28/28/28 
f 30/30/30 26/26/26 29/29/29 
f 26/26/26 31/31/31 25/25/25 
f 26/26/26 32/32/32 31/31/31 
f 26/26/26 33/33/33 32/32/32 
f 26/26/26 30/30/30 33/33/33 
f 36/36/36 35/35/35 34/34/34 
f 36/36/36 37/37/37 35/35/35 
f 36/36/36 38/38/38 37/37/37 
f 36/36/36 39/39/39 38/38/38 
f 40/40/40 36/36/36 34/34/34 
f 41/41/41 36/36/36 40/40/40 
f 42/42/42 36/36/36 41/41/41 
f 39/39/39 36/36/36 42/42/42 
f 45/45/45 44/44/44 43/43/43 
f 44/44/44 46/46/46 43/43/43 
f 47/47/47 45/45/45 43/43/43 
f 48/48/48 47/47/47 43/43/43 
f 49/49/49 48/48/48 43/43/43 
f 44/44/44 45/45/45 50/50/50 
f 51/51/51 50/50/50 45/45/45 
f 45/45/45 47/47/47 51/51/51 
f 50/50/50 52/52/52 44/44/44 
f 46/46/46 44/44/44 52/52/52 
f 53/53/53 51/51/51 47/47/47 
f 47/47/47 48/48/48 53/53/53 
f 54/54/54 53/53/53 48/48/48 
f 48/48/48 49/49/49 54/54/54 
f 55/55/55 54/54/54 49/49/49 
f 52/52/52 50/50/50 56/56/56 
f 54/54/54 55/55/55 56/56/56 
f 53/53/53 54/54/54 56/56/56 
f 51/51/51 53/53/53 56/56/56 
f 50/50/50 51/51/51 56/56/56 
f 59/59/59 58/58/58 57/57/57 
f 60/60/60 57/57/57 58/58/58 
f 59/59/59 61/61/61 58/58/58 
f 62/62/62 58/58/58 61/61/61 
f 61/61/61 63/63/63 62/62/62 
f 64/64/64 62/62/62 63/63/63 
f 67/67/67 66/66/66 65/65/65 
f 68/68/68 67/67/67 65/65/65 
f 66/66/66 69/69/69 65/65/65 
f 69/69/69 70/70/70 65/65/65 
f 70/70/70 71/71/71 65/65/65 
f 66/66/66 67/67/67 72/72/72 
f 72/72/72 73/73/73 66/66/66 
f 69/69/69 66/66/66 73/73/73 
f 74/74/74 72/72/72 67/67/67 
f 67/67/67 68/68/68 74/74/74 
f 73/73/73 75/75/75 69/69/69 
f 70/70/70 69/69/69 75/75/75 
f 75/75/75 76/76/76 70/70/70 
f 71/71/71 70/70/70 76/76/76 
f 76/76/76 77/77/77 71/71/71 
f 72/72/72 74/74/74 78/78/78 
f 77/77/77 76/76/76 78/78/78 
f 76/76/76 75/75/75 78/78/78 
f 75/75/75 73/73/73 78/78/78 
f 73/73/73 72/72/72 78/78/78 
f 81/81/81 80/80/80 79/79/79 
f 82/82/82 79/79/79 80/80/80 
f 82/82/82 80/80/80 83/83/83 
f 84/84/84 83/83/83 80/80/80 
f 83/83/83 84/84/84 85/85/85 
f 86/86/86 85/85/85 84/84/84 
f 89/89/89 88/88/88 87/87/87 
f 90/90/90 87/87/87 88/88/88 
f 88/88/88 91/91/91 90/90/90 
f 92/92/92 90/90/90 91/91/91 
f 90/90/90 93/93/93 87/87/87 
f 94/94/94 87/87/87 93/93/93 
f 92/92/92 95/95/95 90/90/90 
f 93/93/93 90/90/90 95/95/95 
f 89/89/89 96/96/96 88/88/88 
f 94/94/94 93/93/93 96/96/96 
f 97/97/97 88/88/88 96/96/96 
f 88/88/88 97/97/97 91/91/91 
f 97/97/97 96/96/96 93/93/93 
f 93/93/93 95/95/95 97/97/97 
f 98/98/98 91/91/91 97/97/97 
f 98/98/98 97/97/97 95/95/95 
f 101/101/101 100/100/100 99/99/99 
f 102/102/102 101/101/101 99/99/99 
f 101/101/101 103/103/103 100/100/100 
f 104/104/104 100/100/100 103/103/103 
f 103/103/103 105/105/105 104/104/104 
f 106/106/106 104/104/104 105/105/105 
f 105/105/105 103/103/103 107/107/107 
f 108/108/108 107/107/107 103/103/103 
f 103/103/103 101/101/101 108/108/108 
f 102/102/102 108/108/108 101/101/101 
f 100/100/100 109/109/109 99/99/99 
f 109/109/109 102/102/102 99/99/99 
f 102/102/102 109/109/109 108/108/108 
f 106/106/106 110/110/110 104/104/104 
f 111/111/111 104/104/104 110/110/110 
f 108/108/108 111/111/111 107/107/107 
f 110/110/110 107/107/107 111/111/111 
f 109/109/109 100/100/100 111/111/111 
f 104/104/104 111/111/111 100/100/100 
f 111/111/111 108/108/108 109/109/109 
f 114/114/114 113/113/113 112/112/112 
f 115/115/115 112/112/112 113/113/113 
f 115/115/115 113/113/113 116/116/116 
f 117/117/117 116/116/116 113/113/113 
f 116/116/116 117/117/117 118/118/118 
f 119/119/119 118/118/118 117/117/117 
f 122/122/122 121/121/121 120/120/120 
f 123/123/123 120/120/120 121/121/121 
f 122/122/122 124/124/124 121/121/121 
f 125/125/125 121/121/121 124/124/124 
f 124/124/124 126/126/126 125/125/125 
f 127/127/127 125/125/125 126/126/126 
f 130/130/130 129/129/129 128/128/128 
f 131/131/131 129/129/129 130/130/130 

