# Created by DisUnity v0.3.4
v 0.065646216 -0.118659884 0.008693542
v 0.094369836 -0.08769782 0.12246933
v 0.03268801 -0.08769782 0.012849426
v 0.1122667 -0.11250426 0.11161701
v 0.114946075 -0.11435684 0.13058761
v 0.16156393 -0.1185749 0.08172401
v 0.17625205 -0.1228011 0.09279552
v 0.17008354 -0.08769782 0.07655788
v 0.18693843 -0.08769782 0.086207464
v 0.09315315 -0.08769782 0.14401993
v 0.12417547 -0.11935454 0.007402687
v 0.13676101 -0.08769782 0.007361183
v 0.13796401 -0.08769782 -0.078883015
v 0.12497583 -0.11935454 -0.08553333
v 0.1697486 -0.11935454 -0.14685985
v 0.050222263 -0.11586615 -0.10688633
v 0.07812778 -0.118198335 -0.22868785
v -8.4229466E-4 -0.08769782 -0.12780468
v 0.03008552 -0.08769782 -0.27927074
v 0.15618762 -0.11849451 -0.33956012
v 0.13606815 -0.08769782 -0.41401562
v 0.25647968 -0.111955866 -0.37800547
v 0.27804163 -0.08769782 -0.46223566
v 0.21278296 -0.11935454 -0.16771542
v 0.18205513 -0.08769782 -0.14007077
v 0.22693123 -0.08769782 -0.16385974
v 0.26592186 -0.08769782 -0.37350833
v 0.25647968 -0.06343977 -0.37800547
v 0.15618762 -0.05690113 -0.33956012
v 0.07812778 -0.057197303 -0.22868785
v 0.050222263 -0.05952949 -0.10688633
v 0.21278296 -0.056041095 -0.16771542
v 0.1697486 -0.056041095 -0.14685985
v 0.12497583 -0.056041095 -0.08553333
v 0.12417547 -0.056041095 0.007402687
v 0.16156393 -0.05682073 0.08172401
v 0.1122667 -0.06289138 0.11161701
v 0.114946075 -0.0610388 0.13058761
v 0.17625205 -0.052594535 0.09279552
v 0.065646216 -0.056735754 0.008693542
v 0.19749554 -0.055730026 0.17448482
v 0.15028268 -0.063782685 0.18474846
v 0.1322275 -0.08769782 0.18867347
v 0.15028268 -0.11161295 0.18474846
v 0.14446619 -0.08769782 0.25607902
v 0.16152167 -0.11161295 0.25613046
v 0.1428458 -0.11161295 0.3421241
v 0.12713599 -0.08769782 0.33763823
v 0.07179986 -0.08769782 0.39346993
v 0.08183172 -0.1356717 0.41140273
v 0.17593479 -0.11935454 0.35113776
v 0.1999591 -0.11935454 0.25620875
v 0.13667619 -0.11935454 0.44875655
v 0.1620055 -0.08769782 0.46223578
v 0.1960036 -0.08769782 0.35214102
v 0.21440047 -0.08769782 0.25621846
v 0.19749554 -0.11966561 0.17448482
v 0.2090312 -0.08769782 0.17197704
v 0.1428458 -0.063782685 0.3421241
v 0.08183172 -0.03972393 0.41140273
v 0.13667619 -0.056041095 0.44875655
v 0.17593479 -0.056041095 0.35113776
v 0.16152167 -0.063782685 0.25613046
v 0.1999591 -0.056041095 0.25620875
v 0.07179986 -0.08769782 0.39346993
v 0.08183172 -0.1356717 0.41140273
v 0.11180353 -0.08769782 0.42933738
v 0.13667619 -0.11935454 0.44875655
v 0.1620055 -0.08769782 0.46223578
v 0.08183172 -0.03972393 0.41140273
v 0.13667619 -0.056041095 0.44875655
v 0.17194192 -0.17771493 0.45131287
v 0.15440103 -0.12025081 0.54528993
v 0.15125413 -0.16628082 0.5576864
v 0.117155835 -0.18667378 0.56116253
v 0.14342356 -0.07641322 0.62232125
v 0.14057931 -0.13064632 0.65024155
v 0.17530532 -0.034617737 0.7358731
v 0.14538921 -0.08071754 0.72411084
v 0.12482198 -0.11813036 0.75514346
v 0.100152284 -0.1610373 0.6422561
v 0.16002518 -0.18661338 0.45909533
v 0.18299198 -0.19714618 0.44773543
v 0.17494243 -0.16319884 0.46966398
v 0.20199588 -0.18982458 0.4242373
v 0.18948078 -0.13864943 0.4551801
v 0.19311327 -0.13050988 0.42629194
v 0.20014022 -0.16567744 0.40467516
v 0.18313614 -0.14462593 0.40143457
v 0.14392698 -0.19356911 0.43511775
v 0.14443533 -0.18275775 0.40500656
v 0.16092879 -0.1620248 0.3904434
v 0.14141655 -0.1634824 0.45546722
v 0.14140315 -0.14077242 0.4355145
v 0.14443533 -0.18275775 0.40500656
v 0.16092879 -0.1620248 0.3904434
v 0.15882425 -0.13223067 0.4123648
v 0.18313614 -0.14462593 0.40143457
v 0.18948078 -0.13864943 0.4551801
v 0.19311327 -0.13050988 0.42629194
v 0.17091793 -0.17688602 0.4515034
v 0.15031192 -0.16552572 0.5578978
v 0.15345885 -0.119495675 0.5455013
v 0.11621361 -0.18591861 0.56137395
v 0.14248136 -0.07565812 0.62253267
v 0.1396372 -0.1298912 0.6504531
v 0.17436314 -0.033862613 0.7360845
v 0.14444691 -0.0799625 0.72432244
v 0.12387981 -0.11737525 0.75535476
v 0.09921005 -0.16028221 0.6424675
v 0.14882265 -0.16007018 0.34775427
v 0.16170698 -0.14393897 0.3015212
v 0.16594902 -0.13651143 0.30353278
v 0.14376074 -0.16840522 0.34752676
v 0.14806186 -0.16614875 0.3747044
v 0.14234112 -0.17525007 0.37609544
v 0.15080996 -0.17464843 0.39658263
v 0.15980925 -0.16146415 0.39576346
v 0.1478733 -0.15930165 0.34793094
v 0.16075763 -0.14317043 0.3016979
v 0.14281139 -0.16763668 0.34770346
v 0.16499965 -0.1357429 0.30370945
v 0.1471125 -0.16538022 0.37488112
v 0.14139175 -0.17448154 0.37627214
v 0.14986062 -0.17387992 0.39675933
v 0.1588599 -0.16069564 0.39594015
v 0.16799548 -0.13457225 0.33111495
v 0.18117367 -0.1475421 0.30898693
v 0.17507733 -0.122613825 0.32405964
v 0.1768468 -0.11864891 0.30998775
v 0.17198677 -0.1255251 0.29787937
v 0.16072904 -0.14597787 0.32596684
v 0.15288734 -0.1493661 0.31428692
v 0.15313499 -0.14409973 0.29961932
v 0.1611692 -0.13400038 0.29252538
v 0.15165794 -0.123647995 0.31448025
v 0.15313499 -0.14409973 0.29961932
v 0.1611692 -0.13400038 0.29252538
v 0.17198677 -0.1255251 0.29787937
v 0.17507733 -0.122613825 0.32405964
v 0.1768468 -0.11864891 0.30998775
vn 0.3713189 0.9175052 -0.14250118
vn 0.9780573 0.0 -0.20833622
vn 0.94549024 0.0 -0.32565036
vn 0.43706197 0.89559096 -0.08302813
vn 0.49349967 0.8586306 -0.13860561
vn -0.3243524 0.85929006 0.39549476
vn -0.44739312 0.8106422 0.37775487
vn -0.73038864 0.0 0.68303174
vn -0.80832964 0.0 0.58873016
vn 0.93386316 0.0 -0.35763046
vn -0.47202235 0.8772508 0.087326765
vn -0.9722678 0.0 0.23387001
vn -0.9537586 0.0 -0.30057365
vn -0.41805288 0.89645654 -0.14696047
vn -0.32542437 0.87235224 -0.3648295
vn 0.3218755 0.9467116 -0.011539427
vn 0.2440874 0.96548736 0.09085967
vn 0.99929607 0.0 0.037516005
vn 0.893269 -1.2668504E-7 0.44952255
vn 0.13604577 0.9746854 0.17742608
vn 0.5269104 -1.6139856E-7 0.8499208
vn -0.50753504 0.85943323 0.06150388
vn -0.51364017 -1.7297091E-7 0.85800576
vn -0.5069579 0.762675 -0.4016473
vn -0.63060176 0.0 -0.77610654
vn -0.82328004 0.0 -0.5676353
vn -0.98675495 0.0 -0.1622183
vn -0.507535 -0.8594333 0.06150386
vn 0.13604581 -0.9746854 0.17742608
vn 0.2440874 -0.96548736 0.09085967
vn 0.32187554 -0.9467116 -0.011539431
vn -0.5069579 -0.762675 -0.4016473
vn -0.32542437 -0.87235224 -0.3648295
vn -0.41805288 -0.89645654 -0.14696047
vn -0.47202235 -0.8772508 0.08732675
vn -0.3243524 -0.85929006 0.39549473
vn 0.43706197 -0.89559096 -0.08302813
vn 0.49349967 -0.8586306 -0.13860561
vn -0.44739312 -0.8106422 0.37775487
vn 0.3713189 -0.9175052 -0.14250118
vn -0.5348925 -0.8428911 0.058520474
vn 0.4283111 -0.8859903 -0.17768155
vn 0.90881425 0.0 -0.417201
vn 0.4283111 0.8859903 -0.17768155
vn 0.9996879 0.0 0.024982125
vn 0.50607693 0.8623005 0.017996259
vn 0.39726248 0.8801849 0.25972497
vn 0.8527908 0.0 0.5222526
vn 0.9922347 0.0 0.12438011
vn 0.6761969 0.71494365 -0.17780173
vn -0.4591312 0.88178736 -0.10793303
vn -0.48838347 0.8714902 -0.04457037
vn 2.9438792E-4 0.660341 -0.7509657
vn -0.5031755 0.0 -0.86418426
vn -0.9632605 0.0 -0.2685688
vn -0.99674726 0.0 -0.08059068
vn -0.53489244 0.84289116 0.058520477
vn -0.9889508 0.0 0.14824413
vn 0.39726242 -0.8801849 0.25972497
vn 0.6761969 -0.71494365 -0.17780179
vn 2.9438792E-4 -0.66034114 -0.7509657
vn -0.4591312 -0.88178736 -0.10793303
vn 0.50607693 -0.8623005 0.017996259
vn -0.48838347 -0.8714902 -0.04457038
vn 0.9922347 0.0 0.12438011
vn 0.6761969 0.71494365 -0.17780173
vn 0.59655225 0.0 -0.8025743
vn 2.9438792E-4 0.660341 -0.7509657
vn -0.5031755 0.0 -0.86418426
vn 0.6761969 -0.71494365 -0.17780179
vn 2.9438792E-4 -0.66034114 -0.7509657
vn -0.88557065 0.41101372 -0.21640794
vn -0.98768836 0.010459733 -0.15608448
vn -0.83052605 0.49868822 -0.24806553
vn -0.5156782 0.8048246 -0.29382506
vn -0.995836 0.08301968 0.037662044
vn -0.8495502 0.5041258 -0.15531155
vn -0.91109467 0.4037038 -0.08324521
vn -0.82878786 0.48715287 -0.2753046
vn -0.8410886 0.507581 -0.18689992
vn -0.53449667 0.7929107 -0.29258493
vn 0.2751288 0.5860008 -0.76217276
vn -0.38083178 0.83667547 -0.3936257
vn -0.1841282 -0.079513215 -0.9796808
vn -0.76814795 0.62467146 0.14047906
vn -0.4834566 -0.60241365 -0.63511217
vn -0.5847504 -0.81025475 0.039422866
vn -0.7808477 0.09509281 0.61744165
vn -0.34073022 -0.53300315 0.7744744
vn 0.66176 0.7487776 -0.037495818
vn 0.6296984 0.48758408 0.6047658
vn 0.24928616 0.006430907 0.9684086
vn 0.7880691 -0.117439754 -0.60428053
vn 0.7710965 -0.61931884 -0.14783221
vn 0.6296984 0.48758408 0.6047658
vn 0.24928616 0.006430907 0.9684086
vn 0.38127473 -0.83666515 0.39321885
vn -0.34073022 -0.53300315 0.7744744
vn -0.4834566 -0.60241365 -0.63511217
vn -0.5847504 -0.81025475 0.039422866
vn 0.88569456 -0.41125032 0.21544887
vn 0.8305741 -0.49885583 0.2475672
vn 0.9877363 -0.010549182 0.15577485
vn 0.515709 -0.80494344 0.29344547
vn 0.995836 -0.08301879 -0.037662625
vn 0.84955 -0.50412595 0.15531148
vn 0.91109455 -0.40370372 0.08324621
vn 0.828788 -0.48715222 0.2753057
vn 0.8410888 -0.5075803 0.18690099
vn 0.5344956 -0.7929114 0.29258493
vn -0.8536833 0.52079237 -3.9455996E-4
vn -0.8559458 0.5136517 -0.059318177
vn -0.8559458 0.5136517 -0.059318177
vn -0.85081476 0.52425504 0.035651773
vn -0.81730664 0.5402356 0.20038785
vn -0.81403124 0.5410487 0.21123336
vn -0.7789809 0.5452441 0.3096734
vn -0.7789809 0.545244 0.3096734
vn 0.85368294 -0.5207929 3.9441974E-4
vn 0.85594547 -0.5136524 0.05931786
vn 0.85081446 -0.5242554 -0.0356518
vn 0.85594547 -0.5136523 0.05931786
vn 0.81730664 -0.5402355 -0.20038845
vn 0.8140313 -0.5410483 -0.21123372
vn 0.778981 -0.5452433 -0.3096744
vn 0.778981 -0.5452433 -0.3096744
vn -0.10317444 -0.0016645397 -0.99466187
vn -0.7691023 0.6229589 0.14284207
vn -0.4834565 -0.60241354 -0.63511235
vn -0.5532955 -0.8197716 0.1477789
vn -0.35304186 -0.5223832 0.7761941
vn 0.26416653 0.59429675 -0.7596233
vn 0.65488905 0.7406285 -0.15029897
vn 0.629698 0.4875839 0.60476637
vn 0.19145952 -0.09050969 0.97731835
vn 0.7699435 -0.6214341 -0.14493684
vn 0.629698 0.4875839 0.60476637
vn 0.19145952 -0.09050969 0.97731835
vn -0.35304186 -0.5223832 0.7761941
vn -0.4834565 -0.60241354 -0.63511235
vn -0.5532955 -0.8197716 0.1477789
vt 0.145542 0.552692
vt 0.024586 0.41727698
vt 0.024586 0.563793
vt 0.145542 0.41727698
vt 0.145542 0.398677
vt 0.384643 0.41727698
vt 0.384643 0.398677
vt 0.501568 0.41727698
vt 0.501568 0.398677
vt 0.024586 0.398677
vt 0.453567 0.54812896
vt 0.506267 0.54029703
vt 0.583366 0.612
vt 0.530713 0.632342
vt 0.71308 0.670128
vt 0.264412 0.718202
vt 0.453338 0.821289
vt 0.119959 0.750122
vt 0.318782 0.881286
vt 0.674868 0.875771
vt 0.611553 0.959502
vt 0.879097 0.863738
vt 0.890664 0.97832
vt 0.879097 0.671786
vt 0.738002 0.64366996
vt 0.929894 0.65123904
vt 0.929893 0.878506
vt 0.879097 0.863738
vt 0.674868 0.875771
vt 0.453338 0.821289
vt 0.264412 0.718202
vt 0.879097 0.671786
vt 0.71308 0.670128
vt 0.530713 0.632342
vt 0.453567 0.54812896
vt 0.384643 0.41727698
vt 0.145542 0.41727698
vt 0.145542 0.398677
vt 0.384643 0.398677
vt 0.145542 0.552692
vt 0.384643 0.30531597
vt 0.145542 0.30531597
vt 0.024586 0.30531597
vt 0.145542 0.30531597
vt 0.024586 0.21765298
vt 0.145542 0.21765298
vt 0.145542 0.12023097
vt 0.024586 0.12023097
vt 0.024586 0.014425993
vt 0.145541 0.014425993
vt 0.384643 0.12023097
vt 0.384643 0.21765298
vt 0.384643 0.014425993
vt 0.501568 0.014425993
vt 0.501568 0.12023097
vt 0.501568 0.21765298
vt 0.384643 0.30531597
vt 0.501568 0.30531597
vt 0.145542 0.12023097
vt 0.145541 0.014425993
vt 0.384643 0.014425993
vt 0.384643 0.12023097
vt 0.145542 0.21765298
vt 0.384643 0.21765298
vt 0.411757 0.015362978
vt 0.42765 0.054700017
vt 0.44955 0.015761018
vt 0.473576 0.041859984
vt 0.491865 0.016206026
vt 0.42716 0.05466199
vt 0.471034 0.042142987
vt 0.773724 0.056864023
vt 0.590237 0.19665498
vt 0.773724 0.19665498
vt 0.978734 0.19665498
vt 0.590237 0.337474
vt 0.773724 0.337474
vt 0.590237 0.525108
vt 0.765458 0.525108
vt 0.978734 0.525108
vt 0.978734 0.337474
vt 0.035098 0.974455
vt 0.117517 0.974455
vt 0.072429 0.913207
vt 0.194122 0.974455
vt 0.196254 0.88783
vt 0.298724 0.920099
vt 0.268993 0.974455
vt 0.349765 0.974455
vt 0.072429 0.913207
vt 0.196254 0.88783
vt 0.298724 0.920099
vt 0.11696 0.974385
vt 0.192315 0.974385
vt 0.196254 0.88972497
vt 0.296031 0.919556
vt 0.267024 0.974385
vt 0.35465 0.974385
vt 0.196254 0.88972497
vt 0.296031 0.919556
vt 0.773724 0.056864023
vt 0.773724 0.19665498
vt 0.590237 0.19665498
vt 0.978734 0.19665498
vt 0.590237 0.337474
vt 0.773724 0.337474
vt 0.590237 0.525108
vt 0.765458 0.525108
vt 0.978734 0.525108
vt 0.978734 0.337474
vt 0.235998 0.20179302
vt 0.180338 0.18380898
vt 0.180338 0.20179302
vt 0.235998 0.18380898
vt 0.286083 0.20179302
vt 0.286083 0.18380898
vt 0.339424 0.18380898
vt 0.339424 0.20179302
vt 0.235998 0.20179302
vt 0.180338 0.18380898
vt 0.235998 0.18380898
vt 0.180338 0.20179302
vt 0.286083 0.20179302
vt 0.286083 0.18380898
vt 0.339424 0.18380898
vt 0.339424 0.20179302
vt 0.072429 0.913207
vt 0.194122 0.974455
vt 0.196254 0.88783
vt 0.298724 0.920099
vt 0.349765 0.974455
vt 0.035098 0.974455
vt 0.072429 0.913207
vt 0.196254 0.88783
vt 0.298724 0.920099
vt 0.192315 0.974385
vt 0.196254 0.88972497
vt 0.296031 0.919556
vt 0.35465 0.974385
vt 0.196254 0.88972497
vt 0.296031 0.919556

g w_0
s 1
usemtl w_0
f 3/3/3 2/2/2 1/1/1 
f 2/2/2 4/4/4 1/1/1 
f 5/5/5 4/4/4 2/2/2 
f 6/6/6 4/4/4 5/5/5 
f 7/7/7 6/6/6 5/5/5 
f 6/6/6 7/7/7 8/8/8 
f 7/7/7 9/9/9 8/8/8 
f 10/10/10 5/5/5 2/2/2 
f 6/6/6 11/11/11 4/4/4 
f 11/11/11 1/1/1 4/4/4 
f 8/8/8 12/12/12 6/6/6 
f 12/12/12 11/11/11 6/6/6 
f 12/12/12 13/13/13 11/11/11 
f 13/13/13 14/14/14 11/11/11 
f 11/11/11 14/14/14 1/1/1 
f 14/14/14 13/13/13 15/15/15 
f 14/14/14 15/15/15 16/16/16 
f 3/3/3 1/1/1 16/16/16 
f 14/14/14 16/16/16 1/1/1 
f 15/15/15 17/17/17 16/16/16 
f 18/18/18 16/16/16 17/17/17 
f 18/18/18 3/3/3 16/16/16 
f 19/19/19 18/18/18 17/17/17 
f 17/17/17 20/20/20 19/19/19 
f 15/15/15 20/20/20 17/17/17 
f 20/20/20 21/21/21 19/19/19 
f 21/21/21 20/20/20 22/22/22 
f 23/23/23 21/21/21 22/22/22 
f 22/22/22 20/20/20 24/24/24 
f 20/20/20 15/15/15 24/24/24 
f 13/13/13 25/25/25 15/15/15 
f 15/15/15 25/25/25 24/24/24 
f 25/25/25 26/26/26 24/24/24 
f 27/27/27 23/23/23 22/22/22 
f 26/26/26 27/27/27 24/24/24 
f 27/27/27 22/22/22 24/24/24 
f 21/21/21 23/23/23 28/28/28 
f 23/23/23 27/27/27 28/28/28 
f 29/29/29 21/21/21 28/28/28 
f 21/21/21 29/29/29 19/19/19 
f 29/29/29 30/30/30 19/19/19 
f 19/19/19 30/30/30 18/18/18 
f 30/30/30 31/31/31 18/18/18 
f 29/29/29 28/28/28 32/32/32 
f 32/32/32 26/26/26 25/25/25 
f 28/28/28 27/27/27 32/32/32 
f 27/27/27 26/26/26 32/32/32 
f 33/33/33 29/29/29 32/32/32 
f 29/29/29 33/33/33 30/30/30 
f 30/30/30 33/33/33 31/31/31 
f 33/33/33 32/32/32 25/25/25 
f 33/33/33 34/34/34 31/31/31 
f 34/34/34 33/33/33 13/13/13 
f 33/33/33 25/25/25 13/13/13 
f 34/34/34 13/13/13 35/35/35 
f 13/13/13 12/12/12 35/35/35 
f 36/36/36 35/35/35 12/12/12 
f 36/36/36 37/37/37 35/35/35 
f 38/38/38 37/37/37 36/36/36 
f 39/39/39 38/38/38 36/36/36 
f 39/39/39 36/36/36 8/8/8 
f 8/8/8 36/36/36 12/12/12 
f 9/9/9 39/39/39 8/8/8 
f 2/2/2 37/37/37 38/38/38 
f 37/37/37 2/2/2 40/40/40 
f 37/37/37 40/40/40 35/35/35 
f 35/35/35 40/40/40 34/34/34 
f 40/40/40 31/31/31 34/34/34 
f 2/2/2 3/3/3 40/40/40 
f 40/40/40 3/3/3 31/31/31 
f 10/10/10 2/2/2 38/38/38 
f 38/38/38 39/39/39 41/41/41 
f 42/42/42 38/38/38 41/41/41 
f 10/10/10 38/38/38 43/43/43 
f 38/38/38 42/42/42 43/43/43 
f 5/5/5 10/10/10 43/43/43 
f 44/44/44 5/5/5 43/43/43 
f 44/44/44 43/43/43 45/45/45 
f 43/43/43 42/42/42 45/45/45 
f 46/46/46 44/44/44 45/45/45 
f 47/47/47 46/46/46 45/45/45 
f 48/48/48 47/47/47 45/45/45 
f 48/48/48 49/49/49 47/47/47 
f 49/49/49 50/50/50 47/47/47 
f 47/47/47 51/51/51 46/46/46 
f 51/51/51 52/52/52 46/46/46 
f 46/46/46 52/52/52 44/44/44 
f 50/50/50 53/53/53 47/47/47 
f 53/53/53 51/51/51 47/47/47 
f 53/53/53 54/54/54 51/51/51 
f 54/54/54 55/55/55 51/51/51 
f 51/51/51 55/55/55 52/52/52 
f 55/55/55 56/56/56 52/52/52 
f 57/57/57 52/52/52 56/56/56 
f 44/44/44 57/57/57 5/5/5 
f 52/52/52 57/57/57 44/44/44 
f 58/58/58 57/57/57 56/56/56 
f 57/57/57 7/7/7 5/5/5 
f 7/7/7 57/57/57 58/58/58 
f 9/9/9 7/7/7 58/58/58 
f 59/59/59 48/48/48 45/45/45 
f 48/48/48 59/59/59 49/49/49 
f 59/59/59 60/60/60 49/49/49 
f 60/60/60 59/59/59 61/61/61 
f 59/59/59 62/62/62 61/61/61 
f 61/61/61 62/62/62 54/54/54 
f 62/62/62 55/55/55 54/54/54 
f 59/59/59 63/63/63 62/62/62 
f 63/63/63 59/59/59 45/45/45 
f 42/42/42 63/63/63 45/45/45 
f 63/63/63 64/64/64 62/62/62 
f 62/62/62 64/64/64 55/55/55 
f 64/64/64 56/56/56 55/55/55 
f 64/64/64 63/63/63 42/42/42 
f 58/58/58 56/56/56 41/41/41 
f 56/56/56 64/64/64 41/41/41 
f 41/41/41 64/64/64 42/42/42 
f 41/41/41 39/39/39 58/58/58 
f 39/39/39 9/9/9 58/58/58 
f 3/3/3 18/18/18 31/31/31 
f 67/67/67 66/66/66 65/65/65 
f 67/67/67 68/68/68 66/66/66 
f 67/67/67 69/69/69 68/68/68 
f 67/67/67 65/65/65 70/70/70 
f 67/67/67 70/70/70 71/71/71 
f 67/67/67 71/71/71 69/69/69 
f 74/74/74 73/73/73 72/72/72 
f 75/75/75 74/74/74 72/72/72 
f 76/76/76 73/73/73 74/74/74 
f 77/77/77 76/76/76 74/74/74 
f 76/76/76 77/77/77 78/78/78 
f 77/77/77 79/79/79 78/78/78 
f 77/77/77 80/80/80 79/79/79 
f 81/81/81 80/80/80 77/77/77 
f 77/77/77 74/74/74 81/81/81 
f 74/74/74 75/75/75 81/81/81 
f 84/84/84 83/83/83 82/82/82 
f 83/83/83 84/84/84 85/85/85 
f 86/86/86 85/85/85 84/84/84 
f 87/87/87 85/85/85 86/86/86 
f 87/87/87 88/88/88 85/85/85 
f 87/87/87 89/89/89 88/88/88 
f 83/83/83 90/90/90 82/82/82 
f 90/90/90 83/83/83 85/85/85 
f 85/85/85 91/91/91 90/90/90 
f 88/88/88 92/92/92 85/85/85 
f 89/89/89 92/92/92 88/88/88 
f 85/85/85 92/92/92 91/91/91 
f 90/90/90 93/93/93 82/82/82 
f 93/93/93 84/84/84 82/82/82 
f 93/93/93 90/90/90 94/94/94 
f 84/84/84 93/93/93 94/94/94 
f 94/94/94 90/90/90 95/95/95 
f 95/95/95 96/96/96 94/94/94 
f 96/96/96 97/97/97 94/94/94 
f 98/98/98 97/97/97 96/96/96 
f 94/94/94 99/99/99 84/84/84 
f 97/97/97 100/100/100 94/94/94 
f 97/97/97 98/98/98 100/100/100 
f 100/100/100 99/99/99 94/94/94 
f 103/103/103 102/102/102 101/101/101 
f 102/102/102 104/104/104 101/101/101 
f 102/102/102 103/103/103 105/105/105 
f 106/106/106 102/102/102 105/105/105 
f 106/106/106 105/105/105 107/107/107 
f 108/108/108 106/106/106 107/107/107 
f 109/109/109 106/106/106 108/108/108 
f 109/109/109 110/110/110 106/106/106 
f 104/104/104 102/102/102 110/110/110 
f 102/102/102 106/106/106 110/110/110 
f 113/113/113 112/112/112 111/111/111 
f 112/112/112 114/114/114 111/111/111 
f 111/111/111 114/114/114 115/115/115 
f 114/114/114 116/116/116 115/115/115 
f 116/116/116 117/117/117 115/115/115 
f 117/117/117 118/118/118 115/115/115 
f 121/121/121 120/120/120 119/119/119 
f 120/120/120 122/122/122 119/119/119 
f 119/119/119 123/123/123 121/121/121 
f 123/123/123 124/124/124 121/121/121 
f 125/125/125 124/124/124 123/123/123 
f 126/126/126 125/125/125 123/123/123 
f 129/129/129 128/128/128 127/127/127 
f 130/130/130 128/128/128 129/129/129 
f 128/128/128 130/130/130 131/131/131 
f 132/132/132 127/127/127 128/128/128 
f 133/133/133 132/132/132 128/128/128 
f 128/128/128 134/134/134 133/133/133 
f 135/135/135 128/128/128 131/131/131 
f 128/128/128 135/135/135 134/134/134 
f 136/136/136 132/132/132 133/133/133 
f 132/132/132 136/136/136 127/127/127 
f 136/136/136 133/133/133 137/137/137 
f 137/137/137 138/138/138 136/136/136 
f 139/139/139 136/136/136 138/138/138 
f 136/136/136 140/140/140 127/127/127 
f 136/136/136 139/139/139 141/141/141 
f 141/141/141 140/140/140 136/136/136 

