# Created by DisUnity v0.3.4
v 0.09147707 -0.57612485 0.9762504
v 0.10609747 -0.68257445 0.99930274
v 0.13831033 -0.566755 1.032674
v 0.02561345 -0.58908087 1.0046408
v 0.116151206 -0.52076554 0.9852457
v 0.084746934 -0.5338768 0.9557098
v 0.041531123 -0.5351588 0.9679212
v 0.16898963 -0.5948727 1.0538585
v 0.19165047 -0.6713739 1.0902932
v 0.079530306 -0.655176 1.0956973
v 0.15878128 -0.71387327 1.0843233
v 0.118653245 -0.8343203 1.0736912
v 0.17006569 -0.81225467 1.1103305
v 0.10481424 -0.8206813 1.1219071
v 0.0031583405 -0.6300088 1.0053505
v -6.7148205E-5 -0.716298 1.0205361
v 0.06943702 -0.5544037 1.0530396
v 0.104163766 -0.50895154 1.0270108
v 0.06079317 -0.5102698 1.0391666
v 0.029554358 -0.52335554 1.0096493
v 0.19939956 -0.84898466 1.129038
v 0.19033623 -0.93547153 1.1509006
v 0.147317 -1.125845 1.1924031
v 0.03998774 -0.73921555 1.046907
v 0.10481424 -0.8206813 1.1219071
v 0.052479498 -0.8350043 1.0828129
v 0.061844513 -0.960267 1.1210346
v 0.118653245 -0.8343203 1.0736912
v 0.033021934 -0.8810908 1.090366
v 0.041531123 -0.5351588 0.9679212
v -0.11396219 0.9659191 0.56703466
v -0.13358593 0.87708235 0.5650725
v -0.14273246 0.9538548 0.53979784
v -0.104971714 0.8891164 0.59227264
v -0.06543899 0.890287 0.5810906
v -0.07437895 0.9670994 0.5558645
v -0.14273246 0.9538548 0.53979784
v -0.122675665 0.8662178 0.52668893
v -0.131822 0.94298995 0.50141364
v -0.13358593 0.87708235 0.5650725
v -0.0921415 0.9441895 0.490267
v -0.083151005 0.86738676 0.5155049
v -0.06346872 0.9562349 0.5174809
v -0.05452874 0.8794222 0.542707
v -0.07437895 0.9670994 0.5558645
v -0.06543899 0.890287 0.5810906
v -0.14463931 0.96898323 0.53486156
v -0.11396219 0.9659191 0.56703466
v -0.14273246 0.9538548 0.53979784
v -0.11561142 0.9810974 0.56215894
v -0.13372885 0.9581182 0.49647743
v -0.131822 0.94298995 0.50141364
v -0.09379068 0.9593675 0.4853913
v -0.0921415 0.9441895 0.490267
v -0.115763225 1.0016481 0.5453505
v -0.13798036 0.9924034 0.52454305
v -0.1296751 0.9841329 0.49532413
v -0.09915288 0.9851071 0.48691335
v -0.10930624 1.0088896 0.51105046
v -0.07437895 0.9670994 0.5558645
v -0.07567317 0.98234665 0.55107224
v -0.06346872 0.9562349 0.5174809
v -0.06476271 0.9714816 0.5126879
v -0.08524027 1.0026228 0.53693974
v -0.076934986 0.9943521 0.50772077
v 0.02336863 -0.43837357 0.97782546
v -0.104971714 0.8891164 0.59227264
v 0.051903952 -0.42635503 1.0050071
v -0.13358593 0.87708235 0.5650725
v -0.06543899 0.890287 0.5810906
v 0.09141229 -0.4251892 0.99381924
v 0.034279097 -0.44923857 0.9394412
v -0.13358593 0.87708235 0.5650725
v 0.02336863 -0.43837357 0.97782546
v -0.122675665 0.8662178 0.52668893
v 0.07372465 -0.44808462 0.9282393
v -0.083151005 0.86738676 0.5155049
v 0.102322735 -0.43605402 0.9554351
v -0.05452874 0.8794222 0.542707
v 0.09141229 -0.4251892 0.99381924
v -0.06543899 0.890287 0.5810906
v 0.029554358 -0.52335554 1.0096493
v 0.051903952 -0.42635503 1.0050071
v 0.06079317 -0.5102698 1.0391666
v 0.02336863 -0.43837357 0.97782546
v 0.104163766 -0.50895154 1.0270108
v 0.09141229 -0.4251892 0.99381924
v 0.041531123 -0.5351588 0.9679212
v 0.02336863 -0.43837357 0.97782546
v 0.029554358 -0.52335554 1.0096493
v 0.034279097 -0.44923857 0.9394412
v 0.084746934 -0.5338768 0.9557098
v 0.07372465 -0.44808462 0.9282393
v 0.102322735 -0.43605402 0.9554351
v 0.116151206 -0.52076554 0.9852457
v 0.09141229 -0.4251892 0.99381924
v 0.104163766 -0.50895154 1.0270108
vn 0.2932389 -0.3083141 -0.9049604
vn 0.32707155 -0.2746606 -0.9042045
vn 0.90057486 0.40755212 0.15121566
vn -0.9632382 -0.0020742998 -0.26864102
vn 0.9072089 0.04743524 -0.41799754
vn 0.25845313 -0.3887838 -0.88433534
vn -0.59770536 -0.30861247 -0.73993695
vn 0.80213004 0.5869844 0.10971198
vn 0.90393674 -0.09496292 0.41698968
vn -0.3209055 0.22611707 0.9197232
vn 0.90040624 -0.25637305 0.3514846
vn 0.2800312 -0.28038457 -0.91813236
vn 0.8856763 0.44960853 0.11588664
vn -0.27459222 0.24020588 0.9310748
vn -0.8997926 0.23221776 -0.3693889
vn -0.8322443 -0.5061004 -0.22634418
vn -0.26181528 0.26789927 0.9271907
vn 0.5821576 0.44019186 0.6836107
vn -0.28508946 0.23617005 0.9289498
vn -0.93478894 0.056245554 0.35072237
vn 0.9499083 0.23503302 0.20599444
vn 0.9458325 -0.11440001 0.3038317
vn 0.112961195 -0.9471225 0.30033106
vn -0.79596174 -0.59998 -0.08042959
vn -0.27459222 0.24020588 0.9310748
vn -0.9520717 0.09861006 -0.2895434
vn -0.87659883 -0.4660803 -0.11976492
vn 0.2800312 -0.28038457 -0.91813236
vn -0.96198076 -0.13381198 -0.23809111
vn -0.59770536 -0.30861247 -0.73993695
vn -0.268586 0.26930633 0.9248436
vn -0.9618735 -0.026963236 0.27216244
vn -0.96203595 -0.028994652 0.27137846
vn -0.26772785 0.2657828 0.9261109
vn 0.6956728 0.29266924 0.6560366
vn 0.6959145 0.28292358 0.66004336
vn -0.96203595 -0.028994652 0.27137846
vn -0.69799304 -0.2930477 -0.6533979
vn -0.6943773 -0.29905218 -0.6545289
vn -0.9618735 -0.026963236 0.27216244
vn 0.26744246 -0.2705131 -0.9248228
vn 0.26794302 -0.2658321 -0.92603445
vn 0.96301234 0.011176855 -0.2692252
vn 0.9629962 0.027373957 -0.26812112
vn 0.6959145 0.28292358 0.66004336
vn 0.6956728 0.29266924 0.6560366
vn -0.9665299 0.14134447 0.21410657
vn -0.268586 0.26930633 0.9248436
vn -0.96203595 -0.028994652 0.27137846
vn -0.2810496 0.4347065 0.85559416
vn -0.70482844 -0.12483896 -0.6983066
vn -0.6943773 -0.29905218 -0.6545289
vn 0.24603066 -0.096351445 -0.96446115
vn 0.26744246 -0.2705131 -0.9248228
vn -0.2799828 0.7965867 0.5357792
vn -0.82401896 0.56598073 0.025662342
vn -0.6155236 0.35584742 -0.70320934
vn 0.1407292 0.3770642 -0.9154331
vn -0.11284037 0.9464555 -0.3024718
vn 0.6959145 0.28292358 0.66004336
vn 0.6675444 0.44805798 0.5946668
vn 0.96301234 0.011176855 -0.2692252
vn 0.9313446 0.18233459 -0.31520042
vn 0.47375464 0.8185034 0.3249748
vn 0.685013 0.6074705 -0.40216517
vn -0.9668247 -0.0053273006 0.25538507
vn -0.26772785 0.2657828 0.9261109
vn -0.27321672 0.2993976 0.91417384
vn -0.9618735 -0.026963236 0.27216244
vn 0.6956728 0.29266924 0.6560366
vn 0.6965693 0.3222023 0.6410748
vn -0.6943715 -0.28424513 -0.66109973
vn -0.9618735 -0.026963236 0.27216244
vn -0.9668247 -0.0053273006 0.25538507
vn -0.69799304 -0.2930477 -0.6533979
vn 0.26541123 -0.26130822 -0.928049
vn 0.26794302 -0.2658321 -0.92603445
vn 0.95867044 0.040905252 -0.28156298
vn 0.9629962 0.027373957 -0.26812112
vn 0.6965693 0.3222023 0.6410748
vn 0.6956728 0.29266924 0.6560366
vn -0.9641783 0.027796619 0.26379448
vn -0.27321672 0.2993976 0.91417384
vn -0.273507 0.33765894 0.9006555
vn -0.9668247 -0.0053273006 0.25538507
vn 0.679931 0.35677278 0.6406301
vn 0.6965693 0.3222023 0.6410748
vn -0.7053544 -0.27550912 -0.6531231
vn -0.9668247 -0.0053273006 0.25538507
vn -0.9641783 0.027796619 0.26379448
vn -0.6943715 -0.28424513 -0.66109973
vn 0.26829362 -0.26108727 -0.92728204
vn 0.26541123 -0.26130822 -0.928049
vn 0.95867044 0.040905252 -0.28156298
vn 0.96099985 0.061466403 -0.26963142
vn 0.6965693 0.3222023 0.6410748
vn 0.679931 0.35677278 0.6406301
vt 0.3021 0.09490001
vt 0.3021 0.2605
vt 0.4814 0.115100026
vt 0.4814 0.115100026
vt 0.404752 0.018899977
vt 0.302 0.018899977
vt 0.404752 0.018899977
vt 0.6069 0.1703
vt 0.7317 0.30040002
vt 0.3021 0.2605
vt 0.53675 0.35369998
vt 0.302 0.5133
vt 0.4793 0.5071
vt 0.302 0.5133
vt 0.6069 0.1703
vt 0.7317 0.30040002
vt 0.3021 0.09490001
vt 0.466809 0.018899977
vt 0.302 0.018899977
vt 0.404752 0.018899977
vt 0.5514 0.5733
vt 0.4946 0.7056
vt 0.3022 0.9802
vt 0.53675 0.35369998
vt 0.3022 0.5145
vt 0.4796 0.5083
vt 0.4949 0.7068
vt 0.3022 0.5145
vt 0.5517 0.57449996
vt 0.466809 0.018899977
vt 0.7774 0.7106
vt 0.8644 0.5274
vt 0.8644 0.7106
vt 0.7774 0.5274
vt 0.6903 0.5274
vt 0.6903 0.7106
vt 0.6051 0.7106
vt 0.6903 0.5274
vt 0.6903 0.7106
vt 0.6051 0.5274
vt 0.7773 0.7106
vt 0.7773 0.5274
vt 0.8644 0.7106
vt 0.8644 0.5274
vt 0.9468 0.7106
vt 0.9468 0.5274
vt 0.5913 0.07260001
vt 0.5112 0.018899977
vt 0.5913 0.018899977
vt 0.5295 0.07260001
vt 0.66 0.07260001
vt 0.66 0.018899977
vt 0.7218 0.07260001
vt 0.7401 0.018899977
vt 0.5631 0.109700024
vt 0.5913 0.109700024
vt 0.66 0.109700024
vt 0.6882 0.109700024
vt 0.6256 0.14389998
vt 0.5913 0.018899977
vt 0.5913 0.07260001
vt 0.66 0.018899977
vt 0.66 0.07260001
vt 0.5913 0.109700024
vt 0.66 0.109700024
vt 0.151 0.018899977
vt 0.2616 0.9802
vt 0.2616 0.018899977
vt 0.151 0.9802
vt 0.151 0.9802
vt 0.151 0.018899977
vt 0.151 0.018899977
vt 0.0394 0.9802
vt 0.0394 0.018899977
vt 0.151 0.9802
vt 0.2616 0.018899977
vt 0.2616 0.9802
vt 0.151 0.018899977
vt 0.151 0.9802
vt 0.0394 0.018899977
vt 0.0394 0.9802
vt 0.6903 0.7106
vt 0.7773 0.5274
vt 0.7773 0.7106
vt 0.6903 0.5274
vt 0.8644 0.7106
vt 0.8644 0.5274
vt 0.6903 0.34399998
vt 0.6045 0.5272
vt 0.6045 0.34399998
vt 0.6903 0.5272
vt 0.7773 0.34399998
vt 0.7773 0.5272
vt 0.8644 0.5272
vt 0.8644 0.34399998
vt 0.9468 0.5272
vt 0.9468 0.34399998

g w_0
s 1
usemtl w_0
f 3/3/3 2/2/2 1/1/1 
f 2/2/2 4/4/4 1/1/1 
f 3/3/3 1/1/1 5/5/5 
f 6/6/6 5/5/5 1/1/1 
f 6/6/6 1/1/1 7/7/7 
f 4/4/4 7/7/7 1/1/1 
f 8/8/8 2/2/2 3/3/3 
f 9/9/9 2/2/2 8/8/8 
f 3/3/3 10/10/10 8/8/8 
f 8/8/8 10/10/10 9/9/9 
f 10/10/10 11/11/11 9/9/9 
f 11/11/11 2/2/2 9/9/9 
f 2/2/2 11/11/11 12/12/12 
f 13/13/13 12/12/12 11/11/11 
f 10/10/10 14/14/14 11/11/11 
f 13/13/13 11/11/11 14/14/14 
f 10/10/10 4/4/4 15/15/15 
f 15/15/15 4/4/4 2/2/2 
f 10/10/10 15/15/15 16/16/16 
f 2/2/2 16/16/16 15/15/15 
f 17/17/17 10/10/10 3/3/3 
f 17/17/17 4/4/4 10/10/10 
f 3/3/3 18/18/18 17/17/17 
f 18/18/18 3/3/3 5/5/5 
f 19/19/19 17/17/17 18/18/18 
f 19/19/19 20/20/20 17/17/17 
f 4/4/4 17/17/17 20/20/20 
f 21/21/21 12/12/12 13/13/13 
f 21/21/21 13/13/13 14/14/14 
f 22/22/22 12/12/12 21/21/21 
f 22/22/22 21/21/21 14/14/14 
f 23/23/23 12/12/12 22/22/22 
f 23/23/23 22/22/22 14/14/14 
f 24/24/24 10/10/10 16/16/16 
f 10/10/10 24/24/24 25/25/25 
f 26/26/26 25/25/25 24/24/24 
f 23/23/23 25/25/25 27/27/27 
f 23/23/23 27/27/27 28/28/28 
f 26/26/26 24/24/24 28/28/28 
f 28/28/28 29/29/29 26/26/26 
f 27/27/27 29/29/29 28/28/28 
f 27/27/27 25/25/25 29/29/29 
f 29/29/29 25/25/25 26/26/26 
f 2/2/2 28/28/28 24/24/24 
f 24/24/24 16/16/16 2/2/2 
f 30/30/30 4/4/4 20/20/20 
f 33/33/33 32/32/32 31/31/31 
f 34/34/34 31/31/31 32/32/32 
f 34/34/34 35/35/35 31/31/31 
f 36/36/36 31/31/31 35/35/35 
f 39/39/39 38/38/38 37/37/37 
f 40/40/40 37/37/37 38/38/38 
f 39/39/39 41/41/41 38/38/38 
f 42/42/42 38/38/38 41/41/41 
f 41/41/41 43/43/43 42/42/42 
f 44/44/44 42/42/42 43/43/43 
f 43/43/43 45/45/45 44/44/44 
f 46/46/46 44/44/44 45/45/45 
f 49/49/49 48/48/48 47/47/47 
f 50/50/50 47/47/47 48/48/48 
f 47/47/47 51/51/51 49/49/49 
f 52/52/52 49/49/49 51/51/51 
f 51/51/51 53/53/53 52/52/52 
f 54/54/54 52/52/52 53/53/53 
f 50/50/50 55/55/55 47/47/47 
f 56/56/56 47/47/47 55/55/55 
f 47/47/47 56/56/56 51/51/51 
f 57/57/57 51/51/51 56/56/56 
f 51/51/51 57/57/57 53/53/53 
f 58/58/58 53/53/53 57/57/57 
f 59/59/59 56/56/56 55/55/55 
f 59/59/59 57/57/57 56/56/56 
f 59/59/59 58/58/58 57/57/57 
f 48/48/48 60/60/60 50/50/50 
f 61/61/61 50/50/50 60/60/60 
f 50/50/50 61/61/61 55/55/55 
f 60/60/60 62/62/62 61/61/61 
f 54/54/54 53/53/53 62/62/62 
f 63/63/63 61/61/61 62/62/62 
f 63/63/63 62/62/62 53/53/53 
f 64/64/64 55/55/55 61/61/61 
f 61/61/61 63/63/63 64/64/64 
f 64/64/64 59/59/59 55/55/55 
f 65/65/65 64/64/64 63/63/63 
f 58/58/58 65/65/65 53/53/53 
f 63/63/63 53/53/53 65/65/65 
f 65/65/65 59/59/59 64/64/64 
f 58/58/58 59/59/59 65/65/65 
f 68/68/68 67/67/67 66/66/66 
f 69/69/69 66/66/66 67/67/67 
f 67/67/67 68/68/68 70/70/70 
f 71/71/71 70/70/70 68/68/68 
f 74/74/74 73/73/73 72/72/72 
f 75/75/75 72/72/72 73/73/73 
f 72/72/72 75/75/75 76/76/76 
f 77/77/77 76/76/76 75/75/75 
f 76/76/76 77/77/77 78/78/78 
f 79/79/79 78/78/78 77/77/77 
f 78/78/78 79/79/79 80/80/80 
f 81/81/81 80/80/80 79/79/79 
f 84/84/84 83/83/83 82/82/82 
f 85/85/85 82/82/82 83/83/83 
f 84/84/84 86/86/86 83/83/83 
f 87/87/87 83/83/83 86/86/86 
f 90/90/90 89/89/89 88/88/88 
f 91/91/91 88/88/88 89/89/89 
f 88/88/88 91/91/91 92/92/92 
f 93/93/93 92/92/92 91/91/91 
f 93/93/93 94/94/94 92/92/92 
f 95/95/95 92/92/92 94/94/94 
f 94/94/94 96/96/96 95/95/95 
f 97/97/97 95/95/95 96/96/96 

