# Created by DisUnity v0.3.4
v 0.029181868 0.35175458 -0.037823915
v -0.029971166 -3.6730293E-5 -0.043391824
v 0.030069053 1.597656E-4 -0.04229147
v -0.024693746 0.351579 -0.03788604
v 0.02827595 0.6851497 -0.015018825
v -0.02559971 0.68497336 -0.015081062
v 0.028113974 0.70380944 0.2613223
v -0.025761675 0.7036341 0.2612602
v 0.028025135 0.71675146 0.30151758
v -0.025850534 0.71657395 0.3014555
v -0.02608659 0.8366451 0.3015581
v 0.027789067 0.83682287 0.30162024
v 0.029965252 2.9561048E-5 0.048456218
v 0.029085394 0.35163346 0.050060123
v -0.024790274 0.3514579 0.049998336
v -0.030074924 -1.6695094E-4 0.047355976
v -0.025462173 0.61479497 0.06842784
v 0.02841359 0.614971 0.068489864
v 0.028331302 0.6391318 0.2578207
v -0.025544325 0.638955 0.25775883
v -0.02564514 0.63713795 0.350782
v 0.028230447 0.63731664 0.35084412
v -0.025802294 0.6686142 0.39720467
v 0.028073356 0.66879135 0.3972666
v -0.026196182 0.8365078 0.39737585
v 0.027679477 0.83668524 0.3974377
v -0.02608659 0.8366451 0.3015581
v -0.026196182 0.8365078 0.39737585
v -0.023030564 -0.34650654 0.049393374
v 0.030845184 -0.34632674 0.049455166
v -0.022303313 -0.6231584 0.06370614
v 0.031572327 -0.622979 0.063768126
v 0.03153899 -0.64133507 0.25307792
v -0.022336738 -0.64151365 0.25301608
v -0.022448624 -0.6399637 0.34604415
v 0.031427033 -0.6397871 0.34610617
v -0.022397688 -0.67157304 0.3923764
v 0.031478044 -0.6713949 0.39243835
v -0.02200375 -0.8288643 0.3922055
v 0.031871904 -0.8286865 0.3922673
v 0.03094165 -0.34620562 -0.034934416
v -0.02293404 -0.34638542 -0.03499649
v 0.031896923 -0.69292337 -0.018101063
v -0.021978715 -0.693102 -0.018163241
v 0.031748436 -0.7060226 0.25639433
v -0.022127232 -0.70620275 0.25633222
v 0.031745408 -0.71908003 0.29655233
v -0.022130258 -0.7192577 0.2964903
v -0.021894174 -0.82872677 0.29638773
v 0.03198154 -0.82854915 0.29644984
v -0.021894174 -0.82872677 0.29638773
v -0.02200375 -0.8288643 0.3922055
v -0.026196182 0.8365078 0.39737585
v -0.025850534 0.71657395 0.3014555
v -0.02608659 0.8366451 0.3015581
v -0.025802294 0.6686142 0.39720467
v -0.025761675 0.7036341 0.2612602
v -0.02564514 0.63713795 0.350782
v -0.025544325 0.638955 0.25775883
v -0.025462173 0.61479497 0.06842784
v -0.02559971 0.68497336 -0.015081062
v -0.024693746 0.351579 -0.03788604
v -0.024790274 0.3514579 0.049998336
v -0.029971166 -3.6730293E-5 -0.043391824
v -0.030074924 -1.6695094E-4 0.047355976
v -0.023030564 -0.34650654 0.049393374
v -0.02293404 -0.34638542 -0.03499649
v -0.021978715 -0.693102 -0.018163241
v -0.022303313 -0.6231584 0.06370614
v -0.022127232 -0.70620275 0.25633222
v -0.022336738 -0.64151365 0.25301608
v -0.022448624 -0.6399637 0.34604415
v -0.022397688 -0.67157304 0.3923764
v -0.022130258 -0.7192577 0.2964903
v -0.02200375 -0.8288643 0.3922055
v -0.021894174 -0.82872677 0.29638773
vn 0.70195705 0.0316091 -0.7115175
vn -0.7003341 -0.0048628813 -0.71379864
vn 0.71019727 -0.0012074686 -0.70400167
vn -0.6983707 0.034412313 -0.71490854
vn 0.5836164 0.57555974 -0.57282007
vn -0.58604515 0.5720693 -0.573836
vn 0.7336035 0.66759235 -0.12706868
vn -0.73750997 0.66307634 -0.12809707
vn 0.86552835 0.29698044 -0.40331545
vn -0.8665977 0.29215327 -0.40454265
vn -0.57814044 0.57647 -0.5774391
vn 0.5764939 0.5795804 -0.57596993
vn 0.7016311 0.0011841988 0.7125393
vn 0.71383274 -0.024214603 0.6998975
vn -0.7133759 -0.021749323 0.7004439
vn -0.71926695 -0.0024794876 0.69472945
vn -0.88002557 -0.32737532 0.34406438
vn 0.8813368 -0.32323527 0.34462222
vn 0.7263163 -0.6863426 0.03739564
vn -0.7215751 -0.69136506 0.0366589
vn -0.6426942 -0.7349066 0.21646346
vn 0.6470411 -0.7306426 0.21794309
vn -0.6150936 -0.37136137 0.6955219
vn 0.61568844 -0.36776614 0.69690436
vn -0.57955235 0.5750197 0.5774698
vn 0.57518625 0.5782367 0.5786218
vn -0.57814044 0.57647 -0.5774391
vn -0.57955235 0.5750197 0.5774698
vn -0.7115755 0.011109639 0.7025218
vn 0.71174586 0.021034662 0.7021221
vn -0.8881844 0.31653142 0.33307084
vn 0.88517755 0.32248652 0.3353552
vn 0.71783286 0.6956393 0.02831548
vn -0.7223153 0.6910296 0.027178332
vn -0.64752674 0.73002744 0.21856123
vn 0.64220834 0.7342688 0.22004053
vn -0.6173636 0.36596376 0.69637114
vn 0.6135326 0.36965048 0.6978082
vn -0.57640576 -0.5797439 0.5758935
vn 0.5782527 -0.57642734 0.5773694
vn 0.7052393 -0.023801325 -0.70856965
vn -0.70132565 -0.034105007 -0.7120246
vn 0.58500826 -0.5731101 -0.5738556
vn -0.5801413 -0.57679385 -0.5751042
vn 0.74067426 -0.66091955 -0.12077671
vn -0.73589504 -0.6659992 -0.12208061
vn 0.86737853 -0.29128033 -0.4034975
vn -0.864471 -0.2962481 -0.40611193
vn -0.5751672 -0.57825357 -0.5786237
vn 0.57958055 -0.5750461 -0.5774152
vn -0.5751672 -0.57825357 -0.5786237
vn -0.57640576 -0.5797439 0.5758935
vn -0.57955235 0.5750197 0.5774698
vn -0.8665977 0.29215327 -0.40454265
vn -0.57814044 0.57647 -0.5774391
vn -0.6150936 -0.37136137 0.6955219
vn -0.73750997 0.66307634 -0.12809707
vn -0.6426942 -0.7349066 0.21646346
vn -0.7215751 -0.69136506 0.0366589
vn -0.88002557 -0.32737532 0.34406438
vn -0.58604515 0.5720693 -0.573836
vn -0.6983707 0.034412313 -0.71490854
vn -0.7133759 -0.021749323 0.7004439
vn -0.7003341 -0.0048628813 -0.71379864
vn -0.71926695 -0.0024794876 0.69472945
vn -0.7115755 0.011109639 0.7025218
vn -0.70132565 -0.034105007 -0.7120246
vn -0.5801413 -0.57679385 -0.5751042
vn -0.8881844 0.31653142 0.33307084
vn -0.73589504 -0.6659992 -0.12208061
vn -0.7223153 0.6910296 0.027178332
vn -0.64752674 0.73002744 0.21856123
vn -0.6173636 0.36596376 0.69637114
vn -0.864471 -0.2962481 -0.40611193
vn -0.57640576 -0.5797439 0.5758935
vn -0.5751672 -0.57825357 -0.5786237
vt 0.14798915 0.594325
vt 0.01407063 0.81470007
vt 0.15031338 0.81418604
vt 0.01407063 0.599689
vt 0.13559544 0.370354
vt 0.01407063 0.347135
vt 0.42503995 0.25555098
vt 0.30666518 0.200275
vt 0.5272796 0.200234
vt 0.37014782 0.15595299
vt 0.4344027 0.06464201
vt 0.5688034 0.08392203
vt 0.38977444 0.809471
vt 0.38004255 0.585899
vt 0.5318746 0.59163296
vt 0.5347665 0.80899906
vt 0.5718979 0.46136802
vt 0.4138233 0.421048
vt 0.53692025 0.35156798
vt 0.65719056 0.40653002
vt 0.8440858 0.325087
vt 0.7496666 0.279189
vt 0.93581736 0.26064998
vt 0.8173553 0.22981799
vt 0.98834944 0.09710801
vt 0.83244836 0.088940024
vt 0.5688034 0.014254987
vt 0.83804786 0.014254987
vt 0.5318746 0.59163296
vt 0.38004255 0.585899
vt 0.5718979 0.46136802
vt 0.4138233 0.421048
vt 0.53692025 0.35156798
vt 0.65719056 0.40653002
vt 0.8440858 0.325087
vt 0.7496666 0.279189
vt 0.93581736 0.26064998
vt 0.8173553 0.22981799
vt 0.98834944 0.09710801
vt 0.83244836 0.088940024
vt 0.14798915 0.594325
vt 0.01407063 0.599689
vt 0.13559544 0.370354
vt 0.01407063 0.347135
vt 0.42503995 0.25555098
vt 0.30666518 0.200275
vt 0.5272796 0.200234
vt 0.37014782 0.15595299
vt 0.4344027 0.06464201
vt 0.5688034 0.08392203
vt 0.5688034 0.014254987
vt 0.83804786 0.014254987
vt 0.83244836 0.088940024
vt 0.5272796 0.200234
vt 0.5688034 0.08392203
vt 0.8173553 0.22981799
vt 0.42503995 0.25555098
vt 0.7496666 0.279189
vt 0.53692025 0.35156798
vt 0.4138233 0.421048
vt 0.13559544 0.370354
vt 0.14798915 0.594325
vt 0.38004255 0.585899
vt 0.15031338 0.81418604
vt 0.38977444 0.809471
vt 0.38004255 0.585899
vt 0.14798915 0.594325
vt 0.13559544 0.370354
vt 0.4138233 0.421048
vt 0.42503995 0.25555098
vt 0.53692025 0.35156798
vt 0.7496666 0.279189
vt 0.8173553 0.22981799
vt 0.5272796 0.200234
vt 0.83244836 0.088940024
vt 0.5688034 0.08392203

g xiao_bing_gong_02_w_0
s 1
usemtl xiao_bing_gong_02_w_0
f 3/3/3 2/2/2 1/1/1 
f 4/4/4 1/1/1 2/2/2 
f 1/1/1 4/4/4 5/5/5 
f 6/6/6 5/5/5 4/4/4 
f 5/5/5 6/6/6 7/7/7 
f 8/8/8 7/7/7 6/6/6 
f 7/7/7 8/8/8 9/9/9 
f 10/10/10 9/9/9 8/8/8 
f 10/10/10 11/11/11 9/9/9 
f 12/12/12 9/9/9 11/11/11 
f 3/3/3 1/1/1 13/13/13 
f 14/14/14 13/13/13 1/1/1 
f 1/1/1 5/5/5 14/14/14 
f 14/14/14 15/15/15 13/13/13 
f 16/16/16 13/13/13 15/15/15 
f 15/15/15 14/14/14 17/17/17 
f 18/18/18 17/17/17 14/14/14 
f 18/18/18 14/14/14 5/5/5 
f 5/5/5 7/7/7 18/18/18 
f 18/18/18 19/19/19 17/17/17 
f 19/19/19 18/18/18 7/7/7 
f 20/20/20 17/17/17 19/19/19 
f 20/20/20 19/19/19 21/21/21 
f 22/22/22 21/21/21 19/19/19 
f 22/22/22 19/19/19 7/7/7 
f 21/21/21 22/22/22 23/23/23 
f 24/24/24 23/23/23 22/22/22 
f 23/23/23 24/24/24 25/25/25 
f 26/26/26 25/25/25 24/24/24 
f 22/22/22 7/7/7 24/24/24 
f 9/9/9 24/24/24 7/7/7 
f 24/24/24 9/9/9 26/26/26 
f 12/12/12 26/26/26 9/9/9 
f 12/12/12 27/27/27 26/26/26 
f 28/28/28 26/26/26 27/27/27 
f 16/16/16 29/29/29 13/13/13 
f 30/30/30 13/13/13 29/29/29 
f 29/29/29 31/31/31 30/30/30 
f 32/32/32 30/30/30 31/31/31 
f 32/32/32 31/31/31 33/33/33 
f 34/34/34 33/33/33 31/31/31 
f 34/34/34 35/35/35 33/33/33 
f 36/36/36 33/33/33 35/35/35 
f 35/35/35 37/37/37 36/36/36 
f 38/38/38 36/36/36 37/37/37 
f 37/37/37 39/39/39 38/38/38 
f 40/40/40 38/38/38 39/39/39 
f 30/30/30 41/41/41 13/13/13 
f 3/3/3 13/13/13 41/41/41 
f 3/3/3 41/41/41 2/2/2 
f 42/42/42 2/2/2 41/41/41 
f 41/41/41 43/43/43 42/42/42 
f 41/41/41 30/30/30 43/43/43 
f 32/32/32 43/43/43 30/30/30 
f 44/44/44 42/42/42 43/43/43 
f 43/43/43 45/45/45 44/44/44 
f 33/33/33 45/45/45 32/32/32 
f 43/43/43 32/32/32 45/45/45 
f 36/36/36 38/38/38 45/45/45 
f 33/33/33 36/36/36 45/45/45 
f 46/46/46 44/44/44 45/45/45 
f 45/45/45 47/47/47 46/46/46 
f 47/47/47 45/45/45 38/38/38 
f 38/38/38 40/40/40 47/47/47 
f 48/48/48 46/46/46 47/47/47 
f 48/48/48 47/47/47 49/49/49 
f 50/50/50 49/49/49 47/47/47 
f 50/50/50 47/47/47 40/40/40 
f 50/50/50 40/40/40 51/51/51 
f 52/52/52 51/51/51 40/40/40 
f 55/55/55 54/54/54 53/53/53 
f 56/56/56 53/53/53 54/54/54 
f 54/54/54 57/57/57 56/56/56 
f 58/58/58 56/56/56 57/57/57 
f 57/57/57 59/59/59 58/58/58 
f 59/59/59 57/57/57 60/60/60 
f 61/61/61 60/60/60 57/57/57 
f 61/61/61 62/62/62 60/60/60 
f 63/63/63 60/60/60 62/62/62 
f 62/62/62 64/64/64 63/63/63 
f 65/65/65 63/63/63 64/64/64 
f 65/65/65 64/64/64 66/66/66 
f 67/67/67 66/66/66 64/64/64 
f 67/67/67 68/68/68 66/66/66 
f 69/69/69 66/66/66 68/68/68 
f 68/68/68 70/70/70 69/69/69 
f 71/71/71 69/69/69 70/70/70 
f 71/71/71 70/70/70 72/72/72 
f 72/72/72 70/70/70 73/73/73 
f 74/74/74 73/73/73 70/70/70 
f 73/73/73 74/74/74 75/75/75 
f 76/76/76 75/75/75 74/74/74 

