# Created by DisUnity v0.3.4
v 0.09504367 -0.14415154 0.20218757
v 0.10314714 -0.113839716 0.007359314
v 0.11358605 -0.19537708 0.033225175
v 0.084604755 -0.06261421 0.17632172
v 0.112596564 -0.19641395 0.030356044
v 0.102157645 -0.11487659 0.0044901846
v -0.005902204 -0.24992916 -0.090517156
v -0.016341114 -0.1683918 -0.116383016
v 0.053924613 -0.14187938 0.028572178
v 0.14771822 -0.8355539 0.36881167
v 0.054356858 -0.10729088 0.13743168
v 0.15714945 -0.9470431 0.2843989
v 0.082910284 -0.9034638 0.18089326
v -0.010451069 -0.1752008 -0.050486736
v 0.15976837 -0.92967635 0.39866987
v 0.13249315 -1.0166925 0.31824583
v 0.09496043 -0.99758625 0.21075147
v 0.029486895 0.11095718 -0.088194385
v -0.015490932 0.1209999 -0.038384512
v 0.050422974 0.13289535 -0.027487716
v 0.0054451367 0.14293808 0.022322157
v -0.06046876 0.13104263 0.011425361
v -0.081404835 0.10910446 -0.04928131
v -0.036426943 0.09906181 -0.09909099
v 0.045514315 0.17123641 -0.039650533
v -0.02039959 0.15934096 -0.05054733
v 0.024578238 0.14929825 -0.100357205
v 5.364799E-4 0.18127914 0.01015934
v -0.06537741 0.16938369 -7.3745725E-4
v -0.08631349 0.14744553 -0.06144413
v -0.0413356 0.13740288 -0.11125381
v 0.10314714 -0.113839716 0.007359314
v 0.045998946 -0.0632592 0.18986888
v -0.07249983 -0.1167744 0.068995684
v 0.084604755 -0.06261421 0.17632172
v -0.07348932 -0.11781128 0.066126555
v 0.102157645 -0.11487659 0.0044901846
v -0.054946925 -0.16903679 -0.10283584
v -0.016341114 -0.1683918 -0.116383016
v -0.062060907 -0.19831176 0.09486155
v 0.09504367 -0.14415154 0.20218757
v 0.11358605 -0.19537708 0.033225175
v 0.056437854 -0.14479657 0.21573475
v 0.112596564 -0.19641395 0.030356044
v -0.063050404 -0.19934864 0.091992415
v -0.005902204 -0.24992916 -0.090517156
v -0.044508018 -0.25057417 -0.07696998
v 0.13999571 -0.83568287 0.3715216
v -0.020006236 -0.14311463 0.054515302
v 0.04663435 -0.107419886 0.14014158
v 0.08321858 -0.9482783 0.31034204
v 0.14771822 -0.8355539 0.36881167
v 0.054356858 -0.10729088 0.13743168
v 0.07518778 -0.9035928 0.18360317
v -0.01817358 -0.17532982 -0.047776833
v -0.010451069 -0.1752008 -0.050486736
v 0.082910284 -0.9034638 0.18089326
v 0.15204586 -0.92980546 0.40137976
v 0.12567398 -1.0168064 0.32063872
v 0.15976837 -0.92967635 0.39866987
v 0.13249315 -1.0166925 0.31824583
v 0.08723792 -0.9977153 0.21346137
v 0.09496043 -0.99758625 0.21075147
v 0.15976837 -0.92967635 0.39866987
v 0.09496043 -0.99758625 0.21075147
v -0.043144416 0.1425988 -0.015048561
v 0.026679324 -0.102740936 0.07113638
v -0.010867023 -0.109516904 0.06492935
v -0.0055980682 0.1493747 -0.008841533
v -0.055070113 0.13010223 -0.049628545
v -0.022792721 -0.1220134 0.030349368
v -0.029449463 0.12438171 -0.07800154
v 0.0028279305 -0.12773399 0.0019763755
v 0.0054451367 0.14293808 0.022322157
v -0.06537741 0.16938369 -7.3745725E-4
v 5.364799E-4 0.18127914 0.01015934
v -0.06046876 0.13104263 0.011425361
v -0.08631349 0.14744553 -0.06144413
v -0.081404835 0.10910446 -0.04928131
v -0.0413356 0.13740288 -0.11125381
v -0.036426943 0.09906181 -0.09909099
v -0.07249983 -0.1167744 0.068995684
v 0.056437854 -0.14479657 0.21573475
v -0.062060907 -0.19831176 0.09486155
v 0.045998946 -0.0632592 0.18986888
v 0.084604755 -0.06261421 0.17632172
v 0.09504367 -0.14415154 0.20218757
v -0.063050404 -0.19934864 0.091992415
v -0.07348932 -0.11781128 0.066126555
v -0.044508018 -0.25057417 -0.07696998
v -0.054946925 -0.16903679 -0.10283584
v -0.016341114 -0.1683918 -0.116383016
v -0.005902204 -0.24992916 -0.090517156
v 0.026679324 -0.102740936 0.07113638
v 0.020022582 0.14365417 -0.037214525
v 0.05229997 -0.10846153 0.042763386
v -0.0055980682 0.1493747 -0.008841533
v 0.008096886 0.1311576 -0.07179451
v 0.04037427 -0.12095802 0.008183403
v -0.029449463 0.12438171 -0.07800154
v 0.0028279305 -0.12773399 0.0019763755
v 0.045514315 0.17123641 -0.039650533
v 0.0054451367 0.14293808 0.022322157
v 5.364799E-4 0.18127914 0.01015934
v 0.050422974 0.13289535 -0.027487716
v 0.024578238 0.14929825 -0.100357205
v 0.029486895 0.11095718 -0.088194385
v -0.0413356 0.13740288 -0.11125381
v -0.036426943 0.09906181 -0.09909099
vn 0.9871257 0.1466398 0.06387198
vn 0.9871365 0.08303825 -0.13662463
vn 0.9871365 0.083038285 -0.1366243
vn 0.9871257 0.14663982 0.06387198
vn 0.8580664 -0.05220941 -0.510878
vn 0.85806614 -0.052209556 -0.5108785
vn 0.7346964 -0.11787196 -0.66807747
vn 0.7346964 -0.11787196 -0.66807747
vn 0.9401481 0.012328957 -0.3405427
vn 0.9926167 0.11442689 -0.04023075
vn 0.9926117 0.114444815 -0.040304523
vn 0.94614685 -0.17120284 -0.27476484
vn 0.7906964 -0.0909415 -0.6054163
vn 0.7906579 -0.09100261 -0.60545737
vn 0.9993679 -0.030497348 -0.018269086
vn 0.8999286 -0.40137482 -0.17037271
vn 0.8150148 -0.22434078 -0.53424907
vn 0.12113407 -0.94616914 0.30015057
vn 0.12113412 -0.94616914 0.3001506
vn 0.12113415 -0.94616914 0.30015066
vn 0.12113413 -0.94616914 0.30015063
vn 0.12113413 -0.94616914 0.3001506
vn 0.12113415 -0.94616914 0.30015057
vn 0.12113409 -0.94616914 0.30015054
vn -0.12113415 0.94616914 -0.30015066
vn -0.12113413 0.94616914 -0.30015063
vn -0.12113407 0.94616914 -0.30015057
vn -0.12113416 0.94616914 -0.3001507
vn -0.12113416 0.94616914 -0.30015066
vn -0.12113415 0.94616914 -0.30015054
vn -0.1211341 0.94616914 -0.3001505
vn -0.12113575 0.94616777 -0.30015448
vn -0.121134005 0.94616926 -0.30015045
vn -0.12113583 0.94616777 -0.30015454
vn -0.121133484 0.9461694 -0.3001503
vn -0.121135786 0.94616777 -0.30015442
vn -0.12113575 0.94616777 -0.3001545
vn -0.12113409 0.94616914 -0.30015078
vn -0.121133775 0.9461691 -0.30015114
vn 0.121135674 -0.9461679 0.30015403
vn 0.12113447 -0.94616914 0.30015054
vn 0.1211359 -0.94616765 0.30015472
vn 0.12113447 -0.94616914 0.30015045
vn 0.1211359 -0.94616765 0.30015472
vn 0.121135674 -0.9461679 0.30015403
vn 0.12113447 -0.94616914 0.3001505
vn 0.1211345 -0.94616914 0.30015054
vn -0.3058158 0.2522973 0.91805387
vn -0.9466915 -0.019195966 0.32156917
vn -0.30601037 0.2524185 0.91795564
vn -0.9048202 -0.20212841 0.37475914
vn 0.30849487 0.32350743 0.8945244
vn 0.3084649 0.32372624 0.8944556
vn -0.7985892 -0.2726755 -0.53656626
vn -0.79846036 -0.27286574 -0.53666127
vn -0.3084649 -0.32372618 -0.8944556
vn -0.30849308 -0.32350734 -0.89452505
vn -0.19667901 -0.18425597 0.9629991
vn -0.33894172 -0.84663886 0.41026944
vn 0.32631063 -0.21936777 0.9194559
vn 0.11693028 -0.9504715 0.28797758
vn -0.6530442 -0.65829164 -0.3744133
vn -0.20316014 -0.7617307 -0.6152173
vn 0.32631063 -0.21936777 0.9194559
vn -0.20316014 -0.7617307 -0.6152173
vn -0.66281027 0.14799297 0.7340168
vn -0.20454825 0.2720944 0.940279
vn -0.66281044 0.14799283 0.7340166
vn -0.20454778 0.27209455 0.940279
vn -0.9713319 -0.17529587 -0.1605789
vn -0.971332 -0.17529579 -0.16057873
vn -0.7389226 -0.28785792 -0.60920537
vn -0.738923 -0.2878577 -0.60920507
vn -0.2045503 0.27209398 0.9402787
vn -0.66281116 0.14799269 0.73401606
vn -0.2045503 0.27209398 0.9402787
vn -0.6628113 0.14799258 0.73401594
vn -0.971332 -0.17529573 -0.16057882
vn -0.9713319 -0.17529584 -0.16057901
vn -0.7389226 -0.28785777 -0.6092054
vn -0.7389227 -0.2878578 -0.6092054
vn -0.8580656 0.05220983 0.5108791
vn -0.25386518 0.26279148 0.9308561
vn -0.8580663 0.05220945 0.510878
vn -0.25386518 0.26279142 0.9308561
vn 0.30852103 0.32328838 0.8945945
vn 0.3085208 0.3232884 0.89459455
vn -0.9871365 -0.083038315 0.13662447
vn -0.98713636 -0.08303794 0.13662565
vn -0.7717939 -0.27992794 -0.5709418
vn -0.7717941 -0.2799278 -0.57094157
vn -0.30852106 -0.3232883 -0.89459455
vn -0.30852082 -0.32328835 -0.89459455
vn 0.7389231 0.2878577 0.60920495
vn 0.9713319 0.17529587 0.16057895
vn 0.971332 0.17529568 0.1605785
vn 0.73892254 0.2878579 0.6092054
vn 0.66281027 -0.14799301 -0.7340168
vn 0.66281044 -0.14799288 -0.73401666
vn 0.2045478 -0.27209455 -0.940279
vn 0.2045483 -0.27209434 -0.940279
vn 0.97133225 0.1752955 0.1605778
vn 0.7389244 0.28785738 0.60920346
vn 0.7389244 0.28785738 0.60920346
vn 0.97133225 0.17529543 0.1605776
vn 0.66281027 -0.14799292 -0.73401684
vn 0.66281027 -0.14799292 -0.7340168
vn 0.20454757 -0.27209446 -0.9402791
vn 0.20454757 -0.2720945 -0.9402791
vt 0.789018 0.987476
vt 0.465884 0.907669
vt 0.465884 0.987587
vt 0.789018 0.907669
vt 0.459914 0.987621
vt 0.459923 0.907669
vt 0.134077 0.987869
vt 0.134076 0.907669
vt 0.300317 0.892729
vt 0.05504 0.17411
vt 0.05504 0.892729
vt 0.301902 0.14275002
vt 0.533908 0.17411
vt 0.533908 0.892729
vt 0.05504 0.086905
vt 0.300317 0.054363012
vt 0.533908 0.08652103
vt 0.727042 0.493182
vt 0.674734 0.534727
vt 0.622425 0.493182
vt 0.570116 0.532893
vt 0.622425 0.572603
vt 0.727042 0.572603
vt 0.779351 0.532893
vt 0.682045 0.43414003
vt 0.768645 0.371435
vt 0.855244 0.43414003
vt 0.595446 0.368398
vt 0.682045 0.302656
vt 0.855244 0.302656
vt 0.941843 0.368398
vt 0.89879 0.43873
vt 0.983419 0.555444
vt 0.89879 0.617761
vt 0.983419 0.501047
vt 0.89879 0.617761
vt 0.89879 0.43873
vt 0.812078 0.555444
vt 0.812078 0.50104797
vt 0.581937 0.746419
vt 0.743754 0.629117
vt 0.830085 0.746419
vt 0.668269 0.629117
vt 0.830081 0.746419
vt 0.581944 0.746419
vt 0.74367 0.866607
vt 0.668352 0.866606
vt 0.05504 0.17411
vt 0.300317 0.892729
vt 0.05504 0.892729
vt 0.301902 0.14275002
vt 0.031034 0.17411
vt 0.030973 0.892728
vt 0.533908 0.17411
vt 0.533908 0.892729
vt 0.557975 0.892728
vt 0.557918 0.17411
vt 0.05504 0.086905
vt 0.300317 0.054363012
vt 0.05504 0.042038023
vt 0.300317 0.014958024
vt 0.533908 0.08652103
vt 0.533908 0.041530013
vt 0.031499 0.08687103
vt 0.557485 0.08648902
vt 0.825197 0.273966
vt 0.9342 0.012187004
vt 0.825197 0.012188017
vt 0.934199 0.273966
vt 0.716195 0.273966
vt 0.716193 0.012187004
vt 0.607192 0.273966
vt 0.607193 0.012187004
vt 0.954558 0.64173996
vt 0.861266 0.721895
vt 0.861266 0.64172304
vt 0.954579 0.721895
vt 0.861266 0.802068
vt 0.954557 0.802051
vt 0.861266 0.882241
vt 0.954731 0.882295
vt 0.465884 0.907669
vt 0.789018 0.987476
vt 0.465884 0.987587
vt 0.789018 0.907669
vt 0.893585 0.907669
vt 0.893585 0.98749
vt 0.459914 0.987621
vt 0.459923 0.907669
vt 0.134077 0.987869
vt 0.134076 0.907669
vt 0.028087 0.907669
vt 0.028087 0.987885
vt 0.9342 0.012187004
vt 0.825197 0.273966
vt 0.825197 0.012188017
vt 0.934199 0.273966
vt 0.716195 0.273966
vt 0.716193 0.012187004
vt 0.607192 0.273966
vt 0.607193 0.012187004
vt 0.861266 0.721895
vt 0.954558 0.64173996
vt 0.861266 0.64172304
vt 0.954579 0.721895
vt 0.861266 0.802068
vt 0.954557 0.802051
vt 0.861266 0.882241
vt 0.954731 0.882295

g xiao_bing_dao_w_0
s 1
usemtl xiao_bing_dao_w_0
f 3/3/3 2/2/2 1/1/1 
f 4/4/4 1/1/1 2/2/2 
f 3/3/3 5/5/5 2/2/2 
f 6/6/6 2/2/2 5/5/5 
f 5/5/5 7/7/7 6/6/6 
f 8/8/8 6/6/6 7/7/7 
f 11/11/11 10/10/10 9/9/9 
f 12/12/12 9/9/9 10/10/10 
f 12/12/12 13/13/13 9/9/9 
f 14/14/14 9/9/9 13/13/13 
f 10/10/10 15/15/15 12/12/12 
f 16/16/16 12/12/12 15/15/15 
f 16/16/16 17/17/17 12/12/12 
f 13/13/13 12/12/12 17/17/17 
f 20/20/20 19/19/19 18/18/18 
f 21/21/21 19/19/19 20/20/20 
f 22/22/22 19/19/19 21/21/21 
f 23/23/23 19/19/19 22/22/22 
f 24/24/24 19/19/19 23/23/23 
f 18/18/18 19/19/19 24/24/24 
f 27/27/27 26/26/26 25/25/25 
f 25/25/25 26/26/26 28/28/28 
f 28/28/28 26/26/26 29/29/29 
f 29/29/29 26/26/26 30/30/30 
f 30/30/30 26/26/26 31/31/31 
f 31/31/31 26/26/26 27/27/27 
f 34/34/34 33/33/33 32/32/32 
f 35/35/35 32/32/32 33/33/33 
f 34/34/34 32/32/32 36/36/36 
f 37/37/37 36/36/36 32/32/32 
f 36/36/36 37/37/37 38/38/38 
f 39/39/39 38/38/38 37/37/37 
f 42/42/42 41/41/41 40/40/40 
f 43/43/43 40/40/40 41/41/41 
f 42/42/42 40/40/40 44/44/44 
f 45/45/45 44/44/44 40/40/40 
f 44/44/44 45/45/45 46/46/46 
f 47/47/47 46/46/46 45/45/45 
f 50/50/50 49/49/49 48/48/48 
f 51/51/51 48/48/48 49/49/49 
f 48/48/48 52/52/52 50/50/50 
f 53/53/53 50/50/50 52/52/52 
f 51/51/51 49/49/49 54/54/54 
f 55/55/55 54/54/54 49/49/49 
f 55/55/55 56/56/56 54/54/54 
f 57/57/57 54/54/54 56/56/56 
f 48/48/48 51/51/51 58/58/58 
f 59/59/59 58/58/58 51/51/51 
f 58/58/58 59/59/59 60/60/60 
f 61/61/61 60/60/60 59/59/59 
f 59/59/59 62/62/62 61/61/61 
f 54/54/54 57/57/57 62/62/62 
f 59/59/59 51/51/51 62/62/62 
f 54/54/54 62/62/62 51/51/51 
f 63/63/63 61/61/61 62/62/62 
f 52/52/52 48/48/48 64/64/64 
f 58/58/58 64/64/64 48/48/48 
f 65/65/65 62/62/62 57/57/57 
f 68/68/68 67/67/67 66/66/66 
f 69/69/69 66/66/66 67/67/67 
f 66/66/66 70/70/70 68/68/68 
f 71/71/71 68/68/68 70/70/70 
f 70/70/70 72/72/72 71/71/71 
f 73/73/73 71/71/71 72/72/72 
f 76/76/76 75/75/75 74/74/74 
f 77/77/77 74/74/74 75/75/75 
f 75/75/75 78/78/78 77/77/77 
f 79/79/79 77/77/77 78/78/78 
f 78/78/78 80/80/80 79/79/79 
f 81/81/81 79/79/79 80/80/80 
f 84/84/84 83/83/83 82/82/82 
f 85/85/85 82/82/82 83/83/83 
f 85/85/85 83/83/83 86/86/86 
f 87/87/87 86/86/86 83/83/83 
f 84/84/84 82/82/82 88/88/88 
f 89/89/89 88/88/88 82/82/82 
f 88/88/88 89/89/89 90/90/90 
f 91/91/91 90/90/90 89/89/89 
f 91/91/91 92/92/92 90/90/90 
f 93/93/93 90/90/90 92/92/92 
f 96/96/96 95/95/95 94/94/94 
f 97/97/97 94/94/94 95/95/95 
f 95/95/95 96/96/96 98/98/98 
f 99/99/99 98/98/98 96/96/96 
f 98/98/98 99/99/99 100/100/100 
f 101/101/101 100/100/100 99/99/99 
f 104/104/104 103/103/103 102/102/102 
f 105/105/105 102/102/102 103/103/103 
f 102/102/102 105/105/105 106/106/106 
f 107/107/107 106/106/106 105/105/105 
f 106/106/106 107/107/107 108/108/108 
f 109/109/109 108/108/108 107/107/107 

