# Created by DisUnity v0.3.4
v 0.0015752609 0.22397672 -0.06550402
v 0.06371108 -0.22867168 0.021013107
v 0.08716083 -0.20406577 0.087460145
v -0.006791083 0.21519181 -0.08922264
v 0.028378755 -0.24582283 0.03982903
v 0.051825274 -0.22122346 0.10627962
v -0.020411726 -0.22479476 0.04925994
v 0.003030013 -0.20018917 0.1157099
v -0.051645987 0.21178955 -0.07213648
v -0.043275356 0.22057444 -0.04841938
v -0.030647255 0.2307202 -0.08655367
v -0.02227814 0.23950087 -0.06283445
v -0.009855581 0.214917 -0.1104364
v -0.035850566 0.23158431 -0.10304158
v -0.06198151 0.2111966 -0.09066208
v -0.054227345 0.21913067 -0.068601355
v -0.027117662 -0.22924207 0.059019096
v -0.036779862 -0.23924689 0.031573508
v -0.028988417 0.23841892 -0.08366473
v -0.028988417 0.23841892 -0.08366473
v -0.0020205346 0.22284748 -0.08842141
v 0.06396067 -0.24271049 -0.0026756364
v 0.07365278 -0.2327004 0.024745764
v 0.021706935 -0.25973865 0.020068794
v 0.07365278 -0.2327004 0.024745764
v 0.030548807 -0.25046206 0.045127857
v -0.027117662 -0.22924207 0.059019096
v 0.030548807 -0.25046206 0.045127857
v -0.027117662 -0.22924207 0.059019096
v 0.07365278 -0.2327004 0.024745764
v -0.0020205346 0.22284748 -0.08842141
v -0.054227345 0.21913067 -0.068601355
v -0.028988417 0.23841892 -0.08366473
v 0.009361206 0.23507868 -0.055973437
v -0.042767443 0.23135543 -0.036206827
v -0.01909104 0.24916793 -0.055542815
v -0.050527114 0.22301285 -0.05811438
v -0.007308543 -0.20845893 0.115160815
v 0.0023606839 -0.1981818 0.14250311
v -0.025837662 0.24172458 -0.07473507
v -0.025837662 0.24172458 -0.07473507
v 0.0016927869 0.22674339 -0.07789737
v 0.10309332 -0.20165364 0.10823159
v 0.09346054 -0.2119187 0.080883615
v 0.05998267 -0.21958087 0.12854742
v 0.09346054 -0.2119187 0.080883615
v 0.0511408 -0.22885752 0.103488356
v -0.007308543 -0.20845893 0.115160815
v 0.0511408 -0.22885752 0.103488356
v 0.09346054 -0.2119187 0.080883615
v -0.007308543 -0.20845893 0.115160815
v 0.0016927869 0.22674339 -0.07789737
v -0.050527114 0.22301285 -0.05811438
v -0.025837662 0.24172458 -0.07473507
vn 0.7727192 0.45606193 -0.441489
vn 0.86105454 -0.49391437 -0.12096966
vn 0.861872 -0.4922561 -0.12190363
vn 0.77349967 0.45491523 -0.44130537
vn 0.11195653 -0.9441139 0.3100237
vn 0.11196564 -0.944115 0.3100172
vn -0.7330077 -0.5117921 0.44807202
vn -0.73421675 -0.5101816 0.44792902
vn -0.89770067 0.40830785 0.16558442
vn -0.897271 0.40947476 0.16503078
vn -0.14302154 0.9435233 -0.29884544
vn -0.14302683 0.94352204 -0.2988471
vn 0.38182288 0.2220582 -0.89716303
vn -0.2824193 0.6488409 -0.7065726
vn -0.87928396 0.18605037 -0.43845755
vn -0.4904974 0.5404629 0.68360233
vn -0.39750433 -0.24590412 0.884037
vn -0.7725762 -0.60439396 -0.19450925
vn 0.088297725 0.9411739 0.32618243
vn 0.088297725 0.9411739 0.32618243
vn 0.7899321 0.5749502 0.21316554
vn 0.48948982 -0.5900719 -0.64203966
vn 0.8723896 -0.23043601 0.43108666
vn -0.10083501 -0.95009744 -0.2952069
vn 0.8723896 -0.23043601 0.43108666
vn 0.28139883 -0.54718846 0.78828907
vn -0.39750433 -0.24590412 0.884037
vn 0.28139883 -0.54718846 0.78828907
vn -0.39750433 -0.24590412 0.884037
vn 0.8723896 -0.23043601 0.43108666
vn 0.7899321 0.5749502 0.21316554
vn -0.4904974 0.5404629 0.68360233
vn 0.088297725 0.9411739 0.32618243
vn 0.7623355 0.6212803 0.18126036
vn -0.49899775 0.5850351 0.639324
vn 0.03420651 0.9810354 0.19078645
vn -0.88799995 0.12341519 -0.44297266
vn -0.76264113 -0.6289951 -0.15080997
vn -0.38612804 -0.19894409 0.90073663
vn -0.3064875 0.5269765 -0.79269236
vn -0.3064875 0.5269765 -0.79269236
vn 0.39571917 0.16135465 -0.9040857
vn 0.87421435 -0.18642966 0.4483226
vn 0.50677884 -0.61402404 -0.60510296
vn 0.28094527 -0.5495451 0.7868099
vn 0.50677884 -0.61402404 -0.60510296
vn -0.10178687 -0.9492147 -0.29770952
vn -0.76264113 -0.6289951 -0.15080997
vn -0.10178687 -0.9492147 -0.29770952
vn 0.50677884 -0.61402404 -0.60510296
vn -0.76264113 -0.6289951 -0.15080997
vn 0.39571917 0.16135465 -0.9040857
vn -0.88799995 0.12341519 -0.44297266
vn -0.3064875 0.5269765 -0.79269236
vt 0.6721711 0.9469439
vt 0.5991872 0.52059484
vt 0.6721711 0.52111924
vt 0.5991872 0.94669837
vt 0.5991872 0.46473992
vt 0.6721711 0.46526432
vt 0.5991872 0.52059484
vt 0.6721711 0.52111924
vt 0.5991872 0.94669837
vt 0.6721711 0.9469439
vt 0.5991872 0.9814961
vt 0.6721711 0.9817415
vt 0.9034593 0.9328316
vt 0.84497523 0.95517546
vt 0.7893263 0.92775387
vt 0.70643866 0.9470446
vt 0.70643866 0.3575399
vt 0.7893263 0.349939
vt 0.72581667 0.97643614
vt 0.9603476 0.97997177
vt 0.974675 0.95227647
vt 0.9034593 0.3422538
vt 0.974675 0.35366404
vt 0.84953856 0.3313614
vt 0.9034593 0.2830689
vt 0.84953856 0.28135073
vt 0.7893263 0.2921468
vt 0.84953856 0.3313614
vt 0.7893263 0.349939
vt 0.9034593 0.3422538
vt 0.9034593 0.9328316
vt 0.7893263 0.92775387
vt 0.84497523 0.9552013
vt 0.9034593 0.9328316
vt 0.7893263 0.92775387
vt 0.84497523 0.95517546
vt 0.70643866 0.9470446
vt 0.70643866 0.3575399
vt 0.7893263 0.349939
vt 0.72581667 0.97643614
vt 0.9603476 0.97997177
vt 0.974675 0.95227647
vt 0.9034593 0.3422538
vt 0.974675 0.35366404
vt 0.84953856 0.3313614
vt 0.9034593 0.2830689
vt 0.84953856 0.28135073
vt 0.7893263 0.2921468
vt 0.84953856 0.3313614
vt 0.9034593 0.3422538
vt 0.7893263 0.349939
vt 0.9034593 0.9328316
vt 0.7893263 0.92775387
vt 0.84497523 0.9552013

g yuan_shao_3_w_1
s 1
usemtl yuan_shao_3_w_1
f 3/3/3 2/2/2 1/1/1 
f 4/4/4 1/1/1 2/2/2 
f 2/2/2 3/3/3 5/5/5 
f 6/6/6 5/5/5 3/3/3 
f 5/5/5 6/6/6 7/7/7 
f 8/8/8 7/7/7 6/6/6 
f 7/7/7 8/8/8 9/9/9 
f 10/10/10 9/9/9 8/8/8 
f 9/9/9 10/10/10 11/11/11 
f 12/12/12 11/11/11 10/10/10 
f 1/1/1 4/4/4 12/12/12 
f 11/11/11 12/12/12 4/4/4 
f 15/15/15 14/14/14 13/13/13 
f 15/15/15 16/16/16 14/14/14 
f 16/16/16 15/15/15 17/17/17 
f 18/18/18 17/17/17 15/15/15 
f 15/15/15 13/13/13 18/18/18 
f 19/19/19 14/14/14 16/16/16 
f 14/14/14 20/20/20 13/13/13 
f 21/21/21 13/13/13 20/20/20 
f 13/13/13 21/21/21 22/22/22 
f 22/22/22 18/18/18 13/13/13 
f 23/23/23 22/22/22 21/21/21 
f 24/24/24 18/18/18 22/22/22 
f 22/22/22 25/25/25 24/24/24 
f 26/26/26 24/24/24 25/25/25 
f 24/24/24 26/26/26 18/18/18 
f 27/27/27 18/18/18 26/26/26 
f 30/30/30 29/29/29 28/28/28 
f 31/31/31 29/29/29 30/30/30 
f 32/32/32 29/29/29 31/31/31 
f 33/33/33 32/32/32 31/31/31 
f 36/36/36 35/35/35 34/34/34 
f 35/35/35 36/36/36 37/37/37 
f 37/37/37 38/38/38 35/35/35 
f 39/39/39 35/35/35 38/38/38 
f 35/35/35 39/39/39 34/34/34 
f 40/40/40 37/37/37 36/36/36 
f 36/36/36 34/34/34 41/41/41 
f 42/42/42 41/41/41 34/34/34 
f 34/34/34 43/43/43 42/42/42 
f 43/43/43 34/34/34 39/39/39 
f 44/44/44 42/42/42 43/43/43 
f 39/39/39 45/45/45 43/43/43 
f 43/43/43 45/45/45 46/46/46 
f 47/47/47 46/46/46 45/45/45 
f 45/45/45 39/39/39 47/47/47 
f 48/48/48 47/47/47 39/39/39 
f 51/51/51 50/50/50 49/49/49 
f 51/51/51 52/52/52 50/50/50 
f 53/53/53 52/52/52 51/51/51 
f 54/54/54 52/52/52 53/53/53 

