# Created by DisUnity v0.3.4
v 0.16152103 1.0537379 -0.37530285
v 0.07480918 0.31094414 -0.07601699
v 0.17478815 1.0723934 -0.2999986
v 0.06434182 0.29053578 -0.14950165
v 0.014246323 0.33135268 -0.033102017
v 0.11142549 1.0945548 -0.25890315
v 0.21589832 1.2702104 -0.35167235
v 0.20390293 1.2528771 -0.47377956
v 0.12295734 1.3188299 -0.28569803
v 0.17410909 1.3697213 -0.40455192
v 0.0037789391 0.31094417 -0.10658661
v 0.09771198 1.0723934 -0.33317024
v 0.106978245 1.2702104 -0.39854884
v 0.03934524 0.26889712 0.028467597
v 0.030926408 0.35671228 0.08042316
v 0.072141714 0.314006 -0.015342838
v 0.022101589 0.32890445 0.082984865
v 0.024781885 0.33102667 -0.05758197
v -0.023252806 0.3701643 0.05402927
v -0.027796397 0.31545234 0.06458654
v -0.012124834 0.2518764 0.028172817
v 0.07482428 0.24574375 -0.0539699
v 0.02856524 0.2243389 -0.066372804
v 0.047117915 0.37004328 -0.10948095
v 0.099976785 0.35090044 -0.08001917
v 0.06795959 0.18662532 -0.15790772
v 0.10897569 0.21216373 -0.13332257
v 0.0953536 0.21511234 -0.22155926
v 0.14633107 0.2276849 -0.20566909
v 0.15738735 0.25367463 -0.21341573
v 0.11406669 0.2798464 -0.11275782
v 0.056252897 0.30538476 -0.13070658
v 0.10428757 0.26624712 -0.24231781
v -0.079666294 0.35671228 0.032826826
v -0.038450994 0.314006 -0.062939174
v -0.047721837 0.26889712 -0.009003895
v -0.075460106 0.32890445 0.04099676
v -0.012242803 0.24574375 -0.0914414
v -0.010615925 0.3509004 -0.12761551
v 0.04679462 0.25367466 -0.26101208
v 0.0034739708 0.2798464 -0.16035415
v 0.021908602 0.21216373 -0.17079407
v 0.048769347 0.2276849 -0.24765722
v 0.03449536 -0.23431484 0.048159827
v 0.026833152 0.005627554 0.06832416
v 0.06552459 -0.028654518 -0.025778886
v 0.002845378 -0.20629199 0.124803275
v 0.05219191 0.25560263 -0.02395778
v 0.083129786 0.23330429 -0.0992041
v 0.0036821675 -0.24693264 0.07651503
v -0.0064239167 -0.23736446 0.10066347
v -0.057210363 0.005742911 0.033579465
v -0.08395809 -0.20633991 0.08900278
v -0.052349687 -0.23436268 0.012342148
v -0.018550916 -0.028539006 -0.060536887
v 0.022333648 0.2335131 -0.124301516
v -0.008686614 0.25581172 -0.049089182
v -0.08395809 -0.20633991 0.08900278
v -0.060680877 -0.23741329 0.07887243
v -0.050540946 -0.24697964 0.05473672
v -0.052349687 -0.23436268 0.012342148
v -0.057210363 0.005742911 0.033579465
v -0.052349687 -0.23436268 0.012342148
v -0.018550916 -0.028539006 -0.060536887
v -0.08395809 -0.20633991 0.08900278
v -0.008686614 0.25581172 -0.049089182
v 0.022333648 0.2335131 -0.124301516
v -0.050540946 -0.24697964 0.05473672
v -0.060680877 -0.23741329 0.07887243
v 0.15944868 0.99524415 -0.2501581
v 0.1643286 1.0335689 -0.26149687
v 0.17005008 1.004165 -0.27479103
v 0.16351281 0.95282435 -0.25960132
v 0.19443686 1.0569248 -0.33145502
v 0.18643819 1.0857896 -0.3128697
v 0.2242515 1.1098444 -0.37715003
v 0.21197887 1.1150552 -0.34863392
v 0.21517256 1.1475706 -0.35605457
v 0.22785735 1.1579868 -0.38552845
v 0.21677741 1.1973432 -0.3597836
v 0.21128723 1.1690933 -0.34702685
v 0.2010841 1.2029468 -0.32331944
v 0.20251772 1.1770368 -0.3266504
v 0.18473561 1.158802 -0.2853328
v 0.1948038 1.1585798 -0.30872673
v 0.1919399 1.1385658 -0.3020723
v 0.18212332 1.1234185 -0.27926287
v 0.19143029 1.0998727 -0.30088812
v 0.19756497 1.1331844 -0.31514245
v 0.20787513 1.1199951 -0.3390987
v 0.21142791 1.1534233 -0.3473537
v 0.20058416 1.1618515 -0.3221577
v 0.22589393 1.2297618 -0.3660279
v 0.20437221 1.2382085 -0.31602105
v 0.2132533 1.2620019 -0.33665675
v 0.22100012 1.2126884 -0.3546569
v 0.22872257 1.1816543 -0.37260044
v 0.195395 1.2742556 -0.295162
v 0.19903404 1.2904457 -0.30361754
v 0.19582213 1.3098233 -0.29615453
v 0.07206138 0.99524415 -0.2877674
v 0.082662754 1.004165 -0.31240034
v 0.07694131 1.033569 -0.2991062
v 0.0761255 0.95282435 -0.29721066
v 0.107049555 1.0569248 -0.36906436
v 0.0990509 1.0857898 -0.350479
v 0.1197389 1.1098444 -0.42212963
v 0.10746626 1.1150552 -0.39361346
v 0.11065996 1.1475706 -0.4010342
v 0.12334474 1.1579868 -0.43050808
v 0.11226484 1.1973432 -0.40476322
v 0.10677465 1.1690933 -0.3920065
v 0.09657156 1.2029468 -0.36829898
v 0.09800513 1.1770368 -0.37163
v 0.08022305 1.1588019 -0.33031237
v 0.09029123 1.1585798 -0.3537063
v 0.08742732 1.1385657 -0.3470519
v 0.077610716 1.1234185 -0.3242425
v 0.08691768 1.0998727 -0.34586775
v 0.09305239 1.1331844 -0.36012203
v 0.103362545 1.1199951 -0.38407832
v 0.106915325 1.1534233 -0.39233333
v 0.096071586 1.1618515 -0.36713725
v 0.11053257 1.2297618 -0.41567653
v 0.08901089 1.2382085 -0.3656697
v 0.10563876 1.2126884 -0.40430552
v 0.09789196 1.2620019 -0.3863054
v 0.113361225 1.1816543 -0.4222491
v 0.08003366 1.2742556 -0.34481066
v 0.08367271 1.2904457 -0.35326618
v 0.08046083 1.3098233 -0.34580317
vn 0.36535123 -0.38192365 -0.8489127
vn 0.91870207 -0.0024250299 0.39494368
vn 0.91274863 -0.040786024 0.40648064
vn 0.37628123 -0.30658576 -0.8743099
vn -0.3770745 0.30028248 0.87615365
vn -0.38451192 0.23221749 0.89343476
vn 0.9258497 0.15992796 0.3423821
vn 0.3953182 -6.8110344E-4 -0.91854393
vn -0.3211596 0.58309 0.7462323
vn 0.12119896 0.951843 -0.2816125
vn -0.9183806 -0.002424937 -0.3956906
vn -0.92266643 -0.04078598 -0.38343614
vn -0.88512194 0.159928 -0.4370149
vn 0.54486823 -0.5790632 0.60646886
vn 0.45325896 0.57770705 0.6788305
vn 0.8571408 0.3550868 0.37312594
vn 0.21666162 -0.23521985 0.9474858
vn -0.09067483 0.97333896 0.21068792
vn -0.1765023 0.894793 0.4101129
vn -0.37712044 -0.29991373 0.8762602
vn -0.24151823 -0.79167217 0.561181
vn 0.6661311 -0.56636196 0.48528698
vn -0.12119907 -0.951843 0.2816126
vn 0.121198885 0.951843 -0.28161275
vn 0.7459993 0.65988284 0.08966475
vn 0.013456822 -0.9994204 -0.031267617
vn 0.65601075 -0.6696197 0.3482233
vn 0.23702815 -0.8003088 -0.5507482
vn 0.7244573 -0.6489606 -0.23240437
vn 0.90485066 0.20975995 -0.37046736
vn 0.94185394 0.2860643 0.17629033
vn 0.29820237 0.6564902 -0.6928897
vn 0.34977284 0.46599546 -0.8127159
vn -0.80458176 0.57770705 0.13748722
vn -0.86021566 0.35508695 -0.36598137
vn -0.8150066 -0.57906324 0.021212596
vn -0.83704054 -0.23521976 0.49399868
vn -0.810362 -0.5663619 -0.1501588
vn -0.57795256 0.65988255 -0.48013103
vn -0.35299027 0.20976008 -0.9118106
vn -0.77550256 0.28606424 -0.56281704
vn -0.7038642 -0.6696197 -0.23703295
vn -0.32924545 -0.6489606 -0.6858918
vn 0.7734725 -0.6002142 -0.20367438
vn 0.39497375 0.23859398 0.88716894
vn 0.90767384 -0.21394984 -0.36104545
vn 0.3095096 -0.17190555 0.9352284
vn 0.41779685 0.2765263 0.8654357
vn 0.9082275 -0.16823576 -0.3831704
vn 0.3193976 -0.92415076 0.2095963
vn 0.12677346 -0.7580704 0.63973254
vn -0.90326816 0.24706301 0.3508085
vn -0.8825806 -0.16440928 0.44047818
vn -0.40845013 -0.59506804 -0.6921435
vn -0.38706964 -0.20636049 -0.8986615
vn -0.3743626 -0.1636838 -0.9127214
vn -0.90496475 0.28107953 0.31942606
vn -0.8825806 -0.16440928 0.44047818
vn -0.5440005 -0.7546595 0.3668141
vn -0.37395617 -0.92457294 -0.072949015
vn -0.40845013 -0.59506804 -0.6921435
vn -0.90326816 0.24706301 0.3508085
vn -0.40845013 -0.59506804 -0.6921435
vn -0.38706964 -0.20636049 -0.8986615
vn -0.8825806 -0.16440928 0.44047818
vn -0.90496475 0.28107953 0.31942606
vn -0.3743626 -0.1636838 -0.9127214
vn -0.37395617 -0.92457294 -0.072949015
vn -0.5440005 -0.7546595 0.3668141
vn 0.91854405 0.0 0.3953187
vn 0.91854405 0.0 0.3953186
vn 0.91854405 -1.02825815E-7 0.39531863
vn 0.91854405 0.0 0.39531875
vn 0.89860183 -0.032713886 0.4375439
vn 0.8973518 -0.054309346 0.43796134
vn 0.9059831 -0.061237536 0.41886115
vn 0.89733434 -0.15270188 0.41409326
vn 0.91854423 0.0 0.39531836
vn 0.91854435 0.0 0.395318
vn 0.91854393 1.7525274E-7 0.395319
vn 0.91854376 3.7969045E-7 0.39531946
vn 0.91854393 5.5334783E-7 0.395319
vn 0.91854393 8.807113E-7 0.3953188
vn 0.9185438 8.354317E-7 0.39531913
vn 0.91854376 9.837764E-7 0.39531946
vn 0.91854405 4.913557E-7 0.39531875
vn 0.9185441 5.3152615E-7 0.39531836
vn 0.91854423 0.0 0.3953182
vn 0.9185441 0.0 0.3953185
vn 0.91854423 -5.806955E-7 0.39531827
vn 0.91854405 -2.2667182E-7 0.39531878
vn 0.9185438 4.1337842E-7 0.39531904
vn 0.9185438 -4.5198013E-7 0.395319
vn 0.91854405 0.0 0.39531863
vn 0.91854405 1.5593534E-7 0.3953186
vn 0.9185438 -6.466663E-7 0.39531916
vn 0.91854376 -4.8168266E-7 0.3953194
vn 0.9185441 2.174929E-7 0.3953185
vn 0.9185441 3.71311E-7 0.39531857
vn 0.91854405 4.279193E-7 0.3953187
vn -0.91854453 2.0353492E-7 -0.39531758
vn -0.91854435 4.3954807E-7 -0.39531782
vn -0.91854423 5.9063854E-7 -0.39531803
vn -0.9185444 1.1636817E-7 -0.39531764
vn -0.93550044 -0.03271341 -0.35180795
vn -0.9349444 -0.054309193 -0.3506131
vn -0.92700684 -0.061237317 -0.37001145
vn -0.9175984 -0.1527023 -0.36700836
vn -0.91854435 0.0 -0.39531794
vn -0.91854453 -1.1570659E-7 -0.39531755
vn -0.91854423 3.125174E-7 -0.3953181
vn -0.91854405 2.5960992E-7 -0.39531875
vn -0.91854423 6.1797317E-7 -0.39531836
vn -0.9185441 5.498876E-7 -0.39531842
vn -0.91854405 1.4199351E-7 -0.39531878
vn -0.91854393 -6.0394547E-7 -0.39531887
vn -0.91854405 3.5012388E-7 -0.3953188
vn -0.91854405 3.648411E-7 -0.39531878
vn -0.9185441 5.8413303E-7 -0.39531842
vn -0.91854423 7.3982346E-7 -0.39531818
vn -0.91854435 9.600041E-7 -0.3953179
vn -0.91854435 8.8327704E-7 -0.39531803
vn -0.91854423 7.496846E-7 -0.39531806
vn -0.9185441 3.6922836E-7 -0.39531857
vn -0.9185441 -1.581602E-7 -0.3953184
vn -0.91854405 5.157827E-7 -0.39531866
vn -0.9185441 -1.7446766E-7 -0.39531842
vn -0.91854393 3.571093E-7 -0.39531887
vn -0.91854405 2.206586E-7 -0.39531863
vn -0.91854405 4.787214E-7 -0.39531872
vn -0.91854405 4.868196E-7 -0.3953187
vt 0.4557758 0.24725747
vt 0.014602924 0.15257794
vt 0.36740056 0.15257931
vt 0.0146025885 0.2472558
vt 0.014603274 0.057924032
vt 0.45576853 0.05792582
vt 0.5807149 0.15258008
vt 0.6155352 0.28401637
vt 0.6155266 0.021117687
vt 0.7122031 0.15258056
vt 0.014602924 0.15257794
vt 0.36740056 0.15257931
vt 0.5807149 0.15258008
vt 0.87534475 0.078478456
vt 0.79629534 0.14113045
vt 0.9152415 0.15243107
vt 0.79941154 0.12262529
vt 0.9050592 0.23311853
vt 0.75309247 0.17560005
vt 0.7581541 0.08653748
vt 0.8466457 0.02310133
vt 0.9805754 0.08229864
vt 0.9805934 0.019842505
vt 0.9806084 0.27186596
vt 0.9805998 0.20553577
vt 0.846664 0.023189425
vt 0.8753418 0.07855159
vt 0.75830555 0.08641249
vt 0.799428 0.12275571
vt 0.79617965 0.1412695
vt 0.9151849 0.15245312
vt 0.90495986 0.2331239
vt 0.7528863 0.17545104
vt 0.79629534 0.14113045
vt 0.9152415 0.15243107
vt 0.87534475 0.078478456
vt 0.79941154 0.12262529
vt 0.9805754 0.08229864
vt 0.9805998 0.20553577
vt 0.79617965 0.1412695
vt 0.9151849 0.15245312
vt 0.8753418 0.07855159
vt 0.799428 0.12275571
vt 0.19859399 0.4739132
vt 0.29984215 0.7079228
vt 0.19262114 0.7079228
vt 0.30183536 0.4739132
vt 0.29257482 0.9780511
vt 0.19490719 0.9780511
vt 0.23918402 0.45549333
vt 0.26792815 0.45776808
vt 0.43261486 0.7079228
vt 0.46461383 0.4739132
vt 0.034575656 0.4739132
vt 0.061582968 0.7079228
vt 0.07776421 0.9780511
vt 0.4084681 0.9780511
vt 0.3242662 0.30474985
vt 0.2814152 0.29784405
vt 0.24546215 0.2952547
vt 0.1973276 0.29650235
vt 0.2996213 0.7079228
vt 0.19840832 0.4739132
vt 0.19237907 0.7079228
vt 0.30167258 0.4739132
vt 0.29249978 0.9780511
vt 0.19493592 0.9780511
vt 0.23918487 0.4551927
vt 0.26815987 0.45773292
vt 0.61774653 0.39783037
vt 0.57392114 0.40118074
vt 0.5976611 0.37441516
vt 0.6563671 0.36992753
vt 0.5188859 0.33385718
vt 0.49806163 0.36622012
vt 0.4432362 0.30135304
vt 0.45076522 0.33489025
vt 0.41455725 0.3401205
vt 0.39082053 0.3119474
vt 0.36253136 0.35644078
vt 0.39680767 0.35890728
vt 0.3731378 0.3989008
vt 0.39785412 0.38460797
vt 0.43475285 0.4226343
vt 0.42453036 0.39677954
vt 0.44774818 0.39590102
vt 0.47325623 0.41480792
vt 0.48741788 0.38133532
vt 0.447355 0.3793016
vt 0.44999856 0.34750932
vt 0.4124968 0.3521316
vt 0.41522378 0.38333607
vt 0.4906011 0.82484716
vt 0.5386801 0.8805491
vt 0.4952354 0.8853166
vt 0.51796937 0.81818885
vt 0.5249493 0.7697116
vt 0.53059244 0.9368729
vt 0.50721776 0.9453795
vt 0.49871674 0.9721249
vt 0.61774653 0.39783037
vt 0.5976611 0.37441516
vt 0.57392114 0.40118074
vt 0.6563671 0.36992753
vt 0.5188859 0.33385718
vt 0.49806163 0.36622012
vt 0.4432362 0.30135304
vt 0.45076522 0.33489025
vt 0.41455725 0.3401205
vt 0.39082053 0.3119474
vt 0.36253136 0.35644078
vt 0.39680767 0.35890728
vt 0.3731378 0.3989008
vt 0.39785412 0.38460797
vt 0.43475285 0.4226343
vt 0.42453036 0.39677954
vt 0.44774818 0.39590102
vt 0.47325623 0.41480792
vt 0.48741788 0.38133532
vt 0.447355 0.3793016
vt 0.44999856 0.34750932
vt 0.4124968 0.3521316
vt 0.41522378 0.38333607
vt 0.4906011 0.82484716
vt 0.5386801 0.8805491
vt 0.51796937 0.81818885
vt 0.4952354 0.8853166
vt 0.5249493 0.7697116
vt 0.53059244 0.9368729
vt 0.50721776 0.9453795
vt 0.49871674 0.9721249

g yuan_shao_3_w_0
s 1
usemtl yuan_shao_3_w_0
f 3/3/3 2/2/2 1/1/1 
f 4/4/4 1/1/1 2/2/2 
f 2/2/2 3/3/3 5/5/5 
f 6/6/6 5/5/5 3/3/3 
f 7/7/7 3/3/3 1/1/1 
f 7/7/7 6/6/6 3/3/3 
f 8/8/8 7/7/7 1/1/1 
f 9/9/9 6/6/6 7/7/7 
f 10/10/10 7/7/7 8/8/8 
f 10/10/10 9/9/9 7/7/7 
f 4/4/4 11/11/11 1/1/1 
f 12/12/12 1/1/1 11/11/11 
f 11/11/11 5/5/5 12/12/12 
f 6/6/6 12/12/12 5/5/5 
f 13/13/13 8/8/8 1/1/1 
f 6/6/6 9/9/9 13/13/13 
f 13/13/13 10/10/10 8/8/8 
f 9/9/9 10/10/10 13/13/13 
f 12/12/12 13/13/13 1/1/1 
f 6/6/6 13/13/13 12/12/12 
f 16/16/16 15/15/15 14/14/14 
f 17/17/17 14/14/14 15/15/15 
f 16/16/16 18/18/18 15/15/15 
f 19/19/19 15/15/15 18/18/18 
f 15/15/15 19/19/19 17/17/17 
f 20/20/20 17/17/17 19/19/19 
f 17/17/17 20/20/20 14/14/14 
f 21/21/21 14/14/14 20/20/20 
f 14/14/14 21/21/21 22/22/22 
f 22/22/22 16/16/16 14/14/14 
f 23/23/23 22/22/22 21/21/21 
f 18/18/18 16/16/16 24/24/24 
f 25/25/25 24/24/24 16/16/16 
f 25/25/25 16/16/16 22/22/22 
f 23/23/23 26/26/26 22/22/22 
f 27/27/27 22/22/22 26/26/26 
f 26/26/26 28/28/28 27/27/27 
f 29/29/29 27/27/27 28/28/28 
f 29/29/29 30/30/30 27/27/27 
f 31/31/31 27/27/27 30/30/30 
f 25/25/25 31/31/31 24/24/24 
f 31/31/31 25/25/25 22/22/22 
f 31/31/31 22/22/22 27/27/27 
f 31/31/31 30/30/30 32/32/32 
f 32/32/32 24/24/24 31/31/31 
f 33/33/33 32/32/32 30/30/30 
f 30/30/30 29/29/29 33/33/33 
f 28/28/28 33/33/33 29/29/29 
f 19/19/19 18/18/18 34/34/34 
f 35/35/35 34/34/34 18/18/18 
f 18/18/18 24/24/24 35/35/35 
f 35/35/35 36/36/36 34/34/34 
f 37/37/37 34/34/34 36/36/36 
f 34/34/34 37/37/37 19/19/19 
f 20/20/20 19/19/19 37/37/37 
f 37/37/37 36/36/36 20/20/20 
f 21/21/21 20/20/20 36/36/36 
f 36/36/36 38/38/38 21/21/21 
f 35/35/35 38/38/38 36/36/36 
f 23/23/23 21/21/21 38/38/38 
f 35/35/35 39/39/39 38/38/38 
f 39/39/39 35/35/35 24/24/24 
f 33/33/33 40/40/40 32/32/32 
f 41/41/41 32/32/32 40/40/40 
f 32/32/32 41/41/41 24/24/24 
f 39/39/39 24/24/24 41/41/41 
f 39/39/39 41/41/41 38/38/38 
f 41/41/41 40/40/40 42/42/42 
f 38/38/38 41/41/41 42/42/42 
f 43/43/43 42/42/42 40/40/40 
f 40/40/40 33/33/33 43/43/43 
f 28/28/28 43/43/43 33/33/33 
f 43/43/43 28/28/28 42/42/42 
f 26/26/26 42/42/42 28/28/28 
f 23/23/23 38/38/38 26/26/26 
f 42/42/42 26/26/26 38/38/38 
f 46/46/46 45/45/45 44/44/44 
f 47/47/47 44/44/44 45/45/45 
f 45/45/45 46/46/46 48/48/48 
f 49/49/49 48/48/48 46/46/46 
f 44/44/44 47/47/47 50/50/50 
f 51/51/51 50/50/50 47/47/47 
f 45/45/45 52/52/52 47/47/47 
f 53/53/53 47/47/47 52/52/52 
f 44/44/44 54/54/54 46/46/46 
f 55/55/55 46/46/46 54/54/54 
f 46/46/46 55/55/55 49/49/49 
f 56/56/56 49/49/49 55/55/55 
f 52/52/52 45/45/45 57/57/57 
f 48/48/48 57/57/57 45/45/45 
f 47/47/47 58/58/58 51/51/51 
f 59/59/59 51/51/51 58/58/58 
f 51/51/51 59/59/59 50/50/50 
f 60/60/60 50/50/50 59/59/59 
f 50/50/50 60/60/60 44/44/44 
f 61/61/61 44/44/44 60/60/60 
f 64/64/64 63/63/63 62/62/62 
f 65/65/65 62/62/62 63/63/63 
f 62/62/62 66/66/66 64/64/64 
f 67/67/67 64/64/64 66/66/66 
f 63/63/63 68/68/68 65/65/65 
f 69/69/69 65/65/65 68/68/68 
f 72/72/72 71/71/71 70/70/70 
f 73/73/73 72/72/72 70/70/70 
f 72/72/72 74/74/74 71/71/71 
f 75/75/75 71/71/71 74/74/74 
f 74/74/74 76/76/76 75/75/75 
f 77/77/77 75/75/75 76/76/76 
f 77/77/77 76/76/76 78/78/78 
f 79/79/79 78/78/78 76/76/76 
f 79/79/79 80/80/80 78/78/78 
f 81/81/81 78/78/78 80/80/80 
f 80/80/80 82/82/82 81/81/81 
f 83/83/83 81/81/81 82/82/82 
f 82/82/82 84/84/84 83/83/83 
f 85/85/85 83/83/83 84/84/84 
f 85/85/85 84/84/84 86/86/86 
f 87/87/87 86/86/86 84/84/84 
f 87/87/87 88/88/88 86/86/86 
f 89/89/89 86/86/86 88/88/88 
f 90/90/90 89/89/89 88/88/88 
f 90/90/90 91/91/91 89/89/89 
f 92/92/92 89/89/89 91/91/91 
f 95/95/95 94/94/94 93/93/93 
f 96/96/96 93/93/93 94/94/94 
f 97/97/97 93/93/93 96/96/96 
f 94/94/94 95/95/95 98/98/98 
f 99/99/99 98/98/98 95/95/95 
f 100/100/100 98/98/98 99/99/99 
f 103/103/103 102/102/102 101/101/101 
f 102/102/102 104/104/104 101/101/101 
f 102/102/102 103/103/103 105/105/105 
f 106/106/106 105/105/105 103/103/103 
f 105/105/105 106/106/106 107/107/107 
f 108/108/108 107/107/107 106/106/106 
f 108/108/108 109/109/109 107/107/107 
f 110/110/110 107/107/107 109/109/109 
f 110/110/110 109/109/109 111/111/111 
f 112/112/112 111/111/111 109/109/109 
f 111/111/111 112/112/112 113/113/113 
f 114/114/114 113/113/113 112/112/112 
f 113/113/113 114/114/114 115/115/115 
f 116/116/116 115/115/115 114/114/114 
f 116/116/116 117/117/117 115/115/115 
f 118/118/118 115/115/115 117/117/117 
f 118/118/118 117/117/117 119/119/119 
f 120/120/120 119/119/119 117/117/117 
f 120/120/120 121/121/121 119/119/119 
f 121/121/121 120/120/120 122/122/122 
f 123/123/123 122/122/122 120/120/120 
f 126/126/126 125/125/125 124/124/124 
f 127/127/127 124/124/124 125/125/125 
f 124/124/124 128/128/128 126/126/126 
f 125/125/125 129/129/129 127/127/127 
f 130/130/130 127/127/127 129/129/129 
f 129/129/129 131/131/131 130/130/130 

