# Created by DisUnity v0.3.4
v -0.059386235 0.50575066 -0.14515293
v -0.096911065 0.4449163 -0.13104016
v -0.10719995 0.49376616 -0.15803477
v -0.047930222 0.45631996 -0.11485996
v -0.067876756 0.4354187 -0.17269726
v -0.084578075 0.4841423 -0.21797153
v -0.053684693 0.5644326 -0.1261111
v -0.10451513 0.5695504 -0.14677547
v -0.07851641 0.5635412 -0.19691715
v -0.04894972 0.5929993 -0.11125759
v -0.13178867 0.6068015 -0.1603664
v -0.053889733 0.6246978 -0.12382603
v -0.09145635 0.59707284 -0.23219585
v -0.06700786 0.6459639 -0.16019657
v -0.07775215 0.6911827 -0.18866184
v -0.1315311 0.6561547 -0.20192806
v -0.1344192 0.6610025 -0.22560382
v -0.121731944 0.7075331 -0.2083794
v -0.08123343 0.7192546 -0.19724597
v -0.029768199 0.49505988 -0.18520641
v -0.019479293 0.44621003 -0.15821178
v -0.015400925 0.6087461 -0.20120814
v -0.027083358 0.5708441 -0.1739471
v -0.043034285 0.65763324 -0.23298259
v -0.055715654 0.6623175 -0.25322178
v -0.05623888 0.7086273 -0.23136166
v -0.096911065 0.4449163 -0.13104016
v -0.03049509 0.32013595 -0.07165871
v -0.07947593 0.3087323 -0.08783886
v -0.047930222 0.45631996 -0.11485996
v -0.067876756 0.4354187 -0.17269726
v -0.050441626 0.2992347 -0.12949596
v -0.019479293 0.44621003 -0.15821178
v -0.0020441818 0.31002602 -0.115010485
v -0.075547405 0.7572587 -0.1792329
v -0.08603695 0.80001193 -0.15420733
v -0.06425854 0.7993623 -0.14505802
v -0.102946624 0.76724255 -0.1842892
v -0.112249866 0.85498947 -0.23097095
v -0.09204987 0.8932511 -0.1852705
v -0.07581524 1.0480365 -0.16615146
v -0.10344974 0.97113425 -0.24856365
v -0.12090267 0.86098737 -0.3035441
v -0.12764324 0.7270664 -0.32912922
v -0.12809749 0.7125999 -0.27796748
v -0.12720554 0.56668425 -0.335518
v -0.12550144 0.5856221 -0.29340282
v -0.07901844 0.8957893 -0.18252857
v -0.08123343 0.7192546 -0.19724597
v -0.121731944 0.7075331 -0.2083794
v -0.1344192 0.6610025 -0.22560382
v -0.09145635 0.59707284 -0.23219585
v -0.1120834 0.5733595 -0.26439357
v -0.09244125 0.5066686 -0.2393069
v -0.094770655 0.57364875 -0.27046877
v -0.10278736 0.5860015 -0.30137348
v -0.08213799 0.8554926 -0.24153759
v -0.09489574 0.7131546 -0.28961834
v -0.070487745 0.8936114 -0.19283696
v -0.053000316 0.80056393 -0.16580029
v -0.05762312 0.76799977 -0.20019375
v -0.05623888 0.7086273 -0.23136166
v -0.055715654 0.6623175 -0.25322178
v 0.042493667 -0.24997161 0.10919494
v 0.07407783 -0.2978186 0.19692294
v 0.023362197 -0.30704606 0.1365493
v 0.032157935 -0.39082426 0.15762573
v 0.07054997 -0.36999434 0.18343312
v 0.04162182 -0.4069656 0.099235535
v 0.042882986 -0.34869903 0.10560375
v 0.023091849 -0.322386 0.050457228
v -0.0064871595 -0.26137528 0.093014754
v 0.05288727 -0.48539397 0.18465228
v 0.077473134 -0.4016644 0.20165431
v 0.088929124 -0.431212 0.27381217
v 0.068570286 -0.5791107 0.23706706
v 0.05354267 -0.5593872 0.17894356
v 0.07620895 -0.30616316 0.11800476
v 0.07094459 -0.26008147 0.06584312
v 0.02254713 -0.2708728 0.05135765
v 0.08500468 -0.3899414 0.1390812
v 0.08852601 -0.48479858 0.17214626
v 0.042302217 -0.54214174 0.094738424
v 0.086767726 -0.55880123 0.16715823
v 0.11182192 -0.57838804 0.2218896
v 0.11449253 -0.4307849 0.26484168
v 0.074504375 -0.7273709 0.24691856
v 0.06636324 -0.9812396 0.20205635
v 0.055440903 -0.7332788 0.16657421
v 0.10803553 -0.9024673 0.33413634
v 0.08908718 -1.2612756 0.31776762
v 0.13132939 -1.145084 0.4481518
v 0.15942232 -1.4546155 0.4796452
v 0.1630409 -1.2791008 0.53214
v 0.16783884 -1.6024526 0.40199915
v 0.12134024 -1.4444158 0.27701548
v 0.08810058 -1.2688305 0.1906517
v 0.18938957 -1.5222459 0.54302424
v 0.17542717 -1.405329 0.53207153
v 0.20875269 -1.6885061 0.51449513
v 0.212448 -1.6292953 0.57699704
v 0.06620077 -1.126813 0.13500503
v 0.045559596 -0.92507935 0.08578842
v 0.037832793 -0.7541331 0.0719083
v 0.2511721 -1.720913 0.63383585
v 0.14231 -1.2050772 0.5243376
v 0.18059643 -1.1148877 0.5899869
v 0.15279368 -1.0486698 0.478833
v 0.10363325 -0.98061675 0.18897788
v 0.16651893 -1.2599819 0.290596
v 0.15128715 -0.90174466 0.31895888
v 0.117756 -0.7266482 0.2317411
v 0.08261292 -0.7328247 0.15703923
v 0.21155475 -1.1437438 0.41999987
v 0.21851675 -1.4536282 0.45890826
v 0.24326627 -1.2777604 0.5039881
v 0.2367387 -1.5214547 0.52640885
v 0.23731425 -1.4042948 0.5103547
v 0.24315521 -1.6287823 0.5662215
v 0.25236702 -1.2032384 0.4857174
v 0.21110691 -1.0476956 0.45837027
v 0.2608218 -1.1135473 0.561835
v 0.11182192 -0.57838804 0.2218896
v 0.086767726 -0.55880123 0.16715823
v 0.042302217 -0.54214174 0.094738424
v 0.05354267 -0.5593872 0.17894356
v 0.068570286 -0.5791107 0.23706706
v 0.088929124 -0.431212 0.27381217
v 0.077473134 -0.4016644 0.20165431
v 0.11449253 -0.4307849 0.26484168
v 0.11182192 -0.57838804 0.2218896
v 0.068570286 -0.5791107 0.23706706
v 0.074504375 -0.7273709 0.24691856
v 0.117756 -0.7266482 0.2317411
v 0.10803553 -0.9024673 0.33413634
v 0.15128715 -0.90174466 0.31895888
v 0.21110691 -1.0476956 0.45837027
v 0.15279368 -1.0486698 0.478833
v 0.2608218 -1.1135473 0.561835
v 0.18059643 -1.1148877 0.5899869
v 0.25236702 -1.2032384 0.4857174
v 0.14231 -1.2050772 0.5243376
v 0.24326627 -1.2777604 0.5039881
v 0.1630409 -1.2791008 0.53214
v 0.23731425 -1.4042948 0.5103547
v 0.17542717 -1.405329 0.53207153
v 0.18938957 -1.5222459 0.54302424
v 0.2367387 -1.5214547 0.52640885
v 0.212448 -1.6292953 0.57699704
v 0.24315521 -1.6287823 0.5662215
v 0.2511721 -1.720913 0.63383585
v -0.0064871595 -0.26137528 0.093014754
v -0.03049509 0.32013595 -0.07165871
v 0.042493667 -0.24997161 0.10919494
v -0.07947593 0.3087323 -0.08783886
v 0.02254713 -0.2708728 0.05135765
v -0.050441626 0.2992347 -0.12949596
v 0.07094459 -0.26008147 0.06584312
v -0.0020441818 0.31002602 -0.115010485
vn 0.3297197 0.05710082 0.9423505
vn -0.93227005 0.015234361 0.36144212
vn -0.9570291 -0.085876465 0.2769848
vn 0.29188234 0.43373665 0.8524537
vn -0.28362772 -0.47849125 -0.83102435
vn -0.31501234 -0.26805758 -0.9104463
vn 0.313948 -0.36274058 0.8774143
vn -0.83472234 -0.27051854 0.47964403
vn -0.30737102 -0.3322015 -0.89172035
vn 0.33136952 -0.023387654 0.9432111
vn -0.9330488 -0.077420406 0.3513204
vn 0.24824502 0.62823987 0.73735267
vn -0.091629565 -0.9475455 -0.306205
vn 0.21811843 0.7225638 0.6559924
vn 0.2889138 0.45040253 0.8447877
vn -0.9411131 0.04544986 0.3350228
vn -0.98987037 -0.113292 0.085566774
vn -0.7991988 0.17822781 0.5740349
vn 0.33073154 -0.11017584 0.9372716
vn 0.922344 -0.05447748 -0.38250995
vn 0.95278066 0.046729885 -0.30004224
vn 0.9498209 -0.04596158 -0.30939895
vn 0.9590089 -0.24054913 -0.14979365
vn 0.9422784 0.07691437 -0.32587668
vn 0.8292031 -0.08290263 -0.552765
vn 0.9769108 0.20790163 -0.049215112
vn -0.93227005 0.015234361 0.36144212
vn 0.30851582 0.32328847 0.8945964
vn -0.9477708 -0.020365624 0.31830162
vn 0.29188234 0.43373665 0.8524537
vn -0.28362772 -0.47849125 -0.83102435
vn -0.30852705 -0.3232887 -0.8945924
vn 0.95278066 0.046729885 -0.30004224
vn 0.93898356 0.011157829 -0.34378102
vn 0.28499663 -0.5485135 0.7860725
vn -0.62280273 -0.08724286 0.77749944
vn 0.32997012 -0.13895541 0.9337083
vn -0.7585748 -0.17077719 0.628808
vn -0.97011805 0.06754557 0.23304188
vn -0.699833 0.09528412 0.7079228
vn 0.11261883 0.92418826 0.36495626
vn -0.2540969 0.6757723 -0.69192964
vn -0.31916863 0.3125952 -0.8946596
vn -0.3279489 0.18933561 -0.9255277
vn -0.99617034 0.0788922 0.03769007
vn -0.21047662 -0.7431477 -0.6351623
vn -0.77152103 -0.61917883 0.14619407
vn 0.32740265 0.11134843 0.9383011
vn 0.33073154 -0.11017584 0.9372716
vn -0.7991988 0.17822781 0.5740349
vn -0.98987037 -0.113292 0.085566774
vn -0.091629565 -0.9475455 -0.306205
vn -0.9001937 -0.43429706 0.032208536
vn 0.09797751 -0.9674928 0.23314825
vn 0.7354436 -0.4069844 -0.54174393
vn 0.71174943 -0.5943955 -0.37430826
vn 0.90054166 0.09880346 -0.42339393
vn 0.79848653 0.10888119 -0.59208465
vn 0.98548687 0.12344189 0.1165233
vn 0.97427547 -0.060555886 0.21707256
vn 0.9898115 -0.14156045 0.015289992
vn 0.9769108 0.20790163 -0.049215112
vn 0.8292031 -0.08290263 -0.552765
vn 0.2653004 0.56281126 0.7828533
vn 0.28906763 0.4495645 0.8451814
vn -0.9106531 0.06102513 0.40864015
vn -0.93537027 -0.06809018 0.34705377
vn 0.3281804 0.09531965 0.93979347
vn -0.3182633 -0.2359201 -0.91817766
vn -0.3205359 -0.21094227 -0.9234501
vn -0.24707676 -0.63238454 -0.73419535
vn -0.9551538 -0.020816762 0.29537734
vn -0.96585786 0.016562238 0.25854287
vn 0.24146028 0.6515648 0.71913856
vn -0.32091743 0.382069 0.86662287
vn -0.5274623 -0.073465906 0.846396
vn -0.9824342 -0.023444012 0.18513088
vn 0.9640368 0.092348605 -0.24920844
vn 0.9304364 0.010687527 -0.36629748
vn -0.32545403 -0.14517036 -0.93434745
vn 0.948689 -0.036616545 -0.3140835
vn 0.9146853 0.048587587 -0.40123582
vn -0.33182508 0.0116811255 -0.94326854
vn 0.8831623 0.00845981 -0.46899122
vn 0.942177 -0.048893746 0.33152953
vn 0.78044146 0.40047073 0.4801399
vn -0.55081826 0.1759903 0.81585944
vn -0.97817683 -0.019043121 0.20689973
vn -0.9792462 -0.015182648 0.20210487
vn -0.5337462 0.41729063 0.73551583
vn -0.97930884 -0.08893071 0.18178423
vn -0.9566702 0.039626006 0.2884647
vn -0.94956154 -0.12508555 0.28755277
vn -0.43984097 0.02233202 0.897798
vn -0.18586569 -0.80187804 -0.5678429
vn -0.25600126 -0.59981215 -0.7580823
vn -0.29444727 -0.4187871 -0.8590217
vn -0.5105233 0.050988678 0.8583509
vn -0.42813376 -0.008338649 0.9036769
vn -0.14755948 -0.8744493 -0.46213052
vn -0.5696202 0.19173156 0.79923207
vn -0.32083264 -0.20740737 -0.9241475
vn -0.32742855 -0.11085485 -0.93835056
vn -0.33104444 -0.004589507 -0.94360393
vn 0.26095077 -0.65118694 0.71264315
vn -0.72476745 -0.25201848 0.64124775
vn -0.2654753 0.16475517 0.9499361
vn -0.5272639 0.59067535 0.61081535
vn 0.8930721 0.012220854 -0.4497474
vn 0.8803456 -0.057861034 -0.47079057
vn 0.863552 0.440636 0.2451893
vn 0.93424416 0.20080361 0.29473004
vn 0.89079535 0.015927717 -0.45412546
vn 0.9255039 0.071071774 -0.37201002
vn 0.9242865 -0.0937814 -0.36999935
vn 0.9034068 0.044776317 0.4264402
vn 0.93306375 0.07510463 0.351783
vn 0.8988598 0.01383416 0.43801802
vn 0.93806136 0.21691898 0.27016124
vn 0.97361904 -0.22364718 0.045254327
vn 0.7754379 0.6124362 0.1536815
vn 0.7956884 0.18248443 0.5775633
vn 0.942177 -0.048893746 0.33152953
vn 0.8831623 0.00845981 -0.46899122
vn -0.33182508 0.0116811255 -0.94326854
vn -0.9824342 -0.023444012 0.18513088
vn -0.5274623 -0.073465906 0.846396
vn -0.32091743 0.382069 0.86662287
vn 0.24146028 0.6515648 0.71913856
vn 0.78044146 0.40047073 0.4801399
vn 0.942177 -0.048893746 0.33152953
vn -0.5274623 -0.073465906 0.846396
vn -0.55081826 0.1759903 0.81585944
vn 0.93424416 0.20080361 0.29473004
vn -0.5337462 0.41729063 0.73551583
vn 0.863552 0.440636 0.2451893
vn 0.7754379 0.6124362 0.1536815
vn -0.5272639 0.59067535 0.61081535
vn 0.7956884 0.18248443 0.5775633
vn -0.2654753 0.16475517 0.9499361
vn 0.97361904 -0.22364718 0.045254327
vn -0.72476745 -0.25201848 0.64124775
vn 0.9034068 0.044776317 0.4264402
vn -0.43984097 0.02233202 0.897798
vn 0.8988598 0.01383416 0.43801802
vn -0.42813376 -0.008338649 0.9036769
vn -0.5105233 0.050988678 0.8583509
vn 0.93306375 0.07510463 0.351783
vn -0.5696202 0.19173156 0.79923207
vn 0.93806136 0.21691898 0.27016124
vn 0.26095077 -0.65118694 0.71264315
vn -0.9551538 -0.020816762 0.29537734
vn 0.30851582 0.32328847 0.8945964
vn 0.2653004 0.56281126 0.7828533
vn -0.9477708 -0.020365624 0.31830162
vn -0.32545403 -0.14517036 -0.93434745
vn -0.30852705 -0.3232887 -0.8945924
vn 0.9304364 0.010687527 -0.36629748
vn 0.93898356 0.011157829 -0.34378102
vt 0.1604 0.50670004
vt 0.104198456 0.4461975
vt 0.104198456 0.5066986
vt 0.1604 0.4462
vt 0.0323 0.4462
vt 0.0323 0.50670004
vt 0.206 0.5581
vt 0.14839935 0.57618713
vt 0.0797 0.5827
vt 0.2485 0.5812
vt 0.13329697 0.62098694
vt 0.244 0.61739993
vt 0.0359 0.62889993
vt 0.1914 0.6517
vt 0.1663 0.707
vt 0.09579849 0.683197
vt 0.05949974 0.69589233
vt 0.120399475 0.73509216
vt 0.1669 0.73809993
vt 0.104198456 0.5066986
vt 0.104198456 0.4461975
vt 0.13329697 0.62098694
vt 0.14839935 0.57618713
vt 0.09579849 0.683197
vt 0.05949974 0.69589233
vt 0.120399475 0.73509216
vt 0.1935997 0.3483963
vt 0.0435 0.05129999
vt 0.1935997 0.051299095
vt 0.0435 0.3484
vt 0.3352 0.3484
vt 0.3352 0.05129999
vt 0.1935997 0.3483963
vt 0.1935997 0.051299095
vt 0.7059 0.75609994
vt 0.6871948 0.71409607
vt 0.6584 0.71079993
vt 0.7348938 0.75068665
vt 0.8548889 0.68769836
vt 0.7810974 0.6422882
vt 0.8676 0.4935
vt 0.9492 0.5905
vt 0.9851 0.701
vt 0.9781 0.82229996
vt 0.8859863 0.82218933
vt 0.9236 0.9612
vt 0.8590851 0.934494
vt 0.7697 0.6385
vt 0.7243 0.79339993
vt 0.7625885 0.8090973
vt 0.78048706 0.85398865
vt 0.7399 0.9073
vt 0.7970886 0.93688965
vt 0.7159 0.9865
vt 0.7970886 0.93688965
vt 0.8590851 0.934494
vt 0.8548889 0.68769836
vt 0.8859863 0.82218933
vt 0.7810974 0.6422882
vt 0.6871948 0.71409607
vt 0.7348938 0.75068665
vt 0.7625885 0.8090973
vt 0.78048706 0.85398865
vt 0.611 0.99039996
vt 0.5306 0.9439
vt 0.61079407 0.9534912
vt 0.6168976 0.8999939
vt 0.5709 0.9045
vt 0.6772 0.9007
vt 0.6496 0.9333999
vt 0.7015 0.9605
vt 0.6476898 0.99038696
vt 0.6168976 0.83828735
vt 0.5619 0.8821
vt 0.4972 0.85069275
vt 0.59329224 0.7726898
vt 0.65509033 0.7960968
vt 0.61079407 0.9534912
vt 0.6476898 0.99038696
vt 0.6824 0.99039996
vt 0.6168976 0.8999939
vt 0.6168976 0.83828735
vt 0.7296 0.8226
vt 0.65509033 0.7960968
vt 0.59329224 0.7726898
vt 0.4972 0.85069275
vt 0.1724968 0.80189514
vt 0.49129486 0.68089294
vt 0.2647934 0.83799744
vt 0.2709961 0.6523895
vt 0.6803894 0.45939636
vt 0.42089844 0.45309448
vt 0.7181854 0.25569916
vt 0.47849274 0.32899475
vt 0.9476 0.20850003
vt 0.9065 0.3693
vt 0.8065 0.5185
vt 0.72358704 0.18009949
vt 0.61138916 0.2547989
vt 0.924 0.0959
vt 0.80088806 0.09789848
vt 0.7111 0.63119996
vt 0.5446 0.7746
vt 0.3747 0.88039994
vt 0.8626 0.014400005
vt 0.41199493 0.3789978
vt 0.2417984 0.39069366
vt 0.28159332 0.48889923
vt 0.49129486 0.68089294
vt 0.6803894 0.45939636
vt 0.2709961 0.6523895
vt 0.1724968 0.80189514
vt 0.2647934 0.83799744
vt 0.42089844 0.45309448
vt 0.7181854 0.25569916
vt 0.47849274 0.32899475
vt 0.72358704 0.18009949
vt 0.61138916 0.2547989
vt 0.80088806 0.09789848
vt 0.41199493 0.3789978
vt 0.28159332 0.48889923
vt 0.2417984 0.39069366
vt 0.022999763 0.892395
vt 0.06729889 0.9371948
vt 0.1228 0.9891
vt 0.06729889 0.9371948
vt 0.022999763 0.892395
vt 0.79888916 0.0074999332
vt 0.8398 0.026899993
vt 0.79888916 0.03809929
vt 0.7174988 0.03809929
vt 0.7174988 0.0074999332
vt 0.63749695 0.0074999332
vt 0.63749695 0.03809929
vt 0.53189087 0.0074999332
vt 0.53189087 0.03809929
vt 0.42049408 0.03809929
vt 0.42049408 0.0074999332
vt 0.3496933 0.03809929
vt 0.3496933 0.0074999332
vt 0.28689575 0.03809929
vt 0.28689575 0.0074999332
vt 0.24659729 0.03809929
vt 0.24659729 0.0074999332
vt 0.17969894 0.03809929
vt 0.17969894 0.0074999332
vt 0.1174984 0.0074999332
vt 0.1174984 0.03809929
vt 0.055599213 0.0074999332
vt 0.055599213 0.03809929
vt 0.025 0.02429998
vt 0.4999 0.059300005
vt 0.3767 0.19880003
vt 0.3767 0.059300005
vt 0.4999 0.19880003
vt 0.616 0.059300005
vt 0.616 0.19880003
vt 0.4999 0.059300005
vt 0.4999 0.19880003

g zhang_liao_5_w_0
s 1
usemtl zhang_liao_5_w_0
f 3/3/3 2/2/2 1/1/1 
f 4/4/4 1/1/1 2/2/2 
f 2/2/2 3/3/3 5/5/5 
f 6/6/6 5/5/5 3/3/3 
f 1/1/1 7/7/7 3/3/3 
f 8/8/8 3/3/3 7/7/7 
f 3/3/3 8/8/8 6/6/6 
f 9/9/9 6/6/6 8/8/8 
f 7/7/7 10/10/10 8/8/8 
f 11/11/11 8/8/8 10/10/10 
f 11/11/11 9/9/9 8/8/8 
f 10/10/10 12/12/12 11/11/11 
f 11/11/11 13/13/13 9/9/9 
f 12/12/12 14/14/14 11/11/11 
f 14/14/14 15/15/15 11/11/11 
f 16/16/16 11/11/11 15/15/15 
f 11/11/11 16/16/16 13/13/13 
f 17/17/17 13/13/13 16/16/16 
f 18/18/18 17/17/17 16/16/16 
f 16/16/16 15/15/15 18/18/18 
f 19/19/19 18/18/18 15/15/15 
f 6/6/6 20/20/20 5/5/5 
f 21/21/21 5/5/5 20/20/20 
f 20/20/20 1/1/1 21/21/21 
f 1/1/1 20/20/20 7/7/7 
f 4/4/4 21/21/21 1/1/1 
f 12/12/12 10/10/10 22/22/22 
f 13/13/13 22/22/22 9/9/9 
f 14/14/14 12/12/12 22/22/22 
f 14/14/14 22/22/22 15/15/15 
f 22/22/22 10/10/10 23/23/23 
f 23/23/23 7/7/7 20/20/20 
f 20/20/20 6/6/6 23/23/23 
f 9/9/9 23/23/23 6/6/6 
f 22/22/22 23/23/23 9/9/9 
f 7/7/7 23/23/23 10/10/10 
f 24/24/24 15/15/15 22/22/22 
f 24/24/24 22/22/22 13/13/13 
f 13/13/13 25/25/25 24/24/24 
f 25/25/25 26/26/26 24/24/24 
f 24/24/24 26/26/26 15/15/15 
f 19/19/19 15/15/15 26/26/26 
f 29/29/29 28/28/28 27/27/27 
f 30/30/30 27/27/27 28/28/28 
f 27/27/27 31/31/31 29/29/29 
f 32/32/32 29/29/29 31/31/31 
f 30/30/30 28/28/28 33/33/33 
f 34/34/34 33/33/33 28/28/28 
f 32/32/32 31/31/31 34/34/34 
f 33/33/33 34/34/34 31/31/31 
f 37/37/37 36/36/36 35/35/35 
f 38/38/38 35/35/35 36/36/36 
f 38/38/38 36/36/36 39/39/39 
f 40/40/40 39/39/39 36/36/36 
f 40/40/40 41/41/41 39/39/39 
f 41/41/41 42/42/42 39/39/39 
f 43/43/43 39/39/39 42/42/42 
f 43/43/43 44/44/44 39/39/39 
f 45/45/45 39/39/39 44/44/44 
f 39/39/39 45/45/45 38/38/38 
f 44/44/44 46/46/46 45/45/45 
f 47/47/47 45/45/45 46/46/46 
f 37/37/37 48/48/48 36/36/36 
f 40/40/40 36/36/36 48/48/48 
f 40/40/40 48/48/48 41/41/41 
f 35/35/35 38/38/38 49/49/49 
f 50/50/50 49/49/49 38/38/38 
f 50/50/50 38/38/38 45/45/45 
f 45/45/45 51/51/51 50/50/50 
f 45/45/45 47/47/47 51/51/51 
f 52/52/52 51/51/51 47/47/47 
f 47/47/47 53/53/53 52/52/52 
f 53/53/53 54/54/54 52/52/52 
f 53/53/53 47/47/47 55/55/55 
f 54/54/54 55/55/55 52/52/52 
f 54/54/54 53/53/53 55/55/55 
f 56/56/56 55/55/55 47/47/47 
f 55/55/55 56/56/56 52/52/52 
f 47/47/47 46/46/46 56/56/56 
f 57/57/57 43/43/43 42/42/42 
f 43/43/43 57/57/57 44/44/44 
f 42/42/42 41/41/41 57/57/57 
f 58/58/58 44/44/44 57/57/57 
f 56/56/56 46/46/46 58/58/58 
f 44/44/44 58/58/58 46/46/46 
f 41/41/41 59/59/59 57/57/57 
f 48/48/48 59/59/59 41/41/41 
f 59/59/59 60/60/60 57/57/57 
f 59/59/59 48/48/48 60/60/60 
f 61/61/61 57/57/57 60/60/60 
f 57/57/57 61/61/61 58/58/58 
f 61/61/61 60/60/60 35/35/35 
f 37/37/37 35/35/35 60/60/60 
f 37/37/37 60/60/60 48/48/48 
f 35/35/35 49/49/49 61/61/61 
f 62/62/62 61/61/61 49/49/49 
f 62/62/62 58/58/58 61/61/61 
f 63/63/63 58/58/58 62/62/62 
f 58/58/58 63/63/63 56/56/56 
f 52/52/52 56/56/56 63/63/63 
f 66/66/66 65/65/65 64/64/64 
f 66/66/66 67/67/67 65/65/65 
f 68/68/68 65/65/65 67/67/67 
f 67/67/67 66/66/66 69/69/69 
f 70/70/70 69/69/69 66/66/66 
f 71/71/71 70/70/70 66/66/66 
f 71/71/71 66/66/66 72/72/72 
f 72/72/72 66/66/66 64/64/64 
f 69/69/69 73/73/73 67/67/67 
f 67/67/67 74/74/74 68/68/68 
f 67/67/67 73/73/73 74/74/74 
f 73/73/73 75/75/75 74/74/74 
f 73/73/73 76/76/76 75/75/75 
f 77/77/77 76/76/76 73/73/73 
f 70/70/70 71/71/71 78/78/78 
f 70/70/70 78/78/78 69/69/69 
f 65/65/65 78/78/78 64/64/64 
f 78/78/78 79/79/79 64/64/64 
f 78/78/78 71/71/71 79/79/79 
f 71/71/71 80/80/80 79/79/79 
f 80/80/80 71/71/71 72/72/72 
f 68/68/68 81/81/81 65/65/65 
f 81/81/81 69/69/69 78/78/78 
f 74/74/74 81/81/81 68/68/68 
f 78/78/78 65/65/65 81/81/81 
f 82/82/82 69/69/69 81/81/81 
f 82/82/82 81/81/81 74/74/74 
f 77/77/77 73/73/73 83/83/83 
f 83/83/83 73/73/73 69/69/69 
f 83/83/83 69/69/69 82/82/82 
f 84/84/84 83/83/83 82/82/82 
f 85/85/85 84/84/84 82/82/82 
f 85/85/85 82/82/82 86/86/86 
f 86/86/86 82/82/82 74/74/74 
f 89/89/89 88/88/88 87/87/87 
f 90/90/90 87/87/87 88/88/88 
f 88/88/88 91/91/91 90/90/90 
f 92/92/92 90/90/90 91/91/91 
f 91/91/91 93/93/93 92/92/92 
f 94/94/94 92/92/92 93/93/93 
f 93/93/93 91/91/91 95/95/95 
f 96/96/96 95/95/95 91/91/91 
f 96/96/96 91/91/91 97/97/97 
f 93/93/93 95/95/95 98/98/98 
f 93/93/93 98/98/98 99/99/99 
f 99/99/99 94/94/94 93/93/93 
f 100/100/100 98/98/98 95/95/95 
f 101/101/101 98/98/98 100/100/100 
f 88/88/88 102/102/102 91/91/91 
f 97/97/97 91/91/91 102/102/102 
f 102/102/102 88/88/88 103/103/103 
f 88/88/88 89/89/89 103/103/103 
f 104/104/104 103/103/103 89/89/89 
f 105/105/105 101/101/101 100/100/100 
f 106/106/106 92/92/92 94/94/94 
f 106/106/106 107/107/107 92/92/92 
f 108/108/108 92/92/92 107/107/107 
f 109/109/109 102/102/102 103/103/103 
f 110/110/110 96/96/96 97/97/97 
f 96/96/96 110/110/110 95/95/95 
f 97/97/97 102/102/102 110/110/110 
f 109/109/109 110/110/110 102/102/102 
f 109/109/109 111/111/111 110/110/110 
f 111/111/111 109/109/109 112/112/112 
f 113/113/113 112/112/112 109/109/109 
f 109/109/109 103/103/103 113/113/113 
f 104/104/104 113/113/113 103/103/103 
f 114/114/114 110/110/110 111/111/111 
f 110/110/110 114/114/114 115/115/115 
f 116/116/116 115/115/115 114/114/114 
f 115/115/115 95/95/95 110/110/110 
f 115/115/115 117/117/117 95/95/95 
f 117/117/117 115/115/115 118/118/118 
f 116/116/116 118/118/118 115/115/115 
f 100/100/100 95/95/95 117/117/117 
f 117/117/117 119/119/119 100/100/100 
f 119/119/119 105/105/105 100/100/100 
f 114/114/114 120/120/120 116/116/116 
f 121/121/121 114/114/114 111/111/111 
f 121/121/121 122/122/122 114/114/114 
f 120/120/120 114/114/114 122/122/122 
f 112/112/112 113/113/113 123/123/123 
f 124/124/124 123/123/123 113/113/113 
f 124/124/124 113/113/113 125/125/125 
f 104/104/104 125/125/125 113/113/113 
f 104/104/104 89/89/89 125/125/125 
f 126/126/126 125/125/125 89/89/89 
f 126/126/126 89/89/89 127/127/127 
f 87/87/87 127/127/127 89/89/89 
f 92/92/92 108/108/108 90/90/90 
f 130/130/130 129/129/129 128/128/128 
f 130/130/130 128/128/128 131/131/131 
f 132/132/132 131/131/131 128/128/128 
f 132/132/132 133/133/133 131/131/131 
f 134/134/134 131/131/131 133/133/133 
f 133/133/133 135/135/135 134/134/134 
f 136/136/136 134/134/134 135/135/135 
f 136/136/136 135/135/135 137/137/137 
f 138/138/138 137/137/137 135/135/135 
f 137/137/137 138/138/138 139/139/139 
f 140/140/140 139/139/139 138/138/138 
f 139/139/139 140/140/140 141/141/141 
f 142/142/142 141/141/141 140/140/140 
f 141/141/141 142/142/142 143/143/143 
f 144/144/144 143/143/143 142/142/142 
f 143/143/143 144/144/144 145/145/145 
f 146/146/146 145/145/145 144/144/144 
f 146/146/146 147/147/147 145/145/145 
f 148/148/148 145/145/145 147/147/147 
f 147/147/147 149/149/149 148/148/148 
f 150/150/150 148/148/148 149/149/149 
f 149/149/149 151/151/151 150/150/150 
f 154/154/154 153/153/153 152/152/152 
f 155/155/155 152/152/152 153/153/153 
f 152/152/152 155/155/155 156/156/156 
f 157/157/157 156/156/156 155/155/155 
f 154/154/154 158/158/158 153/153/153 
f 159/159/159 153/153/153 158/158/158 
f 158/158/158 156/156/156 159/159/159 
f 157/157/157 159/159/159 156/156/156 

