# Created by DisUnity v0.3.4
v -0.011816878 0.3678479 -0.1129379
v -0.010843224 0.31905392 -0.034137774
v -0.04773118 0.49921453 -0.073511116
v -0.030403756 0.49590632 -0.14991543
v -0.031629585 0.57155997 -0.16580683
v -0.040037118 0.54266685 -0.06067334
v -0.04249297 0.5935132 -0.061076947
v -0.03247994 0.63135785 -0.17218158
v -0.13029368 0.52243686 -0.18332802
v -0.14561415 0.5825388 -0.20052116
v -0.093797 0.6375884 -0.19813159
v -0.109290086 0.48185316 -0.15737036
v -0.09415726 0.41067445 -0.14106211
v -0.096509136 0.72789985 -0.21948923
v -0.14994062 0.64669716 -0.20268305
v -0.13845359 0.74673444 -0.24611387
v -0.1570588 0.7612644 -0.20572563
v -0.12180629 0.76886076 -0.15783639
v -0.18197927 0.83019507 -0.23533791
v -0.18560082 0.7723068 -0.24351744
v -0.18357924 0.72706956 -0.2433783
v -0.03366723 0.69868773 -0.16899724
v -0.06082193 0.62601525 -0.08389543
v -0.07013629 0.66578853 -0.09416373
v -0.004819822 0.75102323 -0.11372163
v -0.049984306 0.69265723 -0.06550221
v -0.01615625 0.6593029 -0.02186809
v -0.015552608 0.7603288 -0.015288805
v -0.0404908 0.8989803 -0.13731512
v -0.027172484 0.87639034 -0.024306068
v -0.052427914 0.76310325 -0.15663931
v -0.051611617 0.9972354 -0.050307114
v -0.111100525 1.0860851 -0.19849089
v -0.14590338 0.86921054 -0.18454689
v -0.17138916 1.0421308 -0.20898432
v -0.19881569 1.2118083 -0.28956482
v -0.25374335 1.1885244 -0.31149006
v -0.25199997 1.3254765 -0.33814573
v -0.28822482 1.3256953 -0.35007778
v -0.1200719 0.82067066 -0.15254429
v -0.20052393 1.2445652 -0.23664925
v -0.249039 1.3385713 -0.29659235
v -0.109925985 1.1297928 -0.1212411
v -0.29550815 1.5105008 -0.34933335
v -0.28721026 1.3239836 -0.31198972
v -0.24982883 1.2096452 -0.25166956
v -0.18107523 1.083118 -0.14650999
v -0.13264751 0.8950725 -0.06885624
v -0.11225776 0.7464676 -0.03391104
v -0.14028026 0.759378 -0.09137791
v -0.15397191 0.69358647 -0.07962858
v -0.15368286 0.6262185 -0.08214563
v -0.18579589 0.72411376 -0.15316227
v -0.16122152 0.6347294 -0.14804508
v -0.20023362 0.7441148 -0.20022038
v -0.14456697 0.5667711 -0.08191093
v -0.12559293 0.49187002 -0.07920387
v -0.08858201 0.36459285 -0.055912685
v 0.04439581 0.013864345 0.02280227
v -0.033366296 0.4350789 -0.1231114
v 0.053640865 0.0042661275 -0.030577047
v -0.04261136 0.4446771 -0.06973208
v -0.0865442 0.42283374 -0.13011964
v 4.629755E-4 -0.007979009 -0.03758529
v -0.09578926 0.43243197 -0.07674032
v -0.008782079 0.0016192071 0.015794022
v -0.09415726 0.41067445 -0.14106211
v -0.010843224 0.31905392 -0.034137774
v -0.011816878 0.3678479 -0.1129379
v -0.08858201 0.36459285 -0.055912685
v 0.13344093 -0.35870844 0.041129746
v 0.055702124 -0.31316948 0.019354848
v 0.09259008 -0.49333015 0.05872819
v 0.17045183 -0.48598564 0.06442094
v 0.18942589 -0.56088674 0.067128
v 0.08489602 -0.5367825 0.045890417
v 0.087351866 -0.58762884 0.04629401
v 0.19854175 -0.6203341 0.067362696
v 0.17515258 -0.51655245 0.16854507
v 0.19047303 -0.5766544 0.18573822
v 0.2060804 -0.62884504 0.13326214
v 0.15414898 -0.47596878 0.14258742
v 0.13901617 -0.40479007 0.12627919
v 0.2306548 -0.71822935 0.13837934
v 0.19479951 -0.64081275 0.18790013
v 0.24509254 -0.7382304 0.18543743
v 0.20191771 -0.75538 0.19094269
v 0.16666518 -0.76297635 0.14305346
v 0.22683816 -0.82431066 0.220555
v 0.2304597 -0.7664224 0.22873452
v 0.22843812 -0.72118515 0.22859536
v 0.19883081 -0.68770206 0.064845644
v 0.10568082 -0.6201309 0.0691125
v 0.11499519 -0.65990424 0.079380825
v 0.15711667 -0.7405832 0.019128114
v 0.094843194 -0.6867728 0.05071927
v 0.061015155 -0.6534185 0.007085156
v 0.06041151 -0.7544444 5.058801E-4
v 0.1775064 -0.8891881 0.054073304
v 0.07203138 -0.870506 0.009523125
v 0.18513915 -0.7534936 0.07659497
v 0.09647053 -0.991351 0.035524182
v 0.22593412 -1.0772336 0.13172704
v 0.19076227 -0.8633262 0.16976394
v 0.21624805 -1.0362464 0.1942014
v 0.29468772 -1.2037607 0.2368866
v 0.29860222 -1.18264 0.2967071
v 0.33206916 -1.3180991 0.2972068
v 0.33308372 -1.3198109 0.33529484
v 0.16493079 -0.81478626 0.13776135
v 0.24538282 -1.2386808 0.2218663
v 0.2938979 -1.3326869 0.28180945
v 0.15478487 -1.1239084 0.10645816
v 0.34036705 -1.5046164 0.33455038
v 0.29685888 -1.3195921 0.3233628
v 0.24367458 -1.2059239 0.27478188
v 0.15595943 -1.0802007 0.18370794
v 0.085349694 -0.8930959 0.1225322
v 0.04967873 -0.7451388 0.09893871
v 0.09728681 -0.75721884 0.14185637
v 0.078526124 -0.6928033 0.15421432
v 0.077338845 -0.62547344 0.15739864
v 0.14136803 -0.72201544 0.20470628
v 0.13865589 -0.63170403 0.18334867
v 0.18331249 -0.74085003 0.23133092
v 0.076488495 -0.5656756 0.1510239
v 0.07526265 -0.4900219 0.1351325
v 0.056675777 -0.36196348 0.098154955
v 4.630804E-4 -0.00797994 -0.0375852
v 0.14064816 -0.4265476 0.06195738
v 0.053640977 0.0042651994 -0.03057695
v 0.087470256 -0.4387927 0.054949146
v 0.13140309 -0.41694933 0.1153367
v 0.044395924 0.013863415 0.02280236
v 0.07822519 -0.42919448 0.10832846
v -0.008781971 0.001618279 0.015794117
v 0.13901617 -0.40479007 0.12627919
v 0.055702124 -0.31316948 0.019354848
v 0.13344093 -0.35870844 0.041129746
v 0.056675777 -0.36196348 0.098154955
vn 0.9710971 0.12611362 -0.20264712
vn 0.56380254 0.2848619 0.7752293
vn 0.5930021 0.06916735 0.8022247
vn 0.8118352 -0.14608616 -0.56531614
vn 0.822461 -0.13928413 -0.55150497
vn 0.5969459 -0.04398906 0.8010747
vn 0.56636596 0.27207175 0.77795017
vn 0.9011739 0.028518893 -0.43251857
vn -0.53203964 -0.41199082 -0.7397279
vn -0.566608 -0.27083492 -0.7782055
vn 0.273174 -0.14181826 -0.95145345
vn -0.5321335 -0.41167426 -0.73983663
vn -0.5484283 -0.35225716 -0.7583806
vn 0.46381342 0.292522 -0.83624625
vn -0.5597314 -0.30412644 -0.7708488
vn 0.4680157 0.22537877 -0.8544973
vn 0.23963912 0.8960421 0.37374026
vn -0.39951158 0.77242184 -0.49371544
vn -0.1376416 0.98201513 -0.12923281
vn -0.59644467 0.08662783 -0.79796576
vn -0.5540262 -0.32929367 -0.76460487
vn 0.8884475 -0.035546236 -0.4575996
vn 0.51341754 0.4700197 0.7179721
vn 0.5773879 -0.29769197 0.76026493
vn 0.95222825 -0.090311706 -0.29172778
vn 0.43726203 -0.7131537 0.54791766
vn 0.46181604 -0.66797835 0.58355016
vn 0.59239405 -0.16844125 0.78784317
vn 0.8130235 0.092187144 -0.5748864
vn 0.56888884 0.25891352 0.78059554
vn 0.4824405 0.3240252 -0.8137929
vn 0.51604116 0.4623472 0.72106624
vn 0.78632945 0.10630652 -0.6085926
vn -0.52163696 -0.44546762 -0.7276355
vn -0.5201136 -0.45013538 -0.7258511
vn 0.74745613 0.049859174 -0.6624375
vn -0.49680254 -0.515465 -0.69819987
vn 0.7273632 0.08539923 -0.6809183
vn -0.5818623 -0.178455 -0.79346716
vn -0.591427 -0.09015632 -0.8013026
vn 0.39718023 0.71489537 0.57547593
vn 0.49475387 0.5207318 0.695742
vn 0.42325956 0.6716034 0.60811204
vn -0.14386755 0.9799662 -0.13772494
vn -0.864789 0.017887093 0.50181687
vn -0.8509491 -0.01791813 0.52494246
vn -0.81370825 0.038460087 0.5799998
vn -0.78837425 0.024283025 0.61471653
vn -0.54762805 -0.15391003 0.8224446
vn -0.9345117 0.2639422 0.23879375
vn -0.69091296 -0.10251573 0.7156324
vn -0.6740816 -0.038276847 0.7376645
vn -0.9489122 0.23261766 0.21320061
vn -0.9806011 -0.19498222 -0.02008294
vn -0.96390736 0.16466111 0.20921144
vn -0.7560915 -0.2062196 0.62112737
vn -0.7658746 -0.21298584 0.6066902
vn -0.47967654 0.064596444 0.8750644
vn 0.5646408 0.28073868 0.7761227
vn 0.8022809 0.034019154 -0.5959766
vn 0.8022808 0.03401911 -0.59597665
vn 0.5646407 0.28073868 0.7761228
vn -0.5646409 -0.28073868 -0.7761227
vn -0.5646408 -0.28073868 -0.7761227
vn -0.8022808 -0.034019116 0.59597665
vn -0.8022809 -0.03401914 0.5959766
vn -0.31150994 -0.82779914 -0.46659404
vn -0.31151 -0.82779914 -0.46659407
vn -0.31151 -0.82779914 -0.46659407
vn -0.31150994 -0.82779914 -0.46659407
vn 0.47967637 -0.06459651 -0.8750645
vn -0.5638024 -0.28486177 -0.77522933
vn -0.593002 -0.069167465 -0.80222464
vn 0.7658747 0.21298578 -0.6066902
vn 0.7560915 0.20621955 -0.6211274
vn -0.5969459 0.04398908 -0.8010747
vn -0.56636596 -0.27207184 -0.77795017
vn 0.67408144 0.03827673 -0.7376646
vn 0.5320397 0.4119908 0.73972785
vn 0.566608 0.270835 0.7782055
vn 0.9806011 0.1949823 0.020082923
vn 0.53213346 0.4116742 0.7398367
vn 0.5484284 0.35225713 0.7583807
vn 0.9489122 -0.23261757 -0.2132007
vn 0.5597314 0.30412653 0.7708488
vn 0.96390736 -0.16466114 -0.20921132
vn -0.23963907 -0.8960421 -0.37374014
vn 0.39951155 -0.77242196 0.49371547
vn 0.1376412 -0.98201513 0.12923297
vn 0.5964444 -0.08662784 0.79796594
vn 0.55402607 0.32929364 0.76460505
vn 0.6909129 0.10251578 -0.71563244
vn -0.51341736 -0.4700201 -0.7179719
vn -0.5773879 0.29769242 -0.7602647
vn 0.5476281 0.15391017 -0.82244456
vn -0.43726194 0.7131538 -0.5479176
vn -0.46181622 0.6679782 -0.5835503
vn -0.59239405 0.16844125 -0.78784317
vn 0.7883742 -0.02428299 -0.61471653
vn -0.5688888 -0.25891346 -0.78059554
vn 0.9345116 -0.26394227 -0.23879378
vn -0.5160412 -0.4623472 -0.7210662
vn 0.81370825 -0.03846008 -0.57999974
vn 0.5216371 0.44546762 0.72763544
vn 0.5201136 0.45013535 0.7258511
vn 0.8509491 0.017918106 -0.5249424
vn 0.49680248 0.5154651 0.6981999
vn 0.864789 -0.017887121 -0.5018168
vn 0.58186203 0.17845498 0.7934672
vn 0.5914269 0.09015627 0.8013027
vn -0.39718032 -0.71489537 -0.5754759
vn -0.4947541 -0.5207318 -0.6957419
vn -0.42325962 -0.6716034 -0.608112
vn 0.14386544 -0.9799673 0.1377203
vn -0.7273631 -0.08539922 0.68091846
vn -0.7474562 -0.049859207 0.6624375
vn -0.78632945 -0.10630658 0.60859257
vn -0.81302357 -0.09218719 0.57488626
vn -0.95222825 0.090311825 0.29172784
vn -0.4824405 -0.3240252 0.8137929
vn -0.8884475 0.03554621 0.45759967
vn -0.9011739 -0.028518993 0.43251848
vn -0.4638135 -0.29252213 0.83624625
vn -0.27317408 0.14181833 0.95145345
vn -0.46801594 -0.22537875 0.85449725
vn -0.82246095 0.13928412 0.55150515
vn -0.8118352 0.14608605 0.56531614
vn -0.9710971 -0.12611364 0.20264687
vn -0.5646408 -0.28073868 -0.7761227
vn 0.8022808 0.034019098 -0.5959767
vn 0.8022808 0.034019154 -0.5959766
vn -0.5646407 -0.28073868 -0.7761228
vn 0.56464094 0.2807387 0.7761227
vn 0.56464076 0.28073868 0.77612275
vn -0.8022808 -0.034019124 0.5959766
vn -0.8022808 -0.034019087 0.59597665
vn 0.31151 0.8277991 0.4665942
vn 0.31151003 0.8277991 0.46659425
vn 0.31151003 0.8277991 0.46659425
vn 0.31151 0.8277991 0.46659425
vt 0.19015 0.94375205
vt 0.0316944 0.97759324
vt 0.14909486 0.8412865
vt 0.27915835 0.8610158
vt 0.3170083 0.7947886
vt 0.1407806 0.8023009
vt 0.16118725 0.76118827
vt 0.3497892 0.74721926
vt 0.47892076 0.8594179
vt 0.53927016 0.8101362
vt 0.46666914 0.74956983
vt 0.40400618 0.8907993
vt 0.35412902 0.93512315
vt 0.46703345 0.67732567
vt 0.5701995 0.75165194
vt 0.5960292 0.6594142
vt 0.5624602 0.62890184
vt 0.46381178 0.61459625
vt 0.6756222 0.59225136
vt 0.66877913 0.64167786
vt 0.65762925 0.6798984
vt 0.30802 0.6959083
vt 0.21896116 0.7423749
vt 0.24759637 0.71963304
vt 0.22764193 0.65664876
vt 0.19004966 0.70119333
vt 0.085520305 0.7219373
vt 0.077256195 0.6336964
vt 0.30213335 0.5175861
vt 0.102335766 0.5318666
vt 0.35779274 0.63347405
vt 0.17034891 0.42767757
vt 0.46513933 0.35815978
vt 0.5069649 0.5371883
vt 0.5677889 0.39664048
vt 0.6929052 0.2518943
vt 0.7939878 0.27283764
vt 0.83572143 0.1608156
vt 0.9018074 0.16288793
vt 0.44617018 0.57738817
vt 0.6129791 0.21738529
vt 0.7699702 0.14323246
vt 0.34194216 0.31365317
vt 0.94424796 0.021021724
vt 0.83572143 0.1608156
vt 0.6929052 0.2518943
vt 0.46513933 0.35815978
vt 0.30213335 0.5175861
vt 0.22764193 0.65664876
vt 0.35779274 0.63347405
vt 0.30802 0.6959083
vt 0.3497892 0.74721926
vt 0.46703345 0.67732567
vt 0.46666914 0.74956983
vt 0.5960292 0.6594142
vt 0.3170083 0.7947886
vt 0.27915835 0.8610158
vt 0.19015 0.94375205
vt 0.70290256 0.9690825
vt 0.8374127 0.49265665
vt 0.8374127 0.9690825
vt 0.70290256 0.49265665
vt 0.97192293 0.49265665
vt 0.97192293 0.9690825
vt 0.8374127 0.49265665
vt 0.8374127 0.9690825
vt 0.35412902 0.93512315
vt 0.0316944 0.97759324
vt 0.19015 0.94375205
vt 0.19015 0.94375205
vt 0.19015 0.94375205
vt 0.0316944 0.97759324
vt 0.14909486 0.8412865
vt 0.27915835 0.8610158
vt 0.3170083 0.7947886
vt 0.1407806 0.8023009
vt 0.16118725 0.76118827
vt 0.3497892 0.74721926
vt 0.47892076 0.8594179
vt 0.53927016 0.8101362
vt 0.46666914 0.74956983
vt 0.40400618 0.8907993
vt 0.35412902 0.93512315
vt 0.46703345 0.67732567
vt 0.5701995 0.75165194
vt 0.5960292 0.6594142
vt 0.5624602 0.62890184
vt 0.46381178 0.61459625
vt 0.6756222 0.59225136
vt 0.66877913 0.64167786
vt 0.65762925 0.6798984
vt 0.30802 0.6959083
vt 0.21896116 0.7423749
vt 0.24759637 0.71963304
vt 0.22764193 0.65664876
vt 0.19004966 0.70119333
vt 0.085520305 0.7219373
vt 0.077256195 0.6336964
vt 0.30213335 0.5175861
vt 0.102335766 0.5318666
vt 0.35779274 0.63347405
vt 0.17034891 0.42767757
vt 0.46513933 0.35815978
vt 0.5069649 0.5371883
vt 0.5677889 0.39664048
vt 0.6929052 0.2518943
vt 0.7939878 0.27283764
vt 0.83572143 0.1608156
vt 0.9018074 0.16288793
vt 0.44617018 0.57738817
vt 0.6129791 0.21738529
vt 0.7699702 0.14323246
vt 0.34194216 0.31365317
vt 0.94424796 0.021021724
vt 0.83572143 0.1608156
vt 0.6929052 0.2518943
vt 0.46513933 0.35815978
vt 0.30213335 0.5175861
vt 0.22764193 0.65664876
vt 0.35779274 0.63347405
vt 0.30802 0.6959083
vt 0.3497892 0.74721926
vt 0.46703345 0.67732567
vt 0.46666914 0.74956983
vt 0.5960292 0.6594142
vt 0.3170083 0.7947886
vt 0.27915835 0.8610158
vt 0.19015 0.94375205
vt 0.70290256 0.9690825
vt 0.8374127 0.49265665
vt 0.8374127 0.9690825
vt 0.70290256 0.49265665
vt 0.97192293 0.49265665
vt 0.97192293 0.9690825
vt 0.8374127 0.49265665
vt 0.8374127 0.9690825
vt 0.35412902 0.93512315
vt 0.0316944 0.97759324
vt 0.19015 0.94375205
vt 0.19015 0.94375205

g zhu_jue_03_w_0
s 1
usemtl zhu_jue_03_w_0
f 3/3/3 2/2/2 1/1/1 
f 4/4/4 3/3/3 1/1/1 
f 3/3/3 4/4/4 5/5/5 
f 6/6/6 3/3/3 5/5/5 
f 7/7/7 6/6/6 5/5/5 
f 7/7/7 5/5/5 8/8/8 
f 9/9/9 5/5/5 4/4/4 
f 10/10/10 5/5/5 9/9/9 
f 11/11/11 5/5/5 10/10/10 
f 8/8/8 5/5/5 11/11/11 
f 12/12/12 9/9/9 4/4/4 
f 12/12/12 4/4/4 1/1/1 
f 13/13/13 12/12/12 1/1/1 
f 8/8/8 11/11/11 14/14/14 
f 11/11/11 15/15/15 14/14/14 
f 15/15/15 11/11/11 10/10/10 
f 16/16/16 14/14/14 15/15/15 
f 14/14/14 16/16/16 17/17/17 
f 18/18/18 14/14/14 17/17/17 
f 17/17/17 16/16/16 19/19/19 
f 20/20/20 19/19/19 16/16/16 
f 21/21/21 20/20/20 16/16/16 
f 21/21/21 16/16/16 15/15/15 
f 22/22/22 8/8/8 14/14/14 
f 23/23/23 8/8/8 22/22/22 
f 24/24/24 23/23/23 22/22/22 
f 24/24/24 22/22/22 25/25/25 
f 26/26/26 24/24/24 25/25/25 
f 27/27/27 26/26/26 25/25/25 
f 28/28/28 27/27/27 25/25/25 
f 25/25/25 29/29/29 28/28/28 
f 29/29/29 30/30/30 28/28/28 
f 31/31/31 29/29/29 25/25/25 
f 25/25/25 22/22/22 31/31/31 
f 32/32/32 30/30/30 29/29/29 
f 32/32/32 29/29/29 33/33/33 
f 33/33/33 29/29/29 34/34/34 
f 35/35/35 33/33/33 34/34/34 
f 36/36/36 33/33/33 35/35/35 
f 37/37/37 36/36/36 35/35/35 
f 38/38/38 36/36/36 37/37/37 
f 39/39/39 38/38/38 37/37/37 
f 34/34/34 29/29/29 40/40/40 
f 40/40/40 29/29/29 31/31/31 
f 41/41/41 36/36/36 38/38/38 
f 42/42/42 41/41/41 38/38/38 
f 41/41/41 43/43/43 36/36/36 
f 43/43/43 33/33/33 36/36/36 
f 43/43/43 32/32/32 33/33/33 
f 39/39/39 44/44/44 38/38/38 
f 38/38/38 44/44/44 42/42/42 
f 18/18/18 40/40/40 31/31/31 
f 18/18/18 31/31/31 14/14/14 
f 22/22/22 14/14/14 31/31/31 
f 45/45/45 39/39/39 37/37/37 
f 41/41/41 42/42/42 45/45/45 
f 44/44/44 39/39/39 45/45/45 
f 44/44/44 45/45/45 42/42/42 
f 46/46/46 45/45/45 37/37/37 
f 46/46/46 37/37/37 35/35/35 
f 46/46/46 41/41/41 45/45/45 
f 43/43/43 41/41/41 46/46/46 
f 47/47/47 46/46/46 35/35/35 
f 47/47/47 43/43/43 46/46/46 
f 47/47/47 35/35/35 34/34/34 
f 48/48/48 47/47/47 34/34/34 
f 48/48/48 34/34/34 40/40/40 
f 48/48/48 32/32/32 47/47/47 
f 32/32/32 43/43/43 47/47/47 
f 30/30/30 32/32/32 48/48/48 
f 30/30/30 48/48/48 28/28/28 
f 48/48/48 49/49/49 28/28/28 
f 48/48/48 50/50/50 49/49/49 
f 27/27/27 28/28/28 49/49/49 
f 26/26/26 27/27/27 49/49/49 
f 24/24/24 26/26/26 49/49/49 
f 51/51/51 24/24/24 49/49/49 
f 51/51/51 49/49/49 50/50/50 
f 23/23/23 24/24/24 51/51/51 
f 52/52/52 23/23/23 51/51/51 
f 53/53/53 51/51/51 50/50/50 
f 52/52/52 51/51/51 53/53/53 
f 54/54/54 52/52/52 53/53/53 
f 15/15/15 54/54/54 53/53/53 
f 53/53/53 55/55/55 15/15/15 
f 55/55/55 53/53/53 17/17/17 
f 53/53/53 18/18/18 17/17/17 
f 50/50/50 18/18/18 53/53/53 
f 55/55/55 17/17/17 19/19/19 
f 19/19/19 20/20/20 55/55/55 
f 20/20/20 21/21/21 55/55/55 
f 55/55/55 21/21/21 15/15/15 
f 54/54/54 15/15/15 10/10/10 
f 56/56/56 54/54/54 10/10/10 
f 56/56/56 52/52/52 54/54/54 
f 56/56/56 10/10/10 9/9/9 
f 56/56/56 7/7/7 52/52/52 
f 7/7/7 23/23/23 52/52/52 
f 23/23/23 7/7/7 8/8/8 
f 6/6/6 7/7/7 56/56/56 
f 3/3/3 6/6/6 56/56/56 
f 57/57/57 3/3/3 56/56/56 
f 56/56/56 9/9/9 57/57/57 
f 9/9/9 12/12/12 57/57/57 
f 57/57/57 12/12/12 58/58/58 
f 3/3/3 57/57/57 58/58/58 
f 2/2/2 3/3/3 58/58/58 
f 12/12/12 13/13/13 58/58/58 
f 40/40/40 18/18/18 50/50/50 
f 48/48/48 40/40/40 50/50/50 
f 61/61/61 60/60/60 59/59/59 
f 60/60/60 62/62/62 59/59/59 
f 63/63/63 60/60/60 61/61/61 
f 64/64/64 63/63/63 61/61/61 
f 62/62/62 65/65/65 59/59/59 
f 65/65/65 66/66/66 59/59/59 
f 65/65/65 63/63/63 66/66/66 
f 63/63/63 64/64/64 66/66/66 
f 69/69/69 68/68/68 67/67/67 
f 68/68/68 70/70/70 67/67/67 
f 73/73/73 72/72/72 71/71/71 
f 74/74/74 73/73/73 71/71/71 
f 73/73/73 74/74/74 75/75/75 
f 76/76/76 73/73/73 75/75/75 
f 77/77/77 76/76/76 75/75/75 
f 77/77/77 75/75/75 78/78/78 
f 79/79/79 75/75/75 74/74/74 
f 80/80/80 75/75/75 79/79/79 
f 81/81/81 75/75/75 80/80/80 
f 78/78/78 75/75/75 81/81/81 
f 82/82/82 79/79/79 74/74/74 
f 82/82/82 74/74/74 71/71/71 
f 83/83/83 82/82/82 71/71/71 
f 78/78/78 81/81/81 84/84/84 
f 81/81/81 85/85/85 84/84/84 
f 85/85/85 81/81/81 80/80/80 
f 86/86/86 84/84/84 85/85/85 
f 84/84/84 86/86/86 87/87/87 
f 88/88/88 84/84/84 87/87/87 
f 87/87/87 86/86/86 89/89/89 
f 90/90/90 89/89/89 86/86/86 
f 91/91/91 90/90/90 86/86/86 
f 91/91/91 86/86/86 85/85/85 
f 92/92/92 78/78/78 84/84/84 
f 93/93/93 78/78/78 92/92/92 
f 94/94/94 93/93/93 92/92/92 
f 94/94/94 92/92/92 95/95/95 
f 96/96/96 94/94/94 95/95/95 
f 97/97/97 96/96/96 95/95/95 
f 98/98/98 97/97/97 95/95/95 
f 95/95/95 99/99/99 98/98/98 
f 99/99/99 100/100/100 98/98/98 
f 101/101/101 99/99/99 95/95/95 
f 95/95/95 92/92/92 101/101/101 
f 102/102/102 100/100/100 99/99/99 
f 102/102/102 99/99/99 103/103/103 
f 103/103/103 99/99/99 104/104/104 
f 105/105/105 103/103/103 104/104/104 
f 106/106/106 103/103/103 105/105/105 
f 107/107/107 106/106/106 105/105/105 
f 108/108/108 106/106/106 107/107/107 
f 109/109/109 108/108/108 107/107/107 
f 104/104/104 99/99/99 110/110/110 
f 110/110/110 99/99/99 101/101/101 
f 111/111/111 106/106/106 108/108/108 
f 112/112/112 111/111/111 108/108/108 
f 111/111/111 113/113/113 106/106/106 
f 113/113/113 103/103/103 106/106/106 
f 113/113/113 102/102/102 103/103/103 
f 109/109/109 114/114/114 108/108/108 
f 108/108/108 114/114/114 112/112/112 
f 88/88/88 110/110/110 101/101/101 
f 88/88/88 101/101/101 84/84/84 
f 92/92/92 84/84/84 101/101/101 
f 115/115/115 109/109/109 107/107/107 
f 111/111/111 112/112/112 115/115/115 
f 114/114/114 109/109/109 115/115/115 
f 114/114/114 115/115/115 112/112/112 
f 116/116/116 115/115/115 107/107/107 
f 116/116/116 107/107/107 105/105/105 
f 116/116/116 111/111/111 115/115/115 
f 113/113/113 111/111/111 116/116/116 
f 117/117/117 116/116/116 105/105/105 
f 117/117/117 113/113/113 116/116/116 
f 117/117/117 105/105/105 104/104/104 
f 118/118/118 117/117/117 104/104/104 
f 118/118/118 104/104/104 110/110/110 
f 118/118/118 102/102/102 117/117/117 
f 102/102/102 113/113/113 117/117/117 
f 100/100/100 102/102/102 118/118/118 
f 100/100/100 118/118/118 98/98/98 
f 118/118/118 119/119/119 98/98/98 
f 118/118/118 120/120/120 119/119/119 
f 97/97/97 98/98/98 119/119/119 
f 96/96/96 97/97/97 119/119/119 
f 94/94/94 96/96/96 119/119/119 
f 121/121/121 94/94/94 119/119/119 
f 121/121/121 119/119/119 120/120/120 
f 93/93/93 94/94/94 121/121/121 
f 122/122/122 93/93/93 121/121/121 
f 123/123/123 121/121/121 120/120/120 
f 122/122/122 121/121/121 123/123/123 
f 124/124/124 122/122/122 123/123/123 
f 85/85/85 124/124/124 123/123/123 
f 123/123/123 125/125/125 85/85/85 
f 125/125/125 123/123/123 87/87/87 
f 123/123/123 88/88/88 87/87/87 
f 120/120/120 88/88/88 123/123/123 
f 125/125/125 87/87/87 89/89/89 
f 89/89/89 90/90/90 125/125/125 
f 90/90/90 91/91/91 125/125/125 
f 125/125/125 91/91/91 85/85/85 
f 124/124/124 85/85/85 80/80/80 
f 126/126/126 124/124/124 80/80/80 
f 126/126/126 122/122/122 124/124/124 
f 126/126/126 80/80/80 79/79/79 
f 126/126/126 77/77/77 122/122/122 
f 77/77/77 93/93/93 122/122/122 
f 93/93/93 77/77/77 78/78/78 
f 76/76/76 77/77/77 126/126/126 
f 73/73/73 76/76/76 126/126/126 
f 127/127/127 73/73/73 126/126/126 
f 126/126/126 79/79/79 127/127/127 
f 79/79/79 82/82/82 127/127/127 
f 127/127/127 82/82/82 128/128/128 
f 73/73/73 127/127/127 128/128/128 
f 72/72/72 73/73/73 128/128/128 
f 82/82/82 83/83/83 128/128/128 
f 110/110/110 88/88/88 120/120/120 
f 118/118/118 110/110/110 120/120/120 
f 131/131/131 130/130/130 129/129/129 
f 130/130/130 132/132/132 129/129/129 
f 133/133/133 130/130/130 131/131/131 
f 134/134/134 133/133/133 131/131/131 
f 132/132/132 135/135/135 129/129/129 
f 135/135/135 136/136/136 129/129/129 
f 135/135/135 133/133/133 136/136/136 
f 133/133/133 134/134/134 136/136/136 
f 139/139/139 138/138/138 137/137/137 
f 138/138/138 140/140/140 137/137/137 

